<?xml version="1.0" encoding="utf-8" standalone="no"?>
<!DOCTYPE svg PUBLIC "-//W3C//DTD SVG 1.1//EN"
  "http://www.w3.org/Graphics/SVG/1.1/DTD/svg11.dtd">
<!-- Created with matplotlib (https://matplotlib.org/) -->
<svg height="1080pt" version="1.1" viewBox="0 0 720 1080" width="720pt" xmlns="http://www.w3.org/2000/svg" xmlns:xlink="http://www.w3.org/1999/xlink">
 <metadata>
  <rdf:RDF xmlns:cc="http://creativecommons.org/ns#" xmlns:dc="http://purl.org/dc/elements/1.1/" xmlns:rdf="http://www.w3.org/1999/02/22-rdf-syntax-ns#">
   <cc:Work>
    <dc:type rdf:resource="http://purl.org/dc/dcmitype/StillImage"/>
    <dc:date>2021-04-15T17:16:59.343567</dc:date>
    <dc:format>image/svg+xml</dc:format>
    <dc:creator>
     <cc:Agent>
      <dc:title>Matplotlib v3.3.2, https://matplotlib.org/</dc:title>
     </cc:Agent>
    </dc:creator>
   </cc:Work>
  </rdf:RDF>
 </metadata>
 <defs>
  <style type="text/css">*{stroke-linecap:butt;stroke-linejoin:round;}</style>
 </defs>
 <g id="figure_1">
  <g id="patch_1">
   <path d="M 0 1080 
L 720 1080 
L 720 0 
L 0 0 
z
" style="fill:none;"/>
  </g>
  <g id="axes_1">
   <g id="patch_2">
    <path d="M 90 945 
L 536.4 945 
L 536.4 129.6 
L 90 129.6 
z
" style="fill:#ffffff;"/>
   </g>
   <g id="PathCollection_1">
    <path clip-path="url(#p3e7e29fc7b)" d="M 289.493387 646.100678 
L 290.387976 750.166018 
L 291.282565 783.558328 
L 292.177154 747.583128 
L 293.071743 648.691649 
L 293.966333 497.329588 
L 294.048828 479.057143 
L 294.860922 290.065848 
L 295.455887 129.6 
L 294.860922 129.6 
L 293.966333 129.6 
L 293.071743 129.6 
L 292.177154 129.6 
L 291.282565 129.6 
L 290.387976 129.6 
L 289.493387 129.6 
L 288.598798 129.6 
L 287.704208 129.6 
L 287.425946 129.6 
L 287.704208 224.731825 
L 288.598798 475.003024 
L 288.618394 479.057143 
z
" style="fill:#48186a;"/>
    <path clip-path="url(#p3e7e29fc7b)" d="M 331.539078 497.328652 
L 332.433667 648.687987 
L 333.328257 747.577245 
L 334.222846 783.549147 
L 335.117435 750.158129 
L 336.012024 646.097499 
L 336.886995 479.057143 
L 336.906613 474.998611 
L 337.801202 224.752595 
L 338.079551 129.6 
L 337.801202 129.6 
L 336.906613 129.6 
L 336.012024 129.6 
L 335.117435 129.6 
L 334.222846 129.6 
L 333.328257 129.6 
L 332.433667 129.6 
L 331.539078 129.6 
L 330.644489 129.6 
L 330.049505 129.6 
L 330.644489 290.070912 
L 331.456583 479.057143 
z
" style="fill:#48186a;"/>
   </g>
   <g id="PathCollection_2">
    <path clip-path="url(#p3e7e29fc7b)" d="M 209.87495 945 
L 210.769539 945 
L 211.664128 945 
L 212.558717 945 
L 213.453307 945 
L 214.347896 945 
L 215.242485 945 
L 216.137074 945 
L 217.031663 945 
L 217.926253 945 
L 218.820842 945 
L 219.715431 945 
L 220.61002 945 
L 221.504609 945 
L 222.399198 945 
L 223.293788 945 
L 224.188377 945 
L 225.082966 945 
L 225.977555 945 
L 226.872144 945 
L 227.766733 945 
L 228.661323 945 
L 229.555912 945 
L 230.450501 945 
L 231.34509 945 
L 232.239679 945 
L 233.134269 945 
L 234.028858 945 
L 234.923447 945 
L 235.818036 945 
L 236.712625 945 
L 237.607214 945 
L 238.501804 945 
L 239.396393 945 
L 240.290982 945 
L 241.185571 945 
L 242.08016 945 
L 242.974749 945 
L 243.869339 945 
L 244.763928 945 
L 245.067742 945 
L 245.61286 479.057143 
L 245.658517 441.288521 
L 246.013856 129.6 
L 245.658517 129.6 
L 244.763928 129.6 
L 243.869339 129.6 
L 242.974749 129.6 
L 242.08016 129.6 
L 241.185571 129.6 
L 240.290982 129.6 
L 239.396393 129.6 
L 238.501804 129.6 
L 237.607214 129.6 
L 236.712625 129.6 
L 235.818036 129.6 
L 234.923447 129.6 
L 234.028858 129.6 
L 233.134269 129.6 
L 232.239679 129.6 
L 231.34509 129.6 
L 230.450501 129.6 
L 229.555912 129.6 
L 228.661323 129.6 
L 227.766733 129.6 
L 226.872144 129.6 
L 225.977555 129.6 
L 225.082966 129.6 
L 224.188377 129.6 
L 223.293788 129.6 
L 222.399198 129.6 
L 221.504609 129.6 
L 220.61002 129.6 
L 219.715431 129.6 
L 218.820842 129.6 
L 217.926253 129.6 
L 217.031663 129.6 
L 216.137074 129.6 
L 215.242485 129.6 
L 214.347896 129.6 
L 213.453307 129.6 
L 212.558717 129.6 
L 211.664128 129.6 
L 210.769539 129.6 
L 209.87495 129.6 
L 208.980361 129.6 
L 208.929032 129.6 
L 208.980361 221.573149 
L 209.125821 479.057143 
L 209.39378 945 
z
" style="fill:#424086;"/>
    <path clip-path="url(#p3e7e29fc7b)" d="M 285.91503 725.337054 
L 286.498912 945 
L 286.809619 945 
L 287.704208 945 
L 288.598798 945 
L 289.493387 945 
L 290.387976 945 
L 291.282565 945 
L 292.177154 945 
L 293.071743 945 
L 293.966333 945 
L 294.860922 945 
L 295.755511 945 
L 296.117886 945 
L 296.6501 782.822374 
L 297.544689 500.97435 
L 297.612348 479.057143 
L 298.439279 201.703736 
L 298.654937 129.6 
L 298.439279 129.6 
L 297.544689 129.6 
L 296.6501 129.6 
L 295.755511 129.6 
L 295.455887 129.6 
L 294.860922 290.065848 
L 294.048828 479.057143 
L 293.966333 497.329588 
L 293.071743 648.691649 
L 292.177154 747.583128 
L 291.282565 783.558328 
L 290.387976 750.166018 
L 289.493387 646.100678 
L 288.618394 479.057143 
L 288.598798 475.003024 
L 287.704208 224.731825 
L 287.425946 129.6 
L 286.809619 129.6 
L 285.91503 129.6 
L 285.020441 129.6 
L 284.5439 129.6 
L 285.020441 350.61693 
L 285.316265 479.057143 
z
" style="fill:#424086;"/>
    <path clip-path="url(#p3e7e29fc7b)" d="M 327.960721 500.977836 
L 328.855311 782.819963 
L 329.38754 945 
L 329.7499 945 
L 330.644489 945 
L 331.539078 945 
L 332.433667 945 
L 333.328257 945 
L 334.222846 945 
L 335.117435 945 
L 336.012024 945 
L 336.906613 945 
L 337.801202 945 
L 338.695792 945 
L 339.006441 945 
L 339.590381 725.325077 
L 340.189135 479.057143 
L 340.48497 350.6225 
L 340.96156 129.6 
L 340.48497 129.6 
L 339.590381 129.6 
L 338.695792 129.6 
L 338.079551 129.6 
L 337.801202 224.752595 
L 336.906613 474.998611 
L 336.886995 479.057143 
L 336.012024 646.097499 
L 335.117435 750.158129 
L 334.222846 783.549147 
L 333.328257 747.577245 
L 332.433667 648.687987 
L 331.539078 497.328652 
L 331.456583 479.057143 
L 330.644489 290.070912 
L 330.049505 129.6 
L 329.7499 129.6 
L 328.855311 129.6 
L 327.960721 129.6 
L 327.066132 129.6 
L 326.850461 129.6 
L 327.066132 201.707891 
L 327.893052 479.057143 
z
" style="fill:#424086;"/>
    <path clip-path="url(#p3e7e29fc7b)" d="M 380.741483 945 
L 381.636072 945 
L 382.530661 945 
L 383.425251 945 
L 384.31984 945 
L 385.214429 945 
L 386.109018 945 
L 387.003607 945 
L 387.898196 945 
L 388.792786 945 
L 389.687375 945 
L 390.581964 945 
L 391.476553 945 
L 392.371142 945 
L 393.265731 945 
L 394.160321 945 
L 395.05491 945 
L 395.949499 945 
L 396.844088 945 
L 397.738677 945 
L 398.633267 945 
L 399.527856 945 
L 400.422445 945 
L 401.317034 945 
L 402.211623 945 
L 403.106212 945 
L 404.000802 945 
L 404.895391 945 
L 405.78998 945 
L 406.684569 945 
L 407.579158 945 
L 408.473747 945 
L 409.368337 945 
L 410.262926 945 
L 411.157515 945 
L 412.052104 945 
L 412.946693 945 
L 413.841283 945 
L 414.735872 945 
L 415.630461 945 
L 416.111568 945 
L 416.379577 479.057143 
L 416.52505 221.603359 
L 416.5764 129.6 
L 416.52505 129.6 
L 415.630461 129.6 
L 414.735872 129.6 
L 413.841283 129.6 
L 412.946693 129.6 
L 412.052104 129.6 
L 411.157515 129.6 
L 410.262926 129.6 
L 409.368337 129.6 
L 408.473747 129.6 
L 407.579158 129.6 
L 406.684569 129.6 
L 405.78998 129.6 
L 404.895391 129.6 
L 404.000802 129.6 
L 403.106212 129.6 
L 402.211623 129.6 
L 401.317034 129.6 
L 400.422445 129.6 
L 399.527856 129.6 
L 398.633267 129.6 
L 397.738677 129.6 
L 396.844088 129.6 
L 395.949499 129.6 
L 395.05491 129.6 
L 394.160321 129.6 
L 393.265731 129.6 
L 392.371142 129.6 
L 391.476553 129.6 
L 390.581964 129.6 
L 389.687375 129.6 
L 388.792786 129.6 
L 387.898196 129.6 
L 387.003607 129.6 
L 386.109018 129.6 
L 385.214429 129.6 
L 384.31984 129.6 
L 383.425251 129.6 
L 382.530661 129.6 
L 381.636072 129.6 
L 380.741483 129.6 
L 379.846894 129.6 
L 379.491485 129.6 
L 379.846894 441.307156 
L 379.892535 479.057143 
L 380.437718 945 
z
" style="fill:#424086;"/>
   </g>
   <g id="PathCollection_3">
    <path clip-path="url(#p3e7e29fc7b)" d="M 190.193988 945 
L 191.088577 945 
L 191.983166 945 
L 192.877756 945 
L 193.772345 945 
L 194.666934 945 
L 195.561523 945 
L 196.456112 945 
L 197.350701 945 
L 198.245291 945 
L 199.13988 945 
L 200.034469 945 
L 200.929058 945 
L 201.823647 945 
L 202.718236 945 
L 203.612826 945 
L 204.507415 945 
L 205.402004 945 
L 206.296593 945 
L 207.191182 945 
L 208.085772 945 
L 208.980361 945 
L 209.39378 945 
L 209.125821 479.057143 
L 208.980361 221.573149 
L 208.929032 129.6 
L 208.085772 129.6 
L 207.191182 129.6 
L 206.296593 129.6 
L 205.402004 129.6 
L 204.507415 129.6 
L 203.612826 129.6 
L 202.718236 129.6 
L 201.823647 129.6 
L 200.929058 129.6 
L 200.034469 129.6 
L 199.13988 129.6 
L 198.245291 129.6 
L 197.350701 129.6 
L 196.456112 129.6 
L 195.561523 129.6 
L 194.666934 129.6 
L 193.772345 129.6 
L 192.877756 129.6 
L 191.983166 129.6 
L 191.088577 129.6 
L 190.193988 129.6 
L 189.768582 129.6 
L 189.891401 479.057143 
L 190.05703 945 
z
" style="fill:#33638d;"/>
    <path clip-path="url(#p3e7e29fc7b)" d="M 245.658517 945 
L 246.553106 945 
L 247.447695 945 
L 248.342285 945 
L 249.236874 945 
L 250.131463 945 
L 251.026052 945 
L 251.073228 945 
L 251.585017 479.057143 
L 251.920641 190.269343 
L 251.989655 129.6 
L 251.920641 129.6 
L 251.026052 129.6 
L 250.131463 129.6 
L 249.236874 129.6 
L 248.342285 129.6 
L 247.447695 129.6 
L 246.553106 129.6 
L 246.013856 129.6 
L 245.658517 441.288521 
L 245.61286 479.057143 
L 245.067742 945 
z
" style="fill:#33638d;"/>
    <path clip-path="url(#p3e7e29fc7b)" d="M 283.231263 578.907161 
L 284.033737 945 
L 284.125852 945 
L 285.020441 945 
L 285.91503 945 
L 286.498912 945 
L 285.91503 725.337054 
L 285.316265 479.057143 
L 285.020441 350.61693 
L 284.5439 129.6 
L 284.125852 129.6 
L 283.231263 129.6 
L 282.336673 129.6 
L 282.289928 129.6 
L 282.336673 152.096152 
L 283.014039 479.057143 
z
" style="fill:#33638d;"/>
    <path clip-path="url(#p3e7e29fc7b)" d="M 296.6501 945 
L 297.544689 945 
L 298.439279 945 
L 298.766898 945 
L 299.333868 754.750352 
L 300.193318 479.057143 
L 300.228457 467.383599 
L 301.123046 180.088898 
L 301.289624 129.6 
L 301.123046 129.6 
L 300.228457 129.6 
L 299.333868 129.6 
L 298.654937 129.6 
L 298.439279 201.703736 
L 297.612348 479.057143 
L 297.544689 500.97435 
L 296.6501 782.822374 
L 296.117886 945 
z
" style="fill:#33638d;"/>
    <path clip-path="url(#p3e7e29fc7b)" d="M 326.171543 754.748704 
L 326.738519 945 
L 327.066132 945 
L 327.960721 945 
L 328.855311 945 
L 329.38754 945 
L 328.855311 782.819963 
L 327.960721 500.977836 
L 327.893052 479.057143 
L 327.066132 201.707891 
L 326.850461 129.6 
L 326.171543 129.6 
L 325.276954 129.6 
L 324.382365 129.6 
L 324.215783 129.6 
L 324.382365 180.08998 
L 325.276954 467.387145 
L 325.312083 479.057143 
z
" style="fill:#33638d;"/>
    <path clip-path="url(#p3e7e29fc7b)" d="M 339.590381 945 
L 340.48497 945 
L 341.379559 945 
L 341.471635 945 
L 342.274148 578.900045 
L 342.491363 479.057143 
L 343.168737 152.119263 
L 343.215536 129.6 
L 343.168737 129.6 
L 342.274148 129.6 
L 341.379559 129.6 
L 340.96156 129.6 
L 340.48497 350.6225 
L 340.189135 479.057143 
L 339.590381 725.325077 
L 339.006441 945 
z
" style="fill:#33638d;"/>
    <path clip-path="url(#p3e7e29fc7b)" d="M 374.479359 945 
L 375.373948 945 
L 376.268537 945 
L 377.163126 945 
L 378.057715 945 
L 378.952305 945 
L 379.846894 945 
L 380.437718 945 
L 379.892535 479.057143 
L 379.846894 441.307156 
L 379.491485 129.6 
L 378.952305 129.6 
L 378.057715 129.6 
L 377.163126 129.6 
L 376.268537 129.6 
L 375.373948 129.6 
L 374.479359 129.6 
L 373.58477 129.6 
L 373.515715 129.6 
L 373.58477 190.298278 
L 373.92039 479.057143 
L 374.432216 945 
z
" style="fill:#33638d;"/>
    <path clip-path="url(#p3e7e29fc7b)" d="M 416.52505 945 
L 417.419639 945 
L 418.314228 945 
L 419.208818 945 
L 420.103407 945 
L 420.997996 945 
L 421.892585 945 
L 422.787174 945 
L 423.681764 945 
L 424.576353 945 
L 425.470942 945 
L 426.365531 945 
L 427.26012 945 
L 428.154709 945 
L 429.049299 945 
L 429.943888 945 
L 430.838477 945 
L 431.733066 945 
L 432.627655 945 
L 433.522244 945 
L 434.416834 945 
L 435.311423 945 
L 435.448373 945 
L 435.614026 479.057143 
L 435.736892 129.6 
L 435.311423 129.6 
L 434.416834 129.6 
L 433.522244 129.6 
L 432.627655 129.6 
L 431.733066 129.6 
L 430.838477 129.6 
L 429.943888 129.6 
L 429.049299 129.6 
L 428.154709 129.6 
L 427.26012 129.6 
L 426.365531 129.6 
L 425.470942 129.6 
L 424.576353 129.6 
L 423.681764 129.6 
L 422.787174 129.6 
L 421.892585 129.6 
L 420.997996 129.6 
L 420.103407 129.6 
L 419.208818 129.6 
L 418.314228 129.6 
L 417.419639 129.6 
L 416.5764 129.6 
L 416.52505 221.603359 
L 416.379577 479.057143 
L 416.111568 945 
z
" style="fill:#33638d;"/>
   </g>
   <g id="PathCollection_4">
    <path clip-path="url(#p3e7e29fc7b)" d="M 166.934669 496.377634 
L 167.052918 945 
L 167.829259 945 
L 168.723848 945 
L 169.618437 945 
L 170.513026 945 
L 171.407615 945 
L 172.302204 945 
L 173.196794 945 
L 174.091383 945 
L 174.985972 945 
L 175.880561 945 
L 176.77515 945 
L 177.669739 945 
L 178.564329 945 
L 179.458918 945 
L 180.353507 945 
L 181.248096 945 
L 182.142685 945 
L 183.037275 945 
L 183.931864 945 
L 184.826453 945 
L 185.721042 945 
L 186.615631 945 
L 187.51022 945 
L 188.40481 945 
L 189.299399 945 
L 190.05703 945 
L 189.891401 479.057143 
L 189.768582 129.6 
L 189.299399 129.6 
L 188.40481 129.6 
L 187.51022 129.6 
L 186.615631 129.6 
L 185.721042 129.6 
L 184.826453 129.6 
L 183.931864 129.6 
L 183.037275 129.6 
L 182.142685 129.6 
L 181.248096 129.6 
L 180.353507 129.6 
L 179.458918 129.6 
L 178.564329 129.6 
L 177.669739 129.6 
L 176.77515 129.6 
L 175.880561 129.6 
L 174.985972 129.6 
L 174.091383 129.6 
L 173.196794 129.6 
L 172.302204 129.6 
L 171.407615 129.6 
L 170.513026 129.6 
L 169.618437 129.6 
L 168.723848 129.6 
L 167.829259 129.6 
L 166.934669 129.6 
L 166.83769 129.6 
L 166.930064 479.057143 
z
" style="fill:#26818e;"/>
    <path clip-path="url(#p3e7e29fc7b)" d="M 251.920641 945 
L 252.81523 945 
L 253.70982 945 
L 254.604409 945 
L 255.311143 945 
L 255.498998 794.315591 
L 255.897888 479.057143 
L 256.366087 129.6 
L 255.498998 129.6 
L 254.604409 129.6 
L 253.70982 129.6 
L 252.81523 129.6 
L 251.989655 129.6 
L 251.920641 190.269343 
L 251.585017 479.057143 
L 251.073228 945 
z
" style="fill:#26818e;"/>
    <path clip-path="url(#p3e7e29fc7b)" d="M 281.442084 712.4202 
L 281.950651 945 
L 282.336673 945 
L 283.231263 945 
L 284.033737 945 
L 283.231263 578.907161 
L 283.014039 479.057143 
L 282.336673 152.096152 
L 282.289928 129.6 
L 281.442084 129.6 
L 280.547495 129.6 
L 280.153321 129.6 
L 280.547495 306.736827 
L 280.916446 479.057143 
z
" style="fill:#26818e;"/>
    <path clip-path="url(#p3e7e29fc7b)" d="M 299.333868 945 
L 300.228457 945 
L 301.057896 945 
L 301.123046 924.14045 
L 302.017635 651.752302 
L 302.640198 479.057143 
L 302.912224 400.438057 
L 303.806814 163.327433 
L 303.946909 129.6 
L 303.806814 129.6 
L 302.912224 129.6 
L 302.017635 129.6 
L 301.289624 129.6 
L 301.123046 180.088898 
L 300.228457 467.383599 
L 300.193318 479.057143 
L 299.333868 754.750352 
L 298.766898 945 
z
" style="fill:#26818e;"/>
    <path clip-path="url(#p3e7e29fc7b)" d="M 323.487776 651.753541 
L 324.382365 924.139931 
L 324.447517 945 
L 325.276954 945 
L 326.171543 945 
L 326.738519 945 
L 326.171543 754.748704 
L 325.312083 479.057143 
L 325.276954 467.387145 
L 324.382365 180.08998 
L 324.215783 129.6 
L 323.487776 129.6 
L 322.593186 129.6 
L 321.698597 129.6 
L 321.558513 129.6 
L 321.698597 163.325106 
L 322.593186 400.438369 
L 322.865207 479.057143 
z
" style="fill:#26818e;"/>
    <path clip-path="url(#p3e7e29fc7b)" d="M 342.274148 945 
L 343.168737 945 
L 343.554703 945 
L 344.063327 712.403646 
L 344.588967 479.057143 
L 344.957916 306.754086 
L 345.35216 129.6 
L 344.957916 129.6 
L 344.063327 129.6 
L 343.215536 129.6 
L 343.168737 152.119263 
L 342.491363 479.057143 
L 342.274148 578.900045 
L 341.471635 945 
z
" style="fill:#26818e;"/>
    <path clip-path="url(#p3e7e29fc7b)" d="M 370.006413 794.289 
L 370.19431 945 
L 370.901002 945 
L 371.795591 945 
L 372.69018 945 
L 373.58477 945 
L 374.432216 945 
L 373.92039 479.057143 
L 373.58477 190.298278 
L 373.515715 129.6 
L 372.69018 129.6 
L 371.795591 129.6 
L 370.901002 129.6 
L 370.006413 129.6 
L 369.139287 129.6 
L 369.607518 479.057143 
z
" style="fill:#26818e;"/>
    <path clip-path="url(#p3e7e29fc7b)" d="M 436.206012 945 
L 437.100601 945 
L 437.99519 945 
L 438.88978 945 
L 439.784369 945 
L 440.678958 945 
L 441.573547 945 
L 442.468136 945 
L 443.362725 945 
L 444.257315 945 
L 445.151904 945 
L 446.046493 945 
L 446.941082 945 
L 447.835671 945 
L 448.730261 945 
L 449.62485 945 
L 450.519439 945 
L 451.414028 945 
L 452.308617 945 
L 453.203206 945 
L 454.097796 945 
L 454.992385 945 
L 455.886974 945 
L 456.781563 945 
L 457.676152 945 
L 458.452461 945 
L 458.570741 496.024534 
L 458.575251 479.057143 
L 458.667851 129.6 
L 458.570741 129.6 
L 457.676152 129.6 
L 456.781563 129.6 
L 455.886974 129.6 
L 454.992385 129.6 
L 454.097796 129.6 
L 453.203206 129.6 
L 452.308617 129.6 
L 451.414028 129.6 
L 450.519439 129.6 
L 449.62485 129.6 
L 448.730261 129.6 
L 447.835671 129.6 
L 446.941082 129.6 
L 446.046493 129.6 
L 445.151904 129.6 
L 444.257315 129.6 
L 443.362725 129.6 
L 442.468136 129.6 
L 441.573547 129.6 
L 440.678958 129.6 
L 439.784369 129.6 
L 438.88978 129.6 
L 437.99519 129.6 
L 437.100601 129.6 
L 436.206012 129.6 
L 435.736892 129.6 
L 435.614026 479.057143 
L 435.448373 945 
z
" style="fill:#26818e;"/>
   </g>
   <g id="PathCollection_5">
    <path clip-path="url(#p3e7e29fc7b)" d="M 134.729459 945 
L 135.624048 945 
L 136.518637 945 
L 137.413226 945 
L 138.307816 945 
L 139.202405 945 
L 140.096994 945 
L 140.991583 945 
L 141.886172 945 
L 142.780762 945 
L 143.675351 945 
L 144.56994 945 
L 145.464529 945 
L 146.359118 945 
L 147.253707 945 
L 148.148297 945 
L 149.042886 945 
L 149.937475 945 
L 150.832064 945 
L 151.726653 945 
L 152.621242 945 
L 153.515832 945 
L 154.410421 945 
L 155.30501 945 
L 156.199599 945 
L 157.094188 945 
L 157.988778 945 
L 158.883367 945 
L 159.777956 945 
L 160.672545 945 
L 161.567134 945 
L 162.461723 945 
L 163.356313 945 
L 164.250902 945 
L 165.145491 945 
L 166.04008 945 
L 166.934669 945 
L 167.052918 945 
L 166.934669 496.377634 
L 166.930064 479.057143 
L 166.83769 129.6 
L 166.04008 129.6 
L 165.145491 129.6 
L 164.250902 129.6 
L 163.356313 129.6 
L 162.461723 129.6 
L 161.567134 129.6 
L 160.672545 129.6 
L 159.777956 129.6 
L 158.883367 129.6 
L 157.988778 129.6 
L 157.094188 129.6 
L 156.199599 129.6 
L 155.30501 129.6 
L 154.410421 129.6 
L 153.515832 129.6 
L 152.621242 129.6 
L 151.726653 129.6 
L 150.832064 129.6 
L 149.937475 129.6 
L 149.042886 129.6 
L 148.148297 129.6 
L 147.253707 129.6 
L 146.359118 129.6 
L 145.464529 129.6 
L 144.56994 129.6 
L 143.675351 129.6 
L 142.780762 129.6 
L 141.886172 129.6 
L 140.991583 129.6 
L 140.096994 129.6 
L 139.202405 129.6 
L 138.307816 129.6 
L 137.413226 129.6 
L 136.518637 129.6 
L 135.624048 129.6 
L 134.729459 129.6 
L 134.062071 129.6 
L 134.133028 479.057143 
L 134.22803 945 
z
" style="fill:#1fa088;"/>
    <path clip-path="url(#p3e7e29fc7b)" d="M 255.498998 945 
L 256.393587 945 
L 257.288176 945 
L 258.182766 945 
L 258.935171 945 
L 259.077355 851.19613 
L 259.673023 479.057143 
L 259.971944 302.079978 
L 260.280191 129.6 
L 259.971944 129.6 
L 259.077355 129.6 
L 258.182766 129.6 
L 257.288176 129.6 
L 256.393587 129.6 
L 256.366087 129.6 
L 255.897888 479.057143 
L 255.498998 794.315591 
L 255.311143 945 
z
" style="fill:#1fa088;"/>
    <path clip-path="url(#p3e7e29fc7b)" d="M 278.758317 482.94794 
L 279.652906 841.806257 
L 279.894701 945 
L 280.547495 945 
L 281.442084 945 
L 281.950651 945 
L 281.442084 712.4202 
L 280.916446 479.057143 
L 280.547495 306.736827 
L 280.153321 129.6 
L 279.652906 129.6 
L 278.758317 129.6 
L 277.863727 129.6 
L 277.861317 129.6 
L 277.863727 130.468881 
L 278.747862 479.057143 
z
" style="fill:#1fa088;"/>
    <path clip-path="url(#p3e7e29fc7b)" d="M 301.123046 945 
L 302.017635 945 
L 302.912224 945 
L 303.346015 945 
L 303.806814 821.891597 
L 304.701403 607.1756 
L 305.307469 479.057143 
L 305.595992 414.904743 
L 306.490581 239.933656 
L 307.152504 129.6 
L 306.490581 129.6 
L 305.595992 129.6 
L 304.701403 129.6 
L 303.946909 129.6 
L 303.806814 163.327433 
L 302.912224 400.438057 
L 302.640198 479.057143 
L 302.017635 651.752302 
L 301.123046 924.14045 
L 301.057896 945 
z
" style="fill:#1fa088;"/>
    <path clip-path="url(#p3e7e29fc7b)" d="M 320.804008 607.177963 
L 321.698597 821.893966 
L 322.159386 945 
L 322.593186 945 
L 323.487776 945 
L 324.382365 945 
L 324.447517 945 
L 324.382365 924.139931 
L 323.487776 651.753541 
L 322.865207 479.057143 
L 322.593186 400.438369 
L 321.698597 163.325106 
L 321.558513 129.6 
L 320.804008 129.6 
L 319.909419 129.6 
L 319.01483 129.6 
L 318.352886 129.6 
L 319.01483 239.936522 
L 319.909419 414.907657 
L 320.197927 479.057143 
z
" style="fill:#1fa088;"/>
    <path clip-path="url(#p3e7e29fc7b)" d="M 344.063327 945 
L 344.957916 945 
L 345.610643 945 
L 345.852505 841.783259 
L 346.747094 482.947972 
L 346.75755 479.057143 
L 347.641683 130.494786 
L 347.644166 129.6 
L 347.641683 129.6 
L 346.747094 129.6 
L 345.852505 129.6 
L 345.35216 129.6 
L 344.957916 306.754086 
L 344.588967 479.057143 
L 344.063327 712.403646 
L 343.554703 945 
z
" style="fill:#1fa088;"/>
    <path clip-path="url(#p3e7e29fc7b)" d="M 366.428056 851.172579 
L 366.570283 945 
L 367.322645 945 
L 368.217234 945 
L 369.111824 945 
L 370.006413 945 
L 370.19431 945 
L 370.006413 794.289 
L 369.607518 479.057143 
L 369.139287 129.6 
L 369.111824 129.6 
L 368.217234 129.6 
L 367.322645 129.6 
L 366.428056 129.6 
L 365.533467 129.6 
L 365.225166 129.6 
L 365.533467 302.097957 
L 365.832383 479.057143 
z
" style="fill:#1fa088;"/>
    <path clip-path="url(#p3e7e29fc7b)" d="M 458.570741 945 
L 459.465331 945 
L 460.35992 945 
L 461.254509 945 
L 462.149098 945 
L 463.043687 945 
L 463.938277 945 
L 464.832866 945 
L 465.727455 945 
L 466.622044 945 
L 467.516633 945 
L 468.411222 945 
L 469.305812 945 
L 470.200401 945 
L 471.09499 945 
L 471.989579 945 
L 472.884168 945 
L 473.778758 945 
L 474.673347 945 
L 475.567936 945 
L 476.462525 945 
L 477.357114 945 
L 478.251703 945 
L 479.146293 945 
L 480.040882 945 
L 480.935471 945 
L 481.83006 945 
L 482.724649 945 
L 483.619238 945 
L 484.513828 945 
L 485.408417 945 
L 486.303006 945 
L 487.197595 945 
L 488.092184 945 
L 488.986774 945 
L 489.881363 945 
L 490.775952 945 
L 491.277445 945 
L 491.372383 479.057143 
L 491.443452 129.6 
L 490.775952 129.6 
L 489.881363 129.6 
L 488.986774 129.6 
L 488.092184 129.6 
L 487.197595 129.6 
L 486.303006 129.6 
L 485.408417 129.6 
L 484.513828 129.6 
L 483.619238 129.6 
L 482.724649 129.6 
L 481.83006 129.6 
L 480.935471 129.6 
L 480.040882 129.6 
L 479.146293 129.6 
L 478.251703 129.6 
L 477.357114 129.6 
L 476.462525 129.6 
L 475.567936 129.6 
L 474.673347 129.6 
L 473.778758 129.6 
L 472.884168 129.6 
L 471.989579 129.6 
L 471.09499 129.6 
L 470.200401 129.6 
L 469.305812 129.6 
L 468.411222 129.6 
L 467.516633 129.6 
L 466.622044 129.6 
L 465.727455 129.6 
L 464.832866 129.6 
L 463.938277 129.6 
L 463.043687 129.6 
L 462.149098 129.6 
L 461.254509 129.6 
L 460.35992 129.6 
L 459.465331 129.6 
L 458.667851 129.6 
L 458.575251 479.057143 
L 458.570741 496.024534 
L 458.452461 945 
z
" style="fill:#1fa088;"/>
   </g>
   <g id="PathCollection_6">
    <path clip-path="url(#p3e7e29fc7b)" d="M 90.894589 945 
L 91.789178 945 
L 92.683768 945 
L 93.578357 945 
L 94.472946 945 
L 95.367535 945 
L 96.262124 945 
L 97.156713 945 
L 98.051303 945 
L 98.945892 945 
L 99.840481 945 
L 100.73507 945 
L 101.629659 945 
L 102.524248 945 
L 103.418838 945 
L 104.313427 945 
L 105.208016 945 
L 106.102605 945 
L 106.997194 945 
L 107.891784 945 
L 108.786373 945 
L 109.680962 945 
L 110.575551 945 
L 111.47014 945 
L 112.364729 945 
L 113.259319 945 
L 114.153908 945 
L 115.048497 945 
L 115.943086 945 
L 116.837675 945 
L 117.732265 945 
L 118.626854 945 
L 119.521443 945 
L 120.416032 945 
L 121.310621 945 
L 122.20521 945 
L 123.0998 945 
L 123.994389 945 
L 124.888978 945 
L 125.783567 945 
L 126.678156 945 
L 127.572745 945 
L 128.467335 945 
L 129.361924 945 
L 130.256513 945 
L 131.151102 945 
L 132.045691 945 
L 132.940281 945 
L 133.83487 945 
L 134.22803 945 
L 134.133028 479.057143 
L 134.062071 129.6 
L 133.83487 129.6 
L 132.940281 129.6 
L 132.045691 129.6 
L 131.151102 129.6 
L 130.256513 129.6 
L 129.361924 129.6 
L 128.467335 129.6 
L 127.572745 129.6 
L 126.678156 129.6 
L 125.783567 129.6 
L 124.888978 129.6 
L 123.994389 129.6 
L 123.0998 129.6 
L 122.20521 129.6 
L 121.310621 129.6 
L 120.416032 129.6 
L 119.521443 129.6 
L 118.626854 129.6 
L 117.732265 129.6 
L 116.837675 129.6 
L 115.943086 129.6 
L 115.048497 129.6 
L 114.153908 129.6 
L 113.259319 129.6 
L 112.364729 129.6 
L 111.47014 129.6 
L 110.575551 129.6 
L 109.680962 129.6 
L 108.786373 129.6 
L 107.891784 129.6 
L 106.997194 129.6 
L 106.102605 129.6 
L 105.208016 129.6 
L 104.313427 129.6 
L 103.418838 129.6 
L 102.524248 129.6 
L 101.629659 129.6 
L 100.73507 129.6 
L 99.840481 129.6 
L 98.945892 129.6 
L 98.051303 129.6 
L 97.156713 129.6 
L 96.262124 129.6 
L 95.367535 129.6 
L 94.472946 129.6 
L 93.578357 129.6 
L 92.683768 129.6 
L 91.789178 129.6 
L 90.894589 129.6 
L 90 129.6 
L 90 479.057143 
L 90 945 
z
" style="fill:#3fbc73;"/>
    <path clip-path="url(#p3e7e29fc7b)" d="M 259.077355 945 
L 259.971944 945 
L 260.866533 945 
L 261.761122 945 
L 262.464107 945 
L 262.655711 853.103508 
L 263.53651 479.057143 
L 263.550301 473.446091 
L 264.44489 153.895703 
L 264.525256 129.6 
L 264.44489 129.6 
L 263.550301 129.6 
L 262.655711 129.6 
L 261.761122 129.6 
L 260.866533 129.6 
L 260.280191 129.6 
L 259.971944 302.079978 
L 259.673023 479.057143 
L 259.077355 851.19613 
L 258.935171 945 
z
" style="fill:#3fbc73;"/>
    <path clip-path="url(#p3e7e29fc7b)" d="M 276.969138 731.506277 
L 277.598794 945 
L 277.863727 945 
L 278.758317 945 
L 279.652906 945 
L 279.894701 945 
L 279.652906 841.806257 
L 278.758317 482.94794 
L 278.747862 479.057143 
L 277.863727 130.468881 
L 277.861317 129.6 
L 276.969138 129.6 
L 276.074549 129.6 
L 275.17996 129.6 
L 274.865376 129.6 
L 275.17996 205.770385 
L 276.074549 458.963394 
L 276.136721 479.057143 
z
" style="fill:#3fbc73;"/>
    <path clip-path="url(#p3e7e29fc7b)" d="M 303.806814 945 
L 304.701403 945 
L 305.595992 945 
L 305.924173 945 
L 306.490581 833.611645 
L 307.38517 683.041358 
L 308.27976 558.229597 
L 308.983132 479.057143 
L 309.174349 456.087073 
L 310.068938 372.586285 
L 310.963527 313.604577 
L 311.858116 278.479485 
L 312.752705 266.817527 
L 313.647295 278.480863 
L 314.541884 313.603459 
L 315.436473 372.586684 
L 316.331062 456.084769 
L 316.522298 479.057143 
L 317.225651 558.228699 
L 318.12024 683.040752 
L 319.01483 833.612476 
L 319.581256 945 
L 319.909419 945 
L 320.804008 945 
L 321.698597 945 
L 322.159386 945 
L 321.698597 821.893966 
L 320.804008 607.177963 
L 320.197927 479.057143 
L 319.909419 414.907657 
L 319.01483 239.936522 
L 318.352886 129.6 
L 318.12024 129.6 
L 317.225651 129.6 
L 316.331062 129.6 
L 315.436473 129.6 
L 314.541884 129.6 
L 313.647295 129.6 
L 312.752705 129.6 
L 311.858116 129.6 
L 310.963527 129.6 
L 310.068938 129.6 
L 309.174349 129.6 
L 308.27976 129.6 
L 307.38517 129.6 
L 307.152504 129.6 
L 306.490581 239.933656 
L 305.595992 414.904743 
L 305.307469 479.057143 
L 304.701403 607.1756 
L 303.806814 821.891597 
L 303.346015 945 
z
" style="fill:#3fbc73;"/>
    <path clip-path="url(#p3e7e29fc7b)" d="M 345.852505 945 
L 346.747094 945 
L 347.641683 945 
L 347.906536 945 
L 348.536273 731.493635 
L 349.368678 479.057143 
L 349.430862 458.961298 
L 350.325451 205.7961 
L 350.64017 129.6 
L 350.325451 129.6 
L 349.430862 129.6 
L 348.536273 129.6 
L 347.644166 129.6 
L 347.641683 130.494786 
L 346.75755 479.057143 
L 346.747094 482.947972 
L 345.852505 841.783259 
L 345.610643 945 
z
" style="fill:#3fbc73;"/>
    <path clip-path="url(#p3e7e29fc7b)" d="M 362.849699 853.079368 
L 363.041364 945 
L 363.744289 945 
L 364.638878 945 
L 365.533467 945 
L 366.428056 945 
L 366.570283 945 
L 366.428056 851.172579 
L 365.832383 479.057143 
L 365.533467 302.097957 
L 365.225166 129.6 
L 364.638878 129.6 
L 363.744289 129.6 
L 362.849699 129.6 
L 361.95511 129.6 
L 361.060521 129.6 
L 360.980019 129.6 
L 361.060521 153.934756 
L 361.95511 473.455643 
L 361.968879 479.057143 
z
" style="fill:#3fbc73;"/>
    <path clip-path="url(#p3e7e29fc7b)" d="M 491.670541 945 
L 492.56513 945 
L 493.459719 945 
L 494.354309 945 
L 495.248898 945 
L 496.143487 945 
L 497.038076 945 
L 497.932665 945 
L 498.827255 945 
L 499.721844 945 
L 500.616433 945 
L 501.511022 945 
L 502.405611 945 
L 503.3002 945 
L 504.19479 945 
L 505.089379 945 
L 505.983968 945 
L 506.878557 945 
L 507.773146 945 
L 508.667735 945 
L 509.562325 945 
L 510.456914 945 
L 511.351503 945 
L 512.246092 945 
L 513.140681 945 
L 514.035271 945 
L 514.92986 945 
L 515.824449 945 
L 516.719038 945 
L 517.613627 945 
L 518.508216 945 
L 519.402806 945 
L 520.297395 945 
L 521.191984 945 
L 522.086573 945 
L 522.981162 945 
L 523.875752 945 
L 524.770341 945 
L 525.66493 945 
L 526.559519 945 
L 527.454108 945 
L 528.348697 945 
L 529.243287 945 
L 530.137876 945 
L 531.032465 945 
L 531.927054 945 
L 532.821643 945 
L 533.716232 945 
L 534.610822 945 
L 535.505411 945 
L 536.4 945 
L 536.4 479.057143 
L 536.4 129.6 
L 535.505411 129.6 
L 534.610822 129.6 
L 533.716232 129.6 
L 532.821643 129.6 
L 531.927054 129.6 
L 531.032465 129.6 
L 530.137876 129.6 
L 529.243287 129.6 
L 528.348697 129.6 
L 527.454108 129.6 
L 526.559519 129.6 
L 525.66493 129.6 
L 524.770341 129.6 
L 523.875752 129.6 
L 522.981162 129.6 
L 522.086573 129.6 
L 521.191984 129.6 
L 520.297395 129.6 
L 519.402806 129.6 
L 518.508216 129.6 
L 517.613627 129.6 
L 516.719038 129.6 
L 515.824449 129.6 
L 514.92986 129.6 
L 514.035271 129.6 
L 513.140681 129.6 
L 512.246092 129.6 
L 511.351503 129.6 
L 510.456914 129.6 
L 509.562325 129.6 
L 508.667735 129.6 
L 507.773146 129.6 
L 506.878557 129.6 
L 505.983968 129.6 
L 505.089379 129.6 
L 504.19479 129.6 
L 503.3002 129.6 
L 502.405611 129.6 
L 501.511022 129.6 
L 500.616433 129.6 
L 499.721844 129.6 
L 498.827255 129.6 
L 497.932665 129.6 
L 497.038076 129.6 
L 496.143487 129.6 
L 495.248898 129.6 
L 494.354309 129.6 
L 493.459719 129.6 
L 492.56513 129.6 
L 491.670541 129.6 
L 491.443452 129.6 
L 491.372383 479.057143 
L 491.277445 945 
z
" style="fill:#3fbc73;"/>
   </g>
   <g id="PathCollection_7">
    <path clip-path="url(#p3e7e29fc7b)" d="M 262.655711 945 
L 263.550301 945 
L 264.44489 945 
L 265.339479 945 
L 266.234068 945 
L 266.748955 945 
L 267.128657 858.005395 
L 268.023246 703.464722 
L 268.917836 602.072548 
L 269.812425 549.991373 
L 270.707014 543.890617 
L 271.601603 580.936662 
L 272.496192 658.851647 
L 273.390782 775.838022 
L 274.285371 930.632609 
L 274.351244 945 
L 275.17996 945 
L 276.074549 945 
L 276.969138 945 
L 277.598794 945 
L 276.969138 731.506277 
L 276.136721 479.057143 
L 276.074549 458.963394 
L 275.17996 205.770385 
L 274.865376 129.6 
L 274.285371 129.6 
L 273.390782 129.6 
L 272.496192 129.6 
L 271.601603 129.6 
L 270.707014 129.6 
L 269.812425 129.6 
L 268.917836 129.6 
L 268.023246 129.6 
L 267.128657 129.6 
L 266.234068 129.6 
L 265.339479 129.6 
L 264.525256 129.6 
L 264.44489 153.895703 
L 263.550301 473.446091 
L 263.53651 479.057143 
L 262.655711 853.103508 
L 262.464107 945 
z
" style="fill:#84d44b;"/>
    <path clip-path="url(#p3e7e29fc7b)" d="M 306.490581 945 
L 307.38517 945 
L 308.27976 945 
L 309.174349 945 
L 309.729718 945 
L 310.068938 913.382835 
L 310.963527 853.984103 
L 311.858116 818.612212 
L 312.752705 806.865661 
L 313.647295 818.613583 
L 314.541884 853.985348 
L 315.436473 913.379864 
L 315.77571 945 
L 316.331062 945 
L 317.225651 945 
L 318.12024 945 
L 319.01483 945 
L 319.581256 945 
L 319.01483 833.612476 
L 318.12024 683.040752 
L 317.225651 558.228699 
L 316.522298 479.057143 
L 316.331062 456.084769 
L 315.436473 372.586684 
L 314.541884 313.603459 
L 313.647295 278.480863 
L 312.752705 266.817527 
L 311.858116 278.479485 
L 310.963527 313.604577 
L 310.068938 372.586285 
L 309.174349 456.087073 
L 308.983132 479.057143 
L 308.27976 558.229597 
L 307.38517 683.041358 
L 306.490581 833.611645 
L 305.924173 945 
z
" style="fill:#84d44b;"/>
    <path clip-path="url(#p3e7e29fc7b)" d="M 348.536273 945 
L 349.430862 945 
L 350.325451 945 
L 351.154025 945 
L 351.22004 930.602575 
L 352.114629 775.819612 
L 353.009218 658.84829 
L 353.903808 580.932762 
L 354.798397 543.88479 
L 355.692986 549.988786 
L 356.587575 602.063865 
L 357.482164 703.448524 
L 358.376754 857.989425 
L 358.756538 945 
L 359.271343 945 
L 360.165932 945 
L 361.060521 945 
L 361.95511 945 
L 362.849699 945 
L 363.041364 945 
L 362.849699 853.079368 
L 361.968879 479.057143 
L 361.95511 473.455643 
L 361.060521 153.934756 
L 360.980019 129.6 
L 360.165932 129.6 
L 359.271343 129.6 
L 358.376754 129.6 
L 357.482164 129.6 
L 356.587575 129.6 
L 355.692986 129.6 
L 354.798397 129.6 
L 353.903808 129.6 
L 353.009218 129.6 
L 352.114629 129.6 
L 351.22004 129.6 
L 350.64017 129.6 
L 350.325451 205.7961 
L 349.430862 458.961298 
L 349.368678 479.057143 
L 348.536273 731.493635 
L 347.906536 945 
z
" style="fill:#84d44b;"/>
   </g>
   <g id="PathCollection_8">
    <path clip-path="url(#p3e7e29fc7b)" d="M 267.128657 945 
L 268.023246 945 
L 268.917836 945 
L 269.812425 945 
L 270.707014 945 
L 271.601603 945 
L 272.496192 945 
L 273.390782 945 
L 274.285371 945 
L 274.351244 945 
L 274.285371 930.632609 
L 273.390782 775.838022 
L 272.496192 658.851647 
L 271.601603 580.936662 
L 270.707014 543.890617 
L 269.812425 549.991373 
L 268.917836 602.072548 
L 268.023246 703.464722 
L 267.128657 858.005395 
L 266.748955 945 
z
" style="fill:#d8e219;"/>
    <path clip-path="url(#p3e7e29fc7b)" d="M 310.068938 945 
L 310.963527 945 
L 311.858116 945 
L 312.752705 945 
L 313.647295 945 
L 314.541884 945 
L 315.436473 945 
L 315.77571 945 
L 315.436473 913.379864 
L 314.541884 853.985348 
L 313.647295 818.613583 
L 312.752705 806.865661 
L 311.858116 818.612212 
L 310.963527 853.984103 
L 310.068938 913.382835 
L 309.729718 945 
z
" style="fill:#d8e219;"/>
    <path clip-path="url(#p3e7e29fc7b)" d="M 351.22004 945 
L 352.114629 945 
L 353.009218 945 
L 353.903808 945 
L 354.798397 945 
L 355.692986 945 
L 356.587575 945 
L 357.482164 945 
L 358.376754 945 
L 358.756538 945 
L 358.376754 857.989425 
L 357.482164 703.448524 
L 356.587575 602.063865 
L 355.692986 549.988786 
L 354.798397 543.88479 
L 353.903808 580.932762 
L 353.009218 658.84829 
L 352.114629 775.819612 
L 351.22004 930.602575 
L 351.154025 945 
z
" style="fill:#d8e219;"/>
   </g>
   <g id="matplotlib.axis_1">
    <g id="xtick_1">
     <g id="line2d_1">
      <defs>
       <path d="M 0 0 
L 0 3.5 
" id="m6b6fc66d76" style="stroke:#000000;stroke-width:0.8;"/>
      </defs>
      <g>
       <use style="stroke:#000000;stroke-width:0.8;" x="193.23" xlink:href="#m6b6fc66d76" y="945"/>
      </g>
     </g>
     <g id="text_1">
      <!-- −1 -->
      <g transform="translate(167.431172 978.594531)scale(0.35 -0.35)">
       <defs>
        <path d="M 10.59375 35.5 
L 73.1875 35.5 
L 73.1875 27.203125 
L 10.59375 27.203125 
z
" id="DejaVuSans-8722"/>
        <path d="M 12.40625 8.296875 
L 28.515625 8.296875 
L 28.515625 63.921875 
L 10.984375 60.40625 
L 10.984375 69.390625 
L 28.421875 72.90625 
L 38.28125 72.90625 
L 38.28125 8.296875 
L 54.390625 8.296875 
L 54.390625 0 
L 12.40625 0 
z
" id="DejaVuSans-49"/>
       </defs>
       <use xlink:href="#DejaVuSans-8722"/>
       <use x="83.789062" xlink:href="#DejaVuSans-49"/>
      </g>
     </g>
    </g>
    <g id="xtick_2">
     <g id="line2d_2">
      <g>
       <use style="stroke:#000000;stroke-width:0.8;" x="313.2" xlink:href="#m6b6fc66d76" y="945"/>
      </g>
     </g>
     <g id="text_2">
      <!-- 0 -->
      <g transform="translate(302.065625 978.594531)scale(0.35 -0.35)">
       <defs>
        <path d="M 31.78125 66.40625 
Q 24.171875 66.40625 20.328125 58.90625 
Q 16.5 51.421875 16.5 36.375 
Q 16.5 21.390625 20.328125 13.890625 
Q 24.171875 6.390625 31.78125 6.390625 
Q 39.453125 6.390625 43.28125 13.890625 
Q 47.125 21.390625 47.125 36.375 
Q 47.125 51.421875 43.28125 58.90625 
Q 39.453125 66.40625 31.78125 66.40625 
z
M 31.78125 74.21875 
Q 44.046875 74.21875 50.515625 64.515625 
Q 56.984375 54.828125 56.984375 36.375 
Q 56.984375 17.96875 50.515625 8.265625 
Q 44.046875 -1.421875 31.78125 -1.421875 
Q 19.53125 -1.421875 13.0625 8.265625 
Q 6.59375 17.96875 6.59375 36.375 
Q 6.59375 54.828125 13.0625 64.515625 
Q 19.53125 74.21875 31.78125 74.21875 
z
" id="DejaVuSans-48"/>
       </defs>
       <use xlink:href="#DejaVuSans-48"/>
      </g>
     </g>
    </g>
    <g id="xtick_3">
     <g id="line2d_3">
      <g>
       <use style="stroke:#000000;stroke-width:0.8;" x="433.17" xlink:href="#m6b6fc66d76" y="945"/>
      </g>
     </g>
     <g id="text_3">
      <!-- 1 -->
      <g transform="translate(422.035625 978.594531)scale(0.35 -0.35)">
       <use xlink:href="#DejaVuSans-49"/>
      </g>
     </g>
    </g>
    <g id="text_4">
     <!-- $(\omega-\omega_{c})$ / $\kappa$ -->
     <g transform="translate(213.975 1016.467969)scale(0.35 -0.35)">
      <defs>
       <path d="M 31 75.875 
Q 24.46875 64.65625 21.28125 53.65625 
Q 18.109375 42.671875 18.109375 31.390625 
Q 18.109375 20.125 21.3125 9.0625 
Q 24.515625 -2 31 -13.1875 
L 23.1875 -13.1875 
Q 15.875 -1.703125 12.234375 9.375 
Q 8.59375 20.453125 8.59375 31.390625 
Q 8.59375 42.28125 12.203125 53.3125 
Q 15.828125 64.359375 23.1875 75.875 
z
" id="DejaVuSans-40"/>
       <path d="M 26.859375 -1.421875 
Q 6.59375 -1.421875 6.59375 27.59375 
Q 6.59375 39.0625 14.15625 54.6875 
L 23.828125 54.6875 
Q 16.84375 39.0625 16.84375 27.34375 
Q 16.84375 6.203125 27.6875 6.203125 
Q 37.59375 6.203125 37.59375 32.46875 
L 45.90625 32.46875 
Q 45.90625 6.203125 55.8125 6.203125 
Q 66.65625 6.203125 66.65625 27.34375 
Q 66.65625 39.0625 59.671875 54.6875 
L 69.34375 54.6875 
Q 76.90625 39.0625 76.90625 27.59375 
Q 76.90625 -1.421875 56.640625 -1.421875 
Q 43.359375 -1.421875 41.75 13.1875 
Q 39.75 -1.421875 26.859375 -1.421875 
z
" id="DejaVuSans-969"/>
       <path d="M 48.78125 52.59375 
L 48.78125 44.1875 
Q 44.96875 46.296875 41.140625 47.34375 
Q 37.3125 48.390625 33.40625 48.390625 
Q 24.65625 48.390625 19.8125 42.84375 
Q 14.984375 37.3125 14.984375 27.296875 
Q 14.984375 17.28125 19.8125 11.734375 
Q 24.65625 6.203125 33.40625 6.203125 
Q 37.3125 6.203125 41.140625 7.25 
Q 44.96875 8.296875 48.78125 10.40625 
L 48.78125 2.09375 
Q 45.015625 0.34375 40.984375 -0.53125 
Q 36.96875 -1.421875 32.421875 -1.421875 
Q 20.0625 -1.421875 12.78125 6.34375 
Q 5.515625 14.109375 5.515625 27.296875 
Q 5.515625 40.671875 12.859375 48.328125 
Q 20.21875 56 33.015625 56 
Q 37.15625 56 41.109375 55.140625 
Q 45.0625 54.296875 48.78125 52.59375 
z
" id="DejaVuSans-99"/>
       <path d="M 8.015625 75.875 
L 15.828125 75.875 
Q 23.140625 64.359375 26.78125 53.3125 
Q 30.421875 42.28125 30.421875 31.390625 
Q 30.421875 20.453125 26.78125 9.375 
Q 23.140625 -1.703125 15.828125 -13.1875 
L 8.015625 -13.1875 
Q 14.5 -2 17.703125 9.0625 
Q 20.90625 20.125 20.90625 31.390625 
Q 20.90625 42.671875 17.703125 53.65625 
Q 14.5 64.65625 8.015625 75.875 
z
" id="DejaVuSans-41"/>
       <path id="DejaVuSans-32"/>
       <path d="M 25.390625 72.90625 
L 33.6875 72.90625 
L 8.296875 -9.28125 
L 0 -9.28125 
z
" id="DejaVuSans-47"/>
       <path d="M 9.328125 54.6875 
L 18.609375 54.6875 
L 18.609375 31.984375 
L 42.1875 54.6875 
L 53.125 54.6875 
L 31.59375 34.078125 
L 56.5 0 
L 45.515625 0 
L 25.296875 28.21875 
L 18.609375 21.921875 
L 18.609375 0 
L 9.328125 0 
z
" id="DejaVuSans-954"/>
      </defs>
      <use transform="translate(0 0.125)" xlink:href="#DejaVuSans-40"/>
      <use transform="translate(39.013672 0.125)" xlink:href="#DejaVuSans-969"/>
      <use transform="translate(142.236328 0.125)" xlink:href="#DejaVuSans-8722"/>
      <use transform="translate(245.507812 0.125)" xlink:href="#DejaVuSans-969"/>
      <use transform="translate(330.205078 -16.28125)scale(0.7)" xlink:href="#DejaVuSans-99"/>
      <use transform="translate(371.425781 0.125)" xlink:href="#DejaVuSans-41"/>
      <use transform="translate(410.439453 0.125)" xlink:href="#DejaVuSans-32"/>
      <use transform="translate(442.226562 0.125)" xlink:href="#DejaVuSans-47"/>
      <use transform="translate(475.917969 0.125)" xlink:href="#DejaVuSans-32"/>
      <use transform="translate(507.705078 0.125)" xlink:href="#DejaVuSans-954"/>
     </g>
    </g>
   </g>
   <g id="matplotlib.axis_2">
    <g id="ytick_1">
     <g id="line2d_4">
      <defs>
       <path d="M 0 0 
L -3.5 0 
" id="m9305bdd9f0" style="stroke:#000000;stroke-width:0.8;"/>
      </defs>
      <g>
       <use style="stroke:#000000;stroke-width:0.8;" x="90" xlink:href="#m9305bdd9f0" y="945"/>
      </g>
     </g>
     <g id="text_5">
      <!-- 0.1 -->
      <g transform="translate(27.339063 958.297266)scale(0.35 -0.35)">
       <defs>
        <path d="M 10.6875 12.40625 
L 21 12.40625 
L 21 0 
L 10.6875 0 
z
" id="DejaVuSans-46"/>
       </defs>
       <use xlink:href="#DejaVuSans-48"/>
       <use x="63.623047" xlink:href="#DejaVuSans-46"/>
       <use x="95.410156" xlink:href="#DejaVuSans-49"/>
      </g>
     </g>
    </g>
    <g id="ytick_2">
     <g id="line2d_5">
      <g>
       <use style="stroke:#000000;stroke-width:0.8;" x="90" xlink:href="#m9305bdd9f0" y="828.514286"/>
      </g>
     </g>
     <g id="text_6">
      <!-- 0.2 -->
      <g transform="translate(27.339063 841.811551)scale(0.35 -0.35)">
       <defs>
        <path d="M 19.1875 8.296875 
L 53.609375 8.296875 
L 53.609375 0 
L 7.328125 0 
L 7.328125 8.296875 
Q 12.9375 14.109375 22.625 23.890625 
Q 32.328125 33.6875 34.8125 36.53125 
Q 39.546875 41.84375 41.421875 45.53125 
Q 43.3125 49.21875 43.3125 52.78125 
Q 43.3125 58.59375 39.234375 62.25 
Q 35.15625 65.921875 28.609375 65.921875 
Q 23.96875 65.921875 18.8125 64.3125 
Q 13.671875 62.703125 7.8125 59.421875 
L 7.8125 69.390625 
Q 13.765625 71.78125 18.9375 73 
Q 24.125 74.21875 28.421875 74.21875 
Q 39.75 74.21875 46.484375 68.546875 
Q 53.21875 62.890625 53.21875 53.421875 
Q 53.21875 48.921875 51.53125 44.890625 
Q 49.859375 40.875 45.40625 35.40625 
Q 44.1875 33.984375 37.640625 27.21875 
Q 31.109375 20.453125 19.1875 8.296875 
z
" id="DejaVuSans-50"/>
       </defs>
       <use xlink:href="#DejaVuSans-48"/>
       <use x="63.623047" xlink:href="#DejaVuSans-46"/>
       <use x="95.410156" xlink:href="#DejaVuSans-50"/>
      </g>
     </g>
    </g>
    <g id="ytick_3">
     <g id="line2d_6">
      <g>
       <use style="stroke:#000000;stroke-width:0.8;" x="90" xlink:href="#m9305bdd9f0" y="712.028571"/>
      </g>
     </g>
     <g id="text_7">
      <!-- 0.3 -->
      <g transform="translate(27.339063 725.325837)scale(0.35 -0.35)">
       <defs>
        <path d="M 40.578125 39.3125 
Q 47.65625 37.796875 51.625 33 
Q 55.609375 28.21875 55.609375 21.1875 
Q 55.609375 10.40625 48.1875 4.484375 
Q 40.765625 -1.421875 27.09375 -1.421875 
Q 22.515625 -1.421875 17.65625 -0.515625 
Q 12.796875 0.390625 7.625 2.203125 
L 7.625 11.71875 
Q 11.71875 9.328125 16.59375 8.109375 
Q 21.484375 6.890625 26.8125 6.890625 
Q 36.078125 6.890625 40.9375 10.546875 
Q 45.796875 14.203125 45.796875 21.1875 
Q 45.796875 27.640625 41.28125 31.265625 
Q 36.765625 34.90625 28.71875 34.90625 
L 20.21875 34.90625 
L 20.21875 43.015625 
L 29.109375 43.015625 
Q 36.375 43.015625 40.234375 45.921875 
Q 44.09375 48.828125 44.09375 54.296875 
Q 44.09375 59.90625 40.109375 62.90625 
Q 36.140625 65.921875 28.71875 65.921875 
Q 24.65625 65.921875 20.015625 65.03125 
Q 15.375 64.15625 9.8125 62.3125 
L 9.8125 71.09375 
Q 15.4375 72.65625 20.34375 73.4375 
Q 25.25 74.21875 29.59375 74.21875 
Q 40.828125 74.21875 47.359375 69.109375 
Q 53.90625 64.015625 53.90625 55.328125 
Q 53.90625 49.265625 50.4375 45.09375 
Q 46.96875 40.921875 40.578125 39.3125 
z
" id="DejaVuSans-51"/>
       </defs>
       <use xlink:href="#DejaVuSans-48"/>
       <use x="63.623047" xlink:href="#DejaVuSans-46"/>
       <use x="95.410156" xlink:href="#DejaVuSans-51"/>
      </g>
     </g>
    </g>
    <g id="ytick_4">
     <g id="line2d_7">
      <g>
       <use style="stroke:#000000;stroke-width:0.8;" x="90" xlink:href="#m9305bdd9f0" y="595.542857"/>
      </g>
     </g>
     <g id="text_8">
      <!-- 0.4 -->
      <g transform="translate(27.339063 608.840123)scale(0.35 -0.35)">
       <defs>
        <path d="M 37.796875 64.3125 
L 12.890625 25.390625 
L 37.796875 25.390625 
z
M 35.203125 72.90625 
L 47.609375 72.90625 
L 47.609375 25.390625 
L 58.015625 25.390625 
L 58.015625 17.1875 
L 47.609375 17.1875 
L 47.609375 0 
L 37.796875 0 
L 37.796875 17.1875 
L 4.890625 17.1875 
L 4.890625 26.703125 
z
" id="DejaVuSans-52"/>
       </defs>
       <use xlink:href="#DejaVuSans-48"/>
       <use x="63.623047" xlink:href="#DejaVuSans-46"/>
       <use x="95.410156" xlink:href="#DejaVuSans-52"/>
      </g>
     </g>
    </g>
    <g id="ytick_5">
     <g id="line2d_8">
      <g>
       <use style="stroke:#000000;stroke-width:0.8;" x="90" xlink:href="#m9305bdd9f0" y="479.057143"/>
      </g>
     </g>
     <g id="text_9">
      <!-- 0.5 -->
      <g transform="translate(27.339063 492.354408)scale(0.35 -0.35)">
       <defs>
        <path d="M 10.796875 72.90625 
L 49.515625 72.90625 
L 49.515625 64.59375 
L 19.828125 64.59375 
L 19.828125 46.734375 
Q 21.96875 47.46875 24.109375 47.828125 
Q 26.265625 48.1875 28.421875 48.1875 
Q 40.625 48.1875 47.75 41.5 
Q 54.890625 34.8125 54.890625 23.390625 
Q 54.890625 11.625 47.5625 5.09375 
Q 40.234375 -1.421875 26.90625 -1.421875 
Q 22.3125 -1.421875 17.546875 -0.640625 
Q 12.796875 0.140625 7.71875 1.703125 
L 7.71875 11.625 
Q 12.109375 9.234375 16.796875 8.0625 
Q 21.484375 6.890625 26.703125 6.890625 
Q 35.15625 6.890625 40.078125 11.328125 
Q 45.015625 15.765625 45.015625 23.390625 
Q 45.015625 31 40.078125 35.4375 
Q 35.15625 39.890625 26.703125 39.890625 
Q 22.75 39.890625 18.8125 39.015625 
Q 14.890625 38.140625 10.796875 36.28125 
z
" id="DejaVuSans-53"/>
       </defs>
       <use xlink:href="#DejaVuSans-48"/>
       <use x="63.623047" xlink:href="#DejaVuSans-46"/>
       <use x="95.410156" xlink:href="#DejaVuSans-53"/>
      </g>
     </g>
    </g>
    <g id="ytick_6">
     <g id="line2d_9">
      <g>
       <use style="stroke:#000000;stroke-width:0.8;" x="90" xlink:href="#m9305bdd9f0" y="362.571429"/>
      </g>
     </g>
     <g id="text_10">
      <!-- 0.6 -->
      <g transform="translate(27.339063 375.868694)scale(0.35 -0.35)">
       <defs>
        <path d="M 33.015625 40.375 
Q 26.375 40.375 22.484375 35.828125 
Q 18.609375 31.296875 18.609375 23.390625 
Q 18.609375 15.53125 22.484375 10.953125 
Q 26.375 6.390625 33.015625 6.390625 
Q 39.65625 6.390625 43.53125 10.953125 
Q 47.40625 15.53125 47.40625 23.390625 
Q 47.40625 31.296875 43.53125 35.828125 
Q 39.65625 40.375 33.015625 40.375 
z
M 52.59375 71.296875 
L 52.59375 62.3125 
Q 48.875 64.0625 45.09375 64.984375 
Q 41.3125 65.921875 37.59375 65.921875 
Q 27.828125 65.921875 22.671875 59.328125 
Q 17.53125 52.734375 16.796875 39.40625 
Q 19.671875 43.65625 24.015625 45.921875 
Q 28.375 48.1875 33.59375 48.1875 
Q 44.578125 48.1875 50.953125 41.515625 
Q 57.328125 34.859375 57.328125 23.390625 
Q 57.328125 12.15625 50.6875 5.359375 
Q 44.046875 -1.421875 33.015625 -1.421875 
Q 20.359375 -1.421875 13.671875 8.265625 
Q 6.984375 17.96875 6.984375 36.375 
Q 6.984375 53.65625 15.1875 63.9375 
Q 23.390625 74.21875 37.203125 74.21875 
Q 40.921875 74.21875 44.703125 73.484375 
Q 48.484375 72.75 52.59375 71.296875 
z
" id="DejaVuSans-54"/>
       </defs>
       <use xlink:href="#DejaVuSans-48"/>
       <use x="63.623047" xlink:href="#DejaVuSans-46"/>
       <use x="95.410156" xlink:href="#DejaVuSans-54"/>
      </g>
     </g>
    </g>
    <g id="ytick_7">
     <g id="line2d_10">
      <g>
       <use style="stroke:#000000;stroke-width:0.8;" x="90" xlink:href="#m9305bdd9f0" y="246.085714"/>
      </g>
     </g>
     <g id="text_11">
      <!-- 0.7 -->
      <g transform="translate(27.339063 259.38298)scale(0.35 -0.35)">
       <defs>
        <path d="M 8.203125 72.90625 
L 55.078125 72.90625 
L 55.078125 68.703125 
L 28.609375 0 
L 18.3125 0 
L 43.21875 64.59375 
L 8.203125 64.59375 
z
" id="DejaVuSans-55"/>
       </defs>
       <use xlink:href="#DejaVuSans-48"/>
       <use x="63.623047" xlink:href="#DejaVuSans-46"/>
       <use x="95.410156" xlink:href="#DejaVuSans-55"/>
      </g>
     </g>
    </g>
    <g id="ytick_8">
     <g id="line2d_11">
      <g>
       <use style="stroke:#000000;stroke-width:0.8;" x="90" xlink:href="#m9305bdd9f0" y="129.6"/>
      </g>
     </g>
     <g id="text_12">
      <!-- 0.8 -->
      <g transform="translate(27.339063 142.897266)scale(0.35 -0.35)">
       <defs>
        <path d="M 31.78125 34.625 
Q 24.75 34.625 20.71875 30.859375 
Q 16.703125 27.09375 16.703125 20.515625 
Q 16.703125 13.921875 20.71875 10.15625 
Q 24.75 6.390625 31.78125 6.390625 
Q 38.8125 6.390625 42.859375 10.171875 
Q 46.921875 13.96875 46.921875 20.515625 
Q 46.921875 27.09375 42.890625 30.859375 
Q 38.875 34.625 31.78125 34.625 
z
M 21.921875 38.8125 
Q 15.578125 40.375 12.03125 44.71875 
Q 8.5 49.078125 8.5 55.328125 
Q 8.5 64.0625 14.71875 69.140625 
Q 20.953125 74.21875 31.78125 74.21875 
Q 42.671875 74.21875 48.875 69.140625 
Q 55.078125 64.0625 55.078125 55.328125 
Q 55.078125 49.078125 51.53125 44.71875 
Q 48 40.375 41.703125 38.8125 
Q 48.828125 37.15625 52.796875 32.3125 
Q 56.78125 27.484375 56.78125 20.515625 
Q 56.78125 9.90625 50.3125 4.234375 
Q 43.84375 -1.421875 31.78125 -1.421875 
Q 19.734375 -1.421875 13.25 4.234375 
Q 6.78125 9.90625 6.78125 20.515625 
Q 6.78125 27.484375 10.78125 32.3125 
Q 14.796875 37.15625 21.921875 38.8125 
z
M 18.3125 54.390625 
Q 18.3125 48.734375 21.84375 45.5625 
Q 25.390625 42.390625 31.78125 42.390625 
Q 38.140625 42.390625 41.71875 45.5625 
Q 45.3125 48.734375 45.3125 54.390625 
Q 45.3125 60.0625 41.71875 63.234375 
Q 38.140625 66.40625 31.78125 66.40625 
Q 25.390625 66.40625 21.84375 63.234375 
Q 18.3125 60.0625 18.3125 54.390625 
z
" id="DejaVuSans-56"/>
       </defs>
       <use xlink:href="#DejaVuSans-48"/>
       <use x="63.623047" xlink:href="#DejaVuSans-46"/>
       <use x="95.410156" xlink:href="#DejaVuSans-56"/>
      </g>
     </g>
    </g>
    <g id="text_13">
     <!-- $\gamma$ -->
     <g transform="translate(15.989063 547.8)rotate(-90)scale(0.35 -0.35)">
      <defs>
       <path d="M 17.625 46.09375 
L 29.59375 12.3125 
L 46.6875 54.6875 
L 56.203125 54.6875 
L 34.078125 0 
L 34.078125 -20.796875 
L 25.09375 -20.796875 
L 25.09375 0 
L 10.75 40.828125 
Q 8.59375 46.96875 3.953125 46.96875 
L 1.5625 46.96875 
L 1.5625 54.6875 
L 4.984375 54.6875 
Q 14.59375 54.6875 17.625 46.09375 
z
" id="DejaVuSans-947"/>
      </defs>
      <use transform="translate(0 0.3125)" xlink:href="#DejaVuSans-947"/>
     </g>
    </g>
   </g>
   <g id="patch_3">
    <path d="M 90 945 
L 90 129.6 
" style="fill:none;stroke:#000000;stroke-linecap:square;stroke-linejoin:miter;stroke-width:0.8;"/>
   </g>
   <g id="patch_4">
    <path d="M 536.4 945 
L 536.4 129.6 
" style="fill:none;stroke:#000000;stroke-linecap:square;stroke-linejoin:miter;stroke-width:0.8;"/>
   </g>
   <g id="patch_5">
    <path d="M 90 945 
L 536.4 945 
" style="fill:none;stroke:#000000;stroke-linecap:square;stroke-linejoin:miter;stroke-width:0.8;"/>
   </g>
   <g id="patch_6">
    <path d="M 90 129.6 
L 536.4 129.6 
" style="fill:none;stroke:#000000;stroke-linecap:square;stroke-linejoin:miter;stroke-width:0.8;"/>
   </g>
  </g>
  <g id="axes_2">
   <g id="patch_7">
    <path clip-path="url(#pe396ec7ebc)" d="M 564.3 945 
L 564.3 843.075 
L 564.3 231.525 
L 564.3 129.6 
L 605.07 129.6 
L 605.07 231.525 
L 605.07 843.075 
L 605.07 945 
z
" style="fill:#ffffff;stroke:#ffffff;stroke-linejoin:miter;stroke-width:0.01;"/>
   </g>
   <g id="QuadMesh_1">
    <path clip-path="url(#pe396ec7ebc)" d="M 564.3 945 
L 605.07 945 
L 605.07 843.075 
L 564.3 843.075 
L 564.3 945 
" style="fill:#48186a;"/>
    <path clip-path="url(#pe396ec7ebc)" d="M 564.3 843.075 
L 605.07 843.075 
L 605.07 741.15 
L 564.3 741.15 
L 564.3 843.075 
" style="fill:#424086;"/>
    <path clip-path="url(#pe396ec7ebc)" d="M 564.3 741.15 
L 605.07 741.15 
L 605.07 639.225 
L 564.3 639.225 
L 564.3 741.15 
" style="fill:#33638d;"/>
    <path clip-path="url(#pe396ec7ebc)" d="M 564.3 639.225 
L 605.07 639.225 
L 605.07 537.3 
L 564.3 537.3 
L 564.3 639.225 
" style="fill:#26818e;"/>
    <path clip-path="url(#pe396ec7ebc)" d="M 564.3 537.3 
L 605.07 537.3 
L 605.07 435.375 
L 564.3 435.375 
L 564.3 537.3 
" style="fill:#1fa088;"/>
    <path clip-path="url(#pe396ec7ebc)" d="M 564.3 435.375 
L 605.07 435.375 
L 605.07 333.45 
L 564.3 333.45 
L 564.3 435.375 
" style="fill:#3fbc73;"/>
    <path clip-path="url(#pe396ec7ebc)" d="M 564.3 333.45 
L 605.07 333.45 
L 605.07 231.525 
L 564.3 231.525 
L 564.3 333.45 
" style="fill:#84d44b;"/>
    <path clip-path="url(#pe396ec7ebc)" d="M 564.3 231.525 
L 605.07 231.525 
L 605.07 129.6 
L 564.3 129.6 
L 564.3 231.525 
" style="fill:#d8e219;"/>
   </g>
   <g id="matplotlib.axis_3"/>
   <g id="matplotlib.axis_4">
    <g id="ytick_9">
     <g id="line2d_12">
      <defs>
       <path d="M 0 0 
L 3.5 0 
" id="m36a49208fd" style="stroke:#000000;stroke-width:0.8;"/>
      </defs>
      <g>
       <use style="stroke:#000000;stroke-width:0.8;" x="605.07" xlink:href="#m36a49208fd" y="945"/>
      </g>
     </g>
     <g id="text_14">
      <!-- 0.40 -->
      <g transform="translate(612.07 958.297266)scale(0.35 -0.35)">
       <use xlink:href="#DejaVuSans-48"/>
       <use x="63.623047" xlink:href="#DejaVuSans-46"/>
       <use x="95.410156" xlink:href="#DejaVuSans-52"/>
       <use x="159.033203" xlink:href="#DejaVuSans-48"/>
      </g>
     </g>
    </g>
    <g id="ytick_10">
     <g id="line2d_13">
      <g>
       <use style="stroke:#000000;stroke-width:0.8;" x="605.07" xlink:href="#m36a49208fd" y="843.075"/>
      </g>
     </g>
     <g id="text_15">
      <!-- 0.48 -->
      <g transform="translate(612.07 856.372266)scale(0.35 -0.35)">
       <use xlink:href="#DejaVuSans-48"/>
       <use x="63.623047" xlink:href="#DejaVuSans-46"/>
       <use x="95.410156" xlink:href="#DejaVuSans-52"/>
       <use x="159.033203" xlink:href="#DejaVuSans-56"/>
      </g>
     </g>
    </g>
    <g id="ytick_11">
     <g id="line2d_14">
      <g>
       <use style="stroke:#000000;stroke-width:0.8;" x="605.07" xlink:href="#m36a49208fd" y="741.15"/>
      </g>
     </g>
     <g id="text_16">
      <!-- 0.56 -->
      <g transform="translate(612.07 754.447266)scale(0.35 -0.35)">
       <use xlink:href="#DejaVuSans-48"/>
       <use x="63.623047" xlink:href="#DejaVuSans-46"/>
       <use x="95.410156" xlink:href="#DejaVuSans-53"/>
       <use x="159.033203" xlink:href="#DejaVuSans-54"/>
      </g>
     </g>
    </g>
    <g id="ytick_12">
     <g id="line2d_15">
      <g>
       <use style="stroke:#000000;stroke-width:0.8;" x="605.07" xlink:href="#m36a49208fd" y="639.225"/>
      </g>
     </g>
     <g id="text_17">
      <!-- 0.64 -->
      <g transform="translate(612.07 652.522266)scale(0.35 -0.35)">
       <use xlink:href="#DejaVuSans-48"/>
       <use x="63.623047" xlink:href="#DejaVuSans-46"/>
       <use x="95.410156" xlink:href="#DejaVuSans-54"/>
       <use x="159.033203" xlink:href="#DejaVuSans-52"/>
      </g>
     </g>
    </g>
    <g id="ytick_13">
     <g id="line2d_16">
      <g>
       <use style="stroke:#000000;stroke-width:0.8;" x="605.07" xlink:href="#m36a49208fd" y="537.3"/>
      </g>
     </g>
     <g id="text_18">
      <!-- 0.72 -->
      <g transform="translate(612.07 550.597266)scale(0.35 -0.35)">
       <use xlink:href="#DejaVuSans-48"/>
       <use x="63.623047" xlink:href="#DejaVuSans-46"/>
       <use x="95.410156" xlink:href="#DejaVuSans-55"/>
       <use x="159.033203" xlink:href="#DejaVuSans-50"/>
      </g>
     </g>
    </g>
    <g id="ytick_14">
     <g id="line2d_17">
      <g>
       <use style="stroke:#000000;stroke-width:0.8;" x="605.07" xlink:href="#m36a49208fd" y="435.375"/>
      </g>
     </g>
     <g id="text_19">
      <!-- 0.80 -->
      <g transform="translate(612.07 448.672266)scale(0.35 -0.35)">
       <use xlink:href="#DejaVuSans-48"/>
       <use x="63.623047" xlink:href="#DejaVuSans-46"/>
       <use x="95.410156" xlink:href="#DejaVuSans-56"/>
       <use x="159.033203" xlink:href="#DejaVuSans-48"/>
      </g>
     </g>
    </g>
    <g id="ytick_15">
     <g id="line2d_18">
      <g>
       <use style="stroke:#000000;stroke-width:0.8;" x="605.07" xlink:href="#m36a49208fd" y="333.45"/>
      </g>
     </g>
     <g id="text_20">
      <!-- 0.88 -->
      <g transform="translate(612.07 346.747266)scale(0.35 -0.35)">
       <use xlink:href="#DejaVuSans-48"/>
       <use x="63.623047" xlink:href="#DejaVuSans-46"/>
       <use x="95.410156" xlink:href="#DejaVuSans-56"/>
       <use x="159.033203" xlink:href="#DejaVuSans-56"/>
      </g>
     </g>
    </g>
    <g id="ytick_16">
     <g id="line2d_19">
      <g>
       <use style="stroke:#000000;stroke-width:0.8;" x="605.07" xlink:href="#m36a49208fd" y="231.525"/>
      </g>
     </g>
     <g id="text_21">
      <!-- 0.96 -->
      <g transform="translate(612.07 244.822266)scale(0.35 -0.35)">
       <defs>
        <path d="M 10.984375 1.515625 
L 10.984375 10.5 
Q 14.703125 8.734375 18.5 7.8125 
Q 22.3125 6.890625 25.984375 6.890625 
Q 35.75 6.890625 40.890625 13.453125 
Q 46.046875 20.015625 46.78125 33.40625 
Q 43.953125 29.203125 39.59375 26.953125 
Q 35.25 24.703125 29.984375 24.703125 
Q 19.046875 24.703125 12.671875 31.3125 
Q 6.296875 37.9375 6.296875 49.421875 
Q 6.296875 60.640625 12.9375 67.421875 
Q 19.578125 74.21875 30.609375 74.21875 
Q 43.265625 74.21875 49.921875 64.515625 
Q 56.59375 54.828125 56.59375 36.375 
Q 56.59375 19.140625 48.40625 8.859375 
Q 40.234375 -1.421875 26.421875 -1.421875 
Q 22.703125 -1.421875 18.890625 -0.6875 
Q 15.09375 0.046875 10.984375 1.515625 
z
M 30.609375 32.421875 
Q 37.25 32.421875 41.125 36.953125 
Q 45.015625 41.5 45.015625 49.421875 
Q 45.015625 57.28125 41.125 61.84375 
Q 37.25 66.40625 30.609375 66.40625 
Q 23.96875 66.40625 20.09375 61.84375 
Q 16.21875 57.28125 16.21875 49.421875 
Q 16.21875 41.5 20.09375 36.953125 
Q 23.96875 32.421875 30.609375 32.421875 
z
" id="DejaVuSans-57"/>
       </defs>
       <use xlink:href="#DejaVuSans-48"/>
       <use x="63.623047" xlink:href="#DejaVuSans-46"/>
       <use x="95.410156" xlink:href="#DejaVuSans-57"/>
       <use x="159.033203" xlink:href="#DejaVuSans-54"/>
      </g>
     </g>
    </g>
    <g id="ytick_17">
     <g id="line2d_20">
      <g>
       <use style="stroke:#000000;stroke-width:0.8;" x="605.07" xlink:href="#m36a49208fd" y="129.6"/>
      </g>
     </g>
     <g id="text_22">
      <!-- 1.04 -->
      <g transform="translate(612.07 142.897266)scale(0.35 -0.35)">
       <use xlink:href="#DejaVuSans-49"/>
       <use x="63.623047" xlink:href="#DejaVuSans-46"/>
       <use x="95.410156" xlink:href="#DejaVuSans-48"/>
       <use x="159.033203" xlink:href="#DejaVuSans-52"/>
      </g>
     </g>
    </g>
   </g>
   <g id="patch_8">
    <path d="M 564.3 945 
L 564.3 843.075 
L 564.3 231.525 
L 564.3 129.6 
L 605.07 129.6 
L 605.07 231.525 
L 605.07 843.075 
L 605.07 945 
z
" style="fill:none;stroke:#000000;stroke-linejoin:miter;stroke-width:0.8;"/>
   </g>
  </g>
 </g>
 <defs>
  <clipPath id="p3e7e29fc7b">
   <rect height="815.4" width="446.4" x="90" y="129.6"/>
  </clipPath>
  <clipPath id="pe396ec7ebc">
   <rect height="815.4" width="40.77" x="564.3" y="129.6"/>
  </clipPath>
 </defs>
</svg>
