<?xml version="1.0" encoding="utf-8" standalone="no"?>
<!DOCTYPE svg PUBLIC "-//W3C//DTD SVG 1.1//EN"
  "http://www.w3.org/Graphics/SVG/1.1/DTD/svg11.dtd">
<!-- Created with matplotlib (https://matplotlib.org/) -->
<svg height="1080pt" version="1.1" viewBox="0 0 720 1080" width="720pt" xmlns="http://www.w3.org/2000/svg" xmlns:xlink="http://www.w3.org/1999/xlink">
 <metadata>
  <rdf:RDF xmlns:cc="http://creativecommons.org/ns#" xmlns:dc="http://purl.org/dc/elements/1.1/" xmlns:rdf="http://www.w3.org/1999/02/22-rdf-syntax-ns#">
   <cc:Work>
    <dc:type rdf:resource="http://purl.org/dc/dcmitype/StillImage"/>
    <dc:date>2021-04-15T21:58:19.904553</dc:date>
    <dc:format>image/svg+xml</dc:format>
    <dc:creator>
     <cc:Agent>
      <dc:title>Matplotlib v3.3.2, https://matplotlib.org/</dc:title>
     </cc:Agent>
    </dc:creator>
   </cc:Work>
  </rdf:RDF>
 </metadata>
 <defs>
  <style type="text/css">*{stroke-linecap:butt;stroke-linejoin:round;}</style>
 </defs>
 <g id="figure_1">
  <g id="patch_1">
   <path d="M 0 1080 
L 720 1080 
L 720 0 
L 0 0 
z
" style="fill:none;"/>
  </g>
  <g id="axes_1">
   <g id="patch_2">
    <path d="M 90 369.423529 
L 648 369.423529 
L 648 129.6 
L 90 129.6 
z
" style="fill:#ffffff;"/>
   </g>
   <g id="matplotlib.axis_1">
    <g id="xtick_1">
     <g id="line2d_1">
      <defs>
       <path d="M 0 0 
L 0 3.5 
" id="m89430d3074" style="stroke:#000000;stroke-width:0.8;"/>
      </defs>
      <g>
       <use style="stroke:#000000;stroke-width:0.8;" x="96.340909" xlink:href="#m89430d3074" y="369.423529"/>
      </g>
     </g>
    </g>
    <g id="xtick_2">
     <g id="line2d_2">
      <g>
       <use style="stroke:#000000;stroke-width:0.8;" x="232.670455" xlink:href="#m89430d3074" y="369.423529"/>
      </g>
     </g>
    </g>
    <g id="xtick_3">
     <g id="line2d_3">
      <g>
       <use style="stroke:#000000;stroke-width:0.8;" x="369" xlink:href="#m89430d3074" y="369.423529"/>
      </g>
     </g>
    </g>
    <g id="xtick_4">
     <g id="line2d_4">
      <g>
       <use style="stroke:#000000;stroke-width:0.8;" x="505.329545" xlink:href="#m89430d3074" y="369.423529"/>
      </g>
     </g>
    </g>
    <g id="xtick_5">
     <g id="line2d_5">
      <g>
       <use style="stroke:#000000;stroke-width:0.8;" x="641.659091" xlink:href="#m89430d3074" y="369.423529"/>
      </g>
     </g>
    </g>
   </g>
   <g id="matplotlib.axis_2">
    <g id="ytick_1">
     <g id="line2d_6">
      <defs>
       <path d="M 0 0 
L -3.5 0 
" id="m97ba0ea637" style="stroke:#000000;stroke-width:0.8;"/>
      </defs>
      <g>
       <use style="stroke:#000000;stroke-width:0.8;" x="90" xlink:href="#m97ba0ea637" y="308.36728"/>
      </g>
     </g>
     <g id="text_1">
      <!-- 0.6 -->
      <g transform="translate(27.339063 321.664545)scale(0.35 -0.35)">
       <defs>
        <path d="M 31.78125 66.40625 
Q 24.171875 66.40625 20.328125 58.90625 
Q 16.5 51.421875 16.5 36.375 
Q 16.5 21.390625 20.328125 13.890625 
Q 24.171875 6.390625 31.78125 6.390625 
Q 39.453125 6.390625 43.28125 13.890625 
Q 47.125 21.390625 47.125 36.375 
Q 47.125 51.421875 43.28125 58.90625 
Q 39.453125 66.40625 31.78125 66.40625 
z
M 31.78125 74.21875 
Q 44.046875 74.21875 50.515625 64.515625 
Q 56.984375 54.828125 56.984375 36.375 
Q 56.984375 17.96875 50.515625 8.265625 
Q 44.046875 -1.421875 31.78125 -1.421875 
Q 19.53125 -1.421875 13.0625 8.265625 
Q 6.59375 17.96875 6.59375 36.375 
Q 6.59375 54.828125 13.0625 64.515625 
Q 19.53125 74.21875 31.78125 74.21875 
z
" id="DejaVuSans-48"/>
        <path d="M 10.6875 12.40625 
L 21 12.40625 
L 21 0 
L 10.6875 0 
z
" id="DejaVuSans-46"/>
        <path d="M 33.015625 40.375 
Q 26.375 40.375 22.484375 35.828125 
Q 18.609375 31.296875 18.609375 23.390625 
Q 18.609375 15.53125 22.484375 10.953125 
Q 26.375 6.390625 33.015625 6.390625 
Q 39.65625 6.390625 43.53125 10.953125 
Q 47.40625 15.53125 47.40625 23.390625 
Q 47.40625 31.296875 43.53125 35.828125 
Q 39.65625 40.375 33.015625 40.375 
z
M 52.59375 71.296875 
L 52.59375 62.3125 
Q 48.875 64.0625 45.09375 64.984375 
Q 41.3125 65.921875 37.59375 65.921875 
Q 27.828125 65.921875 22.671875 59.328125 
Q 17.53125 52.734375 16.796875 39.40625 
Q 19.671875 43.65625 24.015625 45.921875 
Q 28.375 48.1875 33.59375 48.1875 
Q 44.578125 48.1875 50.953125 41.515625 
Q 57.328125 34.859375 57.328125 23.390625 
Q 57.328125 12.15625 50.6875 5.359375 
Q 44.046875 -1.421875 33.015625 -1.421875 
Q 20.359375 -1.421875 13.671875 8.265625 
Q 6.984375 17.96875 6.984375 36.375 
Q 6.984375 53.65625 15.1875 63.9375 
Q 23.390625 74.21875 37.203125 74.21875 
Q 40.921875 74.21875 44.703125 73.484375 
Q 48.484375 72.75 52.59375 71.296875 
z
" id="DejaVuSans-54"/>
       </defs>
       <use xlink:href="#DejaVuSans-48"/>
       <use x="63.623047" xlink:href="#DejaVuSans-46"/>
       <use x="95.410156" xlink:href="#DejaVuSans-54"/>
      </g>
     </g>
    </g>
    <g id="ytick_2">
     <g id="line2d_7">
      <g>
       <use style="stroke:#000000;stroke-width:0.8;" x="90" xlink:href="#m97ba0ea637" y="224.434175"/>
      </g>
     </g>
     <g id="text_2">
      <!-- 0.8 -->
      <g transform="translate(27.339063 237.73144)scale(0.35 -0.35)">
       <defs>
        <path d="M 31.78125 34.625 
Q 24.75 34.625 20.71875 30.859375 
Q 16.703125 27.09375 16.703125 20.515625 
Q 16.703125 13.921875 20.71875 10.15625 
Q 24.75 6.390625 31.78125 6.390625 
Q 38.8125 6.390625 42.859375 10.171875 
Q 46.921875 13.96875 46.921875 20.515625 
Q 46.921875 27.09375 42.890625 30.859375 
Q 38.875 34.625 31.78125 34.625 
z
M 21.921875 38.8125 
Q 15.578125 40.375 12.03125 44.71875 
Q 8.5 49.078125 8.5 55.328125 
Q 8.5 64.0625 14.71875 69.140625 
Q 20.953125 74.21875 31.78125 74.21875 
Q 42.671875 74.21875 48.875 69.140625 
Q 55.078125 64.0625 55.078125 55.328125 
Q 55.078125 49.078125 51.53125 44.71875 
Q 48 40.375 41.703125 38.8125 
Q 48.828125 37.15625 52.796875 32.3125 
Q 56.78125 27.484375 56.78125 20.515625 
Q 56.78125 9.90625 50.3125 4.234375 
Q 43.84375 -1.421875 31.78125 -1.421875 
Q 19.734375 -1.421875 13.25 4.234375 
Q 6.78125 9.90625 6.78125 20.515625 
Q 6.78125 27.484375 10.78125 32.3125 
Q 14.796875 37.15625 21.921875 38.8125 
z
M 18.3125 54.390625 
Q 18.3125 48.734375 21.84375 45.5625 
Q 25.390625 42.390625 31.78125 42.390625 
Q 38.140625 42.390625 41.71875 45.5625 
Q 45.3125 48.734375 45.3125 54.390625 
Q 45.3125 60.0625 41.71875 63.234375 
Q 38.140625 66.40625 31.78125 66.40625 
Q 25.390625 66.40625 21.84375 63.234375 
Q 18.3125 60.0625 18.3125 54.390625 
z
" id="DejaVuSans-56"/>
       </defs>
       <use xlink:href="#DejaVuSans-48"/>
       <use x="63.623047" xlink:href="#DejaVuSans-46"/>
       <use x="95.410156" xlink:href="#DejaVuSans-56"/>
      </g>
     </g>
    </g>
    <g id="ytick_3">
     <g id="line2d_8">
      <g>
       <use style="stroke:#000000;stroke-width:0.8;" x="90" xlink:href="#m97ba0ea637" y="140.50107"/>
      </g>
     </g>
     <g id="text_3">
      <!-- 1.0 -->
      <g transform="translate(27.339063 153.798335)scale(0.35 -0.35)">
       <defs>
        <path d="M 12.40625 8.296875 
L 28.515625 8.296875 
L 28.515625 63.921875 
L 10.984375 60.40625 
L 10.984375 69.390625 
L 28.421875 72.90625 
L 38.28125 72.90625 
L 38.28125 8.296875 
L 54.390625 8.296875 
L 54.390625 0 
L 12.40625 0 
z
" id="DejaVuSans-49"/>
       </defs>
       <use xlink:href="#DejaVuSans-49"/>
       <use x="63.623047" xlink:href="#DejaVuSans-46"/>
       <use x="95.410156" xlink:href="#DejaVuSans-48"/>
      </g>
     </g>
    </g>
   </g>
   <g id="line2d_9">
    <path clip-path="url(#p019151d2d0)" d="M 115.363636 198.98174 
L 122.472563 202.228763 
L 129.07371 205.482706 
L 135.674857 208.989484 
L 141.768223 212.472628 
L 147.861589 216.214023 
L 153.447174 219.890512 
L 159.03276 223.823571 
L 164.618346 228.034597 
L 170.203931 232.54625 
L 175.281736 236.928886 
L 180.359541 241.598853 
L 185.437346 246.575795 
L 190.515152 251.878868 
L 195.592957 257.527082 
L 200.670762 263.537488 
L 205.748567 269.923805 
L 210.826372 276.694168 
L 215.904177 283.848072 
L 220.981982 291.37117 
L 226.567568 300.030962 
L 233.676495 311.489381 
L 244.847666 329.571723 
L 248.90991 335.704854 
L 251.956593 339.935804 
L 254.495495 343.1136 
L 256.526618 345.360829 
L 258.55774 347.28507 
L 260.081081 348.478025 
L 261.604423 349.422986 
L 263.127764 350.086996 
L 264.651106 350.433935 
L 265.666667 350.469928 
L 266.682228 350.335344 
L 267.697789 350.017304 
L 268.71335 349.502293 
L 269.728911 348.776063 
L 270.744472 347.824099 
L 271.760033 346.631284 
L 272.775594 345.182077 
L 273.791155 343.460652 
L 275.314496 340.332869 
L 276.837838 336.501769 
L 278.361179 331.913633 
L 279.884521 326.517574 
L 281.407862 320.266893 
L 282.931204 313.122934 
L 284.454545 305.057196 
L 286.485667 292.849273 
L 288.51679 279.006275 
L 290.547912 263.638196 
L 293.086814 242.631225 
L 301.211302 172.939561 
L 302.734644 162.272875 
L 304.257985 153.424358 
L 305.273546 148.768198 
L 306.289107 145.262432 
L 306.796888 143.980163 
L 307.304668 143.030508 
L 307.812449 142.426337 
L 308.320229 142.180028 
L 308.82801 142.301288 
L 309.33579 142.799205 
L 309.843571 143.681176 
L 310.351351 144.952282 
L 310.859132 146.615721 
L 311.874693 151.123864 
L 312.890254 157.189551 
L 313.905815 164.760794 
L 314.921376 173.747315 
L 316.444717 189.594086 
L 317.968059 207.758789 
L 320.506962 241.185676 
L 324.061425 288.046688 
L 325.584767 305.849073 
L 327.108108 321.269925 
L 328.123669 329.967758 
L 329.13923 337.266316 
L 330.154791 343.090459 
L 331.170352 347.39883 
L 331.678133 348.980718 
L 332.185913 350.18244 
L 332.693694 351.007709 
L 333.201474 351.461665 
L 333.709255 351.550784 
L 334.217035 351.283162 
L 334.724816 350.668035 
L 335.232596 349.716025 
L 335.740377 348.438498 
L 336.755938 344.957396 
L 337.771499 340.332729 
L 338.78706 334.680997 
L 340.310401 324.545486 
L 341.833743 312.793166 
L 343.864865 295.317327 
L 347.419328 262.260981 
L 351.481572 224.981816 
L 354.020475 203.822647 
L 356.051597 188.696893 
L 358.082719 175.462646 
L 359.606061 166.896806 
L 361.129402 159.564678 
L 362.652744 153.512412 
L 363.668305 150.205747 
L 364.683866 147.49079 
L 365.699427 145.373327 
L 366.714988 143.857926 
L 367.730549 142.947361 
L 368.238329 142.719621 
L 368.74611 142.64378 
L 369.25389 142.719721 
L 369.761671 142.947361 
L 370.269451 143.326802 
L 371.285012 144.540203 
L 372.300573 146.357122 
L 373.316134 148.774001 
L 374.331695 151.785579 
L 375.347256 155.385462 
L 376.870598 161.868545 
L 378.393939 169.617711 
L 379.917281 178.58239 
L 381.440622 188.696851 
L 383.471744 203.822615 
L 385.502867 220.577521 
L 388.54955 247.974367 
L 395.150696 308.588309 
L 397.181818 324.545681 
L 398.70516 334.68115 
L 399.720721 340.332894 
L 400.736282 344.95766 
L 401.751843 348.438824 
L 402.259623 349.716246 
L 402.767404 350.668453 
L 403.275184 351.283451 
L 403.782965 351.551107 
L 404.290745 351.461995 
L 404.798526 351.008086 
L 405.306306 350.182798 
L 405.814087 348.980973 
L 406.321867 347.399165 
L 407.337428 343.090739 
L 408.352989 337.266785 
L 409.36855 329.968269 
L 410.384111 321.270545 
L 411.907453 305.849799 
L 413.430794 288.047335 
L 415.969697 254.939843 
L 419.524161 207.759695 
L 421.555283 184.023487 
L 423.078624 169.085224 
L 424.094185 160.79259 
L 425.109746 153.965412 
L 426.125307 148.674294 
L 427.140868 144.952929 
L 427.648649 143.681974 
L 428.156429 142.800303 
L 428.66421 142.301937 
L 429.17199 142.180628 
L 429.679771 142.427235 
L 430.187551 143.031257 
L 430.695332 143.98101 
L 431.203112 145.263427 
L 432.218673 148.76904 
L 433.234234 153.425 
L 434.249795 159.098713 
L 435.773137 169.211781 
L 437.296478 180.829031 
L 439.835381 202.30969 
L 446.436527 259.581272 
L 448.97543 279.006657 
L 451.006552 292.849496 
L 453.037674 305.05752 
L 455.068796 315.605766 
L 456.592138 322.448289 
L 458.115479 328.409282 
L 459.638821 333.53058 
L 461.162162 337.860492 
L 462.685504 341.451138 
L 464.208845 344.356598 
L 465.732187 346.631477 
L 466.747748 347.824227 
L 467.763309 348.776182 
L 468.77887 349.502451 
L 469.794431 350.017528 
L 470.809992 350.335567 
L 471.825553 350.470127 
L 472.841114 350.434186 
L 473.856675 350.239968 
L 475.380016 349.677439 
L 476.903358 348.822239 
L 478.426699 347.70849 
L 480.457821 345.874656 
L 482.488943 343.702632 
L 485.027846 340.600074 
L 488.074529 336.43635 
L 491.628993 331.14535 
L 496.199017 323.921432 
L 515.494676 292.917697 
L 521.080262 284.584244 
L 526.158067 277.392595 
L 531.235872 270.583552 
L 536.313677 264.15912 
L 541.391482 258.111718 
L 546.469287 252.42795 
L 551.547093 247.091187 
L 556.624898 242.082522 
L 561.702703 237.382664 
L 566.780508 232.972252 
L 571.858313 228.831922 
L 577.443898 224.567984 
L 583.029484 220.586079 
L 588.61507 216.864386 
L 594.708436 213.077707 
L 600.801802 209.553119 
L 607.402948 206.005199 
L 614.004095 202.713879 
L 621.113022 199.430368 
L 622.636364 198.759491 
L 622.636364 198.759491 
" style="fill:none;stroke:#ff0000;stroke-linecap:square;stroke-width:5;"/>
   </g>
   <g id="patch_3">
    <path d="M 90 369.423529 
L 90 129.6 
" style="fill:none;stroke:#000000;stroke-linecap:square;stroke-linejoin:miter;stroke-width:0.8;"/>
   </g>
   <g id="patch_4">
    <path d="M 648 369.423529 
L 648 129.6 
" style="fill:none;stroke:#000000;stroke-linecap:square;stroke-linejoin:miter;stroke-width:0.8;"/>
   </g>
   <g id="patch_5">
    <path d="M 90 369.423529 
L 648 369.423529 
" style="fill:none;stroke:#000000;stroke-linecap:square;stroke-linejoin:miter;stroke-width:0.8;"/>
   </g>
   <g id="patch_6">
    <path d="M 90 129.6 
L 648 129.6 
" style="fill:none;stroke:#000000;stroke-linecap:square;stroke-linejoin:miter;stroke-width:0.8;"/>
   </g>
  </g>
  <g id="axes_2">
   <g id="patch_7">
    <path d="M 90 657.211765 
L 648 657.211765 
L 648 417.388235 
L 90 417.388235 
z
" style="fill:#ffffff;"/>
   </g>
   <g id="matplotlib.axis_3">
    <g id="xtick_6">
     <g id="line2d_10">
      <g>
       <use style="stroke:#000000;stroke-width:0.8;" x="96.340909" xlink:href="#m89430d3074" y="657.211765"/>
      </g>
     </g>
    </g>
    <g id="xtick_7">
     <g id="line2d_11">
      <g>
       <use style="stroke:#000000;stroke-width:0.8;" x="232.670455" xlink:href="#m89430d3074" y="657.211765"/>
      </g>
     </g>
    </g>
    <g id="xtick_8">
     <g id="line2d_12">
      <g>
       <use style="stroke:#000000;stroke-width:0.8;" x="369" xlink:href="#m89430d3074" y="657.211765"/>
      </g>
     </g>
    </g>
    <g id="xtick_9">
     <g id="line2d_13">
      <g>
       <use style="stroke:#000000;stroke-width:0.8;" x="505.329545" xlink:href="#m89430d3074" y="657.211765"/>
      </g>
     </g>
    </g>
    <g id="xtick_10">
     <g id="line2d_14">
      <g>
       <use style="stroke:#000000;stroke-width:0.8;" x="641.659091" xlink:href="#m89430d3074" y="657.211765"/>
      </g>
     </g>
    </g>
   </g>
   <g id="matplotlib.axis_4">
    <g id="ytick_4">
     <g id="line2d_15">
      <g>
       <use style="stroke:#000000;stroke-width:0.8;" x="90" xlink:href="#m97ba0ea637" y="596.155515"/>
      </g>
     </g>
     <g id="text_4">
      <!-- 0.6 -->
      <g transform="translate(27.339063 609.452781)scale(0.35 -0.35)">
       <use xlink:href="#DejaVuSans-48"/>
       <use x="63.623047" xlink:href="#DejaVuSans-46"/>
       <use x="95.410156" xlink:href="#DejaVuSans-54"/>
      </g>
     </g>
    </g>
    <g id="ytick_5">
     <g id="line2d_16">
      <g>
       <use style="stroke:#000000;stroke-width:0.8;" x="90" xlink:href="#m97ba0ea637" y="512.22241"/>
      </g>
     </g>
     <g id="text_5">
      <!-- 0.8 -->
      <g transform="translate(27.339063 525.519676)scale(0.35 -0.35)">
       <use xlink:href="#DejaVuSans-48"/>
       <use x="63.623047" xlink:href="#DejaVuSans-46"/>
       <use x="95.410156" xlink:href="#DejaVuSans-56"/>
      </g>
     </g>
    </g>
    <g id="ytick_6">
     <g id="line2d_17">
      <g>
       <use style="stroke:#000000;stroke-width:0.8;" x="90" xlink:href="#m97ba0ea637" y="428.289305"/>
      </g>
     </g>
     <g id="text_6">
      <!-- 1.0 -->
      <g transform="translate(27.339063 441.58657)scale(0.35 -0.35)">
       <use xlink:href="#DejaVuSans-49"/>
       <use x="63.623047" xlink:href="#DejaVuSans-46"/>
       <use x="95.410156" xlink:href="#DejaVuSans-48"/>
      </g>
     </g>
    </g>
   </g>
   <g id="line2d_18">
    <path clip-path="url(#pb111ff7fdc)" d="M 115.363636 481.563178 
L 123.488124 484.658689 
L 131.104832 487.795322 
L 138.72154 491.181546 
L 145.830467 494.588322 
L 152.431613 497.984011 
L 159.03276 501.622498 
L 165.633907 505.523872 
L 171.727273 509.377073 
L 177.820639 513.490482 
L 183.914005 517.882728 
L 189.49959 522.170616 
L 195.085176 526.724225 
L 200.670762 531.558516 
L 206.256347 536.687869 
L 211.841933 542.125357 
L 217.427518 547.881904 
L 223.013104 553.964973 
L 228.59869 560.376931 
L 234.184275 567.112962 
L 240.277641 574.812471 
L 246.878788 583.521229 
L 255.003276 594.630879 
L 269.728911 614.843355 
L 274.298935 620.716329 
L 277.853399 624.97969 
L 280.900082 628.340991 
L 283.946765 631.355463 
L 286.485667 633.542766 
L 288.51679 635.041481 
L 290.547912 636.284143 
L 292.579034 637.237976 
L 294.102375 637.742741 
L 295.625717 638.049415 
L 297.149058 638.141686 
L 298.6724 638.002127 
L 300.195741 637.612965 
L 301.719083 636.955602 
L 303.242424 636.010983 
L 304.765766 634.759494 
L 306.289107 633.181432 
L 307.812449 631.256606 
L 309.33579 628.965083 
L 310.859132 626.287068 
L 312.382473 623.203128 
L 313.905815 619.694961 
L 315.429156 615.744773 
L 317.460278 609.763273 
L 319.4914 602.936291 
L 321.522523 595.239852 
L 323.553645 586.660963 
L 325.584767 577.201163 
L 328.123669 564.167049 
L 330.662572 549.868973 
L 333.709255 531.256917 
L 337.771499 504.6909 
L 343.357084 467.890252 
L 345.388206 455.667583 
L 346.911548 447.409352 
L 348.434889 440.266691 
L 349.45045 436.31223 
L 350.466011 433.164123 
L 351.481572 430.988918 
L 351.989353 430.327444 
L 352.497133 429.988079 
L 353.004914 430.002464 
L 353.512695 430.406261 
L 354.020475 431.238846 
L 354.528256 432.543941 
L 355.036036 434.370603 
L 355.543817 436.772776 
L 356.051597 439.811203 
L 357.067158 448.072562 
L 358.082719 459.781814 
L 359.09828 475.681518 
L 360.113841 496.583791 
L 361.129402 523.19699 
L 362.144963 555.641371 
L 364.176085 627.185779 
L 364.683866 640.020961 
L 365.191646 646.310695 
L 365.699427 642.770287 
L 366.207207 626.337615 
L 366.714988 595.691344 
L 368.238329 471.743154 
L 368.74611 457.94447 
L 369.25389 471.7432 
L 369.761671 507.790234 
L 370.777232 595.691378 
L 371.285012 626.337591 
L 371.792793 642.770232 
L 372.300573 646.310656 
L 372.808354 640.020888 
L 373.316134 627.185594 
L 374.331695 592.270661 
L 375.855037 538.730827 
L 376.870598 509.146114 
L 377.886159 485.45702 
L 378.90172 467.157385 
L 379.917281 453.452349 
L 380.932842 443.552986 
L 381.948403 436.772776 
L 382.456183 434.370454 
L 382.963964 432.543841 
L 383.471744 431.238846 
L 383.979525 430.406261 
L 384.487305 430.002464 
L 384.995086 429.988079 
L 385.502867 430.327394 
L 386.010647 430.988918 
L 386.518428 431.943065 
L 387.533989 434.627594 
L 388.54955 438.197971 
L 389.565111 442.501353 
L 391.088452 450.054583 
L 393.119574 461.638353 
L 395.658477 477.651996 
L 406.321867 546.869375 
L 408.86077 561.404681 
L 411.399672 574.700249 
L 413.938575 586.660963 
L 415.969697 595.239852 
L 418.000819 602.936291 
L 420.031941 609.763273 
L 422.063063 615.744773 
L 424.094185 620.912605 
L 425.617527 624.27737 
L 427.140868 627.223909 
L 428.66421 629.770824 
L 430.187551 631.937973 
L 431.710893 633.744934 
L 433.234234 635.211939 
L 434.757576 636.35893 
L 436.280917 637.205668 
L 437.804259 637.771582 
L 439.3276 638.075565 
L 440.850942 638.135804 
L 442.374283 637.970239 
L 443.897625 637.595636 
L 445.420966 637.028507 
L 447.452088 635.999203 
L 449.48321 634.689584 
L 451.514333 633.131693 
L 454.053235 630.880481 
L 456.592138 628.34095 
L 459.638821 624.97969 
L 463.193284 620.716338 
L 467.763309 614.843355 
L 473.856675 606.596906 
L 494.167895 578.788439 
L 500.769042 570.278267 
L 506.862408 562.789539 
L 512.447993 556.258727 
L 518.033579 550.055808 
L 523.619165 544.181224 
L 529.20475 538.628848 
L 534.790336 533.388805 
L 540.375921 528.448798 
L 545.961507 523.794847 
L 551.547093 519.412123 
L 557.640459 514.922592 
L 563.733825 510.718394 
L 569.827191 506.780498 
L 576.428337 502.793961 
L 583.029484 499.076839 
L 589.630631 495.608512 
L 596.739558 492.129625 
L 603.848485 488.895191 
L 611.465192 485.677944 
L 619.0819 482.695211 
L 622.636364 481.377739 
L 622.636364 481.377739 
" style="fill:none;stroke:#ff7f0e;stroke-linecap:square;stroke-width:5;"/>
   </g>
   <g id="patch_8">
    <path d="M 90 657.211765 
L 90 417.388235 
" style="fill:none;stroke:#000000;stroke-linecap:square;stroke-linejoin:miter;stroke-width:0.8;"/>
   </g>
   <g id="patch_9">
    <path d="M 648 657.211765 
L 648 417.388235 
" style="fill:none;stroke:#000000;stroke-linecap:square;stroke-linejoin:miter;stroke-width:0.8;"/>
   </g>
   <g id="patch_10">
    <path d="M 90 657.211765 
L 648 657.211765 
" style="fill:none;stroke:#000000;stroke-linecap:square;stroke-linejoin:miter;stroke-width:0.8;"/>
   </g>
   <g id="patch_11">
    <path d="M 90 417.388235 
L 648 417.388235 
" style="fill:none;stroke:#000000;stroke-linecap:square;stroke-linejoin:miter;stroke-width:0.8;"/>
   </g>
  </g>
  <g id="axes_3">
   <g id="patch_12">
    <path d="M 90 945 
L 648 945 
L 648 705.176471 
L 90 705.176471 
z
" style="fill:#ffffff;"/>
   </g>
   <g id="matplotlib.axis_5">
    <g id="xtick_11">
     <g id="line2d_19">
      <g>
       <use style="stroke:#000000;stroke-width:0.8;" x="96.340909" xlink:href="#m89430d3074" y="945"/>
      </g>
     </g>
     <g id="text_7">
      <!-- −2 -->
      <g transform="translate(70.542081 978.594531)scale(0.35 -0.35)">
       <defs>
        <path d="M 10.59375 35.5 
L 73.1875 35.5 
L 73.1875 27.203125 
L 10.59375 27.203125 
z
" id="DejaVuSans-8722"/>
        <path d="M 19.1875 8.296875 
L 53.609375 8.296875 
L 53.609375 0 
L 7.328125 0 
L 7.328125 8.296875 
Q 12.9375 14.109375 22.625 23.890625 
Q 32.328125 33.6875 34.8125 36.53125 
Q 39.546875 41.84375 41.421875 45.53125 
Q 43.3125 49.21875 43.3125 52.78125 
Q 43.3125 58.59375 39.234375 62.25 
Q 35.15625 65.921875 28.609375 65.921875 
Q 23.96875 65.921875 18.8125 64.3125 
Q 13.671875 62.703125 7.8125 59.421875 
L 7.8125 69.390625 
Q 13.765625 71.78125 18.9375 73 
Q 24.125 74.21875 28.421875 74.21875 
Q 39.75 74.21875 46.484375 68.546875 
Q 53.21875 62.890625 53.21875 53.421875 
Q 53.21875 48.921875 51.53125 44.890625 
Q 49.859375 40.875 45.40625 35.40625 
Q 44.1875 33.984375 37.640625 27.21875 
Q 31.109375 20.453125 19.1875 8.296875 
z
" id="DejaVuSans-50"/>
       </defs>
       <use xlink:href="#DejaVuSans-8722"/>
       <use x="83.789062" xlink:href="#DejaVuSans-50"/>
      </g>
     </g>
    </g>
    <g id="xtick_12">
     <g id="line2d_20">
      <g>
       <use style="stroke:#000000;stroke-width:0.8;" x="232.670455" xlink:href="#m89430d3074" y="945"/>
      </g>
     </g>
     <g id="text_8">
      <!-- −1 -->
      <g transform="translate(206.871626 978.594531)scale(0.35 -0.35)">
       <use xlink:href="#DejaVuSans-8722"/>
       <use x="83.789062" xlink:href="#DejaVuSans-49"/>
      </g>
     </g>
    </g>
    <g id="xtick_13">
     <g id="line2d_21">
      <g>
       <use style="stroke:#000000;stroke-width:0.8;" x="369" xlink:href="#m89430d3074" y="945"/>
      </g>
     </g>
     <g id="text_9">
      <!-- 0 -->
      <g transform="translate(357.865625 978.594531)scale(0.35 -0.35)">
       <use xlink:href="#DejaVuSans-48"/>
      </g>
     </g>
    </g>
    <g id="xtick_14">
     <g id="line2d_22">
      <g>
       <use style="stroke:#000000;stroke-width:0.8;" x="505.329545" xlink:href="#m89430d3074" y="945"/>
      </g>
     </g>
     <g id="text_10">
      <!-- 1 -->
      <g transform="translate(494.19517 978.594531)scale(0.35 -0.35)">
       <use xlink:href="#DejaVuSans-49"/>
      </g>
     </g>
    </g>
    <g id="xtick_15">
     <g id="line2d_23">
      <g>
       <use style="stroke:#000000;stroke-width:0.8;" x="641.659091" xlink:href="#m89430d3074" y="945"/>
      </g>
     </g>
     <g id="text_11">
      <!-- 2 -->
      <g transform="translate(630.524716 978.594531)scale(0.35 -0.35)">
       <use xlink:href="#DejaVuSans-50"/>
      </g>
     </g>
    </g>
   </g>
   <g id="matplotlib.axis_6">
    <g id="ytick_7">
     <g id="line2d_24">
      <g>
       <use style="stroke:#000000;stroke-width:0.8;" x="90" xlink:href="#m97ba0ea637" y="883.94375"/>
      </g>
     </g>
     <g id="text_12">
      <!-- 0.6 -->
      <g transform="translate(27.339063 897.241016)scale(0.35 -0.35)">
       <use xlink:href="#DejaVuSans-48"/>
       <use x="63.623047" xlink:href="#DejaVuSans-46"/>
       <use x="95.410156" xlink:href="#DejaVuSans-54"/>
      </g>
     </g>
    </g>
    <g id="ytick_8">
     <g id="line2d_25">
      <g>
       <use style="stroke:#000000;stroke-width:0.8;" x="90" xlink:href="#m97ba0ea637" y="800.010645"/>
      </g>
     </g>
     <g id="text_13">
      <!-- 0.8 -->
      <g transform="translate(27.339063 813.307911)scale(0.35 -0.35)">
       <use xlink:href="#DejaVuSans-48"/>
       <use x="63.623047" xlink:href="#DejaVuSans-46"/>
       <use x="95.410156" xlink:href="#DejaVuSans-56"/>
      </g>
     </g>
    </g>
    <g id="ytick_9">
     <g id="line2d_26">
      <g>
       <use style="stroke:#000000;stroke-width:0.8;" x="90" xlink:href="#m97ba0ea637" y="716.07754"/>
      </g>
     </g>
     <g id="text_14">
      <!-- 1.0 -->
      <g transform="translate(27.339063 729.374806)scale(0.35 -0.35)">
       <use xlink:href="#DejaVuSans-49"/>
       <use x="63.623047" xlink:href="#DejaVuSans-46"/>
       <use x="95.410156" xlink:href="#DejaVuSans-48"/>
      </g>
     </g>
    </g>
   </g>
   <g id="line2d_27">
    <path clip-path="url(#p0caa19e9f2)" d="M 115.363636 768.990435 
L 123.488124 772.043166 
L 131.104832 775.134333 
L 138.72154 778.468684 
L 145.830467 781.820644 
L 152.939394 785.425347 
L 159.540541 789.018279 
L 166.141687 792.86781 
L 172.235053 796.666514 
L 178.328419 800.718337 
L 184.421785 805.040891 
L 190.515152 809.652696 
L 196.100737 814.149973 
L 201.686323 818.919791 
L 207.271908 823.975451 
L 212.857494 829.32907 
L 218.443079 834.990388 
L 224.028665 840.965928 
L 229.614251 847.257518 
L 235.707617 854.475037 
L 241.800983 862.042157 
L 248.402129 870.588397 
L 257.034398 882.165828 
L 271.252252 901.303357 
L 276.330057 907.724363 
L 280.392301 912.498458 
L 283.438984 915.783078 
L 286.485667 918.743229 
L 289.02457 920.910112 
L 291.563473 922.755039 
L 293.594595 923.965236 
L 295.625717 924.909258 
L 297.656839 925.55783 
L 299.18018 925.831772 
L 300.703522 925.908664 
L 302.226863 925.77459 
L 303.750205 925.41538 
L 305.273546 924.816635 
L 306.796888 923.96382 
L 308.320229 922.842337 
L 309.843571 921.437908 
L 311.366912 919.736254 
L 312.890254 917.723578 
L 314.413595 915.386902 
L 315.936937 912.713932 
L 317.968059 908.607775 
L 319.999181 903.861375 
L 322.030303 898.457794 
L 324.061425 892.386637 
L 326.092547 885.645642 
L 328.123669 878.242394 
L 330.662572 868.086499 
L 333.201474 856.990101 
L 336.248157 842.574252 
L 339.802621 824.552789 
L 346.403767 789.484064 
L 350.466011 768.521463 
L 353.512695 754.034378 
L 355.543817 745.27319 
L 357.574939 737.416242 
L 359.09828 732.206644 
L 360.621622 727.646888 
L 362.144963 723.788134 
L 363.668305 720.67482 
L 364.683866 719.031481 
L 365.699427 717.744303 
L 366.714988 716.820049 
L 367.730549 716.263353 
L 368.74611 716.07754 
L 369.761671 716.263353 
L 370.777232 716.820049 
L 371.792793 717.744303 
L 372.808354 719.031481 
L 373.823915 720.67482 
L 374.839476 722.665671 
L 376.362817 726.280441 
L 377.886159 730.611882 
L 379.4095 735.610837 
L 381.440622 743.218243 
L 383.471744 751.767867 
L 386.010647 763.540424 
L 389.05733 778.835895 
L 394.135135 805.739054 
L 399.720721 834.984777 
L 403.275184 852.308992 
L 406.321867 865.939912 
L 408.86077 876.289969 
L 411.399672 885.645642 
L 413.430794 892.386637 
L 415.461916 898.457794 
L 417.493038 903.861375 
L 419.524161 908.607775 
L 421.555283 912.713932 
L 423.586405 916.202623 
L 425.109746 918.429806 
L 426.633088 920.337309 
L 428.156429 921.938355 
L 429.679771 923.246938 
L 431.203112 924.277262 
L 432.726454 925.043727 
L 434.249795 925.561017 
L 435.773137 925.843566 
L 437.296478 925.905785 
L 438.81982 925.761688 
L 440.343161 925.425068 
L 442.374283 924.699826 
L 444.405405 923.686513 
L 446.436527 922.41419 
L 448.467649 920.910112 
L 451.006552 918.743229 
L 453.545455 916.300834 
L 456.592138 913.06558 
L 460.146601 908.953717 
L 464.208845 903.919653 
L 469.794431 896.613062 
L 479.950041 882.855425 
L 489.597871 869.919712 
L 496.706798 860.758118 
L 502.800164 853.24711 
L 508.89353 846.090155 
L 514.479115 839.85593 
L 520.064701 833.937764 
L 525.650287 828.333023 
L 531.235872 823.03441 
L 536.821458 818.031667 
L 542.407043 813.312425 
L 547.992629 808.863219 
L 554.085995 804.300876 
L 560.179361 800.024667 
L 566.272727 796.016203 
L 572.873874 791.955648 
L 579.47502 788.167149 
L 586.076167 784.630542 
L 593.185094 781.081815 
L 600.294021 777.781266 
L 607.910729 774.497335 
L 615.527437 771.452267 
L 622.636364 768.807512 
L 622.636364 768.807512 
" style="fill:none;stroke:#0000ff;stroke-linecap:square;stroke-width:5;"/>
   </g>
   <g id="patch_13">
    <path d="M 90 945 
L 90 705.176471 
" style="fill:none;stroke:#000000;stroke-linecap:square;stroke-linejoin:miter;stroke-width:0.8;"/>
   </g>
   <g id="patch_14">
    <path d="M 648 945 
L 648 705.176471 
" style="fill:none;stroke:#000000;stroke-linecap:square;stroke-linejoin:miter;stroke-width:0.8;"/>
   </g>
   <g id="patch_15">
    <path d="M 90 945 
L 648 945 
" style="fill:none;stroke:#000000;stroke-linecap:square;stroke-linejoin:miter;stroke-width:0.8;"/>
   </g>
   <g id="patch_16">
    <path d="M 90 705.176471 
L 648 705.176471 
" style="fill:none;stroke:#000000;stroke-linecap:square;stroke-linejoin:miter;stroke-width:0.8;"/>
   </g>
  </g>
  <g id="axes_4">
   <g id="matplotlib.axis_7">
    <g id="xtick_16">
     <g id="text_15">
      <!-- 0.0 -->
      <g style="opacity:0;" transform="translate(62.169531 978.594531)scale(0.35 -0.35)">
       <use xlink:href="#DejaVuSans-48"/>
       <use x="63.623047" xlink:href="#DejaVuSans-46"/>
       <use x="95.410156" xlink:href="#DejaVuSans-48"/>
      </g>
     </g>
    </g>
    <g id="xtick_17">
     <g id="text_16">
      <!-- 0.2 -->
      <g style="opacity:0;" transform="translate(173.769531 978.594531)scale(0.35 -0.35)">
       <use xlink:href="#DejaVuSans-48"/>
       <use x="63.623047" xlink:href="#DejaVuSans-46"/>
       <use x="95.410156" xlink:href="#DejaVuSans-50"/>
      </g>
     </g>
    </g>
    <g id="xtick_18">
     <g id="text_17">
      <!-- 0.4 -->
      <g style="opacity:0;" transform="translate(285.369531 978.594531)scale(0.35 -0.35)">
       <defs>
        <path d="M 37.796875 64.3125 
L 12.890625 25.390625 
L 37.796875 25.390625 
z
M 35.203125 72.90625 
L 47.609375 72.90625 
L 47.609375 25.390625 
L 58.015625 25.390625 
L 58.015625 17.1875 
L 47.609375 17.1875 
L 47.609375 0 
L 37.796875 0 
L 37.796875 17.1875 
L 4.890625 17.1875 
L 4.890625 26.703125 
z
" id="DejaVuSans-52"/>
       </defs>
       <use xlink:href="#DejaVuSans-48"/>
       <use x="63.623047" xlink:href="#DejaVuSans-46"/>
       <use x="95.410156" xlink:href="#DejaVuSans-52"/>
      </g>
     </g>
    </g>
    <g id="xtick_19">
     <g id="text_18">
      <!-- 0.6 -->
      <g style="opacity:0;" transform="translate(396.969531 978.594531)scale(0.35 -0.35)">
       <use xlink:href="#DejaVuSans-48"/>
       <use x="63.623047" xlink:href="#DejaVuSans-46"/>
       <use x="95.410156" xlink:href="#DejaVuSans-54"/>
      </g>
     </g>
    </g>
    <g id="xtick_20">
     <g id="text_19">
      <!-- 0.8 -->
      <g style="opacity:0;" transform="translate(508.569531 978.594531)scale(0.35 -0.35)">
       <use xlink:href="#DejaVuSans-48"/>
       <use x="63.623047" xlink:href="#DejaVuSans-46"/>
       <use x="95.410156" xlink:href="#DejaVuSans-56"/>
      </g>
     </g>
    </g>
    <g id="xtick_21">
     <g id="text_20">
      <!-- 1.0 -->
      <g style="opacity:0;" transform="translate(620.169531 978.594531)scale(0.35 -0.35)">
       <use xlink:href="#DejaVuSans-49"/>
       <use x="63.623047" xlink:href="#DejaVuSans-46"/>
       <use x="95.410156" xlink:href="#DejaVuSans-48"/>
      </g>
     </g>
    </g>
    <g id="text_21">
     <!-- $(\omega-\omega_{c})$ / $\kappa$ -->
     <g transform="translate(269.775 1016.467969)scale(0.35 -0.35)">
      <defs>
       <path d="M 31 75.875 
Q 24.46875 64.65625 21.28125 53.65625 
Q 18.109375 42.671875 18.109375 31.390625 
Q 18.109375 20.125 21.3125 9.0625 
Q 24.515625 -2 31 -13.1875 
L 23.1875 -13.1875 
Q 15.875 -1.703125 12.234375 9.375 
Q 8.59375 20.453125 8.59375 31.390625 
Q 8.59375 42.28125 12.203125 53.3125 
Q 15.828125 64.359375 23.1875 75.875 
z
" id="DejaVuSans-40"/>
       <path d="M 26.859375 -1.421875 
Q 6.59375 -1.421875 6.59375 27.59375 
Q 6.59375 39.0625 14.15625 54.6875 
L 23.828125 54.6875 
Q 16.84375 39.0625 16.84375 27.34375 
Q 16.84375 6.203125 27.6875 6.203125 
Q 37.59375 6.203125 37.59375 32.46875 
L 45.90625 32.46875 
Q 45.90625 6.203125 55.8125 6.203125 
Q 66.65625 6.203125 66.65625 27.34375 
Q 66.65625 39.0625 59.671875 54.6875 
L 69.34375 54.6875 
Q 76.90625 39.0625 76.90625 27.59375 
Q 76.90625 -1.421875 56.640625 -1.421875 
Q 43.359375 -1.421875 41.75 13.1875 
Q 39.75 -1.421875 26.859375 -1.421875 
z
" id="DejaVuSans-969"/>
       <path d="M 48.78125 52.59375 
L 48.78125 44.1875 
Q 44.96875 46.296875 41.140625 47.34375 
Q 37.3125 48.390625 33.40625 48.390625 
Q 24.65625 48.390625 19.8125 42.84375 
Q 14.984375 37.3125 14.984375 27.296875 
Q 14.984375 17.28125 19.8125 11.734375 
Q 24.65625 6.203125 33.40625 6.203125 
Q 37.3125 6.203125 41.140625 7.25 
Q 44.96875 8.296875 48.78125 10.40625 
L 48.78125 2.09375 
Q 45.015625 0.34375 40.984375 -0.53125 
Q 36.96875 -1.421875 32.421875 -1.421875 
Q 20.0625 -1.421875 12.78125 6.34375 
Q 5.515625 14.109375 5.515625 27.296875 
Q 5.515625 40.671875 12.859375 48.328125 
Q 20.21875 56 33.015625 56 
Q 37.15625 56 41.109375 55.140625 
Q 45.0625 54.296875 48.78125 52.59375 
z
" id="DejaVuSans-99"/>
       <path d="M 8.015625 75.875 
L 15.828125 75.875 
Q 23.140625 64.359375 26.78125 53.3125 
Q 30.421875 42.28125 30.421875 31.390625 
Q 30.421875 20.453125 26.78125 9.375 
Q 23.140625 -1.703125 15.828125 -13.1875 
L 8.015625 -13.1875 
Q 14.5 -2 17.703125 9.0625 
Q 20.90625 20.125 20.90625 31.390625 
Q 20.90625 42.671875 17.703125 53.65625 
Q 14.5 64.65625 8.015625 75.875 
z
" id="DejaVuSans-41"/>
       <path id="DejaVuSans-32"/>
       <path d="M 25.390625 72.90625 
L 33.6875 72.90625 
L 8.296875 -9.28125 
L 0 -9.28125 
z
" id="DejaVuSans-47"/>
       <path d="M 9.328125 54.6875 
L 18.609375 54.6875 
L 18.609375 31.984375 
L 42.1875 54.6875 
L 53.125 54.6875 
L 31.59375 34.078125 
L 56.5 0 
L 45.515625 0 
L 25.296875 28.21875 
L 18.609375 21.921875 
L 18.609375 0 
L 9.328125 0 
z
" id="DejaVuSans-954"/>
      </defs>
      <use transform="translate(0 0.125)" xlink:href="#DejaVuSans-40"/>
      <use transform="translate(39.013672 0.125)" xlink:href="#DejaVuSans-969"/>
      <use transform="translate(142.236328 0.125)" xlink:href="#DejaVuSans-8722"/>
      <use transform="translate(245.507812 0.125)" xlink:href="#DejaVuSans-969"/>
      <use transform="translate(330.205078 -16.28125)scale(0.7)" xlink:href="#DejaVuSans-99"/>
      <use transform="translate(371.425781 0.125)" xlink:href="#DejaVuSans-41"/>
      <use transform="translate(410.439453 0.125)" xlink:href="#DejaVuSans-32"/>
      <use transform="translate(442.226562 0.125)" xlink:href="#DejaVuSans-47"/>
      <use transform="translate(475.917969 0.125)" xlink:href="#DejaVuSans-32"/>
      <use transform="translate(507.705078 0.125)" xlink:href="#DejaVuSans-954"/>
     </g>
    </g>
   </g>
   <g id="matplotlib.axis_8">
    <g id="ytick_10">
     <g id="text_22">
      <!-- 0.0 -->
      <g style="opacity:0;" transform="translate(27.339063 958.297266)scale(0.35 -0.35)">
       <use xlink:href="#DejaVuSans-48"/>
       <use x="63.623047" xlink:href="#DejaVuSans-46"/>
       <use x="95.410156" xlink:href="#DejaVuSans-48"/>
      </g>
     </g>
    </g>
    <g id="ytick_11">
     <g id="text_23">
      <!-- 0.2 -->
      <g style="opacity:0;" transform="translate(27.339063 795.217266)scale(0.35 -0.35)">
       <use xlink:href="#DejaVuSans-48"/>
       <use x="63.623047" xlink:href="#DejaVuSans-46"/>
       <use x="95.410156" xlink:href="#DejaVuSans-50"/>
      </g>
     </g>
    </g>
    <g id="ytick_12">
     <g id="text_24">
      <!-- 0.4 -->
      <g style="opacity:0;" transform="translate(27.339063 632.137266)scale(0.35 -0.35)">
       <use xlink:href="#DejaVuSans-48"/>
       <use x="63.623047" xlink:href="#DejaVuSans-46"/>
       <use x="95.410156" xlink:href="#DejaVuSans-52"/>
      </g>
     </g>
    </g>
    <g id="ytick_13">
     <g id="text_25">
      <!-- 0.6 -->
      <g style="opacity:0;" transform="translate(27.339063 469.057266)scale(0.35 -0.35)">
       <use xlink:href="#DejaVuSans-48"/>
       <use x="63.623047" xlink:href="#DejaVuSans-46"/>
       <use x="95.410156" xlink:href="#DejaVuSans-54"/>
      </g>
     </g>
    </g>
    <g id="ytick_14">
     <g id="text_26">
      <!-- 0.8 -->
      <g style="opacity:0;" transform="translate(27.339063 305.977266)scale(0.35 -0.35)">
       <use xlink:href="#DejaVuSans-48"/>
       <use x="63.623047" xlink:href="#DejaVuSans-46"/>
       <use x="95.410156" xlink:href="#DejaVuSans-56"/>
      </g>
     </g>
    </g>
    <g id="ytick_15">
     <g id="text_27">
      <!-- 1.0 -->
      <g style="opacity:0;" transform="translate(27.339063 142.897266)scale(0.35 -0.35)">
       <use xlink:href="#DejaVuSans-49"/>
       <use x="63.623047" xlink:href="#DejaVuSans-46"/>
       <use x="95.410156" xlink:href="#DejaVuSans-48"/>
      </g>
     </g>
    </g>
    <g id="text_28">
     <!-- Transmission -->
     <g transform="translate(16.060156 650.333594)rotate(-90)scale(0.35 -0.35)">
      <defs>
       <path d="M -0.296875 72.90625 
L 61.375 72.90625 
L 61.375 64.59375 
L 35.5 64.59375 
L 35.5 0 
L 25.59375 0 
L 25.59375 64.59375 
L -0.296875 64.59375 
z
" id="DejaVuSans-84"/>
       <path d="M 41.109375 46.296875 
Q 39.59375 47.171875 37.8125 47.578125 
Q 36.03125 48 33.890625 48 
Q 26.265625 48 22.1875 43.046875 
Q 18.109375 38.09375 18.109375 28.8125 
L 18.109375 0 
L 9.078125 0 
L 9.078125 54.6875 
L 18.109375 54.6875 
L 18.109375 46.1875 
Q 20.953125 51.171875 25.484375 53.578125 
Q 30.03125 56 36.53125 56 
Q 37.453125 56 38.578125 55.875 
Q 39.703125 55.765625 41.0625 55.515625 
z
" id="DejaVuSans-114"/>
       <path d="M 34.28125 27.484375 
Q 23.390625 27.484375 19.1875 25 
Q 14.984375 22.515625 14.984375 16.5 
Q 14.984375 11.71875 18.140625 8.90625 
Q 21.296875 6.109375 26.703125 6.109375 
Q 34.1875 6.109375 38.703125 11.40625 
Q 43.21875 16.703125 43.21875 25.484375 
L 43.21875 27.484375 
z
M 52.203125 31.203125 
L 52.203125 0 
L 43.21875 0 
L 43.21875 8.296875 
Q 40.140625 3.328125 35.546875 0.953125 
Q 30.953125 -1.421875 24.3125 -1.421875 
Q 15.921875 -1.421875 10.953125 3.296875 
Q 6 8.015625 6 15.921875 
Q 6 25.140625 12.171875 29.828125 
Q 18.359375 34.515625 30.609375 34.515625 
L 43.21875 34.515625 
L 43.21875 35.40625 
Q 43.21875 41.609375 39.140625 45 
Q 35.0625 48.390625 27.6875 48.390625 
Q 23 48.390625 18.546875 47.265625 
Q 14.109375 46.140625 10.015625 43.890625 
L 10.015625 52.203125 
Q 14.9375 54.109375 19.578125 55.046875 
Q 24.21875 56 28.609375 56 
Q 40.484375 56 46.34375 49.84375 
Q 52.203125 43.703125 52.203125 31.203125 
z
" id="DejaVuSans-97"/>
       <path d="M 54.890625 33.015625 
L 54.890625 0 
L 45.90625 0 
L 45.90625 32.71875 
Q 45.90625 40.484375 42.875 44.328125 
Q 39.84375 48.1875 33.796875 48.1875 
Q 26.515625 48.1875 22.3125 43.546875 
Q 18.109375 38.921875 18.109375 30.90625 
L 18.109375 0 
L 9.078125 0 
L 9.078125 54.6875 
L 18.109375 54.6875 
L 18.109375 46.1875 
Q 21.34375 51.125 25.703125 53.5625 
Q 30.078125 56 35.796875 56 
Q 45.21875 56 50.046875 50.171875 
Q 54.890625 44.34375 54.890625 33.015625 
z
" id="DejaVuSans-110"/>
       <path d="M 44.28125 53.078125 
L 44.28125 44.578125 
Q 40.484375 46.53125 36.375 47.5 
Q 32.28125 48.484375 27.875 48.484375 
Q 21.1875 48.484375 17.84375 46.4375 
Q 14.5 44.390625 14.5 40.28125 
Q 14.5 37.15625 16.890625 35.375 
Q 19.28125 33.59375 26.515625 31.984375 
L 29.59375 31.296875 
Q 39.15625 29.25 43.1875 25.515625 
Q 47.21875 21.78125 47.21875 15.09375 
Q 47.21875 7.46875 41.1875 3.015625 
Q 35.15625 -1.421875 24.609375 -1.421875 
Q 20.21875 -1.421875 15.453125 -0.5625 
Q 10.6875 0.296875 5.421875 2 
L 5.421875 11.28125 
Q 10.40625 8.6875 15.234375 7.390625 
Q 20.0625 6.109375 24.8125 6.109375 
Q 31.15625 6.109375 34.5625 8.28125 
Q 37.984375 10.453125 37.984375 14.40625 
Q 37.984375 18.0625 35.515625 20.015625 
Q 33.0625 21.96875 24.703125 23.78125 
L 21.578125 24.515625 
Q 13.234375 26.265625 9.515625 29.90625 
Q 5.8125 33.546875 5.8125 39.890625 
Q 5.8125 47.609375 11.28125 51.796875 
Q 16.75 56 26.8125 56 
Q 31.78125 56 36.171875 55.265625 
Q 40.578125 54.546875 44.28125 53.078125 
z
" id="DejaVuSans-115"/>
       <path d="M 52 44.1875 
Q 55.375 50.25 60.0625 53.125 
Q 64.75 56 71.09375 56 
Q 79.640625 56 84.28125 50.015625 
Q 88.921875 44.046875 88.921875 33.015625 
L 88.921875 0 
L 79.890625 0 
L 79.890625 32.71875 
Q 79.890625 40.578125 77.09375 44.375 
Q 74.3125 48.1875 68.609375 48.1875 
Q 61.625 48.1875 57.5625 43.546875 
Q 53.515625 38.921875 53.515625 30.90625 
L 53.515625 0 
L 44.484375 0 
L 44.484375 32.71875 
Q 44.484375 40.625 41.703125 44.40625 
Q 38.921875 48.1875 33.109375 48.1875 
Q 26.21875 48.1875 22.15625 43.53125 
Q 18.109375 38.875 18.109375 30.90625 
L 18.109375 0 
L 9.078125 0 
L 9.078125 54.6875 
L 18.109375 54.6875 
L 18.109375 46.1875 
Q 21.1875 51.21875 25.484375 53.609375 
Q 29.78125 56 35.6875 56 
Q 41.65625 56 45.828125 52.96875 
Q 50 49.953125 52 44.1875 
z
" id="DejaVuSans-109"/>
       <path d="M 9.421875 54.6875 
L 18.40625 54.6875 
L 18.40625 0 
L 9.421875 0 
z
M 9.421875 75.984375 
L 18.40625 75.984375 
L 18.40625 64.59375 
L 9.421875 64.59375 
z
" id="DejaVuSans-105"/>
       <path d="M 30.609375 48.390625 
Q 23.390625 48.390625 19.1875 42.75 
Q 14.984375 37.109375 14.984375 27.296875 
Q 14.984375 17.484375 19.15625 11.84375 
Q 23.34375 6.203125 30.609375 6.203125 
Q 37.796875 6.203125 41.984375 11.859375 
Q 46.1875 17.53125 46.1875 27.296875 
Q 46.1875 37.015625 41.984375 42.703125 
Q 37.796875 48.390625 30.609375 48.390625 
z
M 30.609375 56 
Q 42.328125 56 49.015625 48.375 
Q 55.71875 40.765625 55.71875 27.296875 
Q 55.71875 13.875 49.015625 6.21875 
Q 42.328125 -1.421875 30.609375 -1.421875 
Q 18.84375 -1.421875 12.171875 6.21875 
Q 5.515625 13.875 5.515625 27.296875 
Q 5.515625 40.765625 12.171875 48.375 
Q 18.84375 56 30.609375 56 
z
" id="DejaVuSans-111"/>
      </defs>
      <use xlink:href="#DejaVuSans-84"/>
      <use x="46.333984" xlink:href="#DejaVuSans-114"/>
      <use x="87.447266" xlink:href="#DejaVuSans-97"/>
      <use x="148.726562" xlink:href="#DejaVuSans-110"/>
      <use x="212.105469" xlink:href="#DejaVuSans-115"/>
      <use x="264.205078" xlink:href="#DejaVuSans-109"/>
      <use x="361.617188" xlink:href="#DejaVuSans-105"/>
      <use x="389.400391" xlink:href="#DejaVuSans-115"/>
      <use x="441.5" xlink:href="#DejaVuSans-115"/>
      <use x="493.599609" xlink:href="#DejaVuSans-105"/>
      <use x="521.382812" xlink:href="#DejaVuSans-111"/>
      <use x="582.564453" xlink:href="#DejaVuSans-110"/>
     </g>
    </g>
   </g>
  </g>
 </g>
 <defs>
  <clipPath id="p019151d2d0">
   <rect height="239.823529" width="558" x="90" y="129.6"/>
  </clipPath>
  <clipPath id="pb111ff7fdc">
   <rect height="239.823529" width="558" x="90" y="417.388235"/>
  </clipPath>
  <clipPath id="p0caa19e9f2">
   <rect height="239.823529" width="558" x="90" y="705.176471"/>
  </clipPath>
 </defs>
</svg>
