<?xml version="1.0" encoding="utf-8" standalone="no"?>
<!DOCTYPE svg PUBLIC "-//W3C//DTD SVG 1.1//EN"
  "http://www.w3.org/Graphics/SVG/1.1/DTD/svg11.dtd">
<!-- Created with matplotlib (https://matplotlib.org/) -->
<svg height="1080pt" version="1.1" viewBox="0 0 720 1080" width="720pt" xmlns="http://www.w3.org/2000/svg" xmlns:xlink="http://www.w3.org/1999/xlink">
 <metadata>
  <rdf:RDF xmlns:cc="http://creativecommons.org/ns#" xmlns:dc="http://purl.org/dc/elements/1.1/" xmlns:rdf="http://www.w3.org/1999/02/22-rdf-syntax-ns#">
   <cc:Work>
    <dc:type rdf:resource="http://purl.org/dc/dcmitype/StillImage"/>
    <dc:date>2021-04-15T17:15:47.192655</dc:date>
    <dc:format>image/svg+xml</dc:format>
    <dc:creator>
     <cc:Agent>
      <dc:title>Matplotlib v3.3.2, https://matplotlib.org/</dc:title>
     </cc:Agent>
    </dc:creator>
   </cc:Work>
  </rdf:RDF>
 </metadata>
 <defs>
  <style type="text/css">*{stroke-linecap:butt;stroke-linejoin:round;}</style>
 </defs>
 <g id="figure_1">
  <g id="patch_1">
   <path d="M 0 1080 
L 720 1080 
L 720 0 
L 0 0 
z
" style="fill:none;"/>
  </g>
  <g id="axes_1">
   <g id="patch_2">
    <path d="M 90 369.423529 
L 648 369.423529 
L 648 129.6 
L 90 129.6 
z
" style="fill:#ffffff;"/>
   </g>
   <g id="matplotlib.axis_1">
    <g id="xtick_1">
     <g id="line2d_1">
      <defs>
       <path d="M 0 0 
L 0 3.5 
" id="m0bfefc37bb" style="stroke:#000000;stroke-width:0.8;"/>
      </defs>
      <g>
       <use style="stroke:#000000;stroke-width:0.8;" x="96.340909" xlink:href="#m0bfefc37bb" y="369.423529"/>
      </g>
     </g>
    </g>
    <g id="xtick_2">
     <g id="line2d_2">
      <g>
       <use style="stroke:#000000;stroke-width:0.8;" x="232.670455" xlink:href="#m0bfefc37bb" y="369.423529"/>
      </g>
     </g>
    </g>
    <g id="xtick_3">
     <g id="line2d_3">
      <g>
       <use style="stroke:#000000;stroke-width:0.8;" x="369" xlink:href="#m0bfefc37bb" y="369.423529"/>
      </g>
     </g>
    </g>
    <g id="xtick_4">
     <g id="line2d_4">
      <g>
       <use style="stroke:#000000;stroke-width:0.8;" x="505.329545" xlink:href="#m0bfefc37bb" y="369.423529"/>
      </g>
     </g>
    </g>
    <g id="xtick_5">
     <g id="line2d_5">
      <g>
       <use style="stroke:#000000;stroke-width:0.8;" x="641.659091" xlink:href="#m0bfefc37bb" y="369.423529"/>
      </g>
     </g>
    </g>
   </g>
   <g id="matplotlib.axis_2">
    <g id="ytick_1">
     <g id="line2d_6">
      <defs>
       <path d="M 0 0 
L -3.5 0 
" id="mc454a5baa2" style="stroke:#000000;stroke-width:0.8;"/>
      </defs>
      <g>
       <use style="stroke:#000000;stroke-width:0.8;" x="90" xlink:href="#mc454a5baa2" y="369.423529"/>
      </g>
     </g>
     <g id="text_1">
      <!-- 0.0 -->
      <g transform="translate(27.339063 382.720795)scale(0.35 -0.35)">
       <defs>
        <path d="M 31.78125 66.40625 
Q 24.171875 66.40625 20.328125 58.90625 
Q 16.5 51.421875 16.5 36.375 
Q 16.5 21.390625 20.328125 13.890625 
Q 24.171875 6.390625 31.78125 6.390625 
Q 39.453125 6.390625 43.28125 13.890625 
Q 47.125 21.390625 47.125 36.375 
Q 47.125 51.421875 43.28125 58.90625 
Q 39.453125 66.40625 31.78125 66.40625 
z
M 31.78125 74.21875 
Q 44.046875 74.21875 50.515625 64.515625 
Q 56.984375 54.828125 56.984375 36.375 
Q 56.984375 17.96875 50.515625 8.265625 
Q 44.046875 -1.421875 31.78125 -1.421875 
Q 19.53125 -1.421875 13.0625 8.265625 
Q 6.59375 17.96875 6.59375 36.375 
Q 6.59375 54.828125 13.0625 64.515625 
Q 19.53125 74.21875 31.78125 74.21875 
z
" id="DejaVuSans-48"/>
        <path d="M 10.6875 12.40625 
L 21 12.40625 
L 21 0 
L 10.6875 0 
z
" id="DejaVuSans-46"/>
       </defs>
       <use xlink:href="#DejaVuSans-48"/>
       <use x="63.623047" xlink:href="#DejaVuSans-46"/>
       <use x="95.410156" xlink:href="#DejaVuSans-48"/>
      </g>
     </g>
    </g>
    <g id="ytick_2">
     <g id="line2d_7">
      <g>
       <use style="stroke:#000000;stroke-width:0.8;" x="90" xlink:href="#mc454a5baa2" y="249.511765"/>
      </g>
     </g>
     <g id="text_2">
      <!-- 0.5 -->
      <g transform="translate(27.339063 262.80903)scale(0.35 -0.35)">
       <defs>
        <path d="M 10.796875 72.90625 
L 49.515625 72.90625 
L 49.515625 64.59375 
L 19.828125 64.59375 
L 19.828125 46.734375 
Q 21.96875 47.46875 24.109375 47.828125 
Q 26.265625 48.1875 28.421875 48.1875 
Q 40.625 48.1875 47.75 41.5 
Q 54.890625 34.8125 54.890625 23.390625 
Q 54.890625 11.625 47.5625 5.09375 
Q 40.234375 -1.421875 26.90625 -1.421875 
Q 22.3125 -1.421875 17.546875 -0.640625 
Q 12.796875 0.140625 7.71875 1.703125 
L 7.71875 11.625 
Q 12.109375 9.234375 16.796875 8.0625 
Q 21.484375 6.890625 26.703125 6.890625 
Q 35.15625 6.890625 40.078125 11.328125 
Q 45.015625 15.765625 45.015625 23.390625 
Q 45.015625 31 40.078125 35.4375 
Q 35.15625 39.890625 26.703125 39.890625 
Q 22.75 39.890625 18.8125 39.015625 
Q 14.890625 38.140625 10.796875 36.28125 
z
" id="DejaVuSans-53"/>
       </defs>
       <use xlink:href="#DejaVuSans-48"/>
       <use x="63.623047" xlink:href="#DejaVuSans-46"/>
       <use x="95.410156" xlink:href="#DejaVuSans-53"/>
      </g>
     </g>
    </g>
    <g id="ytick_3">
     <g id="line2d_8">
      <g>
       <use style="stroke:#000000;stroke-width:0.8;" x="90" xlink:href="#mc454a5baa2" y="129.6"/>
      </g>
     </g>
     <g id="text_3">
      <!-- 1.0 -->
      <g transform="translate(27.339063 142.897266)scale(0.35 -0.35)">
       <defs>
        <path d="M 12.40625 8.296875 
L 28.515625 8.296875 
L 28.515625 63.921875 
L 10.984375 60.40625 
L 10.984375 69.390625 
L 28.421875 72.90625 
L 38.28125 72.90625 
L 38.28125 8.296875 
L 54.390625 8.296875 
L 54.390625 0 
L 12.40625 0 
z
" id="DejaVuSans-49"/>
       </defs>
       <use xlink:href="#DejaVuSans-49"/>
       <use x="63.623047" xlink:href="#DejaVuSans-46"/>
       <use x="95.410156" xlink:href="#DejaVuSans-48"/>
      </g>
     </g>
    </g>
   </g>
   <g id="line2d_9">
    <path clip-path="url(#pf23e7e328a)" d="M 115.363636 161.924391 
L 124.512844 164.17821 
L 133.662051 166.663915 
L 141.79468 169.092468 
L 149.927309 171.752138 
L 158.059938 174.670127 
L 165.175988 177.458632 
L 172.292039 180.490027 
L 179.408089 183.78813 
L 185.507561 186.846539 
L 191.607032 190.135923 
L 197.706504 193.672835 
L 203.805976 197.47267 
L 209.905447 201.549055 
L 216.004919 205.911274 
L 222.104391 210.561952 
L 228.203862 215.49209 
L 235.319913 221.559913 
L 244.46912 229.707708 
L 254.634906 238.717459 
L 258.701221 242.076114 
L 262.767535 245.128375 
L 265.817271 247.122647 
L 268.867007 248.772823 
L 270.900164 249.633254 
L 272.933321 250.262611 
L 274.966478 250.623124 
L 276.999636 250.672923 
L 279.032793 250.366101 
L 281.06595 249.653 
L 283.099107 248.480523 
L 285.132265 246.792994 
L 287.165422 244.533108 
L 289.198579 241.64397 
L 291.231736 238.071653 
L 293.264893 233.76892 
L 295.298051 228.699696 
L 297.331208 222.845755 
L 299.364365 216.2139 
L 301.397522 208.846139 
L 304.447258 196.621217 
L 312.579887 162.334684 
L 314.613044 155.360023 
L 315.629623 152.454501 
L 316.646201 150.03225 
L 317.66278 148.164819 
L 318.679359 146.921049 
L 319.695937 146.365904 
L 320.712516 146.556818 
L 321.729095 147.542328 
L 322.745673 149.35807 
L 323.762252 152.02579 
L 324.77883 155.549178 
L 325.795409 159.913568 
L 326.811988 165.082719 
L 327.828566 170.998877 
L 329.861723 184.73249 
L 332.911459 208.296751 
L 335.961195 231.815879 
L 337.994352 245.331564 
L 339.010931 251.004953 
L 340.02751 255.799617 
L 341.044088 259.626141 
L 342.060667 262.419861 
L 343.077245 264.141998 
L 344.093824 264.779721 
L 345.110403 264.345615 
L 346.126981 262.875635 
L 347.14356 260.427206 
L 348.160138 257.076263 
L 349.176717 252.914256 
L 350.193296 248.044763 
L 352.226453 236.64002 
L 355.276189 217.173004 
L 358.325925 197.690566 
L 360.359082 186.083961 
L 362.392239 176.372749 
L 363.408818 172.394615 
L 364.425396 169.071629 
L 365.441975 166.444722 
L 366.458553 164.545849 
L 367.475132 163.397418 
L 368.491711 163.013177 
L 369.508289 163.397418 
L 370.524868 164.54577 
L 371.541447 166.444827 
L 372.558025 169.07163 
L 373.574604 172.394592 
L 374.591182 176.372856 
L 375.607761 180.95586 
L 377.640918 191.688211 
L 379.674075 204.003786 
L 385.773547 242.580622 
L 387.806704 252.914341 
L 388.823283 257.076365 
L 389.839862 260.427335 
L 390.85644 262.875777 
L 391.873019 264.34576 
L 392.889597 264.779947 
L 393.906176 264.142256 
L 394.922755 262.420137 
L 395.939333 259.626471 
L 396.955912 255.800057 
L 397.97249 251.005465 
L 398.989069 245.332072 
L 401.022226 231.816263 
L 404.071962 208.297339 
L 407.121698 184.73313 
L 409.154855 170.999469 
L 410.171434 165.08327 
L 411.188012 159.914208 
L 412.204591 155.54988 
L 413.22117 152.026306 
L 414.237748 149.358591 
L 415.254327 147.542823 
L 416.270905 146.557315 
L 417.287484 146.366428 
L 418.304063 146.921545 
L 419.320641 148.165259 
L 420.33722 150.032687 
L 421.353799 152.454964 
L 422.370377 155.360457 
L 424.403534 162.335086 
L 426.436692 170.40519 
L 431.519585 192.31011 
L 434.56932 204.911681 
L 436.602478 212.617929 
L 438.635635 219.625516 
L 440.668792 225.871231 
L 442.701949 231.331976 
L 444.735107 236.014357 
L 446.768264 239.94651 
L 448.801421 243.170795 
L 450.834578 245.738321 
L 452.867735 247.704838 
L 454.900893 249.127759 
L 456.93405 250.063667 
L 458.967207 250.567138 
L 461.000364 250.689737 
L 463.033522 250.479101 
L 465.066679 249.979172 
L 467.099836 249.229793 
L 469.132993 248.266944 
L 472.182729 246.491801 
L 475.232465 244.402102 
L 479.298779 241.25992 
L 484.381672 236.962622 
L 492.514301 229.707817 
L 502.680087 220.674932 
L 509.796138 214.651914 
L 515.895609 209.767087 
L 521.995081 205.164237 
L 528.094553 200.850023 
L 534.194024 196.820555 
L 540.293496 193.06549 
L 546.392968 189.57099 
L 552.492439 186.321249 
L 558.591911 183.299756 
L 565.707961 180.041262 
L 572.824012 177.04601 
L 579.940062 174.290274 
L 587.056112 171.752189 
L 595.188741 169.092494 
L 603.32137 166.663915 
L 612.470578 164.178211 
L 621.619785 161.924391 
L 622.636364 161.687089 
L 622.636364 161.687089 
" style="fill:none;stroke:#ff0000;stroke-linecap:square;stroke-width:5;"/>
   </g>
   <g id="patch_3">
    <path d="M 90 369.423529 
L 90 129.6 
" style="fill:none;stroke:#000000;stroke-linecap:square;stroke-linejoin:miter;stroke-width:0.8;"/>
   </g>
   <g id="patch_4">
    <path d="M 648 369.423529 
L 648 129.6 
" style="fill:none;stroke:#000000;stroke-linecap:square;stroke-linejoin:miter;stroke-width:0.8;"/>
   </g>
   <g id="patch_5">
    <path d="M 90 369.423529 
L 648 369.423529 
" style="fill:none;stroke:#000000;stroke-linecap:square;stroke-linejoin:miter;stroke-width:0.8;"/>
   </g>
   <g id="patch_6">
    <path d="M 90 129.6 
L 648 129.6 
" style="fill:none;stroke:#000000;stroke-linecap:square;stroke-linejoin:miter;stroke-width:0.8;"/>
   </g>
  </g>
  <g id="axes_2">
   <g id="patch_7">
    <path d="M 90 657.211765 
L 648 657.211765 
L 648 417.388235 
L 90 417.388235 
z
" style="fill:#ffffff;"/>
   </g>
   <g id="matplotlib.axis_3">
    <g id="xtick_6">
     <g id="line2d_10">
      <g>
       <use style="stroke:#000000;stroke-width:0.8;" x="96.340909" xlink:href="#m0bfefc37bb" y="657.211765"/>
      </g>
     </g>
    </g>
    <g id="xtick_7">
     <g id="line2d_11">
      <g>
       <use style="stroke:#000000;stroke-width:0.8;" x="232.670455" xlink:href="#m0bfefc37bb" y="657.211765"/>
      </g>
     </g>
    </g>
    <g id="xtick_8">
     <g id="line2d_12">
      <g>
       <use style="stroke:#000000;stroke-width:0.8;" x="369" xlink:href="#m0bfefc37bb" y="657.211765"/>
      </g>
     </g>
    </g>
    <g id="xtick_9">
     <g id="line2d_13">
      <g>
       <use style="stroke:#000000;stroke-width:0.8;" x="505.329545" xlink:href="#m0bfefc37bb" y="657.211765"/>
      </g>
     </g>
    </g>
    <g id="xtick_10">
     <g id="line2d_14">
      <g>
       <use style="stroke:#000000;stroke-width:0.8;" x="641.659091" xlink:href="#m0bfefc37bb" y="657.211765"/>
      </g>
     </g>
    </g>
   </g>
   <g id="matplotlib.axis_4">
    <g id="ytick_4">
     <g id="line2d_15">
      <g>
       <use style="stroke:#000000;stroke-width:0.8;" x="90" xlink:href="#mc454a5baa2" y="657.211765"/>
      </g>
     </g>
     <g id="text_4">
      <!-- 0.0 -->
      <g transform="translate(27.339063 670.50903)scale(0.35 -0.35)">
       <use xlink:href="#DejaVuSans-48"/>
       <use x="63.623047" xlink:href="#DejaVuSans-46"/>
       <use x="95.410156" xlink:href="#DejaVuSans-48"/>
      </g>
     </g>
    </g>
    <g id="ytick_5">
     <g id="line2d_16">
      <g>
       <use style="stroke:#000000;stroke-width:0.8;" x="90" xlink:href="#mc454a5baa2" y="537.3"/>
      </g>
     </g>
     <g id="text_5">
      <!-- 0.5 -->
      <g transform="translate(27.339063 550.597266)scale(0.35 -0.35)">
       <use xlink:href="#DejaVuSans-48"/>
       <use x="63.623047" xlink:href="#DejaVuSans-46"/>
       <use x="95.410156" xlink:href="#DejaVuSans-53"/>
      </g>
     </g>
    </g>
    <g id="ytick_6">
     <g id="line2d_17">
      <g>
       <use style="stroke:#000000;stroke-width:0.8;" x="90" xlink:href="#mc454a5baa2" y="417.388235"/>
      </g>
     </g>
     <g id="text_6">
      <!-- 1.0 -->
      <g transform="translate(27.339063 430.685501)scale(0.35 -0.35)">
       <use xlink:href="#DejaVuSans-49"/>
       <use x="63.623047" xlink:href="#DejaVuSans-46"/>
       <use x="95.410156" xlink:href="#DejaVuSans-48"/>
      </g>
     </g>
    </g>
   </g>
   <g id="line2d_18">
    <path clip-path="url(#pd048f63f51)" d="M 115.363636 449.697713 
L 124.512844 451.949401 
L 133.662051 454.432557 
L 141.79468 456.858428 
L 149.927309 459.514989 
L 158.059938 462.429194 
L 165.175988 465.213927 
L 172.292039 468.240971 
L 179.408089 471.533863 
L 185.507561 474.587187 
L 191.607032 477.870717 
L 197.706504 481.400828 
L 203.805976 485.192898 
L 209.905447 489.260223 
L 216.004919 493.61189 
L 222.104391 498.250156 
L 228.203862 503.165765 
L 235.319913 509.213251 
L 244.46912 517.327538 
L 253.618328 525.419548 
L 258.701221 529.618089 
L 262.767535 532.638815 
L 265.817271 534.605162 
L 267.850428 535.728102 
L 269.883585 536.66742 
L 271.916743 537.390334 
L 273.9499 537.860438 
L 275.983057 538.037205 
L 278.016214 537.875944 
L 280.049371 537.327911 
L 282.082529 536.340552 
L 284.115686 534.857755 
L 286.148843 532.82111 
L 288.182 530.171222 
L 290.215158 526.849748 
L 292.248315 522.80252 
L 294.281472 517.983741 
L 296.314629 512.361321 
L 298.347786 505.924043 
L 300.380944 498.69025 
L 302.414101 490.718126 
L 305.463837 477.633338 
L 312.579887 446.102505 
L 314.613044 438.590128 
L 315.629623 435.407922 
L 316.646201 432.707369 
L 317.66278 430.56306 
L 318.679359 429.048052 
L 319.695937 428.230921 
L 320.712516 428.174019 
L 321.729095 428.929969 
L 322.745673 430.539891 
L 323.762252 433.029316 
L 324.77883 436.406738 
L 325.795409 440.660647 
L 326.811988 445.758069 
L 327.828566 451.643 
L 329.861723 465.437093 
L 331.894881 481.150416 
L 335.961195 513.449467 
L 337.994352 527.343995 
L 339.010931 533.180478 
L 340.02751 538.109411 
L 341.044088 542.034052 
L 342.060667 544.883494 
L 343.077245 546.61438 
L 344.093824 547.210883 
L 345.110403 546.683897 
L 346.126981 545.069834 
L 347.14356 542.427643 
L 348.160138 538.83638 
L 349.176717 534.391875 
L 350.193296 529.202984 
L 352.226453 517.072749 
L 355.276189 496.402619 
L 358.325925 475.739491 
L 360.359082 463.437338 
L 362.392239 453.148337 
L 363.408818 448.934299 
L 364.425396 445.414764 
L 365.441975 442.632773 
L 366.458553 440.621815 
L 367.475132 439.405765 
L 368.491711 438.998927 
L 369.508289 439.405874 
L 370.524868 440.621815 
L 371.541447 442.632745 
L 372.558025 445.414683 
L 373.574604 448.934245 
L 374.591182 453.148282 
L 375.607761 458.003653 
L 377.640918 469.376912 
L 379.674075 482.43337 
L 385.773547 523.388316 
L 387.806704 534.391866 
L 388.823283 538.83645 
L 389.839862 542.427633 
L 390.85644 545.069838 
L 391.873019 546.683918 
L 392.889597 547.210849 
L 393.906176 546.614444 
L 394.922755 544.883533 
L 395.939333 542.03398 
L 396.955912 538.109433 
L 397.97249 533.180486 
L 398.989069 527.34391 
L 401.022226 513.449419 
L 404.071962 489.366154 
L 407.121698 465.437099 
L 409.154855 451.642975 
L 410.171434 445.75799 
L 411.188012 440.66073 
L 412.204591 436.406656 
L 413.22117 433.029371 
L 414.237748 430.540086 
L 415.254327 428.929969 
L 416.270905 428.173991 
L 417.287484 428.230949 
L 418.304063 429.047996 
L 419.320641 430.56306 
L 420.33722 432.707424 
L 421.353799 435.407949 
L 422.370377 438.590182 
L 424.403534 446.10261 
L 426.436692 454.675764 
L 434.56932 490.718141 
L 436.602478 498.69022 
L 438.635635 505.924093 
L 440.668792 512.361331 
L 442.701949 517.98372 
L 444.735107 522.80256 
L 446.768264 526.849757 
L 448.801421 530.171224 
L 450.834578 532.821144 
L 452.867735 534.857732 
L 454.900893 536.340566 
L 456.93405 537.327951 
L 458.967207 537.87593 
L 461.000364 538.037191 
L 463.033522 537.860394 
L 465.066679 537.390324 
L 467.099836 536.66742 
L 469.132993 535.728108 
L 472.182729 533.983965 
L 475.232465 531.920868 
L 479.298779 528.808884 
L 484.381672 524.542958 
L 492.514301 517.327522 
L 503.696666 507.454941 
L 510.812716 501.497635 
L 516.912188 496.672503 
L 523.01166 492.129406 
L 529.111131 487.873124 
L 535.210603 483.898876 
L 541.310075 480.195791 
L 547.409546 476.749635 
L 553.509018 473.544625 
L 559.60849 470.564417 
L 566.72454 467.350007 
L 573.84059 464.394582 
L 580.956641 461.674907 
L 589.089269 458.827794 
L 597.221898 456.231313 
L 605.354527 453.859241 
L 614.503735 451.429973 
L 622.636364 449.460643 
L 622.636364 449.460643 
" style="fill:none;stroke:#ff7f0e;stroke-linecap:square;stroke-width:5;"/>
   </g>
   <g id="patch_8">
    <path d="M 90 657.211765 
L 90 417.388235 
" style="fill:none;stroke:#000000;stroke-linecap:square;stroke-linejoin:miter;stroke-width:0.8;"/>
   </g>
   <g id="patch_9">
    <path d="M 648 657.211765 
L 648 417.388235 
" style="fill:none;stroke:#000000;stroke-linecap:square;stroke-linejoin:miter;stroke-width:0.8;"/>
   </g>
   <g id="patch_10">
    <path d="M 90 657.211765 
L 648 657.211765 
" style="fill:none;stroke:#000000;stroke-linecap:square;stroke-linejoin:miter;stroke-width:0.8;"/>
   </g>
   <g id="patch_11">
    <path d="M 90 417.388235 
L 648 417.388235 
" style="fill:none;stroke:#000000;stroke-linecap:square;stroke-linejoin:miter;stroke-width:0.8;"/>
   </g>
  </g>
  <g id="axes_3">
   <g id="patch_12">
    <path d="M 90 945 
L 648 945 
L 648 705.176471 
L 90 705.176471 
z
" style="fill:#ffffff;"/>
   </g>
   <g id="matplotlib.axis_5">
    <g id="xtick_11">
     <g id="line2d_19">
      <g>
       <use style="stroke:#000000;stroke-width:0.8;" x="96.340909" xlink:href="#m0bfefc37bb" y="945"/>
      </g>
     </g>
     <g id="text_7">
      <!-- −2 -->
      <g transform="translate(70.542081 978.594531)scale(0.35 -0.35)">
       <defs>
        <path d="M 10.59375 35.5 
L 73.1875 35.5 
L 73.1875 27.203125 
L 10.59375 27.203125 
z
" id="DejaVuSans-8722"/>
        <path d="M 19.1875 8.296875 
L 53.609375 8.296875 
L 53.609375 0 
L 7.328125 0 
L 7.328125 8.296875 
Q 12.9375 14.109375 22.625 23.890625 
Q 32.328125 33.6875 34.8125 36.53125 
Q 39.546875 41.84375 41.421875 45.53125 
Q 43.3125 49.21875 43.3125 52.78125 
Q 43.3125 58.59375 39.234375 62.25 
Q 35.15625 65.921875 28.609375 65.921875 
Q 23.96875 65.921875 18.8125 64.3125 
Q 13.671875 62.703125 7.8125 59.421875 
L 7.8125 69.390625 
Q 13.765625 71.78125 18.9375 73 
Q 24.125 74.21875 28.421875 74.21875 
Q 39.75 74.21875 46.484375 68.546875 
Q 53.21875 62.890625 53.21875 53.421875 
Q 53.21875 48.921875 51.53125 44.890625 
Q 49.859375 40.875 45.40625 35.40625 
Q 44.1875 33.984375 37.640625 27.21875 
Q 31.109375 20.453125 19.1875 8.296875 
z
" id="DejaVuSans-50"/>
       </defs>
       <use xlink:href="#DejaVuSans-8722"/>
       <use x="83.789062" xlink:href="#DejaVuSans-50"/>
      </g>
     </g>
    </g>
    <g id="xtick_12">
     <g id="line2d_20">
      <g>
       <use style="stroke:#000000;stroke-width:0.8;" x="232.670455" xlink:href="#m0bfefc37bb" y="945"/>
      </g>
     </g>
     <g id="text_8">
      <!-- −1 -->
      <g transform="translate(206.871626 978.594531)scale(0.35 -0.35)">
       <use xlink:href="#DejaVuSans-8722"/>
       <use x="83.789062" xlink:href="#DejaVuSans-49"/>
      </g>
     </g>
    </g>
    <g id="xtick_13">
     <g id="line2d_21">
      <g>
       <use style="stroke:#000000;stroke-width:0.8;" x="369" xlink:href="#m0bfefc37bb" y="945"/>
      </g>
     </g>
     <g id="text_9">
      <!-- 0 -->
      <g transform="translate(357.865625 978.594531)scale(0.35 -0.35)">
       <use xlink:href="#DejaVuSans-48"/>
      </g>
     </g>
    </g>
    <g id="xtick_14">
     <g id="line2d_22">
      <g>
       <use style="stroke:#000000;stroke-width:0.8;" x="505.329545" xlink:href="#m0bfefc37bb" y="945"/>
      </g>
     </g>
     <g id="text_10">
      <!-- 1 -->
      <g transform="translate(494.19517 978.594531)scale(0.35 -0.35)">
       <use xlink:href="#DejaVuSans-49"/>
      </g>
     </g>
    </g>
    <g id="xtick_15">
     <g id="line2d_23">
      <g>
       <use style="stroke:#000000;stroke-width:0.8;" x="641.659091" xlink:href="#m0bfefc37bb" y="945"/>
      </g>
     </g>
     <g id="text_11">
      <!-- 2 -->
      <g transform="translate(630.524716 978.594531)scale(0.35 -0.35)">
       <use xlink:href="#DejaVuSans-50"/>
      </g>
     </g>
    </g>
   </g>
   <g id="matplotlib.axis_6">
    <g id="ytick_7">
     <g id="line2d_24">
      <g>
       <use style="stroke:#000000;stroke-width:0.8;" x="90" xlink:href="#mc454a5baa2" y="945"/>
      </g>
     </g>
     <g id="text_12">
      <!-- 0.0 -->
      <g transform="translate(27.339063 958.297266)scale(0.35 -0.35)">
       <use xlink:href="#DejaVuSans-48"/>
       <use x="63.623047" xlink:href="#DejaVuSans-46"/>
       <use x="95.410156" xlink:href="#DejaVuSans-48"/>
      </g>
     </g>
    </g>
    <g id="ytick_8">
     <g id="line2d_25">
      <g>
       <use style="stroke:#000000;stroke-width:0.8;" x="90" xlink:href="#mc454a5baa2" y="825.088235"/>
      </g>
     </g>
     <g id="text_13">
      <!-- 0.5 -->
      <g transform="translate(27.339063 838.385501)scale(0.35 -0.35)">
       <use xlink:href="#DejaVuSans-48"/>
       <use x="63.623047" xlink:href="#DejaVuSans-46"/>
       <use x="95.410156" xlink:href="#DejaVuSans-53"/>
      </g>
     </g>
    </g>
    <g id="ytick_9">
     <g id="line2d_26">
      <g>
       <use style="stroke:#000000;stroke-width:0.8;" x="90" xlink:href="#mc454a5baa2" y="705.176471"/>
      </g>
     </g>
     <g id="text_14">
      <!-- 1.0 -->
      <g transform="translate(27.339063 718.473736)scale(0.35 -0.35)">
       <use xlink:href="#DejaVuSans-49"/>
       <use x="63.623047" xlink:href="#DejaVuSans-46"/>
       <use x="95.410156" xlink:href="#DejaVuSans-48"/>
      </g>
     </g>
    </g>
   </g>
   <g id="line2d_27">
    <path clip-path="url(#pd5972ba983)" d="M 115.363636 737.466126 
L 124.512844 739.714912 
L 133.662051 742.194626 
L 141.79468 744.616933 
L 149.927309 747.26933 
L 158.059938 750.17856 
L 165.175988 752.958213 
L 172.292039 755.979318 
L 179.408089 759.265386 
L 185.507561 762.311898 
L 191.607032 765.587575 
L 197.706504 769.108613 
L 203.805976 772.890184 
L 209.905447 776.945338 
L 216.004919 781.282876 
L 222.104391 785.904563 
L 228.203862 790.800649 
L 235.319913 796.820679 
L 244.46912 804.890077 
L 253.618328 812.921381 
L 258.701221 817.076058 
L 261.750956 819.347666 
L 264.800692 821.374953 
L 267.850428 823.077518 
L 269.883585 823.98512 
L 271.916743 824.672567 
L 273.9499 825.102601 
L 275.983057 825.233893 
L 278.016214 825.020726 
L 280.049371 824.413007 
L 282.082529 823.356488 
L 284.115686 821.79326 
L 286.148843 819.662415 
L 288.182 816.901725 
L 290.215158 813.449398 
L 292.248315 809.247107 
L 294.281472 804.244261 
L 296.314629 798.403186 
L 298.347786 791.706331 
L 300.380944 784.165169 
L 302.414101 775.830629 
L 305.463837 762.084266 
L 312.579887 728.395773 
L 314.613044 720.126354 
L 315.629623 716.551983 
L 316.646201 713.454858 
L 317.66278 710.914144 
L 318.679359 709.007626 
L 319.695937 707.81001 
L 320.712516 707.389577 
L 321.729095 707.805463 
L 322.745673 709.105611 
L 323.762252 711.322036 
L 324.77883 714.469527 
L 325.795409 718.542093 
L 326.811988 723.511135 
L 327.828566 729.324345 
L 329.861723 743.147673 
L 331.894881 759.108033 
L 335.961195 792.339193 
L 337.994352 806.744562 
L 339.010931 812.803043 
L 340.02751 817.915098 
L 341.044088 821.973271 
L 342.060667 824.897746 
L 343.077245 826.637884 
L 344.093824 827.173126 
L 345.110403 826.512089 
L 346.126981 824.690996 
L 347.14356 821.771068 
L 348.160138 817.835567 
L 349.176717 812.986216 
L 350.193296 807.339368 
L 352.226453 794.168643 
L 355.276189 771.771043 
L 358.325925 749.411471 
L 360.359082 736.109888 
L 362.392239 724.989865 
L 363.408818 720.436873 
L 364.425396 716.634793 
L 365.441975 713.630038 
L 366.458553 711.45806 
L 367.475132 710.144783 
L 368.491711 709.705285 
L 369.508289 710.144811 
L 370.524868 711.458117 
L 371.541447 713.629926 
L 372.558025 716.63482 
L 373.574604 720.436954 
L 374.591182 724.989887 
L 375.607761 730.236696 
L 377.640918 742.530987 
L 379.674075 756.65236 
L 385.773547 801.022054 
L 387.806704 812.986125 
L 388.823283 817.835433 
L 389.839862 821.770873 
L 390.85644 824.690813 
L 391.873019 826.511899 
L 392.889597 827.172908 
L 393.906176 826.637612 
L 394.922755 824.897527 
L 395.939333 821.973042 
L 396.955912 817.914802 
L 397.97249 812.802622 
L 398.989069 806.74423 
L 401.022226 792.338848 
L 404.071962 767.515247 
L 407.121698 743.14713 
L 409.154855 729.32386 
L 410.171434 723.51067 
L 411.188012 718.541455 
L 412.204591 714.468882 
L 413.22117 711.321415 
L 414.237748 709.105129 
L 415.254327 707.805121 
L 416.270905 707.388979 
L 417.287484 707.809555 
L 418.304063 709.007229 
L 419.320641 710.913607 
L 420.33722 713.454549 
L 421.353799 716.551732 
L 423.386956 724.099418 
L 425.420113 732.942025 
L 429.486427 752.362803 
L 432.536163 766.80576 
L 435.585899 780.091863 
L 437.619056 788.038949 
L 439.652214 795.161667 
L 441.685371 801.430073 
L 443.718528 806.848405 
L 445.751685 811.445249 
L 447.784842 815.265711 
L 449.818 818.364633 
L 451.851157 820.802619 
L 453.884314 822.641888 
L 455.917471 823.944304 
L 457.950629 824.769425 
L 459.983786 825.173324 
L 462.016943 825.208329 
L 464.0501 824.922144 
L 466.083257 824.358527 
L 468.116415 823.556612 
L 470.149572 822.551632 
L 473.199308 820.730952 
L 476.249044 818.614053 
L 480.315358 815.459084 
L 485.398251 811.174816 
L 495.564037 802.176885 
L 504.713245 794.204288 
L 511.829295 788.319559 
L 517.928767 783.558489 
L 524.028238 779.078476 
L 530.12771 774.882885 
L 536.227182 770.965968 
L 542.326653 767.316424 
L 548.426125 763.920042 
L 554.525597 760.761007 
L 560.625068 757.823037 
L 567.741119 754.653545 
L 574.857169 751.738714 
L 581.973219 749.055657 
L 590.105848 746.246062 
L 598.238477 743.68296 
L 606.371106 741.340606 
L 615.520313 738.941046 
L 622.636364 737.229367 
L 622.636364 737.229367 
" style="fill:none;stroke:#0000ff;stroke-linecap:square;stroke-width:5;"/>
   </g>
   <g id="patch_13">
    <path d="M 90 945 
L 90 705.176471 
" style="fill:none;stroke:#000000;stroke-linecap:square;stroke-linejoin:miter;stroke-width:0.8;"/>
   </g>
   <g id="patch_14">
    <path d="M 648 945 
L 648 705.176471 
" style="fill:none;stroke:#000000;stroke-linecap:square;stroke-linejoin:miter;stroke-width:0.8;"/>
   </g>
   <g id="patch_15">
    <path d="M 90 945 
L 648 945 
" style="fill:none;stroke:#000000;stroke-linecap:square;stroke-linejoin:miter;stroke-width:0.8;"/>
   </g>
   <g id="patch_16">
    <path d="M 90 705.176471 
L 648 705.176471 
" style="fill:none;stroke:#000000;stroke-linecap:square;stroke-linejoin:miter;stroke-width:0.8;"/>
   </g>
  </g>
  <g id="axes_4">
   <g id="matplotlib.axis_7">
    <g id="xtick_16">
     <g id="text_15">
      <!-- 0.0 -->
      <g style="opacity:0;" transform="translate(62.169531 978.594531)scale(0.35 -0.35)">
       <use xlink:href="#DejaVuSans-48"/>
       <use x="63.623047" xlink:href="#DejaVuSans-46"/>
       <use x="95.410156" xlink:href="#DejaVuSans-48"/>
      </g>
     </g>
    </g>
    <g id="xtick_17">
     <g id="text_16">
      <!-- 0.2 -->
      <g style="opacity:0;" transform="translate(173.769531 978.594531)scale(0.35 -0.35)">
       <use xlink:href="#DejaVuSans-48"/>
       <use x="63.623047" xlink:href="#DejaVuSans-46"/>
       <use x="95.410156" xlink:href="#DejaVuSans-50"/>
      </g>
     </g>
    </g>
    <g id="xtick_18">
     <g id="text_17">
      <!-- 0.4 -->
      <g style="opacity:0;" transform="translate(285.369531 978.594531)scale(0.35 -0.35)">
       <defs>
        <path d="M 37.796875 64.3125 
L 12.890625 25.390625 
L 37.796875 25.390625 
z
M 35.203125 72.90625 
L 47.609375 72.90625 
L 47.609375 25.390625 
L 58.015625 25.390625 
L 58.015625 17.1875 
L 47.609375 17.1875 
L 47.609375 0 
L 37.796875 0 
L 37.796875 17.1875 
L 4.890625 17.1875 
L 4.890625 26.703125 
z
" id="DejaVuSans-52"/>
       </defs>
       <use xlink:href="#DejaVuSans-48"/>
       <use x="63.623047" xlink:href="#DejaVuSans-46"/>
       <use x="95.410156" xlink:href="#DejaVuSans-52"/>
      </g>
     </g>
    </g>
    <g id="xtick_19">
     <g id="text_18">
      <!-- 0.6 -->
      <g style="opacity:0;" transform="translate(396.969531 978.594531)scale(0.35 -0.35)">
       <defs>
        <path d="M 33.015625 40.375 
Q 26.375 40.375 22.484375 35.828125 
Q 18.609375 31.296875 18.609375 23.390625 
Q 18.609375 15.53125 22.484375 10.953125 
Q 26.375 6.390625 33.015625 6.390625 
Q 39.65625 6.390625 43.53125 10.953125 
Q 47.40625 15.53125 47.40625 23.390625 
Q 47.40625 31.296875 43.53125 35.828125 
Q 39.65625 40.375 33.015625 40.375 
z
M 52.59375 71.296875 
L 52.59375 62.3125 
Q 48.875 64.0625 45.09375 64.984375 
Q 41.3125 65.921875 37.59375 65.921875 
Q 27.828125 65.921875 22.671875 59.328125 
Q 17.53125 52.734375 16.796875 39.40625 
Q 19.671875 43.65625 24.015625 45.921875 
Q 28.375 48.1875 33.59375 48.1875 
Q 44.578125 48.1875 50.953125 41.515625 
Q 57.328125 34.859375 57.328125 23.390625 
Q 57.328125 12.15625 50.6875 5.359375 
Q 44.046875 -1.421875 33.015625 -1.421875 
Q 20.359375 -1.421875 13.671875 8.265625 
Q 6.984375 17.96875 6.984375 36.375 
Q 6.984375 53.65625 15.1875 63.9375 
Q 23.390625 74.21875 37.203125 74.21875 
Q 40.921875 74.21875 44.703125 73.484375 
Q 48.484375 72.75 52.59375 71.296875 
z
" id="DejaVuSans-54"/>
       </defs>
       <use xlink:href="#DejaVuSans-48"/>
       <use x="63.623047" xlink:href="#DejaVuSans-46"/>
       <use x="95.410156" xlink:href="#DejaVuSans-54"/>
      </g>
     </g>
    </g>
    <g id="xtick_20">
     <g id="text_19">
      <!-- 0.8 -->
      <g style="opacity:0;" transform="translate(508.569531 978.594531)scale(0.35 -0.35)">
       <defs>
        <path d="M 31.78125 34.625 
Q 24.75 34.625 20.71875 30.859375 
Q 16.703125 27.09375 16.703125 20.515625 
Q 16.703125 13.921875 20.71875 10.15625 
Q 24.75 6.390625 31.78125 6.390625 
Q 38.8125 6.390625 42.859375 10.171875 
Q 46.921875 13.96875 46.921875 20.515625 
Q 46.921875 27.09375 42.890625 30.859375 
Q 38.875 34.625 31.78125 34.625 
z
M 21.921875 38.8125 
Q 15.578125 40.375 12.03125 44.71875 
Q 8.5 49.078125 8.5 55.328125 
Q 8.5 64.0625 14.71875 69.140625 
Q 20.953125 74.21875 31.78125 74.21875 
Q 42.671875 74.21875 48.875 69.140625 
Q 55.078125 64.0625 55.078125 55.328125 
Q 55.078125 49.078125 51.53125 44.71875 
Q 48 40.375 41.703125 38.8125 
Q 48.828125 37.15625 52.796875 32.3125 
Q 56.78125 27.484375 56.78125 20.515625 
Q 56.78125 9.90625 50.3125 4.234375 
Q 43.84375 -1.421875 31.78125 -1.421875 
Q 19.734375 -1.421875 13.25 4.234375 
Q 6.78125 9.90625 6.78125 20.515625 
Q 6.78125 27.484375 10.78125 32.3125 
Q 14.796875 37.15625 21.921875 38.8125 
z
M 18.3125 54.390625 
Q 18.3125 48.734375 21.84375 45.5625 
Q 25.390625 42.390625 31.78125 42.390625 
Q 38.140625 42.390625 41.71875 45.5625 
Q 45.3125 48.734375 45.3125 54.390625 
Q 45.3125 60.0625 41.71875 63.234375 
Q 38.140625 66.40625 31.78125 66.40625 
Q 25.390625 66.40625 21.84375 63.234375 
Q 18.3125 60.0625 18.3125 54.390625 
z
" id="DejaVuSans-56"/>
       </defs>
       <use xlink:href="#DejaVuSans-48"/>
       <use x="63.623047" xlink:href="#DejaVuSans-46"/>
       <use x="95.410156" xlink:href="#DejaVuSans-56"/>
      </g>
     </g>
    </g>
    <g id="xtick_21">
     <g id="text_20">
      <!-- 1.0 -->
      <g style="opacity:0;" transform="translate(620.169531 978.594531)scale(0.35 -0.35)">
       <use xlink:href="#DejaVuSans-49"/>
       <use x="63.623047" xlink:href="#DejaVuSans-46"/>
       <use x="95.410156" xlink:href="#DejaVuSans-48"/>
      </g>
     </g>
    </g>
    <g id="text_21">
     <!-- $(\omega-\omega_{c})$ / $\kappa$ -->
     <g transform="translate(269.775 1016.467969)scale(0.35 -0.35)">
      <defs>
       <path d="M 31 75.875 
Q 24.46875 64.65625 21.28125 53.65625 
Q 18.109375 42.671875 18.109375 31.390625 
Q 18.109375 20.125 21.3125 9.0625 
Q 24.515625 -2 31 -13.1875 
L 23.1875 -13.1875 
Q 15.875 -1.703125 12.234375 9.375 
Q 8.59375 20.453125 8.59375 31.390625 
Q 8.59375 42.28125 12.203125 53.3125 
Q 15.828125 64.359375 23.1875 75.875 
z
" id="DejaVuSans-40"/>
       <path d="M 26.859375 -1.421875 
Q 6.59375 -1.421875 6.59375 27.59375 
Q 6.59375 39.0625 14.15625 54.6875 
L 23.828125 54.6875 
Q 16.84375 39.0625 16.84375 27.34375 
Q 16.84375 6.203125 27.6875 6.203125 
Q 37.59375 6.203125 37.59375 32.46875 
L 45.90625 32.46875 
Q 45.90625 6.203125 55.8125 6.203125 
Q 66.65625 6.203125 66.65625 27.34375 
Q 66.65625 39.0625 59.671875 54.6875 
L 69.34375 54.6875 
Q 76.90625 39.0625 76.90625 27.59375 
Q 76.90625 -1.421875 56.640625 -1.421875 
Q 43.359375 -1.421875 41.75 13.1875 
Q 39.75 -1.421875 26.859375 -1.421875 
z
" id="DejaVuSans-969"/>
       <path d="M 48.78125 52.59375 
L 48.78125 44.1875 
Q 44.96875 46.296875 41.140625 47.34375 
Q 37.3125 48.390625 33.40625 48.390625 
Q 24.65625 48.390625 19.8125 42.84375 
Q 14.984375 37.3125 14.984375 27.296875 
Q 14.984375 17.28125 19.8125 11.734375 
Q 24.65625 6.203125 33.40625 6.203125 
Q 37.3125 6.203125 41.140625 7.25 
Q 44.96875 8.296875 48.78125 10.40625 
L 48.78125 2.09375 
Q 45.015625 0.34375 40.984375 -0.53125 
Q 36.96875 -1.421875 32.421875 -1.421875 
Q 20.0625 -1.421875 12.78125 6.34375 
Q 5.515625 14.109375 5.515625 27.296875 
Q 5.515625 40.671875 12.859375 48.328125 
Q 20.21875 56 33.015625 56 
Q 37.15625 56 41.109375 55.140625 
Q 45.0625 54.296875 48.78125 52.59375 
z
" id="DejaVuSans-99"/>
       <path d="M 8.015625 75.875 
L 15.828125 75.875 
Q 23.140625 64.359375 26.78125 53.3125 
Q 30.421875 42.28125 30.421875 31.390625 
Q 30.421875 20.453125 26.78125 9.375 
Q 23.140625 -1.703125 15.828125 -13.1875 
L 8.015625 -13.1875 
Q 14.5 -2 17.703125 9.0625 
Q 20.90625 20.125 20.90625 31.390625 
Q 20.90625 42.671875 17.703125 53.65625 
Q 14.5 64.65625 8.015625 75.875 
z
" id="DejaVuSans-41"/>
       <path id="DejaVuSans-32"/>
       <path d="M 25.390625 72.90625 
L 33.6875 72.90625 
L 8.296875 -9.28125 
L 0 -9.28125 
z
" id="DejaVuSans-47"/>
       <path d="M 9.328125 54.6875 
L 18.609375 54.6875 
L 18.609375 31.984375 
L 42.1875 54.6875 
L 53.125 54.6875 
L 31.59375 34.078125 
L 56.5 0 
L 45.515625 0 
L 25.296875 28.21875 
L 18.609375 21.921875 
L 18.609375 0 
L 9.328125 0 
z
" id="DejaVuSans-954"/>
      </defs>
      <use transform="translate(0 0.125)" xlink:href="#DejaVuSans-40"/>
      <use transform="translate(39.013672 0.125)" xlink:href="#DejaVuSans-969"/>
      <use transform="translate(142.236328 0.125)" xlink:href="#DejaVuSans-8722"/>
      <use transform="translate(245.507812 0.125)" xlink:href="#DejaVuSans-969"/>
      <use transform="translate(330.205078 -16.28125)scale(0.7)" xlink:href="#DejaVuSans-99"/>
      <use transform="translate(371.425781 0.125)" xlink:href="#DejaVuSans-41"/>
      <use transform="translate(410.439453 0.125)" xlink:href="#DejaVuSans-32"/>
      <use transform="translate(442.226562 0.125)" xlink:href="#DejaVuSans-47"/>
      <use transform="translate(475.917969 0.125)" xlink:href="#DejaVuSans-32"/>
      <use transform="translate(507.705078 0.125)" xlink:href="#DejaVuSans-954"/>
     </g>
    </g>
   </g>
   <g id="matplotlib.axis_8">
    <g id="ytick_10">
     <g id="text_22">
      <!-- 0.0 -->
      <g style="opacity:0;" transform="translate(27.339063 958.297266)scale(0.35 -0.35)">
       <use xlink:href="#DejaVuSans-48"/>
       <use x="63.623047" xlink:href="#DejaVuSans-46"/>
       <use x="95.410156" xlink:href="#DejaVuSans-48"/>
      </g>
     </g>
    </g>
    <g id="ytick_11">
     <g id="text_23">
      <!-- 0.2 -->
      <g style="opacity:0;" transform="translate(27.339063 795.217266)scale(0.35 -0.35)">
       <use xlink:href="#DejaVuSans-48"/>
       <use x="63.623047" xlink:href="#DejaVuSans-46"/>
       <use x="95.410156" xlink:href="#DejaVuSans-50"/>
      </g>
     </g>
    </g>
    <g id="ytick_12">
     <g id="text_24">
      <!-- 0.4 -->
      <g style="opacity:0;" transform="translate(27.339063 632.137266)scale(0.35 -0.35)">
       <use xlink:href="#DejaVuSans-48"/>
       <use x="63.623047" xlink:href="#DejaVuSans-46"/>
       <use x="95.410156" xlink:href="#DejaVuSans-52"/>
      </g>
     </g>
    </g>
    <g id="ytick_13">
     <g id="text_25">
      <!-- 0.6 -->
      <g style="opacity:0;" transform="translate(27.339063 469.057266)scale(0.35 -0.35)">
       <use xlink:href="#DejaVuSans-48"/>
       <use x="63.623047" xlink:href="#DejaVuSans-46"/>
       <use x="95.410156" xlink:href="#DejaVuSans-54"/>
      </g>
     </g>
    </g>
    <g id="ytick_14">
     <g id="text_26">
      <!-- 0.8 -->
      <g style="opacity:0;" transform="translate(27.339063 305.977266)scale(0.35 -0.35)">
       <use xlink:href="#DejaVuSans-48"/>
       <use x="63.623047" xlink:href="#DejaVuSans-46"/>
       <use x="95.410156" xlink:href="#DejaVuSans-56"/>
      </g>
     </g>
    </g>
    <g id="ytick_15">
     <g id="text_27">
      <!-- 1.0 -->
      <g style="opacity:0;" transform="translate(27.339063 142.897266)scale(0.35 -0.35)">
       <use xlink:href="#DejaVuSans-49"/>
       <use x="63.623047" xlink:href="#DejaVuSans-46"/>
       <use x="95.410156" xlink:href="#DejaVuSans-48"/>
      </g>
     </g>
    </g>
    <g id="text_28">
     <!-- Transmission -->
     <g transform="translate(16.060156 650.333594)rotate(-90)scale(0.35 -0.35)">
      <defs>
       <path d="M -0.296875 72.90625 
L 61.375 72.90625 
L 61.375 64.59375 
L 35.5 64.59375 
L 35.5 0 
L 25.59375 0 
L 25.59375 64.59375 
L -0.296875 64.59375 
z
" id="DejaVuSans-84"/>
       <path d="M 41.109375 46.296875 
Q 39.59375 47.171875 37.8125 47.578125 
Q 36.03125 48 33.890625 48 
Q 26.265625 48 22.1875 43.046875 
Q 18.109375 38.09375 18.109375 28.8125 
L 18.109375 0 
L 9.078125 0 
L 9.078125 54.6875 
L 18.109375 54.6875 
L 18.109375 46.1875 
Q 20.953125 51.171875 25.484375 53.578125 
Q 30.03125 56 36.53125 56 
Q 37.453125 56 38.578125 55.875 
Q 39.703125 55.765625 41.0625 55.515625 
z
" id="DejaVuSans-114"/>
       <path d="M 34.28125 27.484375 
Q 23.390625 27.484375 19.1875 25 
Q 14.984375 22.515625 14.984375 16.5 
Q 14.984375 11.71875 18.140625 8.90625 
Q 21.296875 6.109375 26.703125 6.109375 
Q 34.1875 6.109375 38.703125 11.40625 
Q 43.21875 16.703125 43.21875 25.484375 
L 43.21875 27.484375 
z
M 52.203125 31.203125 
L 52.203125 0 
L 43.21875 0 
L 43.21875 8.296875 
Q 40.140625 3.328125 35.546875 0.953125 
Q 30.953125 -1.421875 24.3125 -1.421875 
Q 15.921875 -1.421875 10.953125 3.296875 
Q 6 8.015625 6 15.921875 
Q 6 25.140625 12.171875 29.828125 
Q 18.359375 34.515625 30.609375 34.515625 
L 43.21875 34.515625 
L 43.21875 35.40625 
Q 43.21875 41.609375 39.140625 45 
Q 35.0625 48.390625 27.6875 48.390625 
Q 23 48.390625 18.546875 47.265625 
Q 14.109375 46.140625 10.015625 43.890625 
L 10.015625 52.203125 
Q 14.9375 54.109375 19.578125 55.046875 
Q 24.21875 56 28.609375 56 
Q 40.484375 56 46.34375 49.84375 
Q 52.203125 43.703125 52.203125 31.203125 
z
" id="DejaVuSans-97"/>
       <path d="M 54.890625 33.015625 
L 54.890625 0 
L 45.90625 0 
L 45.90625 32.71875 
Q 45.90625 40.484375 42.875 44.328125 
Q 39.84375 48.1875 33.796875 48.1875 
Q 26.515625 48.1875 22.3125 43.546875 
Q 18.109375 38.921875 18.109375 30.90625 
L 18.109375 0 
L 9.078125 0 
L 9.078125 54.6875 
L 18.109375 54.6875 
L 18.109375 46.1875 
Q 21.34375 51.125 25.703125 53.5625 
Q 30.078125 56 35.796875 56 
Q 45.21875 56 50.046875 50.171875 
Q 54.890625 44.34375 54.890625 33.015625 
z
" id="DejaVuSans-110"/>
       <path d="M 44.28125 53.078125 
L 44.28125 44.578125 
Q 40.484375 46.53125 36.375 47.5 
Q 32.28125 48.484375 27.875 48.484375 
Q 21.1875 48.484375 17.84375 46.4375 
Q 14.5 44.390625 14.5 40.28125 
Q 14.5 37.15625 16.890625 35.375 
Q 19.28125 33.59375 26.515625 31.984375 
L 29.59375 31.296875 
Q 39.15625 29.25 43.1875 25.515625 
Q 47.21875 21.78125 47.21875 15.09375 
Q 47.21875 7.46875 41.1875 3.015625 
Q 35.15625 -1.421875 24.609375 -1.421875 
Q 20.21875 -1.421875 15.453125 -0.5625 
Q 10.6875 0.296875 5.421875 2 
L 5.421875 11.28125 
Q 10.40625 8.6875 15.234375 7.390625 
Q 20.0625 6.109375 24.8125 6.109375 
Q 31.15625 6.109375 34.5625 8.28125 
Q 37.984375 10.453125 37.984375 14.40625 
Q 37.984375 18.0625 35.515625 20.015625 
Q 33.0625 21.96875 24.703125 23.78125 
L 21.578125 24.515625 
Q 13.234375 26.265625 9.515625 29.90625 
Q 5.8125 33.546875 5.8125 39.890625 
Q 5.8125 47.609375 11.28125 51.796875 
Q 16.75 56 26.8125 56 
Q 31.78125 56 36.171875 55.265625 
Q 40.578125 54.546875 44.28125 53.078125 
z
" id="DejaVuSans-115"/>
       <path d="M 52 44.1875 
Q 55.375 50.25 60.0625 53.125 
Q 64.75 56 71.09375 56 
Q 79.640625 56 84.28125 50.015625 
Q 88.921875 44.046875 88.921875 33.015625 
L 88.921875 0 
L 79.890625 0 
L 79.890625 32.71875 
Q 79.890625 40.578125 77.09375 44.375 
Q 74.3125 48.1875 68.609375 48.1875 
Q 61.625 48.1875 57.5625 43.546875 
Q 53.515625 38.921875 53.515625 30.90625 
L 53.515625 0 
L 44.484375 0 
L 44.484375 32.71875 
Q 44.484375 40.625 41.703125 44.40625 
Q 38.921875 48.1875 33.109375 48.1875 
Q 26.21875 48.1875 22.15625 43.53125 
Q 18.109375 38.875 18.109375 30.90625 
L 18.109375 0 
L 9.078125 0 
L 9.078125 54.6875 
L 18.109375 54.6875 
L 18.109375 46.1875 
Q 21.1875 51.21875 25.484375 53.609375 
Q 29.78125 56 35.6875 56 
Q 41.65625 56 45.828125 52.96875 
Q 50 49.953125 52 44.1875 
z
" id="DejaVuSans-109"/>
       <path d="M 9.421875 54.6875 
L 18.40625 54.6875 
L 18.40625 0 
L 9.421875 0 
z
M 9.421875 75.984375 
L 18.40625 75.984375 
L 18.40625 64.59375 
L 9.421875 64.59375 
z
" id="DejaVuSans-105"/>
       <path d="M 30.609375 48.390625 
Q 23.390625 48.390625 19.1875 42.75 
Q 14.984375 37.109375 14.984375 27.296875 
Q 14.984375 17.484375 19.15625 11.84375 
Q 23.34375 6.203125 30.609375 6.203125 
Q 37.796875 6.203125 41.984375 11.859375 
Q 46.1875 17.53125 46.1875 27.296875 
Q 46.1875 37.015625 41.984375 42.703125 
Q 37.796875 48.390625 30.609375 48.390625 
z
M 30.609375 56 
Q 42.328125 56 49.015625 48.375 
Q 55.71875 40.765625 55.71875 27.296875 
Q 55.71875 13.875 49.015625 6.21875 
Q 42.328125 -1.421875 30.609375 -1.421875 
Q 18.84375 -1.421875 12.171875 6.21875 
Q 5.515625 13.875 5.515625 27.296875 
Q 5.515625 40.765625 12.171875 48.375 
Q 18.84375 56 30.609375 56 
z
" id="DejaVuSans-111"/>
      </defs>
      <use xlink:href="#DejaVuSans-84"/>
      <use x="46.333984" xlink:href="#DejaVuSans-114"/>
      <use x="87.447266" xlink:href="#DejaVuSans-97"/>
      <use x="148.726562" xlink:href="#DejaVuSans-110"/>
      <use x="212.105469" xlink:href="#DejaVuSans-115"/>
      <use x="264.205078" xlink:href="#DejaVuSans-109"/>
      <use x="361.617188" xlink:href="#DejaVuSans-105"/>
      <use x="389.400391" xlink:href="#DejaVuSans-115"/>
      <use x="441.5" xlink:href="#DejaVuSans-115"/>
      <use x="493.599609" xlink:href="#DejaVuSans-105"/>
      <use x="521.382812" xlink:href="#DejaVuSans-111"/>
      <use x="582.564453" xlink:href="#DejaVuSans-110"/>
     </g>
    </g>
   </g>
  </g>
 </g>
 <defs>
  <clipPath id="pf23e7e328a">
   <rect height="239.823529" width="558" x="90" y="129.6"/>
  </clipPath>
  <clipPath id="pd048f63f51">
   <rect height="239.823529" width="558" x="90" y="417.388235"/>
  </clipPath>
  <clipPath id="pd5972ba983">
   <rect height="239.823529" width="558" x="90" y="705.176471"/>
  </clipPath>
 </defs>
</svg>
