<?xml version="1.0" encoding="utf-8" standalone="no"?>
<!DOCTYPE svg PUBLIC "-//W3C//DTD SVG 1.1//EN"
  "http://www.w3.org/Graphics/SVG/1.1/DTD/svg11.dtd">
<!-- Created with matplotlib (https://matplotlib.org/) -->
<svg height="1080pt" version="1.1" viewBox="0 0 720 1080" width="720pt" xmlns="http://www.w3.org/2000/svg" xmlns:xlink="http://www.w3.org/1999/xlink">
 <metadata>
  <rdf:RDF xmlns:cc="http://creativecommons.org/ns#" xmlns:dc="http://purl.org/dc/elements/1.1/" xmlns:rdf="http://www.w3.org/1999/02/22-rdf-syntax-ns#">
   <cc:Work>
    <dc:type rdf:resource="http://purl.org/dc/dcmitype/StillImage"/>
    <dc:date>2021-04-15T17:30:45.142327</dc:date>
    <dc:format>image/svg+xml</dc:format>
    <dc:creator>
     <cc:Agent>
      <dc:title>Matplotlib v3.3.2, https://matplotlib.org/</dc:title>
     </cc:Agent>
    </dc:creator>
   </cc:Work>
  </rdf:RDF>
 </metadata>
 <defs>
  <style type="text/css">*{stroke-linecap:butt;stroke-linejoin:round;}</style>
 </defs>
 <g id="figure_1">
  <g id="patch_1">
   <path d="M 0 1080 
L 720 1080 
L 720 0 
L 0 0 
z
" style="fill:none;"/>
  </g>
  <g id="axes_1">
   <g id="patch_2">
    <path d="M 90 369.423529 
L 648 369.423529 
L 648 129.6 
L 90 129.6 
z
" style="fill:#ffffff;"/>
   </g>
   <g id="matplotlib.axis_1">
    <g id="xtick_1">
     <g id="line2d_1">
      <defs>
       <path d="M 0 0 
L 0 3.5 
" id="m157ccfed63" style="stroke:#000000;stroke-width:0.8;"/>
      </defs>
      <g>
       <use style="stroke:#000000;stroke-width:0.8;" x="210.477273" xlink:href="#m157ccfed63" y="369.423529"/>
      </g>
     </g>
    </g>
    <g id="xtick_2">
     <g id="line2d_2">
      <g>
       <use style="stroke:#000000;stroke-width:0.8;" x="369" xlink:href="#m157ccfed63" y="369.423529"/>
      </g>
     </g>
    </g>
    <g id="xtick_3">
     <g id="line2d_3">
      <g>
       <use style="stroke:#000000;stroke-width:0.8;" x="527.522727" xlink:href="#m157ccfed63" y="369.423529"/>
      </g>
     </g>
    </g>
   </g>
   <g id="matplotlib.axis_2">
    <g id="ytick_1">
     <g id="line2d_4">
      <defs>
       <path d="M 0 0 
L -3.5 0 
" id="mcb92d24875" style="stroke:#000000;stroke-width:0.8;"/>
      </defs>
      <g>
       <use style="stroke:#000000;stroke-width:0.8;" x="90" xlink:href="#mcb92d24875" y="369.423529"/>
      </g>
     </g>
     <g id="text_1">
      <!-- 0.0 -->
      <g transform="translate(27.339063 382.720795)scale(0.35 -0.35)">
       <defs>
        <path d="M 31.78125 66.40625 
Q 24.171875 66.40625 20.328125 58.90625 
Q 16.5 51.421875 16.5 36.375 
Q 16.5 21.390625 20.328125 13.890625 
Q 24.171875 6.390625 31.78125 6.390625 
Q 39.453125 6.390625 43.28125 13.890625 
Q 47.125 21.390625 47.125 36.375 
Q 47.125 51.421875 43.28125 58.90625 
Q 39.453125 66.40625 31.78125 66.40625 
z
M 31.78125 74.21875 
Q 44.046875 74.21875 50.515625 64.515625 
Q 56.984375 54.828125 56.984375 36.375 
Q 56.984375 17.96875 50.515625 8.265625 
Q 44.046875 -1.421875 31.78125 -1.421875 
Q 19.53125 -1.421875 13.0625 8.265625 
Q 6.59375 17.96875 6.59375 36.375 
Q 6.59375 54.828125 13.0625 64.515625 
Q 19.53125 74.21875 31.78125 74.21875 
z
" id="DejaVuSans-48"/>
        <path d="M 10.6875 12.40625 
L 21 12.40625 
L 21 0 
L 10.6875 0 
z
" id="DejaVuSans-46"/>
       </defs>
       <use xlink:href="#DejaVuSans-48"/>
       <use x="63.623047" xlink:href="#DejaVuSans-46"/>
       <use x="95.410156" xlink:href="#DejaVuSans-48"/>
      </g>
     </g>
    </g>
    <g id="ytick_2">
     <g id="line2d_5">
      <g>
       <use style="stroke:#000000;stroke-width:0.8;" x="90" xlink:href="#mcb92d24875" y="249.511765"/>
      </g>
     </g>
     <g id="text_2">
      <!-- 0.5 -->
      <g transform="translate(27.339063 262.80903)scale(0.35 -0.35)">
       <defs>
        <path d="M 10.796875 72.90625 
L 49.515625 72.90625 
L 49.515625 64.59375 
L 19.828125 64.59375 
L 19.828125 46.734375 
Q 21.96875 47.46875 24.109375 47.828125 
Q 26.265625 48.1875 28.421875 48.1875 
Q 40.625 48.1875 47.75 41.5 
Q 54.890625 34.8125 54.890625 23.390625 
Q 54.890625 11.625 47.5625 5.09375 
Q 40.234375 -1.421875 26.90625 -1.421875 
Q 22.3125 -1.421875 17.546875 -0.640625 
Q 12.796875 0.140625 7.71875 1.703125 
L 7.71875 11.625 
Q 12.109375 9.234375 16.796875 8.0625 
Q 21.484375 6.890625 26.703125 6.890625 
Q 35.15625 6.890625 40.078125 11.328125 
Q 45.015625 15.765625 45.015625 23.390625 
Q 45.015625 31 40.078125 35.4375 
Q 35.15625 39.890625 26.703125 39.890625 
Q 22.75 39.890625 18.8125 39.015625 
Q 14.890625 38.140625 10.796875 36.28125 
z
" id="DejaVuSans-53"/>
       </defs>
       <use xlink:href="#DejaVuSans-48"/>
       <use x="63.623047" xlink:href="#DejaVuSans-46"/>
       <use x="95.410156" xlink:href="#DejaVuSans-53"/>
      </g>
     </g>
    </g>
    <g id="ytick_3">
     <g id="line2d_6">
      <g>
       <use style="stroke:#000000;stroke-width:0.8;" x="90" xlink:href="#mcb92d24875" y="129.6"/>
      </g>
     </g>
     <g id="text_3">
      <!-- 1.0 -->
      <g transform="translate(27.339063 142.897266)scale(0.35 -0.35)">
       <defs>
        <path d="M 12.40625 8.296875 
L 28.515625 8.296875 
L 28.515625 63.921875 
L 10.984375 60.40625 
L 10.984375 69.390625 
L 28.421875 72.90625 
L 38.28125 72.90625 
L 38.28125 8.296875 
L 54.390625 8.296875 
L 54.390625 0 
L 12.40625 0 
z
" id="DejaVuSans-49"/>
       </defs>
       <use xlink:href="#DejaVuSans-49"/>
       <use x="63.623047" xlink:href="#DejaVuSans-46"/>
       <use x="95.410156" xlink:href="#DejaVuSans-48"/>
      </g>
     </g>
    </g>
   </g>
   <g id="line2d_7">
    <path clip-path="url(#pb4464058c7)" d="M 115.363636 161.88688 
L 124.512844 164.135203 
L 133.662051 166.614484 
L 141.79468 169.036232 
L 149.927309 171.687951 
L 158.059938 174.596563 
L 165.175988 177.375551 
L 172.292039 180.395751 
L 179.408089 183.680876 
L 185.507561 186.726353 
L 191.607032 190.000914 
L 197.706504 193.520653 
L 203.805976 197.300755 
L 209.905447 201.354174 
L 216.004919 205.68968 
L 222.104391 210.309018 
L 228.203862 215.20229 
L 235.319913 221.218363 
L 244.46912 229.281373 
L 253.618328 237.30388 
L 258.701221 241.452372 
L 261.750956 243.719482 
L 264.800692 245.741616 
L 267.850428 247.438247 
L 269.883585 248.341332 
L 271.916743 249.023611 
L 273.9499 249.447949 
L 275.983057 249.572747 
L 278.016214 249.352094 
L 280.049371 248.735835 
L 282.082529 247.669437 
L 284.115686 246.094664 
L 286.148843 243.950348 
L 288.182 241.173782 
L 290.215158 237.702683 
L 292.248315 233.478208 
L 294.281472 228.448921 
L 296.314629 222.576331 
L 298.347786 215.842061 
L 300.380944 208.256594 
L 302.414101 199.869692 
L 305.463837 186.027363 
L 312.579887 152.023431 
L 314.613044 143.642486 
L 315.629623 140.010025 
L 316.646201 136.853899 
L 317.66278 134.253852 
L 318.679359 132.288771 
L 319.695937 131.033884 
L 320.712516 130.558294 
L 321.729095 130.922566 
L 322.745673 132.174913 
L 323.762252 134.349026 
L 324.77883 137.460213 
L 325.795409 141.503455 
L 326.811988 146.451032 
L 327.828566 152.25075 
L 329.861723 166.072951 
L 331.894881 182.064634 
L 335.961195 215.425875 
L 337.994352 229.904329 
L 339.010931 235.994764 
L 340.02751 241.13328 
L 341.044088 245.210704 
L 342.060667 248.145817 
L 343.077245 249.886995 
L 344.093824 250.412886 
L 345.110403 249.731732 
L 346.126981 247.87967 
L 347.14356 244.918174 
L 348.160138 240.931265 
L 349.176717 236.021507 
L 350.193296 230.306243 
L 352.226453 216.980047 
L 355.276189 194.324048 
L 358.325925 171.710684 
L 360.359082 158.259346 
L 362.392239 147.015029 
L 363.408818 142.411334 
L 364.425396 138.567019 
L 365.441975 135.528722 
L 366.458553 133.332845 
L 367.475132 132.004914 
L 368.491711 131.560597 
L 369.508289 132.004942 
L 370.524868 133.332817 
L 371.541447 135.528751 
L 372.558025 138.567048 
L 373.574604 142.411336 
L 374.591182 147.015114 
L 375.607761 152.320483 
L 377.640918 164.752732 
L 379.674075 179.03343 
L 385.773547 223.913965 
L 387.806704 236.0216 
L 388.823283 240.931489 
L 389.839862 244.918361 
L 390.85644 247.87981 
L 391.873019 249.731944 
L 392.889597 250.41312 
L 393.906176 249.887234 
L 394.922755 248.146083 
L 395.939333 245.210922 
L 396.955912 241.133527 
L 397.97249 235.994965 
L 398.989069 229.904696 
L 401.022226 215.426253 
L 404.071962 190.498956 
L 407.121698 166.07361 
L 409.154855 152.251239 
L 410.171434 146.451611 
L 411.188012 141.503984 
L 412.204591 137.460719 
L 413.22117 134.349366 
L 414.237748 132.175425 
L 415.254327 130.923079 
L 416.270905 130.558722 
L 417.287484 131.034312 
L 418.304063 132.289254 
L 419.320641 134.254333 
L 420.33722 136.854181 
L 421.353799 140.010389 
L 423.386956 147.672835 
L 425.420113 156.623239 
L 429.486427 176.229749 
L 432.536163 190.783748 
L 435.585899 204.158499 
L 437.619056 212.153882 
L 439.652214 219.317221 
L 441.685371 225.619889 
L 443.718528 231.067073 
L 445.751685 235.688209 
L 447.784842 239.528965 
L 449.818 242.645138 
L 451.851157 245.097705 
L 453.884314 246.949465 
L 455.917471 248.262549 
L 457.950629 249.0968 
L 459.983786 249.508726 
L 462.016943 249.550616 
L 464.0501 249.270609 
L 466.083257 248.712336 
L 468.116415 247.915272 
L 470.149572 246.914553 
L 473.199308 245.099496 
L 476.249044 242.987487 
L 480.315358 239.838115 
L 485.398251 235.559656 
L 494.547459 227.472986 
L 503.696666 219.469731 
L 510.812716 213.542018 
L 516.912188 208.73802 
L 523.01166 204.212891 
L 529.111131 199.972025 
L 535.210603 196.010977 
L 541.310075 192.319234 
L 547.409546 188.882918 
L 553.509018 185.686567 
L 559.60849 182.713793 
L 566.72454 179.506859 
L 573.84059 176.557903 
L 580.956641 173.843761 
L 589.089269 171.00211 
L 597.221898 168.410202 
L 605.354527 166.042109 
L 614.503735 163.616622 
L 622.636364 161.650093 
L 622.636364 161.650093 
" style="fill:none;stroke:#ff0000;stroke-linecap:square;stroke-width:5;"/>
   </g>
   <g id="patch_3">
    <path d="M 90 369.423529 
L 90 129.6 
" style="fill:none;stroke:#000000;stroke-linecap:square;stroke-linejoin:miter;stroke-width:0.8;"/>
   </g>
   <g id="patch_4">
    <path d="M 648 369.423529 
L 648 129.6 
" style="fill:none;stroke:#000000;stroke-linecap:square;stroke-linejoin:miter;stroke-width:0.8;"/>
   </g>
   <g id="patch_5">
    <path d="M 90 369.423529 
L 648 369.423529 
" style="fill:none;stroke:#000000;stroke-linecap:square;stroke-linejoin:miter;stroke-width:0.8;"/>
   </g>
   <g id="patch_6">
    <path d="M 90 129.6 
L 648 129.6 
" style="fill:none;stroke:#000000;stroke-linecap:square;stroke-linejoin:miter;stroke-width:0.8;"/>
   </g>
  </g>
  <g id="axes_2">
   <g id="patch_7">
    <path d="M 90 657.211765 
L 648 657.211765 
L 648 417.388235 
L 90 417.388235 
z
" style="fill:#ffffff;"/>
   </g>
   <g id="matplotlib.axis_3">
    <g id="xtick_4">
     <g id="line2d_8">
      <g>
       <use style="stroke:#000000;stroke-width:0.8;" x="210.477273" xlink:href="#m157ccfed63" y="657.211765"/>
      </g>
     </g>
    </g>
    <g id="xtick_5">
     <g id="line2d_9">
      <g>
       <use style="stroke:#000000;stroke-width:0.8;" x="369" xlink:href="#m157ccfed63" y="657.211765"/>
      </g>
     </g>
    </g>
    <g id="xtick_6">
     <g id="line2d_10">
      <g>
       <use style="stroke:#000000;stroke-width:0.8;" x="527.522727" xlink:href="#m157ccfed63" y="657.211765"/>
      </g>
     </g>
    </g>
   </g>
   <g id="matplotlib.axis_4">
    <g id="ytick_4">
     <g id="line2d_11">
      <g>
       <use style="stroke:#000000;stroke-width:0.8;" x="90" xlink:href="#mcb92d24875" y="657.211765"/>
      </g>
     </g>
     <g id="text_4">
      <!-- 0.0 -->
      <g transform="translate(27.339063 670.50903)scale(0.35 -0.35)">
       <use xlink:href="#DejaVuSans-48"/>
       <use x="63.623047" xlink:href="#DejaVuSans-46"/>
       <use x="95.410156" xlink:href="#DejaVuSans-48"/>
      </g>
     </g>
    </g>
    <g id="ytick_5">
     <g id="line2d_12">
      <g>
       <use style="stroke:#000000;stroke-width:0.8;" x="90" xlink:href="#mcb92d24875" y="537.3"/>
      </g>
     </g>
     <g id="text_5">
      <!-- 0.5 -->
      <g transform="translate(27.339063 550.597266)scale(0.35 -0.35)">
       <use xlink:href="#DejaVuSans-48"/>
       <use x="63.623047" xlink:href="#DejaVuSans-46"/>
       <use x="95.410156" xlink:href="#DejaVuSans-53"/>
      </g>
     </g>
    </g>
    <g id="ytick_6">
     <g id="line2d_13">
      <g>
       <use style="stroke:#000000;stroke-width:0.8;" x="90" xlink:href="#mcb92d24875" y="417.388235"/>
      </g>
     </g>
     <g id="text_6">
      <!-- 1.0 -->
      <g transform="translate(27.339063 430.685501)scale(0.35 -0.35)">
       <use xlink:href="#DejaVuSans-49"/>
       <use x="63.623047" xlink:href="#DejaVuSans-46"/>
       <use x="95.410156" xlink:href="#DejaVuSans-48"/>
      </g>
     </g>
    </g>
   </g>
   <g id="line2d_14">
    <path clip-path="url(#p604104ee55)" d="M 115.363636 426.416665 
L 130.612316 427.655008 
L 143.827837 428.94886 
L 156.026781 430.375847 
L 166.192567 431.779408 
L 175.341774 433.248975 
L 183.474403 434.755183 
L 191.607032 436.489135 
L 198.723083 438.231057 
L 204.822554 439.922978 
L 210.922026 441.831666 
L 217.021498 443.995555 
L 222.104391 446.027461 
L 227.187284 448.302218 
L 232.270177 450.859376 
L 236.336491 453.140063 
L 240.402806 455.660227 
L 244.46912 458.453144 
L 248.535435 461.557223 
L 252.601749 465.016792 
L 255.651485 467.874919 
L 258.701221 470.985259 
L 261.750956 474.373508 
L 264.800692 478.067221 
L 267.850428 482.094338 
L 270.900164 486.48246 
L 273.9499 491.255308 
L 276.999636 496.428799 
L 280.049371 502.002757 
L 284.115686 510.001096 
L 294.281472 530.564331 
L 296.314629 533.844552 
L 297.331208 535.19529 
L 298.347786 536.291269 
L 299.364365 537.07739 
L 300.380944 537.491263 
L 301.397522 537.462604 
L 302.414101 536.913675 
L 303.43068 535.759801 
L 304.447258 533.910653 
L 305.463837 531.272914 
L 306.480415 527.753977 
L 307.496994 523.267854 
L 308.513573 517.742854 
L 309.530151 511.132617 
L 310.54673 503.428782 
L 312.579887 484.99557 
L 317.66278 433.531298 
L 318.679359 426.186215 
L 319.695937 421.26883 
L 320.712516 419.31324 
L 321.729095 420.672734 
L 322.745673 425.449857 
L 323.762252 433.454972 
L 324.77883 444.20839 
L 326.811988 470.909041 
L 328.845145 498.519478 
L 329.861723 510.597997 
L 330.878302 520.74177 
L 331.894881 528.624669 
L 332.911459 534.1219 
L 333.928038 537.277655 
L 334.944617 538.262179 
L 335.961195 537.328197 
L 336.977774 534.771611 
L 337.994352 530.900047 
L 339.010931 526.010704 
L 341.044088 514.233213 
L 347.14356 475.775898 
L 349.176717 464.533112 
L 351.209874 454.590024 
L 353.243032 445.991911 
L 355.276189 438.706933 
L 357.309346 432.666258 
L 359.342503 427.788014 
L 360.359082 425.759507 
L 361.37566 423.992329 
L 362.392239 422.478289 
L 363.408818 421.209884 
L 364.425396 420.180879 
L 365.441975 419.385969 
L 366.458553 418.821198 
L 367.475132 418.483479 
L 368.491711 418.371095 
L 369.508289 418.483479 
L 370.524868 418.821198 
L 371.541447 419.385998 
L 372.558025 420.180879 
L 373.574604 421.209884 
L 374.591182 422.478261 
L 375.607761 423.992329 
L 376.62434 425.759535 
L 377.640918 427.788041 
L 378.657497 430.086962 
L 380.690654 435.53612 
L 382.723811 442.189087 
L 384.756968 450.123624 
L 386.790126 459.393933 
L 388.823283 469.999416 
L 390.85644 481.835051 
L 393.906176 501.203792 
L 396.955912 520.375437 
L 397.97249 526.010717 
L 398.989069 530.900009 
L 400.005648 534.771545 
L 401.022226 537.328095 
L 402.038805 538.262136 
L 403.055383 537.277541 
L 404.071962 534.121816 
L 405.088541 528.624606 
L 406.105119 520.741626 
L 407.121698 510.597836 
L 408.138277 498.519305 
L 412.204591 444.208283 
L 413.22117 433.454889 
L 414.237748 425.449661 
L 415.254327 420.672535 
L 416.270905 419.312927 
L 417.287484 421.268546 
L 418.304063 426.186018 
L 419.320641 433.53116 
L 420.33722 442.671631 
L 423.386956 474.58957 
L 425.420113 494.677222 
L 426.436692 503.428726 
L 427.45327 511.132541 
L 428.469849 517.742777 
L 429.486427 523.267738 
L 430.503006 527.753909 
L 431.519585 531.272842 
L 432.536163 533.910648 
L 433.552742 535.759762 
L 434.56932 536.913642 
L 435.585899 537.462552 
L 436.602478 537.491179 
L 437.619056 537.077387 
L 438.635635 536.29123 
L 439.652214 535.195269 
L 440.668792 533.844528 
L 442.701949 530.564344 
L 444.735107 526.761465 
L 448.801421 518.433854 
L 454.900893 505.928655 
L 457.950629 500.101255 
L 461.000364 494.659335 
L 464.0501 489.620389 
L 467.099836 484.978029 
L 470.149572 480.713185 
L 473.199308 476.800327 
L 476.249044 473.21159 
L 479.298779 469.918888 
L 482.348515 466.895378 
L 485.398251 464.115871 
L 489.464565 460.749769 
L 493.53088 457.727337 
L 497.597194 455.006038 
L 501.663509 452.548643 
L 505.729823 450.323229 
L 510.812716 447.826053 
L 515.895609 445.602753 
L 520.978502 443.615294 
L 527.077974 441.496946 
L 533.177446 439.626846 
L 540.293496 437.709561 
L 547.409546 436.03183 
L 555.542175 434.358905 
L 564.691383 432.73485 
L 573.84059 431.335106 
L 584.006376 429.995094 
L 595.188741 428.73425 
L 608.404263 427.475514 
L 622.636364 426.342287 
L 622.636364 426.342287 
" style="fill:none;stroke:#ff7f0e;stroke-linecap:square;stroke-width:5;"/>
   </g>
   <g id="patch_8">
    <path d="M 90 657.211765 
L 90 417.388235 
" style="fill:none;stroke:#000000;stroke-linecap:square;stroke-linejoin:miter;stroke-width:0.8;"/>
   </g>
   <g id="patch_9">
    <path d="M 648 657.211765 
L 648 417.388235 
" style="fill:none;stroke:#000000;stroke-linecap:square;stroke-linejoin:miter;stroke-width:0.8;"/>
   </g>
   <g id="patch_10">
    <path d="M 90 657.211765 
L 648 657.211765 
" style="fill:none;stroke:#000000;stroke-linecap:square;stroke-linejoin:miter;stroke-width:0.8;"/>
   </g>
   <g id="patch_11">
    <path d="M 90 417.388235 
L 648 417.388235 
" style="fill:none;stroke:#000000;stroke-linecap:square;stroke-linejoin:miter;stroke-width:0.8;"/>
   </g>
  </g>
  <g id="axes_3">
   <g id="patch_12">
    <path d="M 90 945 
L 648 945 
L 648 705.176471 
L 90 705.176471 
z
" style="fill:#ffffff;"/>
   </g>
   <g id="matplotlib.axis_5">
    <g id="xtick_7">
     <g id="line2d_15">
      <g>
       <use style="stroke:#000000;stroke-width:0.8;" x="210.477273" xlink:href="#m157ccfed63" y="945"/>
      </g>
     </g>
     <g id="text_7">
      <!-- −50 -->
      <g transform="translate(173.54407 978.594531)scale(0.35 -0.35)">
       <defs>
        <path d="M 10.59375 35.5 
L 73.1875 35.5 
L 73.1875 27.203125 
L 10.59375 27.203125 
z
" id="DejaVuSans-8722"/>
       </defs>
       <use xlink:href="#DejaVuSans-8722"/>
       <use x="83.789062" xlink:href="#DejaVuSans-53"/>
       <use x="147.412109" xlink:href="#DejaVuSans-48"/>
      </g>
     </g>
    </g>
    <g id="xtick_8">
     <g id="line2d_16">
      <g>
       <use style="stroke:#000000;stroke-width:0.8;" x="369" xlink:href="#m157ccfed63" y="945"/>
      </g>
     </g>
     <g id="text_8">
      <!-- 0 -->
      <g transform="translate(357.865625 978.594531)scale(0.35 -0.35)">
       <use xlink:href="#DejaVuSans-48"/>
      </g>
     </g>
    </g>
    <g id="xtick_9">
     <g id="line2d_17">
      <g>
       <use style="stroke:#000000;stroke-width:0.8;" x="527.522727" xlink:href="#m157ccfed63" y="945"/>
      </g>
     </g>
     <g id="text_9">
      <!-- 50 -->
      <g transform="translate(505.253977 978.594531)scale(0.35 -0.35)">
       <use xlink:href="#DejaVuSans-53"/>
       <use x="63.623047" xlink:href="#DejaVuSans-48"/>
      </g>
     </g>
    </g>
   </g>
   <g id="matplotlib.axis_6">
    <g id="ytick_7">
     <g id="line2d_18">
      <g>
       <use style="stroke:#000000;stroke-width:0.8;" x="90" xlink:href="#mcb92d24875" y="945"/>
      </g>
     </g>
     <g id="text_10">
      <!-- 0.0 -->
      <g transform="translate(27.339063 958.297266)scale(0.35 -0.35)">
       <use xlink:href="#DejaVuSans-48"/>
       <use x="63.623047" xlink:href="#DejaVuSans-46"/>
       <use x="95.410156" xlink:href="#DejaVuSans-48"/>
      </g>
     </g>
    </g>
    <g id="ytick_8">
     <g id="line2d_19">
      <g>
       <use style="stroke:#000000;stroke-width:0.8;" x="90" xlink:href="#mcb92d24875" y="825.088235"/>
      </g>
     </g>
     <g id="text_11">
      <!-- 0.5 -->
      <g transform="translate(27.339063 838.385501)scale(0.35 -0.35)">
       <use xlink:href="#DejaVuSans-48"/>
       <use x="63.623047" xlink:href="#DejaVuSans-46"/>
       <use x="95.410156" xlink:href="#DejaVuSans-53"/>
      </g>
     </g>
    </g>
    <g id="ytick_9">
     <g id="line2d_20">
      <g>
       <use style="stroke:#000000;stroke-width:0.8;" x="90" xlink:href="#mcb92d24875" y="705.176471"/>
      </g>
     </g>
     <g id="text_12">
      <!-- 1.0 -->
      <g transform="translate(27.339063 718.473736)scale(0.35 -0.35)">
       <use xlink:href="#DejaVuSans-49"/>
       <use x="63.623047" xlink:href="#DejaVuSans-46"/>
       <use x="95.410156" xlink:href="#DejaVuSans-48"/>
      </g>
     </g>
    </g>
   </g>
   <g id="line2d_21">
    <path clip-path="url(#pb88a5a0e52)" d="M 115.363636 705.551525 
L 174.325196 705.847434 
L 207.87229 706.2166 
L 229.220441 706.650641 
L 244.46912 707.167914 
L 255.651485 707.760519 
L 263.784114 708.392516 
L 270.900164 709.178383 
L 275.983057 709.949433 
L 280.049371 710.755633 
L 284.115686 711.806644 
L 287.165422 712.822701 
L 290.215158 714.115072 
L 292.248315 715.184396 
L 294.281472 716.474679 
L 296.314629 718.05306 
L 298.347786 720.014285 
L 300.380944 722.495144 
L 301.397522 723.99032 
L 302.414101 725.698553 
L 303.43068 727.662049 
L 304.447258 729.933835 
L 305.463837 732.580457 
L 306.480415 735.686573 
L 307.496994 739.359911 
L 308.513573 743.738159 
L 309.530151 748.996541 
L 310.54673 755.355247 
L 311.563308 763.081591 
L 312.579887 772.473096 
L 313.596466 783.786407 
L 316.646201 823.640773 
L 317.66278 826.117853 
L 318.679359 804.959902 
L 319.695937 754.489588 
L 320.712516 715.108686 
L 321.729095 742.18058 
L 322.745673 798.762307 
L 323.762252 826.322252 
L 324.77883 823.363503 
L 325.795409 807.533381 
L 326.811988 789.718898 
L 327.828566 773.925294 
L 328.845145 761.003922 
L 329.861723 750.728002 
L 330.878302 742.61312 
L 331.894881 736.188849 
L 332.911459 731.068392 
L 333.928038 726.952124 
L 334.944617 723.612717 
L 335.961195 720.878968 
L 336.977774 718.621509 
L 337.994352 716.74211 
L 339.010931 715.165479 
L 340.02751 713.833553 
L 342.060667 711.732451 
L 344.093824 710.179875 
L 346.126981 709.010869 
L 348.160138 708.117417 
L 350.193296 707.426653 
L 353.243032 706.664937 
L 356.292767 706.138248 
L 360.359082 705.689161 
L 364.425396 705.449071 
L 369.508289 705.378096 
L 374.591182 705.546614 
L 378.657497 705.883251 
L 382.723811 706.46728 
L 385.773547 707.140933 
L 387.806704 707.750277 
L 389.839862 708.534953 
L 391.873019 709.555179 
L 393.906176 710.899563 
L 395.939333 712.70106 
L 396.955912 713.833553 
L 397.97249 715.165451 
L 398.989069 716.742109 
L 400.005648 718.621564 
L 401.022226 720.878967 
L 402.038805 723.612743 
L 403.055383 726.952149 
L 404.071962 731.068443 
L 405.088541 736.18887 
L 406.105119 742.613164 
L 407.121698 750.728041 
L 408.138277 761.00395 
L 409.154855 773.925374 
L 410.171434 789.718958 
L 411.188012 807.533493 
L 412.204591 823.363585 
L 413.22117 826.322068 
L 414.237748 798.761757 
L 415.254327 742.179856 
L 416.270905 715.10849 
L 417.287484 754.489877 
L 418.304063 804.960063 
L 419.320641 826.117804 
L 420.33722 823.640625 
L 421.353799 811.326915 
L 423.386956 783.786277 
L 424.403534 772.472994 
L 425.420113 763.081481 
L 426.436692 755.35518 
L 427.45327 748.996468 
L 428.469849 743.738085 
L 429.486427 739.359834 
L 430.503006 735.686548 
L 431.519585 732.580431 
L 432.536163 729.933782 
L 433.552742 727.662023 
L 434.56932 725.698499 
L 436.602478 722.495145 
L 438.635635 720.014285 
L 440.668792 718.05306 
L 442.701949 716.474679 
L 444.735107 715.184396 
L 446.768264 714.115072 
L 449.818 712.822701 
L 452.867735 711.806644 
L 456.93405 710.755633 
L 461.000364 709.949433 
L 466.083257 709.178383 
L 472.182729 708.488845 
L 480.315358 707.828129 
L 490.481144 707.258453 
L 503.696666 706.765716 
L 520.978502 706.354787 
L 546.392968 705.995379 
L 584.006376 705.708325 
L 622.636364 705.54827 
L 622.636364 705.54827 
" style="fill:none;stroke:#0000ff;stroke-linecap:square;stroke-width:5;"/>
   </g>
   <g id="patch_13">
    <path d="M 90 945 
L 90 705.176471 
" style="fill:none;stroke:#000000;stroke-linecap:square;stroke-linejoin:miter;stroke-width:0.8;"/>
   </g>
   <g id="patch_14">
    <path d="M 648 945 
L 648 705.176471 
" style="fill:none;stroke:#000000;stroke-linecap:square;stroke-linejoin:miter;stroke-width:0.8;"/>
   </g>
   <g id="patch_15">
    <path d="M 90 945 
L 648 945 
" style="fill:none;stroke:#000000;stroke-linecap:square;stroke-linejoin:miter;stroke-width:0.8;"/>
   </g>
   <g id="patch_16">
    <path d="M 90 705.176471 
L 648 705.176471 
" style="fill:none;stroke:#000000;stroke-linecap:square;stroke-linejoin:miter;stroke-width:0.8;"/>
   </g>
  </g>
  <g id="axes_4">
   <g id="matplotlib.axis_7">
    <g id="xtick_10">
     <g id="text_13">
      <!-- 0.0 -->
      <g style="opacity:0;" transform="translate(62.169531 978.594531)scale(0.35 -0.35)">
       <use xlink:href="#DejaVuSans-48"/>
       <use x="63.623047" xlink:href="#DejaVuSans-46"/>
       <use x="95.410156" xlink:href="#DejaVuSans-48"/>
      </g>
     </g>
    </g>
    <g id="xtick_11">
     <g id="text_14">
      <!-- 0.2 -->
      <g style="opacity:0;" transform="translate(173.769531 978.594531)scale(0.35 -0.35)">
       <defs>
        <path d="M 19.1875 8.296875 
L 53.609375 8.296875 
L 53.609375 0 
L 7.328125 0 
L 7.328125 8.296875 
Q 12.9375 14.109375 22.625 23.890625 
Q 32.328125 33.6875 34.8125 36.53125 
Q 39.546875 41.84375 41.421875 45.53125 
Q 43.3125 49.21875 43.3125 52.78125 
Q 43.3125 58.59375 39.234375 62.25 
Q 35.15625 65.921875 28.609375 65.921875 
Q 23.96875 65.921875 18.8125 64.3125 
Q 13.671875 62.703125 7.8125 59.421875 
L 7.8125 69.390625 
Q 13.765625 71.78125 18.9375 73 
Q 24.125 74.21875 28.421875 74.21875 
Q 39.75 74.21875 46.484375 68.546875 
Q 53.21875 62.890625 53.21875 53.421875 
Q 53.21875 48.921875 51.53125 44.890625 
Q 49.859375 40.875 45.40625 35.40625 
Q 44.1875 33.984375 37.640625 27.21875 
Q 31.109375 20.453125 19.1875 8.296875 
z
" id="DejaVuSans-50"/>
       </defs>
       <use xlink:href="#DejaVuSans-48"/>
       <use x="63.623047" xlink:href="#DejaVuSans-46"/>
       <use x="95.410156" xlink:href="#DejaVuSans-50"/>
      </g>
     </g>
    </g>
    <g id="xtick_12">
     <g id="text_15">
      <!-- 0.4 -->
      <g style="opacity:0;" transform="translate(285.369531 978.594531)scale(0.35 -0.35)">
       <defs>
        <path d="M 37.796875 64.3125 
L 12.890625 25.390625 
L 37.796875 25.390625 
z
M 35.203125 72.90625 
L 47.609375 72.90625 
L 47.609375 25.390625 
L 58.015625 25.390625 
L 58.015625 17.1875 
L 47.609375 17.1875 
L 47.609375 0 
L 37.796875 0 
L 37.796875 17.1875 
L 4.890625 17.1875 
L 4.890625 26.703125 
z
" id="DejaVuSans-52"/>
       </defs>
       <use xlink:href="#DejaVuSans-48"/>
       <use x="63.623047" xlink:href="#DejaVuSans-46"/>
       <use x="95.410156" xlink:href="#DejaVuSans-52"/>
      </g>
     </g>
    </g>
    <g id="xtick_13">
     <g id="text_16">
      <!-- 0.6 -->
      <g style="opacity:0;" transform="translate(396.969531 978.594531)scale(0.35 -0.35)">
       <defs>
        <path d="M 33.015625 40.375 
Q 26.375 40.375 22.484375 35.828125 
Q 18.609375 31.296875 18.609375 23.390625 
Q 18.609375 15.53125 22.484375 10.953125 
Q 26.375 6.390625 33.015625 6.390625 
Q 39.65625 6.390625 43.53125 10.953125 
Q 47.40625 15.53125 47.40625 23.390625 
Q 47.40625 31.296875 43.53125 35.828125 
Q 39.65625 40.375 33.015625 40.375 
z
M 52.59375 71.296875 
L 52.59375 62.3125 
Q 48.875 64.0625 45.09375 64.984375 
Q 41.3125 65.921875 37.59375 65.921875 
Q 27.828125 65.921875 22.671875 59.328125 
Q 17.53125 52.734375 16.796875 39.40625 
Q 19.671875 43.65625 24.015625 45.921875 
Q 28.375 48.1875 33.59375 48.1875 
Q 44.578125 48.1875 50.953125 41.515625 
Q 57.328125 34.859375 57.328125 23.390625 
Q 57.328125 12.15625 50.6875 5.359375 
Q 44.046875 -1.421875 33.015625 -1.421875 
Q 20.359375 -1.421875 13.671875 8.265625 
Q 6.984375 17.96875 6.984375 36.375 
Q 6.984375 53.65625 15.1875 63.9375 
Q 23.390625 74.21875 37.203125 74.21875 
Q 40.921875 74.21875 44.703125 73.484375 
Q 48.484375 72.75 52.59375 71.296875 
z
" id="DejaVuSans-54"/>
       </defs>
       <use xlink:href="#DejaVuSans-48"/>
       <use x="63.623047" xlink:href="#DejaVuSans-46"/>
       <use x="95.410156" xlink:href="#DejaVuSans-54"/>
      </g>
     </g>
    </g>
    <g id="xtick_14">
     <g id="text_17">
      <!-- 0.8 -->
      <g style="opacity:0;" transform="translate(508.569531 978.594531)scale(0.35 -0.35)">
       <defs>
        <path d="M 31.78125 34.625 
Q 24.75 34.625 20.71875 30.859375 
Q 16.703125 27.09375 16.703125 20.515625 
Q 16.703125 13.921875 20.71875 10.15625 
Q 24.75 6.390625 31.78125 6.390625 
Q 38.8125 6.390625 42.859375 10.171875 
Q 46.921875 13.96875 46.921875 20.515625 
Q 46.921875 27.09375 42.890625 30.859375 
Q 38.875 34.625 31.78125 34.625 
z
M 21.921875 38.8125 
Q 15.578125 40.375 12.03125 44.71875 
Q 8.5 49.078125 8.5 55.328125 
Q 8.5 64.0625 14.71875 69.140625 
Q 20.953125 74.21875 31.78125 74.21875 
Q 42.671875 74.21875 48.875 69.140625 
Q 55.078125 64.0625 55.078125 55.328125 
Q 55.078125 49.078125 51.53125 44.71875 
Q 48 40.375 41.703125 38.8125 
Q 48.828125 37.15625 52.796875 32.3125 
Q 56.78125 27.484375 56.78125 20.515625 
Q 56.78125 9.90625 50.3125 4.234375 
Q 43.84375 -1.421875 31.78125 -1.421875 
Q 19.734375 -1.421875 13.25 4.234375 
Q 6.78125 9.90625 6.78125 20.515625 
Q 6.78125 27.484375 10.78125 32.3125 
Q 14.796875 37.15625 21.921875 38.8125 
z
M 18.3125 54.390625 
Q 18.3125 48.734375 21.84375 45.5625 
Q 25.390625 42.390625 31.78125 42.390625 
Q 38.140625 42.390625 41.71875 45.5625 
Q 45.3125 48.734375 45.3125 54.390625 
Q 45.3125 60.0625 41.71875 63.234375 
Q 38.140625 66.40625 31.78125 66.40625 
Q 25.390625 66.40625 21.84375 63.234375 
Q 18.3125 60.0625 18.3125 54.390625 
z
" id="DejaVuSans-56"/>
       </defs>
       <use xlink:href="#DejaVuSans-48"/>
       <use x="63.623047" xlink:href="#DejaVuSans-46"/>
       <use x="95.410156" xlink:href="#DejaVuSans-56"/>
      </g>
     </g>
    </g>
    <g id="xtick_15">
     <g id="text_18">
      <!-- 1.0 -->
      <g style="opacity:0;" transform="translate(620.169531 978.594531)scale(0.35 -0.35)">
       <use xlink:href="#DejaVuSans-49"/>
       <use x="63.623047" xlink:href="#DejaVuSans-46"/>
       <use x="95.410156" xlink:href="#DejaVuSans-48"/>
      </g>
     </g>
    </g>
    <g id="text_19">
     <!-- $(\omega-\omega_{c})$ (Hz) -->
     <g transform="translate(255.6 1016.467969)scale(0.35 -0.35)">
      <defs>
       <path d="M 31 75.875 
Q 24.46875 64.65625 21.28125 53.65625 
Q 18.109375 42.671875 18.109375 31.390625 
Q 18.109375 20.125 21.3125 9.0625 
Q 24.515625 -2 31 -13.1875 
L 23.1875 -13.1875 
Q 15.875 -1.703125 12.234375 9.375 
Q 8.59375 20.453125 8.59375 31.390625 
Q 8.59375 42.28125 12.203125 53.3125 
Q 15.828125 64.359375 23.1875 75.875 
z
" id="DejaVuSans-40"/>
       <path d="M 26.859375 -1.421875 
Q 6.59375 -1.421875 6.59375 27.59375 
Q 6.59375 39.0625 14.15625 54.6875 
L 23.828125 54.6875 
Q 16.84375 39.0625 16.84375 27.34375 
Q 16.84375 6.203125 27.6875 6.203125 
Q 37.59375 6.203125 37.59375 32.46875 
L 45.90625 32.46875 
Q 45.90625 6.203125 55.8125 6.203125 
Q 66.65625 6.203125 66.65625 27.34375 
Q 66.65625 39.0625 59.671875 54.6875 
L 69.34375 54.6875 
Q 76.90625 39.0625 76.90625 27.59375 
Q 76.90625 -1.421875 56.640625 -1.421875 
Q 43.359375 -1.421875 41.75 13.1875 
Q 39.75 -1.421875 26.859375 -1.421875 
z
" id="DejaVuSans-969"/>
       <path d="M 48.78125 52.59375 
L 48.78125 44.1875 
Q 44.96875 46.296875 41.140625 47.34375 
Q 37.3125 48.390625 33.40625 48.390625 
Q 24.65625 48.390625 19.8125 42.84375 
Q 14.984375 37.3125 14.984375 27.296875 
Q 14.984375 17.28125 19.8125 11.734375 
Q 24.65625 6.203125 33.40625 6.203125 
Q 37.3125 6.203125 41.140625 7.25 
Q 44.96875 8.296875 48.78125 10.40625 
L 48.78125 2.09375 
Q 45.015625 0.34375 40.984375 -0.53125 
Q 36.96875 -1.421875 32.421875 -1.421875 
Q 20.0625 -1.421875 12.78125 6.34375 
Q 5.515625 14.109375 5.515625 27.296875 
Q 5.515625 40.671875 12.859375 48.328125 
Q 20.21875 56 33.015625 56 
Q 37.15625 56 41.109375 55.140625 
Q 45.0625 54.296875 48.78125 52.59375 
z
" id="DejaVuSans-99"/>
       <path d="M 8.015625 75.875 
L 15.828125 75.875 
Q 23.140625 64.359375 26.78125 53.3125 
Q 30.421875 42.28125 30.421875 31.390625 
Q 30.421875 20.453125 26.78125 9.375 
Q 23.140625 -1.703125 15.828125 -13.1875 
L 8.015625 -13.1875 
Q 14.5 -2 17.703125 9.0625 
Q 20.90625 20.125 20.90625 31.390625 
Q 20.90625 42.671875 17.703125 53.65625 
Q 14.5 64.65625 8.015625 75.875 
z
" id="DejaVuSans-41"/>
       <path id="DejaVuSans-32"/>
       <path d="M 9.8125 72.90625 
L 19.671875 72.90625 
L 19.671875 43.015625 
L 55.515625 43.015625 
L 55.515625 72.90625 
L 65.375 72.90625 
L 65.375 0 
L 55.515625 0 
L 55.515625 34.71875 
L 19.671875 34.71875 
L 19.671875 0 
L 9.8125 0 
z
" id="DejaVuSans-72"/>
       <path d="M 5.515625 54.6875 
L 48.1875 54.6875 
L 48.1875 46.484375 
L 14.40625 7.171875 
L 48.1875 7.171875 
L 48.1875 0 
L 4.296875 0 
L 4.296875 8.203125 
L 38.09375 47.515625 
L 5.515625 47.515625 
z
" id="DejaVuSans-122"/>
      </defs>
      <use transform="translate(0 0.125)" xlink:href="#DejaVuSans-40"/>
      <use transform="translate(39.013672 0.125)" xlink:href="#DejaVuSans-969"/>
      <use transform="translate(142.236328 0.125)" xlink:href="#DejaVuSans-8722"/>
      <use transform="translate(245.507812 0.125)" xlink:href="#DejaVuSans-969"/>
      <use transform="translate(330.205078 -16.28125)scale(0.7)" xlink:href="#DejaVuSans-99"/>
      <use transform="translate(371.425781 0.125)" xlink:href="#DejaVuSans-41"/>
      <use transform="translate(410.439453 0.125)" xlink:href="#DejaVuSans-32"/>
      <use transform="translate(442.226562 0.125)" xlink:href="#DejaVuSans-40"/>
      <use transform="translate(481.240234 0.125)" xlink:href="#DejaVuSans-72"/>
      <use transform="translate(556.435547 0.125)" xlink:href="#DejaVuSans-122"/>
      <use transform="translate(608.925781 0.125)" xlink:href="#DejaVuSans-41"/>
     </g>
    </g>
   </g>
   <g id="matplotlib.axis_8">
    <g id="ytick_10">
     <g id="text_20">
      <!-- 0.0 -->
      <g style="opacity:0;" transform="translate(27.339063 958.297266)scale(0.35 -0.35)">
       <use xlink:href="#DejaVuSans-48"/>
       <use x="63.623047" xlink:href="#DejaVuSans-46"/>
       <use x="95.410156" xlink:href="#DejaVuSans-48"/>
      </g>
     </g>
    </g>
    <g id="ytick_11">
     <g id="text_21">
      <!-- 0.2 -->
      <g style="opacity:0;" transform="translate(27.339063 795.217266)scale(0.35 -0.35)">
       <use xlink:href="#DejaVuSans-48"/>
       <use x="63.623047" xlink:href="#DejaVuSans-46"/>
       <use x="95.410156" xlink:href="#DejaVuSans-50"/>
      </g>
     </g>
    </g>
    <g id="ytick_12">
     <g id="text_22">
      <!-- 0.4 -->
      <g style="opacity:0;" transform="translate(27.339063 632.137266)scale(0.35 -0.35)">
       <use xlink:href="#DejaVuSans-48"/>
       <use x="63.623047" xlink:href="#DejaVuSans-46"/>
       <use x="95.410156" xlink:href="#DejaVuSans-52"/>
      </g>
     </g>
    </g>
    <g id="ytick_13">
     <g id="text_23">
      <!-- 0.6 -->
      <g style="opacity:0;" transform="translate(27.339063 469.057266)scale(0.35 -0.35)">
       <use xlink:href="#DejaVuSans-48"/>
       <use x="63.623047" xlink:href="#DejaVuSans-46"/>
       <use x="95.410156" xlink:href="#DejaVuSans-54"/>
      </g>
     </g>
    </g>
    <g id="ytick_14">
     <g id="text_24">
      <!-- 0.8 -->
      <g style="opacity:0;" transform="translate(27.339063 305.977266)scale(0.35 -0.35)">
       <use xlink:href="#DejaVuSans-48"/>
       <use x="63.623047" xlink:href="#DejaVuSans-46"/>
       <use x="95.410156" xlink:href="#DejaVuSans-56"/>
      </g>
     </g>
    </g>
    <g id="ytick_15">
     <g id="text_25">
      <!-- 1.0 -->
      <g style="opacity:0;" transform="translate(27.339063 142.897266)scale(0.35 -0.35)">
       <use xlink:href="#DejaVuSans-49"/>
       <use x="63.623047" xlink:href="#DejaVuSans-46"/>
       <use x="95.410156" xlink:href="#DejaVuSans-48"/>
      </g>
     </g>
    </g>
    <g id="text_26">
     <!-- Transmission -->
     <g transform="translate(16.060156 650.333594)rotate(-90)scale(0.35 -0.35)">
      <defs>
       <path d="M -0.296875 72.90625 
L 61.375 72.90625 
L 61.375 64.59375 
L 35.5 64.59375 
L 35.5 0 
L 25.59375 0 
L 25.59375 64.59375 
L -0.296875 64.59375 
z
" id="DejaVuSans-84"/>
       <path d="M 41.109375 46.296875 
Q 39.59375 47.171875 37.8125 47.578125 
Q 36.03125 48 33.890625 48 
Q 26.265625 48 22.1875 43.046875 
Q 18.109375 38.09375 18.109375 28.8125 
L 18.109375 0 
L 9.078125 0 
L 9.078125 54.6875 
L 18.109375 54.6875 
L 18.109375 46.1875 
Q 20.953125 51.171875 25.484375 53.578125 
Q 30.03125 56 36.53125 56 
Q 37.453125 56 38.578125 55.875 
Q 39.703125 55.765625 41.0625 55.515625 
z
" id="DejaVuSans-114"/>
       <path d="M 34.28125 27.484375 
Q 23.390625 27.484375 19.1875 25 
Q 14.984375 22.515625 14.984375 16.5 
Q 14.984375 11.71875 18.140625 8.90625 
Q 21.296875 6.109375 26.703125 6.109375 
Q 34.1875 6.109375 38.703125 11.40625 
Q 43.21875 16.703125 43.21875 25.484375 
L 43.21875 27.484375 
z
M 52.203125 31.203125 
L 52.203125 0 
L 43.21875 0 
L 43.21875 8.296875 
Q 40.140625 3.328125 35.546875 0.953125 
Q 30.953125 -1.421875 24.3125 -1.421875 
Q 15.921875 -1.421875 10.953125 3.296875 
Q 6 8.015625 6 15.921875 
Q 6 25.140625 12.171875 29.828125 
Q 18.359375 34.515625 30.609375 34.515625 
L 43.21875 34.515625 
L 43.21875 35.40625 
Q 43.21875 41.609375 39.140625 45 
Q 35.0625 48.390625 27.6875 48.390625 
Q 23 48.390625 18.546875 47.265625 
Q 14.109375 46.140625 10.015625 43.890625 
L 10.015625 52.203125 
Q 14.9375 54.109375 19.578125 55.046875 
Q 24.21875 56 28.609375 56 
Q 40.484375 56 46.34375 49.84375 
Q 52.203125 43.703125 52.203125 31.203125 
z
" id="DejaVuSans-97"/>
       <path d="M 54.890625 33.015625 
L 54.890625 0 
L 45.90625 0 
L 45.90625 32.71875 
Q 45.90625 40.484375 42.875 44.328125 
Q 39.84375 48.1875 33.796875 48.1875 
Q 26.515625 48.1875 22.3125 43.546875 
Q 18.109375 38.921875 18.109375 30.90625 
L 18.109375 0 
L 9.078125 0 
L 9.078125 54.6875 
L 18.109375 54.6875 
L 18.109375 46.1875 
Q 21.34375 51.125 25.703125 53.5625 
Q 30.078125 56 35.796875 56 
Q 45.21875 56 50.046875 50.171875 
Q 54.890625 44.34375 54.890625 33.015625 
z
" id="DejaVuSans-110"/>
       <path d="M 44.28125 53.078125 
L 44.28125 44.578125 
Q 40.484375 46.53125 36.375 47.5 
Q 32.28125 48.484375 27.875 48.484375 
Q 21.1875 48.484375 17.84375 46.4375 
Q 14.5 44.390625 14.5 40.28125 
Q 14.5 37.15625 16.890625 35.375 
Q 19.28125 33.59375 26.515625 31.984375 
L 29.59375 31.296875 
Q 39.15625 29.25 43.1875 25.515625 
Q 47.21875 21.78125 47.21875 15.09375 
Q 47.21875 7.46875 41.1875 3.015625 
Q 35.15625 -1.421875 24.609375 -1.421875 
Q 20.21875 -1.421875 15.453125 -0.5625 
Q 10.6875 0.296875 5.421875 2 
L 5.421875 11.28125 
Q 10.40625 8.6875 15.234375 7.390625 
Q 20.0625 6.109375 24.8125 6.109375 
Q 31.15625 6.109375 34.5625 8.28125 
Q 37.984375 10.453125 37.984375 14.40625 
Q 37.984375 18.0625 35.515625 20.015625 
Q 33.0625 21.96875 24.703125 23.78125 
L 21.578125 24.515625 
Q 13.234375 26.265625 9.515625 29.90625 
Q 5.8125 33.546875 5.8125 39.890625 
Q 5.8125 47.609375 11.28125 51.796875 
Q 16.75 56 26.8125 56 
Q 31.78125 56 36.171875 55.265625 
Q 40.578125 54.546875 44.28125 53.078125 
z
" id="DejaVuSans-115"/>
       <path d="M 52 44.1875 
Q 55.375 50.25 60.0625 53.125 
Q 64.75 56 71.09375 56 
Q 79.640625 56 84.28125 50.015625 
Q 88.921875 44.046875 88.921875 33.015625 
L 88.921875 0 
L 79.890625 0 
L 79.890625 32.71875 
Q 79.890625 40.578125 77.09375 44.375 
Q 74.3125 48.1875 68.609375 48.1875 
Q 61.625 48.1875 57.5625 43.546875 
Q 53.515625 38.921875 53.515625 30.90625 
L 53.515625 0 
L 44.484375 0 
L 44.484375 32.71875 
Q 44.484375 40.625 41.703125 44.40625 
Q 38.921875 48.1875 33.109375 48.1875 
Q 26.21875 48.1875 22.15625 43.53125 
Q 18.109375 38.875 18.109375 30.90625 
L 18.109375 0 
L 9.078125 0 
L 9.078125 54.6875 
L 18.109375 54.6875 
L 18.109375 46.1875 
Q 21.1875 51.21875 25.484375 53.609375 
Q 29.78125 56 35.6875 56 
Q 41.65625 56 45.828125 52.96875 
Q 50 49.953125 52 44.1875 
z
" id="DejaVuSans-109"/>
       <path d="M 9.421875 54.6875 
L 18.40625 54.6875 
L 18.40625 0 
L 9.421875 0 
z
M 9.421875 75.984375 
L 18.40625 75.984375 
L 18.40625 64.59375 
L 9.421875 64.59375 
z
" id="DejaVuSans-105"/>
       <path d="M 30.609375 48.390625 
Q 23.390625 48.390625 19.1875 42.75 
Q 14.984375 37.109375 14.984375 27.296875 
Q 14.984375 17.484375 19.15625 11.84375 
Q 23.34375 6.203125 30.609375 6.203125 
Q 37.796875 6.203125 41.984375 11.859375 
Q 46.1875 17.53125 46.1875 27.296875 
Q 46.1875 37.015625 41.984375 42.703125 
Q 37.796875 48.390625 30.609375 48.390625 
z
M 30.609375 56 
Q 42.328125 56 49.015625 48.375 
Q 55.71875 40.765625 55.71875 27.296875 
Q 55.71875 13.875 49.015625 6.21875 
Q 42.328125 -1.421875 30.609375 -1.421875 
Q 18.84375 -1.421875 12.171875 6.21875 
Q 5.515625 13.875 5.515625 27.296875 
Q 5.515625 40.765625 12.171875 48.375 
Q 18.84375 56 30.609375 56 
z
" id="DejaVuSans-111"/>
      </defs>
      <use xlink:href="#DejaVuSans-84"/>
      <use x="46.333984" xlink:href="#DejaVuSans-114"/>
      <use x="87.447266" xlink:href="#DejaVuSans-97"/>
      <use x="148.726562" xlink:href="#DejaVuSans-110"/>
      <use x="212.105469" xlink:href="#DejaVuSans-115"/>
      <use x="264.205078" xlink:href="#DejaVuSans-109"/>
      <use x="361.617188" xlink:href="#DejaVuSans-105"/>
      <use x="389.400391" xlink:href="#DejaVuSans-115"/>
      <use x="441.5" xlink:href="#DejaVuSans-115"/>
      <use x="493.599609" xlink:href="#DejaVuSans-105"/>
      <use x="521.382812" xlink:href="#DejaVuSans-111"/>
      <use x="582.564453" xlink:href="#DejaVuSans-110"/>
     </g>
    </g>
   </g>
  </g>
 </g>
 <defs>
  <clipPath id="pb4464058c7">
   <rect height="239.823529" width="558" x="90" y="129.6"/>
  </clipPath>
  <clipPath id="p604104ee55">
   <rect height="239.823529" width="558" x="90" y="417.388235"/>
  </clipPath>
  <clipPath id="pb88a5a0e52">
   <rect height="239.823529" width="558" x="90" y="705.176471"/>
  </clipPath>
 </defs>
</svg>
