<?xml version="1.0" encoding="utf-8" standalone="no"?>
<!DOCTYPE svg PUBLIC "-//W3C//DTD SVG 1.1//EN"
  "http://www.w3.org/Graphics/SVG/1.1/DTD/svg11.dtd">
<!-- Created with matplotlib (https://matplotlib.org/) -->
<svg height="540pt" version="1.1" viewBox="0 0 540 540" width="540pt" xmlns="http://www.w3.org/2000/svg" xmlns:xlink="http://www.w3.org/1999/xlink">
 <metadata>
  <rdf:RDF xmlns:cc="http://creativecommons.org/ns#" xmlns:dc="http://purl.org/dc/elements/1.1/" xmlns:rdf="http://www.w3.org/1999/02/22-rdf-syntax-ns#">
   <cc:Work>
    <dc:type rdf:resource="http://purl.org/dc/dcmitype/StillImage"/>
    <dc:date>2021-04-21T10:25:14.052613</dc:date>
    <dc:format>image/svg+xml</dc:format>
    <dc:creator>
     <cc:Agent>
      <dc:title>Matplotlib v3.3.2, https://matplotlib.org/</dc:title>
     </cc:Agent>
    </dc:creator>
   </cc:Work>
  </rdf:RDF>
 </metadata>
 <defs>
  <style type="text/css">*{stroke-linecap:butt;stroke-linejoin:round;}</style>
 </defs>
 <g id="figure_1">
  <g id="patch_1">
   <path d="M 0 540 
L 540 540 
L 540 0 
L 0 0 
z
" style="fill:none;"/>
  </g>
  <g id="axes_1">
   <g id="patch_2">
    <path d="M 67.5 472.5 
L 486 472.5 
L 486 64.8 
L 67.5 64.8 
z
" style="fill:#ffffff;"/>
   </g>
   <g id="matplotlib.axis_1">
    <g id="xtick_1">
     <g id="line2d_1">
      <defs>
       <path d="M 0 0 
L 0 3.5 
" id="me22717e9aa" style="stroke:#000000;stroke-width:0.8;"/>
      </defs>
      <g>
       <use style="stroke:#000000;stroke-width:0.8;" x="86.522727" xlink:href="#me22717e9aa" y="472.5"/>
      </g>
     </g>
     <g id="text_1">
      <!-- −10 -->
      <g transform="translate(54.865696 502.295313)scale(0.3 -0.3)">
       <defs>
        <path d="M 10.59375 35.5 
L 73.1875 35.5 
L 73.1875 27.203125 
L 10.59375 27.203125 
z
" id="DejaVuSans-8722"/>
        <path d="M 12.40625 8.296875 
L 28.515625 8.296875 
L 28.515625 63.921875 
L 10.984375 60.40625 
L 10.984375 69.390625 
L 28.421875 72.90625 
L 38.28125 72.90625 
L 38.28125 8.296875 
L 54.390625 8.296875 
L 54.390625 0 
L 12.40625 0 
z
" id="DejaVuSans-49"/>
        <path d="M 31.78125 66.40625 
Q 24.171875 66.40625 20.328125 58.90625 
Q 16.5 51.421875 16.5 36.375 
Q 16.5 21.390625 20.328125 13.890625 
Q 24.171875 6.390625 31.78125 6.390625 
Q 39.453125 6.390625 43.28125 13.890625 
Q 47.125 21.390625 47.125 36.375 
Q 47.125 51.421875 43.28125 58.90625 
Q 39.453125 66.40625 31.78125 66.40625 
z
M 31.78125 74.21875 
Q 44.046875 74.21875 50.515625 64.515625 
Q 56.984375 54.828125 56.984375 36.375 
Q 56.984375 17.96875 50.515625 8.265625 
Q 44.046875 -1.421875 31.78125 -1.421875 
Q 19.53125 -1.421875 13.0625 8.265625 
Q 6.59375 17.96875 6.59375 36.375 
Q 6.59375 54.828125 13.0625 64.515625 
Q 19.53125 74.21875 31.78125 74.21875 
z
" id="DejaVuSans-48"/>
       </defs>
       <use xlink:href="#DejaVuSans-8722"/>
       <use x="83.789062" xlink:href="#DejaVuSans-49"/>
       <use x="147.412109" xlink:href="#DejaVuSans-48"/>
      </g>
     </g>
    </g>
    <g id="xtick_2">
     <g id="line2d_2">
      <g>
       <use style="stroke:#000000;stroke-width:0.8;" x="276.75" xlink:href="#me22717e9aa" y="472.5"/>
      </g>
     </g>
     <g id="text_2">
      <!-- 0 -->
      <g transform="translate(267.20625 502.295313)scale(0.3 -0.3)">
       <use xlink:href="#DejaVuSans-48"/>
      </g>
     </g>
    </g>
    <g id="xtick_3">
     <g id="line2d_3">
      <g>
       <use style="stroke:#000000;stroke-width:0.8;" x="466.977273" xlink:href="#me22717e9aa" y="472.5"/>
      </g>
     </g>
     <g id="text_3">
      <!-- 10 -->
      <g transform="translate(447.889773 502.295313)scale(0.3 -0.3)">
       <use xlink:href="#DejaVuSans-49"/>
       <use x="63.623047" xlink:href="#DejaVuSans-48"/>
      </g>
     </g>
    </g>
    <g id="text_4">
     <!-- $\omega-\omega_{c}$/ $\kappa$ -->
     <g transform="translate(208.35 535.329687)scale(0.3 -0.3)">
      <defs>
       <path d="M 21.390625 -1.421875 
Q 1.125 -1.421875 6.78125 27.59375 
Q 8.984375 39.0625 19.625 54.6875 
L 29.296875 54.6875 
Q 19.234375 39.0625 17 27.34375 
Q 12.796875 6.203125 23.734375 6.203125 
Q 33.84375 6.203125 38.71875 32.46875 
L 47.015625 32.46875 
Q 41.703125 6.0625 51.8125 6.203125 
Q 62.703125 6.296875 66.796875 27.34375 
Q 69.046875 39.0625 65.140625 54.6875 
L 74.8125 54.6875 
Q 79.296875 39.0625 77.09375 27.59375 
Q 71.53125 -1.46875 51.21875 -1.421875 
Q 37.9375 -1.375 39.109375 13.1875 
Q 34.28125 -1.421875 21.390625 -1.421875 
z
" id="DejaVuSans-Oblique-969"/>
       <path d="M 53.609375 52.59375 
L 51.8125 43.703125 
Q 48.578125 46.046875 44.9375 47.21875 
Q 41.3125 48.390625 37.40625 48.390625 
Q 33.109375 48.390625 29.21875 46.875 
Q 25.34375 45.359375 22.703125 42.578125 
Q 18.5 38.328125 16.203125 32.609375 
Q 13.921875 26.90625 13.921875 20.796875 
Q 13.921875 13.421875 17.609375 9.8125 
Q 21.296875 6.203125 28.8125 6.203125 
Q 32.515625 6.203125 36.6875 7.328125 
Q 40.875 8.453125 45.40625 10.6875 
L 43.703125 1.8125 
Q 39.796875 0.203125 35.671875 -0.609375 
Q 31.546875 -1.421875 27.203125 -1.421875 
Q 16.3125 -1.421875 10.453125 4.015625 
Q 4.59375 9.46875 4.59375 19.578125 
Q 4.59375 28.078125 7.640625 35.234375 
Q 10.6875 42.390625 16.703125 48.09375 
Q 20.796875 52 26.3125 54 
Q 31.84375 56 38.375 56 
Q 42.1875 56 45.9375 55.140625 
Q 49.703125 54.296875 53.609375 52.59375 
z
" id="DejaVuSans-Oblique-99"/>
       <path d="M 25.390625 72.90625 
L 33.6875 72.90625 
L 8.296875 -9.28125 
L 0 -9.28125 
z
" id="DejaVuSans-47"/>
       <path id="DejaVuSans-32"/>
       <path d="M 14.65625 54.6875 
L 23.921875 54.6875 
L 19.484375 31.984375 
L 47.515625 54.6875 
L 58.453125 54.6875 
L 32.90625 34.078125 
L 51.171875 0 
L 40.1875 0 
L 25.4375 28.21875 
L 17.53125 21.921875 
L 13.28125 0 
L 4 0 
z
" id="DejaVuSans-Oblique-954"/>
      </defs>
      <use transform="translate(0 0.09375)" xlink:href="#DejaVuSans-Oblique-969"/>
      <use transform="translate(103.222656 0.09375)" xlink:href="#DejaVuSans-8722"/>
      <use transform="translate(206.494141 0.09375)" xlink:href="#DejaVuSans-Oblique-969"/>
      <use transform="translate(290.234375 -16.3125)scale(0.7)" xlink:href="#DejaVuSans-Oblique-99"/>
      <use transform="translate(331.455078 0.09375)" xlink:href="#DejaVuSans-47"/>
      <use transform="translate(365.146484 0.09375)" xlink:href="#DejaVuSans-32"/>
      <use transform="translate(396.933594 0.09375)" xlink:href="#DejaVuSans-Oblique-954"/>
     </g>
    </g>
   </g>
   <g id="matplotlib.axis_2">
    <g id="ytick_1">
     <g id="line2d_4">
      <defs>
       <path d="M 0 0 
L -3.5 0 
" id="m3e04ef147b" style="stroke:#000000;stroke-width:0.8;"/>
      </defs>
      <g>
       <use style="stroke:#000000;stroke-width:0.8;" x="67.5" xlink:href="#m3e04ef147b" y="472.5"/>
      </g>
     </g>
     <g id="text_5">
      <!-- 0.0 -->
      <g transform="translate(12.790625 483.897656)scale(0.3 -0.3)">
       <defs>
        <path d="M 10.6875 12.40625 
L 21 12.40625 
L 21 0 
L 10.6875 0 
z
" id="DejaVuSans-46"/>
       </defs>
       <use xlink:href="#DejaVuSans-48"/>
       <use x="63.623047" xlink:href="#DejaVuSans-46"/>
       <use x="95.410156" xlink:href="#DejaVuSans-48"/>
      </g>
     </g>
    </g>
    <g id="ytick_2">
     <g id="line2d_5">
      <g>
       <use style="stroke:#000000;stroke-width:0.8;" x="67.5" xlink:href="#m3e04ef147b" y="404.55"/>
      </g>
     </g>
     <g id="text_6">
      <!-- 0.5 -->
      <g transform="translate(12.790625 415.947656)scale(0.3 -0.3)">
       <defs>
        <path d="M 10.796875 72.90625 
L 49.515625 72.90625 
L 49.515625 64.59375 
L 19.828125 64.59375 
L 19.828125 46.734375 
Q 21.96875 47.46875 24.109375 47.828125 
Q 26.265625 48.1875 28.421875 48.1875 
Q 40.625 48.1875 47.75 41.5 
Q 54.890625 34.8125 54.890625 23.390625 
Q 54.890625 11.625 47.5625 5.09375 
Q 40.234375 -1.421875 26.90625 -1.421875 
Q 22.3125 -1.421875 17.546875 -0.640625 
Q 12.796875 0.140625 7.71875 1.703125 
L 7.71875 11.625 
Q 12.109375 9.234375 16.796875 8.0625 
Q 21.484375 6.890625 26.703125 6.890625 
Q 35.15625 6.890625 40.078125 11.328125 
Q 45.015625 15.765625 45.015625 23.390625 
Q 45.015625 31 40.078125 35.4375 
Q 35.15625 39.890625 26.703125 39.890625 
Q 22.75 39.890625 18.8125 39.015625 
Q 14.890625 38.140625 10.796875 36.28125 
z
" id="DejaVuSans-53"/>
       </defs>
       <use xlink:href="#DejaVuSans-48"/>
       <use x="63.623047" xlink:href="#DejaVuSans-46"/>
       <use x="95.410156" xlink:href="#DejaVuSans-53"/>
      </g>
     </g>
    </g>
    <g id="ytick_3">
     <g id="line2d_6">
      <g>
       <use style="stroke:#000000;stroke-width:0.8;" x="67.5" xlink:href="#m3e04ef147b" y="336.6"/>
      </g>
     </g>
     <g id="text_7">
      <!-- 1.0 -->
      <g transform="translate(12.790625 347.997656)scale(0.3 -0.3)">
       <use xlink:href="#DejaVuSans-49"/>
       <use x="63.623047" xlink:href="#DejaVuSans-46"/>
       <use x="95.410156" xlink:href="#DejaVuSans-48"/>
      </g>
     </g>
    </g>
    <g id="ytick_4">
     <g id="line2d_7">
      <g>
       <use style="stroke:#000000;stroke-width:0.8;" x="67.5" xlink:href="#m3e04ef147b" y="268.65"/>
      </g>
     </g>
     <g id="text_8">
      <!-- 1.5 -->
      <g transform="translate(12.790625 280.047656)scale(0.3 -0.3)">
       <use xlink:href="#DejaVuSans-49"/>
       <use x="63.623047" xlink:href="#DejaVuSans-46"/>
       <use x="95.410156" xlink:href="#DejaVuSans-53"/>
      </g>
     </g>
    </g>
    <g id="ytick_5">
     <g id="line2d_8">
      <g>
       <use style="stroke:#000000;stroke-width:0.8;" x="67.5" xlink:href="#m3e04ef147b" y="200.7"/>
      </g>
     </g>
     <g id="text_9">
      <!-- 2.0 -->
      <g transform="translate(12.790625 212.097656)scale(0.3 -0.3)">
       <defs>
        <path d="M 19.1875 8.296875 
L 53.609375 8.296875 
L 53.609375 0 
L 7.328125 0 
L 7.328125 8.296875 
Q 12.9375 14.109375 22.625 23.890625 
Q 32.328125 33.6875 34.8125 36.53125 
Q 39.546875 41.84375 41.421875 45.53125 
Q 43.3125 49.21875 43.3125 52.78125 
Q 43.3125 58.59375 39.234375 62.25 
Q 35.15625 65.921875 28.609375 65.921875 
Q 23.96875 65.921875 18.8125 64.3125 
Q 13.671875 62.703125 7.8125 59.421875 
L 7.8125 69.390625 
Q 13.765625 71.78125 18.9375 73 
Q 24.125 74.21875 28.421875 74.21875 
Q 39.75 74.21875 46.484375 68.546875 
Q 53.21875 62.890625 53.21875 53.421875 
Q 53.21875 48.921875 51.53125 44.890625 
Q 49.859375 40.875 45.40625 35.40625 
Q 44.1875 33.984375 37.640625 27.21875 
Q 31.109375 20.453125 19.1875 8.296875 
z
" id="DejaVuSans-50"/>
       </defs>
       <use xlink:href="#DejaVuSans-50"/>
       <use x="63.623047" xlink:href="#DejaVuSans-46"/>
       <use x="95.410156" xlink:href="#DejaVuSans-48"/>
      </g>
     </g>
    </g>
    <g id="ytick_6">
     <g id="line2d_9">
      <g>
       <use style="stroke:#000000;stroke-width:0.8;" x="67.5" xlink:href="#m3e04ef147b" y="132.75"/>
      </g>
     </g>
     <g id="text_10">
      <!-- 2.5 -->
      <g transform="translate(12.790625 144.147656)scale(0.3 -0.3)">
       <use xlink:href="#DejaVuSans-50"/>
       <use x="63.623047" xlink:href="#DejaVuSans-46"/>
       <use x="95.410156" xlink:href="#DejaVuSans-53"/>
      </g>
     </g>
    </g>
    <g id="ytick_7">
     <g id="line2d_10">
      <g>
       <use style="stroke:#000000;stroke-width:0.8;" x="67.5" xlink:href="#m3e04ef147b" y="64.8"/>
      </g>
     </g>
     <g id="text_11">
      <!-- 3.0 -->
      <g transform="translate(12.790625 76.197656)scale(0.3 -0.3)">
       <defs>
        <path d="M 40.578125 39.3125 
Q 47.65625 37.796875 51.625 33 
Q 55.609375 28.21875 55.609375 21.1875 
Q 55.609375 10.40625 48.1875 4.484375 
Q 40.765625 -1.421875 27.09375 -1.421875 
Q 22.515625 -1.421875 17.65625 -0.515625 
Q 12.796875 0.390625 7.625 2.203125 
L 7.625 11.71875 
Q 11.71875 9.328125 16.59375 8.109375 
Q 21.484375 6.890625 26.8125 6.890625 
Q 36.078125 6.890625 40.9375 10.546875 
Q 45.796875 14.203125 45.796875 21.1875 
Q 45.796875 27.640625 41.28125 31.265625 
Q 36.765625 34.90625 28.71875 34.90625 
L 20.21875 34.90625 
L 20.21875 43.015625 
L 29.109375 43.015625 
Q 36.375 43.015625 40.234375 45.921875 
Q 44.09375 48.828125 44.09375 54.296875 
Q 44.09375 59.90625 40.109375 62.90625 
Q 36.140625 65.921875 28.71875 65.921875 
Q 24.65625 65.921875 20.015625 65.03125 
Q 15.375 64.15625 9.8125 62.3125 
L 9.8125 71.09375 
Q 15.4375 72.65625 20.34375 73.4375 
Q 25.25 74.21875 29.59375 74.21875 
Q 40.828125 74.21875 47.359375 69.109375 
Q 53.90625 64.015625 53.90625 55.328125 
Q 53.90625 49.265625 50.4375 45.09375 
Q 46.96875 40.921875 40.578125 39.3125 
z
" id="DejaVuSans-51"/>
       </defs>
       <use xlink:href="#DejaVuSans-51"/>
       <use x="63.623047" xlink:href="#DejaVuSans-46"/>
       <use x="95.410156" xlink:href="#DejaVuSans-48"/>
      </g>
     </g>
    </g>
    <g id="text_12">
     <!-- $g^{(2)}(0)$ -->
     <g transform="translate(2.490625 315.45)rotate(-90)scale(0.3 -0.3)">
      <defs>
       <path d="M 59.625 54.6875 
L 50.296875 6.78125 
Q 47.609375 -7.125 40.015625 -13.953125 
Q 32.421875 -20.796875 19.578125 -20.796875 
Q 14.84375 -20.796875 10.78125 -20.09375 
Q 6.734375 -19.390625 3.21875 -17.921875 
L 4.890625 -9.1875 
Q 8.203125 -11.328125 11.90625 -12.34375 
Q 15.625 -13.375 19.828125 -13.375 
Q 28.375 -13.375 33.859375 -8.703125 
Q 39.359375 -4.046875 41.109375 4.6875 
L 41.890625 8.796875 
Q 38.140625 4.5 33.15625 2.25 
Q 28.171875 0 22.40625 0 
Q 14.109375 0 9.34375 5.484375 
Q 4.59375 10.984375 4.59375 20.609375 
Q 4.59375 28.171875 7.46875 35.421875 
Q 10.359375 42.671875 15.578125 48.296875 
Q 19.046875 52 23.65625 54 
Q 28.265625 56 33.296875 56 
Q 38.8125 56 42.90625 53.4375 
Q 47.015625 50.875 49.03125 46.1875 
L 50.59375 54.6875 
z
M 46.09375 34.625 
Q 46.09375 41.265625 42.96875 44.875 
Q 39.84375 48.484375 34.078125 48.484375 
Q 30.515625 48.484375 27.296875 47.0625 
Q 24.078125 45.65625 21.78125 43.109375 
Q 18.0625 38.921875 15.984375 33.234375 
Q 13.921875 27.546875 13.921875 21.484375 
Q 13.921875 14.75 17.0625 11.125 
Q 20.21875 7.515625 26.125 7.515625 
Q 34.671875 7.515625 40.375 15.25 
Q 46.09375 23 46.09375 34.625 
z
" id="DejaVuSans-Oblique-103"/>
       <path d="M 31 75.875 
Q 24.46875 64.65625 21.28125 53.65625 
Q 18.109375 42.671875 18.109375 31.390625 
Q 18.109375 20.125 21.3125 9.0625 
Q 24.515625 -2 31 -13.1875 
L 23.1875 -13.1875 
Q 15.875 -1.703125 12.234375 9.375 
Q 8.59375 20.453125 8.59375 31.390625 
Q 8.59375 42.28125 12.203125 53.3125 
Q 15.828125 64.359375 23.1875 75.875 
z
" id="DejaVuSans-40"/>
       <path d="M 8.015625 75.875 
L 15.828125 75.875 
Q 23.140625 64.359375 26.78125 53.3125 
Q 30.421875 42.28125 30.421875 31.390625 
Q 30.421875 20.453125 26.78125 9.375 
Q 23.140625 -1.703125 15.828125 -13.1875 
L 8.015625 -13.1875 
Q 14.5 -2 17.703125 9.0625 
Q 20.90625 20.125 20.90625 31.390625 
Q 20.90625 42.671875 17.703125 53.65625 
Q 14.5 64.65625 8.015625 75.875 
z
" id="DejaVuSans-41"/>
      </defs>
      <use transform="translate(0 0.60625)" xlink:href="#DejaVuSans-Oblique-103"/>
      <use transform="translate(68.126458 38.8875)scale(0.7)" xlink:href="#DejaVuSans-40"/>
      <use transform="translate(95.436029 38.8875)scale(0.7)" xlink:href="#DejaVuSans-50"/>
      <use transform="translate(139.972161 38.8875)scale(0.7)" xlink:href="#DejaVuSans-41"/>
      <use transform="translate(170.016107 0.60625)" xlink:href="#DejaVuSans-40"/>
      <use transform="translate(209.029779 0.60625)" xlink:href="#DejaVuSans-48"/>
      <use transform="translate(272.652826 0.60625)" xlink:href="#DejaVuSans-41"/>
     </g>
    </g>
   </g>
   <g id="line2d_11">
    <path clip-path="url(#p83ef80732b)" d="M 86.522727 336.613835 
L 171.915331 336.750981 
L 193.263482 336.976444 
L 205.462425 337.310021 
L 213.086764 337.717959 
L 218.423802 338.188034 
L 222.998406 338.801945 
L 226.810576 339.553326 
L 229.860312 340.394232 
L 232.147613 341.225263 
L 234.434915 342.291396 
L 236.722217 343.673643 
L 238.247085 344.82461 
L 239.771953 346.208364 
L 241.296821 347.878202 
L 242.821689 349.899041 
L 244.346557 352.347008 
L 245.871425 355.306637 
L 247.396293 358.858395 
L 248.921161 363.048074 
L 251.208462 370.318286 
L 252.73333 375.107474 
L 253.495764 377.003148 
L 254.258198 378.121998 
L 255.020632 377.910047 
L 255.783066 375.541568 
L 256.5455 369.807127 
L 257.307934 358.971297 
L 258.070368 340.606499 
L 258.832802 311.425556 
L 259.595236 267.159988 
L 260.35767 202.55041 
L 261.120104 111.502827 
L 261.811202 -1 
M 290.926365 -1 
L 291.617462 111.502794 
L 292.379896 202.550523 
L 293.14233 267.159907 
L 293.904764 311.425378 
L 294.667198 340.606329 
L 295.429632 358.971289 
L 296.192066 369.807029 
L 296.9545 375.541446 
L 297.716934 377.909958 
L 298.479368 378.121893 
L 299.241802 377.003051 
L 300.004236 375.107345 
L 301.529104 370.318278 
L 303.816406 363.047985 
L 305.341273 358.858265 
L 306.866141 355.306523 
L 308.391009 352.346927 
L 309.915877 349.898879 
L 311.440745 347.878121 
L 312.965613 346.20825 
L 314.490481 344.824497 
L 316.015349 343.673635 
L 318.302651 342.291299 
L 320.589953 341.225174 
L 322.877255 340.394167 
L 325.92699 339.553245 
L 328.976726 338.931242 
L 332.788896 338.365778 
L 338.125934 337.832165 
L 344.987839 337.409306 
L 354.137047 337.090901 
L 367.860858 336.856325 
L 391.496311 336.70225 
L 446.391556 336.621458 
L 466.977273 336.613617 
L 466.977273 336.613617 
" style="fill:none;stroke:#1f77b4;stroke-linecap:square;stroke-width:5;"/>
   </g>
   <g id="line2d_12">
    <path clip-path="url(#p83ef80732b)" d="M 86.522727 472.151402 
L 135.318501 471.859305 
L 162.766123 471.49482 
L 181.064538 471.041232 
L 193.263482 470.537542 
L 202.412689 469.959084 
L 209.274595 469.331138 
L 214.611632 468.658126 
L 219.186236 467.884881 
L 222.998406 467.036196 
L 226.048142 466.165877 
L 229.097878 465.055565 
L 231.385179 464.006359 
L 233.672481 462.703016 
L 235.959783 461.05298 
L 237.484651 459.694245 
L 239.009519 458.062343 
L 240.534387 456.077122 
L 242.059255 453.627079 
L 243.584123 450.554095 
L 245.108991 446.629589 
L 246.633859 441.517441 
L 247.396293 438.368219 
L 248.158727 434.71801 
L 248.921161 430.466437 
L 249.683594 425.493612 
L 250.446028 419.660133 
L 251.208462 412.812135 
L 251.970896 404.797042 
L 253.495764 384.921868 
L 255.783066 350.309717 
L 256.5455 342.229656 
L 257.307934 339.277747 
L 258.070368 342.883542 
L 258.832802 352.78789 
L 260.35767 383.07806 
L 261.882538 412.639518 
L 262.644972 424.448932 
L 263.407406 434.146293 
L 264.16984 441.979488 
L 264.932274 448.260048 
L 265.694708 453.285804 
L 266.457142 457.311961 
L 267.219576 460.545911 
L 267.982009 463.151582 
L 268.744443 465.256763 
L 269.506877 466.960405 
L 270.269311 468.33892 
L 271.031745 469.451229 
L 271.794179 470.342695 
L 272.556613 471.048112 
L 273.319047 471.593929 
L 274.843915 472.280359 
L 276.368783 472.499155 
L 277.893651 472.280359 
L 278.656085 471.999916 
L 279.418519 471.59393 
L 280.180953 471.04811 
L 280.943387 470.342695 
L 281.705821 469.451228 
L 282.468255 468.338919 
L 283.230689 466.960405 
L 283.993123 465.256761 
L 284.755557 463.151578 
L 285.517991 460.545909 
L 286.280424 457.311955 
L 287.042858 453.2858 
L 287.805292 448.260046 
L 288.567726 441.979482 
L 289.33016 434.146293 
L 290.092594 424.44894 
L 290.855028 412.639514 
L 292.379896 383.078052 
L 293.904764 352.787955 
L 294.667198 342.883615 
L 295.429632 339.27778 
L 296.192066 342.229729 
L 296.9545 350.309847 
L 300.76667 404.797099 
L 302.291538 419.660165 
L 303.053972 425.49364 
L 304.578839 434.718026 
L 306.103707 441.517451 
L 307.628575 446.629603 
L 309.153443 450.554103 
L 310.678311 453.627083 
L 312.203179 456.077126 
L 313.728047 458.062349 
L 315.252915 459.694248 
L 316.777783 461.052982 
L 319.065085 462.703019 
L 321.352387 464.006361 
L 323.639688 465.055567 
L 326.689424 466.16588 
L 329.73916 467.036197 
L 333.55133 467.884882 
L 338.125934 468.658126 
L 343.462971 469.331138 
L 350.324877 469.959085 
L 358.711651 470.497496 
L 370.14816 470.989861 
L 385.396839 471.404001 
L 406.74499 471.745957 
L 439.52965 472.025073 
L 466.977273 472.154234 
L 466.977273 472.154234 
" style="fill:none;stroke:#1f77b4;stroke-dasharray:11.1,4.8;stroke-dashoffset:0;stroke-width:3;"/>
   </g>
   <g id="line2d_13">
    <path clip-path="url(#p83ef80732b)" d="M 86.522727 336.751904 
L 123.881991 336.985889 
L 143.705274 337.310337 
L 156.666651 337.728919 
L 165.815859 338.231816 
L 172.677765 338.814055 
L 178.014802 339.466686 
L 182.589406 340.240886 
L 186.401576 341.109146 
L 189.451312 342.010617 
L 192.501048 343.166355 
L 194.788349 344.256474 
L 197.075651 345.598608 
L 199.362953 347.267182 
L 200.887821 348.60781 
L 202.412689 350.170554 
L 203.937557 351.992419 
L 205.462425 354.106314 
L 206.987293 356.523881 
L 210.799463 363.056523 
L 211.561897 363.934163 
L 212.32433 364.274747 
L 213.086764 363.724026 
L 213.849198 361.785849 
L 214.611632 357.82864 
L 215.374066 351.179111 
L 216.1365 341.369294 
L 216.898934 328.525893 
L 219.186236 285.481521 
L 219.94867 275.288075 
L 220.711104 268.401484 
L 221.473538 264.392222 
L 222.235972 262.543384 
L 222.998406 262.152967 
L 223.76084 262.662037 
L 224.523274 263.672643 
L 228.335444 269.762977 
L 229.860312 271.430629 
L 230.622745 272.030762 
L 231.385179 272.475677 
L 232.147613 272.76753 
L 232.910047 272.909673 
L 233.672481 272.904684 
L 234.434915 272.754812 
L 235.197349 272.461356 
L 235.959783 272.024832 
L 236.722217 271.444723 
L 238.247085 269.844758 
L 239.771953 267.632865 
L 241.296821 264.757787 
L 242.821689 261.143381 
L 244.346557 256.681639 
L 245.871425 251.226349 
L 247.396293 244.578748 
L 248.921161 236.471494 
L 250.446028 226.540562 
L 251.970896 214.284819 
L 253.495764 199.002507 
L 255.020632 179.68848 
L 256.5455 154.872003 
L 257.307934 139.744552 
L 258.070368 122.324659 
L 258.832802 102.133664 
L 259.595236 78.563722 
L 260.35767 50.83024 
L 261.485493 -1 
M 291.252047 -1 
L 291.617462 17.910738 
L 292.379896 50.831374 
L 293.14233 78.56356 
L 294.667198 122.323946 
L 296.192066 154.87129 
L 297.716934 179.68822 
L 299.241802 199.001438 
L 300.76667 214.283928 
L 302.291538 226.540335 
L 303.816406 236.471057 
L 305.341273 244.578456 
L 306.866141 251.225879 
L 308.391009 256.681298 
L 309.915877 261.142912 
L 311.440745 264.757415 
L 312.965613 267.632347 
L 314.490481 269.844369 
L 316.015349 271.44414 
L 316.777783 272.024427 
L 317.540217 272.460886 
L 318.302651 272.754294 
L 319.065085 272.904214 
L 319.827519 272.909333 
L 320.589953 272.767238 
L 321.352387 272.475191 
L 322.114821 272.030243 
L 322.877255 271.429916 
L 324.402122 269.7622 
L 325.92699 267.51755 
L 328.214292 263.671703 
L 328.976726 262.661 
L 329.73916 262.151946 
L 330.501594 262.542331 
L 331.264028 264.391234 
L 332.026462 268.400706 
L 332.788896 275.287395 
L 333.55133 285.481132 
L 335.076198 313.691866 
L 336.601066 341.369667 
L 337.3635 351.179532 
L 338.125934 357.829094 
L 338.888368 361.786384 
L 339.650802 363.72452 
L 340.413236 364.275144 
L 341.17567 363.934657 
L 341.938103 363.056968 
L 343.462971 360.5598 
L 346.512707 355.278594 
L 348.037575 353.011636 
L 349.562443 351.047214 
L 351.087311 349.35941 
L 352.612179 347.912272 
L 354.899481 346.114465 
L 357.186783 344.672795 
L 359.474085 343.505757 
L 361.761386 342.551771 
L 364.811122 341.532992 
L 367.860858 340.732353 
L 371.673028 339.95544 
L 376.247632 339.257237 
L 381.584669 338.663917 
L 388.446575 338.130433 
L 397.595782 337.665672 
L 409.794726 337.292597 
L 427.330707 337.003126 
L 455.540763 336.793831 
L 466.977273 336.74945 
L 466.977273 336.74945 
" style="fill:none;stroke:#ff7f0e;stroke-linecap:square;stroke-width:5;"/>
   </g>
   <g id="line2d_14">
    <path clip-path="url(#p83ef80732b)" d="M 86.522727 472.077741 
L 123.119557 471.768401 
L 143.705274 471.395373 
L 157.429085 470.938441 
L 166.578293 470.433797 
L 173.440199 469.854196 
L 178.777236 469.195366 
L 183.35184 468.389619 
L 186.401576 467.659782 
L 189.451312 466.69746 
L 191.738614 465.757317 
L 194.025915 464.54978 
L 195.550783 463.542419 
L 197.075651 462.318652 
L 198.600519 460.811606 
L 200.125387 458.92708 
L 201.650255 456.529663 
L 203.175123 453.42039 
L 203.937557 451.51084 
L 204.699991 449.300884 
L 205.462425 446.72827 
L 206.224859 443.715694 
L 206.987293 440.167338 
L 207.749727 435.965023 
L 208.512161 430.965094 
L 209.274595 424.997385 
L 210.037029 417.870641 
L 210.799463 409.392083 
L 211.561897 399.41489 
L 213.086764 375.260553 
L 214.611632 350.452306 
L 215.374066 342.094171 
L 216.1365 339.292433 
L 216.898934 343.026237 
L 217.661368 352.490456 
L 219.186236 379.847202 
L 220.711104 405.956426 
L 221.473538 416.507645 
L 222.235972 425.322789 
L 222.998406 432.599976 
L 223.76084 438.582014 
L 224.523274 443.501604 
L 225.285708 447.56066 
L 226.048142 450.92611 
L 226.810576 453.732563 
L 227.57301 456.087252 
L 229.097878 459.764076 
L 230.622745 462.447639 
L 232.147613 464.450524 
L 233.672481 465.975649 
L 235.197349 467.157834 
L 236.722217 468.08872 
L 239.009519 469.147886 
L 241.296821 469.923631 
L 244.346557 470.665578 
L 248.158727 471.291644 
L 252.73333 471.774903 
L 258.832802 472.157855 
L 266.457142 472.403066 
L 276.368783 472.499992 
L 287.042858 472.38659 
L 295.429632 472.082093 
L 301.529104 471.637967 
L 306.103707 471.072198 
L 309.153443 470.504668 
L 312.203179 469.690253 
L 314.490481 468.831971 
L 316.015349 468.088719 
L 317.540217 467.157832 
L 319.065085 465.975645 
L 320.589953 464.450517 
L 322.114821 462.447635 
L 323.639688 459.76407 
L 324.402122 458.075272 
L 325.164556 456.087253 
L 325.92699 453.732561 
L 326.689424 450.926106 
L 327.451858 447.560658 
L 328.214292 443.5016 
L 328.976726 438.58201 
L 329.73916 432.599963 
L 330.501594 425.322777 
L 331.264028 416.507633 
L 332.026462 405.956393 
L 333.55133 379.847154 
L 335.076198 352.490407 
L 335.838632 343.026188 
L 336.601066 339.292368 
L 337.3635 342.094114 
L 338.125934 350.452274 
L 339.650802 375.260521 
L 341.17567 399.414865 
L 341.938103 409.392059 
L 342.700537 417.870641 
L 343.462971 424.997365 
L 344.225405 430.965086 
L 344.987839 435.965006 
L 345.750273 440.167334 
L 346.512707 443.715692 
L 348.037575 449.300884 
L 349.562443 453.420386 
L 351.087311 456.52966 
L 352.612179 458.927078 
L 354.137047 460.811601 
L 355.661915 462.318652 
L 357.186783 463.542418 
L 358.711651 464.549779 
L 360.998952 465.757317 
L 363.286254 466.697459 
L 366.33599 467.659781 
L 369.385726 468.389618 
L 373.197896 469.079706 
L 377.7725 469.689234 
L 383.871971 470.265521 
L 391.496311 470.755374 
L 402.170386 471.198617 
L 416.656631 471.563187 
L 438.767216 471.873371 
L 466.977273 472.081849 
L 466.977273 472.081849 
" style="fill:none;stroke:#ff7f0e;stroke-dasharray:11.1,4.8;stroke-dashoffset:0;stroke-width:3;"/>
   </g>
   <g id="line2d_15">
    <path clip-path="url(#p83ef80732b)" d="M 86.522727 337.956504 
L 96.434369 338.483378 
L 104.058708 339.105697 
L 110.15818 339.838043 
L 114.732784 340.60893 
L 118.544954 341.474986 
L 121.594689 342.38139 
L 124.644425 343.557874 
L 126.931727 344.681884 
L 129.219029 346.076459 
L 131.506331 347.794567 
L 136.080935 351.702867 
L 136.843369 352.065848 
L 137.605803 352.096718 
L 138.368236 351.592144 
L 139.13067 350.284679 
L 139.893104 347.876606 
L 140.655538 344.140348 
L 141.417972 339.089294 
L 143.705274 321.677032 
L 144.467708 317.568996 
L 145.230142 314.856312 
L 145.992576 313.357697 
L 146.75501 312.768808 
L 147.517444 312.793319 
L 148.279878 313.198073 
L 149.804746 314.546185 
L 152.854482 317.523408 
L 155.141784 319.366025 
L 157.429085 320.822988 
L 159.716387 321.96187 
L 162.003689 322.851863 
L 165.053425 323.744027 
L 168.103161 324.383041 
L 171.915331 324.917222 
L 175.7275 325.227932 
L 180.302104 325.368958 
L 184.876708 325.298971 
L 190.213746 324.976402 
L 194.788349 324.495846 
L 199.362953 323.813171 
L 203.937557 322.900125 
L 207.749727 321.931154 
L 211.561897 320.733853 
L 214.611632 319.576681 
L 217.661368 318.204138 
L 220.711104 316.569811 
L 222.998406 315.135318 
L 225.285708 313.486119 
L 227.57301 311.579866 
L 229.860312 309.363616 
L 232.147613 306.76952 
L 234.434915 303.710291 
L 235.959783 301.356125 
L 237.484651 298.698329 
L 239.009519 295.688932 
L 240.534387 292.259083 
L 242.059255 288.327017 
L 243.584123 283.790347 
L 245.108991 278.519549 
L 246.633859 272.339544 
L 248.158727 265.044197 
L 249.683594 256.328645 
L 251.208462 245.798082 
L 252.73333 232.913061 
L 254.258198 216.916646 
L 255.783066 196.68719 
L 257.307934 170.602114 
L 258.070368 154.62556 
L 258.832802 136.162126 
L 259.595236 114.632869 
L 260.35767 89.389378 
L 261.120104 59.423656 
L 262.314809 -1 
M 290.423672 -1 
L 290.855028 23.536732 
L 291.617462 59.362223 
L 292.379896 89.326844 
L 293.14233 114.606688 
L 294.667198 154.618788 
L 296.192066 184.482706 
L 297.716934 207.394032 
L 299.241802 225.346614 
L 300.76667 239.6862 
L 302.291538 251.308842 
L 303.816406 260.879053 
L 305.341273 268.845832 
L 306.866141 275.552808 
L 308.391009 281.254605 
L 309.915877 286.138826 
L 311.440745 290.360493 
L 312.965613 294.029802 
L 314.490481 297.241625 
L 316.015349 300.067048 
L 318.302651 303.708784 
L 320.589953 306.769876 
L 322.877255 309.362579 
L 325.164556 311.578813 
L 327.451858 313.485487 
L 329.73916 315.134864 
L 332.788896 317.005671 
L 335.838632 318.569736 
L 338.888368 319.884588 
L 342.700537 321.242955 
L 346.512707 322.343733 
L 350.324877 323.232446 
L 354.899481 324.064765 
L 359.474085 324.677681 
L 364.811122 325.145957 
L 370.14816 325.359124 
L 374.722764 325.327322 
L 379.297367 325.06557 
L 383.109537 324.627961 
L 386.159273 324.09114 
L 389.209009 323.334915 
L 391.496311 322.579662 
L 393.783613 321.613672 
L 396.070915 320.376842 
L 398.358216 318.79771 
L 400.645518 316.820985 
L 404.457688 313.198802 
L 405.220122 312.79421 
L 405.982556 312.769666 
L 406.74499 313.358588 
L 407.507424 314.857025 
L 408.269858 317.569709 
L 409.032292 321.677454 
L 410.55716 333.134331 
L 411.319594 339.089116 
L 412.082028 344.139724 
L 412.844462 347.875966 
L 413.606896 350.283966 
L 414.36933 351.591464 
L 415.131764 352.096054 
L 415.894197 352.065151 
L 416.656631 351.70217 
L 418.181499 350.497749 
L 421.993669 347.183847 
L 424.280971 345.577288 
L 426.568273 344.279786 
L 428.855575 343.232802 
L 431.905311 342.132639 
L 434.955046 341.280969 
L 438.767216 340.462825 
L 443.34182 339.730593 
L 448.678858 339.105519 
L 455.540763 338.53492 
L 464.689971 338.02295 
L 466.977273 337.924897 
L 466.977273 337.924897 
" style="fill:none;stroke:#2ca02c;stroke-linecap:square;stroke-width:5;"/>
   </g>
   <g id="line2d_16">
    <path clip-path="url(#p83ef80732b)" d="M 86.522727 471.122003 
L 95.671935 470.606297 
L 101.771406 470.065213 
L 106.34601 469.477277 
L 110.15818 468.79492 
L 113.207916 468.05635 
L 116.257652 467.059129 
L 118.544954 466.06209 
L 120.832255 464.752059 
L 122.357123 463.636347 
L 123.881991 462.255562 
L 125.406859 460.520267 
L 126.931727 458.301462 
L 128.456595 455.408942 
L 129.219029 453.62558 
L 129.981463 451.556089 
L 130.743897 449.140233 
L 131.506331 446.302974 
L 132.268765 442.950794 
L 133.031199 438.967607 
L 133.793633 434.210881 
L 134.556067 428.509375 
L 135.318501 421.666132 
L 136.080935 413.473445 
L 136.843369 403.752966 
L 138.368236 379.747901 
L 139.893104 353.766775 
L 140.655538 344.034648 
L 141.417972 339.437371 
L 142.180406 341.295419 
L 142.94284 349.194213 
L 143.705274 361.223188 
L 145.992576 401.155654 
L 146.75501 411.957172 
L 147.517444 421.066437 
L 148.279878 428.641187 
L 149.042312 434.904487 
L 149.804746 440.081313 
L 150.56718 444.37182 
L 151.329614 447.943973 
L 152.092048 450.934583 
L 152.854482 453.45349 
L 154.37935 457.408569 
L 155.904218 460.317365 
L 157.429085 462.505387 
L 158.953953 464.185015 
L 160.478821 465.497963 
L 162.003689 466.540937 
L 164.290991 467.741245 
L 166.578293 468.633573 
L 169.628029 469.50327 
L 172.677765 470.129061 
L 176.489934 470.689561 
L 181.826972 471.217011 
L 188.688878 471.641378 
L 197.838085 471.973416 
L 211.561897 472.234766 
L 234.434915 472.419427 
L 275.606349 472.499978 
L 323.639688 472.391425 
L 347.275141 472.141474 
L 360.236518 471.803149 
L 368.623292 471.382662 
L 374.722764 470.864981 
L 379.297367 470.257787 
L 383.109537 469.50327 
L 386.159273 468.633572 
L 388.446575 467.741245 
L 390.733877 466.540937 
L 392.258745 465.497959 
L 393.783613 464.185011 
L 395.308481 462.505383 
L 396.833349 460.317358 
L 398.358216 457.408563 
L 399.12065 455.588229 
L 399.883084 453.45348 
L 400.645518 450.934577 
L 401.407952 447.943955 
L 402.170386 444.371798 
L 402.93282 440.081293 
L 403.695254 434.904454 
L 404.457688 428.641162 
L 405.220122 421.066413 
L 405.982556 411.957131 
L 406.74499 401.155614 
L 408.269858 375.020283 
L 409.794726 349.194383 
L 410.55716 341.29563 
L 411.319594 339.437695 
L 412.082028 344.035045 
L 412.844462 353.767132 
L 415.894197 403.753184 
L 416.656631 413.473623 
L 417.419065 421.666274 
L 418.181499 428.509501 
L 418.943933 434.210978 
L 419.706367 438.967698 
L 420.468801 442.950863 
L 421.231235 446.303036 
L 422.756103 451.556129 
L 424.280971 455.408974 
L 425.805839 458.301488 
L 427.330707 460.520289 
L 428.855575 462.255577 
L 430.380443 463.636361 
L 431.905311 464.75207 
L 434.192612 466.062098 
L 436.479914 467.059136 
L 438.767216 467.835473 
L 441.816952 468.629353 
L 445.629122 469.357544 
L 450.203726 469.980491 
L 456.303197 470.549714 
L 463.927537 471.016236 
L 466.977273 471.154591 
L 466.977273 471.154591 
" style="fill:none;stroke:#2ca02c;stroke-dasharray:11.1,4.8;stroke-dashoffset:0;stroke-width:3;"/>
   </g>
   <g id="patch_3">
    <path d="M 67.5 472.5 
L 67.5 64.8 
" style="fill:none;stroke:#000000;stroke-linecap:square;stroke-linejoin:miter;stroke-width:0.8;"/>
   </g>
   <g id="patch_4">
    <path d="M 486 472.5 
L 486 64.8 
" style="fill:none;stroke:#000000;stroke-linecap:square;stroke-linejoin:miter;stroke-width:0.8;"/>
   </g>
   <g id="patch_5">
    <path d="M 67.5 472.5 
L 486 472.5 
" style="fill:none;stroke:#000000;stroke-linecap:square;stroke-linejoin:miter;stroke-width:0.8;"/>
   </g>
   <g id="patch_6">
    <path d="M 67.5 64.8 
L 486 64.8 
" style="fill:none;stroke:#000000;stroke-linecap:square;stroke-linejoin:miter;stroke-width:0.8;"/>
   </g>
   <g id="legend_1">
    <g id="patch_7">
     <path d="M 283.242188 220.903125 
L 465 220.903125 
Q 471 220.903125 471 214.903125 
L 471 85.8 
Q 471 79.8 465 79.8 
L 283.242188 79.8 
Q 277.242188 79.8 277.242188 85.8 
L 277.242188 214.903125 
Q 277.242188 220.903125 283.242188 220.903125 
z
" style="fill:#ffffff;opacity:0.8;stroke:#cccccc;stroke-linejoin:miter;"/>
    </g>
    <g id="line2d_17">
     <path d="M 289.242188 104.095312 
L 349.242188 104.095312 
" style="fill:none;stroke:#1f77b4;stroke-linecap:square;stroke-width:5;"/>
    </g>
    <g id="line2d_18"/>
    <g id="text_13">
     <!-- N=1 -->
     <g transform="translate(373.242188 114.595312)scale(0.3 -0.3)">
      <defs>
       <path d="M 9.8125 72.90625 
L 23.09375 72.90625 
L 55.421875 11.921875 
L 55.421875 72.90625 
L 64.984375 72.90625 
L 64.984375 0 
L 51.703125 0 
L 19.390625 60.984375 
L 19.390625 0 
L 9.8125 0 
z
" id="DejaVuSans-78"/>
       <path d="M 10.59375 45.40625 
L 73.1875 45.40625 
L 73.1875 37.203125 
L 10.59375 37.203125 
z
M 10.59375 25.484375 
L 73.1875 25.484375 
L 73.1875 17.1875 
L 10.59375 17.1875 
z
" id="DejaVuSans-61"/>
      </defs>
      <use xlink:href="#DejaVuSans-78"/>
      <use x="74.804688" xlink:href="#DejaVuSans-61"/>
      <use x="158.59375" xlink:href="#DejaVuSans-49"/>
     </g>
    </g>
    <g id="line2d_19">
     <path d="M 289.242188 148.129687 
L 349.242188 148.129687 
" style="fill:none;stroke:#ff7f0e;stroke-linecap:square;stroke-width:5;"/>
    </g>
    <g id="line2d_20"/>
    <g id="text_14">
     <!-- N=10 -->
     <g transform="translate(373.242188 158.629687)scale(0.3 -0.3)">
      <use xlink:href="#DejaVuSans-78"/>
      <use x="74.804688" xlink:href="#DejaVuSans-61"/>
      <use x="158.59375" xlink:href="#DejaVuSans-49"/>
      <use x="222.216797" xlink:href="#DejaVuSans-48"/>
     </g>
    </g>
    <g id="line2d_21">
     <path d="M 289.242188 192.164062 
L 349.242188 192.164062 
" style="fill:none;stroke:#2ca02c;stroke-linecap:square;stroke-width:5;"/>
    </g>
    <g id="line2d_22"/>
    <g id="text_15">
     <!-- N=50 -->
     <g transform="translate(373.242188 202.664062)scale(0.3 -0.3)">
      <use xlink:href="#DejaVuSans-78"/>
      <use x="74.804688" xlink:href="#DejaVuSans-61"/>
      <use x="158.59375" xlink:href="#DejaVuSans-53"/>
      <use x="222.216797" xlink:href="#DejaVuSans-48"/>
     </g>
    </g>
   </g>
  </g>
 </g>
 <defs>
  <clipPath id="p83ef80732b">
   <rect height="407.7" width="418.5" x="67.5" y="64.8"/>
  </clipPath>
 </defs>
</svg>
