<?xml version="1.0" encoding="utf-8" standalone="no"?>
<!DOCTYPE svg PUBLIC "-//W3C//DTD SVG 1.1//EN"
  "http://www.w3.org/Graphics/SVG/1.1/DTD/svg11.dtd">
<!-- Created with matplotlib (https://matplotlib.org/) -->
<svg height="1080pt" version="1.1" viewBox="0 0 540 1080" width="540pt" xmlns="http://www.w3.org/2000/svg" xmlns:xlink="http://www.w3.org/1999/xlink">
 <metadata>
  <rdf:RDF xmlns:cc="http://creativecommons.org/ns#" xmlns:dc="http://purl.org/dc/elements/1.1/" xmlns:rdf="http://www.w3.org/1999/02/22-rdf-syntax-ns#">
   <cc:Work>
    <dc:type rdf:resource="http://purl.org/dc/dcmitype/StillImage"/>
    <dc:date>2021-04-21T01:18:33.146092</dc:date>
    <dc:format>image/svg+xml</dc:format>
    <dc:creator>
     <cc:Agent>
      <dc:title>Matplotlib v3.3.2, https://matplotlib.org/</dc:title>
     </cc:Agent>
    </dc:creator>
   </cc:Work>
  </rdf:RDF>
 </metadata>
 <defs>
  <style type="text/css">*{stroke-linecap:butt;stroke-linejoin:round;}</style>
 </defs>
 <g id="figure_1">
  <g id="patch_1">
   <path d="M 0 1080 
L 540 1080 
L 540 0 
L 0 0 
z
" style="fill:none;"/>
  </g>
  <g id="axes_1">
   <g id="patch_2">
    <path d="M 67.5 369.423529 
L 486 369.423529 
L 486 129.6 
L 67.5 129.6 
z
" style="fill:#ffffff;"/>
   </g>
   <g id="matplotlib.axis_1">
    <g id="xtick_1">
     <g id="line2d_1">
      <defs>
       <path d="M 0 0 
L 0 3.5 
" id="m32d9e400c1" style="stroke:#000000;stroke-width:0.8;"/>
      </defs>
      <g>
       <use style="stroke:#000000;stroke-width:0.8;" x="157.857955" xlink:href="#m32d9e400c1" y="369.423529"/>
      </g>
     </g>
    </g>
    <g id="xtick_2">
     <g id="line2d_2">
      <g>
       <use style="stroke:#000000;stroke-width:0.8;" x="276.75" xlink:href="#m32d9e400c1" y="369.423529"/>
      </g>
     </g>
    </g>
    <g id="xtick_3">
     <g id="line2d_3">
      <g>
       <use style="stroke:#000000;stroke-width:0.8;" x="395.642045" xlink:href="#m32d9e400c1" y="369.423529"/>
      </g>
     </g>
    </g>
   </g>
   <g id="matplotlib.axis_2">
    <g id="ytick_1">
     <g id="line2d_4">
      <defs>
       <path d="M 0 0 
L -3.5 0 
" id="m6d05e6c3c1" style="stroke:#000000;stroke-width:0.8;"/>
      </defs>
      <g>
       <use style="stroke:#000000;stroke-width:0.8;" x="67.5" xlink:href="#m6d05e6c3c1" y="369.423529"/>
      </g>
     </g>
     <g id="text_1">
      <!-- 0 -->
      <g transform="translate(41.4125 380.821186)scale(0.3 -0.3)">
       <defs>
        <path d="M 31.78125 66.40625 
Q 24.171875 66.40625 20.328125 58.90625 
Q 16.5 51.421875 16.5 36.375 
Q 16.5 21.390625 20.328125 13.890625 
Q 24.171875 6.390625 31.78125 6.390625 
Q 39.453125 6.390625 43.28125 13.890625 
Q 47.125 21.390625 47.125 36.375 
Q 47.125 51.421875 43.28125 58.90625 
Q 39.453125 66.40625 31.78125 66.40625 
z
M 31.78125 74.21875 
Q 44.046875 74.21875 50.515625 64.515625 
Q 56.984375 54.828125 56.984375 36.375 
Q 56.984375 17.96875 50.515625 8.265625 
Q 44.046875 -1.421875 31.78125 -1.421875 
Q 19.53125 -1.421875 13.0625 8.265625 
Q 6.59375 17.96875 6.59375 36.375 
Q 6.59375 54.828125 13.0625 64.515625 
Q 19.53125 74.21875 31.78125 74.21875 
z
" id="DejaVuSans-48"/>
       </defs>
       <use xlink:href="#DejaVuSans-48"/>
      </g>
     </g>
    </g>
    <g id="ytick_2">
     <g id="line2d_5">
      <g>
       <use style="stroke:#000000;stroke-width:0.8;" x="67.5" xlink:href="#m6d05e6c3c1" y="249.511765"/>
      </g>
     </g>
     <g id="text_2">
      <!-- 1 -->
      <g transform="translate(41.4125 260.909421)scale(0.3 -0.3)">
       <defs>
        <path d="M 12.40625 8.296875 
L 28.515625 8.296875 
L 28.515625 63.921875 
L 10.984375 60.40625 
L 10.984375 69.390625 
L 28.421875 72.90625 
L 38.28125 72.90625 
L 38.28125 8.296875 
L 54.390625 8.296875 
L 54.390625 0 
L 12.40625 0 
z
" id="DejaVuSans-49"/>
       </defs>
       <use xlink:href="#DejaVuSans-49"/>
      </g>
     </g>
    </g>
    <g id="ytick_3">
     <g id="line2d_6">
      <g>
       <use style="stroke:#000000;stroke-width:0.8;" x="67.5" xlink:href="#m6d05e6c3c1" y="129.6"/>
      </g>
     </g>
     <g id="text_3">
      <!-- 2 -->
      <g transform="translate(41.4125 140.997656)scale(0.3 -0.3)">
       <defs>
        <path d="M 19.1875 8.296875 
L 53.609375 8.296875 
L 53.609375 0 
L 7.328125 0 
L 7.328125 8.296875 
Q 12.9375 14.109375 22.625 23.890625 
Q 32.328125 33.6875 34.8125 36.53125 
Q 39.546875 41.84375 41.421875 45.53125 
Q 43.3125 49.21875 43.3125 52.78125 
Q 43.3125 58.59375 39.234375 62.25 
Q 35.15625 65.921875 28.609375 65.921875 
Q 23.96875 65.921875 18.8125 64.3125 
Q 13.671875 62.703125 7.8125 59.421875 
L 7.8125 69.390625 
Q 13.765625 71.78125 18.9375 73 
Q 24.125 74.21875 28.421875 74.21875 
Q 39.75 74.21875 46.484375 68.546875 
Q 53.21875 62.890625 53.21875 53.421875 
Q 53.21875 48.921875 51.53125 44.890625 
Q 49.859375 40.875 45.40625 35.40625 
Q 44.1875 33.984375 37.640625 27.21875 
Q 31.109375 20.453125 19.1875 8.296875 
z
" id="DejaVuSans-50"/>
       </defs>
       <use xlink:href="#DejaVuSans-50"/>
      </g>
     </g>
    </g>
   </g>
   <g id="line2d_7">
    <path clip-path="url(#pf91dedebc0)" d="M 86.522727 361.338882 
L 99.917406 360.165371 
L 111.713856 358.91414 
L 122.292609 357.571756 
L 131.729769 356.15453 
L 140.253655 354.655132 
L 148.016481 353.069521 
L 155.170457 351.38513 
L 161.79169 349.599406 
L 167.880181 347.730858 
L 173.58814 345.749153 
L 178.915569 343.667433 
L 183.938574 341.469224 
L 188.73326 339.128298 
L 193.299628 336.649848 
L 197.637678 334.042949 
L 201.823515 331.268086 
L 205.85714 328.32803 
L 209.814658 325.165537 
L 213.696071 321.773847 
L 217.501378 318.149474 
L 221.306684 314.211359 
L 225.111991 309.946559 
L 228.993403 305.2539 
L 232.950922 300.118667 
L 237.212865 294.21983 
L 242.159764 286.975443 
L 257.76152 263.789086 
L 260.72966 259.966318 
L 263.317268 256.983915 
L 265.600452 254.684007 
L 267.655317 252.921183 
L 269.557971 251.57817 
L 271.308412 250.612013 
L 272.90664 249.982936 
L 274.200445 249.70625 
L 274.961506 249.738384 
L 275.418143 249.965311 
L 275.722567 250.384893 
L 275.950886 251.107227 
L 276.179204 252.929102 
L 276.331416 256.184875 
L 276.483629 266.256834 
L 276.635841 311.467854 
L 276.711947 342.429046 
L 277.016371 259.647384 
L 277.24469 252.929102 
L 277.549114 250.799429 
L 277.853539 250.129692 
L 278.23407 249.817204 
L 278.766812 249.695114 
L 279.60398 249.758318 
L 280.821678 250.081948 
L 282.343801 250.722446 
L 284.018135 251.674744 
L 285.844683 252.980899 
L 287.823442 254.684007 
L 289.954414 256.820292 
L 292.313704 259.505303 
L 295.053524 262.974916 
L 298.326088 267.499141 
L 302.664137 273.906001 
L 316.743771 294.976436 
L 321.157927 301.032048 
L 325.267658 306.295254 
L 329.225177 311.000371 
L 333.106589 315.266275 
L 336.911896 319.121353 
L 340.717203 322.666877 
L 344.598615 325.983259 
L 348.556134 329.074698 
L 352.665865 332.000062 
L 356.851702 334.707523 
L 361.189752 337.251439 
L 365.756119 339.670553 
L 370.550806 341.956168 
L 375.57381 344.103272 
L 380.901239 346.137548 
L 386.609199 348.075088 
L 392.69769 349.903075 
L 399.242817 351.632307 
L 406.320687 353.268311 
L 414.007406 354.81286 
L 422.37908 356.265396 
L 431.587922 357.634701 
L 441.786144 358.922981 
L 453.202063 360.135875 
L 465.987893 361.265983 
L 466.977273 361.344913 
L 466.977273 361.344913 
" style="fill:none;stroke:#0000ff;stroke-linecap:square;stroke-width:5;"/>
   </g>
   <g id="line2d_8">
    <path clip-path="url(#pf91dedebc0)" d="M 86.522727 257.596417 
L 99.8413 258.76257 
L 111.713856 260.021166 
L 122.216502 261.353015 
L 131.653663 262.768387 
L 140.253655 264.280163 
L 148.092587 265.882515 
L 155.170457 267.55018 
L 161.79169 269.33589 
L 167.956287 271.229338 
L 173.664246 273.214249 
L 178.991676 275.299402 
L 184.01468 277.50132 
L 188.809366 279.846256 
L 193.375734 282.329013 
L 197.713784 284.940486 
L 201.899621 287.720227 
L 205.933246 290.665464 
L 209.890765 293.83349 
L 213.772177 297.231037 
L 217.577484 300.861542 
L 221.38279 304.806115 
L 225.188097 309.077562 
L 229.069509 313.777032 
L 233.103134 319.02118 
L 237.365078 324.932856 
L 242.311976 332.188436 
L 257.609308 354.942195 
L 260.653553 358.878374 
L 263.241162 361.872662 
L 265.524346 364.185501 
L 267.579211 365.962516 
L 269.481865 367.322159 
L 271.232306 368.309937 
L 272.90664 369.000141 
L 274.352657 369.364783 
L 275.26593 369.409252 
L 275.722567 369.252912 
L 275.950886 369.005936 
L 276.179204 368.361957 
L 276.331416 367.199634 
L 276.483629 363.593969 
L 276.635841 347.397883 
L 276.711947 336.305787 
L 277.016371 365.960695 
L 277.24469 368.361957 
L 277.549114 369.112618 
L 277.929645 369.362013 
L 278.538494 369.420753 
L 279.60398 369.259867 
L 281.049996 368.808999 
L 282.648225 368.077611 
L 284.398666 367.022214 
L 286.225213 365.656775 
L 288.203973 363.896798 
L 290.41105 361.62348 
L 292.846447 358.784995 
L 295.662373 355.147932 
L 299.087149 350.340115 
L 303.881835 343.184167 
L 315.221649 326.134231 
L 319.788017 319.740194 
L 323.973854 314.256294 
L 327.931373 309.43364 
L 331.812785 305.053075 
L 335.618092 301.08922 
L 339.423398 297.440317 
L 343.304811 294.025166 
L 347.26233 290.840516 
L 351.295955 287.879712 
L 355.481792 285.085283 
L 359.819841 282.46008 
L 364.310103 280.00389 
L 369.028683 277.678352 
L 373.975581 275.489649 
L 379.226904 273.412115 
L 384.782652 271.455078 
L 390.71893 269.601476 
L 397.111845 267.84144 
L 403.961397 266.187712 
L 411.419798 264.617908 
L 419.63926 263.121521 
L 428.619783 261.718542 
L 438.437474 260.411816 
L 449.472863 259.172131 
L 461.802056 258.016056 
L 466.977273 257.590392 
L 466.977273 257.590392 
" style="fill:none;stroke:#ff0000;stroke-linecap:square;stroke-width:5;"/>
   </g>
   <g id="line2d_9">
    <path clip-path="url(#pf91dedebc0)" d="M 86.522727 240.685938 
L 97.938647 239.499186 
L 108.212974 238.212272 
L 117.421816 236.833816 
L 125.489066 235.406043 
L 132.795255 233.891945 
L 139.340382 232.316423 
L 145.352766 230.646786 
L 150.832407 228.90123 
L 155.931518 227.047063 
L 160.650098 225.095794 
L 164.988148 223.065404 
L 169.021773 220.937939 
L 172.827079 218.682795 
L 176.404067 216.306361 
L 179.752737 213.819144 
L 182.949194 211.170184 
L 185.99344 208.358208 
L 188.885473 205.384603 
L 191.625293 202.253987 
L 194.289008 198.8731 
L 196.876616 195.221631 
L 199.312012 191.404031 
L 201.671302 187.299738 
L 203.954486 182.88994 
L 206.23767 177.983134 
L 208.444748 172.693591 
L 210.57572 166.996008 
L 212.630585 160.864998 
L 214.685451 154.00758 
L 216.66421 146.604837 
L 218.566863 138.62425 
L 220.469517 129.65522 
L 222.296064 119.955693 
L 224.122611 109.001058 
L 225.873052 97.114987 
L 227.547387 84.244533 
L 229.221722 69.637028 
L 230.81995 53.772742 
L 232.418179 35.67441 
L 234.016408 14.902275 
L 235.101477 -1 
M 276.646918 -1 
L 276.711947 334.523737 
L 276.776976 -1 
M 318.322417 -1 
L 319.864123 21.139636 
L 321.462352 41.097037 
L 323.136686 59.29017 
L 324.811021 75.169065 
L 326.561462 89.703296 
L 328.388009 102.983976 
L 330.214557 114.648538 
L 332.11721 125.352647 
L 334.019863 134.809065 
L 335.998622 143.521607 
L 337.977382 151.259958 
L 340.032247 158.415776 
L 342.163219 165.026441 
L 344.294191 170.929709 
L 346.501268 176.40281 
L 348.784452 181.473403 
L 351.143742 186.16852 
L 353.579139 190.514206 
L 356.090641 194.535691 
L 358.678249 198.25656 
L 361.341964 201.699371 
L 364.081785 204.885264 
L 366.973817 207.909372 
L 369.941957 210.699649 
L 373.138414 213.397396 
L 376.487084 215.928655 
L 379.987966 218.296912 
L 383.717166 220.550956 
L 387.674685 222.682823 
L 391.936628 224.722848 
L 396.502996 226.658007 
L 401.373788 228.480154 
L 406.701218 230.232028 
L 412.485283 231.895133 
L 418.802092 233.475 
L 425.651644 234.95765 
L 433.338363 236.387553 
L 441.86225 237.738435 
L 451.147198 238.984266 
L 461.497631 240.152263 
L 466.977273 240.693099 
L 466.977273 240.693099 
" style="fill:none;stroke:#ff0000;stroke-linecap:square;stroke-width:5;"/>
   </g>
   <g id="line2d_10">
    <path clip-path="url(#pf91dedebc0)" d="M 86.522727 249.511765 
L 275.494249 249.408715 
L 275.950886 249.251832 
L 276.179204 248.99613 
L 276.331416 248.554684 
L 276.483629 247.318902 
L 276.559735 246.067896 
L 276.635841 248.02527 
L 276.711947 278.651171 
L 276.864159 246.067968 
L 277.092478 248.554699 
L 277.320796 249.111845 
L 277.701327 249.356425 
L 278.462388 249.461777 
L 281.278315 249.504732 
L 318.265894 249.511779 
L 466.977273 249.511736 
L 466.977273 249.511736 
" style="fill:none;stroke:#0000ff;stroke-linecap:square;stroke-width:5;"/>
   </g>
   <g id="patch_3">
    <path d="M 67.5 369.423529 
L 67.5 129.6 
" style="fill:none;stroke:#000000;stroke-linecap:square;stroke-linejoin:miter;stroke-width:0.8;"/>
   </g>
   <g id="patch_4">
    <path d="M 486 369.423529 
L 486 129.6 
" style="fill:none;stroke:#000000;stroke-linecap:square;stroke-linejoin:miter;stroke-width:0.8;"/>
   </g>
   <g id="patch_5">
    <path d="M 67.5 369.423529 
L 486 369.423529 
" style="fill:none;stroke:#000000;stroke-linecap:square;stroke-linejoin:miter;stroke-width:0.8;"/>
   </g>
   <g id="patch_6">
    <path d="M 67.5 129.6 
L 486 129.6 
" style="fill:none;stroke:#000000;stroke-linecap:square;stroke-linejoin:miter;stroke-width:0.8;"/>
   </g>
   <g id="legend_1">
    <g id="patch_7">
     <path d="M 175.228125 241.66875 
L 465 241.66875 
Q 471 241.66875 471 235.66875 
L 471 150.6 
Q 471 144.6 465 144.6 
L 175.228125 144.6 
Q 169.228125 144.6 169.228125 150.6 
L 169.228125 235.66875 
Q 169.228125 241.66875 175.228125 241.66875 
z
" style="fill:#ffffff;opacity:0.8;stroke:#cccccc;stroke-linejoin:miter;"/>
    </g>
    <g id="line2d_11">
     <path d="M 181.228125 168.895313 
L 241.228125 168.895313 
" style="fill:none;stroke:#0000ff;stroke-linecap:square;stroke-width:5;"/>
    </g>
    <g id="line2d_12"/>
    <g id="text_4">
     <!-- Transmission -->
     <g transform="translate(265.228125 179.395313)scale(0.3 -0.3)">
      <defs>
       <path d="M -0.296875 72.90625 
L 61.375 72.90625 
L 61.375 64.59375 
L 35.5 64.59375 
L 35.5 0 
L 25.59375 0 
L 25.59375 64.59375 
L -0.296875 64.59375 
z
" id="DejaVuSans-84"/>
       <path d="M 41.109375 46.296875 
Q 39.59375 47.171875 37.8125 47.578125 
Q 36.03125 48 33.890625 48 
Q 26.265625 48 22.1875 43.046875 
Q 18.109375 38.09375 18.109375 28.8125 
L 18.109375 0 
L 9.078125 0 
L 9.078125 54.6875 
L 18.109375 54.6875 
L 18.109375 46.1875 
Q 20.953125 51.171875 25.484375 53.578125 
Q 30.03125 56 36.53125 56 
Q 37.453125 56 38.578125 55.875 
Q 39.703125 55.765625 41.0625 55.515625 
z
" id="DejaVuSans-114"/>
       <path d="M 34.28125 27.484375 
Q 23.390625 27.484375 19.1875 25 
Q 14.984375 22.515625 14.984375 16.5 
Q 14.984375 11.71875 18.140625 8.90625 
Q 21.296875 6.109375 26.703125 6.109375 
Q 34.1875 6.109375 38.703125 11.40625 
Q 43.21875 16.703125 43.21875 25.484375 
L 43.21875 27.484375 
z
M 52.203125 31.203125 
L 52.203125 0 
L 43.21875 0 
L 43.21875 8.296875 
Q 40.140625 3.328125 35.546875 0.953125 
Q 30.953125 -1.421875 24.3125 -1.421875 
Q 15.921875 -1.421875 10.953125 3.296875 
Q 6 8.015625 6 15.921875 
Q 6 25.140625 12.171875 29.828125 
Q 18.359375 34.515625 30.609375 34.515625 
L 43.21875 34.515625 
L 43.21875 35.40625 
Q 43.21875 41.609375 39.140625 45 
Q 35.0625 48.390625 27.6875 48.390625 
Q 23 48.390625 18.546875 47.265625 
Q 14.109375 46.140625 10.015625 43.890625 
L 10.015625 52.203125 
Q 14.9375 54.109375 19.578125 55.046875 
Q 24.21875 56 28.609375 56 
Q 40.484375 56 46.34375 49.84375 
Q 52.203125 43.703125 52.203125 31.203125 
z
" id="DejaVuSans-97"/>
       <path d="M 54.890625 33.015625 
L 54.890625 0 
L 45.90625 0 
L 45.90625 32.71875 
Q 45.90625 40.484375 42.875 44.328125 
Q 39.84375 48.1875 33.796875 48.1875 
Q 26.515625 48.1875 22.3125 43.546875 
Q 18.109375 38.921875 18.109375 30.90625 
L 18.109375 0 
L 9.078125 0 
L 9.078125 54.6875 
L 18.109375 54.6875 
L 18.109375 46.1875 
Q 21.34375 51.125 25.703125 53.5625 
Q 30.078125 56 35.796875 56 
Q 45.21875 56 50.046875 50.171875 
Q 54.890625 44.34375 54.890625 33.015625 
z
" id="DejaVuSans-110"/>
       <path d="M 44.28125 53.078125 
L 44.28125 44.578125 
Q 40.484375 46.53125 36.375 47.5 
Q 32.28125 48.484375 27.875 48.484375 
Q 21.1875 48.484375 17.84375 46.4375 
Q 14.5 44.390625 14.5 40.28125 
Q 14.5 37.15625 16.890625 35.375 
Q 19.28125 33.59375 26.515625 31.984375 
L 29.59375 31.296875 
Q 39.15625 29.25 43.1875 25.515625 
Q 47.21875 21.78125 47.21875 15.09375 
Q 47.21875 7.46875 41.1875 3.015625 
Q 35.15625 -1.421875 24.609375 -1.421875 
Q 20.21875 -1.421875 15.453125 -0.5625 
Q 10.6875 0.296875 5.421875 2 
L 5.421875 11.28125 
Q 10.40625 8.6875 15.234375 7.390625 
Q 20.0625 6.109375 24.8125 6.109375 
Q 31.15625 6.109375 34.5625 8.28125 
Q 37.984375 10.453125 37.984375 14.40625 
Q 37.984375 18.0625 35.515625 20.015625 
Q 33.0625 21.96875 24.703125 23.78125 
L 21.578125 24.515625 
Q 13.234375 26.265625 9.515625 29.90625 
Q 5.8125 33.546875 5.8125 39.890625 
Q 5.8125 47.609375 11.28125 51.796875 
Q 16.75 56 26.8125 56 
Q 31.78125 56 36.171875 55.265625 
Q 40.578125 54.546875 44.28125 53.078125 
z
" id="DejaVuSans-115"/>
       <path d="M 52 44.1875 
Q 55.375 50.25 60.0625 53.125 
Q 64.75 56 71.09375 56 
Q 79.640625 56 84.28125 50.015625 
Q 88.921875 44.046875 88.921875 33.015625 
L 88.921875 0 
L 79.890625 0 
L 79.890625 32.71875 
Q 79.890625 40.578125 77.09375 44.375 
Q 74.3125 48.1875 68.609375 48.1875 
Q 61.625 48.1875 57.5625 43.546875 
Q 53.515625 38.921875 53.515625 30.90625 
L 53.515625 0 
L 44.484375 0 
L 44.484375 32.71875 
Q 44.484375 40.625 41.703125 44.40625 
Q 38.921875 48.1875 33.109375 48.1875 
Q 26.21875 48.1875 22.15625 43.53125 
Q 18.109375 38.875 18.109375 30.90625 
L 18.109375 0 
L 9.078125 0 
L 9.078125 54.6875 
L 18.109375 54.6875 
L 18.109375 46.1875 
Q 21.1875 51.21875 25.484375 53.609375 
Q 29.78125 56 35.6875 56 
Q 41.65625 56 45.828125 52.96875 
Q 50 49.953125 52 44.1875 
z
" id="DejaVuSans-109"/>
       <path d="M 9.421875 54.6875 
L 18.40625 54.6875 
L 18.40625 0 
L 9.421875 0 
z
M 9.421875 75.984375 
L 18.40625 75.984375 
L 18.40625 64.59375 
L 9.421875 64.59375 
z
" id="DejaVuSans-105"/>
       <path d="M 30.609375 48.390625 
Q 23.390625 48.390625 19.1875 42.75 
Q 14.984375 37.109375 14.984375 27.296875 
Q 14.984375 17.484375 19.15625 11.84375 
Q 23.34375 6.203125 30.609375 6.203125 
Q 37.796875 6.203125 41.984375 11.859375 
Q 46.1875 17.53125 46.1875 27.296875 
Q 46.1875 37.015625 41.984375 42.703125 
Q 37.796875 48.390625 30.609375 48.390625 
z
M 30.609375 56 
Q 42.328125 56 49.015625 48.375 
Q 55.71875 40.765625 55.71875 27.296875 
Q 55.71875 13.875 49.015625 6.21875 
Q 42.328125 -1.421875 30.609375 -1.421875 
Q 18.84375 -1.421875 12.171875 6.21875 
Q 5.515625 13.875 5.515625 27.296875 
Q 5.515625 40.765625 12.171875 48.375 
Q 18.84375 56 30.609375 56 
z
" id="DejaVuSans-111"/>
      </defs>
      <use xlink:href="#DejaVuSans-84"/>
      <use x="46.333984" xlink:href="#DejaVuSans-114"/>
      <use x="87.447266" xlink:href="#DejaVuSans-97"/>
      <use x="148.726562" xlink:href="#DejaVuSans-110"/>
      <use x="212.105469" xlink:href="#DejaVuSans-115"/>
      <use x="264.205078" xlink:href="#DejaVuSans-109"/>
      <use x="361.617188" xlink:href="#DejaVuSans-105"/>
      <use x="389.400391" xlink:href="#DejaVuSans-115"/>
      <use x="441.5" xlink:href="#DejaVuSans-115"/>
      <use x="493.599609" xlink:href="#DejaVuSans-105"/>
      <use x="521.382812" xlink:href="#DejaVuSans-111"/>
      <use x="582.564453" xlink:href="#DejaVuSans-110"/>
     </g>
    </g>
    <g id="line2d_13">
     <path d="M 181.228125 212.929688 
L 241.228125 212.929688 
" style="fill:none;stroke:#ff0000;stroke-linecap:square;stroke-width:5;"/>
    </g>
    <g id="line2d_14"/>
    <g id="text_5">
     <!-- Reflection -->
     <g transform="translate(265.228125 223.429688)scale(0.3 -0.3)">
      <defs>
       <path d="M 44.390625 34.1875 
Q 47.5625 33.109375 50.5625 29.59375 
Q 53.5625 26.078125 56.59375 19.921875 
L 66.609375 0 
L 56 0 
L 46.6875 18.703125 
Q 43.0625 26.03125 39.671875 28.421875 
Q 36.28125 30.8125 30.421875 30.8125 
L 19.671875 30.8125 
L 19.671875 0 
L 9.8125 0 
L 9.8125 72.90625 
L 32.078125 72.90625 
Q 44.578125 72.90625 50.734375 67.671875 
Q 56.890625 62.453125 56.890625 51.90625 
Q 56.890625 45.015625 53.6875 40.46875 
Q 50.484375 35.9375 44.390625 34.1875 
z
M 19.671875 64.796875 
L 19.671875 38.921875 
L 32.078125 38.921875 
Q 39.203125 38.921875 42.84375 42.21875 
Q 46.484375 45.515625 46.484375 51.90625 
Q 46.484375 58.296875 42.84375 61.546875 
Q 39.203125 64.796875 32.078125 64.796875 
z
" id="DejaVuSans-82"/>
       <path d="M 56.203125 29.59375 
L 56.203125 25.203125 
L 14.890625 25.203125 
Q 15.484375 15.921875 20.484375 11.0625 
Q 25.484375 6.203125 34.421875 6.203125 
Q 39.59375 6.203125 44.453125 7.46875 
Q 49.3125 8.734375 54.109375 11.28125 
L 54.109375 2.78125 
Q 49.265625 0.734375 44.1875 -0.34375 
Q 39.109375 -1.421875 33.890625 -1.421875 
Q 20.796875 -1.421875 13.15625 6.1875 
Q 5.515625 13.8125 5.515625 26.8125 
Q 5.515625 40.234375 12.765625 48.109375 
Q 20.015625 56 32.328125 56 
Q 43.359375 56 49.78125 48.890625 
Q 56.203125 41.796875 56.203125 29.59375 
z
M 47.21875 32.234375 
Q 47.125 39.59375 43.09375 43.984375 
Q 39.0625 48.390625 32.421875 48.390625 
Q 24.90625 48.390625 20.390625 44.140625 
Q 15.875 39.890625 15.1875 32.171875 
z
" id="DejaVuSans-101"/>
       <path d="M 37.109375 75.984375 
L 37.109375 68.5 
L 28.515625 68.5 
Q 23.6875 68.5 21.796875 66.546875 
Q 19.921875 64.59375 19.921875 59.515625 
L 19.921875 54.6875 
L 34.71875 54.6875 
L 34.71875 47.703125 
L 19.921875 47.703125 
L 19.921875 0 
L 10.890625 0 
L 10.890625 47.703125 
L 2.296875 47.703125 
L 2.296875 54.6875 
L 10.890625 54.6875 
L 10.890625 58.5 
Q 10.890625 67.625 15.140625 71.796875 
Q 19.390625 75.984375 28.609375 75.984375 
z
" id="DejaVuSans-102"/>
       <path d="M 9.421875 75.984375 
L 18.40625 75.984375 
L 18.40625 0 
L 9.421875 0 
z
" id="DejaVuSans-108"/>
       <path d="M 48.78125 52.59375 
L 48.78125 44.1875 
Q 44.96875 46.296875 41.140625 47.34375 
Q 37.3125 48.390625 33.40625 48.390625 
Q 24.65625 48.390625 19.8125 42.84375 
Q 14.984375 37.3125 14.984375 27.296875 
Q 14.984375 17.28125 19.8125 11.734375 
Q 24.65625 6.203125 33.40625 6.203125 
Q 37.3125 6.203125 41.140625 7.25 
Q 44.96875 8.296875 48.78125 10.40625 
L 48.78125 2.09375 
Q 45.015625 0.34375 40.984375 -0.53125 
Q 36.96875 -1.421875 32.421875 -1.421875 
Q 20.0625 -1.421875 12.78125 6.34375 
Q 5.515625 14.109375 5.515625 27.296875 
Q 5.515625 40.671875 12.859375 48.328125 
Q 20.21875 56 33.015625 56 
Q 37.15625 56 41.109375 55.140625 
Q 45.0625 54.296875 48.78125 52.59375 
z
" id="DejaVuSans-99"/>
       <path d="M 18.3125 70.21875 
L 18.3125 54.6875 
L 36.8125 54.6875 
L 36.8125 47.703125 
L 18.3125 47.703125 
L 18.3125 18.015625 
Q 18.3125 11.328125 20.140625 9.421875 
Q 21.96875 7.515625 27.59375 7.515625 
L 36.8125 7.515625 
L 36.8125 0 
L 27.59375 0 
Q 17.1875 0 13.234375 3.875 
Q 9.28125 7.765625 9.28125 18.015625 
L 9.28125 47.703125 
L 2.6875 47.703125 
L 2.6875 54.6875 
L 9.28125 54.6875 
L 9.28125 70.21875 
z
" id="DejaVuSans-116"/>
      </defs>
      <use xlink:href="#DejaVuSans-82"/>
      <use x="64.982422" xlink:href="#DejaVuSans-101"/>
      <use x="126.505859" xlink:href="#DejaVuSans-102"/>
      <use x="161.710938" xlink:href="#DejaVuSans-108"/>
      <use x="189.494141" xlink:href="#DejaVuSans-101"/>
      <use x="251.017578" xlink:href="#DejaVuSans-99"/>
      <use x="305.998047" xlink:href="#DejaVuSans-116"/>
      <use x="345.207031" xlink:href="#DejaVuSans-105"/>
      <use x="372.990234" xlink:href="#DejaVuSans-111"/>
      <use x="434.171875" xlink:href="#DejaVuSans-110"/>
     </g>
    </g>
   </g>
  </g>
  <g id="axes_2">
   <g id="patch_8">
    <path d="M 67.5 657.211765 
L 486 657.211765 
L 486 417.388235 
L 67.5 417.388235 
z
" style="fill:#ffffff;"/>
   </g>
   <g id="matplotlib.axis_3">
    <g id="xtick_4">
     <g id="line2d_15">
      <g>
       <use style="stroke:#000000;stroke-width:0.8;" x="157.857955" xlink:href="#m32d9e400c1" y="657.211765"/>
      </g>
     </g>
    </g>
    <g id="xtick_5">
     <g id="line2d_16">
      <g>
       <use style="stroke:#000000;stroke-width:0.8;" x="276.75" xlink:href="#m32d9e400c1" y="657.211765"/>
      </g>
     </g>
    </g>
    <g id="xtick_6">
     <g id="line2d_17">
      <g>
       <use style="stroke:#000000;stroke-width:0.8;" x="395.642045" xlink:href="#m32d9e400c1" y="657.211765"/>
      </g>
     </g>
    </g>
   </g>
   <g id="matplotlib.axis_4">
    <g id="ytick_4">
     <g id="line2d_18">
      <g>
       <use style="stroke:#000000;stroke-width:0.8;" x="67.5" xlink:href="#m6d05e6c3c1" y="657.211765"/>
      </g>
     </g>
     <g id="text_6">
      <!-- 0 -->
      <g transform="translate(41.4125 668.609421)scale(0.3 -0.3)">
       <use xlink:href="#DejaVuSans-48"/>
      </g>
     </g>
    </g>
    <g id="ytick_5">
     <g id="line2d_19">
      <g>
       <use style="stroke:#000000;stroke-width:0.8;" x="67.5" xlink:href="#m6d05e6c3c1" y="537.3"/>
      </g>
     </g>
     <g id="text_7">
      <!-- 1 -->
      <g transform="translate(41.4125 548.697656)scale(0.3 -0.3)">
       <use xlink:href="#DejaVuSans-49"/>
      </g>
     </g>
    </g>
    <g id="ytick_6">
     <g id="line2d_20">
      <g>
       <use style="stroke:#000000;stroke-width:0.8;" x="67.5" xlink:href="#m6d05e6c3c1" y="417.388235"/>
      </g>
     </g>
     <g id="text_8">
      <!-- 2 -->
      <g transform="translate(41.4125 428.785892)scale(0.3 -0.3)">
       <use xlink:href="#DejaVuSans-50"/>
      </g>
     </g>
    </g>
   </g>
   <g id="line2d_21">
    <path clip-path="url(#p908b8f192f)" d="M 86.522727 649.12716 
L 99.917406 647.953666 
L 111.713856 646.70246 
L 122.216502 645.370629 
L 131.653663 643.955304 
L 140.253655 642.443571 
L 148.092587 640.841295 
L 155.246563 639.154486 
L 161.867796 637.366119 
L 167.956287 635.494742 
L 173.664246 633.509964 
L 178.991676 631.424971 
L 184.01468 629.22326 
L 188.809366 626.878567 
L 193.375734 624.39611 
L 197.713784 621.784991 
L 201.899621 619.005679 
L 205.933246 616.060967 
L 209.890765 612.893585 
L 213.772177 609.49682 
L 217.577484 605.86729 
L 221.38279 601.923951 
L 225.188097 597.654037 
L 229.069509 592.956554 
L 233.103134 587.715054 
L 237.441184 581.698344 
L 242.464188 574.328801 
L 257.304884 552.250597 
L 260.425235 548.193676 
L 263.012843 545.180075 
L 265.296027 542.847333 
L 267.350893 541.050873 
L 269.253546 539.672531 
L 271.003987 538.666892 
L 272.678322 537.955257 
L 274.276551 537.515741 
L 275.798673 537.324737 
L 277.24469 537.359151 
L 278.690706 537.621185 
L 279.984511 538.083337 
L 281.049996 538.696332 
L 281.811058 539.380764 
L 282.343801 540.156139 
L 282.724331 541.107323 
L 283.028756 542.539506 
L 283.257074 544.772643 
L 283.409286 547.899329 
L 283.561499 555.290357 
L 283.713711 580.464806 
L 283.865923 626.791148 
L 284.094242 548.053603 
L 284.32256 540.38839 
L 284.550878 539.307705 
L 284.779197 539.200274 
L 285.159727 539.452016 
L 287.062381 541.322993 
L 290.03052 544.439172 
L 292.694234 547.58374 
L 295.586267 551.352796 
L 299.087149 556.29834 
L 303.957942 563.599148 
L 314.841118 580.014391 
L 319.483592 586.551653 
L 323.669429 592.067644 
L 327.626948 596.920917 
L 331.508361 601.330811 
L 335.313667 605.322209 
L 339.118974 608.997049 
L 343.000386 612.436837 
L 346.957905 615.644623 
L 350.99153 618.626965 
L 355.101261 621.39288 
L 359.439311 624.041604 
L 363.929572 626.519573 
L 368.648152 628.865412 
L 373.595051 631.072891 
L 378.770268 633.1392 
L 384.326015 635.115514 
L 390.262293 636.986903 
L 396.579102 638.743497 
L 403.428654 640.414646 
L 410.810949 641.985314 
L 418.878198 643.472422 
L 427.782616 644.883111 
L 437.600306 646.208293 
L 448.483483 647.448783 
L 460.660464 648.609124 
L 466.977273 649.133103 
L 466.977273 649.133103 
" style="fill:none;stroke:#0000ff;stroke-linecap:square;stroke-width:5;"/>
   </g>
   <g id="line2d_22">
    <path clip-path="url(#p908b8f192f)" d="M 86.522727 545.384595 
L 99.993512 546.565457 
L 111.789963 547.818157 
L 122.368715 549.162192 
L 131.881981 550.59366 
L 140.405868 552.097137 
L 148.168693 553.687218 
L 155.322669 555.376532 
L 161.867796 557.145645 
L 167.956287 559.017023 
L 173.664246 561.001799 
L 178.991676 563.086794 
L 184.01468 565.288505 
L 188.73326 567.59398 
L 193.299628 570.072135 
L 197.637678 572.678697 
L 201.823515 575.453135 
L 205.85714 578.392697 
L 209.814658 581.554548 
L 213.696071 584.945476 
L 217.501378 588.568899 
L 221.306684 592.505845 
L 225.111991 596.769166 
L 228.993403 601.459895 
L 233.027028 606.694679 
L 237.288971 612.596414 
L 242.23587 619.840962 
L 257.533202 642.571983 
L 260.577447 646.506158 
L 263.165056 649.498813 
L 265.44824 651.809724 
L 267.503105 653.584088 
L 269.405758 654.94015 
L 271.156199 655.924121 
L 272.830534 656.61429 
L 274.428763 657.03303 
L 275.950886 657.204635 
L 277.396902 657.152833 
L 278.842919 656.876057 
L 280.136723 656.406546 
L 281.202209 655.799298 
L 281.96327 655.138648 
L 282.496013 654.407495 
L 282.876543 653.51935 
L 283.180968 652.15602 
L 283.409286 649.874071 
L 283.561499 646.243689 
L 283.713711 635.887545 
L 283.789817 625.382302 
L 283.865923 626.915093 
L 284.094242 656.369119 
L 284.246454 657.167704 
L 284.474772 656.749953 
L 285.083621 655.57066 
L 285.920789 654.479498 
L 287.975654 652.306284 
L 290.867687 649.134083 
L 293.607508 645.78118 
L 296.727859 641.589359 
L 300.609272 635.971383 
L 307.078293 626.138207 
L 314.308375 615.272763 
L 319.026955 608.584865 
L 323.212793 603.027315 
L 327.170311 598.132634 
L 331.051724 593.681962 
L 334.85703 589.651636 
L 338.662337 585.939594 
L 342.54375 582.464156 
L 346.501268 579.22262 
L 350.534893 576.208676 
L 354.644624 573.413439 
L 358.906568 570.781404 
L 363.396829 568.273131 
L 368.039303 565.935235 
L 372.986202 563.697709 
L 378.161419 561.603787 
L 383.64106 559.627502 
L 389.425126 557.775051 
L 395.741935 555.988441 
L 402.51538 554.307253 
L 409.821569 552.724477 
L 417.888819 551.210229 
L 426.71713 549.786158 
L 436.382608 548.456303 
L 447.113573 547.207599 
L 459.138341 546.036314 
L 466.977273 545.378663 
L 466.977273 545.378663 
" style="fill:none;stroke:#ff0000;stroke-linecap:square;stroke-width:5;"/>
   </g>
   <g id="line2d_23">
    <path clip-path="url(#p908b8f192f)" d="M 86.522727 528.474245 
L 98.166965 527.261348 
L 108.441293 525.969188 
L 117.34571 524.634616 
L 125.565172 523.179826 
L 132.871361 521.663356 
L 139.416488 520.085218 
L 145.428872 518.412679 
L 150.908514 516.663978 
L 156.007624 514.806181 
L 160.650098 512.884687 
L 164.988148 510.854454 
L 169.097879 508.68452 
L 172.903185 506.424315 
L 176.480173 504.04235 
L 179.828843 501.549186 
L 183.025301 498.893665 
L 186.069546 496.074442 
L 188.961579 493.092932 
L 191.777506 489.861653 
L 194.44122 486.460839 
L 196.952722 482.900928 
L 199.388119 479.071691 
L 201.747409 474.954504 
L 204.030592 470.530312 
L 206.23767 465.780004 
L 208.444748 460.491989 
L 210.57572 454.79625 
L 212.630585 448.667542 
L 214.685451 441.812769 
L 216.66421 434.413271 
L 218.566863 426.436529 
L 220.469517 417.472402 
L 222.296064 407.778607 
L 224.122611 396.831319 
L 225.873052 384.953739 
L 227.547387 372.093663 
L 229.221722 357.49928 
L 230.81995 341.650718 
L 232.418179 323.5722 
L 234.016408 302.825737 
L 235.53853 280.085093 
L 237.060653 253.829179 
L 238.50667 224.942859 
L 239.952686 191.379976 
L 241.322596 154.321063 
L 242.692507 110.982135 
L 243.986311 62.964356 
L 245.280115 6.440606 
L 245.435232 -1 
M 283.738118 -1 
L 283.865923 623.584263 
L 283.902529 -1 
M 308.033087 -1 
L 309.361477 58.240792 
L 310.731387 109.701339 
L 312.101298 153.317297 
L 313.547314 192.492696 
L 314.99333 225.948941 
L 316.515453 256.140301 
L 318.037576 282.112467 
L 319.635804 305.657725 
L 321.234033 326.053198 
L 322.908368 344.625109 
L 324.582703 360.817942 
L 326.333144 375.625543 
L 328.083585 388.615586 
L 329.910132 400.541853 
L 331.812785 411.475418 
L 333.715439 421.125257 
L 335.694198 430.008291 
L 337.672957 437.891504 
L 339.727823 445.175673 
L 341.858794 451.899879 
L 343.989766 457.900422 
L 346.196844 463.460134 
L 348.480028 468.607732 
L 350.839318 473.371363 
L 353.274714 477.777987 
L 355.786216 481.853634 
L 358.373825 485.62269 
L 361.037539 489.108442 
L 363.77736 492.332431 
L 366.669393 495.391489 
L 369.713638 498.281156 
L 372.83399 500.939307 
L 376.182659 503.496482 
L 379.683541 505.888125 
L 383.412742 508.163496 
L 387.37026 510.314761 
L 391.556098 512.337918 
L 396.046359 514.2626 
L 400.917152 516.106589 
L 406.168475 517.854818 
L 411.876434 519.518408 
L 418.041031 521.084239 
L 424.890583 522.591432 
L 432.501196 524.030441 
L 440.796764 525.369487 
L 450.157818 526.649396 
L 460.73657 527.861378 
L 466.977273 528.481306 
L 466.977273 528.481306 
" style="fill:none;stroke:#ff0000;stroke-linecap:square;stroke-width:5;"/>
   </g>
   <g id="line2d_24">
    <path clip-path="url(#p908b8f192f)" d="M 86.522727 537.299986 
L 283.028756 537.095073 
L 283.33318 536.820202 
L 283.485393 536.430288 
L 283.713711 535.170105 
L 283.865923 556.210715 
L 283.942029 531.580332 
L 284.018135 533.441803 
L 284.246454 536.378027 
L 284.474772 536.922137 
L 284.855303 537.155496 
L 285.616364 537.254529 
L 288.584503 537.294454 
L 357.536657 537.299943 
L 466.977273 537.299929 
L 466.977273 537.299929 
" style="fill:none;stroke:#0000ff;stroke-linecap:square;stroke-width:5;"/>
   </g>
   <g id="patch_9">
    <path d="M 67.5 657.211765 
L 67.5 417.388235 
" style="fill:none;stroke:#000000;stroke-linecap:square;stroke-linejoin:miter;stroke-width:0.8;"/>
   </g>
   <g id="patch_10">
    <path d="M 486 657.211765 
L 486 417.388235 
" style="fill:none;stroke:#000000;stroke-linecap:square;stroke-linejoin:miter;stroke-width:0.8;"/>
   </g>
   <g id="patch_11">
    <path d="M 67.5 657.211765 
L 486 657.211765 
" style="fill:none;stroke:#000000;stroke-linecap:square;stroke-linejoin:miter;stroke-width:0.8;"/>
   </g>
   <g id="patch_12">
    <path d="M 67.5 417.388235 
L 486 417.388235 
" style="fill:none;stroke:#000000;stroke-linecap:square;stroke-linejoin:miter;stroke-width:0.8;"/>
   </g>
  </g>
  <g id="axes_3">
   <g id="patch_13">
    <path d="M 67.5 945 
L 486 945 
L 486 705.176471 
L 67.5 705.176471 
z
" style="fill:#ffffff;"/>
   </g>
   <g id="matplotlib.axis_5">
    <g id="xtick_7">
     <g id="line2d_25">
      <g>
       <use style="stroke:#000000;stroke-width:0.8;" x="157.857955" xlink:href="#m32d9e400c1" y="945"/>
      </g>
     </g>
     <g id="text_9">
      <!-- −50 -->
      <g transform="translate(126.200923 974.795313)scale(0.3 -0.3)">
       <defs>
        <path d="M 10.59375 35.5 
L 73.1875 35.5 
L 73.1875 27.203125 
L 10.59375 27.203125 
z
" id="DejaVuSans-8722"/>
        <path d="M 10.796875 72.90625 
L 49.515625 72.90625 
L 49.515625 64.59375 
L 19.828125 64.59375 
L 19.828125 46.734375 
Q 21.96875 47.46875 24.109375 47.828125 
Q 26.265625 48.1875 28.421875 48.1875 
Q 40.625 48.1875 47.75 41.5 
Q 54.890625 34.8125 54.890625 23.390625 
Q 54.890625 11.625 47.5625 5.09375 
Q 40.234375 -1.421875 26.90625 -1.421875 
Q 22.3125 -1.421875 17.546875 -0.640625 
Q 12.796875 0.140625 7.71875 1.703125 
L 7.71875 11.625 
Q 12.109375 9.234375 16.796875 8.0625 
Q 21.484375 6.890625 26.703125 6.890625 
Q 35.15625 6.890625 40.078125 11.328125 
Q 45.015625 15.765625 45.015625 23.390625 
Q 45.015625 31 40.078125 35.4375 
Q 35.15625 39.890625 26.703125 39.890625 
Q 22.75 39.890625 18.8125 39.015625 
Q 14.890625 38.140625 10.796875 36.28125 
z
" id="DejaVuSans-53"/>
       </defs>
       <use xlink:href="#DejaVuSans-8722"/>
       <use x="83.789062" xlink:href="#DejaVuSans-53"/>
       <use x="147.412109" xlink:href="#DejaVuSans-48"/>
      </g>
     </g>
    </g>
    <g id="xtick_8">
     <g id="line2d_26">
      <g>
       <use style="stroke:#000000;stroke-width:0.8;" x="276.75" xlink:href="#m32d9e400c1" y="945"/>
      </g>
     </g>
     <g id="text_10">
      <!-- 0 -->
      <g transform="translate(267.20625 974.795313)scale(0.3 -0.3)">
       <use xlink:href="#DejaVuSans-48"/>
      </g>
     </g>
    </g>
    <g id="xtick_9">
     <g id="line2d_27">
      <g>
       <use style="stroke:#000000;stroke-width:0.8;" x="395.642045" xlink:href="#m32d9e400c1" y="945"/>
      </g>
     </g>
     <g id="text_11">
      <!-- 50 -->
      <g transform="translate(376.554545 974.795313)scale(0.3 -0.3)">
       <use xlink:href="#DejaVuSans-53"/>
       <use x="63.623047" xlink:href="#DejaVuSans-48"/>
      </g>
     </g>
    </g>
   </g>
   <g id="matplotlib.axis_6">
    <g id="ytick_7">
     <g id="line2d_28">
      <g>
       <use style="stroke:#000000;stroke-width:0.8;" x="67.5" xlink:href="#m6d05e6c3c1" y="945"/>
      </g>
     </g>
     <g id="text_12">
      <!-- 0 -->
      <g transform="translate(41.4125 956.397656)scale(0.3 -0.3)">
       <use xlink:href="#DejaVuSans-48"/>
      </g>
     </g>
    </g>
    <g id="ytick_8">
     <g id="line2d_29">
      <g>
       <use style="stroke:#000000;stroke-width:0.8;" x="67.5" xlink:href="#m6d05e6c3c1" y="825.088235"/>
      </g>
     </g>
     <g id="text_13">
      <!-- 1 -->
      <g transform="translate(41.4125 836.485892)scale(0.3 -0.3)">
       <use xlink:href="#DejaVuSans-49"/>
      </g>
     </g>
    </g>
    <g id="ytick_9">
     <g id="line2d_30">
      <g>
       <use style="stroke:#000000;stroke-width:0.8;" x="67.5" xlink:href="#m6d05e6c3c1" y="705.176471"/>
      </g>
     </g>
     <g id="text_14">
      <!-- 2 -->
      <g transform="translate(41.4125 716.574127)scale(0.3 -0.3)">
       <use xlink:href="#DejaVuSans-50"/>
      </g>
     </g>
    </g>
   </g>
   <g id="line2d_31">
    <path clip-path="url(#p443c06c139)" d="M 86.522727 936.915488 
L 99.917406 935.74203 
L 111.713856 934.490867 
L 122.216502 933.159099 
L 131.729769 931.73146 
L 140.253655 930.232204 
L 148.092587 928.630041 
L 155.246563 926.94337 
L 161.867796 925.155187 
L 167.956287 923.284003 
L 173.664246 921.299477 
L 178.991676 919.214778 
L 184.01468 917.013425 
L 188.809366 914.669147 
L 193.375734 912.187197 
L 197.713784 909.576682 
L 201.899621 906.79807 
L 205.933246 903.854213 
L 209.890765 900.687852 
L 213.772177 897.292307 
L 217.577484 893.664245 
L 221.38279 889.72271 
L 225.188097 885.45498 
L 229.069509 880.760234 
L 233.103134 875.522194 
L 237.441184 869.510051 
L 242.464188 862.14704 
L 257.304884 840.095496 
L 260.349129 836.138044 
L 262.936737 833.11781 
L 265.219921 830.776077 
L 267.274787 828.968432 
L 269.17744 827.576217 
L 271.003987 826.515108 
L 272.678322 825.793152 
L 274.276551 825.33664 
L 275.87478 825.113129 
L 277.396902 825.119676 
L 278.919025 825.340606 
L 280.517253 825.801378 
L 282.115482 826.492 
L 283.789817 827.45452 
L 285.616364 828.771653 
L 287.519017 830.423701 
L 289.573883 832.507595 
L 291.780961 835.06948 
L 294.064145 838.065034 
L 296.11901 841.120897 
L 297.565027 843.64796 
L 298.4783 845.677972 
L 299.087149 847.603425 
L 299.46768 849.490312 
L 299.772104 852.103814 
L 300.000423 855.978643 
L 300.152635 861.351661 
L 300.304847 874.502661 
L 300.45706 914.43855 
L 300.533166 904.185944 
L 300.685378 844.348124 
L 300.83759 840.275186 
L 301.065909 841.670574 
L 301.522545 844.282133 
L 302.131394 846.396683 
L 302.968562 848.424321 
L 304.262366 850.931786 
L 306.54555 854.822339 
L 310.579175 861.223188 
L 315.297755 868.315123 
L 319.711911 874.556129 
L 323.821642 879.983945 
L 327.77916 884.841477 
L 331.584467 889.166797 
L 335.389773 893.160125 
L 339.19508 896.834919 
L 343.076493 900.273398 
L 347.034011 903.479097 
L 351.067636 906.458888 
L 355.253473 909.270732 
L 359.591523 911.911848 
L 364.081785 914.382522 
L 368.800365 916.721365 
L 373.747263 918.922223 
L 378.998586 921.010946 
L 384.554334 922.978197 
L 390.490612 924.841147 
L 396.883527 926.609737 
L 403.733078 928.271225 
L 411.191479 929.848078 
L 419.334835 931.338003 
L 428.239252 932.737593 
L 438.133049 934.062164 
L 449.092332 935.300106 
L 461.421525 936.462936 
L 466.977273 936.921211 
L 466.977273 936.921211 
" style="fill:none;stroke:#0000ff;stroke-linecap:square;stroke-width:5;"/>
   </g>
   <g id="line2d_32">
    <path clip-path="url(#p443c06c139)" d="M 86.522727 833.172759 
L 99.917406 834.346216 
L 111.63775 835.588531 
L 122.216502 836.929143 
L 131.729769 838.356787 
L 140.253655 839.856047 
L 148.016481 841.441482 
L 155.170457 843.125657 
L 161.79169 844.911124 
L 167.880181 846.77937 
L 173.58814 848.760701 
L 178.915569 850.841966 
L 183.938574 853.039617 
L 188.73326 855.379886 
L 193.299628 857.857554 
L 197.637678 860.463502 
L 201.823515 863.237246 
L 205.85714 866.175937 
L 209.814658 869.336794 
L 213.696071 872.726478 
L 217.501378 876.348457 
L 221.306684 880.283595 
L 225.111991 884.544736 
L 228.993403 889.232735 
L 233.027028 894.464053 
L 237.365078 900.469752 
L 242.388082 907.827331 
L 257.38099 930.096475 
L 260.425235 934.044366 
L 263.012843 937.05417 
L 265.296027 939.384938 
L 267.350893 941.181504 
L 269.253546 942.562458 
L 271.003987 943.573948 
L 272.678322 944.296016 
L 274.276551 944.752618 
L 275.87478 944.976261 
L 277.396902 944.969893 
L 278.919025 944.749132 
L 280.517253 944.288609 
L 282.115482 943.598305 
L 283.789817 942.636187 
L 285.616364 941.319652 
L 287.519017 939.668501 
L 289.573883 937.586129 
L 291.780961 935.027153 
L 294.064145 932.03819 
L 296.11901 928.998775 
L 297.565027 926.508664 
L 298.4783 924.551626 
L 299.087149 922.76906 
L 299.543786 920.689012 
L 299.848211 918.250445 
L 300.076529 914.73121 
L 300.304847 906.105454 
L 300.45706 899.221777 
L 300.609272 941.831578 
L 300.685378 940.759538 
L 300.989803 931.408666 
L 301.294227 927.86293 
L 301.750864 925.265831 
L 302.359713 923.240708 
L 303.19688 921.262978 
L 304.566791 918.645857 
L 307.002187 914.533076 
L 311.188024 907.931546 
L 315.906604 900.890335 
L 320.244653 894.808049 
L 324.278278 889.525777 
L 328.159691 884.799494 
L 331.964998 880.507685 
L 335.770304 876.546802 
L 339.575611 872.902888 
L 343.457023 869.493956 
L 347.414542 866.316124 
L 351.448167 863.362417 
L 355.634004 860.575192 
L 359.972054 857.957101 
L 364.462315 855.507772 
L 369.180895 853.188881 
L 374.127794 851.006511 
L 379.379117 848.934988 
L 384.934864 846.983604 
L 390.871142 845.135292 
L 397.264057 843.38023 
L 404.189715 841.71393 
L 411.648116 840.150616 
L 419.791472 838.673012 
L 428.771995 837.273564 
L 438.665792 835.960727 
L 449.777287 834.717654 
L 462.10648 833.566775 
L 466.977273 833.167034 
L 466.977273 833.167034 
" style="fill:none;stroke:#ff0000;stroke-linecap:square;stroke-width:5;"/>
   </g>
   <g id="line2d_33">
    <path clip-path="url(#p443c06c139)" d="M 86.522727 816.262537 
L 98.166965 815.049726 
L 108.289081 813.778579 
L 117.421816 812.410701 
L 125.489066 810.983014 
L 132.795255 809.469073 
L 139.416488 807.873996 
L 145.428872 806.201543 
L 150.908514 804.453042 
L 156.007624 802.595488 
L 160.726204 800.640602 
L 165.14036 798.568286 
L 169.173985 796.431872 
L 172.979291 794.166779 
L 176.556279 791.779467 
L 179.904949 789.280543 
L 183.101407 786.618618 
L 186.145652 783.79239 
L 189.037685 780.803247 
L 191.777506 777.655777 
L 194.44122 774.255936 
L 196.952722 770.697182 
L 199.388119 766.869261 
L 201.747409 762.753618 
L 204.030592 758.331327 
L 206.313776 753.410255 
L 208.520854 748.104901 
L 210.651826 742.389979 
L 212.706691 736.239858 
L 214.761557 729.360512 
L 216.740316 721.933626 
L 218.64297 713.92655 
L 220.545623 704.927001 
L 222.37217 695.193982 
L 224.198717 684.200809 
L 225.949158 672.272025 
L 227.623493 659.354885 
L 229.297828 644.693918 
L 230.896056 628.770738 
L 232.494285 610.604765 
L 234.092514 589.754753 
L 235.614637 566.897722 
L 237.136759 540.503436 
L 238.582776 511.461562 
L 240.028792 477.712135 
L 241.398702 440.442663 
L 242.768613 396.851406 
L 244.062417 348.548707 
L 245.356221 291.682916 
L 246.573919 228.480445 
L 247.791617 153.590998 
L 249.009315 64.064914 
L 249.770315 -1 
M 299.744139 -1 
L 300.076529 236.050692 
L 300.380953 641.336804 
L 300.533166 943.914881 
L 300.53719 -1 
M 304.34791 -1 
L 305.327852 93.032341 
L 306.393338 174.860957 
L 307.53493 246.497755 
L 308.752628 309.677698 
L 310.046432 365.568025 
L 311.416342 415.056546 
L 312.786253 456.755256 
L 314.232269 494.083221 
L 315.678286 525.905194 
L 317.200408 554.601253 
L 318.722531 579.287792 
L 320.32076 601.679162 
L 321.918988 621.091567 
L 323.593323 638.787219 
L 325.267658 654.234904 
L 327.018099 668.379464 
L 328.844646 681.310041 
L 330.671193 692.67333 
L 332.573847 703.107642 
L 334.4765 712.331445 
L 336.455259 720.835415 
L 338.434019 728.393482 
L 340.488884 735.387528 
L 342.619856 741.852902 
L 344.750827 747.630364 
L 346.957905 752.990237 
L 349.241089 757.959253 
L 351.600379 762.563085 
L 354.035775 766.827135 
L 356.547278 770.775273 
L 359.134886 774.430516 
L 361.798601 777.814633 
L 364.614527 781.030317 
L 367.50656 783.997761 
L 370.550806 786.80399 
L 373.747263 789.447719 
L 377.172039 791.98328 
L 380.749027 794.349479 
L 384.554334 796.595117 
L 388.587959 798.713933 
L 392.849902 800.702969 
L 397.492376 802.621232 
L 402.51538 804.449954 
L 407.918916 806.176341 
L 413.626875 807.772919 
L 419.943684 809.313119 
L 426.945448 810.79008 
L 434.708273 812.195896 
L 443.308266 813.52272 
L 452.973745 814.781989 
L 463.552497 815.937078 
L 466.977273 816.26937 
L 466.977273 816.26937 
" style="fill:none;stroke:#ff0000;stroke-linecap:square;stroke-width:5;"/>
   </g>
   <g id="line2d_34">
    <path clip-path="url(#p443c06c139)" d="M 86.522727 825.088278 
L 299.695998 824.983113 
L 300.152635 824.766721 
L 300.228741 824.736831 
L 300.304847 824.945204 
L 300.380953 826.937584 
L 300.45706 842.331392 
L 300.609272 817.585087 
L 300.83759 824.128753 
L 301.065909 824.778686 
L 301.370333 824.968361 
L 302.131394 825.05836 
L 305.708383 825.086306 
L 391.632204 825.088257 
L 466.977273 825.088221 
L 466.977273 825.088221 
" style="fill:none;stroke:#0000ff;stroke-linecap:square;stroke-width:5;"/>
   </g>
   <g id="patch_14">
    <path d="M 67.5 945 
L 67.5 705.176471 
" style="fill:none;stroke:#000000;stroke-linecap:square;stroke-linejoin:miter;stroke-width:0.8;"/>
   </g>
   <g id="patch_15">
    <path d="M 486 945 
L 486 705.176471 
" style="fill:none;stroke:#000000;stroke-linecap:square;stroke-linejoin:miter;stroke-width:0.8;"/>
   </g>
   <g id="patch_16">
    <path d="M 67.5 945 
L 486 945 
" style="fill:none;stroke:#000000;stroke-linecap:square;stroke-linejoin:miter;stroke-width:0.8;"/>
   </g>
   <g id="patch_17">
    <path d="M 67.5 705.176471 
L 486 705.176471 
" style="fill:none;stroke:#000000;stroke-linecap:square;stroke-linejoin:miter;stroke-width:0.8;"/>
   </g>
  </g>
  <g id="axes_4">
   <g id="matplotlib.axis_7">
    <g id="xtick_10">
     <g id="text_15">
      <!-- 0.00 -->
      <g style="opacity:0;" transform="translate(34.101562 974.795313)scale(0.3 -0.3)">
       <defs>
        <path d="M 10.6875 12.40625 
L 21 12.40625 
L 21 0 
L 10.6875 0 
z
" id="DejaVuSans-46"/>
       </defs>
       <use xlink:href="#DejaVuSans-48"/>
       <use x="63.623047" xlink:href="#DejaVuSans-46"/>
       <use x="95.410156" xlink:href="#DejaVuSans-48"/>
       <use x="159.033203" xlink:href="#DejaVuSans-48"/>
      </g>
     </g>
    </g>
    <g id="xtick_11">
     <g id="text_16">
      <!-- 0.25 -->
      <g style="opacity:0;" transform="translate(138.726562 974.795313)scale(0.3 -0.3)">
       <use xlink:href="#DejaVuSans-48"/>
       <use x="63.623047" xlink:href="#DejaVuSans-46"/>
       <use x="95.410156" xlink:href="#DejaVuSans-50"/>
       <use x="159.033203" xlink:href="#DejaVuSans-53"/>
      </g>
     </g>
    </g>
    <g id="xtick_12">
     <g id="text_17">
      <!-- 0.50 -->
      <g style="opacity:0;" transform="translate(243.351562 974.795313)scale(0.3 -0.3)">
       <use xlink:href="#DejaVuSans-48"/>
       <use x="63.623047" xlink:href="#DejaVuSans-46"/>
       <use x="95.410156" xlink:href="#DejaVuSans-53"/>
       <use x="159.033203" xlink:href="#DejaVuSans-48"/>
      </g>
     </g>
    </g>
    <g id="xtick_13">
     <g id="text_18">
      <!-- 0.75 -->
      <g style="opacity:0;" transform="translate(347.976562 974.795313)scale(0.3 -0.3)">
       <defs>
        <path d="M 8.203125 72.90625 
L 55.078125 72.90625 
L 55.078125 68.703125 
L 28.609375 0 
L 18.3125 0 
L 43.21875 64.59375 
L 8.203125 64.59375 
z
" id="DejaVuSans-55"/>
       </defs>
       <use xlink:href="#DejaVuSans-48"/>
       <use x="63.623047" xlink:href="#DejaVuSans-46"/>
       <use x="95.410156" xlink:href="#DejaVuSans-55"/>
       <use x="159.033203" xlink:href="#DejaVuSans-53"/>
      </g>
     </g>
    </g>
    <g id="xtick_14">
     <g id="text_19">
      <!-- 1.00 -->
      <g style="opacity:0;" transform="translate(452.601562 974.795313)scale(0.3 -0.3)">
       <use xlink:href="#DejaVuSans-49"/>
       <use x="63.623047" xlink:href="#DejaVuSans-46"/>
       <use x="95.410156" xlink:href="#DejaVuSans-48"/>
       <use x="159.033203" xlink:href="#DejaVuSans-48"/>
      </g>
     </g>
    </g>
    <g id="text_20">
     <!-- $(\omega-\omega_{c})/\kappa$ -->
     <g transform="translate(201.15 1007.829687)scale(0.3 -0.3)">
      <defs>
       <path d="M 31 75.875 
Q 24.46875 64.65625 21.28125 53.65625 
Q 18.109375 42.671875 18.109375 31.390625 
Q 18.109375 20.125 21.3125 9.0625 
Q 24.515625 -2 31 -13.1875 
L 23.1875 -13.1875 
Q 15.875 -1.703125 12.234375 9.375 
Q 8.59375 20.453125 8.59375 31.390625 
Q 8.59375 42.28125 12.203125 53.3125 
Q 15.828125 64.359375 23.1875 75.875 
z
" id="DejaVuSans-40"/>
       <path d="M 26.859375 -1.421875 
Q 6.59375 -1.421875 6.59375 27.59375 
Q 6.59375 39.0625 14.15625 54.6875 
L 23.828125 54.6875 
Q 16.84375 39.0625 16.84375 27.34375 
Q 16.84375 6.203125 27.6875 6.203125 
Q 37.59375 6.203125 37.59375 32.46875 
L 45.90625 32.46875 
Q 45.90625 6.203125 55.8125 6.203125 
Q 66.65625 6.203125 66.65625 27.34375 
Q 66.65625 39.0625 59.671875 54.6875 
L 69.34375 54.6875 
Q 76.90625 39.0625 76.90625 27.59375 
Q 76.90625 -1.421875 56.640625 -1.421875 
Q 43.359375 -1.421875 41.75 13.1875 
Q 39.75 -1.421875 26.859375 -1.421875 
z
" id="DejaVuSans-969"/>
       <path d="M 8.015625 75.875 
L 15.828125 75.875 
Q 23.140625 64.359375 26.78125 53.3125 
Q 30.421875 42.28125 30.421875 31.390625 
Q 30.421875 20.453125 26.78125 9.375 
Q 23.140625 -1.703125 15.828125 -13.1875 
L 8.015625 -13.1875 
Q 14.5 -2 17.703125 9.0625 
Q 20.90625 20.125 20.90625 31.390625 
Q 20.90625 42.671875 17.703125 53.65625 
Q 14.5 64.65625 8.015625 75.875 
z
" id="DejaVuSans-41"/>
       <path d="M 25.390625 72.90625 
L 33.6875 72.90625 
L 8.296875 -9.28125 
L 0 -9.28125 
z
" id="DejaVuSans-47"/>
       <path d="M 9.328125 54.6875 
L 18.609375 54.6875 
L 18.609375 31.984375 
L 42.1875 54.6875 
L 53.125 54.6875 
L 31.59375 34.078125 
L 56.5 0 
L 45.515625 0 
L 25.296875 28.21875 
L 18.609375 21.921875 
L 18.609375 0 
L 9.328125 0 
z
" id="DejaVuSans-954"/>
      </defs>
      <use transform="translate(0 0.125)" xlink:href="#DejaVuSans-40"/>
      <use transform="translate(39.013672 0.125)" xlink:href="#DejaVuSans-969"/>
      <use transform="translate(142.236328 0.125)" xlink:href="#DejaVuSans-8722"/>
      <use transform="translate(245.507812 0.125)" xlink:href="#DejaVuSans-969"/>
      <use transform="translate(330.205078 -16.28125)scale(0.7)" xlink:href="#DejaVuSans-99"/>
      <use transform="translate(371.425781 0.125)" xlink:href="#DejaVuSans-41"/>
      <use transform="translate(410.439453 0.125)" xlink:href="#DejaVuSans-47"/>
      <use transform="translate(444.130859 0.125)" xlink:href="#DejaVuSans-954"/>
     </g>
    </g>
   </g>
   <g id="matplotlib.axis_8">
    <g id="ytick_10">
     <g id="text_21">
      <!-- 0.0 -->
      <g style="opacity:0;" transform="translate(12.790625 956.397656)scale(0.3 -0.3)">
       <use xlink:href="#DejaVuSans-48"/>
       <use x="63.623047" xlink:href="#DejaVuSans-46"/>
       <use x="95.410156" xlink:href="#DejaVuSans-48"/>
      </g>
     </g>
    </g>
    <g id="ytick_11">
     <g id="text_22">
      <!-- 0.2 -->
      <g style="opacity:0;" transform="translate(12.790625 793.317656)scale(0.3 -0.3)">
       <use xlink:href="#DejaVuSans-48"/>
       <use x="63.623047" xlink:href="#DejaVuSans-46"/>
       <use x="95.410156" xlink:href="#DejaVuSans-50"/>
      </g>
     </g>
    </g>
    <g id="ytick_12">
     <g id="text_23">
      <!-- 0.4 -->
      <g style="opacity:0;" transform="translate(12.790625 630.237656)scale(0.3 -0.3)">
       <defs>
        <path d="M 37.796875 64.3125 
L 12.890625 25.390625 
L 37.796875 25.390625 
z
M 35.203125 72.90625 
L 47.609375 72.90625 
L 47.609375 25.390625 
L 58.015625 25.390625 
L 58.015625 17.1875 
L 47.609375 17.1875 
L 47.609375 0 
L 37.796875 0 
L 37.796875 17.1875 
L 4.890625 17.1875 
L 4.890625 26.703125 
z
" id="DejaVuSans-52"/>
       </defs>
       <use xlink:href="#DejaVuSans-48"/>
       <use x="63.623047" xlink:href="#DejaVuSans-46"/>
       <use x="95.410156" xlink:href="#DejaVuSans-52"/>
      </g>
     </g>
    </g>
    <g id="ytick_13">
     <g id="text_24">
      <!-- 0.6 -->
      <g style="opacity:0;" transform="translate(12.790625 467.157656)scale(0.3 -0.3)">
       <defs>
        <path d="M 33.015625 40.375 
Q 26.375 40.375 22.484375 35.828125 
Q 18.609375 31.296875 18.609375 23.390625 
Q 18.609375 15.53125 22.484375 10.953125 
Q 26.375 6.390625 33.015625 6.390625 
Q 39.65625 6.390625 43.53125 10.953125 
Q 47.40625 15.53125 47.40625 23.390625 
Q 47.40625 31.296875 43.53125 35.828125 
Q 39.65625 40.375 33.015625 40.375 
z
M 52.59375 71.296875 
L 52.59375 62.3125 
Q 48.875 64.0625 45.09375 64.984375 
Q 41.3125 65.921875 37.59375 65.921875 
Q 27.828125 65.921875 22.671875 59.328125 
Q 17.53125 52.734375 16.796875 39.40625 
Q 19.671875 43.65625 24.015625 45.921875 
Q 28.375 48.1875 33.59375 48.1875 
Q 44.578125 48.1875 50.953125 41.515625 
Q 57.328125 34.859375 57.328125 23.390625 
Q 57.328125 12.15625 50.6875 5.359375 
Q 44.046875 -1.421875 33.015625 -1.421875 
Q 20.359375 -1.421875 13.671875 8.265625 
Q 6.984375 17.96875 6.984375 36.375 
Q 6.984375 53.65625 15.1875 63.9375 
Q 23.390625 74.21875 37.203125 74.21875 
Q 40.921875 74.21875 44.703125 73.484375 
Q 48.484375 72.75 52.59375 71.296875 
z
" id="DejaVuSans-54"/>
       </defs>
       <use xlink:href="#DejaVuSans-48"/>
       <use x="63.623047" xlink:href="#DejaVuSans-46"/>
       <use x="95.410156" xlink:href="#DejaVuSans-54"/>
      </g>
     </g>
    </g>
    <g id="ytick_14">
     <g id="text_25">
      <!-- 0.8 -->
      <g style="opacity:0;" transform="translate(12.790625 304.077656)scale(0.3 -0.3)">
       <defs>
        <path d="M 31.78125 34.625 
Q 24.75 34.625 20.71875 30.859375 
Q 16.703125 27.09375 16.703125 20.515625 
Q 16.703125 13.921875 20.71875 10.15625 
Q 24.75 6.390625 31.78125 6.390625 
Q 38.8125 6.390625 42.859375 10.171875 
Q 46.921875 13.96875 46.921875 20.515625 
Q 46.921875 27.09375 42.890625 30.859375 
Q 38.875 34.625 31.78125 34.625 
z
M 21.921875 38.8125 
Q 15.578125 40.375 12.03125 44.71875 
Q 8.5 49.078125 8.5 55.328125 
Q 8.5 64.0625 14.71875 69.140625 
Q 20.953125 74.21875 31.78125 74.21875 
Q 42.671875 74.21875 48.875 69.140625 
Q 55.078125 64.0625 55.078125 55.328125 
Q 55.078125 49.078125 51.53125 44.71875 
Q 48 40.375 41.703125 38.8125 
Q 48.828125 37.15625 52.796875 32.3125 
Q 56.78125 27.484375 56.78125 20.515625 
Q 56.78125 9.90625 50.3125 4.234375 
Q 43.84375 -1.421875 31.78125 -1.421875 
Q 19.734375 -1.421875 13.25 4.234375 
Q 6.78125 9.90625 6.78125 20.515625 
Q 6.78125 27.484375 10.78125 32.3125 
Q 14.796875 37.15625 21.921875 38.8125 
z
M 18.3125 54.390625 
Q 18.3125 48.734375 21.84375 45.5625 
Q 25.390625 42.390625 31.78125 42.390625 
Q 38.140625 42.390625 41.71875 45.5625 
Q 45.3125 48.734375 45.3125 54.390625 
Q 45.3125 60.0625 41.71875 63.234375 
Q 38.140625 66.40625 31.78125 66.40625 
Q 25.390625 66.40625 21.84375 63.234375 
Q 18.3125 60.0625 18.3125 54.390625 
z
" id="DejaVuSans-56"/>
       </defs>
       <use xlink:href="#DejaVuSans-48"/>
       <use x="63.623047" xlink:href="#DejaVuSans-46"/>
       <use x="95.410156" xlink:href="#DejaVuSans-56"/>
      </g>
     </g>
    </g>
    <g id="ytick_15">
     <g id="text_26">
      <!-- 1.0 -->
      <g style="opacity:0;" transform="translate(12.790625 140.997656)scale(0.3 -0.3)">
       <use xlink:href="#DejaVuSans-49"/>
       <use x="63.623047" xlink:href="#DejaVuSans-46"/>
       <use x="95.410156" xlink:href="#DejaVuSans-48"/>
      </g>
     </g>
    </g>
   </g>
  </g>
 </g>
 <defs>
  <clipPath id="pf91dedebc0">
   <rect height="239.823529" width="418.5" x="67.5" y="129.6"/>
  </clipPath>
  <clipPath id="p908b8f192f">
   <rect height="239.823529" width="418.5" x="67.5" y="417.388235"/>
  </clipPath>
  <clipPath id="p443c06c139">
   <rect height="239.823529" width="418.5" x="67.5" y="705.176471"/>
  </clipPath>
 </defs>
</svg>
