<?xml version="1.0" encoding="utf-8" standalone="no"?>
<!DOCTYPE svg PUBLIC "-//W3C//DTD SVG 1.1//EN"
  "http://www.w3.org/Graphics/SVG/1.1/DTD/svg11.dtd">
<!-- Created with matplotlib (https://matplotlib.org/) -->
<svg height="1080pt" version="1.1" viewBox="0 0 1080 1080" width="1080pt" xmlns="http://www.w3.org/2000/svg" xmlns:xlink="http://www.w3.org/1999/xlink">
 <metadata>
  <rdf:RDF xmlns:cc="http://creativecommons.org/ns#" xmlns:dc="http://purl.org/dc/elements/1.1/" xmlns:rdf="http://www.w3.org/1999/02/22-rdf-syntax-ns#">
   <cc:Work>
    <dc:type rdf:resource="http://purl.org/dc/dcmitype/StillImage"/>
    <dc:date>2021-04-21T17:16:03.687589</dc:date>
    <dc:format>image/svg+xml</dc:format>
    <dc:creator>
     <cc:Agent>
      <dc:title>Matplotlib v3.3.2, https://matplotlib.org/</dc:title>
     </cc:Agent>
    </dc:creator>
   </cc:Work>
  </rdf:RDF>
 </metadata>
 <defs>
  <style type="text/css">*{stroke-linecap:butt;stroke-linejoin:round;}</style>
 </defs>
 <g id="figure_1">
  <g id="patch_1">
   <path d="M 0 1080 
L 1080 1080 
L 1080 0 
L 0 0 
z
" style="fill:none;"/>
  </g>
  <g id="axes_1">
   <g id="patch_2">
    <path d="M 135 500.236364 
L 515.454545 500.236364 
L 515.454545 129.6 
L 135 129.6 
z
" style="fill:#ffffff;"/>
   </g>
   <g id="matplotlib.axis_1">
    <g id="xtick_1">
     <g id="line2d_1">
      <defs>
       <path d="M 0 0 
L 0 3.5 
" id="mb71743958a" style="stroke:#000000;stroke-width:0.8;"/>
      </defs>
      <g>
       <use style="stroke:#000000;stroke-width:0.8;" x="139.323347" xlink:href="#mb71743958a" y="500.236364"/>
      </g>
     </g>
    </g>
    <g id="xtick_2">
     <g id="line2d_2">
      <g>
       <use style="stroke:#000000;stroke-width:0.8;" x="325.227273" xlink:href="#mb71743958a" y="500.236364"/>
      </g>
     </g>
    </g>
    <g id="xtick_3">
     <g id="line2d_3">
      <g>
       <use style="stroke:#000000;stroke-width:0.8;" x="511.131198" xlink:href="#mb71743958a" y="500.236364"/>
      </g>
     </g>
    </g>
   </g>
   <g id="matplotlib.axis_2">
    <g id="ytick_1">
     <g id="line2d_4">
      <defs>
       <path d="M 0 0 
L -3.5 0 
" id="m1d6841d8ab" style="stroke:#000000;stroke-width:0.8;"/>
      </defs>
      <g>
       <use style="stroke:#000000;stroke-width:0.8;" x="135" xlink:href="#m1d6841d8ab" y="483.389388"/>
      </g>
     </g>
     <g id="text_1">
      <!-- 0.0 -->
      <g transform="translate(80.290625 494.787045)scale(0.3 -0.3)">
       <defs>
        <path d="M 31.78125 66.40625 
Q 24.171875 66.40625 20.328125 58.90625 
Q 16.5 51.421875 16.5 36.375 
Q 16.5 21.390625 20.328125 13.890625 
Q 24.171875 6.390625 31.78125 6.390625 
Q 39.453125 6.390625 43.28125 13.890625 
Q 47.125 21.390625 47.125 36.375 
Q 47.125 51.421875 43.28125 58.90625 
Q 39.453125 66.40625 31.78125 66.40625 
z
M 31.78125 74.21875 
Q 44.046875 74.21875 50.515625 64.515625 
Q 56.984375 54.828125 56.984375 36.375 
Q 56.984375 17.96875 50.515625 8.265625 
Q 44.046875 -1.421875 31.78125 -1.421875 
Q 19.53125 -1.421875 13.0625 8.265625 
Q 6.59375 17.96875 6.59375 36.375 
Q 6.59375 54.828125 13.0625 64.515625 
Q 19.53125 74.21875 31.78125 74.21875 
z
" id="DejaVuSans-48"/>
        <path d="M 10.6875 12.40625 
L 21 12.40625 
L 21 0 
L 10.6875 0 
z
" id="DejaVuSans-46"/>
       </defs>
       <use xlink:href="#DejaVuSans-48"/>
       <use x="63.623047" xlink:href="#DejaVuSans-46"/>
       <use x="95.410156" xlink:href="#DejaVuSans-48"/>
      </g>
     </g>
    </g>
    <g id="ytick_2">
     <g id="line2d_5">
      <g>
       <use style="stroke:#000000;stroke-width:0.8;" x="135" xlink:href="#m1d6841d8ab" y="416.00033"/>
      </g>
     </g>
     <g id="text_2">
      <!-- 0.2 -->
      <g transform="translate(80.290625 427.397986)scale(0.3 -0.3)">
       <defs>
        <path d="M 19.1875 8.296875 
L 53.609375 8.296875 
L 53.609375 0 
L 7.328125 0 
L 7.328125 8.296875 
Q 12.9375 14.109375 22.625 23.890625 
Q 32.328125 33.6875 34.8125 36.53125 
Q 39.546875 41.84375 41.421875 45.53125 
Q 43.3125 49.21875 43.3125 52.78125 
Q 43.3125 58.59375 39.234375 62.25 
Q 35.15625 65.921875 28.609375 65.921875 
Q 23.96875 65.921875 18.8125 64.3125 
Q 13.671875 62.703125 7.8125 59.421875 
L 7.8125 69.390625 
Q 13.765625 71.78125 18.9375 73 
Q 24.125 74.21875 28.421875 74.21875 
Q 39.75 74.21875 46.484375 68.546875 
Q 53.21875 62.890625 53.21875 53.421875 
Q 53.21875 48.921875 51.53125 44.890625 
Q 49.859375 40.875 45.40625 35.40625 
Q 44.1875 33.984375 37.640625 27.21875 
Q 31.109375 20.453125 19.1875 8.296875 
z
" id="DejaVuSans-50"/>
       </defs>
       <use xlink:href="#DejaVuSans-48"/>
       <use x="63.623047" xlink:href="#DejaVuSans-46"/>
       <use x="95.410156" xlink:href="#DejaVuSans-50"/>
      </g>
     </g>
    </g>
    <g id="ytick_3">
     <g id="line2d_6">
      <g>
       <use style="stroke:#000000;stroke-width:0.8;" x="135" xlink:href="#m1d6841d8ab" y="348.611271"/>
      </g>
     </g>
     <g id="text_3">
      <!-- 0.4 -->
      <g transform="translate(80.290625 360.008927)scale(0.3 -0.3)">
       <defs>
        <path d="M 37.796875 64.3125 
L 12.890625 25.390625 
L 37.796875 25.390625 
z
M 35.203125 72.90625 
L 47.609375 72.90625 
L 47.609375 25.390625 
L 58.015625 25.390625 
L 58.015625 17.1875 
L 47.609375 17.1875 
L 47.609375 0 
L 37.796875 0 
L 37.796875 17.1875 
L 4.890625 17.1875 
L 4.890625 26.703125 
z
" id="DejaVuSans-52"/>
       </defs>
       <use xlink:href="#DejaVuSans-48"/>
       <use x="63.623047" xlink:href="#DejaVuSans-46"/>
       <use x="95.410156" xlink:href="#DejaVuSans-52"/>
      </g>
     </g>
    </g>
    <g id="ytick_4">
     <g id="line2d_7">
      <g>
       <use style="stroke:#000000;stroke-width:0.8;" x="135" xlink:href="#m1d6841d8ab" y="281.222212"/>
      </g>
     </g>
     <g id="text_4">
      <!-- 0.6 -->
      <g transform="translate(80.290625 292.619869)scale(0.3 -0.3)">
       <defs>
        <path d="M 33.015625 40.375 
Q 26.375 40.375 22.484375 35.828125 
Q 18.609375 31.296875 18.609375 23.390625 
Q 18.609375 15.53125 22.484375 10.953125 
Q 26.375 6.390625 33.015625 6.390625 
Q 39.65625 6.390625 43.53125 10.953125 
Q 47.40625 15.53125 47.40625 23.390625 
Q 47.40625 31.296875 43.53125 35.828125 
Q 39.65625 40.375 33.015625 40.375 
z
M 52.59375 71.296875 
L 52.59375 62.3125 
Q 48.875 64.0625 45.09375 64.984375 
Q 41.3125 65.921875 37.59375 65.921875 
Q 27.828125 65.921875 22.671875 59.328125 
Q 17.53125 52.734375 16.796875 39.40625 
Q 19.671875 43.65625 24.015625 45.921875 
Q 28.375 48.1875 33.59375 48.1875 
Q 44.578125 48.1875 50.953125 41.515625 
Q 57.328125 34.859375 57.328125 23.390625 
Q 57.328125 12.15625 50.6875 5.359375 
Q 44.046875 -1.421875 33.015625 -1.421875 
Q 20.359375 -1.421875 13.671875 8.265625 
Q 6.984375 17.96875 6.984375 36.375 
Q 6.984375 53.65625 15.1875 63.9375 
Q 23.390625 74.21875 37.203125 74.21875 
Q 40.921875 74.21875 44.703125 73.484375 
Q 48.484375 72.75 52.59375 71.296875 
z
" id="DejaVuSans-54"/>
       </defs>
       <use xlink:href="#DejaVuSans-48"/>
       <use x="63.623047" xlink:href="#DejaVuSans-46"/>
       <use x="95.410156" xlink:href="#DejaVuSans-54"/>
      </g>
     </g>
    </g>
    <g id="ytick_5">
     <g id="line2d_8">
      <g>
       <use style="stroke:#000000;stroke-width:0.8;" x="135" xlink:href="#m1d6841d8ab" y="213.833154"/>
      </g>
     </g>
     <g id="text_5">
      <!-- 0.8 -->
      <g transform="translate(80.290625 225.23081)scale(0.3 -0.3)">
       <defs>
        <path d="M 31.78125 34.625 
Q 24.75 34.625 20.71875 30.859375 
Q 16.703125 27.09375 16.703125 20.515625 
Q 16.703125 13.921875 20.71875 10.15625 
Q 24.75 6.390625 31.78125 6.390625 
Q 38.8125 6.390625 42.859375 10.171875 
Q 46.921875 13.96875 46.921875 20.515625 
Q 46.921875 27.09375 42.890625 30.859375 
Q 38.875 34.625 31.78125 34.625 
z
M 21.921875 38.8125 
Q 15.578125 40.375 12.03125 44.71875 
Q 8.5 49.078125 8.5 55.328125 
Q 8.5 64.0625 14.71875 69.140625 
Q 20.953125 74.21875 31.78125 74.21875 
Q 42.671875 74.21875 48.875 69.140625 
Q 55.078125 64.0625 55.078125 55.328125 
Q 55.078125 49.078125 51.53125 44.71875 
Q 48 40.375 41.703125 38.8125 
Q 48.828125 37.15625 52.796875 32.3125 
Q 56.78125 27.484375 56.78125 20.515625 
Q 56.78125 9.90625 50.3125 4.234375 
Q 43.84375 -1.421875 31.78125 -1.421875 
Q 19.734375 -1.421875 13.25 4.234375 
Q 6.78125 9.90625 6.78125 20.515625 
Q 6.78125 27.484375 10.78125 32.3125 
Q 14.796875 37.15625 21.921875 38.8125 
z
M 18.3125 54.390625 
Q 18.3125 48.734375 21.84375 45.5625 
Q 25.390625 42.390625 31.78125 42.390625 
Q 38.140625 42.390625 41.71875 45.5625 
Q 45.3125 48.734375 45.3125 54.390625 
Q 45.3125 60.0625 41.71875 63.234375 
Q 38.140625 66.40625 31.78125 66.40625 
Q 25.390625 66.40625 21.84375 63.234375 
Q 18.3125 60.0625 18.3125 54.390625 
z
" id="DejaVuSans-56"/>
       </defs>
       <use xlink:href="#DejaVuSans-48"/>
       <use x="63.623047" xlink:href="#DejaVuSans-46"/>
       <use x="95.410156" xlink:href="#DejaVuSans-56"/>
      </g>
     </g>
    </g>
    <g id="ytick_6">
     <g id="line2d_9">
      <g>
       <use style="stroke:#000000;stroke-width:0.8;" x="135" xlink:href="#m1d6841d8ab" y="146.444095"/>
      </g>
     </g>
     <g id="text_6">
      <!-- 1.0 -->
      <g transform="translate(80.290625 157.841751)scale(0.3 -0.3)">
       <defs>
        <path d="M 12.40625 8.296875 
L 28.515625 8.296875 
L 28.515625 63.921875 
L 10.984375 60.40625 
L 10.984375 69.390625 
L 28.421875 72.90625 
L 38.28125 72.90625 
L 38.28125 8.296875 
L 54.390625 8.296875 
L 54.390625 0 
L 12.40625 0 
z
" id="DejaVuSans-49"/>
       </defs>
       <use xlink:href="#DejaVuSans-49"/>
       <use x="63.623047" xlink:href="#DejaVuSans-46"/>
       <use x="95.410156" xlink:href="#DejaVuSans-48"/>
      </g>
     </g>
    </g>
   </g>
   <g id="line2d_10">
    <path clip-path="url(#p9d79286c65)" d="M 152.293388 237.832435 
L 155.614383 243.421038 
L 158.935378 249.45288 
L 162.32556 256.083848 
L 165.78493 263.343969 
L 169.521049 271.711642 
L 174.018229 282.361349 
L 182.043967 301.46471 
L 184.396338 306.431361 
L 186.19521 309.756016 
L 187.648145 312.021416 
L 188.893518 313.581921 
L 189.931329 314.557679 
L 190.830765 315.125704 
L 191.661014 315.390911 
L 192.422075 315.390829 
L 193.113949 315.169118 
L 193.805823 314.717862 
L 194.566884 313.934026 
L 195.327946 312.824383 
L 196.158194 311.211845 
L 197.057631 308.953434 
L 198.026254 305.878993 
L 199.064065 301.789849 
L 200.171063 296.46048 
L 201.347249 289.64368 
L 202.592622 281.085485 
L 203.97637 269.956343 
L 205.498492 255.845054 
L 207.366552 236.27043 
L 213.455042 170.296837 
L 214.562041 161.526718 
L 215.461477 155.960017 
L 216.222538 152.515255 
L 216.845224 150.640602 
L 217.329536 149.802611 
L 217.675473 149.545849 
L 217.952223 149.549248 
L 218.29816 149.816417 
L 218.713284 150.524714 
L 219.197596 151.884122 
L 219.751095 154.132917 
L 220.442969 157.957293 
L 221.273217 163.952511 
L 222.241841 172.699529 
L 223.418027 185.442219 
L 225.009337 205.293797 
L 229.990829 269.201368 
L 231.443764 284.102365 
L 232.689137 294.656699 
L 233.796135 302.210898 
L 234.764759 307.405558 
L 235.664195 311.079197 
L 236.425256 313.361358 
L 237.11713 314.81386 
L 237.739817 315.643667 
L 238.293316 316.023763 
L 238.777627 316.096321 
L 239.261939 315.940351 
L 239.815438 315.499311 
L 240.438125 314.692351 
L 241.199186 313.298919 
L 242.098622 311.139374 
L 243.20562 307.829856 
L 244.520181 303.142739 
L 246.180678 296.347431 
L 248.463862 285.997862 
L 258.011722 241.676493 
L 260.779218 230.406876 
L 263.339151 220.885344 
L 265.829897 212.455721 
L 268.251456 205.021167 
L 270.673015 198.292939 
L 273.094573 192.22048 
L 275.516132 186.750478 
L 277.937691 181.83026 
L 280.35925 177.409328 
L 282.780808 173.440911 
L 285.271554 169.785826 
L 287.7623 166.521561 
L 290.322234 163.53381 
L 292.882167 160.881972 
L 295.511288 158.474044 
L 297.86366 156.587146 
L 298.140409 156.525097 
L 298.278784 156.445157 
L 298.417159 156.411786 
L 298.555533 156.926989 
L 298.624721 157.151434 
L 298.90147 155.986729 
L 299.316595 155.55048 
L 300.838717 154.473185 
L 303.537026 152.821615 
L 306.304521 151.384411 
L 307.203957 151.071498 
L 307.411519 151.136525 
L 307.549894 151.375731 
L 307.688269 152.280995 
L 307.826644 156.290783 
L 307.895831 158.527334 
L 308.172581 151.757718 
L 308.44933 150.82182 
L 308.864455 150.415197 
L 309.763891 149.960055 
L 311.9087 149.165964 
L 314.745383 148.343886 
L 317.374504 147.798795 
L 318.412315 147.737633 
L 318.689064 147.896808 
L 318.827439 148.34181 
L 318.896626 148.722856 
L 318.965814 148.59823 
L 319.173376 148.140099 
L 319.311751 148.308451 
L 319.450126 148.772273 
L 319.5885 149.909997 
L 319.726875 153.370066 
L 319.86525 166.939362 
L 319.934437 175.374506 
L 320.280374 151.703093 
L 320.626311 148.495871 
L 320.764686 148.37947 
L 320.833873 148.529173 
L 320.972248 149.966165 
L 321.041436 150.833929 
L 321.318185 147.949159 
L 321.594935 147.553654 
L 322.010059 147.414702 
L 322.494371 147.466207 
L 322.701933 147.695737 
L 322.840308 148.268974 
L 323.04787 151.367441 
L 323.117057 150.135317 
L 323.255432 148.971185 
L 323.393807 150.468867 
L 323.462994 150.223115 
L 323.601369 148.773877 
L 323.670556 148.946415 
L 323.808931 149.934958 
L 324.016493 148.419737 
L 324.085681 148.498389 
L 324.154868 148.790729 
L 324.36243 151.180375 
L 324.431618 151.081018 
L 324.777555 148.208405 
L 324.915929 148.089691 
L 324.985117 148.194102 
L 325.054304 148.147148 
L 325.261866 147.996244 
L 325.331054 147.966749 
L 325.469429 148.112811 
L 325.815366 147.545938 
L 325.95374 147.648669 
L 326.022928 147.723202 
L 326.299677 147.477401 
L 326.783989 147.565705 
L 326.991551 147.932038 
L 327.129926 148.407476 
L 327.268301 148.289837 
L 327.475863 148.956563 
L 327.614238 150.045884 
L 327.752613 153.589011 
L 327.960175 172.146012 
L 328.236924 153.577268 
L 328.306112 154.502267 
L 328.444486 158.736031 
L 328.652049 150.035642 
L 328.859611 148.589712 
L 329.067173 148.372094 
L 329.205548 148.485421 
L 329.343923 148.841912 
L 329.482297 149.761122 
L 329.759047 154.324309 
L 329.897422 166.980357 
L 330.035796 180.655077 
L 330.243359 153.747732 
L 330.450921 149.480623 
L 330.72767 148.254158 
L 331.00442 147.903807 
L 331.419544 147.757617 
L 332.180606 147.777196 
L 333.702728 148.072693 
L 335.709162 148.679536 
L 337.577222 149.470431 
L 339.099345 150.351051 
L 340.27553 151.271874 
L 341.244154 152.306413 
L 342.005215 153.434549 
L 342.627902 154.736502 
L 343.181401 156.432732 
L 343.665712 158.737123 
L 344.080837 161.988585 
L 344.426774 166.68374 
L 344.703523 173.397058 
L 344.980273 186.658891 
L 345.187835 207.905105 
L 345.395397 257.719098 
L 345.741334 434.686537 
L 345.810522 412.99576 
L 346.156459 204.701228 
L 346.433208 169.648398 
L 346.709958 159.706848 
L 346.986707 156.208074 
L 347.263457 154.951554 
L 347.471019 154.681962 
L 347.678581 154.742498 
L 347.955331 155.17195 
L 348.301268 156.151873 
L 348.716392 158.011775 
L 349.131516 160.993368 
L 349.477453 165.098812 
L 349.82339 172.446624 
L 350.10014 183.90272 
L 350.307702 200.584514 
L 350.515264 235.186367 
L 350.722826 316.867265 
L 350.999576 437.997822 
L 351.137951 358.810941 
L 351.4147 210.996977 
L 351.69145 175.872542 
L 351.760637 173.569821 
L 351.829825 173.573128 
L 351.899012 177.039646 
L 352.106574 212.239783 
L 352.383324 161.545664 
L 352.590886 155.7343 
L 352.867636 153.373558 
L 353.144385 152.529128 
L 353.421135 152.216438 
L 353.767072 152.155398 
L 354.251383 152.349416 
L 355.081632 152.975534 
L 356.949692 154.733193 
L 360.478249 158.364393 
L 363.453306 161.735936 
L 366.151615 165.13175 
L 368.711548 168.716026 
L 371.202294 172.597286 
L 373.623853 176.794385 
L 375.976224 181.320447 
L 378.328595 186.33946 
L 380.611779 191.731519 
L 382.894963 197.686487 
L 385.247335 204.462905 
L 387.599706 211.940406 
L 389.952077 220.162055 
L 392.373636 229.432415 
L 394.933569 240.122302 
L 397.770252 252.960775 
L 401.367997 270.371559 
L 406.487864 295.126112 
L 408.425111 303.342395 
L 409.878046 308.580024 
L 411.054232 312.011702 
L 411.953668 314.027092 
L 412.714729 315.249438 
L 413.337415 315.879733 
L 413.890915 316.133808 
L 414.375226 316.10221 
L 414.859538 315.818533 
L 415.34385 315.268718 
L 415.897349 314.296972 
L 416.520035 312.743015 
L 417.211909 310.41455 
L 418.042158 306.743856 
L 418.941594 301.645134 
L 419.910218 294.819416 
L 421.017216 285.330942 
L 422.262589 272.612386 
L 423.715524 255.398884 
L 425.791146 227.828095 
L 428.904578 186.610128 
L 430.219139 172.072966 
L 431.25695 162.757867 
L 432.156386 156.551282 
L 432.917447 152.795868 
L 433.540134 150.796268 
L 434.024445 149.922123 
L 434.370382 149.663666 
L 434.647132 149.675657 
L 434.993069 149.961118 
L 435.408193 150.694361 
L 435.892505 152.074362 
L 436.515191 154.64506 
L 437.276253 158.921709 
L 438.175689 165.417762 
L 439.282687 175.208357 
L 440.735622 190.272292 
L 443.295556 219.715083 
L 445.993864 249.868276 
L 447.723549 266.817744 
L 449.245671 279.632197 
L 450.629419 289.438416 
L 451.874792 296.76012 
L 453.050978 302.413837 
L 454.157976 306.680581 
L 455.195787 309.818041 
L 456.164411 312.053097 
L 457.063847 313.579405 
L 457.894095 314.558982 
L 458.655157 315.125717 
L 459.347031 315.388408 
L 460.038904 315.430458 
L 460.799966 315.243472 
L 461.630214 314.786825 
L 462.529651 314.026382 
L 463.567461 312.847802 
L 464.812834 311.069893 
L 466.26577 308.584765 
L 468.064642 305.034559 
L 470.347826 300.000706 
L 473.668821 292.086738 
L 483.078306 269.402121 
L 486.883612 260.943264 
L 490.412169 253.635505 
L 493.802351 247.117899 
L 497.123346 241.203422 
L 498.161157 239.447515 
L 498.161157 239.447515 
" style="fill:none;stroke:#0000ff;stroke-linecap:square;stroke-width:5;"/>
   </g>
   <g id="line2d_11">
    <path clip-path="url(#p9d79286c65)" d="M 152.293388 392.195369 
L 155.614383 386.629925 
L 158.935378 380.624986 
L 162.32556 374.026088 
L 165.854117 366.655178 
L 169.659424 358.169137 
L 174.294979 347.246847 
L 181.628842 329.91079 
L 184.119588 324.642377 
L 185.987648 321.185547 
L 187.509771 318.816811 
L 188.755144 317.263945 
L 189.792954 316.290818 
L 190.692391 315.72199 
L 191.522639 315.453106 
L 192.283701 315.44738 
L 192.975574 315.661596 
L 193.667448 316.103128 
L 194.42851 316.873747 
L 195.189571 317.967221 
L 196.01982 319.558907 
L 196.919256 321.79092 
L 197.887879 324.83289 
L 198.92569 328.883068 
L 200.032688 334.16767 
L 201.208874 340.934957 
L 202.454247 349.442449 
L 203.837995 360.524111 
L 205.360117 374.605202 
L 207.15899 393.43576 
L 210.134047 427.447056 
L 212.417231 452.429029 
L 213.800979 465.263543 
L 214.83879 473.050715 
L 215.738226 478.206922 
L 216.4301 481.029644 
L 216.983599 482.51464 
L 217.467911 483.224275 
L 217.813848 483.385448 
L 218.090597 483.304069 
L 218.436534 482.937594 
L 218.851659 482.108601 
L 219.33597 480.607029 
L 219.958657 477.843951 
L 220.650531 473.712238 
L 221.48078 467.370736 
L 222.51859 457.551048 
L 223.763964 443.508204 
L 225.562836 420.405803 
L 229.43733 369.986295 
L 230.959452 353.33355 
L 232.274013 341.298163 
L 233.450198 332.555257 
L 234.488009 326.461331 
L 235.387445 322.384829 
L 236.217694 319.574765 
L 236.978755 317.760167 
L 237.601442 316.78586 
L 238.154941 316.282477 
L 238.639253 316.106325 
L 239.123564 316.162921 
L 239.607876 316.438684 
L 240.161375 317.00519 
L 240.853249 318.061063 
L 241.683498 319.7877 
L 242.652121 322.355591 
L 243.828307 326.144607 
L 245.281242 331.623492 
L 247.218489 339.889831 
L 250.193547 353.709513 
L 256.005288 380.781572 
L 258.980346 393.496076 
L 261.678654 404.068365 
L 264.238587 413.210524 
L 266.729333 421.286614 
L 269.150892 428.399083 
L 271.572451 434.828952 
L 273.99401 440.627778 
L 276.415568 445.84837 
L 278.837127 450.542286 
L 281.258686 454.758239 
L 283.680244 458.541489 
L 286.17099 462.02475 
L 288.661736 465.134356 
L 291.22167 467.979055 
L 293.850791 470.566576 
L 296.549099 472.907424 
L 298.624721 474.503016 
L 298.763096 474.54116 
L 300.285218 475.649023 
L 302.983526 477.340903 
L 305.958584 478.94491 
L 307.619082 479.888507 
L 307.826644 480.062976 
L 308.034206 479.602319 
L 308.656893 480.041811 
L 310.179015 480.686936 
L 312.946511 481.623943 
L 315.990756 482.424217 
L 319.796063 483.257968 
L 319.86525 483.150353 
L 320.003625 482.630179 
L 320.487936 483.019741 
L 321.041436 483.141611 
L 321.387373 483.181888 
L 322.978683 483.34739 
L 323.462994 483.344431 
L 325.676991 483.385571 
L 327.406676 483.257285 
L 327.752613 483.092874 
L 327.890987 482.937845 
L 328.236924 483.296256 
L 328.444486 483.274542 
L 328.652049 483.315194 
L 329.620672 483.008557 
L 329.828234 482.751729 
L 329.966609 482.526864 
L 330.174171 483.312934 
L 330.520108 483.229526 
L 332.042231 482.89206 
L 334.878914 482.192801 
L 337.09291 481.4144 
L 338.891782 480.548961 
L 340.27553 479.651804 
L 341.382529 478.680666 
L 342.281965 477.584714 
L 342.973839 476.38107 
L 343.527338 474.971949 
L 344.011649 473.072644 
L 344.426774 470.364548 
L 344.772711 466.303442 
L 345.04946 460.090034 
L 345.32621 446.756265 
L 345.602959 428.275987 
L 346.225646 480.936898 
L 346.433208 483.121996 
L 346.571583 483.236085 
L 346.779145 482.81617 
L 347.955331 479.035637 
L 348.785579 476.020483 
L 349.269891 473.474352 
L 349.685016 469.992025 
L 350.030952 464.803639 
L 350.307702 456.815567 
L 350.584452 439.927583 
L 350.792014 422.990402 
L 350.861201 426.233765 
L 350.999576 441.8147 
L 351.068763 440.047455 
L 351.622262 482.088568 
L 351.829825 483.108853 
L 351.968199 482.437621 
L 352.106574 481.692065 
L 352.314136 483.21744 
L 352.452511 483.10224 
L 353.351947 481.239764 
L 354.389758 479.501125 
L 355.773506 477.658029 
L 358.05669 475.048836 
L 363.453306 468.958129 
L 366.289989 465.364739 
L 368.849923 461.765347 
L 371.340669 457.876686 
L 373.762228 453.677049 
L 376.114599 449.151448 
L 378.46697 444.135644 
L 380.819342 438.577027 
L 383.102525 432.611934 
L 385.454897 425.826578 
L 387.807268 418.342583 
L 390.228827 409.864821 
L 392.719573 400.298073 
L 395.348694 389.27577 
L 398.254564 376.088089 
L 402.267433 356.699297 
L 406.280302 337.566058 
L 408.217548 329.354842 
L 409.670484 324.081539 
L 410.846669 320.591201 
L 411.815293 318.37468 
L 412.576354 317.124464 
L 413.199041 316.464796 
L 413.75254 316.179263 
L 414.236852 316.179254 
L 414.721163 316.427579 
L 415.205475 316.938263 
L 415.758974 317.860749 
L 416.381661 319.353832 
L 417.073535 321.608248 
L 417.834596 324.847751 
L 418.734032 329.744384 
L 419.702655 336.346893 
L 420.809654 345.583088 
L 422.055027 358.040396 
L 423.507962 375.012169 
L 425.445209 400.539146 
L 428.973766 447.40581 
L 430.288326 461.796702 
L 431.326137 470.949363 
L 432.225573 476.987007 
L 432.917447 480.315866 
L 433.540134 482.286475 
L 434.024445 483.134997 
L 434.370382 483.373493 
L 434.647132 483.344845 
L 434.993069 483.03738 
L 435.408193 482.276218 
L 435.892505 480.861346 
L 436.515191 478.243264 
L 437.276253 473.903967 
L 438.175689 467.32878 
L 439.282687 457.434352 
L 440.735622 442.226473 
L 443.295556 412.518699 
L 445.993864 382.087393 
L 447.723549 364.967201 
L 449.245671 352.010123 
L 450.629419 342.080872 
L 451.874792 334.654647 
L 453.050978 328.907394 
L 454.157976 324.557762 
L 455.195787 321.346465 
L 456.164411 319.046063 
L 457.063847 317.462121 
L 457.894095 316.431782 
L 458.655157 315.820817 
L 459.347031 315.519188 
L 460.038904 315.439901 
L 460.799966 315.587703 
L 461.630214 316.003318 
L 462.529651 316.721485 
L 463.567461 317.854175 
L 464.743647 319.475111 
L 466.196582 321.885422 
L 467.926267 325.213435 
L 470.140264 329.990371 
L 473.253696 337.285454 
L 484.116117 363.142172 
L 487.852236 371.249828 
L 491.311605 378.239408 
L 494.701787 384.596579 
L 498.022782 390.362724 
L 498.161157 390.593399 
L 498.161157 390.593399 
" style="fill:none;stroke:#ff0000;stroke-linecap:square;stroke-width:5;"/>
   </g>
   <g id="patch_3">
    <path d="M 135 500.236364 
L 135 129.6 
" style="fill:none;stroke:#000000;stroke-linecap:square;stroke-linejoin:miter;stroke-width:0.8;"/>
   </g>
   <g id="patch_4">
    <path d="M 515.454545 500.236364 
L 515.454545 129.6 
" style="fill:none;stroke:#000000;stroke-linecap:square;stroke-linejoin:miter;stroke-width:0.8;"/>
   </g>
   <g id="patch_5">
    <path d="M 135 500.236364 
L 515.454545 500.236364 
" style="fill:none;stroke:#000000;stroke-linecap:square;stroke-linejoin:miter;stroke-width:0.8;"/>
   </g>
   <g id="patch_6">
    <path d="M 135 129.6 
L 515.454545 129.6 
" style="fill:none;stroke:#000000;stroke-linecap:square;stroke-linejoin:miter;stroke-width:0.8;"/>
   </g>
  </g>
  <g id="axes_2">
   <g id="patch_7">
    <path d="M 591.545455 500.236364 
L 972 500.236364 
L 972 129.6 
L 591.545455 129.6 
z
" style="fill:#ffffff;"/>
   </g>
   <g id="matplotlib.axis_3">
    <g id="xtick_4">
     <g id="line2d_12">
      <g>
       <use style="stroke:#000000;stroke-width:0.8;" x="595.868802" xlink:href="#mb71743958a" y="500.236364"/>
      </g>
     </g>
    </g>
    <g id="xtick_5">
     <g id="line2d_13">
      <g>
       <use style="stroke:#000000;stroke-width:0.8;" x="781.772727" xlink:href="#mb71743958a" y="500.236364"/>
      </g>
     </g>
    </g>
    <g id="xtick_6">
     <g id="line2d_14">
      <g>
       <use style="stroke:#000000;stroke-width:0.8;" x="967.676653" xlink:href="#mb71743958a" y="500.236364"/>
      </g>
     </g>
    </g>
   </g>
   <g id="matplotlib.axis_4">
    <g id="ytick_7">
     <g id="line2d_15">
      <g>
       <use style="stroke:#000000;stroke-width:0.8;" x="591.545455" xlink:href="#m1d6841d8ab" y="483.389388"/>
      </g>
     </g>
    </g>
    <g id="ytick_8">
     <g id="line2d_16">
      <g>
       <use style="stroke:#000000;stroke-width:0.8;" x="591.545455" xlink:href="#m1d6841d8ab" y="416.00033"/>
      </g>
     </g>
    </g>
    <g id="ytick_9">
     <g id="line2d_17">
      <g>
       <use style="stroke:#000000;stroke-width:0.8;" x="591.545455" xlink:href="#m1d6841d8ab" y="348.611271"/>
      </g>
     </g>
    </g>
    <g id="ytick_10">
     <g id="line2d_18">
      <g>
       <use style="stroke:#000000;stroke-width:0.8;" x="591.545455" xlink:href="#m1d6841d8ab" y="281.222212"/>
      </g>
     </g>
    </g>
    <g id="ytick_11">
     <g id="line2d_19">
      <g>
       <use style="stroke:#000000;stroke-width:0.8;" x="591.545455" xlink:href="#m1d6841d8ab" y="213.833154"/>
      </g>
     </g>
    </g>
    <g id="ytick_12">
     <g id="line2d_20">
      <g>
       <use style="stroke:#000000;stroke-width:0.8;" x="591.545455" xlink:href="#m1d6841d8ab" y="146.444095"/>
      </g>
     </g>
    </g>
   </g>
   <g id="line2d_21">
    <path clip-path="url(#p0987b14156)" d="M 608.838843 216.34143 
L 611.952276 220.251447 
L 614.927333 224.339059 
L 617.833204 228.706572 
L 620.669887 233.374202 
L 623.437383 238.362574 
L 626.135691 243.692704 
L 628.764812 249.38505 
L 631.324745 255.459532 
L 633.884679 262.122132 
L 636.375425 269.235174 
L 638.866171 277.039611 
L 641.356917 285.607656 
L 643.778476 294.738259 
L 646.269222 305.017676 
L 648.759968 316.247362 
L 651.389089 329.15285 
L 654.225772 344.236295 
L 657.615954 363.549421 
L 664.465505 402.951959 
L 666.402752 412.584824 
L 667.924875 419.088077 
L 669.170248 423.505545 
L 670.208059 426.453487 
L 671.107495 428.405224 
L 671.868556 429.584413 
L 672.56043 430.26033 
L 673.113929 430.519663 
L 673.667429 430.522894 
L 674.220928 430.266125 
L 674.774427 429.747236 
L 675.397113 428.849527 
L 676.088987 427.464875 
L 676.919236 425.275248 
L 677.887859 422.01922 
L 678.994858 417.431797 
L 680.240231 411.278497 
L 681.762353 402.559298 
L 683.6996 390.054973 
L 687.089782 366.385235 
L 690.549152 342.792832 
L 692.832336 328.713481 
L 694.83877 317.689317 
L 696.637642 308.981506 
L 698.367327 301.679456 
L 699.958637 295.875578 
L 701.48076 291.115871 
L 702.933695 287.262712 
L 704.317443 284.18827 
L 705.632003 281.776736 
L 706.877376 279.925382 
L 708.053562 278.543711 
L 709.229748 277.500124 
L 710.336746 276.811623 
L 711.374557 276.412706 
L 712.412368 276.241814 
L 713.450178 276.2893 
L 714.557177 276.570706 
L 715.664175 277.080366 
L 716.840361 277.86172 
L 718.154921 279.015458 
L 719.538669 280.536241 
L 721.060791 282.556664 
L 722.652101 285.042197 
L 724.381786 288.159285 
L 726.249846 291.992918 
L 728.25628 296.630661 
L 730.401089 302.162806 
L 732.684273 308.681319 
L 735.105832 316.278258 
L 737.665765 325.04312 
L 740.433261 335.323714 
L 743.408319 347.241784 
L 746.729314 361.48912 
L 750.603808 379.127356 
L 756.761485 408.379279 
L 761.95054 432.609743 
L 764.85641 445.19087 
L 767.416344 455.365601 
L 769.491965 462.738688 
L 771.360025 468.580864 
L 773.020522 473.060403 
L 774.473458 476.380621 
L 775.857205 479.007559 
L 776.479892 479.927193 
L 776.549079 479.893367 
L 778.209577 482.006379 
L 779.1782 482.781639 
L 780.008449 483.18258 
L 780.838697 483.372562 
L 781.807321 483.309431 
L 782.63757 483.009736 
L 783.467818 482.475602 
L 784.22888 481.744961 
L 784.505629 481.461638 
L 784.644004 481.4173 
L 785.751002 479.92416 
L 787.480687 476.987119 
L 788.864435 473.915909 
L 790.31737 470.141491 
L 791.90868 465.385958 
L 793.707552 459.288008 
L 795.713987 451.667009 
L 797.858796 442.633782 
L 799.796043 433.538805 
L 800.903041 427.361545 
L 801.45654 423.091249 
L 801.802477 418.625013 
L 802.148414 409.903229 
L 802.217601 410.122125 
L 802.563538 427.566304 
L 802.771101 425.887857 
L 803.393787 420.700415 
L 804.431598 414.357178 
L 806.576407 401.618795 
L 807.268281 396.057267 
L 807.337468 396.415168 
L 807.475843 402.075032 
L 807.683405 409.726438 
L 808.306092 400.320593 
L 808.375279 400.032562 
L 808.444467 400.11594 
L 808.652029 403.637627 
L 808.928778 395.911869 
L 809.343903 392.62345 
L 810.381714 386.846966 
L 812.734085 375.204076 
L 816.193454 359.210015 
L 819.583637 344.560834 
L 822.697069 332.064092 
L 825.60294 321.29193 
L 828.370435 311.877692 
L 830.930369 303.932934 
L 833.351927 297.114944 
L 835.635111 291.326098 
L 837.77992 286.470923 
L 839.786355 282.457432 
L 841.654414 279.196799 
L 843.384099 276.603505 
L 844.975409 274.594858 
L 846.497532 273.02721 
L 847.88128 271.916246 
L 849.126653 271.184377 
L 850.302838 270.737158 
L 851.409837 270.542739 
L 852.516835 270.578136 
L 853.554646 270.82985 
L 854.592457 271.302886 
L 855.699455 272.063366 
L 856.806453 273.101293 
L 857.982639 274.524483 
L 859.228012 276.411365 
L 860.473385 278.711909 
L 861.787945 281.615355 
L 863.171693 285.230114 
L 864.624628 289.677525 
L 866.146751 295.09166 
L 867.738061 301.615775 
L 869.398558 309.394867 
L 871.19743 318.951524 
L 873.134677 330.516561 
L 875.348674 345.181506 
L 878.185357 365.60126 
L 882.959287 400.069347 
L 884.758159 411.350905 
L 886.211094 419.124271 
L 887.38728 424.327068 
L 888.425091 428.000601 
L 889.324527 430.437111 
L 890.085588 431.935228 
L 890.777462 432.840755 
L 891.330961 433.251049 
L 891.88446 433.383683 
L 892.368772 433.274524 
L 892.922271 432.896993 
L 893.544958 432.158004 
L 894.236832 430.960599 
L 895.06708 429.027312 
L 896.035704 426.136419 
L 897.142702 422.078585 
L 898.457263 416.361142 
L 900.048573 408.391131 
L 902.124194 396.77391 
L 905.583564 375.907506 
L 910.426681 346.93083 
L 913.401739 330.492563 
L 916.100047 316.800287 
L 918.659981 304.929439 
L 921.150727 294.400219 
L 923.641473 284.819452 
L 926.132219 276.11337 
L 928.622965 268.202737 
L 931.113711 261.009118 
L 933.673645 254.284882 
L 936.302766 248.008035 
L 938.931886 242.297252 
L 941.630195 236.957303 
L 944.39769 231.965622 
L 947.234373 227.299092 
L 950.140244 222.935188 
L 953.184489 218.7612 
L 954.706612 216.811225 
L 954.706612 216.811225 
" style="fill:none;stroke:#0000ff;stroke-linecap:square;stroke-width:5;"/>
   </g>
   <g id="line2d_22">
    <path clip-path="url(#p0987b14156)" d="M 608.838843 413.589188 
L 611.952276 409.68996 
L 614.996521 405.515048 
L 617.902391 401.151371 
L 620.739074 396.48822 
L 623.50657 391.505013 
L 626.204878 386.180935 
L 628.833999 380.49546 
L 631.393933 374.429116 
L 633.953866 367.776157 
L 636.444612 360.674487 
L 638.935358 352.883814 
L 641.356917 344.581115 
L 643.778476 335.494138 
L 646.269222 325.266374 
L 648.759968 314.096207 
L 651.389089 301.263444 
L 654.225772 286.270837 
L 657.615954 267.084609 
L 664.396318 228.356613 
L 666.333565 218.77372 
L 667.855688 212.295374 
L 669.101061 207.887294 
L 670.138872 204.938991 
L 671.038308 202.981037 
L 671.799369 201.792048 
L 672.491243 201.103902 
L 673.044742 200.832673 
L 673.598241 200.815453 
L 674.15174 201.056581 
L 674.705239 201.55819 
L 675.327926 202.434702 
L 676.0198 203.793852 
L 676.850049 205.950681 
L 677.818672 209.166118 
L 678.92567 213.705497 
L 680.171043 219.804131 
L 681.693166 228.458205 
L 683.630413 240.885543 
L 686.951408 263.959145 
L 690.479965 287.955806 
L 692.763148 301.99509 
L 694.769583 312.990318 
L 696.568455 321.675788 
L 698.29814 328.95865 
L 699.88945 334.746445 
L 701.411572 339.491858 
L 702.864508 343.332218 
L 704.248255 346.395248 
L 705.562816 348.796471 
L 706.808189 350.638527 
L 707.984375 352.011886 
L 709.16056 353.047581 
L 710.267558 353.729017 
L 711.305369 354.121771 
L 712.34318 354.286771 
L 713.380991 354.233684 
L 714.487989 353.946773 
L 715.594988 353.43199 
L 716.771173 352.645581 
L 718.085734 351.48681 
L 719.469481 349.961262 
L 720.991604 347.936352 
L 722.582914 345.446898 
L 724.312599 342.326517 
L 726.180658 338.490333 
L 728.187093 333.850884 
L 730.331902 328.31814 
L 732.615086 321.800344 
L 735.036645 314.205289 
L 737.596578 305.443508 
L 740.364074 295.166985 
L 743.339131 283.253596 
L 746.660126 269.010781 
L 750.53462 251.375069 
L 756.623111 222.447469 
L 761.812165 198.173214 
L 764.026161 188.609003 
L 764.233724 188.243603 
L 764.302911 188.553621 
L 764.441286 190.195518 
L 764.787223 185.591818 
L 765.409909 182.715717 
L 767.416344 174.786528 
L 769.491965 167.410738 
L 771.360025 161.571196 
L 773.020522 157.101339 
L 774.473458 153.818058 
L 775.234519 152.465328 
L 775.372894 152.441965 
L 775.442081 152.510906 
L 775.857205 151.618382 
L 775.99558 151.630068 
L 776.133955 151.982542 
L 776.27233 153.500875 
L 776.410704 160.157521 
L 776.479892 164.398279 
L 776.825829 151.898732 
L 777.240953 149.725049 
L 777.379328 149.636016 
L 777.448515 149.779309 
L 777.58689 150.555628 
L 777.932827 148.674832 
L 778.347951 148.132158 
L 778.970638 147.648994 
L 779.247387 147.606046 
L 779.385762 147.815967 
L 779.593324 149.267311 
L 779.800887 147.973208 
L 779.939261 148.672348 
L 780.008449 148.524547 
L 780.146824 147.753019 
L 780.216011 147.819856 
L 780.354386 148.281117 
L 780.561948 147.479323 
L 780.700323 147.645339 
L 780.907885 148.827556 
L 780.977072 148.774218 
L 781.323009 147.337082 
L 781.461384 147.290419 
L 781.599759 147.338087 
L 781.807321 147.302096 
L 782.775944 147.401087 
L 783.398631 147.87207 
L 783.95213 148.857034 
L 784.159692 149.711679 
L 784.298067 151.623079 
L 784.505629 161.296849 
L 784.574817 157.504082 
L 784.782379 152.130419 
L 784.851566 152.674061 
L 784.989941 154.970655 
L 785.197503 150.854699 
L 785.405065 150.403015 
L 785.612627 150.576315 
L 785.889377 151.204505 
L 786.096939 152.420177 
L 786.304501 154.565532 
L 786.442876 161.165491 
L 786.581251 168.424108 
L 786.788813 155.078208 
L 786.996375 153.324368 
L 787.203937 153.182157 
L 787.480687 153.472516 
L 788.103374 154.619837 
L 789.279559 157.327244 
L 790.732494 161.250883 
L 792.392992 166.408581 
L 794.191864 172.734649 
L 796.198298 180.631732 
L 798.135545 189.136526 
L 799.588481 196.429427 
L 800.418729 201.608052 
L 800.972228 206.555203 
L 801.318165 211.710014 
L 801.594915 219.584068 
L 801.802477 232.423111 
L 802.010039 266.632559 
L 802.286789 379.32591 
L 802.355976 353.866583 
L 802.632726 240.086481 
L 802.840288 221.871225 
L 803.117037 215.554321 
L 803.3246 214.430656 
L 803.462974 214.318708 
L 803.601349 214.481172 
L 803.878099 215.270895 
L 804.431598 217.714674 
L 805.261847 222.402195 
L 805.95372 227.555751 
L 806.368845 232.269324 
L 806.645594 237.51417 
L 806.922344 248.0106 
L 807.129906 267.176731 
L 807.337468 321.903651 
L 807.54503 388.690967 
L 807.960155 255.779003 
L 808.167717 245.033316 
L 808.306092 243.182342 
L 808.375279 243.505721 
L 808.513654 249.227272 
L 808.652029 259.935951 
L 808.928778 241.461744 
L 809.13634 240.204998 
L 809.274715 240.251849 
L 809.551465 240.952715 
L 810.174151 243.425935 
L 812.249773 253.025481 
L 816.677766 273.247272 
L 820.067948 287.711034 
L 823.181381 300.051865 
L 826.087251 310.680005 
L 828.78556 319.735054 
L 831.345493 327.571894 
L 833.767052 334.287418 
L 836.050236 339.97895 
L 838.195045 344.741514 
L 840.201479 348.667006 
L 842.069539 351.843739 
L 843.799223 354.356995 
L 845.390533 356.289574 
L 846.843469 357.721673 
L 848.227217 358.77663 
L 849.47259 359.456062 
L 850.648775 359.851773 
L 851.755773 359.995633 
L 852.862772 359.907417 
L 853.900583 359.604053 
L 854.938393 359.076962 
L 856.045392 358.256021 
L 857.15239 357.154525 
L 858.328576 355.660097 
L 859.573949 353.693365 
L 860.819322 351.30833 
L 862.133882 348.310243 
L 863.51763 344.590193 
L 864.970565 340.026096 
L 866.492688 334.48386 
L 868.083998 327.821418 
L 869.744495 319.89656 
L 871.543367 310.186752 
L 873.480614 298.473647 
L 875.694611 283.682057 
L 878.738856 261.684345 
L 882.820912 232.348575 
L 884.688972 220.564949 
L 886.141907 212.731047 
L 887.38728 207.183678 
L 888.425091 203.497396 
L 889.324527 201.044579 
L 890.085588 199.52902 
L 890.777462 198.604758 
L 891.330961 198.17756 
L 891.88446 198.026611 
L 892.368772 198.118449 
L 892.922271 198.474985 
L 893.544958 199.188802 
L 894.236832 200.356639 
L 895.06708 202.252241 
L 896.035704 205.096954 
L 897.142702 209.09958 
L 898.457263 214.749395 
L 900.048573 222.636243 
L 902.124194 234.145978 
L 905.514376 254.423347 
L 910.495869 284.012923 
L 913.470926 300.31875 
L 916.169235 313.901262 
L 918.729168 325.678565 
L 921.219914 336.126496 
L 923.71066 345.635282 
L 926.201406 354.277846 
L 928.692152 362.132632 
L 931.252086 369.466173 
L 933.812019 376.12893 
L 936.44114 382.350256 
L 939.070261 388.012372 
L 941.768569 393.308386 
L 944.536065 398.260748 
L 947.372748 402.891984 
L 950.347806 407.322835 
L 953.392051 411.459487 
L 954.706612 413.134051 
L 954.706612 413.134051 
" style="fill:none;stroke:#ff0000;stroke-linecap:square;stroke-width:5;"/>
   </g>
   <g id="patch_8">
    <path d="M 591.545455 500.236364 
L 591.545455 129.6 
" style="fill:none;stroke:#000000;stroke-linecap:square;stroke-linejoin:miter;stroke-width:0.8;"/>
   </g>
   <g id="patch_9">
    <path d="M 972 500.236364 
L 972 129.6 
" style="fill:none;stroke:#000000;stroke-linecap:square;stroke-linejoin:miter;stroke-width:0.8;"/>
   </g>
   <g id="patch_10">
    <path d="M 591.545455 500.236364 
L 972 500.236364 
" style="fill:none;stroke:#000000;stroke-linecap:square;stroke-linejoin:miter;stroke-width:0.8;"/>
   </g>
   <g id="patch_11">
    <path d="M 591.545455 129.6 
L 972 129.6 
" style="fill:none;stroke:#000000;stroke-linecap:square;stroke-linejoin:miter;stroke-width:0.8;"/>
   </g>
  </g>
  <g id="axes_3">
   <g id="patch_12">
    <path d="M 135 945 
L 515.454545 945 
L 515.454545 574.363636 
L 135 574.363636 
z
" style="fill:#ffffff;"/>
   </g>
   <g id="matplotlib.axis_5">
    <g id="xtick_7">
     <g id="line2d_23">
      <g>
       <use style="stroke:#000000;stroke-width:0.8;" x="139.323347" xlink:href="#mb71743958a" y="945"/>
      </g>
     </g>
     <g id="text_7">
      <!-- −2 -->
      <g transform="translate(117.210066 974.795312)scale(0.3 -0.3)">
       <defs>
        <path d="M 10.59375 35.5 
L 73.1875 35.5 
L 73.1875 27.203125 
L 10.59375 27.203125 
z
" id="DejaVuSans-8722"/>
       </defs>
       <use xlink:href="#DejaVuSans-8722"/>
       <use x="83.789062" xlink:href="#DejaVuSans-50"/>
      </g>
     </g>
    </g>
    <g id="xtick_8">
     <g id="line2d_24">
      <g>
       <use style="stroke:#000000;stroke-width:0.8;" x="325.227273" xlink:href="#mb71743958a" y="945"/>
      </g>
     </g>
     <g id="text_8">
      <!-- 0 -->
      <g transform="translate(315.683523 974.795312)scale(0.3 -0.3)">
       <use xlink:href="#DejaVuSans-48"/>
      </g>
     </g>
    </g>
    <g id="xtick_9">
     <g id="line2d_25">
      <g>
       <use style="stroke:#000000;stroke-width:0.8;" x="511.131198" xlink:href="#mb71743958a" y="945"/>
      </g>
     </g>
     <g id="text_9">
      <!-- 2 -->
      <g transform="translate(501.587448 974.795312)scale(0.3 -0.3)">
       <use xlink:href="#DejaVuSans-50"/>
      </g>
     </g>
    </g>
   </g>
   <g id="matplotlib.axis_6">
    <g id="ytick_13">
     <g id="line2d_26">
      <g>
       <use style="stroke:#000000;stroke-width:0.8;" x="135" xlink:href="#m1d6841d8ab" y="928.153025"/>
      </g>
     </g>
     <g id="text_10">
      <!-- 0.0 -->
      <g transform="translate(80.290625 939.550681)scale(0.3 -0.3)">
       <use xlink:href="#DejaVuSans-48"/>
       <use x="63.623047" xlink:href="#DejaVuSans-46"/>
       <use x="95.410156" xlink:href="#DejaVuSans-48"/>
      </g>
     </g>
    </g>
    <g id="ytick_14">
     <g id="line2d_27">
      <g>
       <use style="stroke:#000000;stroke-width:0.8;" x="135" xlink:href="#m1d6841d8ab" y="860.763966"/>
      </g>
     </g>
     <g id="text_11">
      <!-- 0.2 -->
      <g transform="translate(80.290625 872.161622)scale(0.3 -0.3)">
       <use xlink:href="#DejaVuSans-48"/>
       <use x="63.623047" xlink:href="#DejaVuSans-46"/>
       <use x="95.410156" xlink:href="#DejaVuSans-50"/>
      </g>
     </g>
    </g>
    <g id="ytick_15">
     <g id="line2d_28">
      <g>
       <use style="stroke:#000000;stroke-width:0.8;" x="135" xlink:href="#m1d6841d8ab" y="793.374907"/>
      </g>
     </g>
     <g id="text_12">
      <!-- 0.4 -->
      <g transform="translate(80.290625 804.772564)scale(0.3 -0.3)">
       <use xlink:href="#DejaVuSans-48"/>
       <use x="63.623047" xlink:href="#DejaVuSans-46"/>
       <use x="95.410156" xlink:href="#DejaVuSans-52"/>
      </g>
     </g>
    </g>
    <g id="ytick_16">
     <g id="line2d_29">
      <g>
       <use style="stroke:#000000;stroke-width:0.8;" x="135" xlink:href="#m1d6841d8ab" y="725.985849"/>
      </g>
     </g>
     <g id="text_13">
      <!-- 0.6 -->
      <g transform="translate(80.290625 737.383505)scale(0.3 -0.3)">
       <use xlink:href="#DejaVuSans-48"/>
       <use x="63.623047" xlink:href="#DejaVuSans-46"/>
       <use x="95.410156" xlink:href="#DejaVuSans-54"/>
      </g>
     </g>
    </g>
    <g id="ytick_17">
     <g id="line2d_30">
      <g>
       <use style="stroke:#000000;stroke-width:0.8;" x="135" xlink:href="#m1d6841d8ab" y="658.59679"/>
      </g>
     </g>
     <g id="text_14">
      <!-- 0.8 -->
      <g transform="translate(80.290625 669.994446)scale(0.3 -0.3)">
       <use xlink:href="#DejaVuSans-48"/>
       <use x="63.623047" xlink:href="#DejaVuSans-46"/>
       <use x="95.410156" xlink:href="#DejaVuSans-56"/>
      </g>
     </g>
    </g>
    <g id="ytick_18">
     <g id="line2d_31">
      <g>
       <use style="stroke:#000000;stroke-width:0.8;" x="135" xlink:href="#m1d6841d8ab" y="591.207731"/>
      </g>
     </g>
     <g id="text_15">
      <!-- 1.0 -->
      <g transform="translate(80.290625 602.605388)scale(0.3 -0.3)">
       <use xlink:href="#DejaVuSans-49"/>
       <use x="63.623047" xlink:href="#DejaVuSans-46"/>
       <use x="95.410156" xlink:href="#DejaVuSans-48"/>
      </g>
     </g>
    </g>
   </g>
   <g id="line2d_32">
    <path clip-path="url(#p7b74185ae2)" d="M 152.293388 661.105066 
L 155.406821 665.015083 
L 158.381879 669.102695 
L 161.287749 673.470209 
L 164.124432 678.137838 
L 166.891928 683.12621 
L 169.590236 688.45634 
L 172.219357 694.148687 
L 174.779291 700.223169 
L 177.339224 706.885768 
L 179.82997 713.998811 
L 182.320716 721.803247 
L 184.811462 730.371292 
L 187.233021 739.501895 
L 189.723767 749.781312 
L 192.214513 761.010998 
L 194.843634 773.916486 
L 197.680317 788.999931 
L 201.070499 808.313057 
L 207.920051 847.715595 
L 209.857298 857.34846 
L 211.379421 863.851714 
L 212.624794 868.269181 
L 213.662604 871.217123 
L 214.562041 873.16886 
L 215.323102 874.348049 
L 216.014976 875.023966 
L 216.568475 875.2833 
L 217.121974 875.286531 
L 217.675473 875.029761 
L 218.228972 874.510873 
L 218.851659 873.613164 
L 219.543533 872.228512 
L 220.373781 870.038885 
L 221.342405 866.782856 
L 222.449403 862.195433 
L 223.694776 856.042133 
L 225.216899 847.322935 
L 227.154146 834.818609 
L 230.544328 811.148871 
L 234.003697 787.556468 
L 236.286881 773.477117 
L 238.293316 762.452953 
L 240.092188 753.745142 
L 241.821873 746.443093 
L 243.413183 740.639214 
L 244.935305 735.879507 
L 246.38824 732.026349 
L 247.771988 728.951907 
L 249.086549 726.540372 
L 250.331922 724.689018 
L 251.508107 723.307347 
L 252.684293 722.26376 
L 253.791291 721.57526 
L 254.829102 721.176343 
L 255.866913 721.00545 
L 256.904724 721.052936 
L 258.011722 721.334343 
L 259.11872 721.844002 
L 260.294906 722.625356 
L 261.609467 723.779094 
L 262.993214 725.299877 
L 264.515337 727.3203 
L 266.106647 729.805834 
L 267.836332 732.922922 
L 269.704391 736.756555 
L 271.710826 741.394298 
L 273.855635 746.926442 
L 276.138819 753.444956 
L 278.560377 761.041894 
L 281.120311 769.806757 
L 283.887806 780.08735 
L 286.862864 792.005421 
L 290.183859 806.252756 
L 294.058353 823.890992 
L 300.216031 853.142915 
L 305.405085 877.37338 
L 308.310956 889.954506 
L 310.870889 900.129237 
L 312.946511 907.502325 
L 314.81457 913.3445 
L 316.475068 917.824039 
L 317.928003 921.144257 
L 319.311751 923.771196 
L 319.934437 924.69083 
L 320.003625 924.657003 
L 321.664122 926.770015 
L 322.632746 927.545275 
L 323.462994 927.946217 
L 324.293243 928.136198 
L 325.261866 928.073068 
L 326.092115 927.773373 
L 326.922364 927.239238 
L 327.683425 926.508598 
L 327.960175 926.225274 
L 328.098549 926.180937 
L 329.205548 924.687796 
L 330.935233 921.750755 
L 332.31898 918.679545 
L 333.771916 914.905127 
L 335.363226 910.149594 
L 337.162098 904.051645 
L 339.168532 896.430645 
L 341.313341 887.397419 
L 343.250588 878.302441 
L 344.357586 872.125181 
L 344.911086 867.854886 
L 345.257022 863.388649 
L 345.602959 854.666866 
L 345.672147 854.885761 
L 346.018084 872.329941 
L 346.225646 870.651493 
L 346.848332 865.464051 
L 347.886143 859.120814 
L 350.030952 846.382431 
L 350.722826 840.820903 
L 350.792014 841.178804 
L 350.930389 846.838669 
L 351.137951 854.490074 
L 351.760637 845.08423 
L 351.829825 844.796199 
L 351.899012 844.879577 
L 352.106574 848.401263 
L 352.383324 840.675505 
L 352.798448 837.387087 
L 353.836259 831.610602 
L 356.18863 819.967712 
L 359.648 803.973651 
L 363.038182 789.32447 
L 366.151615 776.827728 
L 369.057485 766.055566 
L 371.824981 756.641328 
L 374.384914 748.696571 
L 376.806473 741.87858 
L 379.089657 736.089734 
L 381.234466 731.234559 
L 383.2409 727.221068 
L 385.10896 723.960435 
L 386.838645 721.367142 
L 388.429955 719.358494 
L 389.952077 717.790847 
L 391.335825 716.679883 
L 392.581198 715.948014 
L 393.757384 715.500794 
L 394.864382 715.306375 
L 395.97138 715.341773 
L 397.009191 715.593486 
L 398.047002 716.066522 
L 399.154 716.827003 
L 400.260998 717.864929 
L 401.437184 719.288119 
L 402.682557 721.175002 
L 403.92793 723.475546 
L 405.242491 726.378991 
L 406.626238 729.993751 
L 408.079174 734.441162 
L 409.601296 739.855296 
L 411.192606 746.379411 
L 412.853104 754.158504 
L 414.651976 763.71516 
L 416.589223 775.280197 
L 418.803219 789.945142 
L 421.639902 810.364897 
L 426.413832 844.832983 
L 428.212705 856.114541 
L 429.66564 863.887907 
L 430.841825 869.090704 
L 431.879636 872.764238 
L 432.779072 875.200747 
L 433.540134 876.698864 
L 434.232008 877.604391 
L 434.785507 878.014686 
L 435.339006 878.147319 
L 435.823318 878.03816 
L 436.376817 877.660629 
L 436.999503 876.921641 
L 437.691377 875.724235 
L 438.521626 873.790948 
L 439.490249 870.900055 
L 440.597248 866.842222 
L 441.911808 861.124779 
L 443.503118 853.154768 
L 445.57874 841.537546 
L 449.038109 820.671142 
L 453.881227 791.694467 
L 456.856284 775.256199 
L 459.554593 761.563923 
L 462.114526 749.693075 
L 464.605272 739.163856 
L 467.096018 729.583089 
L 469.586764 720.877006 
L 472.077511 712.966373 
L 474.568257 705.772754 
L 477.12819 699.048519 
L 479.757311 692.771671 
L 482.386432 687.060889 
L 485.08474 681.72094 
L 487.852236 676.729258 
L 490.688919 672.062728 
L 493.594789 667.698825 
L 496.639034 663.524837 
L 498.161157 661.574861 
L 498.161157 661.574861 
" style="fill:none;stroke:#0000ff;stroke-linecap:square;stroke-width:5;"/>
   </g>
   <g id="line2d_33">
    <path clip-path="url(#p7b74185ae2)" d="M 152.293388 858.352824 
L 155.406821 854.453597 
L 158.451066 850.278684 
L 161.356937 845.915007 
L 164.19362 841.251856 
L 166.961115 836.268649 
L 169.659424 830.944572 
L 172.288544 825.259097 
L 174.848478 819.192752 
L 177.408411 812.539794 
L 179.899158 805.438124 
L 182.389904 797.64745 
L 184.811462 789.344751 
L 187.233021 780.257775 
L 189.723767 770.03001 
L 192.214513 758.859844 
L 194.843634 746.027081 
L 197.680317 731.034473 
L 201.070499 711.848245 
L 207.850864 673.120249 
L 209.788111 663.537356 
L 211.310233 657.05901 
L 212.555606 652.65093 
L 213.593417 649.702627 
L 214.492853 647.744674 
L 215.253914 646.555684 
L 215.945788 645.867538 
L 216.499287 645.596309 
L 217.052787 645.57909 
L 217.606286 645.820217 
L 218.159785 646.321826 
L 218.782471 647.198338 
L 219.474345 648.557488 
L 220.304594 650.714317 
L 221.273217 653.929755 
L 222.380216 658.469133 
L 223.625589 664.567768 
L 225.147711 673.221842 
L 227.084958 685.649179 
L 230.405953 708.722781 
L 233.93451 732.719442 
L 236.217694 746.758726 
L 238.224128 757.753954 
L 240.023 766.439425 
L 241.752685 773.722287 
L 243.343995 779.510081 
L 244.866118 784.255495 
L 246.319053 788.095854 
L 247.702801 791.158884 
L 249.017361 793.560107 
L 250.262734 795.402163 
L 251.43892 796.775522 
L 252.615106 797.811217 
L 253.722104 798.492653 
L 254.759915 798.885407 
L 255.797726 799.050408 
L 256.835537 798.997321 
L 257.942535 798.71041 
L 259.049533 798.195626 
L 260.225719 797.409217 
L 261.540279 796.250446 
L 262.924027 794.724899 
L 264.44615 792.699988 
L 266.03746 790.210534 
L 267.767144 787.090153 
L 269.635204 783.25397 
L 271.641638 778.61452 
L 273.786447 773.081776 
L 276.069631 766.56398 
L 278.49119 758.968926 
L 281.051123 750.207145 
L 283.818619 739.930621 
L 286.793677 728.017232 
L 290.114672 713.774418 
L 293.989166 696.138705 
L 300.077656 667.211105 
L 305.26671 642.93685 
L 307.480707 633.37264 
L 307.688269 633.007239 
L 307.757456 633.317258 
L 307.895831 634.959154 
L 308.241768 630.355454 
L 308.864455 627.479353 
L 310.870889 619.550165 
L 312.946511 612.174374 
L 314.81457 606.334832 
L 316.475068 601.864976 
L 317.928003 598.581694 
L 318.689064 597.228965 
L 318.827439 597.205601 
L 318.896626 597.274543 
L 319.311751 596.382018 
L 319.450126 596.393704 
L 319.5885 596.746179 
L 319.726875 598.264511 
L 319.86525 604.921158 
L 319.934437 609.161915 
L 320.280374 596.662368 
L 320.695499 594.488685 
L 320.833873 594.399652 
L 320.903061 594.542945 
L 321.041436 595.319265 
L 321.387373 593.438468 
L 321.802497 592.895795 
L 322.425183 592.41263 
L 322.701933 592.369682 
L 322.840308 592.579603 
L 323.04787 594.030947 
L 323.255432 592.736844 
L 323.393807 593.435985 
L 323.462994 593.288184 
L 323.601369 592.516655 
L 323.670556 592.583492 
L 323.808931 593.044753 
L 324.016493 592.24296 
L 324.154868 592.408975 
L 324.36243 593.591192 
L 324.431618 593.537854 
L 324.777555 592.100719 
L 324.915929 592.054055 
L 325.054304 592.101724 
L 325.261866 592.065732 
L 326.23049 592.164723 
L 326.853176 592.635706 
L 327.406676 593.62067 
L 327.614238 594.475316 
L 327.752613 596.386716 
L 327.960175 606.060486 
L 328.029362 602.267719 
L 328.236924 596.894055 
L 328.306112 597.437697 
L 328.444486 599.734291 
L 328.652049 595.618335 
L 328.859611 595.166652 
L 329.067173 595.339951 
L 329.343923 595.968141 
L 329.551485 597.183813 
L 329.759047 599.329169 
L 329.897422 605.929127 
L 330.035796 613.187745 
L 330.243359 599.841845 
L 330.450921 598.088004 
L 330.658483 597.945793 
L 330.935233 598.236153 
L 331.557919 599.383473 
L 332.734105 602.09088 
L 334.18704 606.01452 
L 335.847537 611.172217 
L 337.646409 617.498285 
L 339.652844 625.395368 
L 341.590091 633.900162 
L 343.043026 641.193063 
L 343.873275 646.371688 
L 344.426774 651.318839 
L 344.772711 656.47365 
L 345.04946 664.347705 
L 345.257022 677.186747 
L 345.464585 711.396195 
L 345.741334 824.089546 
L 345.810522 798.630219 
L 346.087271 684.850117 
L 346.294833 666.634861 
L 346.571583 660.317958 
L 346.779145 659.194292 
L 346.91752 659.082345 
L 347.055895 659.244808 
L 347.332644 660.034531 
L 347.886143 662.478311 
L 348.716392 667.165831 
L 349.408266 672.319387 
L 349.82339 677.032961 
L 350.10014 682.277807 
L 350.376889 692.774236 
L 350.584452 711.940367 
L 350.792014 766.667287 
L 350.999576 833.454604 
L 351.4147 700.542639 
L 351.622262 689.796953 
L 351.760637 687.945978 
L 351.829825 688.269357 
L 351.968199 693.990909 
L 352.106574 704.699588 
L 352.383324 686.22538 
L 352.590886 684.968634 
L 352.729261 685.015485 
L 353.00601 685.716352 
L 353.628697 688.189571 
L 355.704319 697.789117 
L 360.132312 718.010908 
L 363.522494 732.474671 
L 366.635926 744.815502 
L 369.541797 755.443642 
L 372.240105 764.49869 
L 374.800039 772.33553 
L 377.221597 779.051054 
L 379.504781 784.742586 
L 381.64959 789.505151 
L 383.656025 793.430643 
L 385.524084 796.607376 
L 387.253769 799.120631 
L 388.845079 801.05321 
L 390.298014 802.485309 
L 391.681762 803.540267 
L 392.927135 804.219699 
L 394.103321 804.615409 
L 395.210319 804.759269 
L 396.317317 804.671053 
L 397.355128 804.36769 
L 398.392939 803.840598 
L 399.499937 803.019657 
L 400.606935 801.918162 
L 401.783121 800.423734 
L 403.028494 798.457002 
L 404.273867 796.071967 
L 405.588428 793.073879 
L 406.972175 789.353829 
L 408.425111 784.789733 
L 409.947233 779.247496 
L 411.538543 772.585054 
L 413.199041 764.660197 
L 414.997913 754.950388 
L 416.93516 743.237284 
L 419.149156 728.445693 
L 422.193401 706.447981 
L 426.275458 677.112211 
L 428.143517 665.328585 
L 429.596452 657.494684 
L 430.841825 651.947314 
L 431.879636 648.261032 
L 432.779072 645.808215 
L 433.540134 644.292656 
L 434.232008 643.368394 
L 434.785507 642.941196 
L 435.339006 642.790248 
L 435.823318 642.882086 
L 436.376817 643.238621 
L 436.999503 643.952439 
L 437.691377 645.120275 
L 438.521626 647.015877 
L 439.490249 649.860591 
L 440.597248 653.863216 
L 441.911808 659.513031 
L 443.503118 667.399879 
L 445.57874 678.909614 
L 448.968922 699.186984 
L 453.950414 728.77656 
L 456.925472 745.082386 
L 459.62378 758.664899 
L 462.183714 770.442201 
L 464.67446 780.890132 
L 467.165206 790.398918 
L 469.655952 799.041483 
L 472.146698 806.896268 
L 474.706631 814.22981 
L 477.266565 820.892567 
L 479.895686 827.113892 
L 482.524807 832.776009 
L 485.223115 838.072022 
L 487.990611 843.024385 
L 490.827294 847.65562 
L 493.802351 852.086472 
L 496.846597 856.223123 
L 498.161157 857.897687 
L 498.161157 857.897687 
" style="fill:none;stroke:#ff0000;stroke-linecap:square;stroke-width:5;"/>
   </g>
   <g id="patch_13">
    <path d="M 135 945 
L 135 574.363636 
" style="fill:none;stroke:#000000;stroke-linecap:square;stroke-linejoin:miter;stroke-width:0.8;"/>
   </g>
   <g id="patch_14">
    <path d="M 515.454545 945 
L 515.454545 574.363636 
" style="fill:none;stroke:#000000;stroke-linecap:square;stroke-linejoin:miter;stroke-width:0.8;"/>
   </g>
   <g id="patch_15">
    <path d="M 135 945 
L 515.454545 945 
" style="fill:none;stroke:#000000;stroke-linecap:square;stroke-linejoin:miter;stroke-width:0.8;"/>
   </g>
   <g id="patch_16">
    <path d="M 135 574.363636 
L 515.454545 574.363636 
" style="fill:none;stroke:#000000;stroke-linecap:square;stroke-linejoin:miter;stroke-width:0.8;"/>
   </g>
  </g>
  <g id="axes_4">
   <g id="patch_17">
    <path d="M 591.545455 945 
L 972 945 
L 972 574.363636 
L 591.545455 574.363636 
z
" style="fill:#ffffff;"/>
   </g>
   <g id="matplotlib.axis_7">
    <g id="xtick_10">
     <g id="line2d_34">
      <g>
       <use style="stroke:#000000;stroke-width:0.8;" x="595.868802" xlink:href="#mb71743958a" y="945"/>
      </g>
     </g>
     <g id="text_16">
      <!-- −2 -->
      <g transform="translate(573.75552 974.795312)scale(0.3 -0.3)">
       <use xlink:href="#DejaVuSans-8722"/>
       <use x="83.789062" xlink:href="#DejaVuSans-50"/>
      </g>
     </g>
    </g>
    <g id="xtick_11">
     <g id="line2d_35">
      <g>
       <use style="stroke:#000000;stroke-width:0.8;" x="781.772727" xlink:href="#mb71743958a" y="945"/>
      </g>
     </g>
     <g id="text_17">
      <!-- 0 -->
      <g transform="translate(772.228977 974.795312)scale(0.3 -0.3)">
       <use xlink:href="#DejaVuSans-48"/>
      </g>
     </g>
    </g>
    <g id="xtick_12">
     <g id="line2d_36">
      <g>
       <use style="stroke:#000000;stroke-width:0.8;" x="967.676653" xlink:href="#mb71743958a" y="945"/>
      </g>
     </g>
     <g id="text_18">
      <!-- 2 -->
      <g transform="translate(958.132903 974.795312)scale(0.3 -0.3)">
       <use xlink:href="#DejaVuSans-50"/>
      </g>
     </g>
    </g>
   </g>
   <g id="matplotlib.axis_8">
    <g id="ytick_19">
     <g id="line2d_37">
      <g>
       <use style="stroke:#000000;stroke-width:0.8;" x="591.545455" xlink:href="#m1d6841d8ab" y="928.153025"/>
      </g>
     </g>
    </g>
    <g id="ytick_20">
     <g id="line2d_38">
      <g>
       <use style="stroke:#000000;stroke-width:0.8;" x="591.545455" xlink:href="#m1d6841d8ab" y="860.763966"/>
      </g>
     </g>
    </g>
    <g id="ytick_21">
     <g id="line2d_39">
      <g>
       <use style="stroke:#000000;stroke-width:0.8;" x="591.545455" xlink:href="#m1d6841d8ab" y="793.374907"/>
      </g>
     </g>
    </g>
    <g id="ytick_22">
     <g id="line2d_40">
      <g>
       <use style="stroke:#000000;stroke-width:0.8;" x="591.545455" xlink:href="#m1d6841d8ab" y="725.985849"/>
      </g>
     </g>
    </g>
    <g id="ytick_23">
     <g id="line2d_41">
      <g>
       <use style="stroke:#000000;stroke-width:0.8;" x="591.545455" xlink:href="#m1d6841d8ab" y="658.59679"/>
      </g>
     </g>
    </g>
    <g id="ytick_24">
     <g id="line2d_42">
      <g>
       <use style="stroke:#000000;stroke-width:0.8;" x="591.545455" xlink:href="#m1d6841d8ab" y="591.207731"/>
      </g>
     </g>
    </g>
   </g>
   <g id="line2d_43">
    <path clip-path="url(#p9e36b01b66)" d="M 608.838843 633.656956 
L 615.065708 636.431868 
L 621.015824 639.326735 
L 626.758377 642.371083 
L 632.224181 645.521432 
L 637.413236 648.76339 
L 642.394728 652.127544 
L 647.37622 655.761033 
L 652.219337 659.574405 
L 656.92408 663.56564 
L 661.559635 667.795878 
L 666.19519 672.342607 
L 670.692371 677.074935 
L 675.120364 682.060011 
L 679.548357 687.381035 
L 683.97635 693.045962 
L 688.542718 699.248245 
L 693.316648 706.109801 
L 698.574889 714.069196 
L 705.009317 724.236763 
L 715.940925 741.555179 
L 719.607856 746.903774 
L 722.444539 750.674086 
L 724.866098 753.537816 
L 726.94172 755.660323 
L 728.740592 757.199593 
L 730.331902 758.290144 
L 731.784837 759.033175 
L 733.168585 759.49036 
L 734.413958 759.671619 
L 735.590144 759.624678 
L 736.766329 759.348988 
L 737.873328 758.865324 
L 739.049513 758.096988 
L 740.225699 757.049658 
L 741.401885 755.706409 
L 742.647258 753.943039 
L 743.961818 751.68069 
L 745.345566 748.83207 
L 746.798501 745.302047 
L 748.320624 740.989766 
L 749.911934 735.791335 
L 751.572431 729.60457 
L 753.371303 722.028248 
L 755.30855 712.885193 
L 757.453359 701.660044 
L 759.944105 687.383435 
L 763.2651 666.924773 
L 769.007654 631.421566 
L 771.22165 619.216539 
L 773.020522 610.492467 
L 774.542645 604.167706 
L 775.857205 599.609069 
L 777.033391 596.31204 
L 778.071202 594.057489 
L 778.970638 592.621769 
L 779.731699 591.793221 
L 780.423573 591.352142 
L 781.04626 591.211266 
L 781.668946 591.314198 
L 782.291633 591.660071 
L 782.983507 592.327493 
L 783.744568 593.401544 
L 784.574817 594.971905 
L 785.54344 597.313515 
L 786.650438 600.632263 
L 787.895811 605.132633 
L 789.279559 610.998494 
L 790.940057 619.083649 
L 792.877304 629.682431 
L 795.437237 645.021287 
L 804.431598 700.050596 
L 806.783969 712.478837 
L 808.859591 722.293157 
L 810.796838 730.393304 
L 812.59571 736.967662 
L 814.256207 742.224617 
L 815.847517 746.544206 
L 817.36964 750.038605 
L 818.822575 752.816609 
L 820.206323 754.980519 
L 821.520884 756.624011 
L 822.766257 757.831723 
L 823.942442 758.678665 
L 825.118628 759.257918 
L 826.294814 759.586571 
L 827.470999 759.681721 
L 828.647185 759.560161 
L 829.892558 759.21337 
L 831.276306 758.587204 
L 832.729241 757.683 
L 834.389738 756.374032 
L 836.18861 754.666215 
L 838.264232 752.377242 
L 840.685791 749.353304 
L 843.522474 745.435989 
L 847.051031 740.165196 
L 852.170898 732.073435 
L 865.178127 711.368372 
L 870.505556 703.397152 
L 875.348674 696.545362 
L 879.984229 690.367674 
L 884.550597 684.653196 
L 888.97859 679.459292 
L 893.47577 674.523319 
L 897.972951 669.913724 
L 902.470131 665.612608 
L 907.105686 661.481946 
L 911.810429 657.58222 
L 916.653546 653.8528 
L 921.704226 650.246762 
L 926.89328 646.81733 
L 932.220709 643.560019 
L 937.824888 640.393726 
L 943.705816 637.327206 
L 949.932682 634.331558 
L 954.706612 632.186948 
L 954.706612 632.186948 
" style="fill:none;stroke:#0000ff;stroke-linecap:square;stroke-width:5;"/>
   </g>
   <g id="line2d_44">
    <path clip-path="url(#p9e36b01b66)" d="M 608.838843 885.70372 
L 614.996521 882.961078 
L 620.946636 880.069066 
L 626.620003 877.066042 
L 632.085806 873.922263 
L 637.413236 870.597346 
L 642.463915 867.184568 
L 647.445407 863.547121 
L 652.219337 859.786276 
L 656.854892 855.855875 
L 661.42126 851.695506 
L 665.918441 847.298774 
L 670.415621 842.586436 
L 674.843614 837.622011 
L 679.271607 832.322261 
L 683.6996 826.678983 
L 688.335155 820.402255 
L 693.178273 813.454931 
L 698.367327 805.612792 
L 704.801755 795.456689 
L 716.010112 777.701023 
L 719.677044 772.36074 
L 722.513727 768.599963 
L 724.935285 765.747016 
L 727.010907 763.636014 
L 728.809779 762.108469 
L 730.401089 761.029735 
L 731.854025 760.298953 
L 733.168585 759.870758 
L 734.413958 759.689539 
L 735.590144 759.73648 
L 736.766329 760.01225 
L 737.873328 760.495914 
L 739.049513 761.26427 
L 740.225699 762.3116 
L 741.401885 763.65495 
L 742.647258 765.41832 
L 743.961818 767.680668 
L 745.345566 770.529409 
L 746.798501 774.059453 
L 748.320624 778.371754 
L 749.911934 783.570305 
L 751.572431 789.757151 
L 753.371303 797.333512 
L 755.30855 806.476668 
L 757.453359 817.702038 
L 759.944105 831.978686 
L 763.2651 852.43753 
L 769.007654 887.941113 
L 771.22165 900.146511 
L 773.020522 908.87058 
L 774.542645 915.195295 
L 775.857205 919.754323 
L 777.033391 923.051491 
L 778.071202 925.30612 
L 778.970638 926.741813 
L 779.731699 927.57041 
L 780.423573 928.011536 
L 781.04626 928.152281 
L 781.668946 928.049573 
L 782.291633 927.703845 
L 782.983507 927.036523 
L 783.744568 925.962363 
L 784.574817 924.392146 
L 785.54344 922.050469 
L 786.650438 918.731739 
L 787.895811 914.231546 
L 789.279559 908.365684 
L 790.940057 900.28072 
L 792.877304 889.68202 
L 795.437237 874.343205 
L 804.431598 819.314107 
L 806.783969 806.885916 
L 808.859591 797.071555 
L 810.796838 788.971469 
L 812.59571 782.397151 
L 814.256207 777.140156 
L 815.847517 772.820527 
L 817.36964 769.326168 
L 818.822575 766.548144 
L 820.206323 764.384294 
L 821.520884 762.740702 
L 822.766257 761.532989 
L 823.942442 760.686027 
L 825.118628 760.106835 
L 826.294814 759.778121 
L 827.470999 759.682891 
L 828.716372 759.818001 
L 829.961745 760.17683 
L 831.345493 760.815034 
L 832.798428 761.730593 
L 834.458926 763.050985 
L 836.257798 764.769525 
L 838.33342 767.068849 
L 840.754978 770.102456 
L 843.591661 774.028211 
L 847.189406 779.412689 
L 852.309273 787.513728 
L 865.10894 807.890032 
L 870.436369 815.866797 
L 875.279486 822.724368 
L 879.915042 828.907775 
L 884.412222 834.544002 
L 888.909403 839.827223 
L 893.406583 844.768524 
L 897.903763 849.38322 
L 902.470131 853.753108 
L 907.105686 857.884082 
L 911.879616 861.839353 
L 916.791921 865.616458 
L 921.842601 869.215419 
L 927.031655 872.638516 
L 932.428272 875.9306 
L 938.03245 879.088752 
L 943.913379 882.148303 
L 950.209431 885.170406 
L 954.706612 887.189935 
L 954.706612 887.189935 
" style="fill:none;stroke:#ff0000;stroke-linecap:square;stroke-width:5;"/>
   </g>
   <g id="patch_18">
    <path d="M 591.545455 945 
L 591.545455 574.363636 
" style="fill:none;stroke:#000000;stroke-linecap:square;stroke-linejoin:miter;stroke-width:0.8;"/>
   </g>
   <g id="patch_19">
    <path d="M 972 945 
L 972 574.363636 
" style="fill:none;stroke:#000000;stroke-linecap:square;stroke-linejoin:miter;stroke-width:0.8;"/>
   </g>
   <g id="patch_20">
    <path d="M 591.545455 945 
L 972 945 
" style="fill:none;stroke:#000000;stroke-linecap:square;stroke-linejoin:miter;stroke-width:0.8;"/>
   </g>
   <g id="patch_21">
    <path d="M 591.545455 574.363636 
L 972 574.363636 
" style="fill:none;stroke:#000000;stroke-linecap:square;stroke-linejoin:miter;stroke-width:0.8;"/>
   </g>
   <g id="legend_1">
    <g id="patch_22">
     <path d="M 689.736009 930 
L 873.809446 930 
Q 879.809446 930 879.809446 924 
L 879.809446 838.93125 
Q 879.809446 832.93125 873.809446 832.93125 
L 689.736009 832.93125 
Q 683.736009 832.93125 683.736009 838.93125 
L 683.736009 924 
Q 683.736009 930 689.736009 930 
z
" style="fill:#ffffff;opacity:0.8;stroke:#cccccc;stroke-linejoin:miter;"/>
    </g>
    <g id="line2d_45">
     <path d="M 695.736009 857.226562 
L 755.736009 857.226562 
" style="fill:none;stroke:#0000ff;stroke-linecap:square;stroke-width:5;"/>
    </g>
    <g id="line2d_46"/>
    <g id="text_19">
     <!-- Port 1 -->
     <g transform="translate(779.736009 867.726562)scale(0.3 -0.3)">
      <defs>
       <path d="M 19.671875 64.796875 
L 19.671875 37.40625 
L 32.078125 37.40625 
Q 38.96875 37.40625 42.71875 40.96875 
Q 46.484375 44.53125 46.484375 51.125 
Q 46.484375 57.671875 42.71875 61.234375 
Q 38.96875 64.796875 32.078125 64.796875 
z
M 9.8125 72.90625 
L 32.078125 72.90625 
Q 44.34375 72.90625 50.609375 67.359375 
Q 56.890625 61.8125 56.890625 51.125 
Q 56.890625 40.328125 50.609375 34.8125 
Q 44.34375 29.296875 32.078125 29.296875 
L 19.671875 29.296875 
L 19.671875 0 
L 9.8125 0 
z
" id="DejaVuSans-80"/>
       <path d="M 30.609375 48.390625 
Q 23.390625 48.390625 19.1875 42.75 
Q 14.984375 37.109375 14.984375 27.296875 
Q 14.984375 17.484375 19.15625 11.84375 
Q 23.34375 6.203125 30.609375 6.203125 
Q 37.796875 6.203125 41.984375 11.859375 
Q 46.1875 17.53125 46.1875 27.296875 
Q 46.1875 37.015625 41.984375 42.703125 
Q 37.796875 48.390625 30.609375 48.390625 
z
M 30.609375 56 
Q 42.328125 56 49.015625 48.375 
Q 55.71875 40.765625 55.71875 27.296875 
Q 55.71875 13.875 49.015625 6.21875 
Q 42.328125 -1.421875 30.609375 -1.421875 
Q 18.84375 -1.421875 12.171875 6.21875 
Q 5.515625 13.875 5.515625 27.296875 
Q 5.515625 40.765625 12.171875 48.375 
Q 18.84375 56 30.609375 56 
z
" id="DejaVuSans-111"/>
       <path d="M 41.109375 46.296875 
Q 39.59375 47.171875 37.8125 47.578125 
Q 36.03125 48 33.890625 48 
Q 26.265625 48 22.1875 43.046875 
Q 18.109375 38.09375 18.109375 28.8125 
L 18.109375 0 
L 9.078125 0 
L 9.078125 54.6875 
L 18.109375 54.6875 
L 18.109375 46.1875 
Q 20.953125 51.171875 25.484375 53.578125 
Q 30.03125 56 36.53125 56 
Q 37.453125 56 38.578125 55.875 
Q 39.703125 55.765625 41.0625 55.515625 
z
" id="DejaVuSans-114"/>
       <path d="M 18.3125 70.21875 
L 18.3125 54.6875 
L 36.8125 54.6875 
L 36.8125 47.703125 
L 18.3125 47.703125 
L 18.3125 18.015625 
Q 18.3125 11.328125 20.140625 9.421875 
Q 21.96875 7.515625 27.59375 7.515625 
L 36.8125 7.515625 
L 36.8125 0 
L 27.59375 0 
Q 17.1875 0 13.234375 3.875 
Q 9.28125 7.765625 9.28125 18.015625 
L 9.28125 47.703125 
L 2.6875 47.703125 
L 2.6875 54.6875 
L 9.28125 54.6875 
L 9.28125 70.21875 
z
" id="DejaVuSans-116"/>
       <path id="DejaVuSans-32"/>
      </defs>
      <use xlink:href="#DejaVuSans-80"/>
      <use x="56.677734" xlink:href="#DejaVuSans-111"/>
      <use x="117.859375" xlink:href="#DejaVuSans-114"/>
      <use x="158.972656" xlink:href="#DejaVuSans-116"/>
      <use x="198.181641" xlink:href="#DejaVuSans-32"/>
      <use x="229.96875" xlink:href="#DejaVuSans-49"/>
     </g>
    </g>
    <g id="line2d_47">
     <path d="M 695.736009 901.260937 
L 755.736009 901.260937 
" style="fill:none;stroke:#ff0000;stroke-linecap:square;stroke-width:5;"/>
    </g>
    <g id="line2d_48"/>
    <g id="text_20">
     <!-- Port 2 -->
     <g transform="translate(779.736009 911.760937)scale(0.3 -0.3)">
      <use xlink:href="#DejaVuSans-80"/>
      <use x="56.677734" xlink:href="#DejaVuSans-111"/>
      <use x="117.859375" xlink:href="#DejaVuSans-114"/>
      <use x="158.972656" xlink:href="#DejaVuSans-116"/>
      <use x="198.181641" xlink:href="#DejaVuSans-32"/>
      <use x="229.96875" xlink:href="#DejaVuSans-50"/>
     </g>
    </g>
   </g>
  </g>
  <g id="axes_5">
   <g id="matplotlib.axis_9">
    <g id="xtick_13">
     <g id="text_21">
      <!-- 0.0 -->
      <g style="opacity:0;" transform="translate(111.145313 974.795313)scale(0.3 -0.3)">
       <use xlink:href="#DejaVuSans-48"/>
       <use x="63.623047" xlink:href="#DejaVuSans-46"/>
       <use x="95.410156" xlink:href="#DejaVuSans-48"/>
      </g>
     </g>
    </g>
    <g id="xtick_14">
     <g id="text_22">
      <!-- 0.2 -->
      <g style="opacity:0;" transform="translate(278.545312 974.795313)scale(0.3 -0.3)">
       <use xlink:href="#DejaVuSans-48"/>
       <use x="63.623047" xlink:href="#DejaVuSans-46"/>
       <use x="95.410156" xlink:href="#DejaVuSans-50"/>
      </g>
     </g>
    </g>
    <g id="xtick_15">
     <g id="text_23">
      <!-- 0.4 -->
      <g style="opacity:0;" transform="translate(445.945312 974.795313)scale(0.3 -0.3)">
       <use xlink:href="#DejaVuSans-48"/>
       <use x="63.623047" xlink:href="#DejaVuSans-46"/>
       <use x="95.410156" xlink:href="#DejaVuSans-52"/>
      </g>
     </g>
    </g>
    <g id="xtick_16">
     <g id="text_24">
      <!-- 0.6 -->
      <g style="opacity:0;" transform="translate(613.345313 974.795313)scale(0.3 -0.3)">
       <use xlink:href="#DejaVuSans-48"/>
       <use x="63.623047" xlink:href="#DejaVuSans-46"/>
       <use x="95.410156" xlink:href="#DejaVuSans-54"/>
      </g>
     </g>
    </g>
    <g id="xtick_17">
     <g id="text_25">
      <!-- 0.8 -->
      <g style="opacity:0;" transform="translate(780.745313 974.795313)scale(0.3 -0.3)">
       <use xlink:href="#DejaVuSans-48"/>
       <use x="63.623047" xlink:href="#DejaVuSans-46"/>
       <use x="95.410156" xlink:href="#DejaVuSans-56"/>
      </g>
     </g>
    </g>
    <g id="xtick_18">
     <g id="text_26">
      <!-- 1.0 -->
      <g style="opacity:0;" transform="translate(948.145313 974.795313)scale(0.3 -0.3)">
       <use xlink:href="#DejaVuSans-49"/>
       <use x="63.623047" xlink:href="#DejaVuSans-46"/>
       <use x="95.410156" xlink:href="#DejaVuSans-48"/>
      </g>
     </g>
    </g>
    <g id="text_27">
     <!-- $(\omega-\omega_{c})/\kappa$ -->
     <g transform="translate(477.9 1007.829687)scale(0.3 -0.3)">
      <defs>
       <path d="M 31 75.875 
Q 24.46875 64.65625 21.28125 53.65625 
Q 18.109375 42.671875 18.109375 31.390625 
Q 18.109375 20.125 21.3125 9.0625 
Q 24.515625 -2 31 -13.1875 
L 23.1875 -13.1875 
Q 15.875 -1.703125 12.234375 9.375 
Q 8.59375 20.453125 8.59375 31.390625 
Q 8.59375 42.28125 12.203125 53.3125 
Q 15.828125 64.359375 23.1875 75.875 
z
" id="DejaVuSans-40"/>
       <path d="M 26.859375 -1.421875 
Q 6.59375 -1.421875 6.59375 27.59375 
Q 6.59375 39.0625 14.15625 54.6875 
L 23.828125 54.6875 
Q 16.84375 39.0625 16.84375 27.34375 
Q 16.84375 6.203125 27.6875 6.203125 
Q 37.59375 6.203125 37.59375 32.46875 
L 45.90625 32.46875 
Q 45.90625 6.203125 55.8125 6.203125 
Q 66.65625 6.203125 66.65625 27.34375 
Q 66.65625 39.0625 59.671875 54.6875 
L 69.34375 54.6875 
Q 76.90625 39.0625 76.90625 27.59375 
Q 76.90625 -1.421875 56.640625 -1.421875 
Q 43.359375 -1.421875 41.75 13.1875 
Q 39.75 -1.421875 26.859375 -1.421875 
z
" id="DejaVuSans-969"/>
       <path d="M 48.78125 52.59375 
L 48.78125 44.1875 
Q 44.96875 46.296875 41.140625 47.34375 
Q 37.3125 48.390625 33.40625 48.390625 
Q 24.65625 48.390625 19.8125 42.84375 
Q 14.984375 37.3125 14.984375 27.296875 
Q 14.984375 17.28125 19.8125 11.734375 
Q 24.65625 6.203125 33.40625 6.203125 
Q 37.3125 6.203125 41.140625 7.25 
Q 44.96875 8.296875 48.78125 10.40625 
L 48.78125 2.09375 
Q 45.015625 0.34375 40.984375 -0.53125 
Q 36.96875 -1.421875 32.421875 -1.421875 
Q 20.0625 -1.421875 12.78125 6.34375 
Q 5.515625 14.109375 5.515625 27.296875 
Q 5.515625 40.671875 12.859375 48.328125 
Q 20.21875 56 33.015625 56 
Q 37.15625 56 41.109375 55.140625 
Q 45.0625 54.296875 48.78125 52.59375 
z
" id="DejaVuSans-99"/>
       <path d="M 8.015625 75.875 
L 15.828125 75.875 
Q 23.140625 64.359375 26.78125 53.3125 
Q 30.421875 42.28125 30.421875 31.390625 
Q 30.421875 20.453125 26.78125 9.375 
Q 23.140625 -1.703125 15.828125 -13.1875 
L 8.015625 -13.1875 
Q 14.5 -2 17.703125 9.0625 
Q 20.90625 20.125 20.90625 31.390625 
Q 20.90625 42.671875 17.703125 53.65625 
Q 14.5 64.65625 8.015625 75.875 
z
" id="DejaVuSans-41"/>
       <path d="M 25.390625 72.90625 
L 33.6875 72.90625 
L 8.296875 -9.28125 
L 0 -9.28125 
z
" id="DejaVuSans-47"/>
       <path d="M 9.328125 54.6875 
L 18.609375 54.6875 
L 18.609375 31.984375 
L 42.1875 54.6875 
L 53.125 54.6875 
L 31.59375 34.078125 
L 56.5 0 
L 45.515625 0 
L 25.296875 28.21875 
L 18.609375 21.921875 
L 18.609375 0 
L 9.328125 0 
z
" id="DejaVuSans-954"/>
      </defs>
      <use transform="translate(0 0.125)" xlink:href="#DejaVuSans-40"/>
      <use transform="translate(39.013672 0.125)" xlink:href="#DejaVuSans-969"/>
      <use transform="translate(142.236328 0.125)" xlink:href="#DejaVuSans-8722"/>
      <use transform="translate(245.507812 0.125)" xlink:href="#DejaVuSans-969"/>
      <use transform="translate(330.205078 -16.28125)scale(0.7)" xlink:href="#DejaVuSans-99"/>
      <use transform="translate(371.425781 0.125)" xlink:href="#DejaVuSans-41"/>
      <use transform="translate(410.439453 0.125)" xlink:href="#DejaVuSans-47"/>
      <use transform="translate(444.130859 0.125)" xlink:href="#DejaVuSans-954"/>
     </g>
    </g>
   </g>
   <g id="matplotlib.axis_10">
    <g id="ytick_25">
     <g id="text_28">
      <!-- 0.0 -->
      <g style="opacity:0;" transform="translate(80.290625 956.397656)scale(0.3 -0.3)">
       <use xlink:href="#DejaVuSans-48"/>
       <use x="63.623047" xlink:href="#DejaVuSans-46"/>
       <use x="95.410156" xlink:href="#DejaVuSans-48"/>
      </g>
     </g>
    </g>
    <g id="ytick_26">
     <g id="text_29">
      <!-- 0.2 -->
      <g style="opacity:0;" transform="translate(80.290625 793.317656)scale(0.3 -0.3)">
       <use xlink:href="#DejaVuSans-48"/>
       <use x="63.623047" xlink:href="#DejaVuSans-46"/>
       <use x="95.410156" xlink:href="#DejaVuSans-50"/>
      </g>
     </g>
    </g>
    <g id="ytick_27">
     <g id="text_30">
      <!-- 0.4 -->
      <g style="opacity:0;" transform="translate(80.290625 630.237656)scale(0.3 -0.3)">
       <use xlink:href="#DejaVuSans-48"/>
       <use x="63.623047" xlink:href="#DejaVuSans-46"/>
       <use x="95.410156" xlink:href="#DejaVuSans-52"/>
      </g>
     </g>
    </g>
    <g id="ytick_28">
     <g id="text_31">
      <!-- 0.6 -->
      <g style="opacity:0;" transform="translate(80.290625 467.157656)scale(0.3 -0.3)">
       <use xlink:href="#DejaVuSans-48"/>
       <use x="63.623047" xlink:href="#DejaVuSans-46"/>
       <use x="95.410156" xlink:href="#DejaVuSans-54"/>
      </g>
     </g>
    </g>
    <g id="ytick_29">
     <g id="text_32">
      <!-- 0.8 -->
      <g style="opacity:0;" transform="translate(80.290625 304.077656)scale(0.3 -0.3)">
       <use xlink:href="#DejaVuSans-48"/>
       <use x="63.623047" xlink:href="#DejaVuSans-46"/>
       <use x="95.410156" xlink:href="#DejaVuSans-56"/>
      </g>
     </g>
    </g>
    <g id="ytick_30">
     <g id="text_33">
      <!-- 1.0 -->
      <g style="opacity:0;" transform="translate(80.290625 140.997656)scale(0.3 -0.3)">
       <use xlink:href="#DejaVuSans-49"/>
       <use x="63.623047" xlink:href="#DejaVuSans-46"/>
       <use x="95.410156" xlink:href="#DejaVuSans-48"/>
      </g>
     </g>
    </g>
   </g>
  </g>
 </g>
 <defs>
  <clipPath id="p9d79286c65">
   <rect height="370.636364" width="380.454545" x="135" y="129.6"/>
  </clipPath>
  <clipPath id="p0987b14156">
   <rect height="370.636364" width="380.454545" x="591.545455" y="129.6"/>
  </clipPath>
  <clipPath id="p7b74185ae2">
   <rect height="370.636364" width="380.454545" x="135" y="574.363636"/>
  </clipPath>
  <clipPath id="p9e36b01b66">
   <rect height="370.636364" width="380.454545" x="591.545455" y="574.363636"/>
  </clipPath>
 </defs>
</svg>
