<?xml version="1.0" encoding="utf-8" standalone="no"?>
<!DOCTYPE svg PUBLIC "-//W3C//DTD SVG 1.1//EN"
  "http://www.w3.org/Graphics/SVG/1.1/DTD/svg11.dtd">
<!-- Created with matplotlib (https://matplotlib.org/) -->
<svg height="1080pt" version="1.1" viewBox="0 0 1080 1080" width="1080pt" xmlns="http://www.w3.org/2000/svg" xmlns:xlink="http://www.w3.org/1999/xlink">
 <metadata>
  <rdf:RDF xmlns:cc="http://creativecommons.org/ns#" xmlns:dc="http://purl.org/dc/elements/1.1/" xmlns:rdf="http://www.w3.org/1999/02/22-rdf-syntax-ns#">
   <cc:Work>
    <dc:type rdf:resource="http://purl.org/dc/dcmitype/StillImage"/>
    <dc:date>2021-04-15T17:58:57.147901</dc:date>
    <dc:format>image/svg+xml</dc:format>
    <dc:creator>
     <cc:Agent>
      <dc:title>Matplotlib v3.3.2, https://matplotlib.org/</dc:title>
     </cc:Agent>
    </dc:creator>
   </cc:Work>
  </rdf:RDF>
 </metadata>
 <defs>
  <style type="text/css">*{stroke-linecap:butt;stroke-linejoin:round;}</style>
 </defs>
 <g id="figure_1">
  <g id="patch_1">
   <path d="M 0 1080 
L 1080 1080 
L 1080 0 
L 0 0 
z
" style="fill:none;"/>
  </g>
  <g id="axes_1">
   <g id="patch_2">
    <path d="M 135 500.236364 
L 515.454545 500.236364 
L 515.454545 129.6 
L 135 129.6 
z
" style="fill:#ffffff;"/>
   </g>
   <g id="matplotlib.axis_1">
    <g id="xtick_1">
     <g id="line2d_1">
      <defs>
       <path d="M 0 0 
L 0 3.5 
" id="mab117a2b10" style="stroke:#000000;stroke-width:0.8;"/>
      </defs>
      <g>
       <use style="stroke:#000000;stroke-width:0.8;" x="139.323347" xlink:href="#mab117a2b10" y="500.236364"/>
      </g>
     </g>
    </g>
    <g id="xtick_2">
     <g id="line2d_2">
      <g>
       <use style="stroke:#000000;stroke-width:0.8;" x="325.227273" xlink:href="#mab117a2b10" y="500.236364"/>
      </g>
     </g>
    </g>
    <g id="xtick_3">
     <g id="line2d_3">
      <g>
       <use style="stroke:#000000;stroke-width:0.8;" x="511.131198" xlink:href="#mab117a2b10" y="500.236364"/>
      </g>
     </g>
    </g>
   </g>
   <g id="matplotlib.axis_2">
    <g id="ytick_1">
     <g id="line2d_4">
      <defs>
       <path d="M 0 0 
L -3.5 0 
" id="m83a9b7f855" style="stroke:#000000;stroke-width:0.8;"/>
      </defs>
      <g>
       <use style="stroke:#000000;stroke-width:0.8;" x="135" xlink:href="#m83a9b7f855" y="483.389328"/>
      </g>
     </g>
     <g id="text_1">
      <!-- 0.0 -->
      <g transform="translate(80.290625 494.786984)scale(0.3 -0.3)">
       <defs>
        <path d="M 31.78125 66.40625 
Q 24.171875 66.40625 20.328125 58.90625 
Q 16.5 51.421875 16.5 36.375 
Q 16.5 21.390625 20.328125 13.890625 
Q 24.171875 6.390625 31.78125 6.390625 
Q 39.453125 6.390625 43.28125 13.890625 
Q 47.125 21.390625 47.125 36.375 
Q 47.125 51.421875 43.28125 58.90625 
Q 39.453125 66.40625 31.78125 66.40625 
z
M 31.78125 74.21875 
Q 44.046875 74.21875 50.515625 64.515625 
Q 56.984375 54.828125 56.984375 36.375 
Q 56.984375 17.96875 50.515625 8.265625 
Q 44.046875 -1.421875 31.78125 -1.421875 
Q 19.53125 -1.421875 13.0625 8.265625 
Q 6.59375 17.96875 6.59375 36.375 
Q 6.59375 54.828125 13.0625 64.515625 
Q 19.53125 74.21875 31.78125 74.21875 
z
" id="DejaVuSans-48"/>
        <path d="M 10.6875 12.40625 
L 21 12.40625 
L 21 0 
L 10.6875 0 
z
" id="DejaVuSans-46"/>
       </defs>
       <use xlink:href="#DejaVuSans-48"/>
       <use x="63.623047" xlink:href="#DejaVuSans-46"/>
       <use x="95.410156" xlink:href="#DejaVuSans-48"/>
      </g>
     </g>
    </g>
    <g id="ytick_2">
     <g id="line2d_5">
      <g>
       <use style="stroke:#000000;stroke-width:0.8;" x="135" xlink:href="#m83a9b7f855" y="416.000851"/>
      </g>
     </g>
     <g id="text_2">
      <!-- 0.2 -->
      <g transform="translate(80.290625 427.398508)scale(0.3 -0.3)">
       <defs>
        <path d="M 19.1875 8.296875 
L 53.609375 8.296875 
L 53.609375 0 
L 7.328125 0 
L 7.328125 8.296875 
Q 12.9375 14.109375 22.625 23.890625 
Q 32.328125 33.6875 34.8125 36.53125 
Q 39.546875 41.84375 41.421875 45.53125 
Q 43.3125 49.21875 43.3125 52.78125 
Q 43.3125 58.59375 39.234375 62.25 
Q 35.15625 65.921875 28.609375 65.921875 
Q 23.96875 65.921875 18.8125 64.3125 
Q 13.671875 62.703125 7.8125 59.421875 
L 7.8125 69.390625 
Q 13.765625 71.78125 18.9375 73 
Q 24.125 74.21875 28.421875 74.21875 
Q 39.75 74.21875 46.484375 68.546875 
Q 53.21875 62.890625 53.21875 53.421875 
Q 53.21875 48.921875 51.53125 44.890625 
Q 49.859375 40.875 45.40625 35.40625 
Q 44.1875 33.984375 37.640625 27.21875 
Q 31.109375 20.453125 19.1875 8.296875 
z
" id="DejaVuSans-50"/>
       </defs>
       <use xlink:href="#DejaVuSans-48"/>
       <use x="63.623047" xlink:href="#DejaVuSans-46"/>
       <use x="95.410156" xlink:href="#DejaVuSans-50"/>
      </g>
     </g>
    </g>
    <g id="ytick_3">
     <g id="line2d_6">
      <g>
       <use style="stroke:#000000;stroke-width:0.8;" x="135" xlink:href="#m83a9b7f855" y="348.612375"/>
      </g>
     </g>
     <g id="text_3">
      <!-- 0.4 -->
      <g transform="translate(80.290625 360.010032)scale(0.3 -0.3)">
       <defs>
        <path d="M 37.796875 64.3125 
L 12.890625 25.390625 
L 37.796875 25.390625 
z
M 35.203125 72.90625 
L 47.609375 72.90625 
L 47.609375 25.390625 
L 58.015625 25.390625 
L 58.015625 17.1875 
L 47.609375 17.1875 
L 47.609375 0 
L 37.796875 0 
L 37.796875 17.1875 
L 4.890625 17.1875 
L 4.890625 26.703125 
z
" id="DejaVuSans-52"/>
       </defs>
       <use xlink:href="#DejaVuSans-48"/>
       <use x="63.623047" xlink:href="#DejaVuSans-46"/>
       <use x="95.410156" xlink:href="#DejaVuSans-52"/>
      </g>
     </g>
    </g>
    <g id="ytick_4">
     <g id="line2d_7">
      <g>
       <use style="stroke:#000000;stroke-width:0.8;" x="135" xlink:href="#m83a9b7f855" y="281.223899"/>
      </g>
     </g>
     <g id="text_4">
      <!-- 0.6 -->
      <g transform="translate(80.290625 292.621555)scale(0.3 -0.3)">
       <defs>
        <path d="M 33.015625 40.375 
Q 26.375 40.375 22.484375 35.828125 
Q 18.609375 31.296875 18.609375 23.390625 
Q 18.609375 15.53125 22.484375 10.953125 
Q 26.375 6.390625 33.015625 6.390625 
Q 39.65625 6.390625 43.53125 10.953125 
Q 47.40625 15.53125 47.40625 23.390625 
Q 47.40625 31.296875 43.53125 35.828125 
Q 39.65625 40.375 33.015625 40.375 
z
M 52.59375 71.296875 
L 52.59375 62.3125 
Q 48.875 64.0625 45.09375 64.984375 
Q 41.3125 65.921875 37.59375 65.921875 
Q 27.828125 65.921875 22.671875 59.328125 
Q 17.53125 52.734375 16.796875 39.40625 
Q 19.671875 43.65625 24.015625 45.921875 
Q 28.375 48.1875 33.59375 48.1875 
Q 44.578125 48.1875 50.953125 41.515625 
Q 57.328125 34.859375 57.328125 23.390625 
Q 57.328125 12.15625 50.6875 5.359375 
Q 44.046875 -1.421875 33.015625 -1.421875 
Q 20.359375 -1.421875 13.671875 8.265625 
Q 6.984375 17.96875 6.984375 36.375 
Q 6.984375 53.65625 15.1875 63.9375 
Q 23.390625 74.21875 37.203125 74.21875 
Q 40.921875 74.21875 44.703125 73.484375 
Q 48.484375 72.75 52.59375 71.296875 
z
" id="DejaVuSans-54"/>
       </defs>
       <use xlink:href="#DejaVuSans-48"/>
       <use x="63.623047" xlink:href="#DejaVuSans-46"/>
       <use x="95.410156" xlink:href="#DejaVuSans-54"/>
      </g>
     </g>
    </g>
    <g id="ytick_5">
     <g id="line2d_8">
      <g>
       <use style="stroke:#000000;stroke-width:0.8;" x="135" xlink:href="#m83a9b7f855" y="213.835423"/>
      </g>
     </g>
     <g id="text_5">
      <!-- 0.8 -->
      <g transform="translate(80.290625 225.233079)scale(0.3 -0.3)">
       <defs>
        <path d="M 31.78125 34.625 
Q 24.75 34.625 20.71875 30.859375 
Q 16.703125 27.09375 16.703125 20.515625 
Q 16.703125 13.921875 20.71875 10.15625 
Q 24.75 6.390625 31.78125 6.390625 
Q 38.8125 6.390625 42.859375 10.171875 
Q 46.921875 13.96875 46.921875 20.515625 
Q 46.921875 27.09375 42.890625 30.859375 
Q 38.875 34.625 31.78125 34.625 
z
M 21.921875 38.8125 
Q 15.578125 40.375 12.03125 44.71875 
Q 8.5 49.078125 8.5 55.328125 
Q 8.5 64.0625 14.71875 69.140625 
Q 20.953125 74.21875 31.78125 74.21875 
Q 42.671875 74.21875 48.875 69.140625 
Q 55.078125 64.0625 55.078125 55.328125 
Q 55.078125 49.078125 51.53125 44.71875 
Q 48 40.375 41.703125 38.8125 
Q 48.828125 37.15625 52.796875 32.3125 
Q 56.78125 27.484375 56.78125 20.515625 
Q 56.78125 9.90625 50.3125 4.234375 
Q 43.84375 -1.421875 31.78125 -1.421875 
Q 19.734375 -1.421875 13.25 4.234375 
Q 6.78125 9.90625 6.78125 20.515625 
Q 6.78125 27.484375 10.78125 32.3125 
Q 14.796875 37.15625 21.921875 38.8125 
z
M 18.3125 54.390625 
Q 18.3125 48.734375 21.84375 45.5625 
Q 25.390625 42.390625 31.78125 42.390625 
Q 38.140625 42.390625 41.71875 45.5625 
Q 45.3125 48.734375 45.3125 54.390625 
Q 45.3125 60.0625 41.71875 63.234375 
Q 38.140625 66.40625 31.78125 66.40625 
Q 25.390625 66.40625 21.84375 63.234375 
Q 18.3125 60.0625 18.3125 54.390625 
z
" id="DejaVuSans-56"/>
       </defs>
       <use xlink:href="#DejaVuSans-48"/>
       <use x="63.623047" xlink:href="#DejaVuSans-46"/>
       <use x="95.410156" xlink:href="#DejaVuSans-56"/>
      </g>
     </g>
    </g>
    <g id="ytick_6">
     <g id="line2d_9">
      <g>
       <use style="stroke:#000000;stroke-width:0.8;" x="135" xlink:href="#m83a9b7f855" y="146.446947"/>
      </g>
     </g>
     <g id="text_6">
      <!-- 1.0 -->
      <g transform="translate(80.290625 157.844603)scale(0.3 -0.3)">
       <defs>
        <path d="M 12.40625 8.296875 
L 28.515625 8.296875 
L 28.515625 63.921875 
L 10.984375 60.40625 
L 10.984375 69.390625 
L 28.421875 72.90625 
L 38.28125 72.90625 
L 38.28125 8.296875 
L 54.390625 8.296875 
L 54.390625 0 
L 12.40625 0 
z
" id="DejaVuSans-49"/>
       </defs>
       <use xlink:href="#DejaVuSans-49"/>
       <use x="63.623047" xlink:href="#DejaVuSans-46"/>
       <use x="95.410156" xlink:href="#DejaVuSans-48"/>
      </g>
     </g>
    </g>
   </g>
   <g id="line2d_10">
    <path clip-path="url(#pc94f002637)" d="M 152.293388 191.823604 
L 157.897567 194.664688 
L 163.294184 197.648147 
L 168.483238 200.771871 
L 173.395543 203.984209 
L 178.169473 207.368909 
L 182.805028 210.928413 
L 187.302208 214.66372 
L 191.661014 218.573785 
L 195.881445 222.655582 
L 199.963501 226.903187 
L 204.045557 231.468358 
L 208.058426 236.287025 
L 212.071294 241.454126 
L 216.153351 247.085615 
L 220.166219 253.002937 
L 224.317463 259.52576 
L 228.607081 266.681208 
L 233.381011 275.087124 
L 239.953813 287.169019 
L 246.457428 299.010139 
L 249.640048 304.3487 
L 252.061607 307.991123 
L 253.998853 310.525142 
L 255.659351 312.345065 
L 257.043099 313.555985 
L 258.288472 314.364362 
L 259.39547 314.825034 
L 260.364093 315.003426 
L 261.26353 314.960636 
L 262.162966 314.697287 
L 263.062402 314.192862 
L 263.961838 313.425723 
L 264.930461 312.279783 
L 265.899085 310.773278 
L 266.936896 308.724426 
L 268.043894 306.00078 
L 269.150892 302.675469 
L 270.327078 298.43163 
L 271.572451 293.08305 
L 272.887011 286.423905 
L 274.270759 278.236375 
L 275.792882 267.801011 
L 277.384192 255.312679 
L 279.183064 239.410348 
L 281.535435 216.436454 
L 285.755866 174.805771 
L 287.139614 163.455558 
L 288.177425 156.537499 
L 289.007673 152.270952 
L 289.699547 149.724466 
L 290.253046 148.422096 
L 290.668171 147.905769 
L 291.014108 147.791908 
L 291.290857 147.914674 
L 291.636794 148.342682 
L 292.051919 149.268091 
L 292.53623 150.928464 
L 293.158917 153.996959 
L 293.850791 158.643661 
L 294.68104 165.908938 
L 295.649663 176.587909 
L 296.825849 192.355499 
L 298.347971 216.148023 
L 302.430027 281.911095 
L 303.606213 296.481605 
L 304.505649 305.165732 
L 305.26671 310.622871 
L 305.889397 313.718684 
L 306.442896 315.40936 
L 306.85802 316.018302 
L 307.13477 316.11235 
L 307.411519 315.958943 
L 307.757456 315.424153 
L 308.172581 314.289403 
L 308.72608 311.967689 
L 309.348766 308.307702 
L 310.109828 302.446502 
L 311.078451 293.044961 
L 312.254637 279.259886 
L 313.915134 256.821592 
L 318.550689 192.539329 
L 319.934437 176.996755 
L 321.110623 166.134782 
L 322.079246 159.04353 
L 322.909495 154.404041 
L 323.601369 151.598402 
L 324.224056 149.919418 
L 324.708367 149.175818 
L 325.123492 148.932518 
L 325.469429 149.008583 
L 325.815366 149.337773 
L 326.23049 150.065857 
L 326.714802 151.372008 
L 327.337488 153.764831 
L 328.029362 157.345732 
L 328.859611 162.881193 
L 329.828234 170.953348 
L 330.935233 182.123175 
L 332.249793 197.697595 
L 333.979478 221.016086 
L 338.68422 286.027199 
L 339.860406 298.664148 
L 340.829029 306.854752 
L 341.590091 311.614631 
L 342.212777 314.289578 
L 342.697089 315.561509 
L 343.043026 316.020589 
L 343.319776 316.112308 
L 343.596525 315.956217 
L 343.942462 315.409526 
L 344.357586 314.235647 
L 344.841898 312.153999 
L 345.464585 308.366558 
L 346.225646 302.101537 
L 347.125082 292.547335 
L 348.162893 279.015853 
L 349.546641 257.84116 
L 354.320571 181.830786 
L 355.427569 168.727011 
L 356.396192 159.728404 
L 357.226441 153.997277 
L 357.918315 150.653167 
L 358.471814 148.909449 
L 358.956126 148.049176 
L 359.302063 147.804976 
L 359.578812 147.825458 
L 359.924749 148.113545 
L 360.339874 148.830417 
L 360.824185 150.154994 
L 361.446872 152.57846 
L 362.207933 156.537893 
L 363.107369 162.443688 
L 364.283555 171.781945 
L 365.874865 186.448638 
L 369.057485 218.530637 
L 371.686606 243.861542 
L 373.623853 260.38673 
L 375.28435 272.730541 
L 376.806473 282.483787 
L 378.259408 290.409407 
L 379.643156 296.749425 
L 380.957716 301.744853 
L 382.203089 305.619038 
L 383.379275 308.570968 
L 384.486273 310.773312 
L 385.524084 312.373242 
L 386.492708 313.494564 
L 387.461331 314.286998 
L 388.360767 314.752957 
L 389.260203 314.981082 
L 390.159639 314.991694 
L 391.128263 314.781807 
L 392.166074 314.327129 
L 393.342259 313.556036 
L 394.65682 312.412639 
L 396.178942 310.772028 
L 397.908627 308.566409 
L 399.984249 305.541007 
L 402.544182 301.3913 
L 405.934365 295.439597 
L 412.16123 283.959984 
L 418.941594 271.6257 
L 423.784711 263.283556 
L 428.143517 256.213566 
L 432.294761 249.894575 
L 436.376817 244.078534 
L 440.458873 238.647908 
L 444.471741 233.669398 
L 448.553798 228.951488 
L 452.774228 224.418034 
L 456.994659 220.209959 
L 461.353465 216.179716 
L 465.781458 212.387638 
L 470.347826 208.769495 
L 474.983381 205.373693 
L 479.757311 202.142304 
L 484.738803 199.031601 
L 489.927857 196.047887 
L 495.532036 193.090562 
L 498.161157 191.789983 
L 498.161157 191.789983 
" style="fill:none;stroke:#0000ff;stroke-linecap:square;stroke-width:5;"/>
   </g>
   <g id="line2d_11">
    <path clip-path="url(#pc94f002637)" d="M 152.293388 438.016542 
L 157.966755 435.139347 
L 163.363371 432.153192 
L 168.552425 429.026714 
L 173.533918 425.764241 
L 178.307848 422.37252 
L 182.943403 418.805578 
L 187.371396 415.122349 
L 191.730201 411.208829 
L 195.950632 407.123585 
L 200.101876 402.797647 
L 204.183932 398.223377 
L 208.196801 393.395231 
L 212.209669 388.218549 
L 216.222538 382.676117 
L 220.235407 376.756131 
L 224.38665 370.23154 
L 228.745456 362.957025 
L 233.588573 354.423093 
L 240.29975 342.09078 
L 246.526615 330.793523 
L 249.640048 325.590875 
L 252.061607 321.962347 
L 253.998853 319.44118 
L 255.659351 317.633625 
L 257.043099 316.43407 
L 258.288472 315.636977 
L 259.39547 315.187147 
L 260.364093 315.018895 
L 261.26353 315.071764 
L 262.162966 315.345854 
L 263.062402 315.861723 
L 263.961838 316.641029 
L 264.930461 317.801062 
L 265.899085 319.322544 
L 266.936896 321.38878 
L 268.043894 324.132461 
L 269.150892 327.479292 
L 270.327078 331.748183 
L 271.572451 337.125827 
L 272.887011 343.818814 
L 274.270759 352.045481 
L 275.792882 362.52864 
L 277.384192 375.073012 
L 279.183064 391.046838 
L 281.535435 414.128581 
L 285.825053 456.615859 
L 287.208801 467.95344 
L 288.246612 474.836593 
L 289.076861 479.059852 
L 289.768735 481.559779 
L 290.322234 482.818701 
L 290.737358 483.299192 
L 291.083295 483.381366 
L 291.360045 483.232067 
L 291.705982 482.769744 
L 292.121106 481.80143 
L 292.605418 480.08983 
L 293.228104 476.954588 
L 293.919978 472.234449 
L 294.750227 464.886022 
L 295.71885 454.12445 
L 296.895036 438.287738 
L 298.417159 414.478556 
L 302.430027 350.120335 
L 303.606213 335.611198 
L 304.505649 326.968322 
L 305.26671 321.542806 
L 305.889397 318.470449 
L 306.373709 316.952842 
L 306.788833 316.263017 
L 307.065583 316.115339 
L 307.342332 316.214918 
L 307.619082 316.559351 
L 308.034206 317.526776 
L 308.518518 319.320334 
L 309.141204 322.630734 
L 309.902266 328.102783 
L 310.801702 336.370343 
L 311.9087 348.771505 
L 313.361635 367.749673 
L 319.311751 448.670751 
L 320.557124 461.367081 
L 321.664122 470.45088 
L 322.563558 476.145482 
L 323.324619 479.712632 
L 323.947306 481.749317 
L 324.500805 482.880775 
L 324.915929 483.30599 
L 325.261866 483.381976 
L 325.607803 483.204713 
L 326.022928 482.658269 
L 326.507239 481.562807 
L 327.060739 479.712688 
L 327.752613 476.518018 
L 328.513674 471.903561 
L 329.41311 465.030883 
L 330.450921 455.325426 
L 331.696294 441.458413 
L 333.218416 421.879299 
L 335.709162 386.417569 
L 338.061534 353.934559 
L 339.445282 337.797182 
L 340.483092 328.10296 
L 341.313341 322.209437 
L 342.005215 318.736597 
L 342.558714 316.976396 
L 342.973839 316.278465 
L 343.250588 316.117268 
L 343.527338 316.202947 
L 343.804087 316.537737 
L 344.150024 317.308316 
L 344.634336 319.04498 
L 345.187835 321.961347 
L 345.879709 326.968587 
L 346.709958 334.865789 
L 347.678581 346.415038 
L 348.923954 364.253663 
L 350.792014 394.780677 
L 353.421135 437.275307 
L 354.735695 454.966453 
L 355.773506 466.235213 
L 356.672942 473.786486 
L 357.434003 478.478435 
L 358.05669 481.145272 
L 358.610189 482.639948 
L 359.025313 483.23207 
L 359.37125 483.388589 
L 359.648 483.299189 
L 359.993937 482.927027 
L 360.409061 482.112202 
L 360.96256 480.433094 
L 361.585247 477.792391 
L 362.346308 473.592491 
L 363.314932 466.919378 
L 364.560305 456.615803 
L 366.289989 440.178555 
L 372.447667 379.797543 
L 374.246539 365.120156 
L 375.837849 353.839325 
L 377.359972 344.586157 
L 378.74372 337.451576 
L 380.05828 331.748161 
L 381.303653 327.251535 
L 382.549026 323.573442 
L 383.725212 320.791577 
L 384.83221 318.735693 
L 385.870021 317.26136 
L 386.838645 316.247186 
L 387.807268 315.552565 
L 388.706704 315.16955 
L 389.60614 315.017052 
L 390.574764 315.087909 
L 391.543387 315.379568 
L 392.650385 315.955519 
L 393.895758 316.876977 
L 395.279506 318.19504 
L 396.870816 320.033679 
L 398.738876 322.550902 
L 400.952872 325.921596 
L 403.789555 330.673176 
L 407.802424 337.876967 
L 420.809654 361.525336 
L 425.445209 369.331298 
L 429.734827 376.121933 
L 433.886071 382.280075 
L 437.968127 387.940986 
L 442.050183 393.222652 
L 446.132239 398.142976 
L 450.283482 402.797653 
L 454.503913 407.19303 
L 458.793531 411.337735 
L 463.152337 415.241782 
L 467.649518 418.971438 
L 472.285073 422.525752 
L 477.059003 425.905644 
L 482.040495 429.156912 
L 487.160362 432.233018 
L 492.487791 435.175997 
L 498.09197 438.016539 
L 498.161157 438.050087 
L 498.161157 438.050087 
" style="fill:none;stroke:#ff0000;stroke-linecap:square;stroke-width:5;"/>
   </g>
   <g id="patch_3">
    <path d="M 135 500.236364 
L 135 129.6 
" style="fill:none;stroke:#000000;stroke-linecap:square;stroke-linejoin:miter;stroke-width:0.8;"/>
   </g>
   <g id="patch_4">
    <path d="M 515.454545 500.236364 
L 515.454545 129.6 
" style="fill:none;stroke:#000000;stroke-linecap:square;stroke-linejoin:miter;stroke-width:0.8;"/>
   </g>
   <g id="patch_5">
    <path d="M 135 500.236364 
L 515.454545 500.236364 
" style="fill:none;stroke:#000000;stroke-linecap:square;stroke-linejoin:miter;stroke-width:0.8;"/>
   </g>
   <g id="patch_6">
    <path d="M 135 129.6 
L 515.454545 129.6 
" style="fill:none;stroke:#000000;stroke-linecap:square;stroke-linejoin:miter;stroke-width:0.8;"/>
   </g>
  </g>
  <g id="axes_2">
   <g id="patch_7">
    <path d="M 591.545455 500.236364 
L 972 500.236364 
L 972 129.6 
L 591.545455 129.6 
z
" style="fill:#ffffff;"/>
   </g>
   <g id="matplotlib.axis_3">
    <g id="xtick_4">
     <g id="line2d_12">
      <g>
       <use style="stroke:#000000;stroke-width:0.8;" x="595.868802" xlink:href="#mab117a2b10" y="500.236364"/>
      </g>
     </g>
    </g>
    <g id="xtick_5">
     <g id="line2d_13">
      <g>
       <use style="stroke:#000000;stroke-width:0.8;" x="781.772727" xlink:href="#mab117a2b10" y="500.236364"/>
      </g>
     </g>
    </g>
    <g id="xtick_6">
     <g id="line2d_14">
      <g>
       <use style="stroke:#000000;stroke-width:0.8;" x="967.676653" xlink:href="#mab117a2b10" y="500.236364"/>
      </g>
     </g>
    </g>
   </g>
   <g id="matplotlib.axis_4">
    <g id="ytick_7">
     <g id="line2d_15">
      <g>
       <use style="stroke:#000000;stroke-width:0.8;" x="591.545455" xlink:href="#m83a9b7f855" y="483.389328"/>
      </g>
     </g>
    </g>
    <g id="ytick_8">
     <g id="line2d_16">
      <g>
       <use style="stroke:#000000;stroke-width:0.8;" x="591.545455" xlink:href="#m83a9b7f855" y="416.000851"/>
      </g>
     </g>
    </g>
    <g id="ytick_9">
     <g id="line2d_17">
      <g>
       <use style="stroke:#000000;stroke-width:0.8;" x="591.545455" xlink:href="#m83a9b7f855" y="348.612375"/>
      </g>
     </g>
    </g>
    <g id="ytick_10">
     <g id="line2d_18">
      <g>
       <use style="stroke:#000000;stroke-width:0.8;" x="591.545455" xlink:href="#m83a9b7f855" y="281.223899"/>
      </g>
     </g>
    </g>
    <g id="ytick_11">
     <g id="line2d_19">
      <g>
       <use style="stroke:#000000;stroke-width:0.8;" x="591.545455" xlink:href="#m83a9b7f855" y="213.835423"/>
      </g>
     </g>
    </g>
    <g id="ytick_12">
     <g id="line2d_20">
      <g>
       <use style="stroke:#000000;stroke-width:0.8;" x="591.545455" xlink:href="#m83a9b7f855" y="146.446947"/>
      </g>
     </g>
    </g>
   </g>
   <g id="line2d_21">
    <path clip-path="url(#p7976d865c9)" d="M 608.838843 190.338238 
L 614.788959 193.170558 
L 620.462325 196.119951 
L 625.928129 199.217224 
L 631.117183 202.415504 
L 636.098675 205.746983 
L 640.872605 209.203997 
L 645.50816 212.832395 
L 650.005341 216.631925 
L 654.364146 220.600387 
L 658.722952 224.87415 
L 662.943383 229.326252 
L 667.094626 234.029227 
L 671.176682 238.987892 
L 675.258739 244.296967 
L 679.340795 249.973019 
L 683.492038 256.133395 
L 687.712469 262.801122 
L 692.071275 270.103901 
L 696.845205 278.541969 
L 702.864508 289.66624 
L 711.789681 306.169961 
L 715.041488 311.691721 
L 717.532235 315.512347 
L 719.607856 318.309458 
L 721.337541 320.29364 
L 722.859664 321.72181 
L 724.174224 322.674553 
L 725.35041 323.275592 
L 726.457408 323.59895 
L 727.495219 323.66695 
L 728.463842 323.506897 
L 729.432466 323.113829 
L 730.401089 322.470808 
L 731.369713 321.561395 
L 732.407524 320.273378 
L 733.514522 318.521818 
L 734.690708 316.212895 
L 735.936081 313.246182 
L 737.250641 309.519985 
L 738.703576 304.69506 
L 740.294886 298.600523 
L 742.162946 290.506505 
L 744.792067 277.991255 
L 747.905499 263.354401 
L 749.358434 257.518534 
L 750.465433 253.874896 
L 751.364869 251.582569 
L 752.12593 250.197561 
L 752.748617 249.489164 
L 753.232928 249.224894 
L 753.648053 249.209832 
L 754.063177 249.398629 
L 754.547489 249.886329 
L 755.100988 250.809063 
L 755.723674 252.328607 
L 756.415548 254.631277 
L 757.245797 258.263601 
L 758.145233 263.273233 
L 759.183044 270.419976 
L 760.35923 280.207956 
L 761.67379 293.081959 
L 763.2651 310.974261 
L 765.340722 337.052909 
L 772.121086 424.367724 
L 773.850771 442.739574 
L 775.303706 455.917904 
L 776.549079 465.343739 
L 777.656077 472.15113 
L 778.624701 476.83033 
L 779.45495 479.860194 
L 780.216011 481.825237 
L 780.838697 482.847751 
L 781.323009 483.276406 
L 781.738134 483.387726 
L 782.153258 483.262478 
L 782.568382 482.900869 
L 783.052694 482.181022 
L 783.675381 480.786412 
L 784.367254 478.623466 
L 785.197503 475.18852 
L 786.096939 470.457693 
L 787.13475 463.73953 
L 788.310936 454.577608 
L 789.625496 442.538901 
L 791.147619 426.499883 
L 793.015678 404.311836 
L 795.644799 370.098425 
L 799.86523 315.141641 
L 801.664102 294.631375 
L 803.117037 280.36572 
L 804.36241 270.117375 
L 805.469409 262.699755 
L 806.438032 257.577871 
L 807.337468 253.97955 
L 808.09853 251.796176 
L 808.721216 250.582134 
L 809.274715 249.920996 
L 809.759027 249.653036 
L 810.174151 249.645097 
L 810.658463 249.883108 
L 811.211962 250.463921 
L 811.834649 251.484738 
L 812.59571 253.212773 
L 813.495146 255.853117 
L 814.602144 259.837773 
L 816.05508 265.979261 
L 818.338264 276.767047 
L 821.936008 293.698105 
L 823.873255 301.702317 
L 825.533752 307.628945 
L 826.986687 312.034392 
L 828.370435 315.536374 
L 829.615808 318.117069 
L 830.791994 320.074392 
L 831.898992 321.51048 
L 832.936803 322.51862 
L 833.974614 323.219248 
L 834.943237 323.613678 
L 835.911861 323.774721 
L 836.880484 323.719232 
L 837.918295 323.438193 
L 839.025293 322.907587 
L 840.270667 322.053842 
L 841.654414 320.822628 
L 843.245724 319.088376 
L 845.044597 316.783351 
L 847.189406 313.650647 
L 849.749339 309.498265 
L 853.070334 303.660311 
L 858.328576 293.902223 
L 867.253749 277.356649 
L 872.235241 268.618801 
L 876.732422 261.172842 
L 881.02204 254.495611 
L 885.173283 248.43589 
L 889.324527 242.76548 
L 893.47577 237.470445 
L 897.627014 232.53253 
L 901.847445 227.856954 
L 906.137063 223.437495 
L 910.565056 219.202263 
L 914.993049 215.273629 
L 919.628604 211.462985 
L 924.333347 207.885092 
L 929.176464 204.48026 
L 934.227144 201.203264 
L 939.416198 198.100626 
L 944.882002 195.094368 
L 950.555368 192.229944 
L 954.706612 190.284107 
L 954.706612 190.284107 
" style="fill:none;stroke:#0000ff;stroke-linecap:square;stroke-width:5;"/>
   </g>
   <g id="line2d_22">
    <path clip-path="url(#p7976d865c9)" d="M 608.838843 439.499969 
L 614.719771 436.702308 
L 620.32395 433.793896 
L 625.720566 430.74449 
L 630.909621 427.557208 
L 635.891113 424.237351 
L 640.73423 420.740692 
L 645.438973 417.065095 
L 649.936153 413.270732 
L 654.364146 409.242404 
L 658.653765 405.039964 
L 662.874196 400.594188 
L 667.025439 395.898076 
L 671.176682 390.85989 
L 675.258739 385.552612 
L 679.340795 379.878815 
L 683.492038 373.721226 
L 687.712469 367.056968 
L 692.071275 359.758743 
L 696.914392 351.20189 
L 703.002882 339.954562 
L 711.651306 323.980132 
L 714.972301 318.339748 
L 717.463047 314.519933 
L 719.538669 311.72192 
L 721.337541 309.663807 
L 722.859664 308.247567 
L 724.174224 307.306301 
L 725.35041 306.716489 
L 726.457408 306.404659 
L 727.495219 306.348257 
L 728.463842 306.520029 
L 729.432466 306.925739 
L 730.401089 307.582195 
L 731.369713 308.506048 
L 732.407524 309.810855 
L 733.514522 311.58163 
L 734.690708 313.912786 
L 735.936081 316.90519 
L 737.250641 320.660819 
L 738.703576 325.521598 
L 740.294886 331.659294 
L 742.162946 339.809422 
L 744.792067 352.413405 
L 747.905499 367.168309 
L 749.427622 373.316021 
L 750.53462 376.953134 
L 751.434056 379.230908 
L 752.195118 380.597095 
L 752.817804 381.285621 
L 753.302116 381.531824 
L 753.71724 381.529739 
L 754.132364 381.322303 
L 754.616676 380.811044 
L 755.170175 379.859205 
L 755.792862 378.304559 
L 756.484736 375.960674 
L 757.314984 372.276415 
L 758.214421 367.208986 
L 759.252231 359.995944 
L 760.428417 350.13633 
L 761.742978 337.190667 
L 763.334288 319.229271 
L 765.409909 293.097655 
L 772.051899 207.505096 
L 773.781584 189.026444 
L 775.234519 175.740911 
L 776.479892 166.213267 
L 777.58689 159.309521 
L 778.555514 154.542631 
L 779.385762 151.435819 
L 780.146824 149.399135 
L 780.76951 148.317565 
L 781.253822 147.842952 
L 781.668946 147.692113 
L 782.084071 147.777908 
L 782.499195 148.100278 
L 782.983507 148.774536 
L 783.537006 149.936508 
L 784.22888 151.971321 
L 784.989941 154.947176 
L 785.889377 159.439285 
L 786.927188 165.892968 
L 788.103374 174.773608 
L 789.417934 186.525779 
L 790.940057 202.278033 
L 792.738929 223.340962 
L 795.229675 255.445199 
L 800.072792 318.389832 
L 801.871664 338.544692 
L 803.3246 352.442513 
L 804.569973 362.331963 
L 805.676971 369.407647 
L 806.645594 374.221516 
L 807.475843 377.317396 
L 808.236904 379.331976 
L 808.859591 380.410789 
L 809.41309 380.954917 
L 809.897402 381.123367 
L 810.312526 381.04879 
L 810.796838 380.717848 
L 811.350337 380.035498 
L 811.973024 378.907326 
L 812.734085 377.058333 
L 813.702708 374.054442 
L 814.878894 369.611625 
L 816.470204 362.618699 
L 819.445262 348.246319 
L 822.14357 335.684895 
L 824.01163 328.00581 
L 825.60294 322.340329 
L 827.055875 317.936458 
L 828.439623 314.438886 
L 829.684996 311.863732 
L 830.861181 309.912306 
L 831.96818 308.482076 
L 833.00599 307.479387 
L 834.043801 306.784031 
L 835.012425 306.394229 
L 835.981048 306.237499 
L 836.949672 306.296986 
L 837.987483 306.581778 
L 839.094481 307.115819 
L 840.339854 307.972771 
L 841.723602 309.20668 
L 843.314912 310.943084 
L 845.113784 313.249282 
L 847.258593 316.381896 
L 849.818527 320.532471 
L 853.139521 326.365639 
L 858.46695 336.242753 
L 867.253749 352.511317 
L 872.235241 361.242843 
L 876.732422 368.684354 
L 881.02204 375.358226 
L 885.242471 381.512923 
L 889.393714 387.174794 
L 893.544958 392.461921 
L 897.696201 397.392603 
L 901.916632 402.061401 
L 906.20625 406.474537 
L 910.565056 410.640227 
L 914.993049 414.568073 
L 919.559417 418.323296 
L 924.264159 421.904692 
L 929.107277 425.312854 
L 934.157956 428.593044 
L 939.347011 431.698676 
L 944.812815 434.707853 
L 950.486181 437.574946 
L 954.706612 439.554066 
L 954.706612 439.554066 
" style="fill:none;stroke:#ff0000;stroke-linecap:square;stroke-width:5;"/>
   </g>
   <g id="patch_8">
    <path d="M 591.545455 500.236364 
L 591.545455 129.6 
" style="fill:none;stroke:#000000;stroke-linecap:square;stroke-linejoin:miter;stroke-width:0.8;"/>
   </g>
   <g id="patch_9">
    <path d="M 972 500.236364 
L 972 129.6 
" style="fill:none;stroke:#000000;stroke-linecap:square;stroke-linejoin:miter;stroke-width:0.8;"/>
   </g>
   <g id="patch_10">
    <path d="M 591.545455 500.236364 
L 972 500.236364 
" style="fill:none;stroke:#000000;stroke-linecap:square;stroke-linejoin:miter;stroke-width:0.8;"/>
   </g>
   <g id="patch_11">
    <path d="M 591.545455 129.6 
L 972 129.6 
" style="fill:none;stroke:#000000;stroke-linecap:square;stroke-linejoin:miter;stroke-width:0.8;"/>
   </g>
  </g>
  <g id="axes_3">
   <g id="patch_12">
    <path d="M 135 945 
L 515.454545 945 
L 515.454545 574.363636 
L 135 574.363636 
z
" style="fill:#ffffff;"/>
   </g>
   <g id="matplotlib.axis_5">
    <g id="xtick_7">
     <g id="line2d_23">
      <g>
       <use style="stroke:#000000;stroke-width:0.8;" x="139.323347" xlink:href="#mab117a2b10" y="945"/>
      </g>
     </g>
     <g id="text_7">
      <!-- −2 -->
      <g transform="translate(117.210066 974.795312)scale(0.3 -0.3)">
       <defs>
        <path d="M 10.59375 35.5 
L 73.1875 35.5 
L 73.1875 27.203125 
L 10.59375 27.203125 
z
" id="DejaVuSans-8722"/>
       </defs>
       <use xlink:href="#DejaVuSans-8722"/>
       <use x="83.789062" xlink:href="#DejaVuSans-50"/>
      </g>
     </g>
    </g>
    <g id="xtick_8">
     <g id="line2d_24">
      <g>
       <use style="stroke:#000000;stroke-width:0.8;" x="325.227273" xlink:href="#mab117a2b10" y="945"/>
      </g>
     </g>
     <g id="text_8">
      <!-- 0 -->
      <g transform="translate(315.683523 974.795312)scale(0.3 -0.3)">
       <use xlink:href="#DejaVuSans-48"/>
      </g>
     </g>
    </g>
    <g id="xtick_9">
     <g id="line2d_25">
      <g>
       <use style="stroke:#000000;stroke-width:0.8;" x="511.131198" xlink:href="#mab117a2b10" y="945"/>
      </g>
     </g>
     <g id="text_9">
      <!-- 2 -->
      <g transform="translate(501.587448 974.795312)scale(0.3 -0.3)">
       <use xlink:href="#DejaVuSans-50"/>
      </g>
     </g>
    </g>
   </g>
   <g id="matplotlib.axis_6">
    <g id="ytick_13">
     <g id="line2d_26">
      <g>
       <use style="stroke:#000000;stroke-width:0.8;" x="135" xlink:href="#m83a9b7f855" y="928.152964"/>
      </g>
     </g>
     <g id="text_10">
      <!-- 0.0 -->
      <g transform="translate(80.290625 939.55062)scale(0.3 -0.3)">
       <use xlink:href="#DejaVuSans-48"/>
       <use x="63.623047" xlink:href="#DejaVuSans-46"/>
       <use x="95.410156" xlink:href="#DejaVuSans-48"/>
      </g>
     </g>
    </g>
    <g id="ytick_14">
     <g id="line2d_27">
      <g>
       <use style="stroke:#000000;stroke-width:0.8;" x="135" xlink:href="#m83a9b7f855" y="860.764488"/>
      </g>
     </g>
     <g id="text_11">
      <!-- 0.2 -->
      <g transform="translate(80.290625 872.162144)scale(0.3 -0.3)">
       <use xlink:href="#DejaVuSans-48"/>
       <use x="63.623047" xlink:href="#DejaVuSans-46"/>
       <use x="95.410156" xlink:href="#DejaVuSans-50"/>
      </g>
     </g>
    </g>
    <g id="ytick_15">
     <g id="line2d_28">
      <g>
       <use style="stroke:#000000;stroke-width:0.8;" x="135" xlink:href="#m83a9b7f855" y="793.376012"/>
      </g>
     </g>
     <g id="text_12">
      <!-- 0.4 -->
      <g transform="translate(80.290625 804.773668)scale(0.3 -0.3)">
       <use xlink:href="#DejaVuSans-48"/>
       <use x="63.623047" xlink:href="#DejaVuSans-46"/>
       <use x="95.410156" xlink:href="#DejaVuSans-52"/>
      </g>
     </g>
    </g>
    <g id="ytick_16">
     <g id="line2d_29">
      <g>
       <use style="stroke:#000000;stroke-width:0.8;" x="135" xlink:href="#m83a9b7f855" y="725.987535"/>
      </g>
     </g>
     <g id="text_13">
      <!-- 0.6 -->
      <g transform="translate(80.290625 737.385192)scale(0.3 -0.3)">
       <use xlink:href="#DejaVuSans-48"/>
       <use x="63.623047" xlink:href="#DejaVuSans-46"/>
       <use x="95.410156" xlink:href="#DejaVuSans-54"/>
      </g>
     </g>
    </g>
    <g id="ytick_17">
     <g id="line2d_30">
      <g>
       <use style="stroke:#000000;stroke-width:0.8;" x="135" xlink:href="#m83a9b7f855" y="658.599059"/>
      </g>
     </g>
     <g id="text_14">
      <!-- 0.8 -->
      <g transform="translate(80.290625 669.996716)scale(0.3 -0.3)">
       <use xlink:href="#DejaVuSans-48"/>
       <use x="63.623047" xlink:href="#DejaVuSans-46"/>
       <use x="95.410156" xlink:href="#DejaVuSans-56"/>
      </g>
     </g>
    </g>
    <g id="ytick_18">
     <g id="line2d_31">
      <g>
       <use style="stroke:#000000;stroke-width:0.8;" x="135" xlink:href="#m83a9b7f855" y="591.210583"/>
      </g>
     </g>
     <g id="text_15">
      <!-- 1.0 -->
      <g transform="translate(80.290625 602.608239)scale(0.3 -0.3)">
       <use xlink:href="#DejaVuSans-49"/>
       <use x="63.623047" xlink:href="#DejaVuSans-46"/>
       <use x="95.410156" xlink:href="#DejaVuSans-48"/>
      </g>
     </g>
    </g>
   </g>
   <g id="line2d_32">
    <path clip-path="url(#pf24366ffe5)" d="M 152.293388 635.101875 
L 158.243504 637.934194 
L 163.91687 640.883587 
L 169.382674 643.98086 
L 174.571728 647.17914 
L 179.553221 650.51062 
L 184.327151 653.967633 
L 188.962706 657.596031 
L 193.459886 661.395561 
L 197.818692 665.364024 
L 202.177497 669.637787 
L 206.397928 674.089889 
L 210.549172 678.792863 
L 214.631228 683.751528 
L 218.713284 689.060604 
L 222.79534 694.736655 
L 226.946584 700.897031 
L 231.167014 707.564758 
L 235.52582 714.867538 
L 240.29975 723.305605 
L 246.319053 734.429877 
L 255.244227 750.933597 
L 258.496034 756.455357 
L 260.98678 760.275984 
L 263.062402 763.073094 
L 264.792087 765.057277 
L 266.314209 766.485446 
L 267.62877 767.43819 
L 268.804955 768.039229 
L 269.911953 768.362586 
L 270.949764 768.430586 
L 271.918388 768.270533 
L 272.887011 767.877466 
L 273.855635 767.234445 
L 274.824258 766.325032 
L 275.862069 765.037014 
L 276.969067 763.285454 
L 278.145253 760.976531 
L 279.390626 758.009819 
L 280.705186 754.283621 
L 282.158122 749.458696 
L 283.749432 743.364159 
L 285.617491 735.270141 
L 288.246612 722.754892 
L 291.360045 708.118037 
L 292.81298 702.28217 
L 293.919978 698.638532 
L 294.819414 696.346205 
L 295.580476 694.961198 
L 296.203162 694.252801 
L 296.687474 693.98853 
L 297.102598 693.973469 
L 297.517723 694.162265 
L 298.002034 694.649965 
L 298.555533 695.572699 
L 299.17822 697.092243 
L 299.870094 699.394914 
L 300.700343 703.027238 
L 301.599779 708.036869 
L 302.63759 715.183612 
L 303.813775 724.971593 
L 305.128336 737.845596 
L 306.719646 755.737897 
L 308.795267 781.816545 
L 315.575632 869.13136 
L 317.305316 887.50321 
L 318.758252 900.68154 
L 320.003625 910.107375 
L 321.110623 916.914766 
L 322.079246 921.593966 
L 322.909495 924.623831 
L 323.670556 926.588874 
L 324.293243 927.611387 
L 324.777555 928.040043 
L 325.192679 928.151362 
L 325.607803 928.026114 
L 326.022928 927.664505 
L 326.507239 926.944659 
L 327.129926 925.550049 
L 327.8218 923.387102 
L 328.652049 919.952156 
L 329.551485 915.22133 
L 330.589296 908.503167 
L 331.765481 899.341244 
L 333.080042 887.302537 
L 334.602164 871.26352 
L 336.470224 849.075472 
L 339.099345 814.862062 
L 343.319776 759.905277 
L 345.118648 739.395011 
L 346.571583 725.129357 
L 347.816956 714.881011 
L 348.923954 707.463391 
L 349.892578 702.341507 
L 350.792014 698.743186 
L 351.553075 696.559812 
L 352.175762 695.345771 
L 352.729261 694.684633 
L 353.213572 694.416672 
L 353.628697 694.408733 
L 354.113009 694.646745 
L 354.666508 695.227557 
L 355.289194 696.248375 
L 356.050256 697.976409 
L 356.949692 700.616753 
L 358.05669 704.60141 
L 359.509625 710.742897 
L 361.792809 721.530684 
L 365.390553 738.461742 
L 367.3278 746.465954 
L 368.988298 752.392581 
L 370.441233 756.798028 
L 371.824981 760.300011 
L 373.070354 762.880705 
L 374.246539 764.838028 
L 375.353538 766.274117 
L 376.391349 767.282256 
L 377.429159 767.982885 
L 378.397783 768.377314 
L 379.366406 768.538357 
L 380.33503 768.482869 
L 381.372841 768.201829 
L 382.479839 767.671223 
L 383.725212 766.817478 
L 385.10896 765.586265 
L 386.70027 763.852012 
L 388.499142 761.546987 
L 390.643951 758.414283 
L 393.203885 754.261901 
L 396.524879 748.423947 
L 401.783121 738.665859 
L 410.708295 722.120285 
L 415.689787 713.382438 
L 420.186967 705.936478 
L 424.476585 699.259247 
L 428.627829 693.199527 
L 432.779072 687.529116 
L 436.930316 682.234081 
L 441.081559 677.296167 
L 445.30199 672.62059 
L 449.591608 668.201131 
L 454.019601 663.9659 
L 458.447594 660.037265 
L 463.08315 656.226621 
L 467.787892 652.648728 
L 472.63101 649.243896 
L 477.681689 645.9669 
L 482.870744 642.864262 
L 488.336547 639.858005 
L 494.009914 636.99358 
L 498.161157 635.047743 
L 498.161157 635.047743 
" style="fill:none;stroke:#0000ff;stroke-linecap:square;stroke-width:5;"/>
   </g>
   <g id="line2d_33">
    <path clip-path="url(#pf24366ffe5)" d="M 152.293388 884.263605 
L 158.174317 881.465945 
L 163.778495 878.557532 
L 169.175112 875.508126 
L 174.364166 872.320844 
L 179.345658 869.000987 
L 184.188776 865.504329 
L 188.893518 861.828732 
L 193.390699 858.034368 
L 197.818692 854.00604 
L 202.10831 849.8036 
L 206.328741 845.357824 
L 210.479984 840.661713 
L 214.631228 835.623526 
L 218.713284 830.316248 
L 222.79534 824.642451 
L 226.946584 818.484862 
L 231.167014 811.820605 
L 235.52582 804.522379 
L 240.368937 795.965526 
L 246.457428 784.718199 
L 255.105852 768.743768 
L 258.426847 763.103384 
L 260.917593 759.283569 
L 262.993214 756.485556 
L 264.792087 754.427443 
L 266.314209 753.011203 
L 267.62877 752.069937 
L 268.804955 751.480125 
L 269.911953 751.168295 
L 270.949764 751.111894 
L 271.918388 751.283665 
L 272.887011 751.689375 
L 273.855635 752.345832 
L 274.824258 753.269685 
L 275.862069 754.574492 
L 276.969067 756.345266 
L 278.145253 758.676422 
L 279.390626 761.668826 
L 280.705186 765.424456 
L 282.158122 770.285234 
L 283.749432 776.42293 
L 285.617491 784.573059 
L 288.246612 797.177041 
L 291.360045 811.931946 
L 292.882167 818.079657 
L 293.989166 821.71677 
L 294.888602 823.994545 
L 295.649663 825.360731 
L 296.27235 826.049257 
L 296.756661 826.29546 
L 297.171786 826.293376 
L 297.58691 826.085939 
L 298.071222 825.57468 
L 298.624721 824.622842 
L 299.247407 823.068196 
L 299.939281 820.724311 
L 300.76953 817.040051 
L 301.668966 811.972622 
L 302.706777 804.75958 
L 303.882963 794.899967 
L 305.197523 781.954303 
L 306.788833 763.992907 
L 308.864455 737.861292 
L 315.506444 652.268732 
L 317.236129 633.79008 
L 318.689064 620.504548 
L 319.934437 610.976903 
L 321.041436 604.073157 
L 322.010059 599.306267 
L 322.840308 596.199456 
L 323.601369 594.162771 
L 324.224056 593.081201 
L 324.708367 592.606588 
L 325.123492 592.455749 
L 325.538616 592.541545 
L 325.95374 592.863914 
L 326.438052 593.538172 
L 326.991551 594.700144 
L 327.683425 596.734958 
L 328.444486 599.710812 
L 329.343923 604.202921 
L 330.381733 610.656605 
L 331.557919 619.537244 
L 332.872479 631.289415 
L 334.394602 647.041669 
L 336.193474 668.104598 
L 338.68422 700.208836 
L 343.527338 763.153469 
L 345.32621 783.308329 
L 346.779145 797.206149 
L 348.024518 807.0956 
L 349.131516 814.171284 
L 350.10014 818.985153 
L 350.930389 822.081032 
L 351.69145 824.095613 
L 352.314136 825.174426 
L 352.867636 825.718553 
L 353.351947 825.887004 
L 353.767072 825.812426 
L 354.251383 825.481484 
L 354.804882 824.799134 
L 355.427569 823.670962 
L 356.18863 821.821969 
L 357.157254 818.818079 
L 358.333439 814.375261 
L 359.924749 807.382336 
L 362.899807 793.009956 
L 365.598115 780.448532 
L 367.466175 772.769446 
L 369.057485 767.103965 
L 370.51042 762.700095 
L 371.894168 759.202522 
L 373.139541 756.627368 
L 374.315727 754.675942 
L 375.422725 753.245712 
L 376.460536 752.243024 
L 377.498347 751.547667 
L 378.46697 751.157865 
L 379.435594 751.001136 
L 380.404217 751.060622 
L 381.442028 751.345414 
L 382.549026 751.879455 
L 383.794399 752.736407 
L 385.178147 753.970317 
L 386.769457 755.706721 
L 388.568329 758.012919 
L 390.713138 761.145532 
L 393.273072 765.296107 
L 396.594067 771.129275 
L 401.921496 781.00639 
L 410.708295 797.274953 
L 415.689787 806.00648 
L 420.186967 813.447991 
L 424.476585 820.121863 
L 428.697016 826.276559 
L 432.84826 831.93843 
L 436.999503 837.225557 
L 441.150747 842.156239 
L 445.371178 846.825037 
L 449.660796 851.238173 
L 454.019601 855.403863 
L 458.447594 859.331709 
L 463.013962 863.086933 
L 467.718705 866.668329 
L 472.561822 870.076491 
L 477.612502 873.35668 
L 482.801556 876.462312 
L 488.26736 879.47149 
L 493.940726 882.338582 
L 498.161157 884.317702 
L 498.161157 884.317702 
" style="fill:none;stroke:#ff0000;stroke-linecap:square;stroke-width:5;"/>
   </g>
   <g id="patch_13">
    <path d="M 135 945 
L 135 574.363636 
" style="fill:none;stroke:#000000;stroke-linecap:square;stroke-linejoin:miter;stroke-width:0.8;"/>
   </g>
   <g id="patch_14">
    <path d="M 515.454545 945 
L 515.454545 574.363636 
" style="fill:none;stroke:#000000;stroke-linecap:square;stroke-linejoin:miter;stroke-width:0.8;"/>
   </g>
   <g id="patch_15">
    <path d="M 135 945 
L 515.454545 945 
" style="fill:none;stroke:#000000;stroke-linecap:square;stroke-linejoin:miter;stroke-width:0.8;"/>
   </g>
   <g id="patch_16">
    <path d="M 135 574.363636 
L 515.454545 574.363636 
" style="fill:none;stroke:#000000;stroke-linecap:square;stroke-linejoin:miter;stroke-width:0.8;"/>
   </g>
  </g>
  <g id="axes_4">
   <g id="patch_17">
    <path d="M 591.545455 945 
L 972 945 
L 972 574.363636 
L 591.545455 574.363636 
z
" style="fill:#ffffff;"/>
   </g>
   <g id="matplotlib.axis_7">
    <g id="xtick_10">
     <g id="line2d_34">
      <g>
       <use style="stroke:#000000;stroke-width:0.8;" x="595.868802" xlink:href="#mab117a2b10" y="945"/>
      </g>
     </g>
     <g id="text_16">
      <!-- −2 -->
      <g transform="translate(573.75552 974.795312)scale(0.3 -0.3)">
       <use xlink:href="#DejaVuSans-8722"/>
       <use x="83.789062" xlink:href="#DejaVuSans-50"/>
      </g>
     </g>
    </g>
    <g id="xtick_11">
     <g id="line2d_35">
      <g>
       <use style="stroke:#000000;stroke-width:0.8;" x="781.772727" xlink:href="#mab117a2b10" y="945"/>
      </g>
     </g>
     <g id="text_17">
      <!-- 0 -->
      <g transform="translate(772.228977 974.795312)scale(0.3 -0.3)">
       <use xlink:href="#DejaVuSans-48"/>
      </g>
     </g>
    </g>
    <g id="xtick_12">
     <g id="line2d_36">
      <g>
       <use style="stroke:#000000;stroke-width:0.8;" x="967.676653" xlink:href="#mab117a2b10" y="945"/>
      </g>
     </g>
     <g id="text_18">
      <!-- 2 -->
      <g transform="translate(958.132903 974.795312)scale(0.3 -0.3)">
       <use xlink:href="#DejaVuSans-50"/>
      </g>
     </g>
    </g>
   </g>
   <g id="matplotlib.axis_8">
    <g id="ytick_19">
     <g id="line2d_37">
      <g>
       <use style="stroke:#000000;stroke-width:0.8;" x="591.545455" xlink:href="#m83a9b7f855" y="928.152964"/>
      </g>
     </g>
    </g>
    <g id="ytick_20">
     <g id="line2d_38">
      <g>
       <use style="stroke:#000000;stroke-width:0.8;" x="591.545455" xlink:href="#m83a9b7f855" y="860.764488"/>
      </g>
     </g>
    </g>
    <g id="ytick_21">
     <g id="line2d_39">
      <g>
       <use style="stroke:#000000;stroke-width:0.8;" x="591.545455" xlink:href="#m83a9b7f855" y="793.376012"/>
      </g>
     </g>
    </g>
    <g id="ytick_22">
     <g id="line2d_40">
      <g>
       <use style="stroke:#000000;stroke-width:0.8;" x="591.545455" xlink:href="#m83a9b7f855" y="725.987535"/>
      </g>
     </g>
    </g>
    <g id="ytick_23">
     <g id="line2d_41">
      <g>
       <use style="stroke:#000000;stroke-width:0.8;" x="591.545455" xlink:href="#m83a9b7f855" y="658.599059"/>
      </g>
     </g>
    </g>
    <g id="ytick_24">
     <g id="line2d_42">
      <g>
       <use style="stroke:#000000;stroke-width:0.8;" x="591.545455" xlink:href="#m83a9b7f855" y="591.210583"/>
      </g>
     </g>
    </g>
   </g>
   <g id="line2d_43">
    <path clip-path="url(#pa5f80e5d2b)" d="M 608.838843 633.598609 
L 615.204083 636.425329 
L 621.223386 639.34758 
L 626.827565 642.309907 
L 632.293369 645.44737 
L 637.482423 648.675184 
L 642.671477 652.169445 
L 647.652969 655.797535 
L 652.426899 659.548034 
L 657.062455 663.466914 
L 661.628822 667.614445 
L 666.126003 671.996767 
L 670.623183 676.693004 
L 675.051176 681.639705 
L 679.479169 686.919873 
L 683.97635 692.632352 
L 688.611905 698.890492 
L 693.385835 705.714996 
L 698.574889 713.528095 
L 705.009317 723.65054 
L 716.494424 741.794835 
L 720.161355 747.111207 
L 722.998038 750.851702 
L 725.419597 753.686491 
L 727.495219 755.781652 
L 729.294091 757.295424 
L 730.885401 758.362137 
L 732.338336 759.082403 
L 733.652897 759.501548 
L 734.89827 759.674752 
L 736.074455 759.620898 
L 737.250641 759.338944 
L 738.357639 758.850258 
L 739.533825 758.07755 
L 740.710011 757.027122 
L 741.886196 755.68201 
L 743.131569 753.918444 
L 744.44613 751.657876 
L 745.829878 748.813589 
L 747.282813 745.291247 
L 748.804935 740.990647 
L 750.396245 735.808383 
L 752.12593 729.369505 
L 753.924802 721.787494 
L 755.862049 712.645762 
L 758.006858 701.431744 
L 760.497604 687.181143 
L 763.818599 666.776228 
L 769.561153 631.391495 
L 771.775149 619.226967 
L 773.574021 610.528456 
L 775.096144 604.217749 
L 776.410704 599.663923 
L 777.58689 596.365412 
L 778.624701 594.104388 
L 779.524137 592.65936 
L 780.285198 591.819802 
L 780.977072 591.366434 
L 781.599759 591.212792 
L 782.222445 591.300986 
L 782.845132 591.630505 
L 783.537006 592.277923 
L 784.298067 593.328101 
L 785.128316 594.869881 
L 786.096939 597.175442 
L 787.203937 600.450141 
L 788.449311 604.897914 
L 789.833058 610.703161 
L 791.424368 618.36106 
L 793.361615 628.838141 
L 795.852361 643.622687 
L 805.400221 701.644603 
L 807.683405 713.522846 
L 809.759027 723.182326 
L 811.627087 730.874795 
L 813.425959 737.359265 
L 815.086456 742.540616 
L 816.677766 746.79508 
L 818.199889 750.234347 
L 819.652824 752.966295 
L 821.036572 755.092319 
L 822.351132 756.705064 
L 823.596505 757.88813 
L 824.772691 758.715614 
L 825.948877 759.278849 
L 827.125062 759.594868 
L 828.301248 759.680419 
L 829.546621 759.538211 
L 830.861181 759.148977 
L 832.244929 758.497366 
L 833.767052 757.522281 
L 835.427549 756.184482 
L 837.295609 754.382152 
L 839.440418 751.984337 
L 841.861977 748.93344 
L 844.767847 744.902739 
L 848.434779 739.416615 
L 853.900583 730.794185 
L 865.247315 712.829859 
L 870.643931 704.747232 
L 875.556236 697.784007 
L 880.260979 691.500634 
L 884.827346 685.772583 
L 889.324527 680.485246 
L 893.821707 675.539104 
L 898.318888 670.919625 
L 902.885256 666.545696 
L 907.520811 662.412032 
L 912.294741 658.456226 
L 917.068671 654.783859 
L 922.11935 651.183564 
L 927.308405 647.764703 
L 932.705021 644.48448 
L 938.101638 641.459926 
L 943.844191 638.496425 
L 949.794307 635.676703 
L 954.706612 633.523473 
L 954.706612 633.523473 
" style="fill:none;stroke:#0000ff;stroke-linecap:square;stroke-width:5;"/>
   </g>
   <g id="line2d_44">
    <path clip-path="url(#pa5f80e5d2b)" d="M 608.838843 885.764933 
L 615.065708 883.002423 
L 621.015824 880.121106 
L 626.758377 877.091706 
L 632.224181 873.957572 
L 637.482423 870.688313 
L 642.533102 867.290944 
L 647.514595 863.670614 
L 652.357712 859.871895 
L 657.062455 855.896643 
L 661.628822 851.749172 
L 666.126003 847.36674 
L 670.553996 842.745269 
L 674.981989 837.803652 
L 679.409982 832.528792 
L 683.907162 826.821756 
L 688.47353 820.665208 
L 693.24746 813.851537 
L 698.436515 806.048479 
L 704.732567 796.154941 
L 716.632798 777.360633 
L 720.230543 772.156618 
L 723.067226 768.425729 
L 725.488785 765.601872 
L 727.564406 763.518163 
L 729.363278 762.016148 
L 730.954588 760.961417 
L 732.407524 760.253381 
L 733.722084 759.84647 
L 734.967457 759.68593 
L 736.143643 759.752789 
L 737.319828 760.048645 
L 738.426827 760.551353 
L 739.603012 761.339908 
L 740.779198 762.407216 
L 742.024571 763.859855 
L 743.269944 765.66341 
L 744.584505 767.968273 
L 745.968252 770.861388 
L 747.421188 774.437096 
L 748.94331 778.795501 
L 750.53462 784.039309 
L 752.264305 790.545403 
L 754.063177 798.196073 
L 756.069611 807.754708 
L 758.283608 819.455058 
L 760.843541 834.247444 
L 764.441286 856.505483 
L 769.353591 886.766615 
L 771.636774 899.418831 
L 773.435647 908.210748 
L 774.957769 914.616271 
L 776.27233 919.262192 
L 777.448515 922.649978 
L 778.486326 924.993986 
L 779.385762 926.51367 
L 780.146824 927.417603 
L 780.838697 927.930235 
L 781.461384 928.137498 
L 782.084071 928.103077 
L 782.706757 927.827118 
L 783.329444 927.310808 
L 784.021317 926.457966 
L 784.851566 925.052957 
L 785.751002 923.072945 
L 786.788813 920.218988 
L 787.964999 916.287391 
L 789.279559 911.085002 
L 790.801682 904.113245 
L 792.600554 894.772358 
L 794.814551 882.038063 
L 798.204733 861.056731 
L 803.3246 829.50043 
L 805.95372 814.7272 
L 808.167717 803.485416 
L 810.174151 794.388188 
L 812.042211 786.911545 
L 813.771896 780.861485 
L 815.432393 775.839514 
L 817.023703 771.733513 
L 818.476638 768.568089 
L 819.860386 766.049271 
L 821.174947 764.083156 
L 822.489507 762.510787 
L 823.73488 761.3638 
L 824.911066 760.568301 
L 826.087251 760.035018 
L 827.263437 759.746995 
L 828.439623 759.68744 
L 829.684996 759.855097 
L 830.999556 760.268927 
L 832.383304 760.944063 
L 833.905427 761.942302 
L 835.565924 763.302306 
L 837.433983 765.126103 
L 839.578793 767.5445 
L 842.069539 770.70593 
L 845.044597 774.861485 
L 848.780716 780.480836 
L 854.592457 789.677637 
L 865.039753 806.214806 
L 870.505556 814.414495 
L 875.417861 821.38893 
L 880.122604 827.683624 
L 884.688972 833.42273 
L 889.186152 838.720769 
L 893.683333 843.677213 
L 898.180513 848.306479 
L 902.746881 852.689804 
L 907.382436 856.832344 
L 912.087179 860.741382 
L 916.930296 864.476961 
L 921.842601 867.989905 
L 926.962468 871.37921 
L 932.289897 874.636143 
L 937.824888 877.754356 
L 943.567442 880.729955 
L 949.517557 883.560964 
L 954.706612 885.840074 
L 954.706612 885.840074 
" style="fill:none;stroke:#ff0000;stroke-linecap:square;stroke-width:5;"/>
   </g>
   <g id="patch_18">
    <path d="M 591.545455 945 
L 591.545455 574.363636 
" style="fill:none;stroke:#000000;stroke-linecap:square;stroke-linejoin:miter;stroke-width:0.8;"/>
   </g>
   <g id="patch_19">
    <path d="M 972 945 
L 972 574.363636 
" style="fill:none;stroke:#000000;stroke-linecap:square;stroke-linejoin:miter;stroke-width:0.8;"/>
   </g>
   <g id="patch_20">
    <path d="M 591.545455 945 
L 972 945 
" style="fill:none;stroke:#000000;stroke-linecap:square;stroke-linejoin:miter;stroke-width:0.8;"/>
   </g>
   <g id="patch_21">
    <path d="M 591.545455 574.363636 
L 972 574.363636 
" style="fill:none;stroke:#000000;stroke-linecap:square;stroke-linejoin:miter;stroke-width:0.8;"/>
   </g>
   <g id="legend_1">
    <g id="patch_22">
     <path d="M 689.736009 930 
L 873.809446 930 
Q 879.809446 930 879.809446 924 
L 879.809446 838.93125 
Q 879.809446 832.93125 873.809446 832.93125 
L 689.736009 832.93125 
Q 683.736009 832.93125 683.736009 838.93125 
L 683.736009 924 
Q 683.736009 930 689.736009 930 
z
" style="fill:#ffffff;opacity:0.8;stroke:#cccccc;stroke-linejoin:miter;"/>
    </g>
    <g id="line2d_45">
     <path d="M 695.736009 857.226562 
L 755.736009 857.226562 
" style="fill:none;stroke:#0000ff;stroke-linecap:square;stroke-width:5;"/>
    </g>
    <g id="line2d_46"/>
    <g id="text_19">
     <!-- Port 1 -->
     <g transform="translate(779.736009 867.726562)scale(0.3 -0.3)">
      <defs>
       <path d="M 19.671875 64.796875 
L 19.671875 37.40625 
L 32.078125 37.40625 
Q 38.96875 37.40625 42.71875 40.96875 
Q 46.484375 44.53125 46.484375 51.125 
Q 46.484375 57.671875 42.71875 61.234375 
Q 38.96875 64.796875 32.078125 64.796875 
z
M 9.8125 72.90625 
L 32.078125 72.90625 
Q 44.34375 72.90625 50.609375 67.359375 
Q 56.890625 61.8125 56.890625 51.125 
Q 56.890625 40.328125 50.609375 34.8125 
Q 44.34375 29.296875 32.078125 29.296875 
L 19.671875 29.296875 
L 19.671875 0 
L 9.8125 0 
z
" id="DejaVuSans-80"/>
       <path d="M 30.609375 48.390625 
Q 23.390625 48.390625 19.1875 42.75 
Q 14.984375 37.109375 14.984375 27.296875 
Q 14.984375 17.484375 19.15625 11.84375 
Q 23.34375 6.203125 30.609375 6.203125 
Q 37.796875 6.203125 41.984375 11.859375 
Q 46.1875 17.53125 46.1875 27.296875 
Q 46.1875 37.015625 41.984375 42.703125 
Q 37.796875 48.390625 30.609375 48.390625 
z
M 30.609375 56 
Q 42.328125 56 49.015625 48.375 
Q 55.71875 40.765625 55.71875 27.296875 
Q 55.71875 13.875 49.015625 6.21875 
Q 42.328125 -1.421875 30.609375 -1.421875 
Q 18.84375 -1.421875 12.171875 6.21875 
Q 5.515625 13.875 5.515625 27.296875 
Q 5.515625 40.765625 12.171875 48.375 
Q 18.84375 56 30.609375 56 
z
" id="DejaVuSans-111"/>
       <path d="M 41.109375 46.296875 
Q 39.59375 47.171875 37.8125 47.578125 
Q 36.03125 48 33.890625 48 
Q 26.265625 48 22.1875 43.046875 
Q 18.109375 38.09375 18.109375 28.8125 
L 18.109375 0 
L 9.078125 0 
L 9.078125 54.6875 
L 18.109375 54.6875 
L 18.109375 46.1875 
Q 20.953125 51.171875 25.484375 53.578125 
Q 30.03125 56 36.53125 56 
Q 37.453125 56 38.578125 55.875 
Q 39.703125 55.765625 41.0625 55.515625 
z
" id="DejaVuSans-114"/>
       <path d="M 18.3125 70.21875 
L 18.3125 54.6875 
L 36.8125 54.6875 
L 36.8125 47.703125 
L 18.3125 47.703125 
L 18.3125 18.015625 
Q 18.3125 11.328125 20.140625 9.421875 
Q 21.96875 7.515625 27.59375 7.515625 
L 36.8125 7.515625 
L 36.8125 0 
L 27.59375 0 
Q 17.1875 0 13.234375 3.875 
Q 9.28125 7.765625 9.28125 18.015625 
L 9.28125 47.703125 
L 2.6875 47.703125 
L 2.6875 54.6875 
L 9.28125 54.6875 
L 9.28125 70.21875 
z
" id="DejaVuSans-116"/>
       <path id="DejaVuSans-32"/>
      </defs>
      <use xlink:href="#DejaVuSans-80"/>
      <use x="56.677734" xlink:href="#DejaVuSans-111"/>
      <use x="117.859375" xlink:href="#DejaVuSans-114"/>
      <use x="158.972656" xlink:href="#DejaVuSans-116"/>
      <use x="198.181641" xlink:href="#DejaVuSans-32"/>
      <use x="229.96875" xlink:href="#DejaVuSans-49"/>
     </g>
    </g>
    <g id="line2d_47">
     <path d="M 695.736009 901.260937 
L 755.736009 901.260937 
" style="fill:none;stroke:#ff0000;stroke-linecap:square;stroke-width:5;"/>
    </g>
    <g id="line2d_48"/>
    <g id="text_20">
     <!-- Port 2 -->
     <g transform="translate(779.736009 911.760937)scale(0.3 -0.3)">
      <use xlink:href="#DejaVuSans-80"/>
      <use x="56.677734" xlink:href="#DejaVuSans-111"/>
      <use x="117.859375" xlink:href="#DejaVuSans-114"/>
      <use x="158.972656" xlink:href="#DejaVuSans-116"/>
      <use x="198.181641" xlink:href="#DejaVuSans-32"/>
      <use x="229.96875" xlink:href="#DejaVuSans-50"/>
     </g>
    </g>
   </g>
  </g>
  <g id="axes_5">
   <g id="matplotlib.axis_9">
    <g id="xtick_13">
     <g id="text_21">
      <!-- 0.0 -->
      <g style="opacity:0;" transform="translate(111.145313 974.795313)scale(0.3 -0.3)">
       <use xlink:href="#DejaVuSans-48"/>
       <use x="63.623047" xlink:href="#DejaVuSans-46"/>
       <use x="95.410156" xlink:href="#DejaVuSans-48"/>
      </g>
     </g>
    </g>
    <g id="xtick_14">
     <g id="text_22">
      <!-- 0.2 -->
      <g style="opacity:0;" transform="translate(278.545312 974.795313)scale(0.3 -0.3)">
       <use xlink:href="#DejaVuSans-48"/>
       <use x="63.623047" xlink:href="#DejaVuSans-46"/>
       <use x="95.410156" xlink:href="#DejaVuSans-50"/>
      </g>
     </g>
    </g>
    <g id="xtick_15">
     <g id="text_23">
      <!-- 0.4 -->
      <g style="opacity:0;" transform="translate(445.945312 974.795313)scale(0.3 -0.3)">
       <use xlink:href="#DejaVuSans-48"/>
       <use x="63.623047" xlink:href="#DejaVuSans-46"/>
       <use x="95.410156" xlink:href="#DejaVuSans-52"/>
      </g>
     </g>
    </g>
    <g id="xtick_16">
     <g id="text_24">
      <!-- 0.6 -->
      <g style="opacity:0;" transform="translate(613.345313 974.795313)scale(0.3 -0.3)">
       <use xlink:href="#DejaVuSans-48"/>
       <use x="63.623047" xlink:href="#DejaVuSans-46"/>
       <use x="95.410156" xlink:href="#DejaVuSans-54"/>
      </g>
     </g>
    </g>
    <g id="xtick_17">
     <g id="text_25">
      <!-- 0.8 -->
      <g style="opacity:0;" transform="translate(780.745313 974.795313)scale(0.3 -0.3)">
       <use xlink:href="#DejaVuSans-48"/>
       <use x="63.623047" xlink:href="#DejaVuSans-46"/>
       <use x="95.410156" xlink:href="#DejaVuSans-56"/>
      </g>
     </g>
    </g>
    <g id="xtick_18">
     <g id="text_26">
      <!-- 1.0 -->
      <g style="opacity:0;" transform="translate(948.145313 974.795313)scale(0.3 -0.3)">
       <use xlink:href="#DejaVuSans-49"/>
       <use x="63.623047" xlink:href="#DejaVuSans-46"/>
       <use x="95.410156" xlink:href="#DejaVuSans-48"/>
      </g>
     </g>
    </g>
    <g id="text_27">
     <!-- $(\omega-\omega_{c})/\kappa$ -->
     <g transform="translate(477.9 1007.829687)scale(0.3 -0.3)">
      <defs>
       <path d="M 31 75.875 
Q 24.46875 64.65625 21.28125 53.65625 
Q 18.109375 42.671875 18.109375 31.390625 
Q 18.109375 20.125 21.3125 9.0625 
Q 24.515625 -2 31 -13.1875 
L 23.1875 -13.1875 
Q 15.875 -1.703125 12.234375 9.375 
Q 8.59375 20.453125 8.59375 31.390625 
Q 8.59375 42.28125 12.203125 53.3125 
Q 15.828125 64.359375 23.1875 75.875 
z
" id="DejaVuSans-40"/>
       <path d="M 26.859375 -1.421875 
Q 6.59375 -1.421875 6.59375 27.59375 
Q 6.59375 39.0625 14.15625 54.6875 
L 23.828125 54.6875 
Q 16.84375 39.0625 16.84375 27.34375 
Q 16.84375 6.203125 27.6875 6.203125 
Q 37.59375 6.203125 37.59375 32.46875 
L 45.90625 32.46875 
Q 45.90625 6.203125 55.8125 6.203125 
Q 66.65625 6.203125 66.65625 27.34375 
Q 66.65625 39.0625 59.671875 54.6875 
L 69.34375 54.6875 
Q 76.90625 39.0625 76.90625 27.59375 
Q 76.90625 -1.421875 56.640625 -1.421875 
Q 43.359375 -1.421875 41.75 13.1875 
Q 39.75 -1.421875 26.859375 -1.421875 
z
" id="DejaVuSans-969"/>
       <path d="M 48.78125 52.59375 
L 48.78125 44.1875 
Q 44.96875 46.296875 41.140625 47.34375 
Q 37.3125 48.390625 33.40625 48.390625 
Q 24.65625 48.390625 19.8125 42.84375 
Q 14.984375 37.3125 14.984375 27.296875 
Q 14.984375 17.28125 19.8125 11.734375 
Q 24.65625 6.203125 33.40625 6.203125 
Q 37.3125 6.203125 41.140625 7.25 
Q 44.96875 8.296875 48.78125 10.40625 
L 48.78125 2.09375 
Q 45.015625 0.34375 40.984375 -0.53125 
Q 36.96875 -1.421875 32.421875 -1.421875 
Q 20.0625 -1.421875 12.78125 6.34375 
Q 5.515625 14.109375 5.515625 27.296875 
Q 5.515625 40.671875 12.859375 48.328125 
Q 20.21875 56 33.015625 56 
Q 37.15625 56 41.109375 55.140625 
Q 45.0625 54.296875 48.78125 52.59375 
z
" id="DejaVuSans-99"/>
       <path d="M 8.015625 75.875 
L 15.828125 75.875 
Q 23.140625 64.359375 26.78125 53.3125 
Q 30.421875 42.28125 30.421875 31.390625 
Q 30.421875 20.453125 26.78125 9.375 
Q 23.140625 -1.703125 15.828125 -13.1875 
L 8.015625 -13.1875 
Q 14.5 -2 17.703125 9.0625 
Q 20.90625 20.125 20.90625 31.390625 
Q 20.90625 42.671875 17.703125 53.65625 
Q 14.5 64.65625 8.015625 75.875 
z
" id="DejaVuSans-41"/>
       <path d="M 25.390625 72.90625 
L 33.6875 72.90625 
L 8.296875 -9.28125 
L 0 -9.28125 
z
" id="DejaVuSans-47"/>
       <path d="M 9.328125 54.6875 
L 18.609375 54.6875 
L 18.609375 31.984375 
L 42.1875 54.6875 
L 53.125 54.6875 
L 31.59375 34.078125 
L 56.5 0 
L 45.515625 0 
L 25.296875 28.21875 
L 18.609375 21.921875 
L 18.609375 0 
L 9.328125 0 
z
" id="DejaVuSans-954"/>
      </defs>
      <use transform="translate(0 0.125)" xlink:href="#DejaVuSans-40"/>
      <use transform="translate(39.013672 0.125)" xlink:href="#DejaVuSans-969"/>
      <use transform="translate(142.236328 0.125)" xlink:href="#DejaVuSans-8722"/>
      <use transform="translate(245.507812 0.125)" xlink:href="#DejaVuSans-969"/>
      <use transform="translate(330.205078 -16.28125)scale(0.7)" xlink:href="#DejaVuSans-99"/>
      <use transform="translate(371.425781 0.125)" xlink:href="#DejaVuSans-41"/>
      <use transform="translate(410.439453 0.125)" xlink:href="#DejaVuSans-47"/>
      <use transform="translate(444.130859 0.125)" xlink:href="#DejaVuSans-954"/>
     </g>
    </g>
   </g>
   <g id="matplotlib.axis_10">
    <g id="ytick_25">
     <g id="text_28">
      <!-- 0.0 -->
      <g style="opacity:0;" transform="translate(80.290625 956.397656)scale(0.3 -0.3)">
       <use xlink:href="#DejaVuSans-48"/>
       <use x="63.623047" xlink:href="#DejaVuSans-46"/>
       <use x="95.410156" xlink:href="#DejaVuSans-48"/>
      </g>
     </g>
    </g>
    <g id="ytick_26">
     <g id="text_29">
      <!-- 0.2 -->
      <g style="opacity:0;" transform="translate(80.290625 793.317656)scale(0.3 -0.3)">
       <use xlink:href="#DejaVuSans-48"/>
       <use x="63.623047" xlink:href="#DejaVuSans-46"/>
       <use x="95.410156" xlink:href="#DejaVuSans-50"/>
      </g>
     </g>
    </g>
    <g id="ytick_27">
     <g id="text_30">
      <!-- 0.4 -->
      <g style="opacity:0;" transform="translate(80.290625 630.237656)scale(0.3 -0.3)">
       <use xlink:href="#DejaVuSans-48"/>
       <use x="63.623047" xlink:href="#DejaVuSans-46"/>
       <use x="95.410156" xlink:href="#DejaVuSans-52"/>
      </g>
     </g>
    </g>
    <g id="ytick_28">
     <g id="text_31">
      <!-- 0.6 -->
      <g style="opacity:0;" transform="translate(80.290625 467.157656)scale(0.3 -0.3)">
       <use xlink:href="#DejaVuSans-48"/>
       <use x="63.623047" xlink:href="#DejaVuSans-46"/>
       <use x="95.410156" xlink:href="#DejaVuSans-54"/>
      </g>
     </g>
    </g>
    <g id="ytick_29">
     <g id="text_32">
      <!-- 0.8 -->
      <g style="opacity:0;" transform="translate(80.290625 304.077656)scale(0.3 -0.3)">
       <use xlink:href="#DejaVuSans-48"/>
       <use x="63.623047" xlink:href="#DejaVuSans-46"/>
       <use x="95.410156" xlink:href="#DejaVuSans-56"/>
      </g>
     </g>
    </g>
    <g id="ytick_30">
     <g id="text_33">
      <!-- 1.0 -->
      <g style="opacity:0;" transform="translate(80.290625 140.997656)scale(0.3 -0.3)">
       <use xlink:href="#DejaVuSans-49"/>
       <use x="63.623047" xlink:href="#DejaVuSans-46"/>
       <use x="95.410156" xlink:href="#DejaVuSans-48"/>
      </g>
     </g>
    </g>
   </g>
  </g>
 </g>
 <defs>
  <clipPath id="pc94f002637">
   <rect height="370.636364" width="380.454545" x="135" y="129.6"/>
  </clipPath>
  <clipPath id="p7976d865c9">
   <rect height="370.636364" width="380.454545" x="591.545455" y="129.6"/>
  </clipPath>
  <clipPath id="pf24366ffe5">
   <rect height="370.636364" width="380.454545" x="135" y="574.363636"/>
  </clipPath>
  <clipPath id="pa5f80e5d2b">
   <rect height="370.636364" width="380.454545" x="591.545455" y="574.363636"/>
  </clipPath>
 </defs>
</svg>
