<?xml version="1.0" encoding="utf-8" standalone="no"?>
<!DOCTYPE svg PUBLIC "-//W3C//DTD SVG 1.1//EN"
  "http://www.w3.org/Graphics/SVG/1.1/DTD/svg11.dtd">
<!-- Created with matplotlib (https://matplotlib.org/) -->
<svg height="1080pt" version="1.1" viewBox="0 0 1080 1080" width="1080pt" xmlns="http://www.w3.org/2000/svg" xmlns:xlink="http://www.w3.org/1999/xlink">
 <metadata>
  <rdf:RDF xmlns:cc="http://creativecommons.org/ns#" xmlns:dc="http://purl.org/dc/elements/1.1/" xmlns:rdf="http://www.w3.org/1999/02/22-rdf-syntax-ns#">
   <cc:Work>
    <dc:type rdf:resource="http://purl.org/dc/dcmitype/StillImage"/>
    <dc:date>2021-04-21T15:13:41.182141</dc:date>
    <dc:format>image/svg+xml</dc:format>
    <dc:creator>
     <cc:Agent>
      <dc:title>Matplotlib v3.3.2, https://matplotlib.org/</dc:title>
     </cc:Agent>
    </dc:creator>
   </cc:Work>
  </rdf:RDF>
 </metadata>
 <defs>
  <style type="text/css">*{stroke-linecap:butt;stroke-linejoin:round;}</style>
 </defs>
 <g id="figure_1">
  <g id="patch_1">
   <path d="M 0 1080 
L 1080 1080 
L 1080 0 
L 0 0 
z
" style="fill:none;"/>
  </g>
  <g id="axes_1">
   <g id="patch_2">
    <path d="M 135 500.236364 
L 515.454545 500.236364 
L 515.454545 129.6 
L 135 129.6 
z
" style="fill:#ffffff;"/>
   </g>
   <g id="matplotlib.axis_1">
    <g id="xtick_1">
     <g id="line2d_1">
      <defs>
       <path d="M 0 0 
L 0 3.5 
" id="mc093e6fe0e" style="stroke:#000000;stroke-width:0.8;"/>
      </defs>
      <g>
       <use style="stroke:#000000;stroke-width:0.8;" x="139.323347" xlink:href="#mc093e6fe0e" y="500.236364"/>
      </g>
     </g>
    </g>
    <g id="xtick_2">
     <g id="line2d_2">
      <g>
       <use style="stroke:#000000;stroke-width:0.8;" x="325.227273" xlink:href="#mc093e6fe0e" y="500.236364"/>
      </g>
     </g>
    </g>
    <g id="xtick_3">
     <g id="line2d_3">
      <g>
       <use style="stroke:#000000;stroke-width:0.8;" x="511.131198" xlink:href="#mc093e6fe0e" y="500.236364"/>
      </g>
     </g>
    </g>
   </g>
   <g id="matplotlib.axis_2">
    <g id="ytick_1">
     <g id="line2d_4">
      <defs>
       <path d="M 0 0 
L -3.5 0 
" id="m6fe9e987ab" style="stroke:#000000;stroke-width:0.8;"/>
      </defs>
      <g>
       <use style="stroke:#000000;stroke-width:0.8;" x="135" xlink:href="#m6fe9e987ab" y="483.389257"/>
      </g>
     </g>
     <g id="text_1">
      <!-- 0.0 -->
      <g transform="translate(80.290625 494.786913)scale(0.3 -0.3)">
       <defs>
        <path d="M 31.78125 66.40625 
Q 24.171875 66.40625 20.328125 58.90625 
Q 16.5 51.421875 16.5 36.375 
Q 16.5 21.390625 20.328125 13.890625 
Q 24.171875 6.390625 31.78125 6.390625 
Q 39.453125 6.390625 43.28125 13.890625 
Q 47.125 21.390625 47.125 36.375 
Q 47.125 51.421875 43.28125 58.90625 
Q 39.453125 66.40625 31.78125 66.40625 
z
M 31.78125 74.21875 
Q 44.046875 74.21875 50.515625 64.515625 
Q 56.984375 54.828125 56.984375 36.375 
Q 56.984375 17.96875 50.515625 8.265625 
Q 44.046875 -1.421875 31.78125 -1.421875 
Q 19.53125 -1.421875 13.0625 8.265625 
Q 6.59375 17.96875 6.59375 36.375 
Q 6.59375 54.828125 13.0625 64.515625 
Q 19.53125 74.21875 31.78125 74.21875 
z
" id="DejaVuSans-48"/>
        <path d="M 10.6875 12.40625 
L 21 12.40625 
L 21 0 
L 10.6875 0 
z
" id="DejaVuSans-46"/>
       </defs>
       <use xlink:href="#DejaVuSans-48"/>
       <use x="63.623047" xlink:href="#DejaVuSans-46"/>
       <use x="95.410156" xlink:href="#DejaVuSans-48"/>
      </g>
     </g>
    </g>
    <g id="ytick_2">
     <g id="line2d_5">
      <g>
       <use style="stroke:#000000;stroke-width:0.8;" x="135" xlink:href="#m6fe9e987ab" y="416.001004"/>
      </g>
     </g>
     <g id="text_2">
      <!-- 0.2 -->
      <g transform="translate(80.290625 427.39866)scale(0.3 -0.3)">
       <defs>
        <path d="M 19.1875 8.296875 
L 53.609375 8.296875 
L 53.609375 0 
L 7.328125 0 
L 7.328125 8.296875 
Q 12.9375 14.109375 22.625 23.890625 
Q 32.328125 33.6875 34.8125 36.53125 
Q 39.546875 41.84375 41.421875 45.53125 
Q 43.3125 49.21875 43.3125 52.78125 
Q 43.3125 58.59375 39.234375 62.25 
Q 35.15625 65.921875 28.609375 65.921875 
Q 23.96875 65.921875 18.8125 64.3125 
Q 13.671875 62.703125 7.8125 59.421875 
L 7.8125 69.390625 
Q 13.765625 71.78125 18.9375 73 
Q 24.125 74.21875 28.421875 74.21875 
Q 39.75 74.21875 46.484375 68.546875 
Q 53.21875 62.890625 53.21875 53.421875 
Q 53.21875 48.921875 51.53125 44.890625 
Q 49.859375 40.875 45.40625 35.40625 
Q 44.1875 33.984375 37.640625 27.21875 
Q 31.109375 20.453125 19.1875 8.296875 
z
" id="DejaVuSans-50"/>
       </defs>
       <use xlink:href="#DejaVuSans-48"/>
       <use x="63.623047" xlink:href="#DejaVuSans-46"/>
       <use x="95.410156" xlink:href="#DejaVuSans-50"/>
      </g>
     </g>
    </g>
    <g id="ytick_3">
     <g id="line2d_6">
      <g>
       <use style="stroke:#000000;stroke-width:0.8;" x="135" xlink:href="#m6fe9e987ab" y="348.61275"/>
      </g>
     </g>
     <g id="text_3">
      <!-- 0.4 -->
      <g transform="translate(80.290625 360.010407)scale(0.3 -0.3)">
       <defs>
        <path d="M 37.796875 64.3125 
L 12.890625 25.390625 
L 37.796875 25.390625 
z
M 35.203125 72.90625 
L 47.609375 72.90625 
L 47.609375 25.390625 
L 58.015625 25.390625 
L 58.015625 17.1875 
L 47.609375 17.1875 
L 47.609375 0 
L 37.796875 0 
L 37.796875 17.1875 
L 4.890625 17.1875 
L 4.890625 26.703125 
z
" id="DejaVuSans-52"/>
       </defs>
       <use xlink:href="#DejaVuSans-48"/>
       <use x="63.623047" xlink:href="#DejaVuSans-46"/>
       <use x="95.410156" xlink:href="#DejaVuSans-52"/>
      </g>
     </g>
    </g>
    <g id="ytick_4">
     <g id="line2d_7">
      <g>
       <use style="stroke:#000000;stroke-width:0.8;" x="135" xlink:href="#m6fe9e987ab" y="281.224497"/>
      </g>
     </g>
     <g id="text_4">
      <!-- 0.6 -->
      <g transform="translate(80.290625 292.622154)scale(0.3 -0.3)">
       <defs>
        <path d="M 33.015625 40.375 
Q 26.375 40.375 22.484375 35.828125 
Q 18.609375 31.296875 18.609375 23.390625 
Q 18.609375 15.53125 22.484375 10.953125 
Q 26.375 6.390625 33.015625 6.390625 
Q 39.65625 6.390625 43.53125 10.953125 
Q 47.40625 15.53125 47.40625 23.390625 
Q 47.40625 31.296875 43.53125 35.828125 
Q 39.65625 40.375 33.015625 40.375 
z
M 52.59375 71.296875 
L 52.59375 62.3125 
Q 48.875 64.0625 45.09375 64.984375 
Q 41.3125 65.921875 37.59375 65.921875 
Q 27.828125 65.921875 22.671875 59.328125 
Q 17.53125 52.734375 16.796875 39.40625 
Q 19.671875 43.65625 24.015625 45.921875 
Q 28.375 48.1875 33.59375 48.1875 
Q 44.578125 48.1875 50.953125 41.515625 
Q 57.328125 34.859375 57.328125 23.390625 
Q 57.328125 12.15625 50.6875 5.359375 
Q 44.046875 -1.421875 33.015625 -1.421875 
Q 20.359375 -1.421875 13.671875 8.265625 
Q 6.984375 17.96875 6.984375 36.375 
Q 6.984375 53.65625 15.1875 63.9375 
Q 23.390625 74.21875 37.203125 74.21875 
Q 40.921875 74.21875 44.703125 73.484375 
Q 48.484375 72.75 52.59375 71.296875 
z
" id="DejaVuSans-54"/>
       </defs>
       <use xlink:href="#DejaVuSans-48"/>
       <use x="63.623047" xlink:href="#DejaVuSans-46"/>
       <use x="95.410156" xlink:href="#DejaVuSans-54"/>
      </g>
     </g>
    </g>
    <g id="ytick_5">
     <g id="line2d_8">
      <g>
       <use style="stroke:#000000;stroke-width:0.8;" x="135" xlink:href="#m6fe9e987ab" y="213.836244"/>
      </g>
     </g>
     <g id="text_5">
      <!-- 0.8 -->
      <g transform="translate(80.290625 225.2339)scale(0.3 -0.3)">
       <defs>
        <path d="M 31.78125 34.625 
Q 24.75 34.625 20.71875 30.859375 
Q 16.703125 27.09375 16.703125 20.515625 
Q 16.703125 13.921875 20.71875 10.15625 
Q 24.75 6.390625 31.78125 6.390625 
Q 38.8125 6.390625 42.859375 10.171875 
Q 46.921875 13.96875 46.921875 20.515625 
Q 46.921875 27.09375 42.890625 30.859375 
Q 38.875 34.625 31.78125 34.625 
z
M 21.921875 38.8125 
Q 15.578125 40.375 12.03125 44.71875 
Q 8.5 49.078125 8.5 55.328125 
Q 8.5 64.0625 14.71875 69.140625 
Q 20.953125 74.21875 31.78125 74.21875 
Q 42.671875 74.21875 48.875 69.140625 
Q 55.078125 64.0625 55.078125 55.328125 
Q 55.078125 49.078125 51.53125 44.71875 
Q 48 40.375 41.703125 38.8125 
Q 48.828125 37.15625 52.796875 32.3125 
Q 56.78125 27.484375 56.78125 20.515625 
Q 56.78125 9.90625 50.3125 4.234375 
Q 43.84375 -1.421875 31.78125 -1.421875 
Q 19.734375 -1.421875 13.25 4.234375 
Q 6.78125 9.90625 6.78125 20.515625 
Q 6.78125 27.484375 10.78125 32.3125 
Q 14.796875 37.15625 21.921875 38.8125 
z
M 18.3125 54.390625 
Q 18.3125 48.734375 21.84375 45.5625 
Q 25.390625 42.390625 31.78125 42.390625 
Q 38.140625 42.390625 41.71875 45.5625 
Q 45.3125 48.734375 45.3125 54.390625 
Q 45.3125 60.0625 41.71875 63.234375 
Q 38.140625 66.40625 31.78125 66.40625 
Q 25.390625 66.40625 21.84375 63.234375 
Q 18.3125 60.0625 18.3125 54.390625 
z
" id="DejaVuSans-56"/>
       </defs>
       <use xlink:href="#DejaVuSans-48"/>
       <use x="63.623047" xlink:href="#DejaVuSans-46"/>
       <use x="95.410156" xlink:href="#DejaVuSans-56"/>
      </g>
     </g>
    </g>
    <g id="ytick_6">
     <g id="line2d_9">
      <g>
       <use style="stroke:#000000;stroke-width:0.8;" x="135" xlink:href="#m6fe9e987ab" y="146.447991"/>
      </g>
     </g>
     <g id="text_6">
      <!-- 1.0 -->
      <g transform="translate(80.290625 157.845647)scale(0.3 -0.3)">
       <defs>
        <path d="M 12.40625 8.296875 
L 28.515625 8.296875 
L 28.515625 63.921875 
L 10.984375 60.40625 
L 10.984375 69.390625 
L 28.421875 72.90625 
L 38.28125 72.90625 
L 38.28125 8.296875 
L 54.390625 8.296875 
L 54.390625 0 
L 12.40625 0 
z
" id="DejaVuSans-49"/>
       </defs>
       <use xlink:href="#DejaVuSans-49"/>
       <use x="63.623047" xlink:href="#DejaVuSans-46"/>
       <use x="95.410156" xlink:href="#DejaVuSans-48"/>
      </g>
     </g>
    </g>
   </g>
   <g id="line2d_10">
    <path clip-path="url(#p03ff89c52f)" d="M 152.293388 152.156716 
L 162.948247 151.107039 
L 175.194415 150.131758 
L 188.893518 149.266694 
L 204.806618 148.488699 
L 223.07209 147.819841 
L 243.48237 147.28166 
L 266.729333 146.867691 
L 298.140409 146.55952 
L 330.381733 146.483497 
L 362.207933 146.631149 
L 394.726007 147.043927 
L 418.664845 147.57108 
L 440.80481 148.29693 
L 457.340596 149.04688 
L 473.253696 150.001005 
L 486.67605 151.04515 
L 497.746033 152.125048 
L 498.161157 152.17022 
L 498.161157 152.17022 
" style="fill:none;stroke:#0000ff;stroke-linecap:square;stroke-width:5;"/>
   </g>
   <g id="line2d_11">
    <path clip-path="url(#p03ff89c52f)" d="M 152.293388 477.73286 
L 163.017434 478.785127 
L 175.125228 479.745985 
L 189.031893 480.620586 
L 205.014181 481.396882 
L 223.625589 482.071671 
L 245.419617 482.632322 
L 270.880577 483.058724 
L 300.146843 483.321722 
L 331.973043 483.384338 
L 363.660869 483.22742 
L 392.442823 482.868168 
L 417.211909 482.343055 
L 438.175689 481.682603 
L 455.956848 480.906074 
L 471.178074 480.024464 
L 484.392866 479.040332 
L 495.877973 477.966924 
L 498.161157 477.724147 
L 498.161157 477.724147 
" style="fill:none;stroke:#ff0000;stroke-linecap:square;stroke-width:5;"/>
   </g>
   <g id="patch_3">
    <path d="M 135 500.236364 
L 135 129.6 
" style="fill:none;stroke:#000000;stroke-linecap:square;stroke-linejoin:miter;stroke-width:0.8;"/>
   </g>
   <g id="patch_4">
    <path d="M 515.454545 500.236364 
L 515.454545 129.6 
" style="fill:none;stroke:#000000;stroke-linecap:square;stroke-linejoin:miter;stroke-width:0.8;"/>
   </g>
   <g id="patch_5">
    <path d="M 135 500.236364 
L 515.454545 500.236364 
" style="fill:none;stroke:#000000;stroke-linecap:square;stroke-linejoin:miter;stroke-width:0.8;"/>
   </g>
   <g id="patch_6">
    <path d="M 135 129.6 
L 515.454545 129.6 
" style="fill:none;stroke:#000000;stroke-linecap:square;stroke-linejoin:miter;stroke-width:0.8;"/>
   </g>
  </g>
  <g id="axes_2">
   <g id="patch_7">
    <path d="M 591.545455 500.236364 
L 972 500.236364 
L 972 129.6 
L 591.545455 129.6 
z
" style="fill:#ffffff;"/>
   </g>
   <g id="matplotlib.axis_3">
    <g id="xtick_4">
     <g id="line2d_12">
      <g>
       <use style="stroke:#000000;stroke-width:0.8;" x="595.868802" xlink:href="#mc093e6fe0e" y="500.236364"/>
      </g>
     </g>
    </g>
    <g id="xtick_5">
     <g id="line2d_13">
      <g>
       <use style="stroke:#000000;stroke-width:0.8;" x="781.772727" xlink:href="#mc093e6fe0e" y="500.236364"/>
      </g>
     </g>
    </g>
    <g id="xtick_6">
     <g id="line2d_14">
      <g>
       <use style="stroke:#000000;stroke-width:0.8;" x="967.676653" xlink:href="#mc093e6fe0e" y="500.236364"/>
      </g>
     </g>
    </g>
   </g>
   <g id="matplotlib.axis_4">
    <g id="ytick_7">
     <g id="line2d_15">
      <g>
       <use style="stroke:#000000;stroke-width:0.8;" x="591.545455" xlink:href="#m6fe9e987ab" y="483.389257"/>
      </g>
     </g>
    </g>
    <g id="ytick_8">
     <g id="line2d_16">
      <g>
       <use style="stroke:#000000;stroke-width:0.8;" x="591.545455" xlink:href="#m6fe9e987ab" y="416.001004"/>
      </g>
     </g>
    </g>
    <g id="ytick_9">
     <g id="line2d_17">
      <g>
       <use style="stroke:#000000;stroke-width:0.8;" x="591.545455" xlink:href="#m6fe9e987ab" y="348.61275"/>
      </g>
     </g>
    </g>
    <g id="ytick_10">
     <g id="line2d_18">
      <g>
       <use style="stroke:#000000;stroke-width:0.8;" x="591.545455" xlink:href="#m6fe9e987ab" y="281.224497"/>
      </g>
     </g>
    </g>
    <g id="ytick_11">
     <g id="line2d_19">
      <g>
       <use style="stroke:#000000;stroke-width:0.8;" x="591.545455" xlink:href="#m6fe9e987ab" y="213.836244"/>
      </g>
     </g>
    </g>
    <g id="ytick_12">
     <g id="line2d_20">
      <g>
       <use style="stroke:#000000;stroke-width:0.8;" x="591.545455" xlink:href="#m6fe9e987ab" y="146.447991"/>
      </g>
     </g>
    </g>
   </g>
   <g id="line2d_21">
    <path clip-path="url(#p4ab658ee3f)" d="M 608.838843 171.66713 
L 615.411645 173.045506 
L 621.776885 174.60015 
L 628.00375 176.351127 
L 633.884679 178.236609 
L 639.488857 180.267143 
L 644.816286 182.434044 
L 649.866966 184.726861 
L 654.710083 187.169595 
L 659.276451 189.717585 
L 663.704444 192.44186 
L 667.994062 195.346673 
L 672.076119 198.381516 
L 676.0198 201.592287 
L 679.825106 204.978716 
L 683.492038 208.538813 
L 687.089782 212.344922 
L 690.549152 216.327487 
L 693.939334 220.568658 
L 697.260329 225.080178 
L 700.512136 229.873308 
L 703.694756 234.958446 
L 706.877376 240.469453 
L 709.990809 246.309779 
L 713.104242 252.63308 
L 716.148487 259.321711 
L 719.192732 266.549987 
L 722.236977 274.357586 
L 725.281222 282.78341 
L 728.325468 291.864041 
L 731.4389 301.861311 
L 734.62152 312.849264 
L 737.873328 324.891352 
L 741.26351 338.312615 
L 744.930441 353.769179 
L 749.081685 372.282166 
L 754.824238 399.036972 
L 761.466228 429.778388 
L 764.718035 443.77197 
L 767.277969 453.856433 
L 769.491965 461.696814 
L 771.429212 467.748095 
L 773.08971 472.249395 
L 774.611832 475.764463 
L 775.99558 478.416549 
L 777.240953 480.337974 
L 778.347951 481.662181 
L 779.385762 482.567354 
L 780.354386 483.113696 
L 781.253822 483.360381 
L 782.084071 483.364306 
L 782.914319 483.153366 
L 783.813755 482.683334 
L 784.782379 481.898642 
L 785.82019 480.74195 
L 786.927188 479.155434 
L 788.172561 476.948289 
L 789.487121 474.152825 
L 790.940057 470.536348 
L 792.600554 465.773865 
L 794.468614 459.689591 
L 796.544235 452.141099 
L 798.965794 442.465016 
L 801.940852 429.605018 
L 806.022908 410.880011 
L 816.954516 360.272852 
L 820.967384 343.006443 
L 824.565129 328.48538 
L 827.955311 315.704097 
L 831.207118 304.286007 
L 834.389738 293.900481 
L 837.572358 284.271694 
L 840.685791 275.551101 
L 843.799223 267.482967 
L 846.912656 260.025875 
L 850.026089 253.137383 
L 853.139521 246.775565 
L 856.322141 240.774332 
L 859.504761 235.239714 
L 862.756569 230.026367 
L 866.077563 225.123257 
L 869.398558 220.608283 
L 872.857928 216.280925 
L 876.386485 212.225869 
L 879.984229 208.429506 
L 883.720348 204.81426 
L 887.525655 201.441619 
L 891.469336 198.243813 
L 895.551392 195.221003 
L 899.771823 192.371988 
L 904.199816 189.654059 
L 908.766184 187.111922 
L 913.609301 184.674732 
L 918.590793 182.416727 
L 923.849035 180.278031 
L 929.314839 178.293288 
L 935.195767 176.400754 
L 941.21507 174.697778 
L 947.511123 173.145122 
L 954.083925 171.751247 
L 954.706612 171.630516 
L 954.706612 171.630516 
" style="fill:none;stroke:#0000ff;stroke-linecap:square;stroke-width:5;"/>
   </g>
   <g id="line2d_22">
    <path clip-path="url(#p4ab658ee3f)" d="M 608.838843 458.196278 
L 615.55002 456.785307 
L 621.984447 455.206501 
L 628.142125 453.467589 
L 634.023053 451.575783 
L 639.627232 449.538633 
L 644.954661 447.364807 
L 650.005341 445.064752 
L 654.848458 442.61435 
L 659.484013 440.017668 
L 663.912006 437.280619 
L 668.132437 434.411403 
L 672.214493 431.366845 
L 676.158175 428.145693 
L 679.963481 424.748176 
L 683.630413 421.176258 
L 687.228157 417.357409 
L 690.687527 413.361366 
L 694.077709 409.105664 
L 697.398704 404.578526 
L 700.650511 399.768687 
L 703.833131 394.665666 
L 707.015751 389.135179 
L 710.129184 383.27409 
L 713.242616 376.928305 
L 716.286862 370.215903 
L 719.331107 362.962086 
L 722.375352 355.12713 
L 725.419597 346.672242 
L 728.463842 337.56099 
L 731.577275 327.531014 
L 734.759895 316.508797 
L 738.011702 304.431629 
L 741.401885 290.974906 
L 745.068816 275.483318 
L 749.22006 256.938813 
L 755.100988 229.513458 
L 761.466228 200.074928 
L 764.718035 186.08134 
L 767.277969 175.996851 
L 769.422778 168.387291 
L 771.360025 162.306965 
L 773.020522 157.777931 
L 774.542645 154.235238 
L 775.926393 151.556572 
L 777.171766 149.61015 
L 778.278764 148.263063 
L 779.316575 147.336029 
L 780.285198 146.768947 
L 781.184634 146.502857 
L 782.014883 146.481228 
L 782.845132 146.674179 
L 783.744568 147.124965 
L 784.644004 147.824991 
L 785.681815 148.938465 
L 786.788813 150.480022 
L 787.964999 152.506805 
L 789.279559 155.228273 
L 790.732494 158.76786 
L 792.323804 163.241571 
L 794.122677 168.983138 
L 796.198298 176.402188 
L 798.55067 185.672016 
L 801.387353 197.791126 
L 805.192659 215.101854 
L 818.130701 274.749371 
L 822.005195 291.134368 
L 825.533752 305.111453 
L 828.923934 317.637443 
L 832.175742 328.810965 
L 835.358362 338.963129 
L 838.471794 348.171483 
L 841.585227 356.699602 
L 844.69866 364.587026 
L 847.812092 371.875588 
L 850.925525 378.607833 
L 854.038957 384.82531 
L 857.221577 390.690741 
L 860.404197 396.100819 
L 863.656005 401.197683 
L 866.977 405.992286 
L 870.367182 410.496561 
L 873.826551 414.7231 
L 877.355108 418.684961 
L 880.952853 422.395221 
L 884.688972 425.929644 
L 888.563466 429.285308 
L 892.576334 432.461179 
L 896.65839 435.41025 
L 900.948009 438.234176 
L 905.376002 440.883677 
L 910.011557 443.398325 
L 914.854674 445.772107 
L 919.974541 448.029687 
L 925.30197 450.13319 
L 930.906149 452.104291 
L 936.787077 453.934105 
L 942.875568 455.597098 
L 949.309995 457.123282 
L 954.706612 458.235255 
L 954.706612 458.235255 
" style="fill:none;stroke:#ff0000;stroke-linecap:square;stroke-width:5;"/>
   </g>
   <g id="patch_8">
    <path d="M 591.545455 500.236364 
L 591.545455 129.6 
" style="fill:none;stroke:#000000;stroke-linecap:square;stroke-linejoin:miter;stroke-width:0.8;"/>
   </g>
   <g id="patch_9">
    <path d="M 972 500.236364 
L 972 129.6 
" style="fill:none;stroke:#000000;stroke-linecap:square;stroke-linejoin:miter;stroke-width:0.8;"/>
   </g>
   <g id="patch_10">
    <path d="M 591.545455 500.236364 
L 972 500.236364 
" style="fill:none;stroke:#000000;stroke-linecap:square;stroke-linejoin:miter;stroke-width:0.8;"/>
   </g>
   <g id="patch_11">
    <path d="M 591.545455 129.6 
L 972 129.6 
" style="fill:none;stroke:#000000;stroke-linecap:square;stroke-linejoin:miter;stroke-width:0.8;"/>
   </g>
  </g>
  <g id="axes_3">
   <g id="patch_12">
    <path d="M 135 945 
L 515.454545 945 
L 515.454545 574.363636 
L 135 574.363636 
z
" style="fill:#ffffff;"/>
   </g>
   <g id="matplotlib.axis_5">
    <g id="xtick_7">
     <g id="line2d_23">
      <g>
       <use style="stroke:#000000;stroke-width:0.8;" x="139.323347" xlink:href="#mc093e6fe0e" y="945"/>
      </g>
     </g>
     <g id="text_7">
      <!-- −2 -->
      <g transform="translate(117.210066 974.795312)scale(0.3 -0.3)">
       <defs>
        <path d="M 10.59375 35.5 
L 73.1875 35.5 
L 73.1875 27.203125 
L 10.59375 27.203125 
z
" id="DejaVuSans-8722"/>
       </defs>
       <use xlink:href="#DejaVuSans-8722"/>
       <use x="83.789062" xlink:href="#DejaVuSans-50"/>
      </g>
     </g>
    </g>
    <g id="xtick_8">
     <g id="line2d_24">
      <g>
       <use style="stroke:#000000;stroke-width:0.8;" x="325.227273" xlink:href="#mc093e6fe0e" y="945"/>
      </g>
     </g>
     <g id="text_8">
      <!-- 0 -->
      <g transform="translate(315.683523 974.795312)scale(0.3 -0.3)">
       <use xlink:href="#DejaVuSans-48"/>
      </g>
     </g>
    </g>
    <g id="xtick_9">
     <g id="line2d_25">
      <g>
       <use style="stroke:#000000;stroke-width:0.8;" x="511.131198" xlink:href="#mc093e6fe0e" y="945"/>
      </g>
     </g>
     <g id="text_9">
      <!-- 2 -->
      <g transform="translate(501.587448 974.795312)scale(0.3 -0.3)">
       <use xlink:href="#DejaVuSans-50"/>
      </g>
     </g>
    </g>
   </g>
   <g id="matplotlib.axis_6">
    <g id="ytick_13">
     <g id="line2d_26">
      <g>
       <use style="stroke:#000000;stroke-width:0.8;" x="135" xlink:href="#m6fe9e987ab" y="928.152893"/>
      </g>
     </g>
     <g id="text_10">
      <!-- 0.0 -->
      <g transform="translate(80.290625 939.550549)scale(0.3 -0.3)">
       <use xlink:href="#DejaVuSans-48"/>
       <use x="63.623047" xlink:href="#DejaVuSans-46"/>
       <use x="95.410156" xlink:href="#DejaVuSans-48"/>
      </g>
     </g>
    </g>
    <g id="ytick_14">
     <g id="line2d_27">
      <g>
       <use style="stroke:#000000;stroke-width:0.8;" x="135" xlink:href="#m6fe9e987ab" y="860.76464"/>
      </g>
     </g>
     <g id="text_11">
      <!-- 0.2 -->
      <g transform="translate(80.290625 872.162296)scale(0.3 -0.3)">
       <use xlink:href="#DejaVuSans-48"/>
       <use x="63.623047" xlink:href="#DejaVuSans-46"/>
       <use x="95.410156" xlink:href="#DejaVuSans-50"/>
      </g>
     </g>
    </g>
    <g id="ytick_15">
     <g id="line2d_28">
      <g>
       <use style="stroke:#000000;stroke-width:0.8;" x="135" xlink:href="#m6fe9e987ab" y="793.376387"/>
      </g>
     </g>
     <g id="text_12">
      <!-- 0.4 -->
      <g transform="translate(80.290625 804.774043)scale(0.3 -0.3)">
       <use xlink:href="#DejaVuSans-48"/>
       <use x="63.623047" xlink:href="#DejaVuSans-46"/>
       <use x="95.410156" xlink:href="#DejaVuSans-52"/>
      </g>
     </g>
    </g>
    <g id="ytick_16">
     <g id="line2d_29">
      <g>
       <use style="stroke:#000000;stroke-width:0.8;" x="135" xlink:href="#m6fe9e987ab" y="725.988134"/>
      </g>
     </g>
     <g id="text_13">
      <!-- 0.6 -->
      <g transform="translate(80.290625 737.38579)scale(0.3 -0.3)">
       <use xlink:href="#DejaVuSans-48"/>
       <use x="63.623047" xlink:href="#DejaVuSans-46"/>
       <use x="95.410156" xlink:href="#DejaVuSans-54"/>
      </g>
     </g>
    </g>
    <g id="ytick_17">
     <g id="line2d_30">
      <g>
       <use style="stroke:#000000;stroke-width:0.8;" x="135" xlink:href="#m6fe9e987ab" y="658.599881"/>
      </g>
     </g>
     <g id="text_14">
      <!-- 0.8 -->
      <g transform="translate(80.290625 669.997537)scale(0.3 -0.3)">
       <use xlink:href="#DejaVuSans-48"/>
       <use x="63.623047" xlink:href="#DejaVuSans-46"/>
       <use x="95.410156" xlink:href="#DejaVuSans-56"/>
      </g>
     </g>
    </g>
    <g id="ytick_18">
     <g id="line2d_31">
      <g>
       <use style="stroke:#000000;stroke-width:0.8;" x="135" xlink:href="#m6fe9e987ab" y="591.211627"/>
      </g>
     </g>
     <g id="text_15">
      <!-- 1.0 -->
      <g transform="translate(80.290625 602.609284)scale(0.3 -0.3)">
       <use xlink:href="#DejaVuSans-49"/>
       <use x="63.623047" xlink:href="#DejaVuSans-46"/>
       <use x="95.410156" xlink:href="#DejaVuSans-48"/>
      </g>
     </g>
    </g>
   </g>
   <g id="line2d_32">
    <path clip-path="url(#p184add6d5a)" d="M 152.293388 616.430766 
L 158.866191 617.809142 
L 165.231431 619.363787 
L 171.458296 621.114763 
L 177.339224 623.000246 
L 182.943403 625.030779 
L 188.270832 627.197681 
L 193.321511 629.490498 
L 198.164629 631.933232 
L 202.730997 634.481221 
L 207.15899 637.205497 
L 211.448608 640.11031 
L 215.530664 643.145152 
L 219.474345 646.355924 
L 223.279652 649.742353 
L 226.946584 653.302449 
L 230.544328 657.108558 
L 234.003697 661.091123 
L 237.39388 665.332295 
L 240.714874 669.843815 
L 243.966682 674.636944 
L 247.149302 679.722083 
L 250.331922 685.233089 
L 253.445354 691.073415 
L 256.558787 697.396716 
L 259.603032 704.085347 
L 262.647277 711.313623 
L 265.691523 719.121222 
L 268.735768 727.547046 
L 271.780013 736.627677 
L 274.893446 746.624947 
L 278.076066 757.612901 
L 281.327873 769.654988 
L 284.718055 783.076252 
L 288.384987 798.532815 
L 292.53623 817.045802 
L 298.278784 843.800608 
L 304.920773 874.542025 
L 308.172581 888.535606 
L 310.732514 898.62007 
L 312.946511 906.460451 
L 314.883758 912.511731 
L 316.544255 917.013032 
L 318.066378 920.528099 
L 319.450126 923.180186 
L 320.695499 925.10161 
L 321.802497 926.425817 
L 322.840308 927.33099 
L 323.808931 927.877332 
L 324.708367 928.124017 
L 325.538616 928.127942 
L 326.368865 927.917003 
L 327.268301 927.44697 
L 328.236924 926.662279 
L 329.274735 925.505586 
L 330.381733 923.91907 
L 331.627106 921.711925 
L 332.941667 918.916462 
L 334.394602 915.299985 
L 336.055099 910.537501 
L 337.923159 904.453228 
L 339.998781 896.904735 
L 342.420339 887.228652 
L 345.395397 874.368655 
L 349.477453 855.643647 
L 360.409061 805.036488 
L 364.42193 787.770079 
L 368.019674 773.249017 
L 371.409856 760.467733 
L 374.661664 749.049643 
L 377.844284 738.664117 
L 381.026904 729.03533 
L 384.140336 720.314738 
L 387.253769 712.246604 
L 390.367202 704.789512 
L 393.480634 697.901019 
L 396.594067 691.539201 
L 399.776687 685.537968 
L 402.959307 680.00335 
L 406.211114 674.790004 
L 409.532109 669.886893 
L 412.853104 665.37192 
L 416.312473 661.044561 
L 419.84103 656.989505 
L 423.438775 653.193143 
L 427.174894 649.577897 
L 430.9802 646.205255 
L 434.923881 643.007449 
L 439.005938 639.98464 
L 443.226368 637.135624 
L 447.654361 634.417695 
L 452.220729 631.875558 
L 457.063847 629.438368 
L 462.045339 627.180363 
L 467.303581 625.041668 
L 472.769384 623.056924 
L 478.650313 621.16439 
L 484.669616 619.461414 
L 490.965668 617.908759 
L 497.538471 616.514883 
L 498.161157 616.394152 
L 498.161157 616.394152 
" style="fill:none;stroke:#0000ff;stroke-linecap:square;stroke-width:5;"/>
   </g>
   <g id="line2d_33">
    <path clip-path="url(#p184add6d5a)" d="M 152.293388 902.959914 
L 159.004565 901.548943 
L 165.438993 899.970137 
L 171.596671 898.231225 
L 177.477599 896.339419 
L 183.081778 894.302269 
L 188.409207 892.128444 
L 193.459886 889.828388 
L 198.303004 887.377987 
L 202.938559 884.781304 
L 207.366552 882.044255 
L 211.586983 879.17504 
L 215.669039 876.130482 
L 219.61272 872.90933 
L 223.418027 869.511812 
L 227.084958 865.939894 
L 230.682703 862.121045 
L 234.142072 858.125002 
L 237.532254 853.869301 
L 240.853249 849.342162 
L 244.105057 844.532323 
L 247.287677 839.429303 
L 250.470297 833.898816 
L 253.583729 828.037727 
L 256.697162 821.691942 
L 259.741407 814.97954 
L 262.785652 807.725723 
L 265.829897 799.890766 
L 268.874143 791.435878 
L 271.918388 782.324626 
L 275.03182 772.294651 
L 278.21444 761.272433 
L 281.466248 749.195265 
L 284.85643 735.738542 
L 288.523362 720.246954 
L 292.674605 701.702449 
L 298.555533 674.277094 
L 304.920773 644.838564 
L 308.172581 630.844977 
L 310.732514 620.760487 
L 312.877323 613.150927 
L 314.81457 607.070601 
L 316.475068 602.541568 
L 317.99719 598.998874 
L 319.380938 596.320209 
L 320.626311 594.373786 
L 321.733309 593.0267 
L 322.77112 592.099666 
L 323.739744 591.532583 
L 324.63918 591.266493 
L 325.469429 591.244864 
L 326.299677 591.437815 
L 327.199113 591.888601 
L 328.098549 592.588627 
L 329.13636 593.702102 
L 330.243359 595.243658 
L 331.419544 597.270441 
L 332.734105 599.99191 
L 334.18704 603.531497 
L 335.77835 608.005208 
L 337.577222 613.746774 
L 339.652844 621.165825 
L 342.005215 630.435653 
L 344.841898 642.554762 
L 348.647205 659.865491 
L 361.585247 719.513007 
L 365.459741 735.898004 
L 368.988298 749.875089 
L 372.37848 762.401079 
L 375.630287 773.574601 
L 378.812907 783.726765 
L 381.92634 792.93512 
L 385.039772 801.463238 
L 388.153205 809.350663 
L 391.266638 816.639224 
L 394.38007 823.371469 
L 397.493503 829.588947 
L 400.676123 835.454378 
L 403.858743 840.864455 
L 407.11055 845.96132 
L 410.431545 850.755923 
L 413.821727 855.260198 
L 417.281097 859.486737 
L 420.809654 863.448597 
L 424.407398 867.158858 
L 428.143517 870.693281 
L 432.018011 874.048944 
L 436.03088 877.224816 
L 440.112936 880.173886 
L 444.402554 882.997813 
L 448.830547 885.647314 
L 453.466102 888.161961 
L 458.30922 890.535743 
L 463.429087 892.793323 
L 468.756516 894.896827 
L 474.360694 896.867928 
L 480.241623 898.697742 
L 486.330113 900.360735 
L 492.764541 901.886919 
L 498.161157 902.998891 
L 498.161157 902.998891 
" style="fill:none;stroke:#ff0000;stroke-linecap:square;stroke-width:5;"/>
   </g>
   <g id="patch_13">
    <path d="M 135 945 
L 135 574.363636 
" style="fill:none;stroke:#000000;stroke-linecap:square;stroke-linejoin:miter;stroke-width:0.8;"/>
   </g>
   <g id="patch_14">
    <path d="M 515.454545 945 
L 515.454545 574.363636 
" style="fill:none;stroke:#000000;stroke-linecap:square;stroke-linejoin:miter;stroke-width:0.8;"/>
   </g>
   <g id="patch_15">
    <path d="M 135 945 
L 515.454545 945 
" style="fill:none;stroke:#000000;stroke-linecap:square;stroke-linejoin:miter;stroke-width:0.8;"/>
   </g>
   <g id="patch_16">
    <path d="M 135 574.363636 
L 515.454545 574.363636 
" style="fill:none;stroke:#000000;stroke-linecap:square;stroke-linejoin:miter;stroke-width:0.8;"/>
   </g>
  </g>
  <g id="axes_4">
   <g id="patch_17">
    <path d="M 591.545455 945 
L 972 945 
L 972 574.363636 
L 591.545455 574.363636 
z
" style="fill:#ffffff;"/>
   </g>
   <g id="matplotlib.axis_7">
    <g id="xtick_10">
     <g id="line2d_34">
      <g>
       <use style="stroke:#000000;stroke-width:0.8;" x="595.868802" xlink:href="#mc093e6fe0e" y="945"/>
      </g>
     </g>
     <g id="text_16">
      <!-- −2 -->
      <g transform="translate(573.75552 974.795312)scale(0.3 -0.3)">
       <use xlink:href="#DejaVuSans-8722"/>
       <use x="83.789062" xlink:href="#DejaVuSans-50"/>
      </g>
     </g>
    </g>
    <g id="xtick_11">
     <g id="line2d_35">
      <g>
       <use style="stroke:#000000;stroke-width:0.8;" x="781.772727" xlink:href="#mc093e6fe0e" y="945"/>
      </g>
     </g>
     <g id="text_17">
      <!-- 0 -->
      <g transform="translate(772.228977 974.795312)scale(0.3 -0.3)">
       <use xlink:href="#DejaVuSans-48"/>
      </g>
     </g>
    </g>
    <g id="xtick_12">
     <g id="line2d_36">
      <g>
       <use style="stroke:#000000;stroke-width:0.8;" x="967.676653" xlink:href="#mc093e6fe0e" y="945"/>
      </g>
     </g>
     <g id="text_18">
      <!-- 2 -->
      <g transform="translate(958.132903 974.795312)scale(0.3 -0.3)">
       <use xlink:href="#DejaVuSans-50"/>
      </g>
     </g>
    </g>
   </g>
   <g id="matplotlib.axis_8">
    <g id="ytick_19">
     <g id="line2d_37">
      <g>
       <use style="stroke:#000000;stroke-width:0.8;" x="591.545455" xlink:href="#m6fe9e987ab" y="928.152893"/>
      </g>
     </g>
    </g>
    <g id="ytick_20">
     <g id="line2d_38">
      <g>
       <use style="stroke:#000000;stroke-width:0.8;" x="591.545455" xlink:href="#m6fe9e987ab" y="860.76464"/>
      </g>
     </g>
    </g>
    <g id="ytick_21">
     <g id="line2d_39">
      <g>
       <use style="stroke:#000000;stroke-width:0.8;" x="591.545455" xlink:href="#m6fe9e987ab" y="793.376387"/>
      </g>
     </g>
    </g>
    <g id="ytick_22">
     <g id="line2d_40">
      <g>
       <use style="stroke:#000000;stroke-width:0.8;" x="591.545455" xlink:href="#m6fe9e987ab" y="725.988134"/>
      </g>
     </g>
    </g>
    <g id="ytick_23">
     <g id="line2d_41">
      <g>
       <use style="stroke:#000000;stroke-width:0.8;" x="591.545455" xlink:href="#m6fe9e987ab" y="658.599881"/>
      </g>
     </g>
    </g>
    <g id="ytick_24">
     <g id="line2d_42">
      <g>
       <use style="stroke:#000000;stroke-width:0.8;" x="591.545455" xlink:href="#m6fe9e987ab" y="591.211627"/>
      </g>
     </g>
    </g>
   </g>
   <g id="line2d_43">
    <path clip-path="url(#p2631939010)" d="M 608.838843 633.599687 
L 614.927333 636.298038 
L 620.946636 639.208559 
L 626.620003 642.196832 
L 632.154994 645.365649 
L 637.55161 648.721026 
L 642.671477 652.170511 
L 647.514595 655.694001 
L 652.357712 659.492659 
L 657.131642 663.528591 
L 661.767197 667.745798 
L 666.264378 672.137569 
L 670.692371 676.768777 
L 675.189551 681.800575 
L 679.686732 687.176703 
L 684.183912 692.905545 
L 688.819467 699.180274 
L 693.662585 706.122754 
L 698.920826 714.062663 
L 705.493628 724.425664 
L 716.217674 741.377975 
L 719.953793 746.823655 
L 722.859664 750.679456 
L 725.281222 753.535589 
L 727.356844 755.653439 
L 729.155716 757.190524 
L 730.816214 758.321984 
L 732.269149 759.054436 
L 733.583709 759.485809 
L 734.829082 759.671557 
L 736.005268 759.630581 
L 737.181454 759.362473 
L 738.288452 758.887725 
L 739.464638 758.130854 
L 740.640823 757.097156 
L 741.817009 755.769828 
L 743.062382 754.026082 
L 744.376942 751.787635 
L 745.76069 748.96767 
L 747.213625 745.471936 
L 748.735748 741.200034 
L 750.327058 736.048626 
L 751.987555 729.915681 
L 753.786428 722.40244 
L 755.723674 713.331215 
L 757.868484 702.18738 
L 760.35923 688.002178 
L 763.611037 668.079363 
L 769.63034 630.992206 
L 771.844337 618.871125 
L 773.643209 610.219886 
L 775.165331 603.956988 
L 776.479892 599.449598 
L 777.656077 596.195823 
L 778.693888 593.976617 
L 779.593324 592.5688 
L 780.354386 591.76166 
L 781.04626 591.338008 
L 781.668946 591.210824 
L 782.222445 591.301508 
L 782.845132 591.630945 
L 783.537006 592.278402 
L 784.298067 593.328618 
L 785.128316 594.870314 
L 786.096939 597.176069 
L 787.203937 600.450641 
L 788.449311 604.898364 
L 789.833058 610.703677 
L 791.424368 618.361482 
L 793.361615 628.838395 
L 795.852361 643.622957 
L 805.400221 701.644665 
L 807.683405 713.522932 
L 809.759027 723.182404 
L 811.627087 730.874874 
L 813.425959 737.359323 
L 815.086456 742.540691 
L 816.677766 746.795259 
L 818.199889 750.234508 
L 819.652824 752.966532 
L 821.036572 755.092562 
L 822.351132 756.705334 
L 823.596505 757.888402 
L 824.772691 758.715901 
L 825.948877 759.279141 
L 827.125062 759.595182 
L 828.301248 759.680768 
L 829.546621 759.538614 
L 830.861181 759.149395 
L 832.244929 758.497814 
L 833.767052 757.522782 
L 835.427549 756.185044 
L 837.295609 754.382709 
L 839.440418 751.984924 
L 841.861977 748.934128 
L 844.767847 744.903458 
L 848.434779 739.417387 
L 853.900583 730.795026 
L 865.316502 712.724555 
L 870.782306 704.546637 
L 875.694611 697.594683 
L 880.399353 691.32268 
L 884.896534 685.689606 
L 889.393714 680.407615 
L 893.821707 675.54014 
L 898.318888 670.920657 
L 902.885256 666.546787 
L 907.451623 662.47265 
L 912.156366 658.567816 
L 916.999483 654.836254 
L 921.980976 651.279534 
L 927.100842 647.897422 
L 932.428272 644.647302 
L 937.963263 641.535516 
L 943.567442 638.63466 
L 949.586745 635.772105 
L 954.706612 633.524511 
L 954.706612 633.524511 
" style="fill:none;stroke:#0000ff;stroke-linecap:square;stroke-width:5;"/>
   </g>
   <g id="line2d_44">
    <path clip-path="url(#p2631939010)" d="M 608.838843 885.764824 
L 615.065708 883.002309 
L 621.015824 880.120978 
L 626.68919 877.129652 
L 632.154994 873.998751 
L 637.413236 870.73294 
L 642.533102 867.290827 
L 647.514595 863.670499 
L 652.357712 859.871771 
L 657.062455 855.896528 
L 661.628822 851.749036 
L 666.126003 847.366641 
L 670.623183 842.670447 
L 675.051176 837.723745 
L 679.479169 832.443589 
L 683.97635 826.731116 
L 688.542718 820.569124 
L 693.385835 813.648513 
L 698.574889 805.835427 
L 705.009317 795.713001 
L 716.563611 777.464718 
L 720.161355 772.252475 
L 722.998038 768.51202 
L 725.419597 765.677299 
L 727.495219 763.58217 
L 729.294091 762.068397 
L 730.885401 761.001774 
L 732.338336 760.281501 
L 733.652897 759.862339 
L 734.89827 759.689166 
L 736.074455 759.74305 
L 737.250641 760.024985 
L 738.357639 760.51369 
L 739.533825 761.286387 
L 740.710011 762.336855 
L 741.955384 763.770623 
L 743.200757 765.554186 
L 744.515317 767.836865 
L 745.899065 770.705549 
L 747.352 774.254527 
L 748.874123 778.584106 
L 750.465433 783.79709 
L 752.195118 790.269591 
L 753.99399 797.885936 
L 755.931237 807.062705 
L 758.076046 818.311496 
L 760.566792 832.594311 
L 763.956974 853.457271 
L 769.491965 887.57145 
L 771.705962 899.778524 
L 773.504834 908.5239 
L 775.026957 914.882164 
L 776.341517 919.482143 
L 777.517703 922.825392 
L 778.555514 925.127916 
L 779.45495 926.610362 
L 780.216011 927.482101 
L 780.907885 927.965105 
L 781.530571 928.145542 
L 782.153258 928.08426 
L 782.775944 927.781524 
L 783.467818 927.163579 
L 784.22888 926.145378 
L 785.059128 924.637735 
L 786.027752 922.370401 
L 787.065563 919.358766 
L 788.241748 915.260434 
L 789.625496 909.585045 
L 791.216806 902.054902 
L 793.084866 892.087746 
L 795.506424 877.857683 
L 800.003605 849.740372 
L 803.670537 827.480776 
L 806.23047 813.257904 
L 808.444467 802.167403 
L 810.450901 793.219818 
L 812.31896 785.887619 
L 814.048645 779.971926 
L 815.709143 775.076886 
L 817.231265 771.248316 
L 818.6842 768.160501 
L 820.067948 765.712273 
L 821.382509 763.809784 
L 822.627882 762.367755 
L 823.873255 761.256498 
L 825.04944 760.492682 
L 826.225626 759.989135 
L 827.401812 759.728804 
L 828.577997 759.695043 
L 829.82337 759.88789 
L 831.137931 760.326091 
L 832.521679 761.024508 
L 834.043801 762.045605 
L 835.773486 763.490666 
L 837.641546 765.346207 
L 839.786355 767.794812 
L 842.277101 770.983948 
L 845.321346 775.264803 
L 849.19584 781.124493 
L 855.353518 790.898042 
L 864.83219 805.895327 
L 870.297994 814.111101 
L 875.210299 821.102302 
L 879.915042 827.413971 
L 884.48141 833.169691 
L 888.97859 838.483723 
L 893.47577 843.45565 
L 897.972951 848.099641 
L 902.539319 852.497091 
L 907.174874 856.653068 
L 911.879616 860.574769 
L 916.722734 864.322447 
L 921.635039 867.846656 
L 926.754906 871.24677 
L 932.082335 874.513967 
L 937.617326 877.641872 
L 943.290692 880.592101 
L 949.240808 883.43448 
L 954.706612 885.839934 
L 954.706612 885.839934 
" style="fill:none;stroke:#ff0000;stroke-linecap:square;stroke-width:5;"/>
   </g>
   <g id="patch_18">
    <path d="M 591.545455 945 
L 591.545455 574.363636 
" style="fill:none;stroke:#000000;stroke-linecap:square;stroke-linejoin:miter;stroke-width:0.8;"/>
   </g>
   <g id="patch_19">
    <path d="M 972 945 
L 972 574.363636 
" style="fill:none;stroke:#000000;stroke-linecap:square;stroke-linejoin:miter;stroke-width:0.8;"/>
   </g>
   <g id="patch_20">
    <path d="M 591.545455 945 
L 972 945 
" style="fill:none;stroke:#000000;stroke-linecap:square;stroke-linejoin:miter;stroke-width:0.8;"/>
   </g>
   <g id="patch_21">
    <path d="M 591.545455 574.363636 
L 972 574.363636 
" style="fill:none;stroke:#000000;stroke-linecap:square;stroke-linejoin:miter;stroke-width:0.8;"/>
   </g>
   <g id="legend_1">
    <g id="patch_22">
     <path d="M 689.736009 930 
L 873.809446 930 
Q 879.809446 930 879.809446 924 
L 879.809446 838.93125 
Q 879.809446 832.93125 873.809446 832.93125 
L 689.736009 832.93125 
Q 683.736009 832.93125 683.736009 838.93125 
L 683.736009 924 
Q 683.736009 930 689.736009 930 
z
" style="fill:#ffffff;opacity:0.8;stroke:#cccccc;stroke-linejoin:miter;"/>
    </g>
    <g id="line2d_45">
     <path d="M 695.736009 857.226562 
L 755.736009 857.226562 
" style="fill:none;stroke:#0000ff;stroke-linecap:square;stroke-width:5;"/>
    </g>
    <g id="line2d_46"/>
    <g id="text_19">
     <!-- Port 1 -->
     <g transform="translate(779.736009 867.726562)scale(0.3 -0.3)">
      <defs>
       <path d="M 19.671875 64.796875 
L 19.671875 37.40625 
L 32.078125 37.40625 
Q 38.96875 37.40625 42.71875 40.96875 
Q 46.484375 44.53125 46.484375 51.125 
Q 46.484375 57.671875 42.71875 61.234375 
Q 38.96875 64.796875 32.078125 64.796875 
z
M 9.8125 72.90625 
L 32.078125 72.90625 
Q 44.34375 72.90625 50.609375 67.359375 
Q 56.890625 61.8125 56.890625 51.125 
Q 56.890625 40.328125 50.609375 34.8125 
Q 44.34375 29.296875 32.078125 29.296875 
L 19.671875 29.296875 
L 19.671875 0 
L 9.8125 0 
z
" id="DejaVuSans-80"/>
       <path d="M 30.609375 48.390625 
Q 23.390625 48.390625 19.1875 42.75 
Q 14.984375 37.109375 14.984375 27.296875 
Q 14.984375 17.484375 19.15625 11.84375 
Q 23.34375 6.203125 30.609375 6.203125 
Q 37.796875 6.203125 41.984375 11.859375 
Q 46.1875 17.53125 46.1875 27.296875 
Q 46.1875 37.015625 41.984375 42.703125 
Q 37.796875 48.390625 30.609375 48.390625 
z
M 30.609375 56 
Q 42.328125 56 49.015625 48.375 
Q 55.71875 40.765625 55.71875 27.296875 
Q 55.71875 13.875 49.015625 6.21875 
Q 42.328125 -1.421875 30.609375 -1.421875 
Q 18.84375 -1.421875 12.171875 6.21875 
Q 5.515625 13.875 5.515625 27.296875 
Q 5.515625 40.765625 12.171875 48.375 
Q 18.84375 56 30.609375 56 
z
" id="DejaVuSans-111"/>
       <path d="M 41.109375 46.296875 
Q 39.59375 47.171875 37.8125 47.578125 
Q 36.03125 48 33.890625 48 
Q 26.265625 48 22.1875 43.046875 
Q 18.109375 38.09375 18.109375 28.8125 
L 18.109375 0 
L 9.078125 0 
L 9.078125 54.6875 
L 18.109375 54.6875 
L 18.109375 46.1875 
Q 20.953125 51.171875 25.484375 53.578125 
Q 30.03125 56 36.53125 56 
Q 37.453125 56 38.578125 55.875 
Q 39.703125 55.765625 41.0625 55.515625 
z
" id="DejaVuSans-114"/>
       <path d="M 18.3125 70.21875 
L 18.3125 54.6875 
L 36.8125 54.6875 
L 36.8125 47.703125 
L 18.3125 47.703125 
L 18.3125 18.015625 
Q 18.3125 11.328125 20.140625 9.421875 
Q 21.96875 7.515625 27.59375 7.515625 
L 36.8125 7.515625 
L 36.8125 0 
L 27.59375 0 
Q 17.1875 0 13.234375 3.875 
Q 9.28125 7.765625 9.28125 18.015625 
L 9.28125 47.703125 
L 2.6875 47.703125 
L 2.6875 54.6875 
L 9.28125 54.6875 
L 9.28125 70.21875 
z
" id="DejaVuSans-116"/>
       <path id="DejaVuSans-32"/>
      </defs>
      <use xlink:href="#DejaVuSans-80"/>
      <use x="56.677734" xlink:href="#DejaVuSans-111"/>
      <use x="117.859375" xlink:href="#DejaVuSans-114"/>
      <use x="158.972656" xlink:href="#DejaVuSans-116"/>
      <use x="198.181641" xlink:href="#DejaVuSans-32"/>
      <use x="229.96875" xlink:href="#DejaVuSans-49"/>
     </g>
    </g>
    <g id="line2d_47">
     <path d="M 695.736009 901.260937 
L 755.736009 901.260937 
" style="fill:none;stroke:#ff0000;stroke-linecap:square;stroke-width:5;"/>
    </g>
    <g id="line2d_48"/>
    <g id="text_20">
     <!-- Port 2 -->
     <g transform="translate(779.736009 911.760937)scale(0.3 -0.3)">
      <use xlink:href="#DejaVuSans-80"/>
      <use x="56.677734" xlink:href="#DejaVuSans-111"/>
      <use x="117.859375" xlink:href="#DejaVuSans-114"/>
      <use x="158.972656" xlink:href="#DejaVuSans-116"/>
      <use x="198.181641" xlink:href="#DejaVuSans-32"/>
      <use x="229.96875" xlink:href="#DejaVuSans-50"/>
     </g>
    </g>
   </g>
  </g>
  <g id="axes_5">
   <g id="matplotlib.axis_9">
    <g id="xtick_13">
     <g id="text_21">
      <!-- 0.0 -->
      <g style="opacity:0;" transform="translate(111.145313 974.795313)scale(0.3 -0.3)">
       <use xlink:href="#DejaVuSans-48"/>
       <use x="63.623047" xlink:href="#DejaVuSans-46"/>
       <use x="95.410156" xlink:href="#DejaVuSans-48"/>
      </g>
     </g>
    </g>
    <g id="xtick_14">
     <g id="text_22">
      <!-- 0.2 -->
      <g style="opacity:0;" transform="translate(278.545312 974.795313)scale(0.3 -0.3)">
       <use xlink:href="#DejaVuSans-48"/>
       <use x="63.623047" xlink:href="#DejaVuSans-46"/>
       <use x="95.410156" xlink:href="#DejaVuSans-50"/>
      </g>
     </g>
    </g>
    <g id="xtick_15">
     <g id="text_23">
      <!-- 0.4 -->
      <g style="opacity:0;" transform="translate(445.945312 974.795313)scale(0.3 -0.3)">
       <use xlink:href="#DejaVuSans-48"/>
       <use x="63.623047" xlink:href="#DejaVuSans-46"/>
       <use x="95.410156" xlink:href="#DejaVuSans-52"/>
      </g>
     </g>
    </g>
    <g id="xtick_16">
     <g id="text_24">
      <!-- 0.6 -->
      <g style="opacity:0;" transform="translate(613.345313 974.795313)scale(0.3 -0.3)">
       <use xlink:href="#DejaVuSans-48"/>
       <use x="63.623047" xlink:href="#DejaVuSans-46"/>
       <use x="95.410156" xlink:href="#DejaVuSans-54"/>
      </g>
     </g>
    </g>
    <g id="xtick_17">
     <g id="text_25">
      <!-- 0.8 -->
      <g style="opacity:0;" transform="translate(780.745313 974.795313)scale(0.3 -0.3)">
       <use xlink:href="#DejaVuSans-48"/>
       <use x="63.623047" xlink:href="#DejaVuSans-46"/>
       <use x="95.410156" xlink:href="#DejaVuSans-56"/>
      </g>
     </g>
    </g>
    <g id="xtick_18">
     <g id="text_26">
      <!-- 1.0 -->
      <g style="opacity:0;" transform="translate(948.145313 974.795313)scale(0.3 -0.3)">
       <use xlink:href="#DejaVuSans-49"/>
       <use x="63.623047" xlink:href="#DejaVuSans-46"/>
       <use x="95.410156" xlink:href="#DejaVuSans-48"/>
      </g>
     </g>
    </g>
    <g id="text_27">
     <!-- $(\omega-\omega_{c})/\kappa$ -->
     <g transform="translate(477.9 1007.829687)scale(0.3 -0.3)">
      <defs>
       <path d="M 31 75.875 
Q 24.46875 64.65625 21.28125 53.65625 
Q 18.109375 42.671875 18.109375 31.390625 
Q 18.109375 20.125 21.3125 9.0625 
Q 24.515625 -2 31 -13.1875 
L 23.1875 -13.1875 
Q 15.875 -1.703125 12.234375 9.375 
Q 8.59375 20.453125 8.59375 31.390625 
Q 8.59375 42.28125 12.203125 53.3125 
Q 15.828125 64.359375 23.1875 75.875 
z
" id="DejaVuSans-40"/>
       <path d="M 26.859375 -1.421875 
Q 6.59375 -1.421875 6.59375 27.59375 
Q 6.59375 39.0625 14.15625 54.6875 
L 23.828125 54.6875 
Q 16.84375 39.0625 16.84375 27.34375 
Q 16.84375 6.203125 27.6875 6.203125 
Q 37.59375 6.203125 37.59375 32.46875 
L 45.90625 32.46875 
Q 45.90625 6.203125 55.8125 6.203125 
Q 66.65625 6.203125 66.65625 27.34375 
Q 66.65625 39.0625 59.671875 54.6875 
L 69.34375 54.6875 
Q 76.90625 39.0625 76.90625 27.59375 
Q 76.90625 -1.421875 56.640625 -1.421875 
Q 43.359375 -1.421875 41.75 13.1875 
Q 39.75 -1.421875 26.859375 -1.421875 
z
" id="DejaVuSans-969"/>
       <path d="M 48.78125 52.59375 
L 48.78125 44.1875 
Q 44.96875 46.296875 41.140625 47.34375 
Q 37.3125 48.390625 33.40625 48.390625 
Q 24.65625 48.390625 19.8125 42.84375 
Q 14.984375 37.3125 14.984375 27.296875 
Q 14.984375 17.28125 19.8125 11.734375 
Q 24.65625 6.203125 33.40625 6.203125 
Q 37.3125 6.203125 41.140625 7.25 
Q 44.96875 8.296875 48.78125 10.40625 
L 48.78125 2.09375 
Q 45.015625 0.34375 40.984375 -0.53125 
Q 36.96875 -1.421875 32.421875 -1.421875 
Q 20.0625 -1.421875 12.78125 6.34375 
Q 5.515625 14.109375 5.515625 27.296875 
Q 5.515625 40.671875 12.859375 48.328125 
Q 20.21875 56 33.015625 56 
Q 37.15625 56 41.109375 55.140625 
Q 45.0625 54.296875 48.78125 52.59375 
z
" id="DejaVuSans-99"/>
       <path d="M 8.015625 75.875 
L 15.828125 75.875 
Q 23.140625 64.359375 26.78125 53.3125 
Q 30.421875 42.28125 30.421875 31.390625 
Q 30.421875 20.453125 26.78125 9.375 
Q 23.140625 -1.703125 15.828125 -13.1875 
L 8.015625 -13.1875 
Q 14.5 -2 17.703125 9.0625 
Q 20.90625 20.125 20.90625 31.390625 
Q 20.90625 42.671875 17.703125 53.65625 
Q 14.5 64.65625 8.015625 75.875 
z
" id="DejaVuSans-41"/>
       <path d="M 25.390625 72.90625 
L 33.6875 72.90625 
L 8.296875 -9.28125 
L 0 -9.28125 
z
" id="DejaVuSans-47"/>
       <path d="M 9.328125 54.6875 
L 18.609375 54.6875 
L 18.609375 31.984375 
L 42.1875 54.6875 
L 53.125 54.6875 
L 31.59375 34.078125 
L 56.5 0 
L 45.515625 0 
L 25.296875 28.21875 
L 18.609375 21.921875 
L 18.609375 0 
L 9.328125 0 
z
" id="DejaVuSans-954"/>
      </defs>
      <use transform="translate(0 0.125)" xlink:href="#DejaVuSans-40"/>
      <use transform="translate(39.013672 0.125)" xlink:href="#DejaVuSans-969"/>
      <use transform="translate(142.236328 0.125)" xlink:href="#DejaVuSans-8722"/>
      <use transform="translate(245.507812 0.125)" xlink:href="#DejaVuSans-969"/>
      <use transform="translate(330.205078 -16.28125)scale(0.7)" xlink:href="#DejaVuSans-99"/>
      <use transform="translate(371.425781 0.125)" xlink:href="#DejaVuSans-41"/>
      <use transform="translate(410.439453 0.125)" xlink:href="#DejaVuSans-47"/>
      <use transform="translate(444.130859 0.125)" xlink:href="#DejaVuSans-954"/>
     </g>
    </g>
   </g>
   <g id="matplotlib.axis_10">
    <g id="ytick_25">
     <g id="text_28">
      <!-- 0.0 -->
      <g style="opacity:0;" transform="translate(80.290625 956.397656)scale(0.3 -0.3)">
       <use xlink:href="#DejaVuSans-48"/>
       <use x="63.623047" xlink:href="#DejaVuSans-46"/>
       <use x="95.410156" xlink:href="#DejaVuSans-48"/>
      </g>
     </g>
    </g>
    <g id="ytick_26">
     <g id="text_29">
      <!-- 0.2 -->
      <g style="opacity:0;" transform="translate(80.290625 793.317656)scale(0.3 -0.3)">
       <use xlink:href="#DejaVuSans-48"/>
       <use x="63.623047" xlink:href="#DejaVuSans-46"/>
       <use x="95.410156" xlink:href="#DejaVuSans-50"/>
      </g>
     </g>
    </g>
    <g id="ytick_27">
     <g id="text_30">
      <!-- 0.4 -->
      <g style="opacity:0;" transform="translate(80.290625 630.237656)scale(0.3 -0.3)">
       <use xlink:href="#DejaVuSans-48"/>
       <use x="63.623047" xlink:href="#DejaVuSans-46"/>
       <use x="95.410156" xlink:href="#DejaVuSans-52"/>
      </g>
     </g>
    </g>
    <g id="ytick_28">
     <g id="text_31">
      <!-- 0.6 -->
      <g style="opacity:0;" transform="translate(80.290625 467.157656)scale(0.3 -0.3)">
       <use xlink:href="#DejaVuSans-48"/>
       <use x="63.623047" xlink:href="#DejaVuSans-46"/>
       <use x="95.410156" xlink:href="#DejaVuSans-54"/>
      </g>
     </g>
    </g>
    <g id="ytick_29">
     <g id="text_32">
      <!-- 0.8 -->
      <g style="opacity:0;" transform="translate(80.290625 304.077656)scale(0.3 -0.3)">
       <use xlink:href="#DejaVuSans-48"/>
       <use x="63.623047" xlink:href="#DejaVuSans-46"/>
       <use x="95.410156" xlink:href="#DejaVuSans-56"/>
      </g>
     </g>
    </g>
    <g id="ytick_30">
     <g id="text_33">
      <!-- 1.0 -->
      <g style="opacity:0;" transform="translate(80.290625 140.997656)scale(0.3 -0.3)">
       <use xlink:href="#DejaVuSans-49"/>
       <use x="63.623047" xlink:href="#DejaVuSans-46"/>
       <use x="95.410156" xlink:href="#DejaVuSans-48"/>
      </g>
     </g>
    </g>
   </g>
  </g>
 </g>
 <defs>
  <clipPath id="p03ff89c52f">
   <rect height="370.636364" width="380.454545" x="135" y="129.6"/>
  </clipPath>
  <clipPath id="p4ab658ee3f">
   <rect height="370.636364" width="380.454545" x="591.545455" y="129.6"/>
  </clipPath>
  <clipPath id="p184add6d5a">
   <rect height="370.636364" width="380.454545" x="135" y="574.363636"/>
  </clipPath>
  <clipPath id="p2631939010">
   <rect height="370.636364" width="380.454545" x="591.545455" y="574.363636"/>
  </clipPath>
 </defs>
</svg>
