<?xml version="1.0" encoding="utf-8" standalone="no"?>
<!DOCTYPE svg PUBLIC "-//W3C//DTD SVG 1.1//EN"
  "http://www.w3.org/Graphics/SVG/1.1/DTD/svg11.dtd">
<!-- Created with matplotlib (https://matplotlib.org/) -->
<svg height="1080pt" version="1.1" viewBox="0 0 1080 1080" width="1080pt" xmlns="http://www.w3.org/2000/svg" xmlns:xlink="http://www.w3.org/1999/xlink">
 <metadata>
  <rdf:RDF xmlns:cc="http://creativecommons.org/ns#" xmlns:dc="http://purl.org/dc/elements/1.1/" xmlns:rdf="http://www.w3.org/1999/02/22-rdf-syntax-ns#">
   <cc:Work>
    <dc:type rdf:resource="http://purl.org/dc/dcmitype/StillImage"/>
    <dc:date>2021-04-21T01:17:18.540181</dc:date>
    <dc:format>image/svg+xml</dc:format>
    <dc:creator>
     <cc:Agent>
      <dc:title>Matplotlib v3.3.2, https://matplotlib.org/</dc:title>
     </cc:Agent>
    </dc:creator>
   </cc:Work>
  </rdf:RDF>
 </metadata>
 <defs>
  <style type="text/css">*{stroke-linecap:butt;stroke-linejoin:round;}</style>
 </defs>
 <g id="figure_1">
  <g id="patch_1">
   <path d="M 0 1080 
L 1080 1080 
L 1080 0 
L 0 0 
z
" style="fill:none;"/>
  </g>
  <g id="axes_1">
   <g id="patch_2">
    <path d="M 135 369.423529 
L 972 369.423529 
L 972 129.6 
L 135 129.6 
z
" style="fill:#ffffff;"/>
   </g>
   <g id="matplotlib.axis_1">
    <g id="xtick_1">
     <g id="line2d_1">
      <defs>
       <path d="M 0 0 
L 0 3.5 
" id="m7935f8087a" style="stroke:#000000;stroke-width:0.8;"/>
      </defs>
      <g>
       <use style="stroke:#000000;stroke-width:0.8;" x="173.045455" xlink:href="#m7935f8087a" y="369.423529"/>
      </g>
     </g>
    </g>
    <g id="xtick_2">
     <g id="line2d_2">
      <g>
       <use style="stroke:#000000;stroke-width:0.8;" x="268.159091" xlink:href="#m7935f8087a" y="369.423529"/>
      </g>
     </g>
    </g>
    <g id="xtick_3">
     <g id="line2d_3">
      <g>
       <use style="stroke:#000000;stroke-width:0.8;" x="363.272727" xlink:href="#m7935f8087a" y="369.423529"/>
      </g>
     </g>
    </g>
    <g id="xtick_4">
     <g id="line2d_4">
      <g>
       <use style="stroke:#000000;stroke-width:0.8;" x="458.386364" xlink:href="#m7935f8087a" y="369.423529"/>
      </g>
     </g>
    </g>
    <g id="xtick_5">
     <g id="line2d_5">
      <g>
       <use style="stroke:#000000;stroke-width:0.8;" x="553.5" xlink:href="#m7935f8087a" y="369.423529"/>
      </g>
     </g>
    </g>
    <g id="xtick_6">
     <g id="line2d_6">
      <g>
       <use style="stroke:#000000;stroke-width:0.8;" x="648.613636" xlink:href="#m7935f8087a" y="369.423529"/>
      </g>
     </g>
    </g>
    <g id="xtick_7">
     <g id="line2d_7">
      <g>
       <use style="stroke:#000000;stroke-width:0.8;" x="743.727273" xlink:href="#m7935f8087a" y="369.423529"/>
      </g>
     </g>
    </g>
    <g id="xtick_8">
     <g id="line2d_8">
      <g>
       <use style="stroke:#000000;stroke-width:0.8;" x="838.840909" xlink:href="#m7935f8087a" y="369.423529"/>
      </g>
     </g>
    </g>
    <g id="xtick_9">
     <g id="line2d_9">
      <g>
       <use style="stroke:#000000;stroke-width:0.8;" x="933.954545" xlink:href="#m7935f8087a" y="369.423529"/>
      </g>
     </g>
    </g>
   </g>
   <g id="matplotlib.axis_2">
    <g id="ytick_1">
     <g id="line2d_10">
      <defs>
       <path d="M 0 0 
L -3.5 0 
" id="mc4be9d222c" style="stroke:#000000;stroke-width:0.8;"/>
      </defs>
      <g>
       <use style="stroke:#000000;stroke-width:0.8;" x="135" xlink:href="#mc4be9d222c" y="369.423529"/>
      </g>
     </g>
     <g id="text_1">
      <!-- 0 -->
      <g transform="translate(108.9125 380.821186)scale(0.3 -0.3)">
       <defs>
        <path d="M 31.78125 66.40625 
Q 24.171875 66.40625 20.328125 58.90625 
Q 16.5 51.421875 16.5 36.375 
Q 16.5 21.390625 20.328125 13.890625 
Q 24.171875 6.390625 31.78125 6.390625 
Q 39.453125 6.390625 43.28125 13.890625 
Q 47.125 21.390625 47.125 36.375 
Q 47.125 51.421875 43.28125 58.90625 
Q 39.453125 66.40625 31.78125 66.40625 
z
M 31.78125 74.21875 
Q 44.046875 74.21875 50.515625 64.515625 
Q 56.984375 54.828125 56.984375 36.375 
Q 56.984375 17.96875 50.515625 8.265625 
Q 44.046875 -1.421875 31.78125 -1.421875 
Q 19.53125 -1.421875 13.0625 8.265625 
Q 6.59375 17.96875 6.59375 36.375 
Q 6.59375 54.828125 13.0625 64.515625 
Q 19.53125 74.21875 31.78125 74.21875 
z
" id="DejaVuSans-48"/>
       </defs>
       <use xlink:href="#DejaVuSans-48"/>
      </g>
     </g>
    </g>
    <g id="ytick_2">
     <g id="line2d_11">
      <g>
       <use style="stroke:#000000;stroke-width:0.8;" x="135" xlink:href="#mc4be9d222c" y="249.511765"/>
      </g>
     </g>
     <g id="text_2">
      <!-- 1 -->
      <g transform="translate(108.9125 260.909421)scale(0.3 -0.3)">
       <defs>
        <path d="M 12.40625 8.296875 
L 28.515625 8.296875 
L 28.515625 63.921875 
L 10.984375 60.40625 
L 10.984375 69.390625 
L 28.421875 72.90625 
L 38.28125 72.90625 
L 38.28125 8.296875 
L 54.390625 8.296875 
L 54.390625 0 
L 12.40625 0 
z
" id="DejaVuSans-49"/>
       </defs>
       <use xlink:href="#DejaVuSans-49"/>
      </g>
     </g>
    </g>
    <g id="ytick_3">
     <g id="line2d_12">
      <g>
       <use style="stroke:#000000;stroke-width:0.8;" x="135" xlink:href="#mc4be9d222c" y="129.6"/>
      </g>
     </g>
     <g id="text_3">
      <!-- 2 -->
      <g transform="translate(108.9125 140.997656)scale(0.3 -0.3)">
       <defs>
        <path d="M 19.1875 8.296875 
L 53.609375 8.296875 
L 53.609375 0 
L 7.328125 0 
L 7.328125 8.296875 
Q 12.9375 14.109375 22.625 23.890625 
Q 32.328125 33.6875 34.8125 36.53125 
Q 39.546875 41.84375 41.421875 45.53125 
Q 43.3125 49.21875 43.3125 52.78125 
Q 43.3125 58.59375 39.234375 62.25 
Q 35.15625 65.921875 28.609375 65.921875 
Q 23.96875 65.921875 18.8125 64.3125 
Q 13.671875 62.703125 7.8125 59.421875 
L 7.8125 69.390625 
Q 13.765625 71.78125 18.9375 73 
Q 24.125 74.21875 28.421875 74.21875 
Q 39.75 74.21875 46.484375 68.546875 
Q 53.21875 62.890625 53.21875 53.421875 
Q 53.21875 48.921875 51.53125 44.890625 
Q 49.859375 40.875 45.40625 35.40625 
Q 44.1875 33.984375 37.640625 27.21875 
Q 31.109375 20.453125 19.1875 8.296875 
z
" id="DejaVuSans-50"/>
       </defs>
       <use xlink:href="#DejaVuSans-50"/>
      </g>
     </g>
    </g>
   </g>
   <g id="line2d_13">
    <path clip-path="url(#pa4883576c9)" d="M 173.045455 361.338882 
L 199.834812 360.165371 
L 223.427713 358.91414 
L 244.433005 357.582281 
L 263.307325 356.166919 
L 280.355098 354.669575 
L 295.880749 353.086225 
L 310.036489 351.42347 
L 323.126744 349.665033 
L 335.151512 347.829991 
L 346.415219 345.888881 
L 356.917865 343.855464 
L 366.811662 341.714135 
L 376.09661 339.478384 
L 384.924921 337.123749 
L 393.296596 334.660601 
L 401.211633 332.103162 
L 408.822246 329.413616 
L 416.128435 326.599806 
L 423.282411 323.606568 
L 430.284175 320.432514 
L 437.133727 317.079084 
L 443.831066 313.551206 
L 450.528406 309.769063 
L 457.225745 305.729224 
L 464.075297 301.334272 
L 471.229273 296.473752 
L 478.992098 290.921795 
L 488.277046 283.99146 
L 510.347824 267.390202 
L 516.284102 263.278583 
L 521.307107 260.05939 
L 525.721262 257.483061 
L 529.830993 255.338221 
L 533.6363 253.601963 
L 537.137182 252.240174 
L 540.485852 251.167972 
L 543.682309 250.373457 
L 546.574342 249.875026 
L 548.857526 249.691998 
L 550.227436 249.785027 
L 550.988498 250.038835 
L 551.445134 250.384893 
L 551.749559 250.799429 
L 552.053984 251.522371 
L 552.358408 252.929102 
L 552.662833 256.184875 
L 552.815045 259.647384 
L 552.967257 266.256834 
L 553.119469 280.407398 
L 553.423894 342.429046 
L 553.880531 266.256834 
L 554.184955 256.184875 
L 554.48938 252.929102 
L 554.793804 251.522371 
L 555.250441 250.565755 
L 555.707078 250.129692 
L 556.315927 249.856858 
L 557.2292 249.709931 
L 558.751323 249.723318 
L 561.034507 249.982936 
L 563.92654 250.54109 
L 567.122997 251.390875 
L 570.471667 252.515974 
L 573.972549 253.928681 
L 577.625643 255.639101 
L 581.583162 257.737168 
L 585.997318 260.340322 
L 590.86811 263.482138 
L 596.499964 267.390202 
L 603.65394 272.645582 
L 617.048619 282.835356 
L 628.007902 291.033093 
L 636.075151 296.791778 
L 643.38134 301.735471 
L 650.230892 306.107109 
L 656.928231 310.123522 
L 663.625571 313.882329 
L 670.32291 317.387443 
L 677.172462 320.718506 
L 684.022013 323.804991 
L 691.17599 326.782674 
L 698.482178 329.581738 
L 706.092791 332.257143 
L 714.007829 334.801138 
L 722.227291 337.208945 
L 730.90339 339.516954 
L 740.036125 341.714135 
L 749.77771 343.82425 
L 759.975932 345.805175 
L 770.935214 347.705971 
L 782.655558 349.511434 
L 795.289176 351.230604 
L 808.988279 352.867242 
L 823.905081 354.421338 
L 840.191793 355.890577 
L 858.15284 357.282441 
L 877.940434 358.588497 
L 900.011211 359.817726 
L 924.669598 360.964563 
L 933.954545 361.344913 
L 933.954545 361.344913 
" style="fill:none;stroke:#0000ff;stroke-linecap:square;stroke-width:5;"/>
   </g>
   <g id="line2d_14">
    <path clip-path="url(#pa4883576c9)" d="M 173.045455 257.596417 
L 199.6826 258.76257 
L 223.275501 260.012325 
L 244.280793 261.342516 
L 263.002901 262.743658 
L 280.050674 264.236914 
L 295.576324 265.815752 
L 309.884277 267.492709 
L 322.974531 269.248464 
L 335.151512 271.105318 
L 346.415219 273.046431 
L 356.917865 275.079844 
L 366.811662 277.221175 
L 376.09661 279.456943 
L 384.924921 281.811584 
L 393.296596 284.274736 
L 401.211633 286.832175 
L 408.822246 289.521739 
L 416.128435 292.335545 
L 423.282411 295.328798 
L 430.284175 298.502863 
L 437.133727 301.856311 
L 443.831066 305.384217 
L 450.528406 309.166374 
L 457.225745 313.206234 
L 464.075297 317.601237 
L 471.229273 322.461814 
L 478.992098 328.013849 
L 488.277046 334.944316 
L 510.347824 351.54638 
L 516.284102 355.658517 
L 521.307107 358.878374 
L 525.721262 361.45566 
L 529.830993 363.601841 
L 533.6363 365.340202 
L 537.137182 366.705388 
L 540.485852 367.783711 
L 543.682309 368.59091 
L 546.726554 369.141351 
L 549.314163 369.404342 
L 550.836285 369.382707 
L 551.597347 369.192402 
L 552.053984 368.860461 
L 552.358408 368.361957 
L 552.662833 367.199634 
L 552.815045 365.960695 
L 552.967257 363.593969 
L 553.119469 358.525195 
L 553.423894 336.305787 
L 553.880531 363.593969 
L 554.184955 367.199634 
L 554.48938 368.361957 
L 554.946016 369.005936 
L 555.554866 369.299211 
L 556.468139 369.416793 
L 558.142474 369.364783 
L 560.730082 369.049605 
L 563.774328 368.454587 
L 566.970785 367.604913 
L 570.319455 366.484946 
L 573.820337 365.079277 
L 577.473431 363.376582 
L 581.43095 361.286493 
L 585.692893 358.784995 
L 590.563685 355.658517 
L 596.195539 351.763785 
L 603.197303 346.632867 
L 615.526496 337.259862 
L 627.24684 328.459912 
L 635.466302 322.568051 
L 642.772491 317.601237 
L 649.774255 313.111579 
L 656.471594 309.077562 
L 663.168934 305.301237 
L 669.866273 301.779041 
L 676.563613 298.502863 
L 683.413164 295.395175 
L 690.414928 292.457992 
L 697.721117 289.634309 
L 705.33173 286.935289 
L 713.246768 284.368859 
L 721.46623 281.939928 
L 729.990116 279.650763 
L 739.122852 277.43092 
L 748.712224 275.330979 
L 758.910446 273.327034 
L 769.869728 271.404639 
L 781.590073 269.579148 
L 794.22369 267.84144 
L 807.770581 266.204894 
L 822.687383 264.632853 
L 838.821883 263.160159 
L 856.630717 261.762605 
L 876.266099 260.449218 
L 898.032452 259.219261 
L 922.538626 258.061727 
L 933.954545 257.590392 
L 933.954545 257.590392 
" style="fill:none;stroke:#ff0000;stroke-linecap:square;stroke-width:5;"/>
   </g>
   <g id="line2d_15">
    <path clip-path="url(#pa4883576c9)" d="M 173.045455 240.685938 
L 195.877294 239.499186 
L 216.273737 238.222679 
L 234.234783 236.883361 
L 250.217071 235.478745 
L 264.677235 233.993637 
L 277.919702 232.41447 
L 289.944471 230.75957 
L 300.751541 229.055854 
L 310.645338 227.281466 
L 319.930286 225.394651 
L 328.454173 223.43975 
L 336.521422 221.3588 
L 343.827611 219.248132 
L 350.677163 217.042604 
L 357.22229 214.698047 
L 363.31078 212.277372 
L 368.942634 209.80212 
L 374.270063 207.222059 
L 379.293068 204.547526 
L 384.16386 201.699371 
L 388.730228 198.771165 
L 393.144383 195.671797 
L 397.254114 192.51828 
L 401.211633 189.20648 
L 405.01694 185.736138 
L 408.670034 182.108641 
L 412.170916 178.327177 
L 415.519586 174.397564 
L 418.868255 170.125824 
L 422.064713 165.690897 
L 425.26117 160.864998 
L 428.305416 155.861446 
L 431.349661 150.41196 
L 434.241694 144.771627 
L 437.133727 138.62425 
L 439.873547 132.27552 
L 442.613368 125.352647 
L 445.200977 118.222559 
L 447.788585 110.446327 
L 450.376193 101.942844 
L 452.81159 93.191006 
L 455.246986 83.620345 
L 457.682382 73.125309 
L 460.117778 61.582337 
L 462.400962 49.681114 
L 464.684146 36.592981 
L 466.96733 22.154753 
L 469.098301 7.292632 
L 470.202954 -1 
M 553.293836 -1 
L 553.423894 334.523737 
L 553.553951 -1 
M 636.644833 -1 
L 638.814972 14.902275 
L 641.098156 30.034077 
L 643.38134 43.73033 
L 645.816736 56.954862 
L 648.252132 68.926843 
L 650.687528 79.799228 
L 653.122925 89.703296 
L 655.710533 99.290053 
L 658.298141 108.024737 
L 660.88575 116.005925 
L 663.625571 123.729295 
L 666.365391 130.78901 
L 669.105212 137.259702 
L 671.997245 143.521607 
L 674.889278 149.263832 
L 677.933523 154.809007 
L 680.977768 159.897568 
L 684.174226 164.803245 
L 687.370683 169.309173 
L 690.719353 173.647526 
L 694.220235 177.810198 
L 697.721117 181.633045 
L 701.374211 185.299252 
L 705.179518 188.805473 
L 709.137036 192.150523 
L 713.246768 195.334759 
L 717.508711 198.360139 
L 722.075079 201.324066 
L 726.793659 204.11986 
L 731.816663 206.832674 
L 737.144092 209.448457 
L 742.775946 211.956887 
L 748.712224 214.35046 
L 754.952927 216.624945 
L 761.498054 218.778125 
L 768.65203 220.895341 
L 776.262643 222.913395 
L 784.482106 224.859461 
L 793.310417 226.718516 
L 802.899789 228.506828 
L 813.250223 230.208599 
L 824.666142 231.854207 
L 836.995335 233.403885 
L 850.694439 234.896212 
L 865.459028 236.282187 
L 882.202377 237.626566 
L 900.924485 238.899313 
L 921.320928 240.065252 
L 933.954545 240.693099 
L 933.954545 240.693099 
" style="fill:none;stroke:#ff0000;stroke-linecap:square;stroke-width:5;"/>
   </g>
   <g id="line2d_16">
    <path clip-path="url(#pa4883576c9)" d="M 173.045455 249.511765 
L 550.988498 249.408715 
L 551.901771 249.251832 
L 552.358408 248.99613 
L 552.662833 248.554684 
L 552.967257 247.318902 
L 553.119469 246.067896 
L 553.271682 248.02527 
L 553.423894 278.651171 
L 553.576106 248.025327 
L 553.728318 246.067968 
L 554.032743 248.105777 
L 554.337167 248.824223 
L 554.793804 249.192867 
L 555.554866 249.37751 
L 557.381413 249.472769 
L 565.144238 249.507648 
L 718.421984 249.511793 
L 933.954545 249.511736 
L 933.954545 249.511736 
" style="fill:none;stroke:#0000ff;stroke-linecap:square;stroke-width:5;"/>
   </g>
   <g id="patch_3">
    <path d="M 135 369.423529 
L 135 129.6 
" style="fill:none;stroke:#000000;stroke-linecap:square;stroke-linejoin:miter;stroke-width:0.8;"/>
   </g>
   <g id="patch_4">
    <path d="M 972 369.423529 
L 972 129.6 
" style="fill:none;stroke:#000000;stroke-linecap:square;stroke-linejoin:miter;stroke-width:0.8;"/>
   </g>
   <g id="patch_5">
    <path d="M 135 369.423529 
L 972 369.423529 
" style="fill:none;stroke:#000000;stroke-linecap:square;stroke-linejoin:miter;stroke-width:0.8;"/>
   </g>
   <g id="patch_6">
    <path d="M 135 129.6 
L 972 129.6 
" style="fill:none;stroke:#000000;stroke-linecap:square;stroke-linejoin:miter;stroke-width:0.8;"/>
   </g>
   <g id="legend_1">
    <g id="patch_7">
     <path d="M 408.614062 241.66875 
L 698.385937 241.66875 
Q 704.385937 241.66875 704.385937 235.66875 
L 704.385937 150.6 
Q 704.385937 144.6 698.385937 144.6 
L 408.614062 144.6 
Q 402.614062 144.6 402.614062 150.6 
L 402.614062 235.66875 
Q 402.614062 241.66875 408.614062 241.66875 
z
" style="fill:#ffffff;opacity:0.8;stroke:#cccccc;stroke-linejoin:miter;"/>
    </g>
    <g id="line2d_17">
     <path d="M 414.614062 168.895313 
L 474.614062 168.895313 
" style="fill:none;stroke:#0000ff;stroke-linecap:square;stroke-width:5;"/>
    </g>
    <g id="line2d_18"/>
    <g id="text_4">
     <!-- Transmission -->
     <g transform="translate(498.614062 179.395313)scale(0.3 -0.3)">
      <defs>
       <path d="M -0.296875 72.90625 
L 61.375 72.90625 
L 61.375 64.59375 
L 35.5 64.59375 
L 35.5 0 
L 25.59375 0 
L 25.59375 64.59375 
L -0.296875 64.59375 
z
" id="DejaVuSans-84"/>
       <path d="M 41.109375 46.296875 
Q 39.59375 47.171875 37.8125 47.578125 
Q 36.03125 48 33.890625 48 
Q 26.265625 48 22.1875 43.046875 
Q 18.109375 38.09375 18.109375 28.8125 
L 18.109375 0 
L 9.078125 0 
L 9.078125 54.6875 
L 18.109375 54.6875 
L 18.109375 46.1875 
Q 20.953125 51.171875 25.484375 53.578125 
Q 30.03125 56 36.53125 56 
Q 37.453125 56 38.578125 55.875 
Q 39.703125 55.765625 41.0625 55.515625 
z
" id="DejaVuSans-114"/>
       <path d="M 34.28125 27.484375 
Q 23.390625 27.484375 19.1875 25 
Q 14.984375 22.515625 14.984375 16.5 
Q 14.984375 11.71875 18.140625 8.90625 
Q 21.296875 6.109375 26.703125 6.109375 
Q 34.1875 6.109375 38.703125 11.40625 
Q 43.21875 16.703125 43.21875 25.484375 
L 43.21875 27.484375 
z
M 52.203125 31.203125 
L 52.203125 0 
L 43.21875 0 
L 43.21875 8.296875 
Q 40.140625 3.328125 35.546875 0.953125 
Q 30.953125 -1.421875 24.3125 -1.421875 
Q 15.921875 -1.421875 10.953125 3.296875 
Q 6 8.015625 6 15.921875 
Q 6 25.140625 12.171875 29.828125 
Q 18.359375 34.515625 30.609375 34.515625 
L 43.21875 34.515625 
L 43.21875 35.40625 
Q 43.21875 41.609375 39.140625 45 
Q 35.0625 48.390625 27.6875 48.390625 
Q 23 48.390625 18.546875 47.265625 
Q 14.109375 46.140625 10.015625 43.890625 
L 10.015625 52.203125 
Q 14.9375 54.109375 19.578125 55.046875 
Q 24.21875 56 28.609375 56 
Q 40.484375 56 46.34375 49.84375 
Q 52.203125 43.703125 52.203125 31.203125 
z
" id="DejaVuSans-97"/>
       <path d="M 54.890625 33.015625 
L 54.890625 0 
L 45.90625 0 
L 45.90625 32.71875 
Q 45.90625 40.484375 42.875 44.328125 
Q 39.84375 48.1875 33.796875 48.1875 
Q 26.515625 48.1875 22.3125 43.546875 
Q 18.109375 38.921875 18.109375 30.90625 
L 18.109375 0 
L 9.078125 0 
L 9.078125 54.6875 
L 18.109375 54.6875 
L 18.109375 46.1875 
Q 21.34375 51.125 25.703125 53.5625 
Q 30.078125 56 35.796875 56 
Q 45.21875 56 50.046875 50.171875 
Q 54.890625 44.34375 54.890625 33.015625 
z
" id="DejaVuSans-110"/>
       <path d="M 44.28125 53.078125 
L 44.28125 44.578125 
Q 40.484375 46.53125 36.375 47.5 
Q 32.28125 48.484375 27.875 48.484375 
Q 21.1875 48.484375 17.84375 46.4375 
Q 14.5 44.390625 14.5 40.28125 
Q 14.5 37.15625 16.890625 35.375 
Q 19.28125 33.59375 26.515625 31.984375 
L 29.59375 31.296875 
Q 39.15625 29.25 43.1875 25.515625 
Q 47.21875 21.78125 47.21875 15.09375 
Q 47.21875 7.46875 41.1875 3.015625 
Q 35.15625 -1.421875 24.609375 -1.421875 
Q 20.21875 -1.421875 15.453125 -0.5625 
Q 10.6875 0.296875 5.421875 2 
L 5.421875 11.28125 
Q 10.40625 8.6875 15.234375 7.390625 
Q 20.0625 6.109375 24.8125 6.109375 
Q 31.15625 6.109375 34.5625 8.28125 
Q 37.984375 10.453125 37.984375 14.40625 
Q 37.984375 18.0625 35.515625 20.015625 
Q 33.0625 21.96875 24.703125 23.78125 
L 21.578125 24.515625 
Q 13.234375 26.265625 9.515625 29.90625 
Q 5.8125 33.546875 5.8125 39.890625 
Q 5.8125 47.609375 11.28125 51.796875 
Q 16.75 56 26.8125 56 
Q 31.78125 56 36.171875 55.265625 
Q 40.578125 54.546875 44.28125 53.078125 
z
" id="DejaVuSans-115"/>
       <path d="M 52 44.1875 
Q 55.375 50.25 60.0625 53.125 
Q 64.75 56 71.09375 56 
Q 79.640625 56 84.28125 50.015625 
Q 88.921875 44.046875 88.921875 33.015625 
L 88.921875 0 
L 79.890625 0 
L 79.890625 32.71875 
Q 79.890625 40.578125 77.09375 44.375 
Q 74.3125 48.1875 68.609375 48.1875 
Q 61.625 48.1875 57.5625 43.546875 
Q 53.515625 38.921875 53.515625 30.90625 
L 53.515625 0 
L 44.484375 0 
L 44.484375 32.71875 
Q 44.484375 40.625 41.703125 44.40625 
Q 38.921875 48.1875 33.109375 48.1875 
Q 26.21875 48.1875 22.15625 43.53125 
Q 18.109375 38.875 18.109375 30.90625 
L 18.109375 0 
L 9.078125 0 
L 9.078125 54.6875 
L 18.109375 54.6875 
L 18.109375 46.1875 
Q 21.1875 51.21875 25.484375 53.609375 
Q 29.78125 56 35.6875 56 
Q 41.65625 56 45.828125 52.96875 
Q 50 49.953125 52 44.1875 
z
" id="DejaVuSans-109"/>
       <path d="M 9.421875 54.6875 
L 18.40625 54.6875 
L 18.40625 0 
L 9.421875 0 
z
M 9.421875 75.984375 
L 18.40625 75.984375 
L 18.40625 64.59375 
L 9.421875 64.59375 
z
" id="DejaVuSans-105"/>
       <path d="M 30.609375 48.390625 
Q 23.390625 48.390625 19.1875 42.75 
Q 14.984375 37.109375 14.984375 27.296875 
Q 14.984375 17.484375 19.15625 11.84375 
Q 23.34375 6.203125 30.609375 6.203125 
Q 37.796875 6.203125 41.984375 11.859375 
Q 46.1875 17.53125 46.1875 27.296875 
Q 46.1875 37.015625 41.984375 42.703125 
Q 37.796875 48.390625 30.609375 48.390625 
z
M 30.609375 56 
Q 42.328125 56 49.015625 48.375 
Q 55.71875 40.765625 55.71875 27.296875 
Q 55.71875 13.875 49.015625 6.21875 
Q 42.328125 -1.421875 30.609375 -1.421875 
Q 18.84375 -1.421875 12.171875 6.21875 
Q 5.515625 13.875 5.515625 27.296875 
Q 5.515625 40.765625 12.171875 48.375 
Q 18.84375 56 30.609375 56 
z
" id="DejaVuSans-111"/>
      </defs>
      <use xlink:href="#DejaVuSans-84"/>
      <use x="46.333984" xlink:href="#DejaVuSans-114"/>
      <use x="87.447266" xlink:href="#DejaVuSans-97"/>
      <use x="148.726562" xlink:href="#DejaVuSans-110"/>
      <use x="212.105469" xlink:href="#DejaVuSans-115"/>
      <use x="264.205078" xlink:href="#DejaVuSans-109"/>
      <use x="361.617188" xlink:href="#DejaVuSans-105"/>
      <use x="389.400391" xlink:href="#DejaVuSans-115"/>
      <use x="441.5" xlink:href="#DejaVuSans-115"/>
      <use x="493.599609" xlink:href="#DejaVuSans-105"/>
      <use x="521.382812" xlink:href="#DejaVuSans-111"/>
      <use x="582.564453" xlink:href="#DejaVuSans-110"/>
     </g>
    </g>
    <g id="line2d_19">
     <path d="M 414.614062 212.929688 
L 474.614062 212.929688 
" style="fill:none;stroke:#ff0000;stroke-linecap:square;stroke-width:5;"/>
    </g>
    <g id="line2d_20"/>
    <g id="text_5">
     <!-- Reflection -->
     <g transform="translate(498.614062 223.429688)scale(0.3 -0.3)">
      <defs>
       <path d="M 44.390625 34.1875 
Q 47.5625 33.109375 50.5625 29.59375 
Q 53.5625 26.078125 56.59375 19.921875 
L 66.609375 0 
L 56 0 
L 46.6875 18.703125 
Q 43.0625 26.03125 39.671875 28.421875 
Q 36.28125 30.8125 30.421875 30.8125 
L 19.671875 30.8125 
L 19.671875 0 
L 9.8125 0 
L 9.8125 72.90625 
L 32.078125 72.90625 
Q 44.578125 72.90625 50.734375 67.671875 
Q 56.890625 62.453125 56.890625 51.90625 
Q 56.890625 45.015625 53.6875 40.46875 
Q 50.484375 35.9375 44.390625 34.1875 
z
M 19.671875 64.796875 
L 19.671875 38.921875 
L 32.078125 38.921875 
Q 39.203125 38.921875 42.84375 42.21875 
Q 46.484375 45.515625 46.484375 51.90625 
Q 46.484375 58.296875 42.84375 61.546875 
Q 39.203125 64.796875 32.078125 64.796875 
z
" id="DejaVuSans-82"/>
       <path d="M 56.203125 29.59375 
L 56.203125 25.203125 
L 14.890625 25.203125 
Q 15.484375 15.921875 20.484375 11.0625 
Q 25.484375 6.203125 34.421875 6.203125 
Q 39.59375 6.203125 44.453125 7.46875 
Q 49.3125 8.734375 54.109375 11.28125 
L 54.109375 2.78125 
Q 49.265625 0.734375 44.1875 -0.34375 
Q 39.109375 -1.421875 33.890625 -1.421875 
Q 20.796875 -1.421875 13.15625 6.1875 
Q 5.515625 13.8125 5.515625 26.8125 
Q 5.515625 40.234375 12.765625 48.109375 
Q 20.015625 56 32.328125 56 
Q 43.359375 56 49.78125 48.890625 
Q 56.203125 41.796875 56.203125 29.59375 
z
M 47.21875 32.234375 
Q 47.125 39.59375 43.09375 43.984375 
Q 39.0625 48.390625 32.421875 48.390625 
Q 24.90625 48.390625 20.390625 44.140625 
Q 15.875 39.890625 15.1875 32.171875 
z
" id="DejaVuSans-101"/>
       <path d="M 37.109375 75.984375 
L 37.109375 68.5 
L 28.515625 68.5 
Q 23.6875 68.5 21.796875 66.546875 
Q 19.921875 64.59375 19.921875 59.515625 
L 19.921875 54.6875 
L 34.71875 54.6875 
L 34.71875 47.703125 
L 19.921875 47.703125 
L 19.921875 0 
L 10.890625 0 
L 10.890625 47.703125 
L 2.296875 47.703125 
L 2.296875 54.6875 
L 10.890625 54.6875 
L 10.890625 58.5 
Q 10.890625 67.625 15.140625 71.796875 
Q 19.390625 75.984375 28.609375 75.984375 
z
" id="DejaVuSans-102"/>
       <path d="M 9.421875 75.984375 
L 18.40625 75.984375 
L 18.40625 0 
L 9.421875 0 
z
" id="DejaVuSans-108"/>
       <path d="M 48.78125 52.59375 
L 48.78125 44.1875 
Q 44.96875 46.296875 41.140625 47.34375 
Q 37.3125 48.390625 33.40625 48.390625 
Q 24.65625 48.390625 19.8125 42.84375 
Q 14.984375 37.3125 14.984375 27.296875 
Q 14.984375 17.28125 19.8125 11.734375 
Q 24.65625 6.203125 33.40625 6.203125 
Q 37.3125 6.203125 41.140625 7.25 
Q 44.96875 8.296875 48.78125 10.40625 
L 48.78125 2.09375 
Q 45.015625 0.34375 40.984375 -0.53125 
Q 36.96875 -1.421875 32.421875 -1.421875 
Q 20.0625 -1.421875 12.78125 6.34375 
Q 5.515625 14.109375 5.515625 27.296875 
Q 5.515625 40.671875 12.859375 48.328125 
Q 20.21875 56 33.015625 56 
Q 37.15625 56 41.109375 55.140625 
Q 45.0625 54.296875 48.78125 52.59375 
z
" id="DejaVuSans-99"/>
       <path d="M 18.3125 70.21875 
L 18.3125 54.6875 
L 36.8125 54.6875 
L 36.8125 47.703125 
L 18.3125 47.703125 
L 18.3125 18.015625 
Q 18.3125 11.328125 20.140625 9.421875 
Q 21.96875 7.515625 27.59375 7.515625 
L 36.8125 7.515625 
L 36.8125 0 
L 27.59375 0 
Q 17.1875 0 13.234375 3.875 
Q 9.28125 7.765625 9.28125 18.015625 
L 9.28125 47.703125 
L 2.6875 47.703125 
L 2.6875 54.6875 
L 9.28125 54.6875 
L 9.28125 70.21875 
z
" id="DejaVuSans-116"/>
      </defs>
      <use xlink:href="#DejaVuSans-82"/>
      <use x="64.982422" xlink:href="#DejaVuSans-101"/>
      <use x="126.505859" xlink:href="#DejaVuSans-102"/>
      <use x="161.710938" xlink:href="#DejaVuSans-108"/>
      <use x="189.494141" xlink:href="#DejaVuSans-101"/>
      <use x="251.017578" xlink:href="#DejaVuSans-99"/>
      <use x="305.998047" xlink:href="#DejaVuSans-116"/>
      <use x="345.207031" xlink:href="#DejaVuSans-105"/>
      <use x="372.990234" xlink:href="#DejaVuSans-111"/>
      <use x="434.171875" xlink:href="#DejaVuSans-110"/>
     </g>
    </g>
   </g>
  </g>
  <g id="axes_2">
   <g id="patch_8">
    <path d="M 135 657.211765 
L 972 657.211765 
L 972 417.388235 
L 135 417.388235 
z
" style="fill:#ffffff;"/>
   </g>
   <g id="matplotlib.axis_3">
    <g id="xtick_10">
     <g id="line2d_21">
      <g>
       <use style="stroke:#000000;stroke-width:0.8;" x="173.045455" xlink:href="#m7935f8087a" y="657.211765"/>
      </g>
     </g>
    </g>
    <g id="xtick_11">
     <g id="line2d_22">
      <g>
       <use style="stroke:#000000;stroke-width:0.8;" x="268.159091" xlink:href="#m7935f8087a" y="657.211765"/>
      </g>
     </g>
    </g>
    <g id="xtick_12">
     <g id="line2d_23">
      <g>
       <use style="stroke:#000000;stroke-width:0.8;" x="363.272727" xlink:href="#m7935f8087a" y="657.211765"/>
      </g>
     </g>
    </g>
    <g id="xtick_13">
     <g id="line2d_24">
      <g>
       <use style="stroke:#000000;stroke-width:0.8;" x="458.386364" xlink:href="#m7935f8087a" y="657.211765"/>
      </g>
     </g>
    </g>
    <g id="xtick_14">
     <g id="line2d_25">
      <g>
       <use style="stroke:#000000;stroke-width:0.8;" x="553.5" xlink:href="#m7935f8087a" y="657.211765"/>
      </g>
     </g>
    </g>
    <g id="xtick_15">
     <g id="line2d_26">
      <g>
       <use style="stroke:#000000;stroke-width:0.8;" x="648.613636" xlink:href="#m7935f8087a" y="657.211765"/>
      </g>
     </g>
    </g>
    <g id="xtick_16">
     <g id="line2d_27">
      <g>
       <use style="stroke:#000000;stroke-width:0.8;" x="743.727273" xlink:href="#m7935f8087a" y="657.211765"/>
      </g>
     </g>
    </g>
    <g id="xtick_17">
     <g id="line2d_28">
      <g>
       <use style="stroke:#000000;stroke-width:0.8;" x="838.840909" xlink:href="#m7935f8087a" y="657.211765"/>
      </g>
     </g>
    </g>
    <g id="xtick_18">
     <g id="line2d_29">
      <g>
       <use style="stroke:#000000;stroke-width:0.8;" x="933.954545" xlink:href="#m7935f8087a" y="657.211765"/>
      </g>
     </g>
    </g>
   </g>
   <g id="matplotlib.axis_4">
    <g id="ytick_4">
     <g id="line2d_30">
      <g>
       <use style="stroke:#000000;stroke-width:0.8;" x="135" xlink:href="#mc4be9d222c" y="657.211765"/>
      </g>
     </g>
     <g id="text_6">
      <!-- 0 -->
      <g transform="translate(108.9125 668.609421)scale(0.3 -0.3)">
       <use xlink:href="#DejaVuSans-48"/>
      </g>
     </g>
    </g>
    <g id="ytick_5">
     <g id="line2d_31">
      <g>
       <use style="stroke:#000000;stroke-width:0.8;" x="135" xlink:href="#mc4be9d222c" y="537.3"/>
      </g>
     </g>
     <g id="text_7">
      <!-- 1 -->
      <g transform="translate(108.9125 548.697656)scale(0.3 -0.3)">
       <use xlink:href="#DejaVuSans-49"/>
      </g>
     </g>
    </g>
    <g id="ytick_6">
     <g id="line2d_32">
      <g>
       <use style="stroke:#000000;stroke-width:0.8;" x="135" xlink:href="#mc4be9d222c" y="417.388235"/>
      </g>
     </g>
     <g id="text_8">
      <!-- 2 -->
      <g transform="translate(108.9125 428.785892)scale(0.3 -0.3)">
       <use xlink:href="#DejaVuSans-50"/>
      </g>
     </g>
    </g>
   </g>
   <g id="line2d_33">
    <path clip-path="url(#p9f150d38a5)" d="M 173.045455 649.12716 
L 199.834812 647.953666 
L 223.427713 646.70246 
L 244.433005 645.370629 
L 263.307325 643.955304 
L 280.355098 642.458007 
L 295.880749 640.874712 
L 310.036489 639.212032 
L 323.126744 637.453686 
L 335.151512 635.618753 
L 346.415219 633.677767 
L 356.917865 631.644511 
L 366.811662 629.503375 
L 376.09661 627.267848 
L 384.924921 624.913482 
L 393.296596 622.450651 
L 401.211633 619.893591 
L 408.822246 617.204488 
L 416.128435 614.391215 
L 423.282411 611.398613 
L 430.284175 608.225327 
L 437.133727 604.872822 
L 443.831066 601.346042 
L 450.528406 597.565257 
L 457.225745 593.527087 
L 464.075297 589.134236 
L 471.229273 584.276432 
L 478.992098 578.728206 
L 488.277046 571.803696 
L 510.347824 555.225488 
L 516.284102 551.123325 
L 521.307107 547.913681 
L 525.721262 545.347107 
L 529.830993 543.21266 
L 533.6363 541.487102 
L 537.137182 540.135562 
L 540.485852 539.072101 
L 543.682309 538.279666 
L 546.878767 537.716109 
L 549.923012 537.401727 
L 552.967257 537.314023 
L 555.85929 537.453252 
L 558.599111 537.808187 
L 560.882295 538.312937 
L 562.708842 538.934058 
L 563.92654 539.564979 
L 564.687601 540.156139 
L 565.29645 540.869446 
L 565.753087 541.700992 
L 566.209724 543.107158 
L 566.514148 544.772643 
L 566.818573 547.899329 
L 567.122997 555.290357 
L 567.27521 563.633548 
L 567.427422 580.464806 
L 567.731846 626.791148 
L 568.036271 558.554356 
L 568.340695 543.590773 
L 568.64512 540.38839 
L 568.949544 539.480147 
L 569.253969 539.223845 
L 569.710606 539.22862 
L 570.623879 539.59196 
L 576.255733 542.400741 
L 580.974313 544.954006 
L 585.540681 547.678456 
L 590.563685 550.940776 
L 596.347751 554.97569 
L 603.501728 560.251532 
L 617.80968 571.163498 
L 628.312326 579.017221 
L 636.379576 584.771404 
L 643.685764 589.707778 
L 650.535316 594.070832 
L 657.232656 598.077907 
L 663.929995 601.826951 
L 670.627335 605.322209 
L 677.476886 608.643354 
L 684.47865 611.785982 
L 691.632627 614.749002 
L 698.938815 617.534043 
L 706.549428 620.195943 
L 714.464466 622.727041 
L 722.683928 625.122665 
L 731.360027 627.419048 
L 740.492762 629.605286 
L 750.234347 631.705018 
L 760.584781 633.704164 
L 771.544063 635.592896 
L 783.41662 637.409071 
L 796.050237 639.115256 
L 809.749341 640.739891 
L 824.666142 642.282968 
L 840.952854 643.742162 
L 858.913901 645.124882 
L 878.853707 646.431917 
L 901.076697 647.660008 
L 925.887296 648.804104 
L 933.954545 649.133103 
L 933.954545 649.133103 
" style="fill:none;stroke:#0000ff;stroke-linecap:square;stroke-width:5;"/>
   </g>
   <g id="line2d_34">
    <path clip-path="url(#p9f150d38a5)" d="M 173.045455 545.384595 
L 199.987025 546.565457 
L 223.579925 547.818157 
L 244.737429 549.162192 
L 263.61175 550.581245 
L 280.659523 552.082657 
L 296.185173 553.670472 
L 310.340914 555.338079 
L 323.431168 557.10179 
L 335.455937 558.942512 
L 346.719644 560.889743 
L 357.22229 562.929725 
L 366.963875 565.043195 
L 376.248822 567.282544 
L 385.077134 569.641009 
L 393.448808 572.108142 
L 401.363845 574.669684 
L 408.974459 577.363522 
L 416.280647 580.181752 
L 423.434623 583.179536 
L 430.436387 586.358261 
L 437.285939 589.716376 
L 443.983278 593.248878 
L 450.680618 597.03551 
L 457.377957 601.079537 
L 464.227509 605.47822 
L 471.381485 610.341663 
L 479.144311 615.89506 
L 488.581471 622.939023 
L 509.891187 638.960371 
L 515.979678 643.186289 
L 521.002682 646.412828 
L 525.416838 648.997706 
L 529.526569 651.152025 
L 533.331875 652.898396 
L 536.832757 654.270958 
L 540.181427 655.356221 
L 543.530097 656.204164 
L 546.726554 656.780423 
L 549.7708 657.108207 
L 552.815045 657.211434 
L 555.707078 657.090837 
L 558.446898 656.762034 
L 560.882295 656.258148 
L 562.861054 655.629088 
L 564.230964 654.963588 
L 565.144238 654.266255 
L 565.753087 653.51935 
L 566.209724 652.599195 
L 566.514148 651.597168 
L 566.818573 649.874071 
L 567.122997 646.243689 
L 567.27521 642.555041 
L 567.579634 625.382302 
L 567.731846 626.915093 
L 568.036271 653.849932 
L 568.340695 657.058034 
L 568.492908 657.167704 
L 568.797332 656.924536 
L 570.01503 655.691836 
L 571.232728 654.84067 
L 573.515912 653.570955 
L 581.43095 649.310253 
L 586.14953 646.459247 
L 591.324747 643.059795 
L 597.261025 638.879901 
L 604.871638 633.227969 
L 631.96542 612.853195 
L 639.576033 607.546516 
L 646.577797 602.929829 
L 653.427349 598.679067 
L 660.124689 594.78356 
L 666.822028 591.1449 
L 673.519368 587.756759 
L 680.368919 584.540339 
L 687.370683 581.498792 
L 694.524659 578.632296 
L 701.98306 575.884832 
L 709.745886 573.26579 
L 717.813135 570.781404 
L 726.337022 568.394556 
L 735.165333 566.1545 
L 744.602493 563.993064 
L 754.49629 561.956363 
L 764.998936 560.020403 
L 776.262643 558.170289 
L 788.439624 556.39831 
L 801.529879 554.720553 
L 815.685619 553.131737 
L 831.21127 551.616403 
L 848.10683 550.19284 
L 866.981151 548.831837 
L 887.682018 547.565943 
L 910.66607 546.384087 
L 933.954545 545.378663 
L 933.954545 545.378663 
" style="fill:none;stroke:#ff0000;stroke-linecap:square;stroke-width:5;"/>
   </g>
   <g id="line2d_35">
    <path clip-path="url(#p9f150d38a5)" d="M 173.045455 528.474245 
L 196.33393 527.261348 
L 216.882586 525.969188 
L 234.69142 524.634616 
L 250.978132 523.194421 
L 265.438297 521.697434 
L 278.680763 520.104916 
L 290.55332 518.458021 
L 301.512603 516.715824 
L 311.558612 514.894693 
L 320.691347 513.018198 
L 329.215234 511.042613 
L 337.130272 508.980775 
L 344.43646 506.85078 
L 351.286012 504.62434 
L 357.678927 502.31469 
L 363.767417 499.875603 
L 369.399271 497.38081 
L 374.7267 494.77978 
L 379.749704 492.082747 
L 384.468285 489.303877 
L 389.034652 486.358319 
L 393.296596 483.352394 
L 397.406327 480.189286 
L 401.363845 476.86725 
L 405.169152 473.385844 
L 408.822246 469.746368 
L 412.323128 465.952239 
L 415.671798 462.009061 
L 419.020468 457.72204 
L 422.216925 453.27116 
L 425.413383 448.42725 
L 428.457628 443.404572 
L 431.501873 437.933787 
L 434.393906 432.270725 
L 437.285939 426.09799 
L 440.02576 419.722471 
L 442.76558 412.769766 
L 445.353189 405.608116 
L 447.940797 397.796662 
L 450.528406 389.253639 
L 452.963802 380.460147 
L 455.399198 370.842971 
L 457.834594 360.295646 
L 460.26999 348.693666 
L 462.553174 336.730375 
L 464.836358 323.5722 
L 467.119542 309.055094 
L 469.250514 294.109807 
L 471.381485 277.628681 
L 473.512457 259.395151 
L 475.643429 239.15366 
L 477.622188 218.297015 
L 479.600947 195.162497 
L 481.579707 169.410096 
L 483.558466 140.637304 
L 485.537226 108.362507 
L 487.363773 74.961868 
L 489.19032 37.538329 
L 490.870463 -1 
M 567.476237 -1 
L 567.731846 623.584263 
L 567.805059 -1 
M 616.066174 -1 
L 617.80968 39.021936 
L 619.78844 79.298162 
L 621.767199 114.904229 
L 623.745958 146.524505 
L 625.724718 174.723683 
L 627.703477 199.972057 
L 629.834449 224.31261 
L 631.96542 246.097174 
L 634.096392 265.668421 
L 636.227364 283.314557 
L 638.510548 300.360091 
L 640.793731 315.726668 
L 643.076915 329.627448 
L 645.512312 343.041726 
L 647.947708 355.178495 
L 650.383104 366.195169 
L 652.8185 376.225888 
L 655.406108 385.930861 
L 657.993717 394.769295 
L 660.581325 402.842083 
L 663.321146 410.650906 
L 666.060967 417.78614 
L 668.800787 424.323673 
L 671.69282 430.648103 
L 674.584853 436.445905 
L 677.629099 442.042697 
L 680.673344 447.177502 
L 683.869801 452.126048 
L 687.066259 456.670172 
L 690.414928 461.04409 
L 693.91581 465.239739 
L 697.416692 469.09209 
L 701.069787 472.785614 
L 704.875093 476.317108 
L 708.832612 479.68543 
L 712.942343 482.891193 
L 717.204286 485.936285 
L 721.618442 488.823894 
L 726.337022 491.645089 
L 731.360027 494.381704 
L 736.687456 497.019757 
L 742.319309 499.5486 
L 748.255587 501.961128 
L 754.49629 504.252952 
L 761.19363 506.469758 
L 768.347606 508.596994 
L 775.958219 510.624196 
L 784.025469 512.544618 
L 793.005992 514.445599 
L 802.443152 516.214341 
L 812.793586 517.925833 
L 824.209506 519.580433 
L 836.690911 521.156112 
L 850.237802 522.637933 
L 865.154604 524.043749 
L 881.74574 525.380794 
L 899.858999 526.620679 
L 920.407654 527.805443 
L 933.954545 528.481306 
L 933.954545 528.481306 
" style="fill:none;stroke:#ff0000;stroke-linecap:square;stroke-width:5;"/>
   </g>
   <g id="line2d_36">
    <path clip-path="url(#p9f150d38a5)" d="M 173.045455 537.299986 
L 566.057512 537.095073 
L 566.666361 536.820202 
L 566.970785 536.430288 
L 567.427422 535.170105 
L 567.731846 556.210715 
L 567.884059 531.580332 
L 568.340695 535.925532 
L 568.64512 536.643363 
L 569.101757 536.999885 
L 569.862818 537.175451 
L 571.689365 537.264692 
L 579.756615 537.296755 
L 731.816663 537.299971 
L 933.954545 537.299929 
L 933.954545 537.299929 
" style="fill:none;stroke:#0000ff;stroke-linecap:square;stroke-width:5;"/>
   </g>
   <g id="patch_9">
    <path d="M 135 657.211765 
L 135 417.388235 
" style="fill:none;stroke:#000000;stroke-linecap:square;stroke-linejoin:miter;stroke-width:0.8;"/>
   </g>
   <g id="patch_10">
    <path d="M 972 657.211765 
L 972 417.388235 
" style="fill:none;stroke:#000000;stroke-linecap:square;stroke-linejoin:miter;stroke-width:0.8;"/>
   </g>
   <g id="patch_11">
    <path d="M 135 657.211765 
L 972 657.211765 
" style="fill:none;stroke:#000000;stroke-linecap:square;stroke-linejoin:miter;stroke-width:0.8;"/>
   </g>
   <g id="patch_12">
    <path d="M 135 417.388235 
L 972 417.388235 
" style="fill:none;stroke:#000000;stroke-linecap:square;stroke-linejoin:miter;stroke-width:0.8;"/>
   </g>
  </g>
  <g id="axes_3">
   <g id="patch_13">
    <path d="M 135 945 
L 972 945 
L 972 705.176471 
L 135 705.176471 
z
" style="fill:#ffffff;"/>
   </g>
   <g id="matplotlib.axis_5">
    <g id="xtick_19">
     <g id="line2d_37">
      <g>
       <use style="stroke:#000000;stroke-width:0.8;" x="173.045455" xlink:href="#m7935f8087a" y="945"/>
      </g>
     </g>
     <g id="text_9">
      <!-- −80 -->
      <g transform="translate(141.388423 974.795313)scale(0.3 -0.3)">
       <defs>
        <path d="M 10.59375 35.5 
L 73.1875 35.5 
L 73.1875 27.203125 
L 10.59375 27.203125 
z
" id="DejaVuSans-8722"/>
        <path d="M 31.78125 34.625 
Q 24.75 34.625 20.71875 30.859375 
Q 16.703125 27.09375 16.703125 20.515625 
Q 16.703125 13.921875 20.71875 10.15625 
Q 24.75 6.390625 31.78125 6.390625 
Q 38.8125 6.390625 42.859375 10.171875 
Q 46.921875 13.96875 46.921875 20.515625 
Q 46.921875 27.09375 42.890625 30.859375 
Q 38.875 34.625 31.78125 34.625 
z
M 21.921875 38.8125 
Q 15.578125 40.375 12.03125 44.71875 
Q 8.5 49.078125 8.5 55.328125 
Q 8.5 64.0625 14.71875 69.140625 
Q 20.953125 74.21875 31.78125 74.21875 
Q 42.671875 74.21875 48.875 69.140625 
Q 55.078125 64.0625 55.078125 55.328125 
Q 55.078125 49.078125 51.53125 44.71875 
Q 48 40.375 41.703125 38.8125 
Q 48.828125 37.15625 52.796875 32.3125 
Q 56.78125 27.484375 56.78125 20.515625 
Q 56.78125 9.90625 50.3125 4.234375 
Q 43.84375 -1.421875 31.78125 -1.421875 
Q 19.734375 -1.421875 13.25 4.234375 
Q 6.78125 9.90625 6.78125 20.515625 
Q 6.78125 27.484375 10.78125 32.3125 
Q 14.796875 37.15625 21.921875 38.8125 
z
M 18.3125 54.390625 
Q 18.3125 48.734375 21.84375 45.5625 
Q 25.390625 42.390625 31.78125 42.390625 
Q 38.140625 42.390625 41.71875 45.5625 
Q 45.3125 48.734375 45.3125 54.390625 
Q 45.3125 60.0625 41.71875 63.234375 
Q 38.140625 66.40625 31.78125 66.40625 
Q 25.390625 66.40625 21.84375 63.234375 
Q 18.3125 60.0625 18.3125 54.390625 
z
" id="DejaVuSans-56"/>
       </defs>
       <use xlink:href="#DejaVuSans-8722"/>
       <use x="83.789062" xlink:href="#DejaVuSans-56"/>
       <use x="147.412109" xlink:href="#DejaVuSans-48"/>
      </g>
     </g>
    </g>
    <g id="xtick_20">
     <g id="line2d_38">
      <g>
       <use style="stroke:#000000;stroke-width:0.8;" x="268.159091" xlink:href="#m7935f8087a" y="945"/>
      </g>
     </g>
     <g id="text_10">
      <!-- −60 -->
      <g transform="translate(236.50206 974.795313)scale(0.3 -0.3)">
       <defs>
        <path d="M 33.015625 40.375 
Q 26.375 40.375 22.484375 35.828125 
Q 18.609375 31.296875 18.609375 23.390625 
Q 18.609375 15.53125 22.484375 10.953125 
Q 26.375 6.390625 33.015625 6.390625 
Q 39.65625 6.390625 43.53125 10.953125 
Q 47.40625 15.53125 47.40625 23.390625 
Q 47.40625 31.296875 43.53125 35.828125 
Q 39.65625 40.375 33.015625 40.375 
z
M 52.59375 71.296875 
L 52.59375 62.3125 
Q 48.875 64.0625 45.09375 64.984375 
Q 41.3125 65.921875 37.59375 65.921875 
Q 27.828125 65.921875 22.671875 59.328125 
Q 17.53125 52.734375 16.796875 39.40625 
Q 19.671875 43.65625 24.015625 45.921875 
Q 28.375 48.1875 33.59375 48.1875 
Q 44.578125 48.1875 50.953125 41.515625 
Q 57.328125 34.859375 57.328125 23.390625 
Q 57.328125 12.15625 50.6875 5.359375 
Q 44.046875 -1.421875 33.015625 -1.421875 
Q 20.359375 -1.421875 13.671875 8.265625 
Q 6.984375 17.96875 6.984375 36.375 
Q 6.984375 53.65625 15.1875 63.9375 
Q 23.390625 74.21875 37.203125 74.21875 
Q 40.921875 74.21875 44.703125 73.484375 
Q 48.484375 72.75 52.59375 71.296875 
z
" id="DejaVuSans-54"/>
       </defs>
       <use xlink:href="#DejaVuSans-8722"/>
       <use x="83.789062" xlink:href="#DejaVuSans-54"/>
       <use x="147.412109" xlink:href="#DejaVuSans-48"/>
      </g>
     </g>
    </g>
    <g id="xtick_21">
     <g id="line2d_39">
      <g>
       <use style="stroke:#000000;stroke-width:0.8;" x="363.272727" xlink:href="#m7935f8087a" y="945"/>
      </g>
     </g>
     <g id="text_11">
      <!-- −40 -->
      <g transform="translate(331.615696 974.795313)scale(0.3 -0.3)">
       <defs>
        <path d="M 37.796875 64.3125 
L 12.890625 25.390625 
L 37.796875 25.390625 
z
M 35.203125 72.90625 
L 47.609375 72.90625 
L 47.609375 25.390625 
L 58.015625 25.390625 
L 58.015625 17.1875 
L 47.609375 17.1875 
L 47.609375 0 
L 37.796875 0 
L 37.796875 17.1875 
L 4.890625 17.1875 
L 4.890625 26.703125 
z
" id="DejaVuSans-52"/>
       </defs>
       <use xlink:href="#DejaVuSans-8722"/>
       <use x="83.789062" xlink:href="#DejaVuSans-52"/>
       <use x="147.412109" xlink:href="#DejaVuSans-48"/>
      </g>
     </g>
    </g>
    <g id="xtick_22">
     <g id="line2d_40">
      <g>
       <use style="stroke:#000000;stroke-width:0.8;" x="458.386364" xlink:href="#m7935f8087a" y="945"/>
      </g>
     </g>
     <g id="text_12">
      <!-- −20 -->
      <g transform="translate(426.729332 974.795313)scale(0.3 -0.3)">
       <use xlink:href="#DejaVuSans-8722"/>
       <use x="83.789062" xlink:href="#DejaVuSans-50"/>
       <use x="147.412109" xlink:href="#DejaVuSans-48"/>
      </g>
     </g>
    </g>
    <g id="xtick_23">
     <g id="line2d_41">
      <g>
       <use style="stroke:#000000;stroke-width:0.8;" x="553.5" xlink:href="#m7935f8087a" y="945"/>
      </g>
     </g>
     <g id="text_13">
      <!-- 0 -->
      <g transform="translate(543.95625 974.795313)scale(0.3 -0.3)">
       <use xlink:href="#DejaVuSans-48"/>
      </g>
     </g>
    </g>
    <g id="xtick_24">
     <g id="line2d_42">
      <g>
       <use style="stroke:#000000;stroke-width:0.8;" x="648.613636" xlink:href="#m7935f8087a" y="945"/>
      </g>
     </g>
     <g id="text_14">
      <!-- 20 -->
      <g transform="translate(629.526136 974.795313)scale(0.3 -0.3)">
       <use xlink:href="#DejaVuSans-50"/>
       <use x="63.623047" xlink:href="#DejaVuSans-48"/>
      </g>
     </g>
    </g>
    <g id="xtick_25">
     <g id="line2d_43">
      <g>
       <use style="stroke:#000000;stroke-width:0.8;" x="743.727273" xlink:href="#m7935f8087a" y="945"/>
      </g>
     </g>
     <g id="text_15">
      <!-- 40 -->
      <g transform="translate(724.639773 974.795313)scale(0.3 -0.3)">
       <use xlink:href="#DejaVuSans-52"/>
       <use x="63.623047" xlink:href="#DejaVuSans-48"/>
      </g>
     </g>
    </g>
    <g id="xtick_26">
     <g id="line2d_44">
      <g>
       <use style="stroke:#000000;stroke-width:0.8;" x="838.840909" xlink:href="#m7935f8087a" y="945"/>
      </g>
     </g>
     <g id="text_16">
      <!-- 60 -->
      <g transform="translate(819.753409 974.795313)scale(0.3 -0.3)">
       <use xlink:href="#DejaVuSans-54"/>
       <use x="63.623047" xlink:href="#DejaVuSans-48"/>
      </g>
     </g>
    </g>
    <g id="xtick_27">
     <g id="line2d_45">
      <g>
       <use style="stroke:#000000;stroke-width:0.8;" x="933.954545" xlink:href="#m7935f8087a" y="945"/>
      </g>
     </g>
     <g id="text_17">
      <!-- 80 -->
      <g transform="translate(914.867045 974.795313)scale(0.3 -0.3)">
       <use xlink:href="#DejaVuSans-56"/>
       <use x="63.623047" xlink:href="#DejaVuSans-48"/>
      </g>
     </g>
    </g>
   </g>
   <g id="matplotlib.axis_6">
    <g id="ytick_7">
     <g id="line2d_46">
      <g>
       <use style="stroke:#000000;stroke-width:0.8;" x="135" xlink:href="#mc4be9d222c" y="945"/>
      </g>
     </g>
     <g id="text_18">
      <!-- 0 -->
      <g transform="translate(108.9125 956.397656)scale(0.3 -0.3)">
       <use xlink:href="#DejaVuSans-48"/>
      </g>
     </g>
    </g>
    <g id="ytick_8">
     <g id="line2d_47">
      <g>
       <use style="stroke:#000000;stroke-width:0.8;" x="135" xlink:href="#mc4be9d222c" y="825.088235"/>
      </g>
     </g>
     <g id="text_19">
      <!-- 1 -->
      <g transform="translate(108.9125 836.485892)scale(0.3 -0.3)">
       <use xlink:href="#DejaVuSans-49"/>
      </g>
     </g>
    </g>
    <g id="ytick_9">
     <g id="line2d_48">
      <g>
       <use style="stroke:#000000;stroke-width:0.8;" x="135" xlink:href="#mc4be9d222c" y="705.176471"/>
      </g>
     </g>
     <g id="text_20">
      <!-- 2 -->
      <g transform="translate(108.9125 716.574127)scale(0.3 -0.3)">
       <use xlink:href="#DejaVuSans-50"/>
      </g>
     </g>
    </g>
   </g>
   <g id="line2d_49">
    <path clip-path="url(#p17d6ab1e6f)" d="M 173.045455 936.915488 
L 199.834812 935.74203 
L 223.427713 934.490867 
L 244.433005 933.159099 
L 263.307325 931.743843 
L 280.355098 930.246641 
L 295.880749 928.663455 
L 310.036489 927.00092 
L 323.126744 925.242742 
L 335.151512 923.408 
L 346.415219 921.46726 
L 356.917865 919.434288 
L 366.811662 917.293477 
L 376.09661 915.058358 
L 384.924921 912.704462 
L 393.296596 910.242171 
L 401.211633 907.68575 
L 408.822246 904.997391 
L 416.128435 902.184968 
L 423.282411 899.193399 
L 430.284175 896.021313 
L 437.133727 892.670217 
L 443.831066 889.14508 
L 450.528406 885.366254 
L 457.225745 881.33041 
L 464.075297 876.940382 
L 471.229273 872.086102 
L 478.992098 866.542407 
L 488.277046 859.624459 
L 510.0434 843.283477 
L 516.13189 839.071074 
L 521.154895 835.85762 
L 525.56905 833.2853 
L 529.678781 831.143169 
L 533.484088 829.407898 
L 536.98497 828.044737 
L 540.333639 826.966824 
L 543.682309 826.123479 
L 546.878767 825.546999 
L 550.075224 825.200912 
L 553.119469 825.089536 
L 556.163715 825.192614 
L 559.20796 825.509619 
L 562.404417 826.069574 
L 565.600875 826.856706 
L 568.949544 827.916543 
L 572.298214 829.20618 
L 575.799096 830.786798 
L 579.45219 832.673734 
L 583.409709 834.975743 
L 587.367228 837.540222 
L 591.020322 840.169721 
L 593.760143 842.3895 
L 595.738902 844.26365 
L 596.9566 845.677972 
L 597.869874 847.040461 
L 598.630935 848.625589 
L 599.087572 850.005461 
L 599.544209 852.103814 
L 599.848633 854.353291 
L 600.153058 858.184807 
L 600.457482 866.23879 
L 600.609695 874.502661 
L 600.914119 914.43855 
L 601.066331 904.185944 
L 601.370756 844.348124 
L 601.522968 840.787126 
L 601.67518 840.275186 
L 601.979605 841.112471 
L 602.740666 843.556761 
L 603.501728 845.188432 
L 604.415001 846.608436 
L 605.632699 848.093108 
L 607.459246 849.947968 
L 610.351279 852.532674 
L 615.222072 856.550735 
L 622.52826 862.27765 
L 630.443298 868.204033 
L 637.749486 873.404099 
L 644.75125 878.118057 
L 651.600802 882.458554 
L 658.298141 886.43743 
L 664.995481 890.155058 
L 671.69282 893.617609 
L 678.542372 896.905295 
L 685.544136 900.014541 
L 692.698112 902.94494 
L 700.004301 905.698584 
L 707.614914 908.329983 
L 715.529951 910.831862 
L 723.901626 913.241531 
L 732.577725 915.507494 
L 741.862673 917.699119 
L 751.604257 919.768117 
L 761.954691 921.738461 
L 773.066186 923.624894 
L 784.938742 925.413189 
L 797.724572 927.112848 
L 811.575888 928.728136 
L 826.644902 930.259616 
L 843.236038 931.717965 
L 861.501509 933.09493 
L 881.593528 934.383307 
L 904.120942 935.600252 
L 929.388178 936.73734 
L 933.954545 936.921211 
L 933.954545 936.921211 
" style="fill:none;stroke:#0000ff;stroke-linecap:square;stroke-width:5;"/>
   </g>
   <g id="line2d_50">
    <path clip-path="url(#p17d6ab1e6f)" d="M 173.045455 833.172759 
L 199.834812 834.346216 
L 223.275501 835.588531 
L 244.280793 836.918629 
L 263.155113 838.332036 
L 280.202886 839.827186 
L 295.728537 841.408119 
L 309.884277 843.068193 
L 322.974531 844.823705 
L 335.151512 846.680244 
L 346.415219 848.621 
L 356.917865 850.653963 
L 366.811662 852.794772 
L 376.09661 855.029904 
L 384.924921 857.383802 
L 393.296596 859.846089 
L 401.211633 862.402528 
L 408.822246 865.090877 
L 416.128435 867.903303 
L 423.282411 870.894876 
L 430.284175 874.066968 
L 437.133727 877.418086 
L 443.831066 880.943227 
L 450.528406 884.72206 
L 457.225745 888.757915 
L 464.075297 893.147953 
L 471.229273 898.002255 
L 478.992098 903.545957 
L 488.277046 910.463948 
L 510.0434 926.805071 
L 516.13189 931.017516 
L 521.154895 934.231043 
L 525.56905 936.803416 
L 529.678781 938.945631 
L 533.484088 940.680968 
L 537.137182 942.098109 
L 540.485852 943.165679 
L 543.834521 943.998238 
L 547.030979 944.563958 
L 550.227436 944.89907 
L 553.271682 944.999906 
L 556.315927 944.886248 
L 559.360172 944.558839 
L 562.55663 943.98818 
L 565.753087 943.19074 
L 569.101757 942.120678 
L 572.602639 940.757171 
L 576.255733 939.082885 
L 580.061039 937.083404 
L 584.018558 934.74404 
L 587.976077 932.143703 
L 591.629171 929.476422 
L 594.368992 927.210857 
L 596.195539 925.430099 
L 597.413237 923.955381 
L 598.326511 922.488616 
L 598.93536 921.120716 
L 599.391997 919.65022 
L 599.848633 917.333638 
L 600.153058 914.73121 
L 600.457482 910.050441 
L 600.914119 899.221777 
L 601.218544 941.831578 
L 601.370756 940.759538 
L 601.827393 932.903117 
L 602.28403 929.298783 
L 602.740666 927.295958 
L 603.349515 925.598102 
L 604.110577 924.146518 
L 605.176062 922.645699 
L 606.698185 920.947512 
L 608.981369 918.781927 
L 612.634463 915.656746 
L 618.722954 910.766965 
L 626.485779 904.814284 
L 634.096392 899.251385 
L 641.250368 894.293944 
L 648.09992 889.814785 
L 654.797259 885.698381 
L 661.494599 881.844544 
L 668.191938 878.249596 
L 674.889278 874.905425 
L 681.73883 871.733054 
L 688.740594 868.734741 
L 695.89457 865.910043 
L 703.352971 863.203333 
L 711.115796 860.623501 
L 719.183046 858.176459 
L 727.706932 855.825391 
L 736.687456 853.582569 
L 746.124616 851.456591 
L 756.170625 849.423678 
L 766.825483 847.495572 
L 778.241403 845.65693 
L 790.418384 843.919936 
L 803.66085 842.256503 
L 818.121015 840.668309 
L 833.798878 839.172965 
L 851.151076 837.746815 
L 870.177608 836.410628 
L 891.335112 835.15211 
L 915.080225 833.968367 
L 933.954545 833.167034 
L 933.954545 833.167034 
" style="fill:none;stroke:#ff0000;stroke-linecap:square;stroke-width:5;"/>
   </g>
   <g id="line2d_51">
    <path clip-path="url(#p17d6ab1e6f)" d="M 173.045455 816.262537 
L 196.33393 815.049726 
L 216.425949 813.789 
L 234.234783 812.460232 
L 250.673707 811.012146 
L 265.133872 809.520048 
L 278.224127 807.952631 
L 290.248895 806.292085 
L 301.208178 804.556506 
L 311.101975 802.771955 
L 320.386923 800.873933 
L 328.758597 798.944248 
L 336.825847 796.854521 
L 344.132035 794.734632 
L 350.981587 792.519127 
L 357.374502 790.221299 
L 363.462993 787.795149 
L 369.094846 785.314193 
L 374.422275 782.728 
L 379.44528 780.04692 
L 384.16386 777.285004 
L 388.730228 774.358143 
L 393.144383 771.260403 
L 397.254114 768.108559 
L 401.211633 764.798746 
L 405.01694 761.330619 
L 408.670034 757.705581 
L 412.170916 753.926905 
L 415.671798 749.814035 
L 419.020468 745.529358 
L 422.216925 741.08088 
L 425.413383 736.239858 
L 428.457628 731.220482 
L 431.501873 725.753256 
L 434.393906 720.094483 
L 437.285939 713.92655 
L 440.02576 707.556278 
L 442.76558 700.609576 
L 445.353189 693.454873 
L 447.940797 685.651196 
L 450.528406 677.117293 
L 452.963802 668.333893 
L 455.399198 658.728553 
L 457.834594 648.195008 
L 460.26999 636.609295 
L 462.553174 624.663872 
L 464.836358 611.526938 
L 467.119542 597.034448 
L 469.250514 582.116636 
L 471.381485 565.667586 
L 473.512457 547.471966 
L 475.643429 527.276189 
L 477.7744 504.779067 
L 479.75316 481.515555 
L 481.731919 455.618092 
L 483.710678 426.679997 
L 485.689438 394.216626 
L 487.515985 360.618435 
L 489.342532 322.969785 
L 491.169079 280.61078 
L 492.995626 232.746296 
L 494.669961 183.214205 
L 496.344296 127.348121 
L 498.018631 64.064914 
L 499.54063 -1 
M 599.488278 -1 
L 599.848633 111.374024 
L 600.30527 313.769955 
L 600.761907 641.336804 
L 601.066331 943.914881 
L 601.074381 -1 
M 608.69582 -1 
L 610.046855 66.136201 
L 611.568977 130.225623 
L 613.0911 185.250441 
L 614.765435 237.721673 
L 616.43977 283.473816 
L 618.266317 327.183375 
L 620.092864 365.568025 
L 621.919411 399.520322 
L 623.898171 432.099022 
L 625.87693 460.981882 
L 627.855689 486.722676 
L 629.834449 509.772256 
L 631.96542 532.006214 
L 634.096392 551.925448 
L 636.227364 569.844153 
L 638.510548 587.119315 
L 640.793731 602.66649 
L 643.076915 616.710788 
L 645.360099 629.440841 
L 647.795495 641.751261 
L 650.230892 652.913254 
L 652.666288 663.066277 
L 655.253896 672.88129 
L 657.841505 681.812925 
L 660.429113 689.965133 
L 663.168934 697.845973 
L 665.908754 705.042845 
L 668.648575 711.633554 
L 671.540608 718.006514 
L 674.432641 723.846243 
L 677.476886 729.481444 
L 680.521131 734.649427 
L 683.717589 739.62842 
L 686.914046 744.198989 
L 690.262716 748.597222 
L 693.763598 752.814985 
L 697.26448 756.686662 
L 700.917574 760.397868 
L 704.722881 763.94563 
L 708.6804 767.32866 
L 712.790131 770.547761 
L 717.052074 773.605017 
L 721.46623 776.503647 
L 726.18481 779.335106 
L 731.207814 782.081299 
L 736.383031 784.655913 
L 741.862673 787.134124 
L 747.646738 789.507184 
L 753.887441 791.822937 
L 760.432568 794.013641 
L 767.434332 796.12298 
L 774.892733 798.139219 
L 782.959983 800.089173 
L 791.636082 801.956634 
L 801.073242 803.757467 
L 811.271463 805.474663 
L 822.535171 807.138754 
L 834.864364 808.726569 
L 848.10683 810.206531 
L 863.023632 811.643481 
L 879.310344 812.98553 
L 897.271391 814.243797 
L 917.515621 815.439111 
L 933.954545 816.26937 
L 933.954545 816.26937 
" style="fill:none;stroke:#ff0000;stroke-linecap:square;stroke-width:5;"/>
   </g>
   <g id="line2d_52">
    <path clip-path="url(#p17d6ab1e6f)" d="M 173.045455 825.088278 
L 599.391997 824.983113 
L 600.30527 824.766721 
L 600.457482 824.736831 
L 600.609695 824.945204 
L 600.761907 826.937584 
L 600.914119 842.331392 
L 601.066331 820.370218 
L 601.218544 817.585087 
L 601.522968 823.436237 
L 601.827393 824.471695 
L 602.131817 824.778686 
L 602.740666 824.968361 
L 604.110577 825.055029 
L 610.503492 825.08582 
L 783.112195 825.088278 
L 933.954545 825.088221 
L 933.954545 825.088221 
" style="fill:none;stroke:#0000ff;stroke-linecap:square;stroke-width:5;"/>
   </g>
   <g id="patch_14">
    <path d="M 135 945 
L 135 705.176471 
" style="fill:none;stroke:#000000;stroke-linecap:square;stroke-linejoin:miter;stroke-width:0.8;"/>
   </g>
   <g id="patch_15">
    <path d="M 972 945 
L 972 705.176471 
" style="fill:none;stroke:#000000;stroke-linecap:square;stroke-linejoin:miter;stroke-width:0.8;"/>
   </g>
   <g id="patch_16">
    <path d="M 135 945 
L 972 945 
" style="fill:none;stroke:#000000;stroke-linecap:square;stroke-linejoin:miter;stroke-width:0.8;"/>
   </g>
   <g id="patch_17">
    <path d="M 135 705.176471 
L 972 705.176471 
" style="fill:none;stroke:#000000;stroke-linecap:square;stroke-linejoin:miter;stroke-width:0.8;"/>
   </g>
  </g>
  <g id="axes_4">
   <g id="matplotlib.axis_7">
    <g id="xtick_28">
     <g id="text_21">
      <!-- 0.0 -->
      <g style="opacity:0;" transform="translate(111.145313 974.795313)scale(0.3 -0.3)">
       <defs>
        <path d="M 10.6875 12.40625 
L 21 12.40625 
L 21 0 
L 10.6875 0 
z
" id="DejaVuSans-46"/>
       </defs>
       <use xlink:href="#DejaVuSans-48"/>
       <use x="63.623047" xlink:href="#DejaVuSans-46"/>
       <use x="95.410156" xlink:href="#DejaVuSans-48"/>
      </g>
     </g>
    </g>
    <g id="xtick_29">
     <g id="text_22">
      <!-- 0.2 -->
      <g style="opacity:0;" transform="translate(278.545312 974.795313)scale(0.3 -0.3)">
       <use xlink:href="#DejaVuSans-48"/>
       <use x="63.623047" xlink:href="#DejaVuSans-46"/>
       <use x="95.410156" xlink:href="#DejaVuSans-50"/>
      </g>
     </g>
    </g>
    <g id="xtick_30">
     <g id="text_23">
      <!-- 0.4 -->
      <g style="opacity:0;" transform="translate(445.945312 974.795313)scale(0.3 -0.3)">
       <use xlink:href="#DejaVuSans-48"/>
       <use x="63.623047" xlink:href="#DejaVuSans-46"/>
       <use x="95.410156" xlink:href="#DejaVuSans-52"/>
      </g>
     </g>
    </g>
    <g id="xtick_31">
     <g id="text_24">
      <!-- 0.6 -->
      <g style="opacity:0;" transform="translate(613.345313 974.795313)scale(0.3 -0.3)">
       <use xlink:href="#DejaVuSans-48"/>
       <use x="63.623047" xlink:href="#DejaVuSans-46"/>
       <use x="95.410156" xlink:href="#DejaVuSans-54"/>
      </g>
     </g>
    </g>
    <g id="xtick_32">
     <g id="text_25">
      <!-- 0.8 -->
      <g style="opacity:0;" transform="translate(780.745313 974.795313)scale(0.3 -0.3)">
       <use xlink:href="#DejaVuSans-48"/>
       <use x="63.623047" xlink:href="#DejaVuSans-46"/>
       <use x="95.410156" xlink:href="#DejaVuSans-56"/>
      </g>
     </g>
    </g>
    <g id="xtick_33">
     <g id="text_26">
      <!-- 1.0 -->
      <g style="opacity:0;" transform="translate(948.145313 974.795313)scale(0.3 -0.3)">
       <use xlink:href="#DejaVuSans-49"/>
       <use x="63.623047" xlink:href="#DejaVuSans-46"/>
       <use x="95.410156" xlink:href="#DejaVuSans-48"/>
      </g>
     </g>
    </g>
    <g id="text_27">
     <!-- $(\omega-\omega_{c})/\kappa$ -->
     <g transform="translate(477.9 1007.829687)scale(0.3 -0.3)">
      <defs>
       <path d="M 31 75.875 
Q 24.46875 64.65625 21.28125 53.65625 
Q 18.109375 42.671875 18.109375 31.390625 
Q 18.109375 20.125 21.3125 9.0625 
Q 24.515625 -2 31 -13.1875 
L 23.1875 -13.1875 
Q 15.875 -1.703125 12.234375 9.375 
Q 8.59375 20.453125 8.59375 31.390625 
Q 8.59375 42.28125 12.203125 53.3125 
Q 15.828125 64.359375 23.1875 75.875 
z
" id="DejaVuSans-40"/>
       <path d="M 26.859375 -1.421875 
Q 6.59375 -1.421875 6.59375 27.59375 
Q 6.59375 39.0625 14.15625 54.6875 
L 23.828125 54.6875 
Q 16.84375 39.0625 16.84375 27.34375 
Q 16.84375 6.203125 27.6875 6.203125 
Q 37.59375 6.203125 37.59375 32.46875 
L 45.90625 32.46875 
Q 45.90625 6.203125 55.8125 6.203125 
Q 66.65625 6.203125 66.65625 27.34375 
Q 66.65625 39.0625 59.671875 54.6875 
L 69.34375 54.6875 
Q 76.90625 39.0625 76.90625 27.59375 
Q 76.90625 -1.421875 56.640625 -1.421875 
Q 43.359375 -1.421875 41.75 13.1875 
Q 39.75 -1.421875 26.859375 -1.421875 
z
" id="DejaVuSans-969"/>
       <path d="M 8.015625 75.875 
L 15.828125 75.875 
Q 23.140625 64.359375 26.78125 53.3125 
Q 30.421875 42.28125 30.421875 31.390625 
Q 30.421875 20.453125 26.78125 9.375 
Q 23.140625 -1.703125 15.828125 -13.1875 
L 8.015625 -13.1875 
Q 14.5 -2 17.703125 9.0625 
Q 20.90625 20.125 20.90625 31.390625 
Q 20.90625 42.671875 17.703125 53.65625 
Q 14.5 64.65625 8.015625 75.875 
z
" id="DejaVuSans-41"/>
       <path d="M 25.390625 72.90625 
L 33.6875 72.90625 
L 8.296875 -9.28125 
L 0 -9.28125 
z
" id="DejaVuSans-47"/>
       <path d="M 9.328125 54.6875 
L 18.609375 54.6875 
L 18.609375 31.984375 
L 42.1875 54.6875 
L 53.125 54.6875 
L 31.59375 34.078125 
L 56.5 0 
L 45.515625 0 
L 25.296875 28.21875 
L 18.609375 21.921875 
L 18.609375 0 
L 9.328125 0 
z
" id="DejaVuSans-954"/>
      </defs>
      <use transform="translate(0 0.125)" xlink:href="#DejaVuSans-40"/>
      <use transform="translate(39.013672 0.125)" xlink:href="#DejaVuSans-969"/>
      <use transform="translate(142.236328 0.125)" xlink:href="#DejaVuSans-8722"/>
      <use transform="translate(245.507812 0.125)" xlink:href="#DejaVuSans-969"/>
      <use transform="translate(330.205078 -16.28125)scale(0.7)" xlink:href="#DejaVuSans-99"/>
      <use transform="translate(371.425781 0.125)" xlink:href="#DejaVuSans-41"/>
      <use transform="translate(410.439453 0.125)" xlink:href="#DejaVuSans-47"/>
      <use transform="translate(444.130859 0.125)" xlink:href="#DejaVuSans-954"/>
     </g>
    </g>
   </g>
   <g id="matplotlib.axis_8">
    <g id="ytick_10">
     <g id="text_28">
      <!-- 0.0 -->
      <g style="opacity:0;" transform="translate(80.290625 956.397656)scale(0.3 -0.3)">
       <use xlink:href="#DejaVuSans-48"/>
       <use x="63.623047" xlink:href="#DejaVuSans-46"/>
       <use x="95.410156" xlink:href="#DejaVuSans-48"/>
      </g>
     </g>
    </g>
    <g id="ytick_11">
     <g id="text_29">
      <!-- 0.2 -->
      <g style="opacity:0;" transform="translate(80.290625 793.317656)scale(0.3 -0.3)">
       <use xlink:href="#DejaVuSans-48"/>
       <use x="63.623047" xlink:href="#DejaVuSans-46"/>
       <use x="95.410156" xlink:href="#DejaVuSans-50"/>
      </g>
     </g>
    </g>
    <g id="ytick_12">
     <g id="text_30">
      <!-- 0.4 -->
      <g style="opacity:0;" transform="translate(80.290625 630.237656)scale(0.3 -0.3)">
       <use xlink:href="#DejaVuSans-48"/>
       <use x="63.623047" xlink:href="#DejaVuSans-46"/>
       <use x="95.410156" xlink:href="#DejaVuSans-52"/>
      </g>
     </g>
    </g>
    <g id="ytick_13">
     <g id="text_31">
      <!-- 0.6 -->
      <g style="opacity:0;" transform="translate(80.290625 467.157656)scale(0.3 -0.3)">
       <use xlink:href="#DejaVuSans-48"/>
       <use x="63.623047" xlink:href="#DejaVuSans-46"/>
       <use x="95.410156" xlink:href="#DejaVuSans-54"/>
      </g>
     </g>
    </g>
    <g id="ytick_14">
     <g id="text_32">
      <!-- 0.8 -->
      <g style="opacity:0;" transform="translate(80.290625 304.077656)scale(0.3 -0.3)">
       <use xlink:href="#DejaVuSans-48"/>
       <use x="63.623047" xlink:href="#DejaVuSans-46"/>
       <use x="95.410156" xlink:href="#DejaVuSans-56"/>
      </g>
     </g>
    </g>
    <g id="ytick_15">
     <g id="text_33">
      <!-- 1.0 -->
      <g style="opacity:0;" transform="translate(80.290625 140.997656)scale(0.3 -0.3)">
       <use xlink:href="#DejaVuSans-49"/>
       <use x="63.623047" xlink:href="#DejaVuSans-46"/>
       <use x="95.410156" xlink:href="#DejaVuSans-48"/>
      </g>
     </g>
    </g>
   </g>
  </g>
 </g>
 <defs>
  <clipPath id="pa4883576c9">
   <rect height="239.823529" width="837" x="135" y="129.6"/>
  </clipPath>
  <clipPath id="p9f150d38a5">
   <rect height="239.823529" width="837" x="135" y="417.388235"/>
  </clipPath>
  <clipPath id="p17d6ab1e6f">
   <rect height="239.823529" width="837" x="135" y="705.176471"/>
  </clipPath>
 </defs>
</svg>
