<?xml version="1.0" encoding="utf-8" standalone="no"?>
<!DOCTYPE svg PUBLIC "-//W3C//DTD SVG 1.1//EN"
  "http://www.w3.org/Graphics/SVG/1.1/DTD/svg11.dtd">
<!-- Created with matplotlib (https://matplotlib.org/) -->
<svg height="1080pt" version="1.1" viewBox="0 0 720 1080" width="720pt" xmlns="http://www.w3.org/2000/svg" xmlns:xlink="http://www.w3.org/1999/xlink">
 <metadata>
  <rdf:RDF xmlns:cc="http://creativecommons.org/ns#" xmlns:dc="http://purl.org/dc/elements/1.1/" xmlns:rdf="http://www.w3.org/1999/02/22-rdf-syntax-ns#">
   <cc:Work>
    <dc:type rdf:resource="http://purl.org/dc/dcmitype/StillImage"/>
    <dc:date>2021-04-27T22:11:38.426605</dc:date>
    <dc:format>image/svg+xml</dc:format>
    <dc:creator>
     <cc:Agent>
      <dc:title>Matplotlib v3.3.2, https://matplotlib.org/</dc:title>
     </cc:Agent>
    </dc:creator>
   </cc:Work>
  </rdf:RDF>
 </metadata>
 <defs>
  <style type="text/css">*{stroke-linecap:butt;stroke-linejoin:round;}</style>
 </defs>
 <g id="figure_1">
  <g id="patch_1">
   <path d="M 0 1080 
L 720 1080 
L 720 0 
L 0 0 
z
" style="fill:none;"/>
  </g>
  <g id="axes_1">
   <g id="patch_2">
    <path d="M 90 369.423529 
L 648 369.423529 
L 648 129.6 
L 90 129.6 
z
" style="fill:#ffffff;"/>
   </g>
   <g id="matplotlib.axis_1">
    <g id="xtick_1">
     <g id="line2d_1">
      <defs>
       <path d="M 0 0 
L 0 3.5 
" id="m9cc462eabd" style="stroke:#000000;stroke-width:0.8;"/>
      </defs>
      <g>
       <use style="stroke:#000000;stroke-width:0.8;" x="210.477273" xlink:href="#m9cc462eabd" y="369.423529"/>
      </g>
     </g>
    </g>
    <g id="xtick_2">
     <g id="line2d_2">
      <g>
       <use style="stroke:#000000;stroke-width:0.8;" x="369" xlink:href="#m9cc462eabd" y="369.423529"/>
      </g>
     </g>
    </g>
    <g id="xtick_3">
     <g id="line2d_3">
      <g>
       <use style="stroke:#000000;stroke-width:0.8;" x="527.522727" xlink:href="#m9cc462eabd" y="369.423529"/>
      </g>
     </g>
    </g>
   </g>
   <g id="matplotlib.axis_2">
    <g id="ytick_1">
     <g id="line2d_4">
      <defs>
       <path d="M 0 0 
L -3.5 0 
" id="m391400fc7f" style="stroke:#000000;stroke-width:0.8;"/>
      </defs>
      <g>
       <use style="stroke:#000000;stroke-width:0.8;" x="90" xlink:href="#m391400fc7f" y="369.423529"/>
      </g>
     </g>
     <g id="text_1">
      <!-- 0.0 -->
      <g transform="translate(27.339063 382.720795)scale(0.35 -0.35)">
       <defs>
        <path d="M 31.78125 66.40625 
Q 24.171875 66.40625 20.328125 58.90625 
Q 16.5 51.421875 16.5 36.375 
Q 16.5 21.390625 20.328125 13.890625 
Q 24.171875 6.390625 31.78125 6.390625 
Q 39.453125 6.390625 43.28125 13.890625 
Q 47.125 21.390625 47.125 36.375 
Q 47.125 51.421875 43.28125 58.90625 
Q 39.453125 66.40625 31.78125 66.40625 
z
M 31.78125 74.21875 
Q 44.046875 74.21875 50.515625 64.515625 
Q 56.984375 54.828125 56.984375 36.375 
Q 56.984375 17.96875 50.515625 8.265625 
Q 44.046875 -1.421875 31.78125 -1.421875 
Q 19.53125 -1.421875 13.0625 8.265625 
Q 6.59375 17.96875 6.59375 36.375 
Q 6.59375 54.828125 13.0625 64.515625 
Q 19.53125 74.21875 31.78125 74.21875 
z
" id="DejaVuSans-48"/>
        <path d="M 10.6875 12.40625 
L 21 12.40625 
L 21 0 
L 10.6875 0 
z
" id="DejaVuSans-46"/>
       </defs>
       <use xlink:href="#DejaVuSans-48"/>
       <use x="63.623047" xlink:href="#DejaVuSans-46"/>
       <use x="95.410156" xlink:href="#DejaVuSans-48"/>
      </g>
     </g>
    </g>
    <g id="ytick_2">
     <g id="line2d_5">
      <g>
       <use style="stroke:#000000;stroke-width:0.8;" x="90" xlink:href="#m391400fc7f" y="249.511765"/>
      </g>
     </g>
     <g id="text_2">
      <!-- 0.5 -->
      <g transform="translate(27.339063 262.80903)scale(0.35 -0.35)">
       <defs>
        <path d="M 10.796875 72.90625 
L 49.515625 72.90625 
L 49.515625 64.59375 
L 19.828125 64.59375 
L 19.828125 46.734375 
Q 21.96875 47.46875 24.109375 47.828125 
Q 26.265625 48.1875 28.421875 48.1875 
Q 40.625 48.1875 47.75 41.5 
Q 54.890625 34.8125 54.890625 23.390625 
Q 54.890625 11.625 47.5625 5.09375 
Q 40.234375 -1.421875 26.90625 -1.421875 
Q 22.3125 -1.421875 17.546875 -0.640625 
Q 12.796875 0.140625 7.71875 1.703125 
L 7.71875 11.625 
Q 12.109375 9.234375 16.796875 8.0625 
Q 21.484375 6.890625 26.703125 6.890625 
Q 35.15625 6.890625 40.078125 11.328125 
Q 45.015625 15.765625 45.015625 23.390625 
Q 45.015625 31 40.078125 35.4375 
Q 35.15625 39.890625 26.703125 39.890625 
Q 22.75 39.890625 18.8125 39.015625 
Q 14.890625 38.140625 10.796875 36.28125 
z
" id="DejaVuSans-53"/>
       </defs>
       <use xlink:href="#DejaVuSans-48"/>
       <use x="63.623047" xlink:href="#DejaVuSans-46"/>
       <use x="95.410156" xlink:href="#DejaVuSans-53"/>
      </g>
     </g>
    </g>
    <g id="ytick_3">
     <g id="line2d_6">
      <g>
       <use style="stroke:#000000;stroke-width:0.8;" x="90" xlink:href="#m391400fc7f" y="129.6"/>
      </g>
     </g>
     <g id="text_3">
      <!-- 1.0 -->
      <g transform="translate(27.339063 142.897266)scale(0.35 -0.35)">
       <defs>
        <path d="M 12.40625 8.296875 
L 28.515625 8.296875 
L 28.515625 63.921875 
L 10.984375 60.40625 
L 10.984375 69.390625 
L 28.421875 72.90625 
L 38.28125 72.90625 
L 38.28125 8.296875 
L 54.390625 8.296875 
L 54.390625 0 
L 12.40625 0 
z
" id="DejaVuSans-49"/>
       </defs>
       <use xlink:href="#DejaVuSans-49"/>
       <use x="63.623047" xlink:href="#DejaVuSans-46"/>
       <use x="95.410156" xlink:href="#DejaVuSans-48"/>
      </g>
     </g>
    </g>
   </g>
   <g id="line2d_7">
    <path clip-path="url(#pde25a21b3a)" d="M 115.363636 160.15055 
L 125.529422 162.395513 
L 135.695209 164.878917 
L 144.844416 167.34367 
L 153.993624 170.052492 
L 162.126253 172.688295 
L 170.258881 175.561662 
L 178.39151 178.69628 
L 185.507561 181.673364 
L 192.623611 184.887597 
L 199.739661 188.35658 
L 206.855711 192.097448 
L 213.971762 196.12551 
L 220.071233 199.815655 
L 227.187284 204.40315 
L 234.303334 209.291532 
L 241.419384 214.463075 
L 249.552013 220.667291 
L 273.9499 239.565026 
L 278.016214 242.33345 
L 282.082529 244.811183 
L 285.132265 246.417275 
L 288.182 247.751322 
L 290.215158 248.461458 
L 292.248315 249.006539 
L 294.281472 249.366443 
L 296.314629 249.519615 
L 298.347786 249.443223 
L 300.380944 249.113183 
L 302.414101 248.504196 
L 304.447258 247.590177 
L 306.480415 246.344261 
L 308.513573 244.739334 
L 310.54673 242.748495 
L 312.579887 240.345343 
L 314.613044 237.505025 
L 316.646201 234.205002 
L 318.679359 230.425896 
L 320.712516 226.152738 
L 322.745673 221.376601 
L 324.77883 216.096006 
L 326.811988 210.31867 
L 329.861723 200.766913 
L 332.911459 190.269888 
L 336.977774 175.196908 
L 343.077245 152.230496 
L 345.110403 145.245687 
L 347.14356 139.084988 
L 348.160138 136.444639 
L 349.176717 134.184809 
L 350.193296 132.385781 
L 351.209874 131.142731 
L 352.226453 130.570787 
L 353.243032 130.809763 
L 354.25961 132.031369 
L 355.276189 134.447994 
L 356.292767 138.322637 
L 357.309346 143.979817 
L 358.325925 151.811771 
L 359.342503 162.269262 
L 360.359082 175.806739 
L 361.37566 192.713299 
L 364.425396 250.596913 
L 365.441975 252.168052 
L 366.458553 225.264155 
L 367.475132 175.031883 
L 368.491711 146.546844 
L 369.508289 175.031879 
L 370.524868 225.264174 
L 371.541447 252.168021 
L 372.558025 250.596871 
L 373.574604 233.773036 
L 375.607761 192.713299 
L 376.62434 175.806715 
L 377.640918 162.269263 
L 378.657497 151.811689 
L 379.674075 143.979762 
L 380.690654 138.322637 
L 381.707233 134.447994 
L 382.723811 132.031312 
L 383.74039 130.809763 
L 384.756968 130.570787 
L 385.773547 131.142731 
L 386.790126 132.385781 
L 387.806704 134.184724 
L 388.823283 136.444555 
L 389.839862 139.084988 
L 391.873019 145.245687 
L 393.906176 152.230496 
L 396.955912 163.554514 
L 404.071962 190.26984 
L 407.121698 200.766913 
L 410.171434 210.318667 
L 412.204591 216.096006 
L 414.237748 221.376588 
L 416.270905 226.152738 
L 418.304063 230.425863 
L 420.33722 234.205002 
L 422.370377 237.505011 
L 424.403534 240.345335 
L 426.436692 242.748477 
L 428.469849 244.739334 
L 430.503006 246.344261 
L 432.536163 247.590177 
L 434.56932 248.504196 
L 436.602478 249.113183 
L 438.635635 249.443223 
L 440.668792 249.519615 
L 442.701949 249.366443 
L 444.735107 249.006539 
L 446.768264 248.461458 
L 449.818 247.340253 
L 452.867735 245.909479 
L 455.917471 244.224318 
L 459.983786 241.664985 
L 464.0501 238.837883 
L 470.149572 234.269049 
L 480.315358 226.267825 
L 491.497723 217.53114 
L 499.630352 211.474932 
L 506.746402 206.461974 
L 513.862452 201.74444 
L 520.978502 197.330893 
L 528.094553 193.21844 
L 535.210603 189.39691 
L 542.326653 185.851964 
L 549.442704 182.566744 
L 556.558754 179.523715 
L 563.674804 176.705215 
L 571.807433 173.736736 
L 579.940062 171.014537 
L 588.072691 168.515797 
L 597.221898 165.945906 
L 606.371106 163.605517 
L 616.536892 161.245024 
L 622.636364 159.938102 
L 622.636364 159.938102 
" style="fill:none;stroke:#ff0000;stroke-linecap:square;stroke-width:5;"/>
   </g>
   <g id="patch_3">
    <path d="M 90 369.423529 
L 90 129.6 
" style="fill:none;stroke:#000000;stroke-linecap:square;stroke-linejoin:miter;stroke-width:0.8;"/>
   </g>
   <g id="patch_4">
    <path d="M 648 369.423529 
L 648 129.6 
" style="fill:none;stroke:#000000;stroke-linecap:square;stroke-linejoin:miter;stroke-width:0.8;"/>
   </g>
   <g id="patch_5">
    <path d="M 90 369.423529 
L 648 369.423529 
" style="fill:none;stroke:#000000;stroke-linecap:square;stroke-linejoin:miter;stroke-width:0.8;"/>
   </g>
   <g id="patch_6">
    <path d="M 90 129.6 
L 648 129.6 
" style="fill:none;stroke:#000000;stroke-linecap:square;stroke-linejoin:miter;stroke-width:0.8;"/>
   </g>
  </g>
  <g id="axes_2">
   <g id="patch_7">
    <path d="M 90 657.211765 
L 648 657.211765 
L 648 417.388235 
L 90 417.388235 
z
" style="fill:#ffffff;"/>
   </g>
   <g id="matplotlib.axis_3">
    <g id="xtick_4">
     <g id="line2d_8">
      <g>
       <use style="stroke:#000000;stroke-width:0.8;" x="210.477273" xlink:href="#m9cc462eabd" y="657.211765"/>
      </g>
     </g>
    </g>
    <g id="xtick_5">
     <g id="line2d_9">
      <g>
       <use style="stroke:#000000;stroke-width:0.8;" x="369" xlink:href="#m9cc462eabd" y="657.211765"/>
      </g>
     </g>
    </g>
    <g id="xtick_6">
     <g id="line2d_10">
      <g>
       <use style="stroke:#000000;stroke-width:0.8;" x="527.522727" xlink:href="#m9cc462eabd" y="657.211765"/>
      </g>
     </g>
    </g>
   </g>
   <g id="matplotlib.axis_4">
    <g id="ytick_4">
     <g id="line2d_11">
      <g>
       <use style="stroke:#000000;stroke-width:0.8;" x="90" xlink:href="#m391400fc7f" y="657.211765"/>
      </g>
     </g>
     <g id="text_4">
      <!-- 0.0 -->
      <g transform="translate(27.339063 670.50903)scale(0.35 -0.35)">
       <use xlink:href="#DejaVuSans-48"/>
       <use x="63.623047" xlink:href="#DejaVuSans-46"/>
       <use x="95.410156" xlink:href="#DejaVuSans-48"/>
      </g>
     </g>
    </g>
    <g id="ytick_5">
     <g id="line2d_12">
      <g>
       <use style="stroke:#000000;stroke-width:0.8;" x="90" xlink:href="#m391400fc7f" y="537.3"/>
      </g>
     </g>
     <g id="text_5">
      <!-- 0.5 -->
      <g transform="translate(27.339063 550.597266)scale(0.35 -0.35)">
       <use xlink:href="#DejaVuSans-48"/>
       <use x="63.623047" xlink:href="#DejaVuSans-46"/>
       <use x="95.410156" xlink:href="#DejaVuSans-53"/>
      </g>
     </g>
    </g>
    <g id="ytick_6">
     <g id="line2d_13">
      <g>
       <use style="stroke:#000000;stroke-width:0.8;" x="90" xlink:href="#m391400fc7f" y="417.388235"/>
      </g>
     </g>
     <g id="text_6">
      <!-- 1.0 -->
      <g transform="translate(27.339063 430.685501)scale(0.35 -0.35)">
       <use xlink:href="#DejaVuSans-49"/>
       <use x="63.623047" xlink:href="#DejaVuSans-46"/>
       <use x="95.410156" xlink:href="#DejaVuSans-48"/>
      </g>
     </g>
    </g>
   </g>
   <g id="line2d_14">
    <path clip-path="url(#p1781e8c596)" d="M 115.363636 425.873869 
L 131.628894 427.04027 
L 145.860995 428.267117 
L 159.076517 429.625014 
L 170.258881 430.979086 
L 180.424668 432.410921 
L 189.573875 433.897626 
L 198.723083 435.610514 
L 206.855711 437.360577 
L 213.971762 439.100497 
L 221.087812 441.06965 
L 227.187284 442.970183 
L 233.286755 445.098716 
L 239.386227 447.490846 
L 244.46912 449.71586 
L 249.552013 452.18164 
L 254.634906 454.920953 
L 258.701221 457.334388 
L 262.767535 459.96839 
L 266.83385 462.846994 
L 270.900164 465.996364 
L 274.966478 469.444857 
L 279.032793 473.222657 
L 283.099107 477.360755 
L 287.165422 481.889564 
L 291.231736 486.835936 
L 295.298051 492.218718 
L 299.364365 498.041202 
L 303.43068 504.278506 
L 308.513573 512.541244 
L 316.646201 525.919628 
L 319.695937 530.429713 
L 321.729095 533.045346 
L 323.762252 535.192508 
L 324.77883 536.038712 
L 325.795409 536.701136 
L 326.811988 537.152447 
L 327.828566 537.362853 
L 328.845145 537.299662 
L 329.861723 536.92718 
L 330.878302 536.207475 
L 331.894881 535.099919 
L 332.911459 533.561307 
L 333.928038 531.54749 
L 334.944617 529.012928 
L 335.961195 525.912734 
L 336.977774 522.203545 
L 337.994352 517.846272 
L 339.010931 512.808797 
L 340.02751 507.069743 
L 342.060667 493.482986 
L 344.093824 477.332939 
L 349.176717 433.613645 
L 350.193296 426.838288 
L 351.209874 421.896526 
L 352.226453 419.44002 
L 353.243032 420.139486 
L 354.25961 424.611463 
L 355.276189 433.30452 
L 356.292767 446.348794 
L 357.309346 463.362319 
L 360.359082 522.828071 
L 361.37566 536.096595 
L 362.392239 540.267297 
L 363.408818 532.830955 
L 364.425396 513.669837 
L 366.458553 456.875752 
L 367.475132 434.466304 
L 368.491711 426.055792 
L 369.508289 434.466275 
L 370.524868 456.875279 
L 372.558025 513.669946 
L 373.574604 532.831042 
L 374.591182 540.267278 
L 375.607761 536.096448 
L 376.62434 522.828043 
L 378.657497 483.24795 
L 379.674075 463.362387 
L 380.690654 446.348794 
L 381.707233 433.304408 
L 382.723811 424.610929 
L 383.74039 420.139401 
L 384.756968 419.439849 
L 385.773547 421.896526 
L 386.790126 426.838288 
L 387.806704 433.613535 
L 389.839862 450.387481 
L 393.906176 485.693096 
L 395.939333 500.622992 
L 397.97249 512.808775 
L 398.989069 517.846129 
L 400.005648 522.203538 
L 401.022226 525.912708 
L 402.038805 529.013055 
L 403.055383 531.54753 
L 404.071962 533.561362 
L 405.088541 535.099905 
L 406.105119 536.207428 
L 407.121698 536.927179 
L 408.138277 537.299603 
L 409.154855 537.362853 
L 410.171434 537.152533 
L 411.188012 536.701147 
L 412.204591 536.038724 
L 413.22117 535.192573 
L 415.254327 533.045329 
L 417.287484 530.429706 
L 420.33722 525.919669 
L 424.403534 519.322809 
L 433.552742 504.278454 
L 437.619056 498.041172 
L 441.685371 492.218715 
L 445.751685 486.835936 
L 449.818 481.889587 
L 453.884314 477.360755 
L 457.950629 473.222655 
L 462.016943 469.444885 
L 466.083257 465.996337 
L 470.149572 462.847046 
L 474.215886 459.968392 
L 478.282201 457.334389 
L 482.348515 454.920954 
L 487.431408 452.181668 
L 492.514301 449.715861 
L 497.597194 447.490846 
L 502.680087 445.478 
L 508.779559 443.308221 
L 514.879031 441.371961 
L 521.995081 439.366899 
L 529.111131 437.596435 
L 537.24376 435.816767 
L 545.376389 434.257228 
L 554.525597 432.723769 
L 564.691383 431.248872 
L 575.873747 429.855979 
L 588.072691 428.559982 
L 602.304791 427.285274 
L 617.553471 426.145023 
L 622.636364 425.807992 
L 622.636364 425.807992 
" style="fill:none;stroke:#ff7f0e;stroke-linecap:square;stroke-width:5;"/>
   </g>
   <g id="patch_8">
    <path d="M 90 657.211765 
L 90 417.388235 
" style="fill:none;stroke:#000000;stroke-linecap:square;stroke-linejoin:miter;stroke-width:0.8;"/>
   </g>
   <g id="patch_9">
    <path d="M 648 657.211765 
L 648 417.388235 
" style="fill:none;stroke:#000000;stroke-linecap:square;stroke-linejoin:miter;stroke-width:0.8;"/>
   </g>
   <g id="patch_10">
    <path d="M 90 657.211765 
L 648 657.211765 
" style="fill:none;stroke:#000000;stroke-linecap:square;stroke-linejoin:miter;stroke-width:0.8;"/>
   </g>
   <g id="patch_11">
    <path d="M 90 417.388235 
L 648 417.388235 
" style="fill:none;stroke:#000000;stroke-linecap:square;stroke-linejoin:miter;stroke-width:0.8;"/>
   </g>
  </g>
  <g id="axes_3">
   <g id="patch_12">
    <path d="M 90 945 
L 648 945 
L 648 705.176471 
L 90 705.176471 
z
" style="fill:#ffffff;"/>
   </g>
   <g id="matplotlib.axis_5">
    <g id="xtick_7">
     <g id="line2d_15">
      <g>
       <use style="stroke:#000000;stroke-width:0.8;" x="210.477273" xlink:href="#m9cc462eabd" y="945"/>
      </g>
     </g>
     <g id="text_7">
      <!-- −50 -->
      <g transform="translate(173.54407 978.594531)scale(0.35 -0.35)">
       <defs>
        <path d="M 10.59375 35.5 
L 73.1875 35.5 
L 73.1875 27.203125 
L 10.59375 27.203125 
z
" id="DejaVuSans-8722"/>
       </defs>
       <use xlink:href="#DejaVuSans-8722"/>
       <use x="83.789062" xlink:href="#DejaVuSans-53"/>
       <use x="147.412109" xlink:href="#DejaVuSans-48"/>
      </g>
     </g>
    </g>
    <g id="xtick_8">
     <g id="line2d_16">
      <g>
       <use style="stroke:#000000;stroke-width:0.8;" x="369" xlink:href="#m9cc462eabd" y="945"/>
      </g>
     </g>
     <g id="text_8">
      <!-- 0 -->
      <g transform="translate(357.865625 978.594531)scale(0.35 -0.35)">
       <use xlink:href="#DejaVuSans-48"/>
      </g>
     </g>
    </g>
    <g id="xtick_9">
     <g id="line2d_17">
      <g>
       <use style="stroke:#000000;stroke-width:0.8;" x="527.522727" xlink:href="#m9cc462eabd" y="945"/>
      </g>
     </g>
     <g id="text_9">
      <!-- 50 -->
      <g transform="translate(505.253977 978.594531)scale(0.35 -0.35)">
       <use xlink:href="#DejaVuSans-53"/>
       <use x="63.623047" xlink:href="#DejaVuSans-48"/>
      </g>
     </g>
    </g>
   </g>
   <g id="matplotlib.axis_6">
    <g id="ytick_7">
     <g id="line2d_18">
      <g>
       <use style="stroke:#000000;stroke-width:0.8;" x="90" xlink:href="#m391400fc7f" y="945"/>
      </g>
     </g>
     <g id="text_10">
      <!-- 0.0 -->
      <g transform="translate(27.339063 958.297266)scale(0.35 -0.35)">
       <use xlink:href="#DejaVuSans-48"/>
       <use x="63.623047" xlink:href="#DejaVuSans-46"/>
       <use x="95.410156" xlink:href="#DejaVuSans-48"/>
      </g>
     </g>
    </g>
    <g id="ytick_8">
     <g id="line2d_19">
      <g>
       <use style="stroke:#000000;stroke-width:0.8;" x="90" xlink:href="#m391400fc7f" y="825.088235"/>
      </g>
     </g>
     <g id="text_11">
      <!-- 0.5 -->
      <g transform="translate(27.339063 838.385501)scale(0.35 -0.35)">
       <use xlink:href="#DejaVuSans-48"/>
       <use x="63.623047" xlink:href="#DejaVuSans-46"/>
       <use x="95.410156" xlink:href="#DejaVuSans-53"/>
      </g>
     </g>
    </g>
    <g id="ytick_9">
     <g id="line2d_20">
      <g>
       <use style="stroke:#000000;stroke-width:0.8;" x="90" xlink:href="#m391400fc7f" y="705.176471"/>
      </g>
     </g>
     <g id="text_12">
      <!-- 1.0 -->
      <g transform="translate(27.339063 718.473736)scale(0.35 -0.35)">
       <use xlink:href="#DejaVuSans-49"/>
       <use x="63.623047" xlink:href="#DejaVuSans-46"/>
       <use x="95.410156" xlink:href="#DejaVuSans-48"/>
      </g>
     </g>
    </g>
   </g>
   <g id="line2d_21">
    <path clip-path="url(#p1242870470)" d="M 115.363636 705.527945 
L 181.441246 705.823655 
L 219.054655 706.197353 
L 243.452541 706.646342 
L 260.734378 707.174102 
L 273.9499 707.799839 
L 284.115686 708.509936 
L 292.248315 709.313667 
L 298.347786 710.129378 
L 303.43068 711.01456 
L 307.496994 711.91136 
L 311.563308 713.039763 
L 314.613044 714.090641 
L 317.66278 715.376277 
L 320.712516 716.974698 
L 322.745673 718.268316 
L 324.77883 719.797216 
L 326.811988 721.624055 
L 328.845145 723.833789 
L 330.878302 726.544482 
L 332.911459 729.923178 
L 333.928038 731.934753 
L 334.944617 734.212156 
L 335.961195 736.804056 
L 336.977774 739.770649 
L 337.994352 743.185979 
L 339.010931 747.14161 
L 340.02751 751.750521 
L 341.044088 757.150528 
L 342.060667 763.506178 
L 343.077245 771.003334 
L 344.093824 779.826273 
L 345.110403 790.088418 
L 348.160138 823.752778 
L 349.176717 825.916828 
L 350.193296 809.462927 
L 352.226453 719.498019 
L 353.243032 730.417509 
L 354.25961 790.255651 
L 355.276189 826.386258 
L 356.292767 822.902925 
L 359.342503 758.837295 
L 360.359082 743.703222 
L 361.37566 732.396902 
L 362.392239 724.065304 
L 363.408818 717.979123 
L 364.425396 713.590439 
L 365.441975 710.51094 
L 366.458553 708.476473 
L 367.475132 707.318147 
L 368.491711 706.941994 
L 369.508289 707.318147 
L 370.524868 708.476473 
L 371.541447 710.510968 
L 372.558025 713.590466 
L 373.574604 717.979122 
L 374.591182 724.065303 
L 375.607761 732.396925 
L 376.62434 743.70324 
L 377.640918 758.837304 
L 378.657497 778.425232 
L 380.690654 822.902917 
L 381.707233 826.386152 
L 382.723811 790.255284 
L 383.74039 730.417079 
L 384.756968 719.497686 
L 386.790126 809.462814 
L 387.806704 825.916731 
L 388.823283 823.752722 
L 389.839862 813.698507 
L 391.873019 790.088406 
L 392.889597 779.826265 
L 393.906176 771.003331 
L 394.922755 763.506148 
L 395.939333 757.150499 
L 396.955912 751.750494 
L 397.97249 747.141635 
L 398.989069 743.185952 
L 400.005648 739.770648 
L 401.022226 736.804082 
L 402.038805 734.212155 
L 404.071962 729.92315 
L 406.105119 726.544455 
L 408.138277 723.833789 
L 410.171434 721.624055 
L 412.204591 719.797216 
L 414.237748 718.268316 
L 416.270905 716.974698 
L 419.320641 715.376277 
L 422.370377 714.090641 
L 425.420113 713.039763 
L 429.486427 711.91136 
L 433.552742 711.01456 
L 438.635635 710.129378 
L 444.735107 709.313667 
L 451.851157 708.596687 
L 461.000364 707.922182 
L 472.182729 707.340148 
L 486.41483 706.834649 
L 505.729823 706.391136 
L 532.160867 706.024893 
L 570.790854 705.728805 
L 622.636364 705.525119 
L 622.636364 705.525119 
" style="fill:none;stroke:#0000ff;stroke-linecap:square;stroke-width:5;"/>
   </g>
   <g id="patch_13">
    <path d="M 90 945 
L 90 705.176471 
" style="fill:none;stroke:#000000;stroke-linecap:square;stroke-linejoin:miter;stroke-width:0.8;"/>
   </g>
   <g id="patch_14">
    <path d="M 648 945 
L 648 705.176471 
" style="fill:none;stroke:#000000;stroke-linecap:square;stroke-linejoin:miter;stroke-width:0.8;"/>
   </g>
   <g id="patch_15">
    <path d="M 90 945 
L 648 945 
" style="fill:none;stroke:#000000;stroke-linecap:square;stroke-linejoin:miter;stroke-width:0.8;"/>
   </g>
   <g id="patch_16">
    <path d="M 90 705.176471 
L 648 705.176471 
" style="fill:none;stroke:#000000;stroke-linecap:square;stroke-linejoin:miter;stroke-width:0.8;"/>
   </g>
  </g>
  <g id="axes_4">
   <g id="matplotlib.axis_7">
    <g id="xtick_10">
     <g id="text_13">
      <!-- 0.0 -->
      <g style="opacity:0;" transform="translate(62.169531 978.594531)scale(0.35 -0.35)">
       <use xlink:href="#DejaVuSans-48"/>
       <use x="63.623047" xlink:href="#DejaVuSans-46"/>
       <use x="95.410156" xlink:href="#DejaVuSans-48"/>
      </g>
     </g>
    </g>
    <g id="xtick_11">
     <g id="text_14">
      <!-- 0.2 -->
      <g style="opacity:0;" transform="translate(173.769531 978.594531)scale(0.35 -0.35)">
       <defs>
        <path d="M 19.1875 8.296875 
L 53.609375 8.296875 
L 53.609375 0 
L 7.328125 0 
L 7.328125 8.296875 
Q 12.9375 14.109375 22.625 23.890625 
Q 32.328125 33.6875 34.8125 36.53125 
Q 39.546875 41.84375 41.421875 45.53125 
Q 43.3125 49.21875 43.3125 52.78125 
Q 43.3125 58.59375 39.234375 62.25 
Q 35.15625 65.921875 28.609375 65.921875 
Q 23.96875 65.921875 18.8125 64.3125 
Q 13.671875 62.703125 7.8125 59.421875 
L 7.8125 69.390625 
Q 13.765625 71.78125 18.9375 73 
Q 24.125 74.21875 28.421875 74.21875 
Q 39.75 74.21875 46.484375 68.546875 
Q 53.21875 62.890625 53.21875 53.421875 
Q 53.21875 48.921875 51.53125 44.890625 
Q 49.859375 40.875 45.40625 35.40625 
Q 44.1875 33.984375 37.640625 27.21875 
Q 31.109375 20.453125 19.1875 8.296875 
z
" id="DejaVuSans-50"/>
       </defs>
       <use xlink:href="#DejaVuSans-48"/>
       <use x="63.623047" xlink:href="#DejaVuSans-46"/>
       <use x="95.410156" xlink:href="#DejaVuSans-50"/>
      </g>
     </g>
    </g>
    <g id="xtick_12">
     <g id="text_15">
      <!-- 0.4 -->
      <g style="opacity:0;" transform="translate(285.369531 978.594531)scale(0.35 -0.35)">
       <defs>
        <path d="M 37.796875 64.3125 
L 12.890625 25.390625 
L 37.796875 25.390625 
z
M 35.203125 72.90625 
L 47.609375 72.90625 
L 47.609375 25.390625 
L 58.015625 25.390625 
L 58.015625 17.1875 
L 47.609375 17.1875 
L 47.609375 0 
L 37.796875 0 
L 37.796875 17.1875 
L 4.890625 17.1875 
L 4.890625 26.703125 
z
" id="DejaVuSans-52"/>
       </defs>
       <use xlink:href="#DejaVuSans-48"/>
       <use x="63.623047" xlink:href="#DejaVuSans-46"/>
       <use x="95.410156" xlink:href="#DejaVuSans-52"/>
      </g>
     </g>
    </g>
    <g id="xtick_13">
     <g id="text_16">
      <!-- 0.6 -->
      <g style="opacity:0;" transform="translate(396.969531 978.594531)scale(0.35 -0.35)">
       <defs>
        <path d="M 33.015625 40.375 
Q 26.375 40.375 22.484375 35.828125 
Q 18.609375 31.296875 18.609375 23.390625 
Q 18.609375 15.53125 22.484375 10.953125 
Q 26.375 6.390625 33.015625 6.390625 
Q 39.65625 6.390625 43.53125 10.953125 
Q 47.40625 15.53125 47.40625 23.390625 
Q 47.40625 31.296875 43.53125 35.828125 
Q 39.65625 40.375 33.015625 40.375 
z
M 52.59375 71.296875 
L 52.59375 62.3125 
Q 48.875 64.0625 45.09375 64.984375 
Q 41.3125 65.921875 37.59375 65.921875 
Q 27.828125 65.921875 22.671875 59.328125 
Q 17.53125 52.734375 16.796875 39.40625 
Q 19.671875 43.65625 24.015625 45.921875 
Q 28.375 48.1875 33.59375 48.1875 
Q 44.578125 48.1875 50.953125 41.515625 
Q 57.328125 34.859375 57.328125 23.390625 
Q 57.328125 12.15625 50.6875 5.359375 
Q 44.046875 -1.421875 33.015625 -1.421875 
Q 20.359375 -1.421875 13.671875 8.265625 
Q 6.984375 17.96875 6.984375 36.375 
Q 6.984375 53.65625 15.1875 63.9375 
Q 23.390625 74.21875 37.203125 74.21875 
Q 40.921875 74.21875 44.703125 73.484375 
Q 48.484375 72.75 52.59375 71.296875 
z
" id="DejaVuSans-54"/>
       </defs>
       <use xlink:href="#DejaVuSans-48"/>
       <use x="63.623047" xlink:href="#DejaVuSans-46"/>
       <use x="95.410156" xlink:href="#DejaVuSans-54"/>
      </g>
     </g>
    </g>
    <g id="xtick_14">
     <g id="text_17">
      <!-- 0.8 -->
      <g style="opacity:0;" transform="translate(508.569531 978.594531)scale(0.35 -0.35)">
       <defs>
        <path d="M 31.78125 34.625 
Q 24.75 34.625 20.71875 30.859375 
Q 16.703125 27.09375 16.703125 20.515625 
Q 16.703125 13.921875 20.71875 10.15625 
Q 24.75 6.390625 31.78125 6.390625 
Q 38.8125 6.390625 42.859375 10.171875 
Q 46.921875 13.96875 46.921875 20.515625 
Q 46.921875 27.09375 42.890625 30.859375 
Q 38.875 34.625 31.78125 34.625 
z
M 21.921875 38.8125 
Q 15.578125 40.375 12.03125 44.71875 
Q 8.5 49.078125 8.5 55.328125 
Q 8.5 64.0625 14.71875 69.140625 
Q 20.953125 74.21875 31.78125 74.21875 
Q 42.671875 74.21875 48.875 69.140625 
Q 55.078125 64.0625 55.078125 55.328125 
Q 55.078125 49.078125 51.53125 44.71875 
Q 48 40.375 41.703125 38.8125 
Q 48.828125 37.15625 52.796875 32.3125 
Q 56.78125 27.484375 56.78125 20.515625 
Q 56.78125 9.90625 50.3125 4.234375 
Q 43.84375 -1.421875 31.78125 -1.421875 
Q 19.734375 -1.421875 13.25 4.234375 
Q 6.78125 9.90625 6.78125 20.515625 
Q 6.78125 27.484375 10.78125 32.3125 
Q 14.796875 37.15625 21.921875 38.8125 
z
M 18.3125 54.390625 
Q 18.3125 48.734375 21.84375 45.5625 
Q 25.390625 42.390625 31.78125 42.390625 
Q 38.140625 42.390625 41.71875 45.5625 
Q 45.3125 48.734375 45.3125 54.390625 
Q 45.3125 60.0625 41.71875 63.234375 
Q 38.140625 66.40625 31.78125 66.40625 
Q 25.390625 66.40625 21.84375 63.234375 
Q 18.3125 60.0625 18.3125 54.390625 
z
" id="DejaVuSans-56"/>
       </defs>
       <use xlink:href="#DejaVuSans-48"/>
       <use x="63.623047" xlink:href="#DejaVuSans-46"/>
       <use x="95.410156" xlink:href="#DejaVuSans-56"/>
      </g>
     </g>
    </g>
    <g id="xtick_15">
     <g id="text_18">
      <!-- 1.0 -->
      <g style="opacity:0;" transform="translate(620.169531 978.594531)scale(0.35 -0.35)">
       <use xlink:href="#DejaVuSans-49"/>
       <use x="63.623047" xlink:href="#DejaVuSans-46"/>
       <use x="95.410156" xlink:href="#DejaVuSans-48"/>
      </g>
     </g>
    </g>
    <g id="text_19">
     <!-- $(\omega-\omega_{c})$ (Hz) -->
     <g transform="translate(255.6 1016.467969)scale(0.35 -0.35)">
      <defs>
       <path d="M 31 75.875 
Q 24.46875 64.65625 21.28125 53.65625 
Q 18.109375 42.671875 18.109375 31.390625 
Q 18.109375 20.125 21.3125 9.0625 
Q 24.515625 -2 31 -13.1875 
L 23.1875 -13.1875 
Q 15.875 -1.703125 12.234375 9.375 
Q 8.59375 20.453125 8.59375 31.390625 
Q 8.59375 42.28125 12.203125 53.3125 
Q 15.828125 64.359375 23.1875 75.875 
z
" id="DejaVuSans-40"/>
       <path d="M 26.859375 -1.421875 
Q 6.59375 -1.421875 6.59375 27.59375 
Q 6.59375 39.0625 14.15625 54.6875 
L 23.828125 54.6875 
Q 16.84375 39.0625 16.84375 27.34375 
Q 16.84375 6.203125 27.6875 6.203125 
Q 37.59375 6.203125 37.59375 32.46875 
L 45.90625 32.46875 
Q 45.90625 6.203125 55.8125 6.203125 
Q 66.65625 6.203125 66.65625 27.34375 
Q 66.65625 39.0625 59.671875 54.6875 
L 69.34375 54.6875 
Q 76.90625 39.0625 76.90625 27.59375 
Q 76.90625 -1.421875 56.640625 -1.421875 
Q 43.359375 -1.421875 41.75 13.1875 
Q 39.75 -1.421875 26.859375 -1.421875 
z
" id="DejaVuSans-969"/>
       <path d="M 48.78125 52.59375 
L 48.78125 44.1875 
Q 44.96875 46.296875 41.140625 47.34375 
Q 37.3125 48.390625 33.40625 48.390625 
Q 24.65625 48.390625 19.8125 42.84375 
Q 14.984375 37.3125 14.984375 27.296875 
Q 14.984375 17.28125 19.8125 11.734375 
Q 24.65625 6.203125 33.40625 6.203125 
Q 37.3125 6.203125 41.140625 7.25 
Q 44.96875 8.296875 48.78125 10.40625 
L 48.78125 2.09375 
Q 45.015625 0.34375 40.984375 -0.53125 
Q 36.96875 -1.421875 32.421875 -1.421875 
Q 20.0625 -1.421875 12.78125 6.34375 
Q 5.515625 14.109375 5.515625 27.296875 
Q 5.515625 40.671875 12.859375 48.328125 
Q 20.21875 56 33.015625 56 
Q 37.15625 56 41.109375 55.140625 
Q 45.0625 54.296875 48.78125 52.59375 
z
" id="DejaVuSans-99"/>
       <path d="M 8.015625 75.875 
L 15.828125 75.875 
Q 23.140625 64.359375 26.78125 53.3125 
Q 30.421875 42.28125 30.421875 31.390625 
Q 30.421875 20.453125 26.78125 9.375 
Q 23.140625 -1.703125 15.828125 -13.1875 
L 8.015625 -13.1875 
Q 14.5 -2 17.703125 9.0625 
Q 20.90625 20.125 20.90625 31.390625 
Q 20.90625 42.671875 17.703125 53.65625 
Q 14.5 64.65625 8.015625 75.875 
z
" id="DejaVuSans-41"/>
       <path id="DejaVuSans-32"/>
       <path d="M 9.8125 72.90625 
L 19.671875 72.90625 
L 19.671875 43.015625 
L 55.515625 43.015625 
L 55.515625 72.90625 
L 65.375 72.90625 
L 65.375 0 
L 55.515625 0 
L 55.515625 34.71875 
L 19.671875 34.71875 
L 19.671875 0 
L 9.8125 0 
z
" id="DejaVuSans-72"/>
       <path d="M 5.515625 54.6875 
L 48.1875 54.6875 
L 48.1875 46.484375 
L 14.40625 7.171875 
L 48.1875 7.171875 
L 48.1875 0 
L 4.296875 0 
L 4.296875 8.203125 
L 38.09375 47.515625 
L 5.515625 47.515625 
z
" id="DejaVuSans-122"/>
      </defs>
      <use transform="translate(0 0.125)" xlink:href="#DejaVuSans-40"/>
      <use transform="translate(39.013672 0.125)" xlink:href="#DejaVuSans-969"/>
      <use transform="translate(142.236328 0.125)" xlink:href="#DejaVuSans-8722"/>
      <use transform="translate(245.507812 0.125)" xlink:href="#DejaVuSans-969"/>
      <use transform="translate(330.205078 -16.28125)scale(0.7)" xlink:href="#DejaVuSans-99"/>
      <use transform="translate(371.425781 0.125)" xlink:href="#DejaVuSans-41"/>
      <use transform="translate(410.439453 0.125)" xlink:href="#DejaVuSans-32"/>
      <use transform="translate(442.226562 0.125)" xlink:href="#DejaVuSans-40"/>
      <use transform="translate(481.240234 0.125)" xlink:href="#DejaVuSans-72"/>
      <use transform="translate(556.435547 0.125)" xlink:href="#DejaVuSans-122"/>
      <use transform="translate(608.925781 0.125)" xlink:href="#DejaVuSans-41"/>
     </g>
    </g>
   </g>
   <g id="matplotlib.axis_8">
    <g id="ytick_10">
     <g id="text_20">
      <!-- 0.0 -->
      <g style="opacity:0;" transform="translate(27.339063 958.297266)scale(0.35 -0.35)">
       <use xlink:href="#DejaVuSans-48"/>
       <use x="63.623047" xlink:href="#DejaVuSans-46"/>
       <use x="95.410156" xlink:href="#DejaVuSans-48"/>
      </g>
     </g>
    </g>
    <g id="ytick_11">
     <g id="text_21">
      <!-- 0.2 -->
      <g style="opacity:0;" transform="translate(27.339063 795.217266)scale(0.35 -0.35)">
       <use xlink:href="#DejaVuSans-48"/>
       <use x="63.623047" xlink:href="#DejaVuSans-46"/>
       <use x="95.410156" xlink:href="#DejaVuSans-50"/>
      </g>
     </g>
    </g>
    <g id="ytick_12">
     <g id="text_22">
      <!-- 0.4 -->
      <g style="opacity:0;" transform="translate(27.339063 632.137266)scale(0.35 -0.35)">
       <use xlink:href="#DejaVuSans-48"/>
       <use x="63.623047" xlink:href="#DejaVuSans-46"/>
       <use x="95.410156" xlink:href="#DejaVuSans-52"/>
      </g>
     </g>
    </g>
    <g id="ytick_13">
     <g id="text_23">
      <!-- 0.6 -->
      <g style="opacity:0;" transform="translate(27.339063 469.057266)scale(0.35 -0.35)">
       <use xlink:href="#DejaVuSans-48"/>
       <use x="63.623047" xlink:href="#DejaVuSans-46"/>
       <use x="95.410156" xlink:href="#DejaVuSans-54"/>
      </g>
     </g>
    </g>
    <g id="ytick_14">
     <g id="text_24">
      <!-- 0.8 -->
      <g style="opacity:0;" transform="translate(27.339063 305.977266)scale(0.35 -0.35)">
       <use xlink:href="#DejaVuSans-48"/>
       <use x="63.623047" xlink:href="#DejaVuSans-46"/>
       <use x="95.410156" xlink:href="#DejaVuSans-56"/>
      </g>
     </g>
    </g>
    <g id="ytick_15">
     <g id="text_25">
      <!-- 1.0 -->
      <g style="opacity:0;" transform="translate(27.339063 142.897266)scale(0.35 -0.35)">
       <use xlink:href="#DejaVuSans-49"/>
       <use x="63.623047" xlink:href="#DejaVuSans-46"/>
       <use x="95.410156" xlink:href="#DejaVuSans-48"/>
      </g>
     </g>
    </g>
    <g id="text_26">
     <!-- Transmission -->
     <g transform="translate(16.060156 650.333594)rotate(-90)scale(0.35 -0.35)">
      <defs>
       <path d="M -0.296875 72.90625 
L 61.375 72.90625 
L 61.375 64.59375 
L 35.5 64.59375 
L 35.5 0 
L 25.59375 0 
L 25.59375 64.59375 
L -0.296875 64.59375 
z
" id="DejaVuSans-84"/>
       <path d="M 41.109375 46.296875 
Q 39.59375 47.171875 37.8125 47.578125 
Q 36.03125 48 33.890625 48 
Q 26.265625 48 22.1875 43.046875 
Q 18.109375 38.09375 18.109375 28.8125 
L 18.109375 0 
L 9.078125 0 
L 9.078125 54.6875 
L 18.109375 54.6875 
L 18.109375 46.1875 
Q 20.953125 51.171875 25.484375 53.578125 
Q 30.03125 56 36.53125 56 
Q 37.453125 56 38.578125 55.875 
Q 39.703125 55.765625 41.0625 55.515625 
z
" id="DejaVuSans-114"/>
       <path d="M 34.28125 27.484375 
Q 23.390625 27.484375 19.1875 25 
Q 14.984375 22.515625 14.984375 16.5 
Q 14.984375 11.71875 18.140625 8.90625 
Q 21.296875 6.109375 26.703125 6.109375 
Q 34.1875 6.109375 38.703125 11.40625 
Q 43.21875 16.703125 43.21875 25.484375 
L 43.21875 27.484375 
z
M 52.203125 31.203125 
L 52.203125 0 
L 43.21875 0 
L 43.21875 8.296875 
Q 40.140625 3.328125 35.546875 0.953125 
Q 30.953125 -1.421875 24.3125 -1.421875 
Q 15.921875 -1.421875 10.953125 3.296875 
Q 6 8.015625 6 15.921875 
Q 6 25.140625 12.171875 29.828125 
Q 18.359375 34.515625 30.609375 34.515625 
L 43.21875 34.515625 
L 43.21875 35.40625 
Q 43.21875 41.609375 39.140625 45 
Q 35.0625 48.390625 27.6875 48.390625 
Q 23 48.390625 18.546875 47.265625 
Q 14.109375 46.140625 10.015625 43.890625 
L 10.015625 52.203125 
Q 14.9375 54.109375 19.578125 55.046875 
Q 24.21875 56 28.609375 56 
Q 40.484375 56 46.34375 49.84375 
Q 52.203125 43.703125 52.203125 31.203125 
z
" id="DejaVuSans-97"/>
       <path d="M 54.890625 33.015625 
L 54.890625 0 
L 45.90625 0 
L 45.90625 32.71875 
Q 45.90625 40.484375 42.875 44.328125 
Q 39.84375 48.1875 33.796875 48.1875 
Q 26.515625 48.1875 22.3125 43.546875 
Q 18.109375 38.921875 18.109375 30.90625 
L 18.109375 0 
L 9.078125 0 
L 9.078125 54.6875 
L 18.109375 54.6875 
L 18.109375 46.1875 
Q 21.34375 51.125 25.703125 53.5625 
Q 30.078125 56 35.796875 56 
Q 45.21875 56 50.046875 50.171875 
Q 54.890625 44.34375 54.890625 33.015625 
z
" id="DejaVuSans-110"/>
       <path d="M 44.28125 53.078125 
L 44.28125 44.578125 
Q 40.484375 46.53125 36.375 47.5 
Q 32.28125 48.484375 27.875 48.484375 
Q 21.1875 48.484375 17.84375 46.4375 
Q 14.5 44.390625 14.5 40.28125 
Q 14.5 37.15625 16.890625 35.375 
Q 19.28125 33.59375 26.515625 31.984375 
L 29.59375 31.296875 
Q 39.15625 29.25 43.1875 25.515625 
Q 47.21875 21.78125 47.21875 15.09375 
Q 47.21875 7.46875 41.1875 3.015625 
Q 35.15625 -1.421875 24.609375 -1.421875 
Q 20.21875 -1.421875 15.453125 -0.5625 
Q 10.6875 0.296875 5.421875 2 
L 5.421875 11.28125 
Q 10.40625 8.6875 15.234375 7.390625 
Q 20.0625 6.109375 24.8125 6.109375 
Q 31.15625 6.109375 34.5625 8.28125 
Q 37.984375 10.453125 37.984375 14.40625 
Q 37.984375 18.0625 35.515625 20.015625 
Q 33.0625 21.96875 24.703125 23.78125 
L 21.578125 24.515625 
Q 13.234375 26.265625 9.515625 29.90625 
Q 5.8125 33.546875 5.8125 39.890625 
Q 5.8125 47.609375 11.28125 51.796875 
Q 16.75 56 26.8125 56 
Q 31.78125 56 36.171875 55.265625 
Q 40.578125 54.546875 44.28125 53.078125 
z
" id="DejaVuSans-115"/>
       <path d="M 52 44.1875 
Q 55.375 50.25 60.0625 53.125 
Q 64.75 56 71.09375 56 
Q 79.640625 56 84.28125 50.015625 
Q 88.921875 44.046875 88.921875 33.015625 
L 88.921875 0 
L 79.890625 0 
L 79.890625 32.71875 
Q 79.890625 40.578125 77.09375 44.375 
Q 74.3125 48.1875 68.609375 48.1875 
Q 61.625 48.1875 57.5625 43.546875 
Q 53.515625 38.921875 53.515625 30.90625 
L 53.515625 0 
L 44.484375 0 
L 44.484375 32.71875 
Q 44.484375 40.625 41.703125 44.40625 
Q 38.921875 48.1875 33.109375 48.1875 
Q 26.21875 48.1875 22.15625 43.53125 
Q 18.109375 38.875 18.109375 30.90625 
L 18.109375 0 
L 9.078125 0 
L 9.078125 54.6875 
L 18.109375 54.6875 
L 18.109375 46.1875 
Q 21.1875 51.21875 25.484375 53.609375 
Q 29.78125 56 35.6875 56 
Q 41.65625 56 45.828125 52.96875 
Q 50 49.953125 52 44.1875 
z
" id="DejaVuSans-109"/>
       <path d="M 9.421875 54.6875 
L 18.40625 54.6875 
L 18.40625 0 
L 9.421875 0 
z
M 9.421875 75.984375 
L 18.40625 75.984375 
L 18.40625 64.59375 
L 9.421875 64.59375 
z
" id="DejaVuSans-105"/>
       <path d="M 30.609375 48.390625 
Q 23.390625 48.390625 19.1875 42.75 
Q 14.984375 37.109375 14.984375 27.296875 
Q 14.984375 17.484375 19.15625 11.84375 
Q 23.34375 6.203125 30.609375 6.203125 
Q 37.796875 6.203125 41.984375 11.859375 
Q 46.1875 17.53125 46.1875 27.296875 
Q 46.1875 37.015625 41.984375 42.703125 
Q 37.796875 48.390625 30.609375 48.390625 
z
M 30.609375 56 
Q 42.328125 56 49.015625 48.375 
Q 55.71875 40.765625 55.71875 27.296875 
Q 55.71875 13.875 49.015625 6.21875 
Q 42.328125 -1.421875 30.609375 -1.421875 
Q 18.84375 -1.421875 12.171875 6.21875 
Q 5.515625 13.875 5.515625 27.296875 
Q 5.515625 40.765625 12.171875 48.375 
Q 18.84375 56 30.609375 56 
z
" id="DejaVuSans-111"/>
      </defs>
      <use xlink:href="#DejaVuSans-84"/>
      <use x="46.333984" xlink:href="#DejaVuSans-114"/>
      <use x="87.447266" xlink:href="#DejaVuSans-97"/>
      <use x="148.726562" xlink:href="#DejaVuSans-110"/>
      <use x="212.105469" xlink:href="#DejaVuSans-115"/>
      <use x="264.205078" xlink:href="#DejaVuSans-109"/>
      <use x="361.617188" xlink:href="#DejaVuSans-105"/>
      <use x="389.400391" xlink:href="#DejaVuSans-115"/>
      <use x="441.5" xlink:href="#DejaVuSans-115"/>
      <use x="493.599609" xlink:href="#DejaVuSans-105"/>
      <use x="521.382812" xlink:href="#DejaVuSans-111"/>
      <use x="582.564453" xlink:href="#DejaVuSans-110"/>
     </g>
    </g>
   </g>
  </g>
 </g>
 <defs>
  <clipPath id="pde25a21b3a">
   <rect height="239.823529" width="558" x="90" y="129.6"/>
  </clipPath>
  <clipPath id="p1781e8c596">
   <rect height="239.823529" width="558" x="90" y="417.388235"/>
  </clipPath>
  <clipPath id="p1242870470">
   <rect height="239.823529" width="558" x="90" y="705.176471"/>
  </clipPath>
 </defs>
</svg>
