<?xml version="1.0" encoding="utf-8" standalone="no"?>
<!DOCTYPE svg PUBLIC "-//W3C//DTD SVG 1.1//EN"
  "http://www.w3.org/Graphics/SVG/1.1/DTD/svg11.dtd">
<!-- Created with matplotlib (https://matplotlib.org/) -->
<svg height="1080pt" version="1.1" viewBox="0 0 720 1080" width="720pt" xmlns="http://www.w3.org/2000/svg" xmlns:xlink="http://www.w3.org/1999/xlink">
 <metadata>
  <rdf:RDF xmlns:cc="http://creativecommons.org/ns#" xmlns:dc="http://purl.org/dc/elements/1.1/" xmlns:rdf="http://www.w3.org/1999/02/22-rdf-syntax-ns#">
   <cc:Work>
    <dc:type rdf:resource="http://purl.org/dc/dcmitype/StillImage"/>
    <dc:date>2021-04-27T22:04:20.691175</dc:date>
    <dc:format>image/svg+xml</dc:format>
    <dc:creator>
     <cc:Agent>
      <dc:title>Matplotlib v3.3.2, https://matplotlib.org/</dc:title>
     </cc:Agent>
    </dc:creator>
   </cc:Work>
  </rdf:RDF>
 </metadata>
 <defs>
  <style type="text/css">*{stroke-linecap:butt;stroke-linejoin:round;}</style>
 </defs>
 <g id="figure_1">
  <g id="patch_1">
   <path d="M 0 1080 
L 720 1080 
L 720 0 
L 0 0 
z
" style="fill:none;"/>
  </g>
  <g id="axes_1">
   <g id="patch_2">
    <path d="M 90 369.423529 
L 648 369.423529 
L 648 129.6 
L 90 129.6 
z
" style="fill:#ffffff;"/>
   </g>
   <g id="matplotlib.axis_1">
    <g id="xtick_1">
     <g id="line2d_1">
      <defs>
       <path d="M 0 0 
L 0 3.5 
" id="m0538d38773" style="stroke:#000000;stroke-width:0.8;"/>
      </defs>
      <g>
       <use style="stroke:#000000;stroke-width:0.8;" x="96.340909" xlink:href="#m0538d38773" y="369.423529"/>
      </g>
     </g>
    </g>
    <g id="xtick_2">
     <g id="line2d_2">
      <g>
       <use style="stroke:#000000;stroke-width:0.8;" x="232.670455" xlink:href="#m0538d38773" y="369.423529"/>
      </g>
     </g>
    </g>
    <g id="xtick_3">
     <g id="line2d_3">
      <g>
       <use style="stroke:#000000;stroke-width:0.8;" x="369" xlink:href="#m0538d38773" y="369.423529"/>
      </g>
     </g>
    </g>
    <g id="xtick_4">
     <g id="line2d_4">
      <g>
       <use style="stroke:#000000;stroke-width:0.8;" x="505.329545" xlink:href="#m0538d38773" y="369.423529"/>
      </g>
     </g>
    </g>
    <g id="xtick_5">
     <g id="line2d_5">
      <g>
       <use style="stroke:#000000;stroke-width:0.8;" x="641.659091" xlink:href="#m0538d38773" y="369.423529"/>
      </g>
     </g>
    </g>
   </g>
   <g id="matplotlib.axis_2">
    <g id="ytick_1">
     <g id="line2d_6">
      <defs>
       <path d="M 0 0 
L -3.5 0 
" id="m1c5abab30e" style="stroke:#000000;stroke-width:0.8;"/>
      </defs>
      <g>
       <use style="stroke:#000000;stroke-width:0.8;" x="90" xlink:href="#m1c5abab30e" y="369.423529"/>
      </g>
     </g>
     <g id="text_1">
      <!-- 0.0 -->
      <g transform="translate(27.339063 382.720795)scale(0.35 -0.35)">
       <defs>
        <path d="M 31.78125 66.40625 
Q 24.171875 66.40625 20.328125 58.90625 
Q 16.5 51.421875 16.5 36.375 
Q 16.5 21.390625 20.328125 13.890625 
Q 24.171875 6.390625 31.78125 6.390625 
Q 39.453125 6.390625 43.28125 13.890625 
Q 47.125 21.390625 47.125 36.375 
Q 47.125 51.421875 43.28125 58.90625 
Q 39.453125 66.40625 31.78125 66.40625 
z
M 31.78125 74.21875 
Q 44.046875 74.21875 50.515625 64.515625 
Q 56.984375 54.828125 56.984375 36.375 
Q 56.984375 17.96875 50.515625 8.265625 
Q 44.046875 -1.421875 31.78125 -1.421875 
Q 19.53125 -1.421875 13.0625 8.265625 
Q 6.59375 17.96875 6.59375 36.375 
Q 6.59375 54.828125 13.0625 64.515625 
Q 19.53125 74.21875 31.78125 74.21875 
z
" id="DejaVuSans-48"/>
        <path d="M 10.6875 12.40625 
L 21 12.40625 
L 21 0 
L 10.6875 0 
z
" id="DejaVuSans-46"/>
       </defs>
       <use xlink:href="#DejaVuSans-48"/>
       <use x="63.623047" xlink:href="#DejaVuSans-46"/>
       <use x="95.410156" xlink:href="#DejaVuSans-48"/>
      </g>
     </g>
    </g>
    <g id="ytick_2">
     <g id="line2d_7">
      <g>
       <use style="stroke:#000000;stroke-width:0.8;" x="90" xlink:href="#m1c5abab30e" y="249.511765"/>
      </g>
     </g>
     <g id="text_2">
      <!-- 0.5 -->
      <g transform="translate(27.339063 262.80903)scale(0.35 -0.35)">
       <defs>
        <path d="M 10.796875 72.90625 
L 49.515625 72.90625 
L 49.515625 64.59375 
L 19.828125 64.59375 
L 19.828125 46.734375 
Q 21.96875 47.46875 24.109375 47.828125 
Q 26.265625 48.1875 28.421875 48.1875 
Q 40.625 48.1875 47.75 41.5 
Q 54.890625 34.8125 54.890625 23.390625 
Q 54.890625 11.625 47.5625 5.09375 
Q 40.234375 -1.421875 26.90625 -1.421875 
Q 22.3125 -1.421875 17.546875 -0.640625 
Q 12.796875 0.140625 7.71875 1.703125 
L 7.71875 11.625 
Q 12.109375 9.234375 16.796875 8.0625 
Q 21.484375 6.890625 26.703125 6.890625 
Q 35.15625 6.890625 40.078125 11.328125 
Q 45.015625 15.765625 45.015625 23.390625 
Q 45.015625 31 40.078125 35.4375 
Q 35.15625 39.890625 26.703125 39.890625 
Q 22.75 39.890625 18.8125 39.015625 
Q 14.890625 38.140625 10.796875 36.28125 
z
" id="DejaVuSans-53"/>
       </defs>
       <use xlink:href="#DejaVuSans-48"/>
       <use x="63.623047" xlink:href="#DejaVuSans-46"/>
       <use x="95.410156" xlink:href="#DejaVuSans-53"/>
      </g>
     </g>
    </g>
    <g id="ytick_3">
     <g id="line2d_8">
      <g>
       <use style="stroke:#000000;stroke-width:0.8;" x="90" xlink:href="#m1c5abab30e" y="129.6"/>
      </g>
     </g>
     <g id="text_3">
      <!-- 1.0 -->
      <g transform="translate(27.339063 142.897266)scale(0.35 -0.35)">
       <defs>
        <path d="M 12.40625 8.296875 
L 28.515625 8.296875 
L 28.515625 63.921875 
L 10.984375 60.40625 
L 10.984375 69.390625 
L 28.421875 72.90625 
L 38.28125 72.90625 
L 38.28125 8.296875 
L 54.390625 8.296875 
L 54.390625 0 
L 12.40625 0 
z
" id="DejaVuSans-49"/>
       </defs>
       <use xlink:href="#DejaVuSans-49"/>
       <use x="63.623047" xlink:href="#DejaVuSans-46"/>
       <use x="95.410156" xlink:href="#DejaVuSans-48"/>
      </g>
     </g>
    </g>
   </g>
   <g id="line2d_9">
    <path clip-path="url(#p909cb5cf81)" d="M 115.363636 160.150898 
L 125.529422 162.395833 
L 135.695209 164.879341 
L 144.844416 167.344119 
L 153.993624 170.053069 
L 162.126253 172.688945 
L 170.258881 175.562412 
L 177.374932 178.290136 
L 184.490982 181.234926 
L 191.607032 184.414281 
L 198.723083 187.845949 
L 205.839133 191.547222 
L 212.955183 195.533647 
L 219.054655 199.186961 
L 226.170705 203.731298 
L 233.286755 208.57772 
L 240.402806 213.711045 
L 248.535435 219.881224 
L 260.734378 229.495952 
L 269.883585 236.597528 
L 274.966478 240.286578 
L 279.032793 242.991971 
L 282.082529 244.820122 
L 285.132265 246.427198 
L 288.182 247.762427 
L 290.215158 248.473481 
L 292.248315 249.019499 
L 294.281472 249.380547 
L 296.314629 249.534959 
L 298.347786 249.459988 
L 300.380944 249.131572 
L 302.414101 248.524469 
L 304.447258 247.612616 
L 306.480415 246.369192 
L 308.513573 244.767233 
L 310.54673 242.779762 
L 312.579887 240.380664 
L 314.613044 237.545122 
L 316.646201 234.250767 
L 318.679359 230.478396 
L 320.712516 226.213361 
L 322.745673 221.447049 
L 324.77883 216.178159 
L 326.811988 210.415151 
L 329.861723 200.890915 
L 332.911459 190.431429 
L 336.977774 175.431143 
L 343.077245 152.658481 
L 345.110403 145.776199 
L 347.14356 139.747626 
L 348.160138 137.187714 
L 349.176717 135.019786 
L 350.193296 133.326375 
L 351.209874 132.205053 
L 352.226453 131.773432 
L 353.243032 132.17525 
L 354.25961 133.585325 
L 355.276189 136.220845 
L 356.292767 140.348865 
L 357.309346 146.29864 
L 358.325925 154.464955 
L 359.342503 165.298243 
L 360.359082 179.245659 
L 361.37566 196.579172 
L 364.425396 255.873385 
L 365.441975 258.874587 
L 366.458553 235.67063 
L 367.475132 191.620133 
L 368.491711 166.76891 
L 369.508289 191.620065 
L 370.524868 235.670571 
L 371.541447 258.874597 
L 372.558025 255.873414 
L 373.574604 238.471237 
L 375.607761 196.579147 
L 376.62434 179.245659 
L 377.640918 165.298295 
L 378.657497 154.464927 
L 379.674075 146.29864 
L 380.690654 140.348865 
L 381.707233 136.220845 
L 382.723811 133.585325 
L 383.74039 132.17525 
L 384.756968 131.773432 
L 385.773547 132.205053 
L 386.790126 133.326375 
L 387.806704 135.019786 
L 388.823283 137.187714 
L 389.839862 139.747626 
L 391.873019 145.776199 
L 393.906176 152.658481 
L 396.955912 163.868972 
L 404.071962 190.431429 
L 407.121698 200.890915 
L 410.171434 210.415151 
L 412.204591 216.178159 
L 414.237748 221.447049 
L 416.270905 226.213361 
L 418.304063 230.478396 
L 420.33722 234.250767 
L 422.370377 237.545122 
L 424.403534 240.380664 
L 426.436692 242.779762 
L 428.469849 244.767233 
L 430.503006 246.369192 
L 432.536163 247.612616 
L 434.56932 248.524469 
L 436.602478 249.131572 
L 438.635635 249.459988 
L 440.668792 249.534959 
L 442.701949 249.380547 
L 444.735107 249.019499 
L 446.768264 248.473481 
L 449.818 247.350939 
L 452.867735 245.919071 
L 455.917471 244.233009 
L 459.983786 241.672606 
L 464.0501 238.844609 
L 470.149572 234.274708 
L 480.315358 226.272112 
L 491.497723 217.534385 
L 499.630352 211.47766 
L 506.746402 206.464265 
L 513.862452 201.746378 
L 520.978502 197.332619 
L 528.094553 193.219914 
L 535.210603 189.398193 
L 542.326653 185.853077 
L 549.442704 182.567761 
L 556.558754 179.524588 
L 563.674804 176.705963 
L 571.807433 173.737412 
L 579.940062 171.015114 
L 588.072691 168.516297 
L 597.221898 165.946329 
L 606.371106 163.605942 
L 616.536892 161.245371 
L 622.636364 159.938397 
L 622.636364 159.938397 
" style="fill:none;stroke:#ff0000;stroke-linecap:square;stroke-width:5;"/>
   </g>
   <g id="patch_3">
    <path d="M 90 369.423529 
L 90 129.6 
" style="fill:none;stroke:#000000;stroke-linecap:square;stroke-linejoin:miter;stroke-width:0.8;"/>
   </g>
   <g id="patch_4">
    <path d="M 648 369.423529 
L 648 129.6 
" style="fill:none;stroke:#000000;stroke-linecap:square;stroke-linejoin:miter;stroke-width:0.8;"/>
   </g>
   <g id="patch_5">
    <path d="M 90 369.423529 
L 648 369.423529 
" style="fill:none;stroke:#000000;stroke-linecap:square;stroke-linejoin:miter;stroke-width:0.8;"/>
   </g>
   <g id="patch_6">
    <path d="M 90 129.6 
L 648 129.6 
" style="fill:none;stroke:#000000;stroke-linecap:square;stroke-linejoin:miter;stroke-width:0.8;"/>
   </g>
  </g>
  <g id="axes_2">
   <g id="patch_7">
    <path d="M 90 657.211765 
L 648 657.211765 
L 648 417.388235 
L 90 417.388235 
z
" style="fill:#ffffff;"/>
   </g>
   <g id="matplotlib.axis_3">
    <g id="xtick_6">
     <g id="line2d_10">
      <g>
       <use style="stroke:#000000;stroke-width:0.8;" x="96.340909" xlink:href="#m0538d38773" y="657.211765"/>
      </g>
     </g>
    </g>
    <g id="xtick_7">
     <g id="line2d_11">
      <g>
       <use style="stroke:#000000;stroke-width:0.8;" x="232.670455" xlink:href="#m0538d38773" y="657.211765"/>
      </g>
     </g>
    </g>
    <g id="xtick_8">
     <g id="line2d_12">
      <g>
       <use style="stroke:#000000;stroke-width:0.8;" x="369" xlink:href="#m0538d38773" y="657.211765"/>
      </g>
     </g>
    </g>
    <g id="xtick_9">
     <g id="line2d_13">
      <g>
       <use style="stroke:#000000;stroke-width:0.8;" x="505.329545" xlink:href="#m0538d38773" y="657.211765"/>
      </g>
     </g>
    </g>
    <g id="xtick_10">
     <g id="line2d_14">
      <g>
       <use style="stroke:#000000;stroke-width:0.8;" x="641.659091" xlink:href="#m0538d38773" y="657.211765"/>
      </g>
     </g>
    </g>
   </g>
   <g id="matplotlib.axis_4">
    <g id="ytick_4">
     <g id="line2d_15">
      <g>
       <use style="stroke:#000000;stroke-width:0.8;" x="90" xlink:href="#m1c5abab30e" y="657.211765"/>
      </g>
     </g>
     <g id="text_4">
      <!-- 0.0 -->
      <g transform="translate(27.339063 670.50903)scale(0.35 -0.35)">
       <use xlink:href="#DejaVuSans-48"/>
       <use x="63.623047" xlink:href="#DejaVuSans-46"/>
       <use x="95.410156" xlink:href="#DejaVuSans-48"/>
      </g>
     </g>
    </g>
    <g id="ytick_5">
     <g id="line2d_16">
      <g>
       <use style="stroke:#000000;stroke-width:0.8;" x="90" xlink:href="#m1c5abab30e" y="537.3"/>
      </g>
     </g>
     <g id="text_5">
      <!-- 0.5 -->
      <g transform="translate(27.339063 550.597266)scale(0.35 -0.35)">
       <use xlink:href="#DejaVuSans-48"/>
       <use x="63.623047" xlink:href="#DejaVuSans-46"/>
       <use x="95.410156" xlink:href="#DejaVuSans-53"/>
      </g>
     </g>
    </g>
    <g id="ytick_6">
     <g id="line2d_17">
      <g>
       <use style="stroke:#000000;stroke-width:0.8;" x="90" xlink:href="#m1c5abab30e" y="417.388235"/>
      </g>
     </g>
     <g id="text_6">
      <!-- 1.0 -->
      <g transform="translate(27.339063 430.685501)scale(0.35 -0.35)">
       <use xlink:href="#DejaVuSans-49"/>
       <use x="63.623047" xlink:href="#DejaVuSans-46"/>
       <use x="95.410156" xlink:href="#DejaVuSans-48"/>
      </g>
     </g>
    </g>
   </g>
   <g id="line2d_18">
    <path clip-path="url(#p832375390c)" d="M 115.363636 447.938785 
L 125.529422 450.183748 
L 135.695209 452.667152 
L 144.844416 455.131905 
L 153.993624 457.840727 
L 162.126253 460.47653 
L 170.258881 463.349898 
L 178.39151 466.484515 
L 185.507561 469.461599 
L 192.623611 472.675832 
L 199.739661 476.144816 
L 206.855711 479.885683 
L 213.971762 483.913746 
L 220.071233 487.60389 
L 227.187284 492.191385 
L 234.303334 497.079767 
L 241.419384 502.251311 
L 249.552013 508.455526 
L 273.9499 527.353261 
L 278.016214 530.121685 
L 282.082529 532.599418 
L 285.132265 534.20551 
L 288.182 535.539557 
L 290.215158 536.249693 
L 292.248315 536.794774 
L 294.281472 537.154678 
L 296.314629 537.30785 
L 298.347786 537.231459 
L 300.380944 536.901418 
L 302.414101 536.292432 
L 304.447258 535.378412 
L 306.480415 534.132496 
L 308.513573 532.527569 
L 310.54673 530.53673 
L 312.579887 528.133578 
L 314.613044 525.293261 
L 316.646201 521.993237 
L 318.679359 518.214132 
L 320.712516 513.940974 
L 322.745673 509.164837 
L 324.77883 503.884242 
L 326.811988 498.106906 
L 329.861723 488.555148 
L 332.911459 478.058123 
L 336.977774 462.985144 
L 343.077245 440.018731 
L 345.110403 433.033922 
L 347.14356 426.873223 
L 348.160138 424.232874 
L 349.176717 421.973044 
L 350.193296 420.174016 
L 351.209874 418.930966 
L 352.226453 418.359023 
L 353.243032 418.597999 
L 354.25961 419.819605 
L 355.276189 422.236229 
L 356.292767 426.110872 
L 357.309346 431.768052 
L 358.325925 439.600006 
L 359.342503 450.057498 
L 360.359082 463.594975 
L 361.37566 480.501534 
L 364.425396 538.385149 
L 365.441975 539.956288 
L 366.458553 513.05239 
L 367.475132 462.820119 
L 368.491711 434.33508 
L 369.508289 462.820115 
L 370.524868 513.05241 
L 371.541447 539.956256 
L 372.558025 538.385107 
L 373.574604 521.561271 
L 375.607761 480.501534 
L 376.62434 463.59495 
L 377.640918 450.057498 
L 378.657497 439.599924 
L 379.674075 431.767997 
L 380.690654 426.110872 
L 381.707233 422.236229 
L 382.723811 419.819548 
L 383.74039 418.597999 
L 384.756968 418.359023 
L 385.773547 418.930966 
L 386.790126 420.174016 
L 387.806704 421.972959 
L 388.823283 424.23279 
L 389.839862 426.873223 
L 391.873019 433.033922 
L 393.906176 440.018731 
L 396.955912 451.342749 
L 404.071962 478.058076 
L 407.121698 488.555148 
L 410.171434 498.106902 
L 412.204591 503.884242 
L 414.237748 509.164823 
L 416.270905 513.940974 
L 418.304063 518.214099 
L 420.33722 521.993237 
L 422.370377 525.293247 
L 424.403534 528.13357 
L 426.436692 530.536712 
L 428.469849 532.527569 
L 430.503006 534.132496 
L 432.536163 535.378412 
L 434.56932 536.292432 
L 436.602478 536.901418 
L 438.635635 537.231459 
L 440.668792 537.30785 
L 442.701949 537.154678 
L 444.735107 536.794774 
L 446.768264 536.249693 
L 449.818 535.128488 
L 452.867735 533.697714 
L 455.917471 532.012553 
L 459.983786 529.453221 
L 464.0501 526.626118 
L 470.149572 522.057284 
L 480.315358 514.056061 
L 491.497723 505.319375 
L 499.630352 499.263167 
L 506.746402 494.25021 
L 513.862452 489.532675 
L 520.978502 485.119128 
L 528.094553 481.006676 
L 535.210603 477.185145 
L 542.326653 473.640199 
L 549.442704 470.354979 
L 556.558754 467.31195 
L 563.674804 464.493451 
L 571.807433 461.524971 
L 579.940062 458.802773 
L 588.072691 456.304033 
L 597.221898 453.734141 
L 606.371106 451.393752 
L 616.536892 449.033259 
L 622.636364 447.726337 
L 622.636364 447.726337 
" style="fill:none;stroke:#ff7f0e;stroke-linecap:square;stroke-width:5;"/>
   </g>
   <g id="patch_8">
    <path d="M 90 657.211765 
L 90 417.388235 
" style="fill:none;stroke:#000000;stroke-linecap:square;stroke-linejoin:miter;stroke-width:0.8;"/>
   </g>
   <g id="patch_9">
    <path d="M 648 657.211765 
L 648 417.388235 
" style="fill:none;stroke:#000000;stroke-linecap:square;stroke-linejoin:miter;stroke-width:0.8;"/>
   </g>
   <g id="patch_10">
    <path d="M 90 657.211765 
L 648 657.211765 
" style="fill:none;stroke:#000000;stroke-linecap:square;stroke-linejoin:miter;stroke-width:0.8;"/>
   </g>
   <g id="patch_11">
    <path d="M 90 417.388235 
L 648 417.388235 
" style="fill:none;stroke:#000000;stroke-linecap:square;stroke-linejoin:miter;stroke-width:0.8;"/>
   </g>
  </g>
  <g id="axes_3">
   <g id="patch_12">
    <path d="M 90 945 
L 648 945 
L 648 705.176471 
L 90 705.176471 
z
" style="fill:#ffffff;"/>
   </g>
   <g id="matplotlib.axis_5">
    <g id="xtick_11">
     <g id="line2d_19">
      <g>
       <use style="stroke:#000000;stroke-width:0.8;" x="96.340909" xlink:href="#m0538d38773" y="945"/>
      </g>
     </g>
     <g id="text_7">
      <!-- −2 -->
      <g transform="translate(70.542081 978.594531)scale(0.35 -0.35)">
       <defs>
        <path d="M 10.59375 35.5 
L 73.1875 35.5 
L 73.1875 27.203125 
L 10.59375 27.203125 
z
" id="DejaVuSans-8722"/>
        <path d="M 19.1875 8.296875 
L 53.609375 8.296875 
L 53.609375 0 
L 7.328125 0 
L 7.328125 8.296875 
Q 12.9375 14.109375 22.625 23.890625 
Q 32.328125 33.6875 34.8125 36.53125 
Q 39.546875 41.84375 41.421875 45.53125 
Q 43.3125 49.21875 43.3125 52.78125 
Q 43.3125 58.59375 39.234375 62.25 
Q 35.15625 65.921875 28.609375 65.921875 
Q 23.96875 65.921875 18.8125 64.3125 
Q 13.671875 62.703125 7.8125 59.421875 
L 7.8125 69.390625 
Q 13.765625 71.78125 18.9375 73 
Q 24.125 74.21875 28.421875 74.21875 
Q 39.75 74.21875 46.484375 68.546875 
Q 53.21875 62.890625 53.21875 53.421875 
Q 53.21875 48.921875 51.53125 44.890625 
Q 49.859375 40.875 45.40625 35.40625 
Q 44.1875 33.984375 37.640625 27.21875 
Q 31.109375 20.453125 19.1875 8.296875 
z
" id="DejaVuSans-50"/>
       </defs>
       <use xlink:href="#DejaVuSans-8722"/>
       <use x="83.789062" xlink:href="#DejaVuSans-50"/>
      </g>
     </g>
    </g>
    <g id="xtick_12">
     <g id="line2d_20">
      <g>
       <use style="stroke:#000000;stroke-width:0.8;" x="232.670455" xlink:href="#m0538d38773" y="945"/>
      </g>
     </g>
     <g id="text_8">
      <!-- −1 -->
      <g transform="translate(206.871626 978.594531)scale(0.35 -0.35)">
       <use xlink:href="#DejaVuSans-8722"/>
       <use x="83.789062" xlink:href="#DejaVuSans-49"/>
      </g>
     </g>
    </g>
    <g id="xtick_13">
     <g id="line2d_21">
      <g>
       <use style="stroke:#000000;stroke-width:0.8;" x="369" xlink:href="#m0538d38773" y="945"/>
      </g>
     </g>
     <g id="text_9">
      <!-- 0 -->
      <g transform="translate(357.865625 978.594531)scale(0.35 -0.35)">
       <use xlink:href="#DejaVuSans-48"/>
      </g>
     </g>
    </g>
    <g id="xtick_14">
     <g id="line2d_22">
      <g>
       <use style="stroke:#000000;stroke-width:0.8;" x="505.329545" xlink:href="#m0538d38773" y="945"/>
      </g>
     </g>
     <g id="text_10">
      <!-- 1 -->
      <g transform="translate(494.19517 978.594531)scale(0.35 -0.35)">
       <use xlink:href="#DejaVuSans-49"/>
      </g>
     </g>
    </g>
    <g id="xtick_15">
     <g id="line2d_23">
      <g>
       <use style="stroke:#000000;stroke-width:0.8;" x="641.659091" xlink:href="#m0538d38773" y="945"/>
      </g>
     </g>
     <g id="text_11">
      <!-- 2 -->
      <g transform="translate(630.524716 978.594531)scale(0.35 -0.35)">
       <use xlink:href="#DejaVuSans-50"/>
      </g>
     </g>
    </g>
   </g>
   <g id="matplotlib.axis_6">
    <g id="ytick_7">
     <g id="line2d_24">
      <g>
       <use style="stroke:#000000;stroke-width:0.8;" x="90" xlink:href="#m1c5abab30e" y="945"/>
      </g>
     </g>
     <g id="text_12">
      <!-- 0.0 -->
      <g transform="translate(27.339063 958.297266)scale(0.35 -0.35)">
       <use xlink:href="#DejaVuSans-48"/>
       <use x="63.623047" xlink:href="#DejaVuSans-46"/>
       <use x="95.410156" xlink:href="#DejaVuSans-48"/>
      </g>
     </g>
    </g>
    <g id="ytick_8">
     <g id="line2d_25">
      <g>
       <use style="stroke:#000000;stroke-width:0.8;" x="90" xlink:href="#m1c5abab30e" y="825.088235"/>
      </g>
     </g>
     <g id="text_13">
      <!-- 0.5 -->
      <g transform="translate(27.339063 838.385501)scale(0.35 -0.35)">
       <use xlink:href="#DejaVuSans-48"/>
       <use x="63.623047" xlink:href="#DejaVuSans-46"/>
       <use x="95.410156" xlink:href="#DejaVuSans-53"/>
      </g>
     </g>
    </g>
    <g id="ytick_9">
     <g id="line2d_26">
      <g>
       <use style="stroke:#000000;stroke-width:0.8;" x="90" xlink:href="#m1c5abab30e" y="705.176471"/>
      </g>
     </g>
     <g id="text_14">
      <!-- 1.0 -->
      <g transform="translate(27.339063 718.473736)scale(0.35 -0.35)">
       <use xlink:href="#DejaVuSans-49"/>
       <use x="63.623047" xlink:href="#DejaVuSans-46"/>
       <use x="95.410156" xlink:href="#DejaVuSans-48"/>
      </g>
     </g>
    </g>
   </g>
   <g id="line2d_27">
    <path clip-path="url(#p37ec8305df)" d="M 115.363636 735.726886 
L 125.529422 737.971744 
L 135.695209 740.45515 
L 144.844416 742.919851 
L 153.993624 745.628649 
L 162.126253 748.264427 
L 170.258881 751.137693 
L 178.39151 754.272288 
L 185.507561 757.249299 
L 192.623611 760.46346 
L 199.739661 763.932345 
L 206.855711 767.673146 
L 213.971762 771.701062 
L 220.071233 775.391042 
L 227.187284 779.978381 
L 234.303334 784.866553 
L 241.419384 790.037846 
L 249.552013 796.241728 
L 273.9499 815.137485 
L 278.016214 817.905379 
L 282.082529 820.382458 
L 285.132265 821.987983 
L 288.182 823.321394 
L 290.215158 824.031024 
L 292.248315 824.575516 
L 294.281472 824.934791 
L 296.314629 825.087258 
L 298.347786 825.010053 
L 300.380944 824.679017 
L 302.414101 824.068975 
L 304.447258 823.153661 
L 306.480415 821.906328 
L 308.513573 820.299744 
L 310.54673 818.306873 
L 312.579887 815.901395 
L 314.613044 813.058323 
L 316.646201 809.755001 
L 318.679359 805.971956 
L 320.712516 801.69412 
L 322.745673 796.912493 
L 324.77883 791.625011 
L 326.811988 785.839271 
L 329.861723 776.271546 
L 332.911459 765.752891 
L 336.977774 750.637826 
L 343.077245 727.559 
L 345.110403 720.514712 
L 347.14356 714.277132 
L 348.160138 711.589918 
L 349.176717 709.276497 
L 350.193296 707.415707 
L 351.209874 706.101668 
L 352.226453 705.447387 
L 353.243032 705.591089 
L 354.25961 706.701862 
L 355.276189 708.989322 
L 356.292767 712.713863 
L 357.309346 718.196995 
L 358.325925 725.828478 
L 359.342503 736.0587 
L 360.359082 749.344928 
L 361.37566 765.984662 
L 364.425396 822.935651 
L 365.441975 823.587362 
L 366.458553 794.326601 
L 367.475132 740.11069 
L 368.491711 709.25745 
L 369.508289 740.110661 
L 370.524868 794.326538 
L 371.541447 823.58733 
L 372.558025 822.935585 
L 373.574604 806.498282 
L 375.607761 765.984584 
L 376.62434 749.344822 
L 377.640918 736.058593 
L 378.657497 725.828479 
L 379.674075 718.196884 
L 380.690654 712.713863 
L 381.707233 708.989236 
L 382.723811 706.701776 
L 383.74039 705.591004 
L 384.756968 705.447387 
L 385.773547 706.101583 
L 386.790126 707.415621 
L 387.806704 709.276497 
L 388.823283 711.589833 
L 390.85644 717.271106 
L 392.889597 723.958244 
L 395.939333 735.085559 
L 404.071962 765.752844 
L 407.121698 776.271515 
L 410.171434 785.83927 
L 412.204591 791.625011 
L 414.237748 796.912493 
L 416.270905 801.69412 
L 418.304063 805.97192 
L 420.33722 809.755001 
L 422.370377 813.058323 
L 424.403534 815.901395 
L 426.436692 818.306873 
L 428.469849 820.29971 
L 430.503006 821.906334 
L 432.536163 823.153661 
L 434.56932 824.068973 
L 436.602478 824.679002 
L 438.635635 825.010038 
L 440.668792 825.087237 
L 442.701949 824.934799 
L 444.735107 824.575516 
L 446.768264 824.031024 
L 449.818 822.910561 
L 452.867735 821.480394 
L 455.917471 819.795753 
L 459.983786 817.237027 
L 464.0501 814.410474 
L 470.149572 809.842289 
L 480.315358 801.841806 
L 491.497723 793.105742 
L 499.630352 787.049902 
L 506.746402 782.037087 
L 513.862452 777.319762 
L 520.978502 772.90637 
L 528.094553 768.794111 
L 535.210603 764.972704 
L 542.326653 761.427801 
L 549.442704 758.142677 
L 556.558754 755.099723 
L 563.674804 752.281246 
L 571.807433 749.312869 
L 579.940062 746.590642 
L 588.072691 744.092005 
L 597.221898 741.522165 
L 606.371106 739.181774 
L 616.536892 736.821307 
L 622.636364 735.514412 
L 622.636364 735.514412 
" style="fill:none;stroke:#0000ff;stroke-linecap:square;stroke-width:5;"/>
   </g>
   <g id="patch_13">
    <path d="M 90 945 
L 90 705.176471 
" style="fill:none;stroke:#000000;stroke-linecap:square;stroke-linejoin:miter;stroke-width:0.8;"/>
   </g>
   <g id="patch_14">
    <path d="M 648 945 
L 648 705.176471 
" style="fill:none;stroke:#000000;stroke-linecap:square;stroke-linejoin:miter;stroke-width:0.8;"/>
   </g>
   <g id="patch_15">
    <path d="M 90 945 
L 648 945 
" style="fill:none;stroke:#000000;stroke-linecap:square;stroke-linejoin:miter;stroke-width:0.8;"/>
   </g>
   <g id="patch_16">
    <path d="M 90 705.176471 
L 648 705.176471 
" style="fill:none;stroke:#000000;stroke-linecap:square;stroke-linejoin:miter;stroke-width:0.8;"/>
   </g>
  </g>
  <g id="axes_4">
   <g id="matplotlib.axis_7">
    <g id="xtick_16">
     <g id="text_15">
      <!-- 0.0 -->
      <g style="opacity:0;" transform="translate(62.169531 978.594531)scale(0.35 -0.35)">
       <use xlink:href="#DejaVuSans-48"/>
       <use x="63.623047" xlink:href="#DejaVuSans-46"/>
       <use x="95.410156" xlink:href="#DejaVuSans-48"/>
      </g>
     </g>
    </g>
    <g id="xtick_17">
     <g id="text_16">
      <!-- 0.2 -->
      <g style="opacity:0;" transform="translate(173.769531 978.594531)scale(0.35 -0.35)">
       <use xlink:href="#DejaVuSans-48"/>
       <use x="63.623047" xlink:href="#DejaVuSans-46"/>
       <use x="95.410156" xlink:href="#DejaVuSans-50"/>
      </g>
     </g>
    </g>
    <g id="xtick_18">
     <g id="text_17">
      <!-- 0.4 -->
      <g style="opacity:0;" transform="translate(285.369531 978.594531)scale(0.35 -0.35)">
       <defs>
        <path d="M 37.796875 64.3125 
L 12.890625 25.390625 
L 37.796875 25.390625 
z
M 35.203125 72.90625 
L 47.609375 72.90625 
L 47.609375 25.390625 
L 58.015625 25.390625 
L 58.015625 17.1875 
L 47.609375 17.1875 
L 47.609375 0 
L 37.796875 0 
L 37.796875 17.1875 
L 4.890625 17.1875 
L 4.890625 26.703125 
z
" id="DejaVuSans-52"/>
       </defs>
       <use xlink:href="#DejaVuSans-48"/>
       <use x="63.623047" xlink:href="#DejaVuSans-46"/>
       <use x="95.410156" xlink:href="#DejaVuSans-52"/>
      </g>
     </g>
    </g>
    <g id="xtick_19">
     <g id="text_18">
      <!-- 0.6 -->
      <g style="opacity:0;" transform="translate(396.969531 978.594531)scale(0.35 -0.35)">
       <defs>
        <path d="M 33.015625 40.375 
Q 26.375 40.375 22.484375 35.828125 
Q 18.609375 31.296875 18.609375 23.390625 
Q 18.609375 15.53125 22.484375 10.953125 
Q 26.375 6.390625 33.015625 6.390625 
Q 39.65625 6.390625 43.53125 10.953125 
Q 47.40625 15.53125 47.40625 23.390625 
Q 47.40625 31.296875 43.53125 35.828125 
Q 39.65625 40.375 33.015625 40.375 
z
M 52.59375 71.296875 
L 52.59375 62.3125 
Q 48.875 64.0625 45.09375 64.984375 
Q 41.3125 65.921875 37.59375 65.921875 
Q 27.828125 65.921875 22.671875 59.328125 
Q 17.53125 52.734375 16.796875 39.40625 
Q 19.671875 43.65625 24.015625 45.921875 
Q 28.375 48.1875 33.59375 48.1875 
Q 44.578125 48.1875 50.953125 41.515625 
Q 57.328125 34.859375 57.328125 23.390625 
Q 57.328125 12.15625 50.6875 5.359375 
Q 44.046875 -1.421875 33.015625 -1.421875 
Q 20.359375 -1.421875 13.671875 8.265625 
Q 6.984375 17.96875 6.984375 36.375 
Q 6.984375 53.65625 15.1875 63.9375 
Q 23.390625 74.21875 37.203125 74.21875 
Q 40.921875 74.21875 44.703125 73.484375 
Q 48.484375 72.75 52.59375 71.296875 
z
" id="DejaVuSans-54"/>
       </defs>
       <use xlink:href="#DejaVuSans-48"/>
       <use x="63.623047" xlink:href="#DejaVuSans-46"/>
       <use x="95.410156" xlink:href="#DejaVuSans-54"/>
      </g>
     </g>
    </g>
    <g id="xtick_20">
     <g id="text_19">
      <!-- 0.8 -->
      <g style="opacity:0;" transform="translate(508.569531 978.594531)scale(0.35 -0.35)">
       <defs>
        <path d="M 31.78125 34.625 
Q 24.75 34.625 20.71875 30.859375 
Q 16.703125 27.09375 16.703125 20.515625 
Q 16.703125 13.921875 20.71875 10.15625 
Q 24.75 6.390625 31.78125 6.390625 
Q 38.8125 6.390625 42.859375 10.171875 
Q 46.921875 13.96875 46.921875 20.515625 
Q 46.921875 27.09375 42.890625 30.859375 
Q 38.875 34.625 31.78125 34.625 
z
M 21.921875 38.8125 
Q 15.578125 40.375 12.03125 44.71875 
Q 8.5 49.078125 8.5 55.328125 
Q 8.5 64.0625 14.71875 69.140625 
Q 20.953125 74.21875 31.78125 74.21875 
Q 42.671875 74.21875 48.875 69.140625 
Q 55.078125 64.0625 55.078125 55.328125 
Q 55.078125 49.078125 51.53125 44.71875 
Q 48 40.375 41.703125 38.8125 
Q 48.828125 37.15625 52.796875 32.3125 
Q 56.78125 27.484375 56.78125 20.515625 
Q 56.78125 9.90625 50.3125 4.234375 
Q 43.84375 -1.421875 31.78125 -1.421875 
Q 19.734375 -1.421875 13.25 4.234375 
Q 6.78125 9.90625 6.78125 20.515625 
Q 6.78125 27.484375 10.78125 32.3125 
Q 14.796875 37.15625 21.921875 38.8125 
z
M 18.3125 54.390625 
Q 18.3125 48.734375 21.84375 45.5625 
Q 25.390625 42.390625 31.78125 42.390625 
Q 38.140625 42.390625 41.71875 45.5625 
Q 45.3125 48.734375 45.3125 54.390625 
Q 45.3125 60.0625 41.71875 63.234375 
Q 38.140625 66.40625 31.78125 66.40625 
Q 25.390625 66.40625 21.84375 63.234375 
Q 18.3125 60.0625 18.3125 54.390625 
z
" id="DejaVuSans-56"/>
       </defs>
       <use xlink:href="#DejaVuSans-48"/>
       <use x="63.623047" xlink:href="#DejaVuSans-46"/>
       <use x="95.410156" xlink:href="#DejaVuSans-56"/>
      </g>
     </g>
    </g>
    <g id="xtick_21">
     <g id="text_20">
      <!-- 1.0 -->
      <g style="opacity:0;" transform="translate(620.169531 978.594531)scale(0.35 -0.35)">
       <use xlink:href="#DejaVuSans-49"/>
       <use x="63.623047" xlink:href="#DejaVuSans-46"/>
       <use x="95.410156" xlink:href="#DejaVuSans-48"/>
      </g>
     </g>
    </g>
    <g id="text_21">
     <!-- $(\omega-\omega_{c})$ / $\kappa$ -->
     <g transform="translate(269.775 1016.467969)scale(0.35 -0.35)">
      <defs>
       <path d="M 31 75.875 
Q 24.46875 64.65625 21.28125 53.65625 
Q 18.109375 42.671875 18.109375 31.390625 
Q 18.109375 20.125 21.3125 9.0625 
Q 24.515625 -2 31 -13.1875 
L 23.1875 -13.1875 
Q 15.875 -1.703125 12.234375 9.375 
Q 8.59375 20.453125 8.59375 31.390625 
Q 8.59375 42.28125 12.203125 53.3125 
Q 15.828125 64.359375 23.1875 75.875 
z
" id="DejaVuSans-40"/>
       <path d="M 26.859375 -1.421875 
Q 6.59375 -1.421875 6.59375 27.59375 
Q 6.59375 39.0625 14.15625 54.6875 
L 23.828125 54.6875 
Q 16.84375 39.0625 16.84375 27.34375 
Q 16.84375 6.203125 27.6875 6.203125 
Q 37.59375 6.203125 37.59375 32.46875 
L 45.90625 32.46875 
Q 45.90625 6.203125 55.8125 6.203125 
Q 66.65625 6.203125 66.65625 27.34375 
Q 66.65625 39.0625 59.671875 54.6875 
L 69.34375 54.6875 
Q 76.90625 39.0625 76.90625 27.59375 
Q 76.90625 -1.421875 56.640625 -1.421875 
Q 43.359375 -1.421875 41.75 13.1875 
Q 39.75 -1.421875 26.859375 -1.421875 
z
" id="DejaVuSans-969"/>
       <path d="M 48.78125 52.59375 
L 48.78125 44.1875 
Q 44.96875 46.296875 41.140625 47.34375 
Q 37.3125 48.390625 33.40625 48.390625 
Q 24.65625 48.390625 19.8125 42.84375 
Q 14.984375 37.3125 14.984375 27.296875 
Q 14.984375 17.28125 19.8125 11.734375 
Q 24.65625 6.203125 33.40625 6.203125 
Q 37.3125 6.203125 41.140625 7.25 
Q 44.96875 8.296875 48.78125 10.40625 
L 48.78125 2.09375 
Q 45.015625 0.34375 40.984375 -0.53125 
Q 36.96875 -1.421875 32.421875 -1.421875 
Q 20.0625 -1.421875 12.78125 6.34375 
Q 5.515625 14.109375 5.515625 27.296875 
Q 5.515625 40.671875 12.859375 48.328125 
Q 20.21875 56 33.015625 56 
Q 37.15625 56 41.109375 55.140625 
Q 45.0625 54.296875 48.78125 52.59375 
z
" id="DejaVuSans-99"/>
       <path d="M 8.015625 75.875 
L 15.828125 75.875 
Q 23.140625 64.359375 26.78125 53.3125 
Q 30.421875 42.28125 30.421875 31.390625 
Q 30.421875 20.453125 26.78125 9.375 
Q 23.140625 -1.703125 15.828125 -13.1875 
L 8.015625 -13.1875 
Q 14.5 -2 17.703125 9.0625 
Q 20.90625 20.125 20.90625 31.390625 
Q 20.90625 42.671875 17.703125 53.65625 
Q 14.5 64.65625 8.015625 75.875 
z
" id="DejaVuSans-41"/>
       <path id="DejaVuSans-32"/>
       <path d="M 25.390625 72.90625 
L 33.6875 72.90625 
L 8.296875 -9.28125 
L 0 -9.28125 
z
" id="DejaVuSans-47"/>
       <path d="M 9.328125 54.6875 
L 18.609375 54.6875 
L 18.609375 31.984375 
L 42.1875 54.6875 
L 53.125 54.6875 
L 31.59375 34.078125 
L 56.5 0 
L 45.515625 0 
L 25.296875 28.21875 
L 18.609375 21.921875 
L 18.609375 0 
L 9.328125 0 
z
" id="DejaVuSans-954"/>
      </defs>
      <use transform="translate(0 0.125)" xlink:href="#DejaVuSans-40"/>
      <use transform="translate(39.013672 0.125)" xlink:href="#DejaVuSans-969"/>
      <use transform="translate(142.236328 0.125)" xlink:href="#DejaVuSans-8722"/>
      <use transform="translate(245.507812 0.125)" xlink:href="#DejaVuSans-969"/>
      <use transform="translate(330.205078 -16.28125)scale(0.7)" xlink:href="#DejaVuSans-99"/>
      <use transform="translate(371.425781 0.125)" xlink:href="#DejaVuSans-41"/>
      <use transform="translate(410.439453 0.125)" xlink:href="#DejaVuSans-32"/>
      <use transform="translate(442.226562 0.125)" xlink:href="#DejaVuSans-47"/>
      <use transform="translate(475.917969 0.125)" xlink:href="#DejaVuSans-32"/>
      <use transform="translate(507.705078 0.125)" xlink:href="#DejaVuSans-954"/>
     </g>
    </g>
   </g>
   <g id="matplotlib.axis_8">
    <g id="ytick_10">
     <g id="text_22">
      <!-- 0.0 -->
      <g style="opacity:0;" transform="translate(27.339063 958.297266)scale(0.35 -0.35)">
       <use xlink:href="#DejaVuSans-48"/>
       <use x="63.623047" xlink:href="#DejaVuSans-46"/>
       <use x="95.410156" xlink:href="#DejaVuSans-48"/>
      </g>
     </g>
    </g>
    <g id="ytick_11">
     <g id="text_23">
      <!-- 0.2 -->
      <g style="opacity:0;" transform="translate(27.339063 795.217266)scale(0.35 -0.35)">
       <use xlink:href="#DejaVuSans-48"/>
       <use x="63.623047" xlink:href="#DejaVuSans-46"/>
       <use x="95.410156" xlink:href="#DejaVuSans-50"/>
      </g>
     </g>
    </g>
    <g id="ytick_12">
     <g id="text_24">
      <!-- 0.4 -->
      <g style="opacity:0;" transform="translate(27.339063 632.137266)scale(0.35 -0.35)">
       <use xlink:href="#DejaVuSans-48"/>
       <use x="63.623047" xlink:href="#DejaVuSans-46"/>
       <use x="95.410156" xlink:href="#DejaVuSans-52"/>
      </g>
     </g>
    </g>
    <g id="ytick_13">
     <g id="text_25">
      <!-- 0.6 -->
      <g style="opacity:0;" transform="translate(27.339063 469.057266)scale(0.35 -0.35)">
       <use xlink:href="#DejaVuSans-48"/>
       <use x="63.623047" xlink:href="#DejaVuSans-46"/>
       <use x="95.410156" xlink:href="#DejaVuSans-54"/>
      </g>
     </g>
    </g>
    <g id="ytick_14">
     <g id="text_26">
      <!-- 0.8 -->
      <g style="opacity:0;" transform="translate(27.339063 305.977266)scale(0.35 -0.35)">
       <use xlink:href="#DejaVuSans-48"/>
       <use x="63.623047" xlink:href="#DejaVuSans-46"/>
       <use x="95.410156" xlink:href="#DejaVuSans-56"/>
      </g>
     </g>
    </g>
    <g id="ytick_15">
     <g id="text_27">
      <!-- 1.0 -->
      <g style="opacity:0;" transform="translate(27.339063 142.897266)scale(0.35 -0.35)">
       <use xlink:href="#DejaVuSans-49"/>
       <use x="63.623047" xlink:href="#DejaVuSans-46"/>
       <use x="95.410156" xlink:href="#DejaVuSans-48"/>
      </g>
     </g>
    </g>
    <g id="text_28">
     <!-- Transmission -->
     <g transform="translate(16.060156 650.333594)rotate(-90)scale(0.35 -0.35)">
      <defs>
       <path d="M -0.296875 72.90625 
L 61.375 72.90625 
L 61.375 64.59375 
L 35.5 64.59375 
L 35.5 0 
L 25.59375 0 
L 25.59375 64.59375 
L -0.296875 64.59375 
z
" id="DejaVuSans-84"/>
       <path d="M 41.109375 46.296875 
Q 39.59375 47.171875 37.8125 47.578125 
Q 36.03125 48 33.890625 48 
Q 26.265625 48 22.1875 43.046875 
Q 18.109375 38.09375 18.109375 28.8125 
L 18.109375 0 
L 9.078125 0 
L 9.078125 54.6875 
L 18.109375 54.6875 
L 18.109375 46.1875 
Q 20.953125 51.171875 25.484375 53.578125 
Q 30.03125 56 36.53125 56 
Q 37.453125 56 38.578125 55.875 
Q 39.703125 55.765625 41.0625 55.515625 
z
" id="DejaVuSans-114"/>
       <path d="M 34.28125 27.484375 
Q 23.390625 27.484375 19.1875 25 
Q 14.984375 22.515625 14.984375 16.5 
Q 14.984375 11.71875 18.140625 8.90625 
Q 21.296875 6.109375 26.703125 6.109375 
Q 34.1875 6.109375 38.703125 11.40625 
Q 43.21875 16.703125 43.21875 25.484375 
L 43.21875 27.484375 
z
M 52.203125 31.203125 
L 52.203125 0 
L 43.21875 0 
L 43.21875 8.296875 
Q 40.140625 3.328125 35.546875 0.953125 
Q 30.953125 -1.421875 24.3125 -1.421875 
Q 15.921875 -1.421875 10.953125 3.296875 
Q 6 8.015625 6 15.921875 
Q 6 25.140625 12.171875 29.828125 
Q 18.359375 34.515625 30.609375 34.515625 
L 43.21875 34.515625 
L 43.21875 35.40625 
Q 43.21875 41.609375 39.140625 45 
Q 35.0625 48.390625 27.6875 48.390625 
Q 23 48.390625 18.546875 47.265625 
Q 14.109375 46.140625 10.015625 43.890625 
L 10.015625 52.203125 
Q 14.9375 54.109375 19.578125 55.046875 
Q 24.21875 56 28.609375 56 
Q 40.484375 56 46.34375 49.84375 
Q 52.203125 43.703125 52.203125 31.203125 
z
" id="DejaVuSans-97"/>
       <path d="M 54.890625 33.015625 
L 54.890625 0 
L 45.90625 0 
L 45.90625 32.71875 
Q 45.90625 40.484375 42.875 44.328125 
Q 39.84375 48.1875 33.796875 48.1875 
Q 26.515625 48.1875 22.3125 43.546875 
Q 18.109375 38.921875 18.109375 30.90625 
L 18.109375 0 
L 9.078125 0 
L 9.078125 54.6875 
L 18.109375 54.6875 
L 18.109375 46.1875 
Q 21.34375 51.125 25.703125 53.5625 
Q 30.078125 56 35.796875 56 
Q 45.21875 56 50.046875 50.171875 
Q 54.890625 44.34375 54.890625 33.015625 
z
" id="DejaVuSans-110"/>
       <path d="M 44.28125 53.078125 
L 44.28125 44.578125 
Q 40.484375 46.53125 36.375 47.5 
Q 32.28125 48.484375 27.875 48.484375 
Q 21.1875 48.484375 17.84375 46.4375 
Q 14.5 44.390625 14.5 40.28125 
Q 14.5 37.15625 16.890625 35.375 
Q 19.28125 33.59375 26.515625 31.984375 
L 29.59375 31.296875 
Q 39.15625 29.25 43.1875 25.515625 
Q 47.21875 21.78125 47.21875 15.09375 
Q 47.21875 7.46875 41.1875 3.015625 
Q 35.15625 -1.421875 24.609375 -1.421875 
Q 20.21875 -1.421875 15.453125 -0.5625 
Q 10.6875 0.296875 5.421875 2 
L 5.421875 11.28125 
Q 10.40625 8.6875 15.234375 7.390625 
Q 20.0625 6.109375 24.8125 6.109375 
Q 31.15625 6.109375 34.5625 8.28125 
Q 37.984375 10.453125 37.984375 14.40625 
Q 37.984375 18.0625 35.515625 20.015625 
Q 33.0625 21.96875 24.703125 23.78125 
L 21.578125 24.515625 
Q 13.234375 26.265625 9.515625 29.90625 
Q 5.8125 33.546875 5.8125 39.890625 
Q 5.8125 47.609375 11.28125 51.796875 
Q 16.75 56 26.8125 56 
Q 31.78125 56 36.171875 55.265625 
Q 40.578125 54.546875 44.28125 53.078125 
z
" id="DejaVuSans-115"/>
       <path d="M 52 44.1875 
Q 55.375 50.25 60.0625 53.125 
Q 64.75 56 71.09375 56 
Q 79.640625 56 84.28125 50.015625 
Q 88.921875 44.046875 88.921875 33.015625 
L 88.921875 0 
L 79.890625 0 
L 79.890625 32.71875 
Q 79.890625 40.578125 77.09375 44.375 
Q 74.3125 48.1875 68.609375 48.1875 
Q 61.625 48.1875 57.5625 43.546875 
Q 53.515625 38.921875 53.515625 30.90625 
L 53.515625 0 
L 44.484375 0 
L 44.484375 32.71875 
Q 44.484375 40.625 41.703125 44.40625 
Q 38.921875 48.1875 33.109375 48.1875 
Q 26.21875 48.1875 22.15625 43.53125 
Q 18.109375 38.875 18.109375 30.90625 
L 18.109375 0 
L 9.078125 0 
L 9.078125 54.6875 
L 18.109375 54.6875 
L 18.109375 46.1875 
Q 21.1875 51.21875 25.484375 53.609375 
Q 29.78125 56 35.6875 56 
Q 41.65625 56 45.828125 52.96875 
Q 50 49.953125 52 44.1875 
z
" id="DejaVuSans-109"/>
       <path d="M 9.421875 54.6875 
L 18.40625 54.6875 
L 18.40625 0 
L 9.421875 0 
z
M 9.421875 75.984375 
L 18.40625 75.984375 
L 18.40625 64.59375 
L 9.421875 64.59375 
z
" id="DejaVuSans-105"/>
       <path d="M 30.609375 48.390625 
Q 23.390625 48.390625 19.1875 42.75 
Q 14.984375 37.109375 14.984375 27.296875 
Q 14.984375 17.484375 19.15625 11.84375 
Q 23.34375 6.203125 30.609375 6.203125 
Q 37.796875 6.203125 41.984375 11.859375 
Q 46.1875 17.53125 46.1875 27.296875 
Q 46.1875 37.015625 41.984375 42.703125 
Q 37.796875 48.390625 30.609375 48.390625 
z
M 30.609375 56 
Q 42.328125 56 49.015625 48.375 
Q 55.71875 40.765625 55.71875 27.296875 
Q 55.71875 13.875 49.015625 6.21875 
Q 42.328125 -1.421875 30.609375 -1.421875 
Q 18.84375 -1.421875 12.171875 6.21875 
Q 5.515625 13.875 5.515625 27.296875 
Q 5.515625 40.765625 12.171875 48.375 
Q 18.84375 56 30.609375 56 
z
" id="DejaVuSans-111"/>
      </defs>
      <use xlink:href="#DejaVuSans-84"/>
      <use x="46.333984" xlink:href="#DejaVuSans-114"/>
      <use x="87.447266" xlink:href="#DejaVuSans-97"/>
      <use x="148.726562" xlink:href="#DejaVuSans-110"/>
      <use x="212.105469" xlink:href="#DejaVuSans-115"/>
      <use x="264.205078" xlink:href="#DejaVuSans-109"/>
      <use x="361.617188" xlink:href="#DejaVuSans-105"/>
      <use x="389.400391" xlink:href="#DejaVuSans-115"/>
      <use x="441.5" xlink:href="#DejaVuSans-115"/>
      <use x="493.599609" xlink:href="#DejaVuSans-105"/>
      <use x="521.382812" xlink:href="#DejaVuSans-111"/>
      <use x="582.564453" xlink:href="#DejaVuSans-110"/>
     </g>
    </g>
   </g>
  </g>
 </g>
 <defs>
  <clipPath id="p909cb5cf81">
   <rect height="239.823529" width="558" x="90" y="129.6"/>
  </clipPath>
  <clipPath id="p832375390c">
   <rect height="239.823529" width="558" x="90" y="417.388235"/>
  </clipPath>
  <clipPath id="p37ec8305df">
   <rect height="239.823529" width="558" x="90" y="705.176471"/>
  </clipPath>
 </defs>
</svg>
