<?xml version="1.0" encoding="utf-8" standalone="no"?>
<!DOCTYPE svg PUBLIC "-//W3C//DTD SVG 1.1//EN"
  "http://www.w3.org/Graphics/SVG/1.1/DTD/svg11.dtd">
<!-- Created with matplotlib (https://matplotlib.org/) -->
<svg height="1080pt" version="1.1" viewBox="0 0 1080 1080" width="1080pt" xmlns="http://www.w3.org/2000/svg" xmlns:xlink="http://www.w3.org/1999/xlink">
 <metadata>
  <rdf:RDF xmlns:cc="http://creativecommons.org/ns#" xmlns:dc="http://purl.org/dc/elements/1.1/" xmlns:rdf="http://www.w3.org/1999/02/22-rdf-syntax-ns#">
   <cc:Work>
    <dc:type rdf:resource="http://purl.org/dc/dcmitype/StillImage"/>
    <dc:date>2021-04-21T17:15:31.785095</dc:date>
    <dc:format>image/svg+xml</dc:format>
    <dc:creator>
     <cc:Agent>
      <dc:title>Matplotlib v3.3.2, https://matplotlib.org/</dc:title>
     </cc:Agent>
    </dc:creator>
   </cc:Work>
  </rdf:RDF>
 </metadata>
 <defs>
  <style type="text/css">*{stroke-linecap:butt;stroke-linejoin:round;}</style>
 </defs>
 <g id="figure_1">
  <g id="patch_1">
   <path d="M 0 1080 
L 1080 1080 
L 1080 0 
L 0 0 
z
" style="fill:none;"/>
  </g>
  <g id="axes_1">
   <g id="patch_2">
    <path d="M 135 500.236364 
L 515.454545 500.236364 
L 515.454545 129.6 
L 135 129.6 
z
" style="fill:#ffffff;"/>
   </g>
   <g id="matplotlib.axis_1">
    <g id="xtick_1">
     <g id="line2d_1">
      <defs>
       <path d="M 0 0 
L 0 3.5 
" id="ma598647037" style="stroke:#000000;stroke-width:0.8;"/>
      </defs>
      <g>
       <use style="stroke:#000000;stroke-width:0.8;" x="139.323347" xlink:href="#ma598647037" y="500.236364"/>
      </g>
     </g>
    </g>
    <g id="xtick_2">
     <g id="line2d_2">
      <g>
       <use style="stroke:#000000;stroke-width:0.8;" x="325.227273" xlink:href="#ma598647037" y="500.236364"/>
      </g>
     </g>
    </g>
    <g id="xtick_3">
     <g id="line2d_3">
      <g>
       <use style="stroke:#000000;stroke-width:0.8;" x="511.131198" xlink:href="#ma598647037" y="500.236364"/>
      </g>
     </g>
    </g>
   </g>
   <g id="matplotlib.axis_2">
    <g id="ytick_1">
     <g id="line2d_4">
      <defs>
       <path d="M 0 0 
L -3.5 0 
" id="m36e99b4080" style="stroke:#000000;stroke-width:0.8;"/>
      </defs>
      <g>
       <use style="stroke:#000000;stroke-width:0.8;" x="135" xlink:href="#m36e99b4080" y="483.389529"/>
      </g>
     </g>
     <g id="text_1">
      <!-- 0.0 -->
      <g transform="translate(80.290625 494.787186)scale(0.3 -0.3)">
       <defs>
        <path d="M 31.78125 66.40625 
Q 24.171875 66.40625 20.328125 58.90625 
Q 16.5 51.421875 16.5 36.375 
Q 16.5 21.390625 20.328125 13.890625 
Q 24.171875 6.390625 31.78125 6.390625 
Q 39.453125 6.390625 43.28125 13.890625 
Q 47.125 21.390625 47.125 36.375 
Q 47.125 51.421875 43.28125 58.90625 
Q 39.453125 66.40625 31.78125 66.40625 
z
M 31.78125 74.21875 
Q 44.046875 74.21875 50.515625 64.515625 
Q 56.984375 54.828125 56.984375 36.375 
Q 56.984375 17.96875 50.515625 8.265625 
Q 44.046875 -1.421875 31.78125 -1.421875 
Q 19.53125 -1.421875 13.0625 8.265625 
Q 6.59375 17.96875 6.59375 36.375 
Q 6.59375 54.828125 13.0625 64.515625 
Q 19.53125 74.21875 31.78125 74.21875 
z
" id="DejaVuSans-48"/>
        <path d="M 10.6875 12.40625 
L 21 12.40625 
L 21 0 
L 10.6875 0 
z
" id="DejaVuSans-46"/>
       </defs>
       <use xlink:href="#DejaVuSans-48"/>
       <use x="63.623047" xlink:href="#DejaVuSans-46"/>
       <use x="95.410156" xlink:href="#DejaVuSans-48"/>
      </g>
     </g>
    </g>
    <g id="ytick_2">
     <g id="line2d_5">
      <g>
       <use style="stroke:#000000;stroke-width:0.8;" x="135" xlink:href="#m36e99b4080" y="416.001093"/>
      </g>
     </g>
     <g id="text_2">
      <!-- 0.2 -->
      <g transform="translate(80.290625 427.398749)scale(0.3 -0.3)">
       <defs>
        <path d="M 19.1875 8.296875 
L 53.609375 8.296875 
L 53.609375 0 
L 7.328125 0 
L 7.328125 8.296875 
Q 12.9375 14.109375 22.625 23.890625 
Q 32.328125 33.6875 34.8125 36.53125 
Q 39.546875 41.84375 41.421875 45.53125 
Q 43.3125 49.21875 43.3125 52.78125 
Q 43.3125 58.59375 39.234375 62.25 
Q 35.15625 65.921875 28.609375 65.921875 
Q 23.96875 65.921875 18.8125 64.3125 
Q 13.671875 62.703125 7.8125 59.421875 
L 7.8125 69.390625 
Q 13.765625 71.78125 18.9375 73 
Q 24.125 74.21875 28.421875 74.21875 
Q 39.75 74.21875 46.484375 68.546875 
Q 53.21875 62.890625 53.21875 53.421875 
Q 53.21875 48.921875 51.53125 44.890625 
Q 49.859375 40.875 45.40625 35.40625 
Q 44.1875 33.984375 37.640625 27.21875 
Q 31.109375 20.453125 19.1875 8.296875 
z
" id="DejaVuSans-50"/>
       </defs>
       <use xlink:href="#DejaVuSans-48"/>
       <use x="63.623047" xlink:href="#DejaVuSans-46"/>
       <use x="95.410156" xlink:href="#DejaVuSans-50"/>
      </g>
     </g>
    </g>
    <g id="ytick_3">
     <g id="line2d_6">
      <g>
       <use style="stroke:#000000;stroke-width:0.8;" x="135" xlink:href="#m36e99b4080" y="348.612657"/>
      </g>
     </g>
     <g id="text_3">
      <!-- 0.4 -->
      <g transform="translate(80.290625 360.010313)scale(0.3 -0.3)">
       <defs>
        <path d="M 37.796875 64.3125 
L 12.890625 25.390625 
L 37.796875 25.390625 
z
M 35.203125 72.90625 
L 47.609375 72.90625 
L 47.609375 25.390625 
L 58.015625 25.390625 
L 58.015625 17.1875 
L 47.609375 17.1875 
L 47.609375 0 
L 37.796875 0 
L 37.796875 17.1875 
L 4.890625 17.1875 
L 4.890625 26.703125 
z
" id="DejaVuSans-52"/>
       </defs>
       <use xlink:href="#DejaVuSans-48"/>
       <use x="63.623047" xlink:href="#DejaVuSans-46"/>
       <use x="95.410156" xlink:href="#DejaVuSans-52"/>
      </g>
     </g>
    </g>
    <g id="ytick_4">
     <g id="line2d_7">
      <g>
       <use style="stroke:#000000;stroke-width:0.8;" x="135" xlink:href="#m36e99b4080" y="281.224221"/>
      </g>
     </g>
     <g id="text_4">
      <!-- 0.6 -->
      <g transform="translate(80.290625 292.621877)scale(0.3 -0.3)">
       <defs>
        <path d="M 33.015625 40.375 
Q 26.375 40.375 22.484375 35.828125 
Q 18.609375 31.296875 18.609375 23.390625 
Q 18.609375 15.53125 22.484375 10.953125 
Q 26.375 6.390625 33.015625 6.390625 
Q 39.65625 6.390625 43.53125 10.953125 
Q 47.40625 15.53125 47.40625 23.390625 
Q 47.40625 31.296875 43.53125 35.828125 
Q 39.65625 40.375 33.015625 40.375 
z
M 52.59375 71.296875 
L 52.59375 62.3125 
Q 48.875 64.0625 45.09375 64.984375 
Q 41.3125 65.921875 37.59375 65.921875 
Q 27.828125 65.921875 22.671875 59.328125 
Q 17.53125 52.734375 16.796875 39.40625 
Q 19.671875 43.65625 24.015625 45.921875 
Q 28.375 48.1875 33.59375 48.1875 
Q 44.578125 48.1875 50.953125 41.515625 
Q 57.328125 34.859375 57.328125 23.390625 
Q 57.328125 12.15625 50.6875 5.359375 
Q 44.046875 -1.421875 33.015625 -1.421875 
Q 20.359375 -1.421875 13.671875 8.265625 
Q 6.984375 17.96875 6.984375 36.375 
Q 6.984375 53.65625 15.1875 63.9375 
Q 23.390625 74.21875 37.203125 74.21875 
Q 40.921875 74.21875 44.703125 73.484375 
Q 48.484375 72.75 52.59375 71.296875 
z
" id="DejaVuSans-54"/>
       </defs>
       <use xlink:href="#DejaVuSans-48"/>
       <use x="63.623047" xlink:href="#DejaVuSans-46"/>
       <use x="95.410156" xlink:href="#DejaVuSans-54"/>
      </g>
     </g>
    </g>
    <g id="ytick_5">
     <g id="line2d_8">
      <g>
       <use style="stroke:#000000;stroke-width:0.8;" x="135" xlink:href="#m36e99b4080" y="213.835785"/>
      </g>
     </g>
     <g id="text_5">
      <!-- 0.8 -->
      <g transform="translate(80.290625 225.233441)scale(0.3 -0.3)">
       <defs>
        <path d="M 31.78125 34.625 
Q 24.75 34.625 20.71875 30.859375 
Q 16.703125 27.09375 16.703125 20.515625 
Q 16.703125 13.921875 20.71875 10.15625 
Q 24.75 6.390625 31.78125 6.390625 
Q 38.8125 6.390625 42.859375 10.171875 
Q 46.921875 13.96875 46.921875 20.515625 
Q 46.921875 27.09375 42.890625 30.859375 
Q 38.875 34.625 31.78125 34.625 
z
M 21.921875 38.8125 
Q 15.578125 40.375 12.03125 44.71875 
Q 8.5 49.078125 8.5 55.328125 
Q 8.5 64.0625 14.71875 69.140625 
Q 20.953125 74.21875 31.78125 74.21875 
Q 42.671875 74.21875 48.875 69.140625 
Q 55.078125 64.0625 55.078125 55.328125 
Q 55.078125 49.078125 51.53125 44.71875 
Q 48 40.375 41.703125 38.8125 
Q 48.828125 37.15625 52.796875 32.3125 
Q 56.78125 27.484375 56.78125 20.515625 
Q 56.78125 9.90625 50.3125 4.234375 
Q 43.84375 -1.421875 31.78125 -1.421875 
Q 19.734375 -1.421875 13.25 4.234375 
Q 6.78125 9.90625 6.78125 20.515625 
Q 6.78125 27.484375 10.78125 32.3125 
Q 14.796875 37.15625 21.921875 38.8125 
z
M 18.3125 54.390625 
Q 18.3125 48.734375 21.84375 45.5625 
Q 25.390625 42.390625 31.78125 42.390625 
Q 38.140625 42.390625 41.71875 45.5625 
Q 45.3125 48.734375 45.3125 54.390625 
Q 45.3125 60.0625 41.71875 63.234375 
Q 38.140625 66.40625 31.78125 66.40625 
Q 25.390625 66.40625 21.84375 63.234375 
Q 18.3125 60.0625 18.3125 54.390625 
z
" id="DejaVuSans-56"/>
       </defs>
       <use xlink:href="#DejaVuSans-48"/>
       <use x="63.623047" xlink:href="#DejaVuSans-46"/>
       <use x="95.410156" xlink:href="#DejaVuSans-56"/>
      </g>
     </g>
    </g>
    <g id="ytick_6">
     <g id="line2d_9">
      <g>
       <use style="stroke:#000000;stroke-width:0.8;" x="135" xlink:href="#m36e99b4080" y="146.447348"/>
      </g>
     </g>
     <g id="text_6">
      <!-- 1.0 -->
      <g transform="translate(80.290625 157.845005)scale(0.3 -0.3)">
       <defs>
        <path d="M 12.40625 8.296875 
L 28.515625 8.296875 
L 28.515625 63.921875 
L 10.984375 60.40625 
L 10.984375 69.390625 
L 28.421875 72.90625 
L 38.28125 72.90625 
L 38.28125 8.296875 
L 54.390625 8.296875 
L 54.390625 0 
L 12.40625 0 
z
" id="DejaVuSans-49"/>
       </defs>
       <use xlink:href="#DejaVuSans-49"/>
       <use x="63.623047" xlink:href="#DejaVuSans-46"/>
       <use x="95.410156" xlink:href="#DejaVuSans-48"/>
      </g>
     </g>
    </g>
   </g>
   <g id="line2d_10">
    <path clip-path="url(#p591e42693d)" d="M 152.293388 191.828366 
L 157.966755 194.706676 
L 163.363371 197.694039 
L 168.414051 200.735041 
L 173.395543 203.991573 
L 178.23866 207.428239 
L 182.874215 210.992943 
L 187.371396 214.733737 
L 191.730201 218.649748 
L 196.01982 222.807366 
L 200.171063 227.141822 
L 204.322307 231.806063 
L 208.335175 236.650081 
L 212.348044 241.844083 
L 216.360913 247.405195 
L 220.442969 253.451068 
L 224.594212 260.004435 
L 228.953018 267.309647 
L 233.796135 275.876729 
L 240.645687 288.503663 
L 246.595803 299.315942 
L 249.709235 304.53185 
L 252.130794 308.169541 
L 254.068041 310.697043 
L 255.728538 312.509139 
L 257.112286 313.711767 
L 258.357659 314.511111 
L 259.464657 314.962479 
L 260.433281 315.131747 
L 261.332717 315.079415 
L 262.232153 314.805665 
L 263.131589 314.289944 
L 264.031025 313.510568 
L 264.999649 312.350495 
L 265.968272 310.828936 
L 267.006083 308.762903 
L 268.113081 306.020108 
L 269.22008 302.675327 
L 270.396265 298.41063 
L 271.641638 293.040751 
L 272.956199 286.361391 
L 274.339947 278.157554 
L 275.862069 267.713454 
L 277.522566 254.654589 
L 279.390626 238.077881 
L 281.812185 214.421318 
L 285.617491 177.202701 
L 287.070426 165.293889 
L 288.177425 157.990618 
L 289.007673 153.821471 
L 289.699547 151.355081 
L 290.253046 150.114895 
L 290.668171 149.643809 
L 291.014108 149.566467 
L 291.290857 149.717687 
L 291.636794 150.179812 
L 292.051919 151.144437 
L 292.53623 152.846921 
L 293.158917 155.964047 
L 293.850791 160.65623 
L 294.68104 167.963238 
L 295.649663 178.670119 
L 296.825849 194.441699 
L 298.347971 218.191439 
L 302.430027 283.67273 
L 303.606213 298.159543 
L 304.505649 306.791849 
L 305.26671 312.216315 
L 305.889397 315.294592 
L 306.442896 316.977183 
L 306.85802 317.585103 
L 307.13477 317.68068 
L 307.411519 317.530838 
L 307.757456 317.003179 
L 308.172581 315.880804 
L 308.72608 313.582311 
L 309.348766 309.957049 
L 310.109828 304.149771 
L 311.078451 294.833013 
L 312.254637 281.17089 
L 313.915134 258.930732 
L 318.550689 195.207966 
L 319.934437 179.802884 
L 321.110623 169.045594 
L 322.079246 162.041741 
L 322.909495 157.506764 
L 323.532182 155.108639 
L 323.947306 154.164736 
L 324.154868 154.085896 
L 324.293243 154.39904 
L 324.431618 155.506376 
L 324.569993 159.36236 
L 324.777555 180.462064 
L 325.054304 156.901443 
L 325.192679 155.749505 
L 325.261866 156.006353 
L 325.400241 158.853566 
L 325.538616 171.322001 
L 325.607803 180.672629 
L 325.676991 175.052761 
L 325.884553 156.902712 
L 326.092115 154.415797 
L 326.299677 154.062101 
L 326.507239 154.260231 
L 326.853176 155.094314 
L 327.406676 157.173549 
L 328.098549 160.747702 
L 328.928798 166.306591 
L 329.897422 174.406018 
L 331.00442 185.586569 
L 332.388168 202.011054 
L 334.18704 226.291885 
L 338.476658 285.365874 
L 339.722031 299.028454 
L 340.690655 307.46608 
L 341.520903 312.848359 
L 342.14359 315.629254 
L 342.627902 316.995104 
L 343.043026 317.588228 
L 343.319776 317.68019 
L 343.596525 317.526277 
L 343.942462 316.984856 
L 344.357586 315.821235 
L 344.841898 313.756229 
L 345.464585 309.997724 
L 346.225646 303.777803 
L 347.125082 294.287732 
L 348.162893 280.839217 
L 349.546641 259.77741 
L 354.389758 183.053186 
L 355.496756 170.093693 
L 356.46538 161.216154 
L 357.295629 155.579837 
L 357.987502 152.305294 
L 358.541002 150.610569 
L 359.025313 149.787781 
L 359.37125 149.566427 
L 359.648 149.603361 
L 359.993937 149.909452 
L 360.409061 150.644136 
L 360.893373 151.983875 
L 361.516059 154.418379 
L 362.277121 158.378833 
L 363.245744 164.770288 
L 364.42193 174.156303 
L 366.01324 188.804491 
L 373.139541 256.933815 
L 374.869226 270.206368 
L 376.460536 280.738073 
L 377.913471 288.938851 
L 379.297219 295.533327 
L 380.611779 300.757878 
L 381.857152 304.834996 
L 383.033338 307.964646 
L 384.140336 310.321203 
L 385.178147 312.054103 
L 386.215958 313.364534 
L 387.184582 314.238733 
L 388.084018 314.774284 
L 388.983454 315.066219 
L 389.88289 315.135033 
L 390.851513 314.982075 
L 391.889324 314.582061 
L 392.996322 313.914714 
L 394.241695 312.902571 
L 395.694631 311.42018 
L 397.355128 309.393121 
L 399.292375 306.667873 
L 401.644746 302.963757 
L 404.688992 297.733024 
L 409.324547 289.274973 
L 419.079969 271.418824 
L 423.784711 263.315915 
L 428.143517 256.241725 
L 432.363948 249.81744 
L 436.446004 244.005195 
L 440.458873 238.667335 
L 444.540929 233.603852 
L 448.622985 228.8899 
L 452.774228 224.431843 
L 456.994659 220.222328 
L 461.353465 216.190763 
L 465.781458 212.397595 
L 470.417013 208.72563 
L 475.121756 205.284285 
L 480.034061 201.969873 
L 485.08474 198.831229 
L 490.204607 195.901364 
L 495.670411 193.025887 
L 498.161157 191.79485 
L 498.161157 191.79485 
" style="fill:none;stroke:#0000ff;stroke-linecap:square;stroke-width:5;"/>
   </g>
   <g id="line2d_11">
    <path clip-path="url(#p591e42693d)" d="M 152.293388 438.017489 
L 157.966755 435.140459 
L 163.363371 432.154477 
L 168.552425 429.028224 
L 173.533918 425.766023 
L 178.307848 422.374607 
L 182.943403 418.808053 
L 187.440583 415.065418 
L 191.799389 411.147711 
L 196.01982 407.05811 
L 200.171063 402.727671 
L 204.253119 398.148734 
L 208.265988 393.315935 
L 212.278857 388.134469 
L 216.291725 382.587424 
L 220.373781 376.557619 
L 224.525025 370.022532 
L 228.88383 362.738789 
L 233.726948 354.198759 
L 240.645687 341.488 
L 246.526615 330.847188 
L 249.640048 325.655688 
L 251.992419 322.134186 
L 253.929666 319.608326 
L 255.590163 317.794486 
L 256.973911 316.587823 
L 258.219284 315.782528 
L 259.326283 315.323885 
L 260.294906 315.146609 
L 261.194342 315.189864 
L 262.093778 315.453087 
L 262.993214 315.956592 
L 263.89265 316.722096 
L 264.861274 317.865529 
L 265.829897 319.368352 
L 266.867708 321.412283 
L 267.974707 324.129232 
L 269.081705 327.446484 
L 270.25789 331.680321 
L 271.503263 337.01686 
L 272.817824 343.662217 
L 274.201572 351.834485 
L 275.654507 361.747745 
L 277.245817 374.154332 
L 279.044689 389.984117 
L 281.327873 412.226487 
L 285.894241 457.330466 
L 287.277989 468.523968 
L 288.3158 475.271806 
L 289.146048 479.371998 
L 289.837922 481.761182 
L 290.391421 482.927475 
L 290.806546 483.33694 
L 291.152483 483.359351 
L 291.49842 483.082391 
L 291.844356 482.498366 
L 292.328668 481.152943 
L 292.882167 478.847236 
L 293.504854 475.263897 
L 294.265915 469.470455 
L 295.165351 460.688224 
L 296.203162 448.167854 
L 297.517723 429.283291 
L 299.524157 396.611316 
L 301.876528 359.029805 
L 303.121901 342.398959 
L 304.159712 331.367278 
L 304.989961 324.743779 
L 305.681835 320.850028 
L 306.235334 318.839093 
L 306.650458 317.982159 
L 306.996395 317.693903 
L 307.273145 317.739715 
L 307.549894 318.028613 
L 307.895831 318.726433 
L 308.380143 320.31624 
L 308.933642 322.975191 
L 309.625516 327.484418 
L 310.455765 334.473777 
L 311.493576 345.283541 
L 312.808136 361.523106 
L 314.81457 389.465343 
L 317.928003 432.648486 
L 319.450126 450.717073 
L 320.695499 463.034295 
L 321.733309 471.288572 
L 322.632746 476.818957 
L 323.393807 480.25636 
L 324.016493 482.198682 
L 324.500805 483.147657 
L 324.63918 483.218572 
L 324.777555 482.798738 
L 324.846742 482.872251 
L 325.123492 483.34307 
L 325.331054 483.299767 
L 325.469429 483.075734 
L 325.607803 482.788888 
L 325.815366 483.220636 
L 326.092115 482.817605 
L 326.576427 481.652914 
L 327.129926 479.737331 
L 327.8218 476.475169 
L 328.652049 471.321875 
L 329.551485 464.286304 
L 330.658483 453.713541 
L 331.973043 438.766319 
L 333.633541 417.034961 
L 339.099345 343.004071 
L 340.206343 332.000497 
L 341.105779 325.096837 
L 341.86684 320.915476 
L 342.420339 318.920698 
L 342.904651 317.938492 
L 343.250588 317.686757 
L 343.527338 317.76011 
L 343.804087 318.080043 
L 344.150024 318.828902 
L 344.634336 320.528925 
L 345.187835 323.395017 
L 345.879709 328.327738 
L 346.709958 336.120296 
L 347.678581 347.530971 
L 348.923954 365.174788 
L 350.792014 395.403926 
L 353.421135 437.544812 
L 354.735695 455.110909 
L 355.773506 466.308992 
L 356.672942 473.818414 
L 357.434003 478.487946 
L 358.05669 481.144423 
L 358.610189 482.635263 
L 359.025313 483.227465 
L 359.37125 483.385785 
L 359.648 483.298853 
L 359.993937 482.930944 
L 360.409061 482.122737 
L 360.96256 480.45464 
L 361.585247 477.828687 
L 362.346308 473.649168 
L 363.314932 467.004095 
L 364.560305 456.736976 
L 366.220802 441.032398 
L 372.655229 378.251996 
L 374.454102 363.80218 
L 376.045412 352.729071 
L 377.567534 343.669932 
L 378.951282 336.702619 
L 380.265842 331.147583 
L 381.511215 326.780529 
L 382.687401 323.398647 
L 383.863587 320.68121 
L 384.970585 318.680052 
L 386.008396 317.252005 
L 386.977019 316.276885 
L 387.945643 315.617559 
L 388.845079 315.26416 
L 389.744515 315.138398 
L 390.713138 315.23498 
L 391.750949 315.579913 
L 392.857948 316.193848 
L 394.103321 317.152243 
L 395.487068 318.504784 
L 397.078378 320.375602 
L 398.946438 322.92188 
L 401.229622 326.42817 
L 404.135492 331.328195 
L 408.286736 338.807007 
L 420.256155 360.582991 
L 424.89171 368.439364 
L 429.181328 375.282238 
L 433.332571 381.492426 
L 437.414628 387.204009 
L 441.496684 392.534737 
L 445.57874 397.501737 
L 449.729983 402.201103 
L 453.950414 406.638868 
L 458.170845 410.758497 
L 462.529651 414.704773 
L 467.026831 418.474402 
L 471.593199 422.014853 
L 476.367129 425.434073 
L 481.279434 428.678723 
L 486.399301 431.792934 
L 491.72673 434.771697 
L 497.330908 437.646028 
L 498.161157 438.050945 
L 498.161157 438.050945 
" style="fill:none;stroke:#ff0000;stroke-linecap:square;stroke-width:5;"/>
   </g>
   <g id="patch_3">
    <path d="M 135 500.236364 
L 135 129.6 
" style="fill:none;stroke:#000000;stroke-linecap:square;stroke-linejoin:miter;stroke-width:0.8;"/>
   </g>
   <g id="patch_4">
    <path d="M 515.454545 500.236364 
L 515.454545 129.6 
" style="fill:none;stroke:#000000;stroke-linecap:square;stroke-linejoin:miter;stroke-width:0.8;"/>
   </g>
   <g id="patch_5">
    <path d="M 135 500.236364 
L 515.454545 500.236364 
" style="fill:none;stroke:#000000;stroke-linecap:square;stroke-linejoin:miter;stroke-width:0.8;"/>
   </g>
   <g id="patch_6">
    <path d="M 135 129.6 
L 515.454545 129.6 
" style="fill:none;stroke:#000000;stroke-linecap:square;stroke-linejoin:miter;stroke-width:0.8;"/>
   </g>
  </g>
  <g id="axes_2">
   <g id="patch_7">
    <path d="M 591.545455 500.236364 
L 972 500.236364 
L 972 129.6 
L 591.545455 129.6 
z
" style="fill:#ffffff;"/>
   </g>
   <g id="matplotlib.axis_3">
    <g id="xtick_4">
     <g id="line2d_12">
      <g>
       <use style="stroke:#000000;stroke-width:0.8;" x="595.868802" xlink:href="#ma598647037" y="500.236364"/>
      </g>
     </g>
    </g>
    <g id="xtick_5">
     <g id="line2d_13">
      <g>
       <use style="stroke:#000000;stroke-width:0.8;" x="781.772727" xlink:href="#ma598647037" y="500.236364"/>
      </g>
     </g>
    </g>
    <g id="xtick_6">
     <g id="line2d_14">
      <g>
       <use style="stroke:#000000;stroke-width:0.8;" x="967.676653" xlink:href="#ma598647037" y="500.236364"/>
      </g>
     </g>
    </g>
   </g>
   <g id="matplotlib.axis_4">
    <g id="ytick_7">
     <g id="line2d_15">
      <g>
       <use style="stroke:#000000;stroke-width:0.8;" x="591.545455" xlink:href="#m36e99b4080" y="483.389529"/>
      </g>
     </g>
    </g>
    <g id="ytick_8">
     <g id="line2d_16">
      <g>
       <use style="stroke:#000000;stroke-width:0.8;" x="591.545455" xlink:href="#m36e99b4080" y="416.001093"/>
      </g>
     </g>
    </g>
    <g id="ytick_9">
     <g id="line2d_17">
      <g>
       <use style="stroke:#000000;stroke-width:0.8;" x="591.545455" xlink:href="#m36e99b4080" y="348.612657"/>
      </g>
     </g>
    </g>
    <g id="ytick_10">
     <g id="line2d_18">
      <g>
       <use style="stroke:#000000;stroke-width:0.8;" x="591.545455" xlink:href="#m36e99b4080" y="281.224221"/>
      </g>
     </g>
    </g>
    <g id="ytick_11">
     <g id="line2d_19">
      <g>
       <use style="stroke:#000000;stroke-width:0.8;" x="591.545455" xlink:href="#m36e99b4080" y="213.835785"/>
      </g>
     </g>
    </g>
    <g id="ytick_12">
     <g id="line2d_20">
      <g>
       <use style="stroke:#000000;stroke-width:0.8;" x="591.545455" xlink:href="#m36e99b4080" y="146.447348"/>
      </g>
     </g>
    </g>
   </g>
   <g id="line2d_21">
    <path clip-path="url(#p6a9e58e669)" d="M 608.838843 190.334381 
L 614.719771 193.132107 
L 620.254763 196.003171 
L 625.651379 199.049504 
L 630.840433 202.233509 
L 635.821926 205.55005 
L 640.595856 208.991284 
L 645.300598 212.659035 
L 649.797779 216.445349 
L 654.156584 220.399954 
L 658.51539 224.658824 
L 662.735821 229.095562 
L 666.887064 233.782413 
L 670.96912 238.724312 
L 675.051176 244.016108 
L 679.133232 249.67439 
L 683.215289 255.710977 
L 687.435719 262.354359 
L 691.863712 269.752971 
L 696.637642 278.177354 
L 702.518571 289.036795 
L 711.997243 306.577675 
L 715.249051 312.080018 
L 717.739797 315.87527 
L 719.815418 318.642602 
L 721.545103 320.595116 
L 723.067226 321.989512 
L 724.381786 322.908302 
L 725.557972 323.474957 
L 726.66497 323.762372 
L 727.702781 323.793558 
L 728.671405 323.596284 
L 729.640028 323.163347 
L 730.608651 322.477953 
L 731.577275 321.523929 
L 732.615086 320.185803 
L 733.722084 318.378877 
L 734.89827 316.009935 
L 736.143643 312.979711 
L 737.458203 309.189251 
L 738.911138 304.300227 
L 740.502448 298.150797 
L 742.439695 289.708468 
L 745.414753 275.556696 
L 747.974687 263.767873 
L 749.427622 258.048148 
L 750.53462 254.506193 
L 751.434056 252.303518 
L 752.195118 250.998488 
L 752.817804 250.357856 
L 753.302116 250.147144 
L 753.71724 250.178453 
L 754.132364 250.413709 
L 754.616676 250.955631 
L 755.170175 251.93993 
L 755.792862 253.527432 
L 756.484736 255.903197 
L 757.314984 259.618384 
L 758.214421 264.710125 
L 759.252231 271.938931 
L 760.428417 281.800396 
L 761.812165 295.459863 
L 763.472662 314.301058 
L 765.617471 341.400778 
L 771.775149 420.735755 
L 773.574021 440.244389 
L 775.096144 454.37658 
L 776.410704 464.551282 
L 777.517703 471.525407 
L 778.486326 476.364519 
L 779.385762 479.764529 
L 780.146824 481.80134 
L 780.76951 482.890272 
L 781.184634 483.260031 
L 781.392197 483.10574 
L 781.668946 483.365722 
L 781.945696 483.292704 
L 782.153258 483.043484 
L 782.36082 483.238376 
L 782.706757 482.877705 
L 783.260256 481.928244 
L 783.882943 480.369256 
L 784.574817 478.030334 
L 785.405065 474.392881 
L 786.373689 469.032228 
L 787.4115 462.004252 
L 788.656873 451.916558 
L 790.040621 438.770848 
L 791.631931 421.46319 
L 793.638365 397.031552 
L 796.95936 353.27886 
L 799.934417 315.181371 
L 801.73329 294.818037 
L 803.186225 280.675866 
L 804.431598 270.53135 
L 805.538596 263.201295 
L 806.50722 258.149985 
L 807.406656 254.610693 
L 808.167717 252.471488 
L 808.790404 251.289324 
L 809.343903 250.653164 
L 809.828214 250.404443 
L 810.243339 250.410681 
L 810.72765 250.662886 
L 811.28115 251.256898 
L 811.903836 252.288275 
L 812.664897 254.02387 
L 813.564334 256.665165 
L 814.671332 260.640614 
L 816.124267 266.754742 
L 818.407451 277.472722 
L 821.936008 293.956325 
L 823.873255 301.915691 
L 825.533752 307.81171 
L 826.986687 312.195411 
L 828.370435 315.680378 
L 829.615808 318.248278 
L 830.791994 320.195392 
L 831.898992 321.62328 
L 832.936803 322.624736 
L 833.974614 323.319557 
L 834.943237 323.709167 
L 835.911861 323.865944 
L 836.880484 323.806642 
L 837.918295 323.521996 
L 839.025293 322.987959 
L 840.270667 322.130732 
L 841.654414 320.896091 
L 843.245724 319.158324 
L 845.044597 316.8498 
L 847.189406 313.713357 
L 849.749339 309.556962 
L 853.070334 303.714505 
L 858.328576 293.950024 
L 867.322936 277.270902 
L 872.235241 268.653345 
L 876.732422 261.203938 
L 881.02204 254.52369 
L 885.242471 248.363762 
L 889.393714 242.69742 
L 893.544958 237.406416 
L 897.765389 232.393091 
L 901.985819 227.726849 
L 906.20625 223.384882 
L 910.565056 219.216877 
L 914.993049 215.286929 
L 919.628604 211.475148 
L 924.333347 207.896153 
L 929.176464 204.490323 
L 934.227144 201.212402 
L 939.485386 198.069246 
L 944.951189 195.065418 
L 950.693743 192.169892 
L 954.706612 190.290429 
L 954.706612 190.290429 
" style="fill:none;stroke:#0000ff;stroke-linecap:square;stroke-width:5;"/>
   </g>
   <g id="line2d_22">
    <path clip-path="url(#p6a9e58e669)" d="M 608.838843 439.506982 
L 614.719771 436.709912 
L 620.393137 433.764629 
L 625.789754 430.712574 
L 630.978808 427.522486 
L 635.9603 424.199672 
L 640.803418 420.699833 
L 645.438973 417.077115 
L 649.936153 413.283655 
L 654.364146 409.256316 
L 658.653765 405.05496 
L 662.874196 400.610346 
L 667.025439 395.915492 
L 671.107495 390.965554 
L 675.189551 385.665934 
L 679.271607 380.000227 
L 683.422851 373.851245 
L 687.643282 367.195995 
L 692.071275 359.788129 
L 696.914392 351.235046 
L 703.002882 339.993689 
L 711.651306 324.031635 
L 714.972301 318.397802 
L 717.463047 314.583847 
L 719.538669 311.791355 
L 721.268354 309.810315 
L 722.790476 308.384333 
L 724.105037 307.432995 
L 725.281222 306.832858 
L 726.388221 306.510028 
L 727.426031 306.442145 
L 728.394655 306.602244 
L 729.363278 306.99517 
L 730.331902 307.637905 
L 731.300525 308.547035 
L 732.338336 309.834951 
L 733.445335 311.586656 
L 734.62152 313.896468 
L 735.866893 316.865397 
L 737.181454 320.595966 
L 738.634389 325.429573 
L 740.225699 331.539999 
L 742.093758 339.665242 
L 744.653692 351.918437 
L 747.974687 367.66815 
L 749.427622 373.522862 
L 750.53462 377.169069 
L 751.434056 379.456436 
L 752.195118 380.832707 
L 752.817804 381.531122 
L 753.302116 381.786064 
L 753.71724 381.792306 
L 754.132364 381.594071 
L 754.616676 381.094653 
L 755.170175 380.157826 
L 755.792862 378.622262 
L 756.484736 376.302158 
L 757.314984 372.650435 
L 758.214421 367.623061 
L 759.252231 360.462477 
L 760.428417 350.669903 
L 761.742978 337.807496 
L 763.334288 319.956026 
L 765.409909 293.975837 
L 772.051899 208.819253 
L 773.781584 190.421402 
L 775.234519 177.190372 
L 776.479892 167.70071 
L 777.58689 160.825936 
L 778.555514 156.086061 
L 779.385762 153.016797 
L 780.077636 151.215881 
L 780.561948 150.494829 
L 780.76951 150.47455 
L 780.907885 150.745796 
L 781.04626 151.738362 
L 781.184634 155.710026 
L 781.323009 163.92893 
L 781.599759 151.717126 
L 781.738134 151.13086 
L 781.807321 151.262447 
L 781.945696 152.71698 
L 782.084071 159.144054 
L 782.153258 164.047247 
L 782.222445 161.106394 
L 782.430007 151.795829 
L 782.63757 150.588141 
L 782.845132 150.475339 
L 783.121881 150.748814 
L 783.537006 151.539459 
L 784.159692 153.267723 
L 784.920754 156.126213 
L 785.82019 160.496761 
L 786.788813 166.355127 
L 787.895811 174.441682 
L 789.141184 185.19443 
L 790.59412 199.734791 
L 792.323804 219.408175 
L 794.537801 247.301606 
L 800.626291 325.556327 
L 802.286789 343.351172 
L 803.670537 355.934002 
L 804.846722 364.770164 
L 805.884533 371.039324 
L 806.783969 375.278457 
L 807.614218 378.205162 
L 808.306092 379.932535 
L 808.928778 380.949873 
L 809.482277 381.442164 
L 809.966589 381.567601 
L 810.381714 381.457894 
L 810.866025 381.088106 
L 811.419524 380.364379 
L 812.111398 379.041229 
L 812.941647 376.902326 
L 813.91027 373.754167 
L 815.155644 368.884109 
L 816.816141 361.407178 
L 823.388943 330.779196 
L 825.04944 324.516561 
L 826.571563 319.600274 
L 827.955311 315.843059 
L 829.269871 312.89962 
L 830.515244 310.657096 
L 831.622243 309.090102 
L 832.729241 307.90276 
L 833.767052 307.113887 
L 834.735675 306.642371 
L 835.704299 306.409346 
L 836.672922 306.397897 
L 837.710733 306.612642 
L 838.817731 307.078391 
L 839.993917 307.815651 
L 841.308477 308.903036 
L 842.8306 310.465557 
L 844.560285 312.576989 
L 846.566719 315.391964 
L 848.988278 319.193691 
L 852.032523 324.414559 
L 856.391329 332.377874 
L 868.845059 355.354029 
L 873.618989 363.578565 
L 878.046982 370.771086 
L 882.267413 377.212195 
L 886.418656 383.150733 
L 890.5699 388.704294 
L 894.721143 393.888189 
L 898.872387 398.721511 
L 903.092818 403.297709 
L 907.382436 407.623313 
L 911.741242 411.706723 
L 916.238422 415.61546 
L 920.873977 419.347092 
L 925.57872 422.851756 
L 930.491025 426.233693 
L 935.541704 429.442102 
L 940.799946 432.519783 
L 946.334937 435.497956 
L 952.077491 438.332565 
L 954.706612 439.550874 
L 954.706612 439.550874 
" style="fill:none;stroke:#ff0000;stroke-linecap:square;stroke-width:5;"/>
   </g>
   <g id="patch_8">
    <path d="M 591.545455 500.236364 
L 591.545455 129.6 
" style="fill:none;stroke:#000000;stroke-linecap:square;stroke-linejoin:miter;stroke-width:0.8;"/>
   </g>
   <g id="patch_9">
    <path d="M 972 500.236364 
L 972 129.6 
" style="fill:none;stroke:#000000;stroke-linecap:square;stroke-linejoin:miter;stroke-width:0.8;"/>
   </g>
   <g id="patch_10">
    <path d="M 591.545455 500.236364 
L 972 500.236364 
" style="fill:none;stroke:#000000;stroke-linecap:square;stroke-linejoin:miter;stroke-width:0.8;"/>
   </g>
   <g id="patch_11">
    <path d="M 591.545455 129.6 
L 972 129.6 
" style="fill:none;stroke:#000000;stroke-linecap:square;stroke-linejoin:miter;stroke-width:0.8;"/>
   </g>
  </g>
  <g id="axes_3">
   <g id="patch_12">
    <path d="M 135 945 
L 515.454545 945 
L 515.454545 574.363636 
L 135 574.363636 
z
" style="fill:#ffffff;"/>
   </g>
   <g id="matplotlib.axis_5">
    <g id="xtick_7">
     <g id="line2d_23">
      <g>
       <use style="stroke:#000000;stroke-width:0.8;" x="139.323347" xlink:href="#ma598647037" y="945"/>
      </g>
     </g>
     <g id="text_7">
      <!-- −2 -->
      <g transform="translate(117.210066 974.795312)scale(0.3 -0.3)">
       <defs>
        <path d="M 10.59375 35.5 
L 73.1875 35.5 
L 73.1875 27.203125 
L 10.59375 27.203125 
z
" id="DejaVuSans-8722"/>
       </defs>
       <use xlink:href="#DejaVuSans-8722"/>
       <use x="83.789062" xlink:href="#DejaVuSans-50"/>
      </g>
     </g>
    </g>
    <g id="xtick_8">
     <g id="line2d_24">
      <g>
       <use style="stroke:#000000;stroke-width:0.8;" x="325.227273" xlink:href="#ma598647037" y="945"/>
      </g>
     </g>
     <g id="text_8">
      <!-- 0 -->
      <g transform="translate(315.683523 974.795312)scale(0.3 -0.3)">
       <use xlink:href="#DejaVuSans-48"/>
      </g>
     </g>
    </g>
    <g id="xtick_9">
     <g id="line2d_25">
      <g>
       <use style="stroke:#000000;stroke-width:0.8;" x="511.131198" xlink:href="#ma598647037" y="945"/>
      </g>
     </g>
     <g id="text_9">
      <!-- 2 -->
      <g transform="translate(501.587448 974.795312)scale(0.3 -0.3)">
       <use xlink:href="#DejaVuSans-50"/>
      </g>
     </g>
    </g>
   </g>
   <g id="matplotlib.axis_6">
    <g id="ytick_13">
     <g id="line2d_26">
      <g>
       <use style="stroke:#000000;stroke-width:0.8;" x="135" xlink:href="#m36e99b4080" y="928.153166"/>
      </g>
     </g>
     <g id="text_10">
      <!-- 0.0 -->
      <g transform="translate(80.290625 939.550822)scale(0.3 -0.3)">
       <use xlink:href="#DejaVuSans-48"/>
       <use x="63.623047" xlink:href="#DejaVuSans-46"/>
       <use x="95.410156" xlink:href="#DejaVuSans-48"/>
      </g>
     </g>
    </g>
    <g id="ytick_14">
     <g id="line2d_27">
      <g>
       <use style="stroke:#000000;stroke-width:0.8;" x="135" xlink:href="#m36e99b4080" y="860.76473"/>
      </g>
     </g>
     <g id="text_11">
      <!-- 0.2 -->
      <g transform="translate(80.290625 872.162386)scale(0.3 -0.3)">
       <use xlink:href="#DejaVuSans-48"/>
       <use x="63.623047" xlink:href="#DejaVuSans-46"/>
       <use x="95.410156" xlink:href="#DejaVuSans-50"/>
      </g>
     </g>
    </g>
    <g id="ytick_15">
     <g id="line2d_28">
      <g>
       <use style="stroke:#000000;stroke-width:0.8;" x="135" xlink:href="#m36e99b4080" y="793.376293"/>
      </g>
     </g>
     <g id="text_12">
      <!-- 0.4 -->
      <g transform="translate(80.290625 804.77395)scale(0.3 -0.3)">
       <use xlink:href="#DejaVuSans-48"/>
       <use x="63.623047" xlink:href="#DejaVuSans-46"/>
       <use x="95.410156" xlink:href="#DejaVuSans-52"/>
      </g>
     </g>
    </g>
    <g id="ytick_16">
     <g id="line2d_29">
      <g>
       <use style="stroke:#000000;stroke-width:0.8;" x="135" xlink:href="#m36e99b4080" y="725.987857"/>
      </g>
     </g>
     <g id="text_13">
      <!-- 0.6 -->
      <g transform="translate(80.290625 737.385513)scale(0.3 -0.3)">
       <use xlink:href="#DejaVuSans-48"/>
       <use x="63.623047" xlink:href="#DejaVuSans-46"/>
       <use x="95.410156" xlink:href="#DejaVuSans-54"/>
      </g>
     </g>
    </g>
    <g id="ytick_17">
     <g id="line2d_30">
      <g>
       <use style="stroke:#000000;stroke-width:0.8;" x="135" xlink:href="#m36e99b4080" y="658.599421"/>
      </g>
     </g>
     <g id="text_14">
      <!-- 0.8 -->
      <g transform="translate(80.290625 669.997077)scale(0.3 -0.3)">
       <use xlink:href="#DejaVuSans-48"/>
       <use x="63.623047" xlink:href="#DejaVuSans-46"/>
       <use x="95.410156" xlink:href="#DejaVuSans-56"/>
      </g>
     </g>
    </g>
    <g id="ytick_18">
     <g id="line2d_31">
      <g>
       <use style="stroke:#000000;stroke-width:0.8;" x="135" xlink:href="#m36e99b4080" y="591.210985"/>
      </g>
     </g>
     <g id="text_15">
      <!-- 1.0 -->
      <g transform="translate(80.290625 602.608641)scale(0.3 -0.3)">
       <use xlink:href="#DejaVuSans-49"/>
       <use x="63.623047" xlink:href="#DejaVuSans-46"/>
       <use x="95.410156" xlink:href="#DejaVuSans-48"/>
      </g>
     </g>
    </g>
   </g>
   <g id="line2d_32">
    <path clip-path="url(#p66024c8c38)" d="M 152.293388 635.098018 
L 158.174317 637.895743 
L 163.709308 640.766808 
L 169.105924 643.813141 
L 174.294979 646.997145 
L 179.276471 650.313687 
L 184.050401 653.75492 
L 188.755144 657.422672 
L 193.252324 661.208986 
L 197.61113 665.163591 
L 201.969935 669.422461 
L 206.190366 673.859199 
L 210.34161 678.546049 
L 214.423666 683.487948 
L 218.505722 688.779744 
L 222.587778 694.438026 
L 226.669834 700.474613 
L 230.890265 707.117995 
L 235.318258 714.516607 
L 240.092188 722.940991 
L 245.973116 733.800432 
L 255.451789 751.341311 
L 258.703596 756.843655 
L 261.194342 760.638906 
L 263.269964 763.406238 
L 264.999649 765.358752 
L 266.521771 766.753148 
L 267.836332 767.671938 
L 269.012517 768.238593 
L 270.119516 768.526009 
L 271.157327 768.557194 
L 272.12595 768.359921 
L 273.094573 767.926983 
L 274.063197 767.241589 
L 275.03182 766.287565 
L 276.069631 764.949439 
L 277.17663 763.142514 
L 278.352815 760.773571 
L 279.598188 757.743347 
L 280.912749 753.952887 
L 282.365684 749.063863 
L 283.956994 742.914433 
L 285.894241 734.472104 
L 288.869299 720.320332 
L 291.429232 708.531509 
L 292.882167 702.811784 
L 293.989166 699.269829 
L 294.888602 697.067155 
L 295.649663 695.762124 
L 296.27235 695.121492 
L 296.756661 694.910781 
L 297.171786 694.94209 
L 297.58691 695.177345 
L 298.071222 695.719267 
L 298.624721 696.703566 
L 299.247407 698.291069 
L 299.939281 700.666834 
L 300.76953 704.38202 
L 301.668966 709.473761 
L 302.706777 716.702568 
L 303.882963 726.564032 
L 305.26671 740.223499 
L 306.927208 759.064695 
L 309.072017 786.164414 
L 315.229695 865.499392 
L 317.028567 885.008026 
L 318.550689 899.140216 
L 319.86525 909.314919 
L 320.972248 916.289044 
L 321.940872 921.128156 
L 322.840308 924.528165 
L 323.601369 926.564976 
L 324.224056 927.653909 
L 324.63918 928.023668 
L 324.846742 927.869376 
L 325.123492 928.129359 
L 325.400241 928.05634 
L 325.607803 927.807121 
L 325.815366 928.002012 
L 326.161303 927.641341 
L 326.714802 926.691881 
L 327.337488 925.132893 
L 328.029362 922.79397 
L 328.859611 919.156518 
L 329.828234 913.795865 
L 330.866045 906.767888 
L 332.111418 896.680195 
L 333.495166 883.534484 
L 335.086476 866.226826 
L 337.09291 841.795189 
L 340.413905 798.042496 
L 343.388963 759.945007 
L 345.187835 739.581673 
L 346.64077 725.439503 
L 347.886143 715.294986 
L 348.993142 707.964932 
L 349.961765 702.913621 
L 350.861201 699.374329 
L 351.622262 697.235124 
L 352.244949 696.052961 
L 352.798448 695.4168 
L 353.28276 695.168079 
L 353.697884 695.174318 
L 354.182196 695.426522 
L 354.735695 696.020535 
L 355.358382 697.051912 
L 356.119443 698.787507 
L 357.018879 701.428802 
L 358.125877 705.404251 
L 359.578812 711.518379 
L 361.861996 722.236358 
L 365.390553 738.719961 
L 367.3278 746.679328 
L 368.988298 752.575346 
L 370.441233 756.959048 
L 371.824981 760.444014 
L 373.070354 763.011915 
L 374.246539 764.959028 
L 375.353538 766.386916 
L 376.391349 767.388372 
L 377.429159 768.083193 
L 378.397783 768.472803 
L 379.366406 768.62958 
L 380.33503 768.570279 
L 381.372841 768.285632 
L 382.479839 767.751595 
L 383.725212 766.894369 
L 385.10896 765.659728 
L 386.70027 763.92196 
L 388.499142 761.613436 
L 390.643951 758.476993 
L 393.203885 754.320599 
L 396.524879 748.478142 
L 401.783121 738.71366 
L 410.777482 722.034538 
L 415.689787 713.416981 
L 420.186967 705.967574 
L 424.476585 699.287326 
L 428.697016 693.127398 
L 432.84826 687.461056 
L 436.999503 682.170052 
L 441.219934 677.156728 
L 445.440365 672.490485 
L 449.660796 668.148519 
L 454.019601 663.980513 
L 458.447594 660.050565 
L 463.08315 656.238784 
L 467.787892 652.65979 
L 472.63101 649.253959 
L 477.681689 645.976038 
L 482.939931 642.832882 
L 488.405735 639.829054 
L 494.148288 636.933528 
L 498.161157 635.054066 
L 498.161157 635.054066 
" style="fill:none;stroke:#0000ff;stroke-linecap:square;stroke-width:5;"/>
   </g>
   <g id="line2d_33">
    <path clip-path="url(#p66024c8c38)" d="M 152.293388 884.270619 
L 158.174317 881.473548 
L 163.847683 878.528266 
L 169.244299 875.476211 
L 174.433354 872.286123 
L 179.414846 868.963308 
L 184.257963 865.46347 
L 188.893518 861.840752 
L 193.390699 858.047291 
L 197.818692 854.019953 
L 202.10831 849.818597 
L 206.328741 845.373983 
L 210.479984 840.679129 
L 214.562041 835.729191 
L 218.644097 830.42957 
L 222.726153 824.763863 
L 226.877396 818.614882 
L 231.097827 811.959631 
L 235.52582 804.551766 
L 240.368937 795.998682 
L 246.457428 784.757325 
L 255.105852 768.795271 
L 258.426847 763.161438 
L 260.917593 759.347483 
L 262.993214 756.554991 
L 264.722899 754.573951 
L 266.245022 753.14797 
L 267.559582 752.196631 
L 268.735768 751.596494 
L 269.842766 751.273665 
L 270.880577 751.205781 
L 271.8492 751.365881 
L 272.817824 751.758807 
L 273.786447 752.401542 
L 274.755071 753.310671 
L 275.792882 754.598588 
L 276.89988 756.350292 
L 278.076066 758.660104 
L 279.321439 761.629033 
L 280.635999 765.359603 
L 282.088934 770.193209 
L 283.680244 776.303636 
L 285.548304 784.428879 
L 288.108237 796.682073 
L 291.429232 812.431786 
L 292.882167 818.286498 
L 293.989166 821.932705 
L 294.888602 824.220072 
L 295.649663 825.596343 
L 296.27235 826.294759 
L 296.756661 826.5497 
L 297.171786 826.555942 
L 297.58691 826.357708 
L 298.071222 825.85829 
L 298.624721 824.921463 
L 299.247407 823.385898 
L 299.939281 821.065794 
L 300.76953 817.414071 
L 301.668966 812.386697 
L 302.706777 805.226114 
L 303.882963 795.43354 
L 305.197523 782.571133 
L 306.788833 764.719663 
L 308.864455 738.739474 
L 315.506444 653.582889 
L 317.236129 635.185038 
L 318.689064 621.954008 
L 319.934437 612.464346 
L 321.041436 605.589573 
L 322.010059 600.849697 
L 322.840308 597.780433 
L 323.532182 595.979518 
L 324.016493 595.258466 
L 324.224056 595.238187 
L 324.36243 595.509432 
L 324.500805 596.501998 
L 324.63918 600.473663 
L 324.777555 608.692566 
L 325.054304 596.480763 
L 325.192679 595.894497 
L 325.261866 596.026084 
L 325.400241 597.480616 
L 325.538616 603.90769 
L 325.607803 608.810884 
L 325.676991 605.870031 
L 325.884553 596.559466 
L 326.092115 595.351777 
L 326.299677 595.238975 
L 326.576427 595.51245 
L 326.991551 596.303095 
L 327.614238 598.03136 
L 328.375299 600.889849 
L 329.274735 605.260397 
L 330.243359 611.118763 
L 331.350357 619.205319 
L 332.59573 629.958067 
L 334.048665 644.498427 
L 335.77835 664.171811 
L 337.992346 692.065242 
L 344.080837 770.319963 
L 345.741334 788.114808 
L 347.125082 800.697639 
L 348.301268 809.5338 
L 349.339079 815.80296 
L 350.238515 820.042093 
L 351.068763 822.968798 
L 351.760637 824.696171 
L 352.383324 825.713509 
L 352.936823 826.2058 
L 353.421135 826.331238 
L 353.836259 826.22153 
L 354.320571 825.851742 
L 354.87407 825.128016 
L 355.565944 823.804865 
L 356.396192 821.665962 
L 357.364816 818.517803 
L 358.610189 813.647746 
L 360.270686 806.170814 
L 366.843489 775.542833 
L 368.503986 769.280197 
L 370.026109 764.36391 
L 371.409856 760.606696 
L 372.724417 757.663257 
L 373.96979 755.420732 
L 375.076788 753.853739 
L 376.183786 752.666397 
L 377.221597 751.877523 
L 378.190221 751.406008 
L 379.158844 751.172982 
L 380.127468 751.161533 
L 381.165279 751.376278 
L 382.272277 751.842027 
L 383.448462 752.579288 
L 384.763023 753.666672 
L 386.285145 755.229193 
L 388.01483 757.340625 
L 390.021265 760.155601 
L 392.442823 763.957327 
L 395.487068 769.178196 
L 399.845874 777.14151 
L 412.299605 800.117665 
L 417.073535 808.342201 
L 421.501528 815.534723 
L 425.721958 821.975832 
L 429.873202 827.914369 
L 434.024445 833.46793 
L 438.175689 838.651825 
L 442.326932 843.485147 
L 446.547363 848.061345 
L 450.836981 852.38695 
L 455.195787 856.470359 
L 459.692968 860.379096 
L 464.328523 864.110728 
L 469.033265 867.615393 
L 473.94557 870.997329 
L 478.99625 874.205738 
L 484.254491 877.283419 
L 489.789483 880.261593 
L 495.532036 883.096202 
L 498.161157 884.314511 
L 498.161157 884.314511 
" style="fill:none;stroke:#ff0000;stroke-linecap:square;stroke-width:5;"/>
   </g>
   <g id="patch_13">
    <path d="M 135 945 
L 135 574.363636 
" style="fill:none;stroke:#000000;stroke-linecap:square;stroke-linejoin:miter;stroke-width:0.8;"/>
   </g>
   <g id="patch_14">
    <path d="M 515.454545 945 
L 515.454545 574.363636 
" style="fill:none;stroke:#000000;stroke-linecap:square;stroke-linejoin:miter;stroke-width:0.8;"/>
   </g>
   <g id="patch_15">
    <path d="M 135 945 
L 515.454545 945 
" style="fill:none;stroke:#000000;stroke-linecap:square;stroke-linejoin:miter;stroke-width:0.8;"/>
   </g>
   <g id="patch_16">
    <path d="M 135 574.363636 
L 515.454545 574.363636 
" style="fill:none;stroke:#000000;stroke-linecap:square;stroke-linejoin:miter;stroke-width:0.8;"/>
   </g>
  </g>
  <g id="axes_4">
   <g id="patch_17">
    <path d="M 591.545455 945 
L 972 945 
L 972 574.363636 
L 591.545455 574.363636 
z
" style="fill:#ffffff;"/>
   </g>
   <g id="matplotlib.axis_7">
    <g id="xtick_10">
     <g id="line2d_34">
      <g>
       <use style="stroke:#000000;stroke-width:0.8;" x="595.868802" xlink:href="#ma598647037" y="945"/>
      </g>
     </g>
     <g id="text_16">
      <!-- −2 -->
      <g transform="translate(573.75552 974.795312)scale(0.3 -0.3)">
       <use xlink:href="#DejaVuSans-8722"/>
       <use x="83.789062" xlink:href="#DejaVuSans-50"/>
      </g>
     </g>
    </g>
    <g id="xtick_11">
     <g id="line2d_35">
      <g>
       <use style="stroke:#000000;stroke-width:0.8;" x="781.772727" xlink:href="#ma598647037" y="945"/>
      </g>
     </g>
     <g id="text_17">
      <!-- 0 -->
      <g transform="translate(772.228977 974.795312)scale(0.3 -0.3)">
       <use xlink:href="#DejaVuSans-48"/>
      </g>
     </g>
    </g>
    <g id="xtick_12">
     <g id="line2d_36">
      <g>
       <use style="stroke:#000000;stroke-width:0.8;" x="967.676653" xlink:href="#ma598647037" y="945"/>
      </g>
     </g>
     <g id="text_18">
      <!-- 2 -->
      <g transform="translate(958.132903 974.795312)scale(0.3 -0.3)">
       <use xlink:href="#DejaVuSans-50"/>
      </g>
     </g>
    </g>
   </g>
   <g id="matplotlib.axis_8">
    <g id="ytick_19">
     <g id="line2d_37">
      <g>
       <use style="stroke:#000000;stroke-width:0.8;" x="591.545455" xlink:href="#m36e99b4080" y="928.153166"/>
      </g>
     </g>
    </g>
    <g id="ytick_20">
     <g id="line2d_38">
      <g>
       <use style="stroke:#000000;stroke-width:0.8;" x="591.545455" xlink:href="#m36e99b4080" y="860.76473"/>
      </g>
     </g>
    </g>
    <g id="ytick_21">
     <g id="line2d_39">
      <g>
       <use style="stroke:#000000;stroke-width:0.8;" x="591.545455" xlink:href="#m36e99b4080" y="793.376293"/>
      </g>
     </g>
    </g>
    <g id="ytick_22">
     <g id="line2d_40">
      <g>
       <use style="stroke:#000000;stroke-width:0.8;" x="591.545455" xlink:href="#m36e99b4080" y="725.987857"/>
      </g>
     </g>
    </g>
    <g id="ytick_23">
     <g id="line2d_41">
      <g>
       <use style="stroke:#000000;stroke-width:0.8;" x="591.545455" xlink:href="#m36e99b4080" y="658.599421"/>
      </g>
     </g>
    </g>
    <g id="ytick_24">
     <g id="line2d_42">
      <g>
       <use style="stroke:#000000;stroke-width:0.8;" x="591.545455" xlink:href="#m36e99b4080" y="591.210985"/>
      </g>
     </g>
    </g>
   </g>
   <g id="line2d_43">
    <path clip-path="url(#p4c96ffec58)" d="M 608.838843 633.585955 
L 614.996521 636.315294 
L 620.808262 639.122778 
L 626.41244 642.065809 
L 631.947432 645.223607 
L 637.205673 648.477787 
L 642.256353 651.859336 
L 647.168658 655.410687 
L 652.011775 659.187362 
L 656.785705 663.199899 
L 661.352073 667.327812 
L 665.918441 671.759188 
L 670.415621 676.438628 
L 674.912802 681.447768 
L 679.409982 686.800333 
L 683.907162 692.505359 
L 688.47353 698.659904 
L 693.24746 705.471638 
L 698.436515 713.272958 
L 704.66338 723.054847 
L 716.701986 742.066616 
L 720.29973 747.265761 
L 723.136413 750.990807 
L 725.488785 753.733135 
L 727.564406 755.821259 
L 729.363278 757.327839 
L 730.954588 758.387156 
L 732.407524 759.099899 
L 733.722084 759.511485 
L 734.967457 759.676788 
L 736.143643 759.614852 
L 737.319828 759.324213 
L 738.426827 758.826838 
L 739.603012 758.044223 
L 740.779198 756.983174 
L 741.955384 755.626868 
L 743.200757 753.85078 
L 744.515317 751.576273 
L 745.899065 748.716592 
L 747.352 745.177353 
L 748.874123 740.858408 
L 750.465433 735.656688 
L 752.195118 729.196348 
L 753.99399 721.592327 
L 755.931237 712.42816 
L 758.076046 701.191657 
L 760.566792 686.920004 
L 763.956974 666.064525 
L 769.491965 631.936795 
L 771.705962 619.713845 
L 773.504834 610.951406 
L 775.026957 604.575956 
L 776.341517 599.959376 
L 777.517703 596.600119 
L 778.555514 594.282694 
L 779.45495 592.787034 
L 780.216011 591.903788 
L 780.907885 591.410353 
L 781.530571 591.220343 
L 782.153258 591.272153 
L 782.775944 591.565429 
L 783.467818 592.172963 
L 784.22888 593.180149 
L 785.059128 594.675752 
L 786.027752 596.929699 
L 787.065563 599.927696 
L 788.241748 604.011674 
L 789.625496 609.672034 
L 791.216806 617.187487 
L 793.084866 627.141208 
L 795.506424 641.360202 
L 799.934417 669.041494 
L 803.670537 691.745996 
L 806.23047 705.981971 
L 808.444467 717.085873 
L 810.450901 726.046422 
L 812.31896 733.391158 
L 814.048645 739.318448 
L 815.709143 744.224229 
L 817.231265 748.062368 
L 818.6842 751.158865 
L 820.067948 753.61504 
L 821.382509 755.524551 
L 822.627882 756.972918 
L 823.873255 758.090141 
L 825.04944 758.859122 
L 826.225626 759.367653 
L 827.401812 759.632425 
L 828.577997 759.670431 
L 829.82337 759.481609 
L 831.137931 759.047415 
L 832.521679 758.352745 
L 834.043801 757.335298 
L 835.704299 755.956816 
L 837.572358 754.115083 
L 839.717167 751.67968 
L 842.207913 748.502536 
L 845.182971 744.333125 
L 848.988278 738.595544 
L 855.007581 729.055314 
L 864.901378 713.394617 
L 870.436369 705.081204 
L 875.279486 698.194717 
L 879.984229 691.886771 
L 884.550597 686.134712 
L 889.047777 680.824205 
L 893.544958 675.855737 
L 898.111326 671.146128 
L 902.677693 666.756561 
L 907.382436 662.548502 
L 912.017991 658.693572 
L 916.861109 654.952649 
L 921.842601 651.387095 
L 926.962468 647.99667 
L 932.220709 644.779441 
L 937.548139 641.769377 
L 943.221505 638.815242 
L 949.309995 635.905897 
L 954.706612 633.531318 
L 954.706612 633.531318 
" style="fill:none;stroke:#0000ff;stroke-linecap:square;stroke-width:5;"/>
   </g>
   <g id="line2d_44">
    <path clip-path="url(#p4c96ffec58)" d="M 608.838843 885.77819 
L 615.065708 883.016793 
L 621.015824 880.136629 
L 626.68919 877.146529 
L 632.154994 874.01694 
L 637.413236 870.752485 
L 642.533102 867.311819 
L 647.514595 863.693021 
L 652.288525 859.952171 
L 656.993267 855.982875 
L 661.559635 851.841568 
L 666.126003 847.395929 
L 670.623183 842.701602 
L 675.051176 837.756827 
L 679.479169 832.478634 
L 683.97635 826.768148 
L 688.542718 820.608125 
L 693.385835 813.689448 
L 698.574889 805.878053 
L 704.940129 795.867329 
L 716.563611 777.505229 
L 720.161355 772.289573 
L 722.998038 768.545215 
L 725.419597 765.706225 
L 727.495219 763.606573 
L 729.294091 762.088255 
L 730.885401 761.017011 
L 732.338336 760.292085 
L 733.652897 759.868243 
L 734.89827 759.690224 
L 736.074455 759.739236 
L 737.250641 760.015894 
L 738.357639 760.499348 
L 739.533825 761.266132 
L 740.710011 762.31029 
L 741.886196 763.648714 
L 743.131569 765.40496 
L 744.44613 767.657317 
L 745.829878 770.49258 
L 747.282813 774.005137 
L 748.804935 778.29528 
L 750.396245 783.466279 
L 752.056743 789.619733 
L 753.855615 797.155019 
L 755.792862 806.248879 
L 757.937671 817.41537 
L 760.428417 831.621981 
L 763.749412 851.995195 
L 769.63034 888.228167 
L 771.844337 900.365386 
L 773.643209 909.033932 
L 775.165331 915.314244 
L 776.479892 919.838456 
L 777.656077 923.108289 
L 778.693888 925.342444 
L 779.593324 926.763528 
L 780.354386 927.582229 
L 781.04626 928.016426 
L 781.668946 928.152677 
L 782.291633 928.04716 
L 782.914319 927.700329 
L 783.606193 927.033786 
L 784.367254 925.962902 
L 785.197503 924.39909 
L 786.166127 922.068476 
L 787.273125 918.766826 
L 788.518498 914.290926 
L 789.902246 908.457401 
L 791.562743 900.416848 
L 793.49999 889.874531 
L 796.059924 874.611254 
L 805.123472 819.370347 
L 807.475843 806.985472 
L 809.551465 797.199297 
L 811.488712 789.116344 
L 813.287584 782.54994 
L 814.948081 777.293701 
L 816.539391 772.96927 
L 818.061514 769.465688 
L 819.514449 766.675062 
L 820.898197 764.496208 
L 822.212757 762.835946 
L 823.45813 761.610559 
L 824.634316 760.745514 
L 825.810502 760.147063 
L 826.986687 759.798194 
L 828.162873 759.681981 
L 829.408246 759.794285 
L 830.653619 760.129811 
L 832.037367 760.741828 
L 833.490302 761.629774 
L 835.1508 762.918701 
L 836.949672 764.603543 
L 839.025293 766.864997 
L 841.377665 769.766009 
L 844.214348 773.636092 
L 847.742905 778.852942 
L 852.724397 786.655364 
L 866.561875 808.508367 
L 871.820117 816.289651 
L 876.663234 823.064501 
L 881.29879 829.170675 
L 885.865157 834.817737 
L 890.362338 840.026995 
L 894.859518 844.898005 
L 899.356699 849.446041 
L 903.923066 853.751621 
L 908.558622 857.820307 
L 913.332552 861.713987 
L 918.175669 865.379237 
L 923.157161 868.87307 
L 928.277028 872.195983 
L 933.604457 875.389785 
L 939.139449 878.4484 
L 944.882002 881.367972 
L 950.901305 884.177505 
L 954.706612 885.832767 
L 954.706612 885.832767 
" style="fill:none;stroke:#ff0000;stroke-linecap:square;stroke-width:5;"/>
   </g>
   <g id="patch_18">
    <path d="M 591.545455 945 
L 591.545455 574.363636 
" style="fill:none;stroke:#000000;stroke-linecap:square;stroke-linejoin:miter;stroke-width:0.8;"/>
   </g>
   <g id="patch_19">
    <path d="M 972 945 
L 972 574.363636 
" style="fill:none;stroke:#000000;stroke-linecap:square;stroke-linejoin:miter;stroke-width:0.8;"/>
   </g>
   <g id="patch_20">
    <path d="M 591.545455 945 
L 972 945 
" style="fill:none;stroke:#000000;stroke-linecap:square;stroke-linejoin:miter;stroke-width:0.8;"/>
   </g>
   <g id="patch_21">
    <path d="M 591.545455 574.363636 
L 972 574.363636 
" style="fill:none;stroke:#000000;stroke-linecap:square;stroke-linejoin:miter;stroke-width:0.8;"/>
   </g>
   <g id="legend_1">
    <g id="patch_22">
     <path d="M 689.736009 930 
L 873.809446 930 
Q 879.809446 930 879.809446 924 
L 879.809446 838.93125 
Q 879.809446 832.93125 873.809446 832.93125 
L 689.736009 832.93125 
Q 683.736009 832.93125 683.736009 838.93125 
L 683.736009 924 
Q 683.736009 930 689.736009 930 
z
" style="fill:#ffffff;opacity:0.8;stroke:#cccccc;stroke-linejoin:miter;"/>
    </g>
    <g id="line2d_45">
     <path d="M 695.736009 857.226562 
L 755.736009 857.226562 
" style="fill:none;stroke:#0000ff;stroke-linecap:square;stroke-width:5;"/>
    </g>
    <g id="line2d_46"/>
    <g id="text_19">
     <!-- Port 1 -->
     <g transform="translate(779.736009 867.726562)scale(0.3 -0.3)">
      <defs>
       <path d="M 19.671875 64.796875 
L 19.671875 37.40625 
L 32.078125 37.40625 
Q 38.96875 37.40625 42.71875 40.96875 
Q 46.484375 44.53125 46.484375 51.125 
Q 46.484375 57.671875 42.71875 61.234375 
Q 38.96875 64.796875 32.078125 64.796875 
z
M 9.8125 72.90625 
L 32.078125 72.90625 
Q 44.34375 72.90625 50.609375 67.359375 
Q 56.890625 61.8125 56.890625 51.125 
Q 56.890625 40.328125 50.609375 34.8125 
Q 44.34375 29.296875 32.078125 29.296875 
L 19.671875 29.296875 
L 19.671875 0 
L 9.8125 0 
z
" id="DejaVuSans-80"/>
       <path d="M 30.609375 48.390625 
Q 23.390625 48.390625 19.1875 42.75 
Q 14.984375 37.109375 14.984375 27.296875 
Q 14.984375 17.484375 19.15625 11.84375 
Q 23.34375 6.203125 30.609375 6.203125 
Q 37.796875 6.203125 41.984375 11.859375 
Q 46.1875 17.53125 46.1875 27.296875 
Q 46.1875 37.015625 41.984375 42.703125 
Q 37.796875 48.390625 30.609375 48.390625 
z
M 30.609375 56 
Q 42.328125 56 49.015625 48.375 
Q 55.71875 40.765625 55.71875 27.296875 
Q 55.71875 13.875 49.015625 6.21875 
Q 42.328125 -1.421875 30.609375 -1.421875 
Q 18.84375 -1.421875 12.171875 6.21875 
Q 5.515625 13.875 5.515625 27.296875 
Q 5.515625 40.765625 12.171875 48.375 
Q 18.84375 56 30.609375 56 
z
" id="DejaVuSans-111"/>
       <path d="M 41.109375 46.296875 
Q 39.59375 47.171875 37.8125 47.578125 
Q 36.03125 48 33.890625 48 
Q 26.265625 48 22.1875 43.046875 
Q 18.109375 38.09375 18.109375 28.8125 
L 18.109375 0 
L 9.078125 0 
L 9.078125 54.6875 
L 18.109375 54.6875 
L 18.109375 46.1875 
Q 20.953125 51.171875 25.484375 53.578125 
Q 30.03125 56 36.53125 56 
Q 37.453125 56 38.578125 55.875 
Q 39.703125 55.765625 41.0625 55.515625 
z
" id="DejaVuSans-114"/>
       <path d="M 18.3125 70.21875 
L 18.3125 54.6875 
L 36.8125 54.6875 
L 36.8125 47.703125 
L 18.3125 47.703125 
L 18.3125 18.015625 
Q 18.3125 11.328125 20.140625 9.421875 
Q 21.96875 7.515625 27.59375 7.515625 
L 36.8125 7.515625 
L 36.8125 0 
L 27.59375 0 
Q 17.1875 0 13.234375 3.875 
Q 9.28125 7.765625 9.28125 18.015625 
L 9.28125 47.703125 
L 2.6875 47.703125 
L 2.6875 54.6875 
L 9.28125 54.6875 
L 9.28125 70.21875 
z
" id="DejaVuSans-116"/>
       <path id="DejaVuSans-32"/>
      </defs>
      <use xlink:href="#DejaVuSans-80"/>
      <use x="56.677734" xlink:href="#DejaVuSans-111"/>
      <use x="117.859375" xlink:href="#DejaVuSans-114"/>
      <use x="158.972656" xlink:href="#DejaVuSans-116"/>
      <use x="198.181641" xlink:href="#DejaVuSans-32"/>
      <use x="229.96875" xlink:href="#DejaVuSans-49"/>
     </g>
    </g>
    <g id="line2d_47">
     <path d="M 695.736009 901.260937 
L 755.736009 901.260937 
" style="fill:none;stroke:#ff0000;stroke-linecap:square;stroke-width:5;"/>
    </g>
    <g id="line2d_48"/>
    <g id="text_20">
     <!-- Port 2 -->
     <g transform="translate(779.736009 911.760937)scale(0.3 -0.3)">
      <use xlink:href="#DejaVuSans-80"/>
      <use x="56.677734" xlink:href="#DejaVuSans-111"/>
      <use x="117.859375" xlink:href="#DejaVuSans-114"/>
      <use x="158.972656" xlink:href="#DejaVuSans-116"/>
      <use x="198.181641" xlink:href="#DejaVuSans-32"/>
      <use x="229.96875" xlink:href="#DejaVuSans-50"/>
     </g>
    </g>
   </g>
  </g>
  <g id="axes_5">
   <g id="matplotlib.axis_9">
    <g id="xtick_13">
     <g id="text_21">
      <!-- 0.0 -->
      <g style="opacity:0;" transform="translate(111.145313 974.795313)scale(0.3 -0.3)">
       <use xlink:href="#DejaVuSans-48"/>
       <use x="63.623047" xlink:href="#DejaVuSans-46"/>
       <use x="95.410156" xlink:href="#DejaVuSans-48"/>
      </g>
     </g>
    </g>
    <g id="xtick_14">
     <g id="text_22">
      <!-- 0.2 -->
      <g style="opacity:0;" transform="translate(278.545312 974.795313)scale(0.3 -0.3)">
       <use xlink:href="#DejaVuSans-48"/>
       <use x="63.623047" xlink:href="#DejaVuSans-46"/>
       <use x="95.410156" xlink:href="#DejaVuSans-50"/>
      </g>
     </g>
    </g>
    <g id="xtick_15">
     <g id="text_23">
      <!-- 0.4 -->
      <g style="opacity:0;" transform="translate(445.945312 974.795313)scale(0.3 -0.3)">
       <use xlink:href="#DejaVuSans-48"/>
       <use x="63.623047" xlink:href="#DejaVuSans-46"/>
       <use x="95.410156" xlink:href="#DejaVuSans-52"/>
      </g>
     </g>
    </g>
    <g id="xtick_16">
     <g id="text_24">
      <!-- 0.6 -->
      <g style="opacity:0;" transform="translate(613.345313 974.795313)scale(0.3 -0.3)">
       <use xlink:href="#DejaVuSans-48"/>
       <use x="63.623047" xlink:href="#DejaVuSans-46"/>
       <use x="95.410156" xlink:href="#DejaVuSans-54"/>
      </g>
     </g>
    </g>
    <g id="xtick_17">
     <g id="text_25">
      <!-- 0.8 -->
      <g style="opacity:0;" transform="translate(780.745313 974.795313)scale(0.3 -0.3)">
       <use xlink:href="#DejaVuSans-48"/>
       <use x="63.623047" xlink:href="#DejaVuSans-46"/>
       <use x="95.410156" xlink:href="#DejaVuSans-56"/>
      </g>
     </g>
    </g>
    <g id="xtick_18">
     <g id="text_26">
      <!-- 1.0 -->
      <g style="opacity:0;" transform="translate(948.145313 974.795313)scale(0.3 -0.3)">
       <use xlink:href="#DejaVuSans-49"/>
       <use x="63.623047" xlink:href="#DejaVuSans-46"/>
       <use x="95.410156" xlink:href="#DejaVuSans-48"/>
      </g>
     </g>
    </g>
    <g id="text_27">
     <!-- $(\omega-\omega_{c})/\kappa$ -->
     <g transform="translate(477.9 1007.829687)scale(0.3 -0.3)">
      <defs>
       <path d="M 31 75.875 
Q 24.46875 64.65625 21.28125 53.65625 
Q 18.109375 42.671875 18.109375 31.390625 
Q 18.109375 20.125 21.3125 9.0625 
Q 24.515625 -2 31 -13.1875 
L 23.1875 -13.1875 
Q 15.875 -1.703125 12.234375 9.375 
Q 8.59375 20.453125 8.59375 31.390625 
Q 8.59375 42.28125 12.203125 53.3125 
Q 15.828125 64.359375 23.1875 75.875 
z
" id="DejaVuSans-40"/>
       <path d="M 26.859375 -1.421875 
Q 6.59375 -1.421875 6.59375 27.59375 
Q 6.59375 39.0625 14.15625 54.6875 
L 23.828125 54.6875 
Q 16.84375 39.0625 16.84375 27.34375 
Q 16.84375 6.203125 27.6875 6.203125 
Q 37.59375 6.203125 37.59375 32.46875 
L 45.90625 32.46875 
Q 45.90625 6.203125 55.8125 6.203125 
Q 66.65625 6.203125 66.65625 27.34375 
Q 66.65625 39.0625 59.671875 54.6875 
L 69.34375 54.6875 
Q 76.90625 39.0625 76.90625 27.59375 
Q 76.90625 -1.421875 56.640625 -1.421875 
Q 43.359375 -1.421875 41.75 13.1875 
Q 39.75 -1.421875 26.859375 -1.421875 
z
" id="DejaVuSans-969"/>
       <path d="M 48.78125 52.59375 
L 48.78125 44.1875 
Q 44.96875 46.296875 41.140625 47.34375 
Q 37.3125 48.390625 33.40625 48.390625 
Q 24.65625 48.390625 19.8125 42.84375 
Q 14.984375 37.3125 14.984375 27.296875 
Q 14.984375 17.28125 19.8125 11.734375 
Q 24.65625 6.203125 33.40625 6.203125 
Q 37.3125 6.203125 41.140625 7.25 
Q 44.96875 8.296875 48.78125 10.40625 
L 48.78125 2.09375 
Q 45.015625 0.34375 40.984375 -0.53125 
Q 36.96875 -1.421875 32.421875 -1.421875 
Q 20.0625 -1.421875 12.78125 6.34375 
Q 5.515625 14.109375 5.515625 27.296875 
Q 5.515625 40.671875 12.859375 48.328125 
Q 20.21875 56 33.015625 56 
Q 37.15625 56 41.109375 55.140625 
Q 45.0625 54.296875 48.78125 52.59375 
z
" id="DejaVuSans-99"/>
       <path d="M 8.015625 75.875 
L 15.828125 75.875 
Q 23.140625 64.359375 26.78125 53.3125 
Q 30.421875 42.28125 30.421875 31.390625 
Q 30.421875 20.453125 26.78125 9.375 
Q 23.140625 -1.703125 15.828125 -13.1875 
L 8.015625 -13.1875 
Q 14.5 -2 17.703125 9.0625 
Q 20.90625 20.125 20.90625 31.390625 
Q 20.90625 42.671875 17.703125 53.65625 
Q 14.5 64.65625 8.015625 75.875 
z
" id="DejaVuSans-41"/>
       <path d="M 25.390625 72.90625 
L 33.6875 72.90625 
L 8.296875 -9.28125 
L 0 -9.28125 
z
" id="DejaVuSans-47"/>
       <path d="M 9.328125 54.6875 
L 18.609375 54.6875 
L 18.609375 31.984375 
L 42.1875 54.6875 
L 53.125 54.6875 
L 31.59375 34.078125 
L 56.5 0 
L 45.515625 0 
L 25.296875 28.21875 
L 18.609375 21.921875 
L 18.609375 0 
L 9.328125 0 
z
" id="DejaVuSans-954"/>
      </defs>
      <use transform="translate(0 0.125)" xlink:href="#DejaVuSans-40"/>
      <use transform="translate(39.013672 0.125)" xlink:href="#DejaVuSans-969"/>
      <use transform="translate(142.236328 0.125)" xlink:href="#DejaVuSans-8722"/>
      <use transform="translate(245.507812 0.125)" xlink:href="#DejaVuSans-969"/>
      <use transform="translate(330.205078 -16.28125)scale(0.7)" xlink:href="#DejaVuSans-99"/>
      <use transform="translate(371.425781 0.125)" xlink:href="#DejaVuSans-41"/>
      <use transform="translate(410.439453 0.125)" xlink:href="#DejaVuSans-47"/>
      <use transform="translate(444.130859 0.125)" xlink:href="#DejaVuSans-954"/>
     </g>
    </g>
   </g>
   <g id="matplotlib.axis_10">
    <g id="ytick_25">
     <g id="text_28">
      <!-- 0.0 -->
      <g style="opacity:0;" transform="translate(80.290625 956.397656)scale(0.3 -0.3)">
       <use xlink:href="#DejaVuSans-48"/>
       <use x="63.623047" xlink:href="#DejaVuSans-46"/>
       <use x="95.410156" xlink:href="#DejaVuSans-48"/>
      </g>
     </g>
    </g>
    <g id="ytick_26">
     <g id="text_29">
      <!-- 0.2 -->
      <g style="opacity:0;" transform="translate(80.290625 793.317656)scale(0.3 -0.3)">
       <use xlink:href="#DejaVuSans-48"/>
       <use x="63.623047" xlink:href="#DejaVuSans-46"/>
       <use x="95.410156" xlink:href="#DejaVuSans-50"/>
      </g>
     </g>
    </g>
    <g id="ytick_27">
     <g id="text_30">
      <!-- 0.4 -->
      <g style="opacity:0;" transform="translate(80.290625 630.237656)scale(0.3 -0.3)">
       <use xlink:href="#DejaVuSans-48"/>
       <use x="63.623047" xlink:href="#DejaVuSans-46"/>
       <use x="95.410156" xlink:href="#DejaVuSans-52"/>
      </g>
     </g>
    </g>
    <g id="ytick_28">
     <g id="text_31">
      <!-- 0.6 -->
      <g style="opacity:0;" transform="translate(80.290625 467.157656)scale(0.3 -0.3)">
       <use xlink:href="#DejaVuSans-48"/>
       <use x="63.623047" xlink:href="#DejaVuSans-46"/>
       <use x="95.410156" xlink:href="#DejaVuSans-54"/>
      </g>
     </g>
    </g>
    <g id="ytick_29">
     <g id="text_32">
      <!-- 0.8 -->
      <g style="opacity:0;" transform="translate(80.290625 304.077656)scale(0.3 -0.3)">
       <use xlink:href="#DejaVuSans-48"/>
       <use x="63.623047" xlink:href="#DejaVuSans-46"/>
       <use x="95.410156" xlink:href="#DejaVuSans-56"/>
      </g>
     </g>
    </g>
    <g id="ytick_30">
     <g id="text_33">
      <!-- 1.0 -->
      <g style="opacity:0;" transform="translate(80.290625 140.997656)scale(0.3 -0.3)">
       <use xlink:href="#DejaVuSans-49"/>
       <use x="63.623047" xlink:href="#DejaVuSans-46"/>
       <use x="95.410156" xlink:href="#DejaVuSans-48"/>
      </g>
     </g>
    </g>
   </g>
  </g>
 </g>
 <defs>
  <clipPath id="p591e42693d">
   <rect height="370.636364" width="380.454545" x="135" y="129.6"/>
  </clipPath>
  <clipPath id="p6a9e58e669">
   <rect height="370.636364" width="380.454545" x="591.545455" y="129.6"/>
  </clipPath>
  <clipPath id="p66024c8c38">
   <rect height="370.636364" width="380.454545" x="135" y="574.363636"/>
  </clipPath>
  <clipPath id="p4c96ffec58">
   <rect height="370.636364" width="380.454545" x="591.545455" y="574.363636"/>
  </clipPath>
 </defs>
</svg>
