<?xml version="1.0" encoding="utf-8" standalone="no"?>
<!DOCTYPE svg PUBLIC "-//W3C//DTD SVG 1.1//EN"
  "http://www.w3.org/Graphics/SVG/1.1/DTD/svg11.dtd">
<!-- Created with matplotlib (https://matplotlib.org/) -->
<svg height="1080pt" version="1.1" viewBox="0 0 540 1080" width="540pt" xmlns="http://www.w3.org/2000/svg" xmlns:xlink="http://www.w3.org/1999/xlink">
 <metadata>
  <rdf:RDF xmlns:cc="http://creativecommons.org/ns#" xmlns:dc="http://purl.org/dc/elements/1.1/" xmlns:rdf="http://www.w3.org/1999/02/22-rdf-syntax-ns#">
   <cc:Work>
    <dc:type rdf:resource="http://purl.org/dc/dcmitype/StillImage"/>
    <dc:date>2021-04-21T12:50:05.368512</dc:date>
    <dc:format>image/svg+xml</dc:format>
    <dc:creator>
     <cc:Agent>
      <dc:title>Matplotlib v3.3.2, https://matplotlib.org/</dc:title>
     </cc:Agent>
    </dc:creator>
   </cc:Work>
  </rdf:RDF>
 </metadata>
 <defs>
  <style type="text/css">*{stroke-linecap:butt;stroke-linejoin:round;}</style>
 </defs>
 <g id="figure_1">
  <g id="patch_1">
   <path d="M 0 1080 
L 540 1080 
L 540 0 
L 0 0 
z
" style="fill:none;"/>
  </g>
  <g id="axes_1">
   <g id="patch_2">
    <path d="M 67.5 369.423529 
L 486 369.423529 
L 486 129.6 
L 67.5 129.6 
z
" style="fill:#ffffff;"/>
   </g>
   <g id="matplotlib.axis_1">
    <g id="xtick_1">
     <g id="line2d_1">
      <defs>
       <path d="M 0 0 
L 0 3.5 
" id="mbd33339bf2" style="stroke:#000000;stroke-width:0.8;"/>
      </defs>
      <g>
       <use style="stroke:#000000;stroke-width:0.8;" x="140.873377" xlink:href="#mbd33339bf2" y="369.423529"/>
      </g>
     </g>
    </g>
    <g id="xtick_2">
     <g id="line2d_2">
      <g>
       <use style="stroke:#000000;stroke-width:0.8;" x="276.75" xlink:href="#mbd33339bf2" y="369.423529"/>
      </g>
     </g>
    </g>
    <g id="xtick_3">
     <g id="line2d_3">
      <g>
       <use style="stroke:#000000;stroke-width:0.8;" x="412.626623" xlink:href="#mbd33339bf2" y="369.423529"/>
      </g>
     </g>
    </g>
   </g>
   <g id="matplotlib.axis_2">
    <g id="ytick_1">
     <g id="line2d_4">
      <defs>
       <path d="M 0 0 
L -3.5 0 
" id="m7ac0ca460a" style="stroke:#000000;stroke-width:0.8;"/>
      </defs>
      <g>
       <use style="stroke:#000000;stroke-width:0.8;" x="67.5" xlink:href="#m7ac0ca460a" y="255.98588"/>
      </g>
     </g>
     <g id="text_1">
      <!-- 0.5 -->
      <g transform="translate(12.790625 267.383536)scale(0.3 -0.3)">
       <defs>
        <path d="M 31.78125 66.40625 
Q 24.171875 66.40625 20.328125 58.90625 
Q 16.5 51.421875 16.5 36.375 
Q 16.5 21.390625 20.328125 13.890625 
Q 24.171875 6.390625 31.78125 6.390625 
Q 39.453125 6.390625 43.28125 13.890625 
Q 47.125 21.390625 47.125 36.375 
Q 47.125 51.421875 43.28125 58.90625 
Q 39.453125 66.40625 31.78125 66.40625 
z
M 31.78125 74.21875 
Q 44.046875 74.21875 50.515625 64.515625 
Q 56.984375 54.828125 56.984375 36.375 
Q 56.984375 17.96875 50.515625 8.265625 
Q 44.046875 -1.421875 31.78125 -1.421875 
Q 19.53125 -1.421875 13.0625 8.265625 
Q 6.59375 17.96875 6.59375 36.375 
Q 6.59375 54.828125 13.0625 64.515625 
Q 19.53125 74.21875 31.78125 74.21875 
z
" id="DejaVuSans-48"/>
        <path d="M 10.6875 12.40625 
L 21 12.40625 
L 21 0 
L 10.6875 0 
z
" id="DejaVuSans-46"/>
        <path d="M 10.796875 72.90625 
L 49.515625 72.90625 
L 49.515625 64.59375 
L 19.828125 64.59375 
L 19.828125 46.734375 
Q 21.96875 47.46875 24.109375 47.828125 
Q 26.265625 48.1875 28.421875 48.1875 
Q 40.625 48.1875 47.75 41.5 
Q 54.890625 34.8125 54.890625 23.390625 
Q 54.890625 11.625 47.5625 5.09375 
Q 40.234375 -1.421875 26.90625 -1.421875 
Q 22.3125 -1.421875 17.546875 -0.640625 
Q 12.796875 0.140625 7.71875 1.703125 
L 7.71875 11.625 
Q 12.109375 9.234375 16.796875 8.0625 
Q 21.484375 6.890625 26.703125 6.890625 
Q 35.15625 6.890625 40.078125 11.328125 
Q 45.015625 15.765625 45.015625 23.390625 
Q 45.015625 31 40.078125 35.4375 
Q 35.15625 39.890625 26.703125 39.890625 
Q 22.75 39.890625 18.8125 39.015625 
Q 14.890625 38.140625 10.796875 36.28125 
z
" id="DejaVuSans-53"/>
       </defs>
       <use xlink:href="#DejaVuSans-48"/>
       <use x="63.623047" xlink:href="#DejaVuSans-46"/>
       <use x="95.410156" xlink:href="#DejaVuSans-53"/>
      </g>
     </g>
    </g>
    <g id="ytick_2">
     <g id="line2d_5">
      <g>
       <use style="stroke:#000000;stroke-width:0.8;" x="67.5" xlink:href="#m7ac0ca460a" y="140.487012"/>
      </g>
     </g>
     <g id="text_2">
      <!-- 1.0 -->
      <g transform="translate(12.790625 151.884668)scale(0.3 -0.3)">
       <defs>
        <path d="M 12.40625 8.296875 
L 28.515625 8.296875 
L 28.515625 63.921875 
L 10.984375 60.40625 
L 10.984375 69.390625 
L 28.421875 72.90625 
L 38.28125 72.90625 
L 38.28125 8.296875 
L 54.390625 8.296875 
L 54.390625 0 
L 12.40625 0 
z
" id="DejaVuSans-49"/>
       </defs>
       <use xlink:href="#DejaVuSans-49"/>
       <use x="63.623047" xlink:href="#DejaVuSans-46"/>
       <use x="95.410156" xlink:href="#DejaVuSans-48"/>
      </g>
     </g>
    </g>
    <g id="text_3">
     <!-- Transmission -->
     <g transform="translate(2.551562 346.397702)rotate(-90)scale(0.3 -0.3)">
      <defs>
       <path d="M -0.296875 72.90625 
L 61.375 72.90625 
L 61.375 64.59375 
L 35.5 64.59375 
L 35.5 0 
L 25.59375 0 
L 25.59375 64.59375 
L -0.296875 64.59375 
z
" id="DejaVuSans-84"/>
       <path d="M 41.109375 46.296875 
Q 39.59375 47.171875 37.8125 47.578125 
Q 36.03125 48 33.890625 48 
Q 26.265625 48 22.1875 43.046875 
Q 18.109375 38.09375 18.109375 28.8125 
L 18.109375 0 
L 9.078125 0 
L 9.078125 54.6875 
L 18.109375 54.6875 
L 18.109375 46.1875 
Q 20.953125 51.171875 25.484375 53.578125 
Q 30.03125 56 36.53125 56 
Q 37.453125 56 38.578125 55.875 
Q 39.703125 55.765625 41.0625 55.515625 
z
" id="DejaVuSans-114"/>
       <path d="M 34.28125 27.484375 
Q 23.390625 27.484375 19.1875 25 
Q 14.984375 22.515625 14.984375 16.5 
Q 14.984375 11.71875 18.140625 8.90625 
Q 21.296875 6.109375 26.703125 6.109375 
Q 34.1875 6.109375 38.703125 11.40625 
Q 43.21875 16.703125 43.21875 25.484375 
L 43.21875 27.484375 
z
M 52.203125 31.203125 
L 52.203125 0 
L 43.21875 0 
L 43.21875 8.296875 
Q 40.140625 3.328125 35.546875 0.953125 
Q 30.953125 -1.421875 24.3125 -1.421875 
Q 15.921875 -1.421875 10.953125 3.296875 
Q 6 8.015625 6 15.921875 
Q 6 25.140625 12.171875 29.828125 
Q 18.359375 34.515625 30.609375 34.515625 
L 43.21875 34.515625 
L 43.21875 35.40625 
Q 43.21875 41.609375 39.140625 45 
Q 35.0625 48.390625 27.6875 48.390625 
Q 23 48.390625 18.546875 47.265625 
Q 14.109375 46.140625 10.015625 43.890625 
L 10.015625 52.203125 
Q 14.9375 54.109375 19.578125 55.046875 
Q 24.21875 56 28.609375 56 
Q 40.484375 56 46.34375 49.84375 
Q 52.203125 43.703125 52.203125 31.203125 
z
" id="DejaVuSans-97"/>
       <path d="M 54.890625 33.015625 
L 54.890625 0 
L 45.90625 0 
L 45.90625 32.71875 
Q 45.90625 40.484375 42.875 44.328125 
Q 39.84375 48.1875 33.796875 48.1875 
Q 26.515625 48.1875 22.3125 43.546875 
Q 18.109375 38.921875 18.109375 30.90625 
L 18.109375 0 
L 9.078125 0 
L 9.078125 54.6875 
L 18.109375 54.6875 
L 18.109375 46.1875 
Q 21.34375 51.125 25.703125 53.5625 
Q 30.078125 56 35.796875 56 
Q 45.21875 56 50.046875 50.171875 
Q 54.890625 44.34375 54.890625 33.015625 
z
" id="DejaVuSans-110"/>
       <path d="M 44.28125 53.078125 
L 44.28125 44.578125 
Q 40.484375 46.53125 36.375 47.5 
Q 32.28125 48.484375 27.875 48.484375 
Q 21.1875 48.484375 17.84375 46.4375 
Q 14.5 44.390625 14.5 40.28125 
Q 14.5 37.15625 16.890625 35.375 
Q 19.28125 33.59375 26.515625 31.984375 
L 29.59375 31.296875 
Q 39.15625 29.25 43.1875 25.515625 
Q 47.21875 21.78125 47.21875 15.09375 
Q 47.21875 7.46875 41.1875 3.015625 
Q 35.15625 -1.421875 24.609375 -1.421875 
Q 20.21875 -1.421875 15.453125 -0.5625 
Q 10.6875 0.296875 5.421875 2 
L 5.421875 11.28125 
Q 10.40625 8.6875 15.234375 7.390625 
Q 20.0625 6.109375 24.8125 6.109375 
Q 31.15625 6.109375 34.5625 8.28125 
Q 37.984375 10.453125 37.984375 14.40625 
Q 37.984375 18.0625 35.515625 20.015625 
Q 33.0625 21.96875 24.703125 23.78125 
L 21.578125 24.515625 
Q 13.234375 26.265625 9.515625 29.90625 
Q 5.8125 33.546875 5.8125 39.890625 
Q 5.8125 47.609375 11.28125 51.796875 
Q 16.75 56 26.8125 56 
Q 31.78125 56 36.171875 55.265625 
Q 40.578125 54.546875 44.28125 53.078125 
z
" id="DejaVuSans-115"/>
       <path d="M 52 44.1875 
Q 55.375 50.25 60.0625 53.125 
Q 64.75 56 71.09375 56 
Q 79.640625 56 84.28125 50.015625 
Q 88.921875 44.046875 88.921875 33.015625 
L 88.921875 0 
L 79.890625 0 
L 79.890625 32.71875 
Q 79.890625 40.578125 77.09375 44.375 
Q 74.3125 48.1875 68.609375 48.1875 
Q 61.625 48.1875 57.5625 43.546875 
Q 53.515625 38.921875 53.515625 30.90625 
L 53.515625 0 
L 44.484375 0 
L 44.484375 32.71875 
Q 44.484375 40.625 41.703125 44.40625 
Q 38.921875 48.1875 33.109375 48.1875 
Q 26.21875 48.1875 22.15625 43.53125 
Q 18.109375 38.875 18.109375 30.90625 
L 18.109375 0 
L 9.078125 0 
L 9.078125 54.6875 
L 18.109375 54.6875 
L 18.109375 46.1875 
Q 21.1875 51.21875 25.484375 53.609375 
Q 29.78125 56 35.6875 56 
Q 41.65625 56 45.828125 52.96875 
Q 50 49.953125 52 44.1875 
z
" id="DejaVuSans-109"/>
       <path d="M 9.421875 54.6875 
L 18.40625 54.6875 
L 18.40625 0 
L 9.421875 0 
z
M 9.421875 75.984375 
L 18.40625 75.984375 
L 18.40625 64.59375 
L 9.421875 64.59375 
z
" id="DejaVuSans-105"/>
       <path d="M 30.609375 48.390625 
Q 23.390625 48.390625 19.1875 42.75 
Q 14.984375 37.109375 14.984375 27.296875 
Q 14.984375 17.484375 19.15625 11.84375 
Q 23.34375 6.203125 30.609375 6.203125 
Q 37.796875 6.203125 41.984375 11.859375 
Q 46.1875 17.53125 46.1875 27.296875 
Q 46.1875 37.015625 41.984375 42.703125 
Q 37.796875 48.390625 30.609375 48.390625 
z
M 30.609375 56 
Q 42.328125 56 49.015625 48.375 
Q 55.71875 40.765625 55.71875 27.296875 
Q 55.71875 13.875 49.015625 6.21875 
Q 42.328125 -1.421875 30.609375 -1.421875 
Q 18.84375 -1.421875 12.171875 6.21875 
Q 5.515625 13.875 5.515625 27.296875 
Q 5.515625 40.765625 12.171875 48.375 
Q 18.84375 56 30.609375 56 
z
" id="DejaVuSans-111"/>
      </defs>
      <use xlink:href="#DejaVuSans-84"/>
      <use x="46.333984" xlink:href="#DejaVuSans-114"/>
      <use x="87.447266" xlink:href="#DejaVuSans-97"/>
      <use x="148.726562" xlink:href="#DejaVuSans-110"/>
      <use x="212.105469" xlink:href="#DejaVuSans-115"/>
      <use x="264.205078" xlink:href="#DejaVuSans-109"/>
      <use x="361.617188" xlink:href="#DejaVuSans-105"/>
      <use x="389.400391" xlink:href="#DejaVuSans-115"/>
      <use x="441.5" xlink:href="#DejaVuSans-115"/>
      <use x="493.599609" xlink:href="#DejaVuSans-105"/>
      <use x="521.382812" xlink:href="#DejaVuSans-111"/>
      <use x="582.564453" xlink:href="#DejaVuSans-110"/>
     </g>
    </g>
   </g>
   <g id="line2d_6">
    <path clip-path="url(#p65d7ef0d2e)" d="M 86.522727 345.298858 
L 94.706592 343.184524 
L 102.319489 340.99143 
L 109.551742 338.676766 
L 116.403349 336.247297 
L 122.874312 333.713181 
L 128.96463 331.088319 
L 134.674303 328.390663 
L 140.193654 325.539733 
L 145.522682 322.534887 
L 150.661388 319.377317 
L 155.609771 316.070183 
L 160.367832 312.618968 
L 164.93557 309.031748 
L 169.312986 305.319295 
L 173.690402 301.314888 
L 177.877496 297.189125 
L 182.064589 292.752131 
L 186.251683 287.981236 
L 190.248454 283.094892 
L 194.245225 277.864301 
L 198.241996 272.271341 
L 202.238767 266.300043 
L 206.235538 259.937767 
L 210.422632 252.844974 
L 214.609725 245.314382 
L 218.987141 236.985546 
L 223.745202 227.439405 
L 229.07423 216.224766 
L 236.11616 200.833055 
L 246.203249 178.802389 
L 250.580665 169.814425 
L 254.006469 163.26816 
L 257.051628 157.930552 
L 259.716142 153.711803 
L 262.000011 150.482186 
L 264.093558 147.869633 
L 266.187105 145.617871 
L 268.090329 143.904611 
L 269.803231 142.648259 
L 271.516133 141.673089 
L 273.038713 141.048878 
L 274.561292 140.657893 
L 276.083871 140.503548 
L 277.606451 140.5881 
L 279.12903 140.912886 
L 280.65161 141.478099 
L 282.174189 142.283558 
L 283.696769 143.328921 
L 285.409671 144.791773 
L 287.122573 146.561815 
L 288.835475 148.650543 
L 290.548376 151.088841 
L 292.070956 153.613468 
L 293.403213 156.215309 
L 294.545148 158.944742 
L 295.306437 161.25575 
L 295.877405 163.500352 
L 296.448372 166.640488 
L 296.829017 169.762173 
L 297.209662 174.729834 
L 297.590307 184.393833 
L 297.780629 193.749844 
L 297.970951 210.793752 
L 298.351596 299.037937 
L 298.922564 166.013689 
L 299.112886 159.804229 
L 299.303208 158.071776 
L 299.493531 157.835521 
L 299.874176 158.688221 
L 301.967722 165.092863 
L 303.870947 169.876039 
L 307.677396 178.677246 
L 321.570933 210.007541 
L 327.470929 222.776277 
L 332.419312 232.984037 
L 336.98705 241.918716 
L 341.364466 250.003258 
L 345.55156 257.283606 
L 349.738653 264.119561 
L 353.925747 270.518627 
L 357.922518 276.231937 
L 361.919289 281.575534 
L 366.106383 286.796881 
L 370.293476 291.654772 
L 374.48057 296.172222 
L 378.667663 300.372198 
L 383.045079 304.447933 
L 387.422495 308.225751 
L 391.990234 311.875371 
L 396.748295 315.385708 
L 401.506355 318.624395 
L 406.454739 321.730037 
L 411.593444 324.697628 
L 416.922473 327.524195 
L 422.632146 330.297138 
L 428.532141 332.913194 
L 434.812781 335.449287 
L 441.283744 337.823375 
L 448.135352 340.102839 
L 455.367604 342.277986 
L 463.170824 344.391142 
L 466.977273 345.343107 
L 466.977273 345.343107 
" style="fill:none;stroke:#0000ff;stroke-linecap:square;stroke-width:2;"/>
   </g>
   <g id="patch_3">
    <path d="M 67.5 369.423529 
L 67.5 129.6 
" style="fill:none;stroke:#000000;stroke-linecap:square;stroke-linejoin:miter;stroke-width:0.8;"/>
   </g>
   <g id="patch_4">
    <path d="M 486 369.423529 
L 486 129.6 
" style="fill:none;stroke:#000000;stroke-linecap:square;stroke-linejoin:miter;stroke-width:0.8;"/>
   </g>
   <g id="patch_5">
    <path d="M 67.5 369.423529 
L 486 369.423529 
" style="fill:none;stroke:#000000;stroke-linecap:square;stroke-linejoin:miter;stroke-width:0.8;"/>
   </g>
   <g id="patch_6">
    <path d="M 67.5 129.6 
L 486 129.6 
" style="fill:none;stroke:#000000;stroke-linecap:square;stroke-linejoin:miter;stroke-width:0.8;"/>
   </g>
   <g id="legend_1">
    <g id="patch_7">
     <path d="M 167.763281 354.423529 
L 385.736719 354.423529 
Q 391.736719 354.423529 391.736719 348.423529 
L 391.736719 307.389154 
Q 391.736719 301.389154 385.736719 301.389154 
L 167.763281 301.389154 
Q 161.763281 301.389154 161.763281 307.389154 
L 161.763281 348.423529 
Q 161.763281 354.423529 167.763281 354.423529 
z
" style="fill:#ffffff;opacity:0.8;stroke:#cccccc;stroke-linejoin:miter;"/>
    </g>
    <g id="line2d_7">
     <path d="M 173.763281 325.684467 
L 233.763281 325.684467 
" style="fill:none;stroke:#0000ff;stroke-linecap:square;stroke-width:2;"/>
    </g>
    <g id="line2d_8"/>
    <g id="text_4">
     <!-- 1 atoms -->
     <g transform="translate(257.763281 336.184467)scale(0.3 -0.3)">
      <defs>
       <path id="DejaVuSans-32"/>
       <path d="M 18.3125 70.21875 
L 18.3125 54.6875 
L 36.8125 54.6875 
L 36.8125 47.703125 
L 18.3125 47.703125 
L 18.3125 18.015625 
Q 18.3125 11.328125 20.140625 9.421875 
Q 21.96875 7.515625 27.59375 7.515625 
L 36.8125 7.515625 
L 36.8125 0 
L 27.59375 0 
Q 17.1875 0 13.234375 3.875 
Q 9.28125 7.765625 9.28125 18.015625 
L 9.28125 47.703125 
L 2.6875 47.703125 
L 2.6875 54.6875 
L 9.28125 54.6875 
L 9.28125 70.21875 
z
" id="DejaVuSans-116"/>
      </defs>
      <use xlink:href="#DejaVuSans-49"/>
      <use x="63.623047" xlink:href="#DejaVuSans-32"/>
      <use x="95.410156" xlink:href="#DejaVuSans-97"/>
      <use x="156.689453" xlink:href="#DejaVuSans-116"/>
      <use x="195.898438" xlink:href="#DejaVuSans-111"/>
      <use x="257.080078" xlink:href="#DejaVuSans-109"/>
      <use x="354.492188" xlink:href="#DejaVuSans-115"/>
     </g>
    </g>
   </g>
  </g>
  <g id="axes_2">
   <g id="patch_8">
    <path d="M 67.5 657.211765 
L 486 657.211765 
L 486 417.388235 
L 67.5 417.388235 
z
" style="fill:#ffffff;"/>
   </g>
   <g id="matplotlib.axis_3">
    <g id="xtick_4">
     <g id="line2d_9">
      <g>
       <use style="stroke:#000000;stroke-width:0.8;" x="140.873377" xlink:href="#mbd33339bf2" y="657.211765"/>
      </g>
     </g>
    </g>
    <g id="xtick_5">
     <g id="line2d_10">
      <g>
       <use style="stroke:#000000;stroke-width:0.8;" x="276.75" xlink:href="#mbd33339bf2" y="657.211765"/>
      </g>
     </g>
    </g>
    <g id="xtick_6">
     <g id="line2d_11">
      <g>
       <use style="stroke:#000000;stroke-width:0.8;" x="412.626623" xlink:href="#mbd33339bf2" y="657.211765"/>
      </g>
     </g>
    </g>
   </g>
   <g id="matplotlib.axis_4">
    <g id="ytick_3">
     <g id="line2d_12">
      <g>
       <use style="stroke:#000000;stroke-width:0.8;" x="67.5" xlink:href="#m7ac0ca460a" y="543.774115"/>
      </g>
     </g>
     <g id="text_5">
      <!-- 0.5 -->
      <g transform="translate(12.790625 555.171772)scale(0.3 -0.3)">
       <use xlink:href="#DejaVuSans-48"/>
       <use x="63.623047" xlink:href="#DejaVuSans-46"/>
       <use x="95.410156" xlink:href="#DejaVuSans-53"/>
      </g>
     </g>
    </g>
    <g id="ytick_4">
     <g id="line2d_13">
      <g>
       <use style="stroke:#000000;stroke-width:0.8;" x="67.5" xlink:href="#m7ac0ca460a" y="428.275247"/>
      </g>
     </g>
     <g id="text_6">
      <!-- 1.0 -->
      <g transform="translate(12.790625 439.672903)scale(0.3 -0.3)">
       <use xlink:href="#DejaVuSans-49"/>
       <use x="63.623047" xlink:href="#DejaVuSans-46"/>
       <use x="95.410156" xlink:href="#DejaVuSans-48"/>
      </g>
     </g>
    </g>
    <g id="text_7">
     <!-- Transmission -->
     <g transform="translate(2.551562 634.185937)rotate(-90)scale(0.3 -0.3)">
      <use xlink:href="#DejaVuSans-84"/>
      <use x="46.333984" xlink:href="#DejaVuSans-114"/>
      <use x="87.447266" xlink:href="#DejaVuSans-97"/>
      <use x="148.726562" xlink:href="#DejaVuSans-110"/>
      <use x="212.105469" xlink:href="#DejaVuSans-115"/>
      <use x="264.205078" xlink:href="#DejaVuSans-109"/>
      <use x="361.617188" xlink:href="#DejaVuSans-105"/>
      <use x="389.400391" xlink:href="#DejaVuSans-115"/>
      <use x="441.5" xlink:href="#DejaVuSans-115"/>
      <use x="493.599609" xlink:href="#DejaVuSans-105"/>
      <use x="521.382812" xlink:href="#DejaVuSans-111"/>
      <use x="582.564453" xlink:href="#DejaVuSans-110"/>
     </g>
    </g>
   </g>
   <g id="line2d_14">
    <path clip-path="url(#p063399d98e)" d="M 86.522727 633.000365 
L 94.706592 630.871259 
L 102.319489 628.661576 
L 109.551742 626.32796 
L 116.213027 623.948533 
L 122.493667 621.476357 
L 128.583985 618.840212 
L 134.293658 616.129239 
L 139.813009 613.262278 
L 145.142037 610.238284 
L 150.280743 607.057934 
L 155.229126 603.7239 
L 159.987187 600.241217 
L 164.554925 596.617303 
L 168.932341 592.86243 
L 173.309757 588.806797 
L 177.496851 584.621974 
L 181.683944 580.113569 
L 185.680715 575.48478 
L 189.677486 570.514558 
L 193.674258 565.178712 
L 197.671029 559.452129 
L 201.477477 553.610758 
L 205.283926 547.365088 
L 209.090375 540.681702 
L 212.706501 533.876079 
L 215.941982 527.319941 
L 218.606496 521.426333 
L 220.509721 516.699662 
L 221.841978 512.81922 
L 222.79359 509.373671 
L 223.55488 505.661026 
L 224.125847 501.595893 
L 224.887137 495.13195 
L 225.077459 505.647588 
L 225.458104 594.859963 
L 225.838749 544.160337 
L 226.219394 527.751833 
L 226.600039 520.570274 
L 227.171006 514.825475 
L 227.741973 511.265551 
L 228.503263 507.835409 
L 229.645198 503.849472 
L 231.3581 498.860979 
L 234.022614 491.887132 
L 239.922609 477.234984 
L 246.774217 460.099626 
L 248.867763 454.279816 
L 250.20002 449.905841 
L 251.151633 446.629163 
L 251.341955 446.476538 
L 251.532278 447.297859 
L 251.7226 450.918668 
L 251.912922 463.704036 
L 252.103245 508.496712 
L 252.293567 587.758585 
L 253.054857 475.82934 
L 253.435502 464.247577 
L 253.816147 458.513518 
L 254.387114 453.590687 
L 255.148404 449.532603 
L 256.100016 445.91324 
L 257.432273 441.804763 
L 258.954852 437.760503 
L 259.335497 437.153311 
L 259.52582 437.11597 
L 259.716142 437.467398 
L 259.906465 438.589204 
L 260.096787 441.363041 
L 260.287109 448.064519 
L 260.477432 465.301407 
L 260.667754 511.93897 
L 260.858077 592.273763 
L 261.048399 573.95727 
L 261.429044 484.207992 
L 261.809689 458.806911 
L 262.190334 449.084286 
L 262.570979 444.353334 
L 262.761301 443.167325 
L 262.951624 443.027533 
L 263.141946 444.992593 
L 263.332268 452.727042 
L 263.522591 480.302725 
L 263.712913 555.708299 
L 263.903236 548.401928 
L 264.283881 470.677388 
L 264.664525 452.835152 
L 265.04517 446.117028 
L 265.425815 442.54496 
L 265.996782 439.353771 
L 266.56775 437.283864 
L 267.32904 435.32467 
L 268.280652 433.541314 
L 269.422586 431.951103 
L 270.564521 430.751023 
L 271.706456 429.84738 
L 272.84839 429.199047 
L 273.990325 428.793757 
L 275.132259 428.643679 
L 276.083871 428.748871 
L 276.845161 429.035518 
L 277.606451 429.601639 
L 278.177418 430.346779 
L 278.558063 431.123338 
L 278.938708 432.313862 
L 279.319353 434.315202 
L 279.699998 438.20564 
L 279.89032 441.781811 
L 280.080643 447.810269 
L 280.270965 459.158821 
L 280.461287 483.606802 
L 280.841932 586.79372 
L 281.222577 467.054266 
L 281.603222 439.510594 
L 281.983867 433.327337 
L 282.364512 431.37018 
L 282.745157 430.693842 
L 283.125802 430.523704 
L 283.506446 430.593373 
L 284.077414 430.926283 
L 285.029026 431.789901 
L 286.361283 433.359376 
L 287.883862 435.55258 
L 289.216119 437.845014 
L 290.548376 440.588671 
L 291.690311 443.47519 
L 292.641923 446.521011 
L 293.403213 449.735799 
L 293.97418 453.027485 
L 294.545148 457.907702 
L 294.925792 463.074759 
L 295.306437 471.960299 
L 295.49676 479.506091 
L 295.687082 491.589153 
L 295.877405 513.098226 
L 296.258049 600.860264 
L 296.638694 477.43533 
L 296.829017 457.655848 
L 297.019339 452.971419 
L 297.209662 453.316734 
L 297.399984 456.04888 
L 297.590307 460.836215 
L 297.780629 468.713485 
L 297.970951 482.99468 
L 298.161274 513.003223 
L 298.351596 568.737735 
L 298.541919 539.029987 
L 298.732241 472.866392 
L 298.922564 452.952584 
L 299.112886 447.650086 
L 299.303208 446.465675 
L 299.493531 446.655089 
L 299.874176 448.31523 
L 300.825788 454.209349 
L 301.396755 458.88776 
L 301.7774 463.275683 
L 302.158045 470.200831 
L 302.53869 484.37181 
L 302.729012 499.28092 
L 302.919335 528.516951 
L 303.109657 580.064278 
L 303.29998 561.12827 
L 303.490302 484.523002 
L 303.680624 458.919676 
L 303.870947 452.365686 
L 304.061269 450.998911 
L 304.251592 451.227496 
L 304.822559 453.950528 
L 307.867718 470.256332 
L 308.438685 475.321337 
L 308.81933 480.581841 
L 309.199975 489.897909 
L 309.390297 498.274137 
L 309.58062 512.654548 
L 309.770942 540.421146 
L 309.961265 586.587625 
L 310.151587 555.313858 
L 310.34191 484.391664 
L 310.532232 464.76621 
L 310.722554 460.925876 
L 310.912877 460.888205 
L 311.483844 464.253938 
L 312.435456 469.463305 
L 313.577391 474.369779 
L 317.003195 488.207876 
L 317.764485 492.746069 
L 318.335452 497.918812 
L 318.716097 503.600964 
L 319.096742 514.380118 
L 319.287064 524.773285 
L 319.477386 543.725499 
L 319.667709 579.13243 
L 319.858031 584.354906 
L 320.048354 505.756759 
L 320.238676 480.692182 
L 320.428999 477.395801 
L 320.619321 478.281682 
L 321.570933 485.637923 
L 322.332223 489.58674 
L 323.283835 493.349516 
L 324.616092 497.651151 
L 326.519316 502.940032 
L 328.993508 509.121307 
L 332.228989 516.574479 
L 335.845116 524.342385 
L 339.651564 532.004563 
L 343.648336 539.541529 
L 347.645107 546.592026 
L 351.641878 553.181607 
L 355.638649 559.333775 
L 359.63542 565.072061 
L 363.632191 570.420119 
L 367.628962 575.401927 
L 371.625733 580.041216 
L 375.812827 584.559286 
L 379.99992 588.752583 
L 384.377336 592.815741 
L 388.754752 596.577065 
L 393.322491 600.206658 
L 398.080552 603.69437 
L 402.838612 606.909451 
L 407.786996 609.990244 
L 412.925701 612.93227 
L 418.25473 615.733035 
L 423.964403 618.479408 
L 429.864398 621.069401 
L 436.145038 623.579457 
L 442.806324 625.994317 
L 449.848254 628.302502 
L 457.270829 630.495948 
L 465.074048 632.569667 
L 466.977273 633.042805 
L 466.977273 633.042805 
" style="fill:none;stroke:#0000ff;stroke-linecap:square;stroke-width:2;"/>
   </g>
   <g id="patch_9">
    <path d="M 67.5 657.211765 
L 67.5 417.388235 
" style="fill:none;stroke:#000000;stroke-linecap:square;stroke-linejoin:miter;stroke-width:0.8;"/>
   </g>
   <g id="patch_10">
    <path d="M 486 657.211765 
L 486 417.388235 
" style="fill:none;stroke:#000000;stroke-linecap:square;stroke-linejoin:miter;stroke-width:0.8;"/>
   </g>
   <g id="patch_11">
    <path d="M 67.5 657.211765 
L 486 657.211765 
" style="fill:none;stroke:#000000;stroke-linecap:square;stroke-linejoin:miter;stroke-width:0.8;"/>
   </g>
   <g id="patch_12">
    <path d="M 67.5 417.388235 
L 486 417.388235 
" style="fill:none;stroke:#000000;stroke-linecap:square;stroke-linejoin:miter;stroke-width:0.8;"/>
   </g>
   <g id="legend_2">
    <g id="patch_13">
     <path d="M 227.939062 563.817188 
L 465 563.817188 
Q 471 563.817188 471 557.817188 
L 471 516.782813 
Q 471 510.782813 465 510.782813 
L 227.939062 510.782813 
Q 221.939062 510.782813 221.939062 516.782813 
L 221.939062 557.817188 
Q 221.939062 563.817188 227.939062 563.817188 
z
" style="fill:#ffffff;opacity:0.8;stroke:#cccccc;stroke-linejoin:miter;"/>
    </g>
    <g id="line2d_15">
     <path d="M 233.939062 535.078125 
L 293.939062 535.078125 
" style="fill:none;stroke:#0000ff;stroke-linecap:square;stroke-width:2;"/>
    </g>
    <g id="line2d_16"/>
    <g id="text_8">
     <!-- 10 atoms -->
     <g transform="translate(317.939062 545.578125)scale(0.3 -0.3)">
      <use xlink:href="#DejaVuSans-49"/>
      <use x="63.623047" xlink:href="#DejaVuSans-48"/>
      <use x="127.246094" xlink:href="#DejaVuSans-32"/>
      <use x="159.033203" xlink:href="#DejaVuSans-97"/>
      <use x="220.3125" xlink:href="#DejaVuSans-116"/>
      <use x="259.521484" xlink:href="#DejaVuSans-111"/>
      <use x="320.703125" xlink:href="#DejaVuSans-109"/>
      <use x="418.115234" xlink:href="#DejaVuSans-115"/>
     </g>
    </g>
   </g>
  </g>
  <g id="axes_3">
   <g id="patch_14">
    <path d="M 67.5 945 
L 486 945 
L 486 705.176471 
L 67.5 705.176471 
z
" style="fill:#ffffff;"/>
   </g>
   <g id="matplotlib.axis_5">
    <g id="xtick_7">
     <g id="line2d_17">
      <g>
       <use style="stroke:#000000;stroke-width:0.8;" x="140.873377" xlink:href="#mbd33339bf2" y="945"/>
      </g>
     </g>
     <g id="text_9">
      <!-- −50 -->
      <g transform="translate(109.216345 974.795313)scale(0.3 -0.3)">
       <defs>
        <path d="M 10.59375 35.5 
L 73.1875 35.5 
L 73.1875 27.203125 
L 10.59375 27.203125 
z
" id="DejaVuSans-8722"/>
       </defs>
       <use xlink:href="#DejaVuSans-8722"/>
       <use x="83.789062" xlink:href="#DejaVuSans-53"/>
       <use x="147.412109" xlink:href="#DejaVuSans-48"/>
      </g>
     </g>
    </g>
    <g id="xtick_8">
     <g id="line2d_18">
      <g>
       <use style="stroke:#000000;stroke-width:0.8;" x="276.75" xlink:href="#mbd33339bf2" y="945"/>
      </g>
     </g>
     <g id="text_10">
      <!-- 0 -->
      <g transform="translate(267.20625 974.795313)scale(0.3 -0.3)">
       <use xlink:href="#DejaVuSans-48"/>
      </g>
     </g>
    </g>
    <g id="xtick_9">
     <g id="line2d_19">
      <g>
       <use style="stroke:#000000;stroke-width:0.8;" x="412.626623" xlink:href="#mbd33339bf2" y="945"/>
      </g>
     </g>
     <g id="text_11">
      <!-- 50 -->
      <g transform="translate(393.539123 974.795313)scale(0.3 -0.3)">
       <use xlink:href="#DejaVuSans-53"/>
       <use x="63.623047" xlink:href="#DejaVuSans-48"/>
      </g>
     </g>
    </g>
    <g id="text_12">
     <!-- $\omega-\omega_{c}$ -->
     <g transform="translate(226.95 1007.829687)scale(0.3 -0.3)">
      <defs>
       <path d="M 21.390625 -1.421875 
Q 1.125 -1.421875 6.78125 27.59375 
Q 8.984375 39.0625 19.625 54.6875 
L 29.296875 54.6875 
Q 19.234375 39.0625 17 27.34375 
Q 12.796875 6.203125 23.734375 6.203125 
Q 33.84375 6.203125 38.71875 32.46875 
L 47.015625 32.46875 
Q 41.703125 6.0625 51.8125 6.203125 
Q 62.703125 6.296875 66.796875 27.34375 
Q 69.046875 39.0625 65.140625 54.6875 
L 74.8125 54.6875 
Q 79.296875 39.0625 77.09375 27.59375 
Q 71.53125 -1.46875 51.21875 -1.421875 
Q 37.9375 -1.375 39.109375 13.1875 
Q 34.28125 -1.421875 21.390625 -1.421875 
z
" id="DejaVuSans-Oblique-969"/>
       <path d="M 53.609375 52.59375 
L 51.8125 43.703125 
Q 48.578125 46.046875 44.9375 47.21875 
Q 41.3125 48.390625 37.40625 48.390625 
Q 33.109375 48.390625 29.21875 46.875 
Q 25.34375 45.359375 22.703125 42.578125 
Q 18.5 38.328125 16.203125 32.609375 
Q 13.921875 26.90625 13.921875 20.796875 
Q 13.921875 13.421875 17.609375 9.8125 
Q 21.296875 6.203125 28.8125 6.203125 
Q 32.515625 6.203125 36.6875 7.328125 
Q 40.875 8.453125 45.40625 10.6875 
L 43.703125 1.8125 
Q 39.796875 0.203125 35.671875 -0.609375 
Q 31.546875 -1.421875 27.203125 -1.421875 
Q 16.3125 -1.421875 10.453125 4.015625 
Q 4.59375 9.46875 4.59375 19.578125 
Q 4.59375 28.078125 7.640625 35.234375 
Q 10.6875 42.390625 16.703125 48.09375 
Q 20.796875 52 26.3125 54 
Q 31.84375 56 38.375 56 
Q 42.1875 56 45.9375 55.140625 
Q 49.703125 54.296875 53.609375 52.59375 
z
" id="DejaVuSans-Oblique-99"/>
      </defs>
      <use transform="translate(0 0.3125)" xlink:href="#DejaVuSans-Oblique-969"/>
      <use transform="translate(103.222656 0.3125)" xlink:href="#DejaVuSans-8722"/>
      <use transform="translate(206.494141 0.3125)" xlink:href="#DejaVuSans-Oblique-969"/>
      <use transform="translate(290.234375 -16.09375)scale(0.7)" xlink:href="#DejaVuSans-Oblique-99"/>
     </g>
    </g>
   </g>
   <g id="matplotlib.axis_6">
    <g id="ytick_5">
     <g id="line2d_20">
      <g>
       <use style="stroke:#000000;stroke-width:0.8;" x="67.5" xlink:href="#m7ac0ca460a" y="831.562351"/>
      </g>
     </g>
     <g id="text_13">
      <!-- 0.5 -->
      <g transform="translate(12.790625 842.960007)scale(0.3 -0.3)">
       <use xlink:href="#DejaVuSans-48"/>
       <use x="63.623047" xlink:href="#DejaVuSans-46"/>
       <use x="95.410156" xlink:href="#DejaVuSans-53"/>
      </g>
     </g>
    </g>
    <g id="ytick_6">
     <g id="line2d_21">
      <g>
       <use style="stroke:#000000;stroke-width:0.8;" x="67.5" xlink:href="#m7ac0ca460a" y="716.063482"/>
      </g>
     </g>
     <g id="text_14">
      <!-- 1.0 -->
      <g transform="translate(12.790625 727.461139)scale(0.3 -0.3)">
       <use xlink:href="#DejaVuSans-49"/>
       <use x="63.623047" xlink:href="#DejaVuSans-46"/>
       <use x="95.410156" xlink:href="#DejaVuSans-48"/>
      </g>
     </g>
    </g>
    <g id="text_15">
     <!-- Transmission -->
     <g transform="translate(2.551562 921.974173)rotate(-90)scale(0.3 -0.3)">
      <use xlink:href="#DejaVuSans-84"/>
      <use x="46.333984" xlink:href="#DejaVuSans-114"/>
      <use x="87.447266" xlink:href="#DejaVuSans-97"/>
      <use x="148.726562" xlink:href="#DejaVuSans-110"/>
      <use x="212.105469" xlink:href="#DejaVuSans-115"/>
      <use x="264.205078" xlink:href="#DejaVuSans-109"/>
      <use x="361.617188" xlink:href="#DejaVuSans-105"/>
      <use x="389.400391" xlink:href="#DejaVuSans-115"/>
      <use x="441.5" xlink:href="#DejaVuSans-115"/>
      <use x="493.599609" xlink:href="#DejaVuSans-105"/>
      <use x="521.382812" xlink:href="#DejaVuSans-111"/>
      <use x="582.564453" xlink:href="#DejaVuSans-110"/>
     </g>
    </g>
   </g>
   <g id="line2d_22">
    <path clip-path="url(#p0ed174a426)" d="M 86.522727 919.86757 
L 94.135625 917.743861 
L 101.367877 915.494075 
L 108.029162 913.191707 
L 114.309803 910.78953 
L 120.209798 908.299711 
L 125.729149 905.738301 
L 131.058177 903.023714 
L 136.196883 900.151328 
L 140.954943 897.238707 
L 145.522682 894.182037 
L 149.709775 891.123755 
L 153.706546 887.93931 
L 157.512995 884.620169 
L 160.938799 881.334335 
L 163.793635 878.303577 
L 166.077505 875.590955 
L 167.980729 872.997148 
L 169.312986 870.845745 
L 170.454921 868.557814 
L 171.21621 866.574194 
L 171.787178 864.60731 
L 172.358145 861.817302 
L 172.73879 859.044697 
L 173.119435 854.739082 
L 173.50008 847.284541 
L 173.690402 842.571385 
L 173.880724 847.798328 
L 174.071047 903.44004 
L 174.261369 919.415024 
L 174.642014 894.654955 
L 175.022659 884.225047 
L 175.403304 879.065631 
L 175.974271 874.72826 
L 176.545239 872.016801 
L 177.306528 869.40851 
L 177.877496 867.918175 
L 178.067818 868.728041 
L 178.638785 866.646844 
L 179.590397 864.568965 
L 181.493622 861.079288 
L 190.629099 844.93991 
L 193.483935 839.222766 
L 195.958127 833.763857 
L 198.051674 828.586694 
L 199.574253 824.2832 
L 200.716188 820.508018 
L 201.6678 816.643135 
L 202.42909 812.514047 
L 203.000057 807.996754 
L 203.761347 799.166619 
L 203.951669 808.029 
L 204.141991 868.203473 
L 204.332314 884.253995 
L 204.712959 842.850218 
L 205.093604 829.079691 
L 205.474248 822.501524 
L 206.045216 816.635355 
L 206.806506 811.237483 
L 209.661342 792.801837 
L 210.422632 785.57469 
L 210.993599 778.204777 
L 211.945211 764.603899 
L 212.135534 772.67229 
L 212.325856 808.784838 
L 212.706501 926.088934 
L 213.467791 840.930781 
L 213.658113 830.450101 
L 213.848436 831.110192 
L 214.038758 839.696927 
L 214.419403 815.777562 
L 214.99037 798.965626 
L 215.371015 790.163413 
L 215.561337 791.085107 
L 215.75166 822.335393 
L 215.941982 889.929338 
L 216.51295 824.919472 
L 216.893595 808.755814 
L 217.654884 790.313807 
L 218.035529 782.881702 
L 218.225852 783.877085 
L 218.416174 810.284204 
L 218.606496 885.69859 
L 218.796819 872.01203 
L 219.177464 823.841836 
L 219.558109 806.050874 
L 220.129076 791.796693 
L 220.700043 780.815595 
L 220.890366 779.378311 
L 221.080688 789.729099 
L 221.271011 851.355973 
L 221.461333 875.449869 
L 221.841978 819.878232 
L 222.222623 801.178712 
L 222.79359 788.427765 
L 223.745202 775.111565 
L 224.696814 763.008538 
L 224.887137 764.313562 
L 225.077459 781.028154 
L 225.267782 850.975865 
L 225.458104 874.44142 
L 225.838749 807.544912 
L 226.219394 784.740179 
L 226.790361 768.675421 
L 227.171006 763.268543 
L 227.361328 768.59526 
L 227.551651 806.180326 
L 227.741973 879.272992 
L 228.312941 795.387596 
L 228.693585 776.953795 
L 229.264553 762.49018 
L 229.645198 757.910627 
L 229.83552 763.395393 
L 230.025842 797.685221 
L 230.216165 876.955327 
L 230.406487 855.156358 
L 230.787132 793.562783 
L 231.167777 772.800585 
L 231.738744 757.605998 
L 232.119389 752.002107 
L 232.309712 753.086833 
L 232.500034 766.190227 
L 232.880679 879.395346 
L 233.261324 797.557655 
L 233.641969 767.527937 
L 234.022614 754.113113 
L 234.403258 747.148559 
L 234.593581 747.403277 
L 234.783903 754.96522 
L 234.974226 783.062304 
L 235.354871 906.774639 
L 235.735515 847.662549 
L 235.925838 853.162399 
L 236.306483 796.038201 
L 236.687128 773.399447 
L 237.258095 755.97802 
L 237.63874 749.018754 
L 237.829062 747.74303 
L 238.019385 751.460714 
L 238.209707 773.464559 
L 238.40003 846.867251 
L 238.590352 862.687356 
L 238.970997 782.825512 
L 239.351642 759.165037 
L 239.732287 747.104775 
L 240.303254 737.392352 
L 240.683899 734.286762 
L 240.874221 734.704844 
L 241.064544 738.626302 
L 241.254866 752.34252 
L 241.635511 862.999806 
L 242.016156 768.434788 
L 242.206478 756.245611 
L 242.396801 763.667418 
L 242.587123 797.261962 
L 242.967768 916.493209 
L 243.91938 761.871064 
L 244.109703 756.145129 
L 244.300025 762.793625 
L 244.490347 802.352686 
L 244.68067 879.812003 
L 244.870992 853.269181 
L 245.251637 771.40999 
L 245.44196 757.115535 
L 245.632282 751.868221 
L 245.822604 757.14438 
L 246.012927 783.010328 
L 246.393572 911.555732 
L 246.583894 886.027114 
L 246.964539 801.336527 
L 247.345184 765.333989 
L 247.725829 748.055149 
L 248.106474 738.435677 
L 248.487119 733.982684 
L 248.677441 734.394873 
L 248.867763 738.657598 
L 249.058086 752.179735 
L 249.248408 791.394555 
L 249.438731 867.324841 
L 249.629053 844.34511 
L 250.009698 754.914125 
L 250.20002 743.455066 
L 250.390343 740.818501 
L 250.580665 747.562676 
L 250.96131 804.701985 
L 251.151633 762.138312 
L 251.341955 757.088094 
L 251.532278 769.961154 
L 251.7226 796.422398 
L 252.293567 920.607639 
L 252.48389 881.997173 
L 252.674212 872.826136 
L 252.864535 904.692991 
L 253.245179 859.312578 
L 253.435502 910.220078 
L 253.625824 910.260027 
L 254.387114 785.759037 
L 254.767759 764.90934 
L 254.958081 776.76569 
L 255.338726 865.169266 
L 255.719371 774.639648 
L 255.909693 763.439067 
L 256.290338 797.389844 
L 256.480661 769.042628 
L 256.670983 793.305559 
L 256.861306 834.11859 
L 257.241951 752.15608 
L 257.432273 744.129849 
L 257.622595 744.940595 
L 257.812918 753.136703 
L 258.00324 770.83536 
L 258.193563 802.943219 
L 258.574208 910.319992 
L 258.76453 910.528985 
L 259.145175 807.094901 
L 259.335497 821.124945 
L 259.52582 883.431449 
L 259.716142 879.798503 
L 259.906465 865.420232 
L 260.096787 918.03648 
L 260.287109 919.294315 
L 260.667754 839.873426 
L 261.048399 818.218696 
L 261.238722 786.511474 
L 261.429044 773.881167 
L 261.619367 794.464099 
L 261.809689 830.141975 
L 262.000011 781.761769 
L 262.190334 761.890505 
L 262.380656 766.781916 
L 262.570979 794.328231 
L 262.761301 794.375498 
L 263.141946 884.167597 
L 263.332268 927.644111 
L 263.522591 933.990787 
L 263.903236 876.500195 
L 264.664525 793.974586 
L 264.854848 810.880478 
L 265.04517 878.622725 
L 265.235493 851.68405 
L 265.425815 808.934488 
L 265.616138 792.230057 
L 265.80646 823.879575 
L 265.996782 823.10935 
L 266.187105 811.395587 
L 266.377427 874.378917 
L 266.56775 857.20058 
L 266.948395 786.262043 
L 267.32904 762.718642 
L 267.519362 764.702344 
L 267.709684 797.572787 
L 267.900007 875.222034 
L 268.090329 850.40898 
L 268.470974 780.257212 
L 268.851619 757.188233 
L 269.232264 745.852706 
L 269.803231 736.064487 
L 270.183876 732.212408 
L 270.374198 732.463532 
L 270.564521 735.383096 
L 270.945166 726.886806 
L 271.325811 724.243288 
L 271.706456 722.712323 
L 272.0871 721.996676 
L 272.277423 721.998356 
L 272.467745 722.315872 
L 272.658068 723.055614 
L 272.84839 724.392608 
L 273.038713 726.626994 
L 273.229035 730.297025 
L 273.419357 736.423364 
L 273.60968 747.069253 
L 273.800002 766.62037 
L 273.990325 803.93918 
L 274.37097 912.000921 
L 274.941937 780.403062 
L 275.703227 730.28579 
L 276.083871 724.853042 
L 276.464516 722.971447 
L 276.654839 722.886716 
L 276.845161 723.353607 
L 277.035484 724.494963 
L 277.225806 726.63319 
L 277.416129 730.546236 
L 277.606451 738.290832 
L 277.796773 756.21203 
L 278.177418 839.615899 
L 278.558063 740.054045 
L 278.748386 730.752351 
L 278.938708 727.786911 
L 279.12903 727.220129 
L 279.319353 727.827789 
L 279.699998 731.152272 
L 280.080643 737.065281 
L 280.461287 746.988899 
L 280.841932 765.764173 
L 281.032255 782.704473 
L 281.222577 810.40304 
L 281.603222 906.353889 
L 281.793544 878.150134 
L 282.174189 760.214516 
L 282.364512 745.165628 
L 282.554834 741.097108 
L 282.745157 741.940307 
L 283.125802 750.865596 
L 283.506446 767.182415 
L 283.887091 793.555816 
L 284.267736 838.415117 
L 284.838703 932.818863 
L 285.029026 921.700983 
L 285.599993 778.384539 
L 285.790316 765.272637 
L 285.980638 773.038767 
L 286.17096 807.567947 
L 286.361283 868.804587 
L 286.551605 870.480149 
L 286.741928 878.554667 
L 287.122573 767.423613 
L 287.312895 752.866578 
L 287.503218 754.493868 
L 287.69354 773.33994 
L 287.883862 823.97422 
L 288.074185 828.935093 
L 288.264507 793.61257 
L 288.45483 823.550824 
L 288.645152 779.884484 
L 288.835475 771.423139 
L 289.025797 796.170406 
L 289.216119 852.480044 
L 289.406442 873.111406 
L 289.596764 799.424628 
L 289.787087 774.483734 
L 289.977409 792.423739 
L 290.167732 848.679996 
L 290.358054 868.871185 
L 290.738699 757.961061 
L 290.929021 750.432342 
L 291.119344 753.227754 
L 291.499989 774.408723 
L 291.880633 819.960375 
L 292.451601 925.531227 
L 292.641923 886.696768 
L 293.022568 775.327538 
L 293.212891 756.567176 
L 293.403213 753.167944 
L 293.593535 760.425134 
L 293.783858 779.373795 
L 294.164503 876.50067 
L 294.354825 846.369181 
L 294.545148 794.171063 
L 294.73547 813.717871 
L 294.925792 868.709653 
L 295.306437 768.584066 
L 295.49676 761.431807 
L 295.687082 772.741972 
L 296.067727 816.004371 
L 296.258049 869.105072 
L 296.448372 879.55734 
L 296.638694 801.353352 
L 296.829017 769.257596 
L 297.019339 771.194499 
L 297.399984 782.805755 
L 297.780629 819.270681 
L 298.541919 934.09893 
L 298.732241 918.449182 
L 299.112886 812.317459 
L 299.303208 808.487093 
L 299.683853 904.30024 
L 299.874176 880.952038 
L 300.064498 895.324072 
L 300.635465 769.085654 
L 301.01611 740.279367 
L 301.206433 735.932805 
L 301.396755 734.851878 
L 301.587078 736.057644 
L 301.7774 739.135077 
L 302.158045 751.210388 
L 302.53869 777.259223 
L 302.729012 803.005177 
L 303.109657 896.785575 
L 303.680624 764.619719 
L 303.870947 771.558966 
L 304.061269 799.665977 
L 304.251592 847.415308 
L 304.632237 773.491628 
L 304.822559 779.475393 
L 305.203204 822.618942 
L 305.583849 905.938654 
L 305.774171 902.645795 
L 306.154816 800.557806 
L 306.345138 811.258094 
L 306.535461 851.490003 
L 306.725783 852.022068 
L 306.916106 898.728508 
L 307.487073 787.691617 
L 307.677396 834.148351 
L 307.867718 813.006051 
L 308.05804 766.607373 
L 308.248363 760.267057 
L 308.438685 767.990395 
L 308.629008 783.986214 
L 308.81933 809.886018 
L 309.199975 899.373953 
L 309.390297 874.463036 
L 309.58062 809.150916 
L 309.770942 801.187111 
L 310.151587 895.329142 
L 310.34191 893.744896 
L 310.722554 772.981572 
L 310.912877 761.021201 
L 311.103199 766.361714 
L 311.293522 784.222578 
L 311.483844 817.742539 
L 311.864489 897.479068 
L 312.054811 831.672203 
L 312.245134 824.671266 
L 312.435456 873.525881 
L 312.816101 764.730845 
L 313.006424 748.717016 
L 313.196746 745.949623 
L 313.387069 748.76427 
L 313.767713 763.714107 
L 314.148358 793.87683 
L 314.719326 873.712603 
L 314.909648 841.517534 
L 315.09997 882.220003 
L 315.290293 888.216326 
L 315.480615 889.580082 
L 315.670938 828.431206 
L 315.86126 835.03713 
L 316.051583 886.212645 
L 316.62255 750.951058 
L 316.812872 744.453106 
L 317.003195 745.948893 
L 317.193517 753.661133 
L 317.38384 770.066649 
L 317.574162 804.356064 
L 317.764485 865.0476 
L 317.954807 847.838408 
L 318.145129 774.78375 
L 318.335452 748.876593 
L 318.525774 742.960142 
L 318.716097 744.020664 
L 318.906419 748.735438 
L 319.096742 757.036407 
L 319.287064 771.238888 
L 319.477386 798.122482 
L 319.667709 850.03144 
L 319.858031 870.286385 
L 320.238676 751.790057 
L 320.428999 741.550203 
L 320.619321 739.48579 
L 320.809643 740.097374 
L 321.190288 743.833495 
L 321.951578 754.382618 
L 322.522545 765.37513 
L 322.90319 776.831448 
L 323.283835 799.161649 
L 323.474158 822.506508 
L 323.66448 864.093124 
L 323.854802 872.792321 
L 324.045125 794.157515 
L 324.235447 768.353622 
L 324.42577 767.676031 
L 324.616092 773.786206 
L 324.996737 798.2882 
L 325.187059 822.780874 
L 325.377382 864.605114 
L 325.567704 864.339016 
L 325.758027 801.407008 
L 325.948349 803.598312 
L 326.328994 881.914211 
L 326.709639 767.783164 
L 326.899961 760.907432 
L 327.090284 765.760318 
L 327.280606 777.003665 
L 327.470929 797.099149 
L 327.851574 882.564947 
L 328.232218 765.239771 
L 328.422541 749.280838 
L 328.612863 746.205552 
L 328.803186 746.650895 
L 329.374153 751.764173 
L 330.516088 761.496601 
L 331.848345 770.615958 
L 334.703181 789.318535 
L 335.274148 794.456361 
L 335.845116 801.805181 
L 336.225761 809.976959 
L 336.606405 826.732237 
L 336.796728 844.74954 
L 336.98705 876.611809 
L 337.177373 867.967453 
L 337.367695 798.843403 
L 337.558018 784.787543 
L 337.74834 786.079996 
L 338.319307 799.130449 
L 338.699952 812.70967 
L 338.890275 824.528197 
L 339.080597 845.353731 
L 339.27092 879.972737 
L 339.461242 854.692827 
L 339.651564 790.967675 
L 339.841887 779.361927 
L 340.032209 780.043827 
L 341.174144 794.156771 
L 342.125756 804.641775 
L 342.506401 810.649236 
L 342.887046 820.789117 
L 343.077368 829.933657 
L 343.267691 845.970217 
L 343.458013 875.140717 
L 343.648336 875.939024 
L 343.838658 804.012112 
L 344.02898 786.408293 
L 344.219303 786.288823 
L 345.170915 796.628444 
L 345.932205 801.638388 
L 346.883817 806.178082 
L 348.025752 810.510848 
L 349.548331 815.372519 
L 351.451555 820.658674 
L 353.735425 826.308938 
L 356.209616 831.854202 
L 359.064453 837.699635 
L 362.109612 843.413868 
L 365.345093 848.99427 
L 368.580574 854.139228 
L 372.006378 859.170156 
L 375.432182 863.820011 
L 379.048308 868.358142 
L 382.854757 872.766353 
L 386.661206 876.83413 
L 390.657977 880.77525 
L 394.654748 884.411294 
L 398.841841 887.925279 
L 403.219257 891.307872 
L 407.786996 894.551967 
L 412.545057 897.652855 
L 417.49344 900.607851 
L 422.632146 903.415983 
L 427.961174 906.077882 
L 433.670847 908.678263 
L 439.570842 911.122581 
L 445.851483 913.484808 
L 452.512768 915.752008 
L 459.554698 917.914783 
L 466.977273 919.966777 
L 466.977273 919.966777 
" style="fill:none;stroke:#0000ff;stroke-linecap:square;stroke-width:2;"/>
   </g>
   <g id="patch_15">
    <path d="M 67.5 945 
L 67.5 705.176471 
" style="fill:none;stroke:#000000;stroke-linecap:square;stroke-linejoin:miter;stroke-width:0.8;"/>
   </g>
   <g id="patch_16">
    <path d="M 486 945 
L 486 705.176471 
" style="fill:none;stroke:#000000;stroke-linecap:square;stroke-linejoin:miter;stroke-width:0.8;"/>
   </g>
   <g id="patch_17">
    <path d="M 67.5 945 
L 486 945 
" style="fill:none;stroke:#000000;stroke-linecap:square;stroke-linejoin:miter;stroke-width:0.8;"/>
   </g>
   <g id="patch_18">
    <path d="M 67.5 705.176471 
L 486 705.176471 
" style="fill:none;stroke:#000000;stroke-linecap:square;stroke-linejoin:miter;stroke-width:0.8;"/>
   </g>
   <g id="legend_3">
    <g id="patch_19">
     <path d="M 208.851562 773.210846 
L 465 773.210846 
Q 471 773.210846 471 767.210846 
L 471 726.176471 
Q 471 720.176471 465 720.176471 
L 208.851562 720.176471 
Q 202.851562 720.176471 202.851562 726.176471 
L 202.851562 767.210846 
Q 202.851562 773.210846 208.851562 773.210846 
z
" style="fill:#ffffff;opacity:0.8;stroke:#cccccc;stroke-linejoin:miter;"/>
    </g>
    <g id="line2d_23">
     <path d="M 214.851562 744.471783 
L 274.851562 744.471783 
" style="fill:none;stroke:#0000ff;stroke-linecap:square;stroke-width:2;"/>
    </g>
    <g id="line2d_24"/>
    <g id="text_16">
     <!-- 100 atoms -->
     <g transform="translate(298.851562 754.971783)scale(0.3 -0.3)">
      <use xlink:href="#DejaVuSans-49"/>
      <use x="63.623047" xlink:href="#DejaVuSans-48"/>
      <use x="127.246094" xlink:href="#DejaVuSans-48"/>
      <use x="190.869141" xlink:href="#DejaVuSans-32"/>
      <use x="222.65625" xlink:href="#DejaVuSans-97"/>
      <use x="283.935547" xlink:href="#DejaVuSans-116"/>
      <use x="323.144531" xlink:href="#DejaVuSans-111"/>
      <use x="384.326172" xlink:href="#DejaVuSans-109"/>
      <use x="481.738281" xlink:href="#DejaVuSans-115"/>
     </g>
    </g>
   </g>
  </g>
 </g>
 <defs>
  <clipPath id="p65d7ef0d2e">
   <rect height="239.823529" width="418.5" x="67.5" y="129.6"/>
  </clipPath>
  <clipPath id="p063399d98e">
   <rect height="239.823529" width="418.5" x="67.5" y="417.388235"/>
  </clipPath>
  <clipPath id="p0ed174a426">
   <rect height="239.823529" width="418.5" x="67.5" y="705.176471"/>
  </clipPath>
 </defs>
</svg>
