<?xml version="1.0" encoding="utf-8" standalone="no"?>
<!DOCTYPE svg PUBLIC "-//W3C//DTD SVG 1.1//EN"
  "http://www.w3.org/Graphics/SVG/1.1/DTD/svg11.dtd">
<!-- Created with matplotlib (https://matplotlib.org/) -->
<svg height="540pt" version="1.1" viewBox="0 0 540 540" width="540pt" xmlns="http://www.w3.org/2000/svg" xmlns:xlink="http://www.w3.org/1999/xlink">
 <metadata>
  <rdf:RDF xmlns:cc="http://creativecommons.org/ns#" xmlns:dc="http://purl.org/dc/elements/1.1/" xmlns:rdf="http://www.w3.org/1999/02/22-rdf-syntax-ns#">
   <cc:Work>
    <dc:type rdf:resource="http://purl.org/dc/dcmitype/StillImage"/>
    <dc:date>2021-04-27T18:18:55.752014</dc:date>
    <dc:format>image/svg+xml</dc:format>
    <dc:creator>
     <cc:Agent>
      <dc:title>Matplotlib v3.3.2, https://matplotlib.org/</dc:title>
     </cc:Agent>
    </dc:creator>
   </cc:Work>
  </rdf:RDF>
 </metadata>
 <defs>
  <style type="text/css">*{stroke-linecap:butt;stroke-linejoin:round;}</style>
 </defs>
 <g id="figure_1">
  <g id="patch_1">
   <path d="M 0 540 
L 540 540 
L 540 0 
L 0 0 
z
" style="fill:none;"/>
  </g>
  <g id="axes_1">
   <g id="patch_2">
    <path d="M 67.5 472.5 
L 486 472.5 
L 486 64.8 
L 67.5 64.8 
z
" style="fill:#ffffff;"/>
   </g>
   <g id="matplotlib.axis_1">
    <g id="xtick_1">
     <g id="line2d_1">
      <defs>
       <path d="M 0 0 
L 0 3.5 
" id="mbfa3949638" style="stroke:#000000;stroke-width:0.8;"/>
      </defs>
      <g>
       <use style="stroke:#000000;stroke-width:0.8;" x="86.522727" xlink:href="#mbfa3949638" y="472.5"/>
      </g>
     </g>
     <g id="text_1">
      <!-- −10 -->
      <g transform="translate(54.865696 502.295313)scale(0.3 -0.3)">
       <defs>
        <path d="M 10.59375 35.5 
L 73.1875 35.5 
L 73.1875 27.203125 
L 10.59375 27.203125 
z
" id="DejaVuSans-8722"/>
        <path d="M 12.40625 8.296875 
L 28.515625 8.296875 
L 28.515625 63.921875 
L 10.984375 60.40625 
L 10.984375 69.390625 
L 28.421875 72.90625 
L 38.28125 72.90625 
L 38.28125 8.296875 
L 54.390625 8.296875 
L 54.390625 0 
L 12.40625 0 
z
" id="DejaVuSans-49"/>
        <path d="M 31.78125 66.40625 
Q 24.171875 66.40625 20.328125 58.90625 
Q 16.5 51.421875 16.5 36.375 
Q 16.5 21.390625 20.328125 13.890625 
Q 24.171875 6.390625 31.78125 6.390625 
Q 39.453125 6.390625 43.28125 13.890625 
Q 47.125 21.390625 47.125 36.375 
Q 47.125 51.421875 43.28125 58.90625 
Q 39.453125 66.40625 31.78125 66.40625 
z
M 31.78125 74.21875 
Q 44.046875 74.21875 50.515625 64.515625 
Q 56.984375 54.828125 56.984375 36.375 
Q 56.984375 17.96875 50.515625 8.265625 
Q 44.046875 -1.421875 31.78125 -1.421875 
Q 19.53125 -1.421875 13.0625 8.265625 
Q 6.59375 17.96875 6.59375 36.375 
Q 6.59375 54.828125 13.0625 64.515625 
Q 19.53125 74.21875 31.78125 74.21875 
z
" id="DejaVuSans-48"/>
       </defs>
       <use xlink:href="#DejaVuSans-8722"/>
       <use x="83.789062" xlink:href="#DejaVuSans-49"/>
       <use x="147.412109" xlink:href="#DejaVuSans-48"/>
      </g>
     </g>
    </g>
    <g id="xtick_2">
     <g id="line2d_2">
      <g>
       <use style="stroke:#000000;stroke-width:0.8;" x="276.75" xlink:href="#mbfa3949638" y="472.5"/>
      </g>
     </g>
     <g id="text_2">
      <!-- 0 -->
      <g transform="translate(267.20625 502.295313)scale(0.3 -0.3)">
       <use xlink:href="#DejaVuSans-48"/>
      </g>
     </g>
    </g>
    <g id="xtick_3">
     <g id="line2d_3">
      <g>
       <use style="stroke:#000000;stroke-width:0.8;" x="466.977273" xlink:href="#mbfa3949638" y="472.5"/>
      </g>
     </g>
     <g id="text_3">
      <!-- 10 -->
      <g transform="translate(447.889773 502.295313)scale(0.3 -0.3)">
       <use xlink:href="#DejaVuSans-49"/>
       <use x="63.623047" xlink:href="#DejaVuSans-48"/>
      </g>
     </g>
    </g>
    <g id="text_4">
     <!-- $\omega-\omega_{c}$/ $\kappa$ -->
     <g transform="translate(208.35 535.329687)scale(0.3 -0.3)">
      <defs>
       <path d="M 21.390625 -1.421875 
Q 1.125 -1.421875 6.78125 27.59375 
Q 8.984375 39.0625 19.625 54.6875 
L 29.296875 54.6875 
Q 19.234375 39.0625 17 27.34375 
Q 12.796875 6.203125 23.734375 6.203125 
Q 33.84375 6.203125 38.71875 32.46875 
L 47.015625 32.46875 
Q 41.703125 6.0625 51.8125 6.203125 
Q 62.703125 6.296875 66.796875 27.34375 
Q 69.046875 39.0625 65.140625 54.6875 
L 74.8125 54.6875 
Q 79.296875 39.0625 77.09375 27.59375 
Q 71.53125 -1.46875 51.21875 -1.421875 
Q 37.9375 -1.375 39.109375 13.1875 
Q 34.28125 -1.421875 21.390625 -1.421875 
z
" id="DejaVuSans-Oblique-969"/>
       <path d="M 53.609375 52.59375 
L 51.8125 43.703125 
Q 48.578125 46.046875 44.9375 47.21875 
Q 41.3125 48.390625 37.40625 48.390625 
Q 33.109375 48.390625 29.21875 46.875 
Q 25.34375 45.359375 22.703125 42.578125 
Q 18.5 38.328125 16.203125 32.609375 
Q 13.921875 26.90625 13.921875 20.796875 
Q 13.921875 13.421875 17.609375 9.8125 
Q 21.296875 6.203125 28.8125 6.203125 
Q 32.515625 6.203125 36.6875 7.328125 
Q 40.875 8.453125 45.40625 10.6875 
L 43.703125 1.8125 
Q 39.796875 0.203125 35.671875 -0.609375 
Q 31.546875 -1.421875 27.203125 -1.421875 
Q 16.3125 -1.421875 10.453125 4.015625 
Q 4.59375 9.46875 4.59375 19.578125 
Q 4.59375 28.078125 7.640625 35.234375 
Q 10.6875 42.390625 16.703125 48.09375 
Q 20.796875 52 26.3125 54 
Q 31.84375 56 38.375 56 
Q 42.1875 56 45.9375 55.140625 
Q 49.703125 54.296875 53.609375 52.59375 
z
" id="DejaVuSans-Oblique-99"/>
       <path d="M 25.390625 72.90625 
L 33.6875 72.90625 
L 8.296875 -9.28125 
L 0 -9.28125 
z
" id="DejaVuSans-47"/>
       <path id="DejaVuSans-32"/>
       <path d="M 14.65625 54.6875 
L 23.921875 54.6875 
L 19.484375 31.984375 
L 47.515625 54.6875 
L 58.453125 54.6875 
L 32.90625 34.078125 
L 51.171875 0 
L 40.1875 0 
L 25.4375 28.21875 
L 17.53125 21.921875 
L 13.28125 0 
L 4 0 
z
" id="DejaVuSans-Oblique-954"/>
      </defs>
      <use transform="translate(0 0.09375)" xlink:href="#DejaVuSans-Oblique-969"/>
      <use transform="translate(103.222656 0.09375)" xlink:href="#DejaVuSans-8722"/>
      <use transform="translate(206.494141 0.09375)" xlink:href="#DejaVuSans-Oblique-969"/>
      <use transform="translate(290.234375 -16.3125)scale(0.7)" xlink:href="#DejaVuSans-Oblique-99"/>
      <use transform="translate(331.455078 0.09375)" xlink:href="#DejaVuSans-47"/>
      <use transform="translate(365.146484 0.09375)" xlink:href="#DejaVuSans-32"/>
      <use transform="translate(396.933594 0.09375)" xlink:href="#DejaVuSans-Oblique-954"/>
     </g>
    </g>
   </g>
   <g id="matplotlib.axis_2">
    <g id="ytick_1">
     <g id="line2d_4">
      <defs>
       <path d="M 0 0 
L -3.5 0 
" id="mb90b626756" style="stroke:#000000;stroke-width:0.8;"/>
      </defs>
      <g>
       <use style="stroke:#000000;stroke-width:0.8;" x="67.5" xlink:href="#mb90b626756" y="472.5"/>
      </g>
     </g>
     <g id="text_5">
      <!-- 0.0 -->
      <g transform="translate(12.790625 483.897656)scale(0.3 -0.3)">
       <defs>
        <path d="M 10.6875 12.40625 
L 21 12.40625 
L 21 0 
L 10.6875 0 
z
" id="DejaVuSans-46"/>
       </defs>
       <use xlink:href="#DejaVuSans-48"/>
       <use x="63.623047" xlink:href="#DejaVuSans-46"/>
       <use x="95.410156" xlink:href="#DejaVuSans-48"/>
      </g>
     </g>
    </g>
    <g id="ytick_2">
     <g id="line2d_5">
      <g>
       <use style="stroke:#000000;stroke-width:0.8;" x="67.5" xlink:href="#mb90b626756" y="370.575"/>
      </g>
     </g>
     <g id="text_6">
      <!-- 0.5 -->
      <g transform="translate(12.790625 381.972656)scale(0.3 -0.3)">
       <defs>
        <path d="M 10.796875 72.90625 
L 49.515625 72.90625 
L 49.515625 64.59375 
L 19.828125 64.59375 
L 19.828125 46.734375 
Q 21.96875 47.46875 24.109375 47.828125 
Q 26.265625 48.1875 28.421875 48.1875 
Q 40.625 48.1875 47.75 41.5 
Q 54.890625 34.8125 54.890625 23.390625 
Q 54.890625 11.625 47.5625 5.09375 
Q 40.234375 -1.421875 26.90625 -1.421875 
Q 22.3125 -1.421875 17.546875 -0.640625 
Q 12.796875 0.140625 7.71875 1.703125 
L 7.71875 11.625 
Q 12.109375 9.234375 16.796875 8.0625 
Q 21.484375 6.890625 26.703125 6.890625 
Q 35.15625 6.890625 40.078125 11.328125 
Q 45.015625 15.765625 45.015625 23.390625 
Q 45.015625 31 40.078125 35.4375 
Q 35.15625 39.890625 26.703125 39.890625 
Q 22.75 39.890625 18.8125 39.015625 
Q 14.890625 38.140625 10.796875 36.28125 
z
" id="DejaVuSans-53"/>
       </defs>
       <use xlink:href="#DejaVuSans-48"/>
       <use x="63.623047" xlink:href="#DejaVuSans-46"/>
       <use x="95.410156" xlink:href="#DejaVuSans-53"/>
      </g>
     </g>
    </g>
    <g id="ytick_3">
     <g id="line2d_6">
      <g>
       <use style="stroke:#000000;stroke-width:0.8;" x="67.5" xlink:href="#mb90b626756" y="268.65"/>
      </g>
     </g>
     <g id="text_7">
      <!-- 1.0 -->
      <g transform="translate(12.790625 280.047656)scale(0.3 -0.3)">
       <use xlink:href="#DejaVuSans-49"/>
       <use x="63.623047" xlink:href="#DejaVuSans-46"/>
       <use x="95.410156" xlink:href="#DejaVuSans-48"/>
      </g>
     </g>
    </g>
    <g id="ytick_4">
     <g id="line2d_7">
      <g>
       <use style="stroke:#000000;stroke-width:0.8;" x="67.5" xlink:href="#mb90b626756" y="166.725"/>
      </g>
     </g>
     <g id="text_8">
      <!-- 1.5 -->
      <g transform="translate(12.790625 178.122656)scale(0.3 -0.3)">
       <use xlink:href="#DejaVuSans-49"/>
       <use x="63.623047" xlink:href="#DejaVuSans-46"/>
       <use x="95.410156" xlink:href="#DejaVuSans-53"/>
      </g>
     </g>
    </g>
    <g id="ytick_5">
     <g id="line2d_8">
      <g>
       <use style="stroke:#000000;stroke-width:0.8;" x="67.5" xlink:href="#mb90b626756" y="64.8"/>
      </g>
     </g>
     <g id="text_9">
      <!-- 2.0 -->
      <g transform="translate(12.790625 76.197656)scale(0.3 -0.3)">
       <defs>
        <path d="M 19.1875 8.296875 
L 53.609375 8.296875 
L 53.609375 0 
L 7.328125 0 
L 7.328125 8.296875 
Q 12.9375 14.109375 22.625 23.890625 
Q 32.328125 33.6875 34.8125 36.53125 
Q 39.546875 41.84375 41.421875 45.53125 
Q 43.3125 49.21875 43.3125 52.78125 
Q 43.3125 58.59375 39.234375 62.25 
Q 35.15625 65.921875 28.609375 65.921875 
Q 23.96875 65.921875 18.8125 64.3125 
Q 13.671875 62.703125 7.8125 59.421875 
L 7.8125 69.390625 
Q 13.765625 71.78125 18.9375 73 
Q 24.125 74.21875 28.421875 74.21875 
Q 39.75 74.21875 46.484375 68.546875 
Q 53.21875 62.890625 53.21875 53.421875 
Q 53.21875 48.921875 51.53125 44.890625 
Q 49.859375 40.875 45.40625 35.40625 
Q 44.1875 33.984375 37.640625 27.21875 
Q 31.109375 20.453125 19.1875 8.296875 
z
" id="DejaVuSans-50"/>
       </defs>
       <use xlink:href="#DejaVuSans-50"/>
       <use x="63.623047" xlink:href="#DejaVuSans-46"/>
       <use x="95.410156" xlink:href="#DejaVuSans-48"/>
      </g>
     </g>
    </g>
    <g id="text_10">
     <!-- $g^{(2)}(0)$ -->
     <g transform="translate(2.490625 315.45)rotate(-90)scale(0.3 -0.3)">
      <defs>
       <path d="M 59.625 54.6875 
L 50.296875 6.78125 
Q 47.609375 -7.125 40.015625 -13.953125 
Q 32.421875 -20.796875 19.578125 -20.796875 
Q 14.84375 -20.796875 10.78125 -20.09375 
Q 6.734375 -19.390625 3.21875 -17.921875 
L 4.890625 -9.1875 
Q 8.203125 -11.328125 11.90625 -12.34375 
Q 15.625 -13.375 19.828125 -13.375 
Q 28.375 -13.375 33.859375 -8.703125 
Q 39.359375 -4.046875 41.109375 4.6875 
L 41.890625 8.796875 
Q 38.140625 4.5 33.15625 2.25 
Q 28.171875 0 22.40625 0 
Q 14.109375 0 9.34375 5.484375 
Q 4.59375 10.984375 4.59375 20.609375 
Q 4.59375 28.171875 7.46875 35.421875 
Q 10.359375 42.671875 15.578125 48.296875 
Q 19.046875 52 23.65625 54 
Q 28.265625 56 33.296875 56 
Q 38.8125 56 42.90625 53.4375 
Q 47.015625 50.875 49.03125 46.1875 
L 50.59375 54.6875 
z
M 46.09375 34.625 
Q 46.09375 41.265625 42.96875 44.875 
Q 39.84375 48.484375 34.078125 48.484375 
Q 30.515625 48.484375 27.296875 47.0625 
Q 24.078125 45.65625 21.78125 43.109375 
Q 18.0625 38.921875 15.984375 33.234375 
Q 13.921875 27.546875 13.921875 21.484375 
Q 13.921875 14.75 17.0625 11.125 
Q 20.21875 7.515625 26.125 7.515625 
Q 34.671875 7.515625 40.375 15.25 
Q 46.09375 23 46.09375 34.625 
z
" id="DejaVuSans-Oblique-103"/>
       <path d="M 31 75.875 
Q 24.46875 64.65625 21.28125 53.65625 
Q 18.109375 42.671875 18.109375 31.390625 
Q 18.109375 20.125 21.3125 9.0625 
Q 24.515625 -2 31 -13.1875 
L 23.1875 -13.1875 
Q 15.875 -1.703125 12.234375 9.375 
Q 8.59375 20.453125 8.59375 31.390625 
Q 8.59375 42.28125 12.203125 53.3125 
Q 15.828125 64.359375 23.1875 75.875 
z
" id="DejaVuSans-40"/>
       <path d="M 8.015625 75.875 
L 15.828125 75.875 
Q 23.140625 64.359375 26.78125 53.3125 
Q 30.421875 42.28125 30.421875 31.390625 
Q 30.421875 20.453125 26.78125 9.375 
Q 23.140625 -1.703125 15.828125 -13.1875 
L 8.015625 -13.1875 
Q 14.5 -2 17.703125 9.0625 
Q 20.90625 20.125 20.90625 31.390625 
Q 20.90625 42.671875 17.703125 53.65625 
Q 14.5 64.65625 8.015625 75.875 
z
" id="DejaVuSans-41"/>
      </defs>
      <use transform="translate(0 0.60625)" xlink:href="#DejaVuSans-Oblique-103"/>
      <use transform="translate(68.126458 38.8875)scale(0.7)" xlink:href="#DejaVuSans-40"/>
      <use transform="translate(95.436029 38.8875)scale(0.7)" xlink:href="#DejaVuSans-50"/>
      <use transform="translate(139.972161 38.8875)scale(0.7)" xlink:href="#DejaVuSans-41"/>
      <use transform="translate(170.016107 0.60625)" xlink:href="#DejaVuSans-40"/>
      <use transform="translate(209.029779 0.60625)" xlink:href="#DejaVuSans-48"/>
      <use transform="translate(272.652826 0.60625)" xlink:href="#DejaVuSans-41"/>
     </g>
    </g>
   </g>
   <g id="line2d_9">
    <path clip-path="url(#pa32e1ccf57)" d="M 86.522727 268.670753 
L 164.290991 268.820738 
L 187.16401 269.07541 
L 199.362953 269.415864 
L 207.749727 269.864008 
L 213.849198 270.40995 
L 218.423802 271.032051 
L 222.235972 271.772169 
L 225.285708 272.579344 
L 227.57301 273.359801 
L 229.860312 274.341348 
L 232.147613 275.587894 
L 233.672481 276.608152 
L 235.197349 277.818393 
L 236.722217 279.260464 
L 238.247085 280.986916 
L 239.771953 283.062545 
L 241.296821 285.567303 
L 242.821689 288.598562 
L 244.346557 292.270512 
L 245.871425 296.709955 
L 247.396293 302.037593 
L 248.921161 308.322111 
L 251.208462 319.227429 
L 252.73333 326.411212 
L 253.495764 329.254723 
L 254.258198 330.932998 
L 255.020632 330.61507 
L 255.783066 327.062352 
L 256.5455 318.46069 
L 257.307934 302.206945 
L 258.070368 274.659749 
L 258.832802 230.888334 
L 259.595236 164.489981 
L 260.35767 67.575615 
L 260.740505 -1 
M 291.99706 -1 
L 292.379896 67.575785 
L 293.14233 164.48986 
L 293.904764 230.888067 
L 294.667198 274.659494 
L 295.429632 302.206933 
L 296.192066 318.460544 
L 296.9545 327.06217 
L 297.716934 330.614936 
L 298.479368 330.93284 
L 299.241802 329.254577 
L 300.004236 326.411017 
L 301.529104 319.227417 
L 303.816406 308.321977 
L 305.341273 302.037398 
L 306.866141 296.709785 
L 308.391009 292.270391 
L 309.915877 288.598319 
L 311.440745 285.567182 
L 312.965613 283.062375 
L 314.490481 280.986745 
L 316.015349 279.260452 
L 317.540217 277.818247 
L 319.065085 276.608091 
L 321.352387 275.138062 
L 323.639688 273.988257 
L 325.92699 273.079868 
L 328.976726 272.146863 
L 332.026462 271.445882 
L 335.838632 270.79801 
L 340.413236 270.248702 
L 346.512707 269.762017 
L 354.137047 269.386351 
L 364.811122 269.090319 
L 381.584669 268.869752 
L 412.844462 268.727641 
L 466.977273 268.670425 
L 466.977273 268.670425 
" style="fill:none;stroke:#1f77b4;stroke-linecap:square;stroke-width:5;"/>
   </g>
   <g id="line2d_10">
    <path clip-path="url(#pa32e1ccf57)" d="M 86.522727 471.977102 
L 127.694161 471.637786 
L 153.616916 471.217855 
L 171.152897 470.7276 
L 184.114274 470.153499 
L 194.025915 469.496244 
L 201.650255 468.775163 
L 207.749727 467.98507 
L 213.086764 467.057373 
L 216.898934 466.198724 
L 220.711104 465.107998 
L 223.76084 464.005596 
L 226.810576 462.621009 
L 229.097878 461.333348 
L 231.385179 459.759538 
L 232.910047 458.505992 
L 234.434915 457.045834 
L 235.959783 455.32947 
L 237.484651 453.291367 
L 239.009519 450.843514 
L 240.534387 447.865683 
L 242.059255 444.190618 
L 243.584123 439.581143 
L 245.108991 433.694383 
L 246.633859 426.026161 
L 247.396293 421.302329 
L 248.158727 415.827015 
L 248.921161 409.449656 
L 249.683594 401.990418 
L 250.446028 393.240199 
L 251.208462 382.968202 
L 251.970896 370.945563 
L 253.495764 341.132802 
L 255.783066 289.214576 
L 256.5455 277.094484 
L 257.307934 272.666621 
L 258.070368 278.075314 
L 258.832802 292.931835 
L 260.35767 338.36709 
L 261.882538 382.709277 
L 262.644972 400.423398 
L 263.407406 414.96944 
L 264.16984 426.719232 
L 264.932274 436.140072 
L 265.694708 443.678706 
L 266.457142 449.717942 
L 267.219576 454.568867 
L 267.982009 458.477373 
L 268.744443 461.635145 
L 269.506877 464.190607 
L 270.269311 466.25838 
L 271.031745 467.926843 
L 271.794179 469.264043 
L 272.556613 470.322168 
L 273.319047 471.140894 
L 274.081481 471.749875 
L 274.843915 472.170539 
L 275.606349 472.417369 
L 276.368783 472.498732 
L 277.131217 472.417369 
L 277.893651 472.170539 
L 278.656085 471.749874 
L 279.418519 471.140895 
L 280.180953 470.322166 
L 280.943387 469.264043 
L 281.705821 467.926842 
L 282.468255 466.258378 
L 283.230689 464.190607 
L 283.993123 461.635141 
L 284.755557 458.477367 
L 285.517991 454.568864 
L 286.280424 449.717933 
L 287.042858 443.6787 
L 287.805292 436.140069 
L 288.567726 426.719223 
L 289.33016 414.96944 
L 290.092594 400.42341 
L 290.855028 382.709271 
L 292.379896 338.367078 
L 293.904764 292.931932 
L 294.667198 278.075423 
L 295.429632 272.666669 
L 296.192066 277.094594 
L 296.9545 289.21477 
L 300.76667 370.945648 
L 302.291538 393.240247 
L 303.053972 401.99046 
L 304.578839 415.82704 
L 306.103707 426.026176 
L 307.628575 433.694404 
L 309.153443 439.581155 
L 310.678311 444.190624 
L 312.203179 447.86569 
L 313.728047 450.843523 
L 315.252915 453.291372 
L 316.777783 455.329473 
L 318.302651 457.04584 
L 319.827519 458.505997 
L 322.114821 460.321093 
L 324.402122 461.79059 
L 326.689424 462.998819 
L 329.73916 464.304296 
L 332.788896 465.348686 
L 336.601066 466.386642 
L 341.17567 467.350683 
L 346.512707 468.205389 
L 352.612179 468.939381 
L 360.236518 469.614554 
L 369.385726 470.194694 
L 381.584669 470.7276 
L 397.595782 471.183971 
L 419.706367 471.570336 
L 451.728594 471.885267 
L 466.977273 471.981351 
L 466.977273 471.981351 
" style="fill:none;stroke:#1f77b4;stroke-dasharray:11.1,4.8;stroke-dashoffset:0;stroke-width:3;"/>
   </g>
   <g id="line2d_11">
    <path clip-path="url(#pa32e1ccf57)" d="M 86.522727 268.877857 
L 118.544954 269.148944 
L 137.605803 269.523383 
L 149.804746 269.96516 
L 158.953953 270.500045 
L 165.815859 271.097724 
L 171.915331 271.855861 
L 176.489934 272.635747 
L 180.302104 273.485267 
L 183.35184 274.34345 
L 186.401576 275.413718 
L 189.451312 276.765925 
L 191.738614 278.023516 
L 194.025915 279.552244 
L 196.313217 281.428546 
L 197.838085 282.921248 
L 199.362953 284.650774 
L 200.887821 286.661714 
L 202.412689 289.005832 
L 203.937557 291.738628 
L 205.462425 294.909471 
L 206.987293 298.535821 
L 210.799463 308.334784 
L 211.561897 309.651244 
L 212.32433 310.16212 
L 213.086764 309.336038 
L 213.849198 306.428774 
L 214.611632 300.49296 
L 215.374066 290.518667 
L 216.1365 275.803941 
L 216.898934 256.538839 
L 219.186236 191.972282 
L 219.94867 176.682113 
L 220.711104 166.352226 
L 221.473538 160.338333 
L 222.235972 157.565076 
L 222.998406 156.97945 
L 223.76084 157.743055 
L 224.523274 159.258964 
L 228.335444 168.394466 
L 229.097878 169.760901 
L 229.860312 170.895943 
L 230.622745 171.796142 
L 231.385179 172.463516 
L 232.147613 172.901295 
L 232.910047 173.11451 
L 233.672481 173.107025 
L 234.434915 172.882219 
L 235.197349 172.442034 
L 235.959783 171.787248 
L 236.722217 170.917085 
L 237.484651 169.82819 
L 238.247085 168.517136 
L 239.771953 165.199298 
L 241.296821 160.886681 
L 242.821689 155.465072 
L 244.346557 148.772458 
L 245.871425 140.589523 
L 247.396293 130.618122 
L 248.921161 118.457242 
L 250.446028 103.560843 
L 251.970896 85.177229 
L 253.495764 62.253761 
L 255.020632 33.282719 
L 256.43232 -1 
M 296.30528 -1 
L 297.716934 33.282331 
L 299.241802 62.252157 
L 300.76667 85.175892 
L 302.291538 103.560503 
L 303.816406 118.456585 
L 305.341273 130.617685 
L 306.866141 140.588819 
L 308.391009 148.771948 
L 309.915877 155.464367 
L 311.440745 160.886122 
L 312.965613 165.19852 
L 314.490481 168.516553 
L 315.252915 169.827679 
L 316.015349 170.91621 
L 316.777783 171.786641 
L 317.540217 172.441329 
L 318.302651 172.881441 
L 319.065085 173.106321 
L 319.827519 173.114 
L 320.589953 172.900857 
L 321.352387 172.462787 
L 322.114821 171.795365 
L 322.877255 170.894874 
L 323.639688 169.760026 
L 325.164556 166.806772 
L 326.689424 163.103596 
L 328.214292 159.257554 
L 328.976726 157.7415 
L 329.73916 156.977919 
L 330.501594 157.563496 
L 331.264028 160.336851 
L 332.026462 166.351059 
L 332.788896 176.681092 
L 333.55133 191.971699 
L 335.076198 234.287799 
L 336.601066 275.8045 
L 337.3635 290.519299 
L 338.125934 300.49364 
L 338.888368 306.429576 
L 339.650802 309.336779 
L 340.413236 310.162715 
L 341.17567 309.651985 
L 341.938103 308.335452 
L 343.462971 304.589701 
L 346.512707 296.66789 
L 348.037575 293.267453 
L 349.562443 290.320822 
L 351.087311 287.789114 
L 352.612179 285.618408 
L 354.137047 283.754256 
L 355.661915 282.148251 
L 357.949217 280.134978 
L 360.236518 278.499934 
L 362.52382 277.159197 
L 364.811122 276.049488 
L 367.860858 274.84853 
L 370.910594 273.891673 
L 374.722764 272.950187 
L 379.297367 272.091992 
L 384.634405 271.351764 
L 390.733877 270.73953 
L 398.358216 270.203551 
L 408.269858 269.743245 
L 421.231235 269.373545 
L 439.52965 269.082943 
L 466.977273 268.874175 
L 466.977273 268.874175 
" style="fill:none;stroke:#ff7f0e;stroke-linecap:square;stroke-width:5;"/>
   </g>
   <g id="line2d_12">
    <path clip-path="url(#pa32e1ccf57)" d="M 86.522727 471.866612 
L 117.78252 471.499121 
L 136.843369 471.072464 
L 149.804746 470.584754 
L 159.716387 469.998854 
L 167.340727 469.320075 
L 172.677765 468.646332 
L 177.252368 467.862867 
L 181.064538 466.991741 
L 184.114274 466.086868 
L 187.16401 464.916755 
L 189.451312 463.79619 
L 191.738614 462.385975 
L 193.263482 461.231966 
L 194.788349 459.854663 
L 196.313217 458.191874 
L 197.838085 456.158483 
L 199.362953 453.635722 
L 200.887821 450.454639 
L 202.412689 446.369675 
L 203.937557 441.016261 
L 204.699991 437.701326 
L 205.462425 433.842405 
L 206.224859 429.323541 
L 206.987293 424.001007 
L 207.749727 417.697534 
L 208.512161 410.197641 
L 209.274595 401.246078 
L 210.037029 390.555961 
L 210.799463 377.838124 
L 211.561897 362.872335 
L 213.086764 326.64083 
L 214.611632 289.428459 
L 215.374066 276.891256 
L 216.1365 272.688649 
L 216.898934 278.289355 
L 217.661368 292.485684 
L 219.186236 333.520803 
L 220.711104 372.684639 
L 221.473538 388.511467 
L 222.235972 401.734184 
L 222.998406 412.649963 
L 223.76084 421.623021 
L 224.523274 429.002406 
L 225.285708 435.09099 
L 226.048142 440.139165 
L 226.810576 444.348844 
L 227.57301 447.880878 
L 228.335444 450.862909 
L 229.860312 455.560902 
L 231.385179 459.02926 
L 232.910047 461.644704 
L 234.434915 463.654625 
L 235.959783 465.225283 
L 237.484651 466.470943 
L 239.009519 467.471829 
L 241.296821 468.635446 
L 243.584123 469.507002 
L 246.633859 470.358298 
L 249.683594 470.967548 
L 253.495764 471.504022 
L 258.070368 471.932049 
L 264.16984 472.273408 
L 271.794179 472.470311 
L 280.943387 472.470311 
L 289.33016 472.241403 
L 295.429632 471.873139 
L 300.004236 471.412354 
L 303.816406 470.83307 
L 306.866141 470.172078 
L 309.153443 469.507002 
L 311.440745 468.635445 
L 313.728047 467.471828 
L 315.252915 466.470942 
L 316.777783 465.225281 
L 318.302651 463.65462 
L 319.827519 461.644696 
L 321.352387 459.029249 
L 322.877255 455.560899 
L 323.639688 453.396105 
L 324.402122 450.862908 
L 325.164556 447.880879 
L 325.92699 444.348841 
L 326.689424 440.139159 
L 327.451858 435.090987 
L 328.214292 429.0024 
L 328.976726 421.623015 
L 329.73916 412.649945 
L 330.501594 401.734165 
L 331.264028 388.511449 
L 332.026462 372.68459 
L 333.55133 333.52073 
L 335.076198 292.485611 
L 335.838632 278.289282 
L 336.601066 272.688552 
L 337.3635 276.891171 
L 338.125934 289.428411 
L 339.650802 326.640781 
L 341.17567 362.872298 
L 341.938103 377.838088 
L 342.700537 390.555961 
L 343.462971 401.246047 
L 344.225405 410.197629 
L 344.987839 417.69751 
L 345.750273 424.001001 
L 346.512707 429.323538 
L 348.037575 437.701326 
L 349.562443 443.880579 
L 351.087311 448.54449 
L 352.612179 452.140617 
L 354.137047 454.967402 
L 355.661915 457.227977 
L 357.186783 459.063628 
L 358.711651 460.574669 
L 360.236518 461.833683 
L 362.52382 463.362893 
L 364.811122 464.570199 
L 367.098424 465.5411 
L 370.14816 466.566967 
L 373.197896 467.369559 
L 377.010066 468.150632 
L 381.584669 468.860843 
L 387.684141 469.552342 
L 395.308481 470.157661 
L 405.220122 470.688773 
L 418.181499 471.13777 
L 436.479914 471.524229 
L 463.165103 471.840989 
L 466.977273 471.872773 
L 466.977273 471.872773 
" style="fill:none;stroke:#ff7f0e;stroke-dasharray:11.1,4.8;stroke-dashoffset:0;stroke-width:3;"/>
   </g>
   <g id="line2d_13">
    <path clip-path="url(#pa32e1ccf57)" d="M 86.522727 270.684756 
L 94.909501 271.328193 
L 101.771406 272.08769 
L 107.108444 272.907332 
L 111.683048 273.853545 
L 115.495218 274.894665 
L 118.544954 275.962479 
L 120.832255 276.949408 
L 123.119557 278.144911 
L 125.406859 279.609351 
L 127.694161 281.420381 
L 129.219029 282.864688 
L 130.743897 284.526378 
L 133.031199 287.423083 
L 135.318501 290.474208 
L 136.080935 291.3043 
L 136.843369 291.848772 
L 137.605803 291.895077 
L 138.368236 291.138216 
L 139.13067 289.177019 
L 139.893104 285.564909 
L 140.655538 279.960522 
L 141.417972 272.383942 
L 143.705274 246.265548 
L 144.467708 240.103494 
L 145.230142 236.034469 
L 145.992576 233.786546 
L 146.75501 232.903211 
L 147.517444 232.939979 
L 148.279878 233.54711 
L 149.804746 235.569278 
L 152.854482 240.035111 
L 154.37935 241.945496 
L 155.904218 243.587283 
L 157.429085 244.984482 
L 159.716387 246.692805 
L 162.003689 248.027795 
L 164.290991 249.071758 
L 166.578293 249.885981 
L 169.628029 250.691334 
L 172.677765 251.24323 
L 175.7275 251.591898 
L 179.53967 251.791724 
L 183.35184 251.766111 
L 187.16401 251.537683 
L 190.97618 251.114484 
L 194.788349 250.493769 
L 198.600519 249.662924 
L 202.412689 248.5985 
L 206.224859 247.26577 
L 209.274595 245.973744 
L 212.32433 244.444057 
L 215.374066 242.633184 
L 217.661368 241.056207 
L 219.94867 239.258652 
L 222.235972 237.20324 
L 224.523274 234.843194 
L 226.810576 232.120531 
L 229.097878 228.960939 
L 231.385179 225.272756 
L 232.910047 222.460034 
L 234.434915 219.315436 
L 235.959783 215.784187 
L 237.484651 211.797493 
L 239.009519 207.283398 
L 240.534387 202.138624 
L 242.059255 196.240525 
L 243.584123 189.43552 
L 245.108991 181.529323 
L 246.633859 172.259316 
L 248.158727 161.316295 
L 249.683594 148.242968 
L 251.208462 132.447123 
L 252.73333 113.119592 
L 254.258198 89.124969 
L 255.783066 58.780786 
L 257.307934 19.653171 
L 257.965009 -1 
M 294.77296 -1 
L 296.192066 40.474059 
L 297.716934 74.841048 
L 299.241802 101.769921 
L 300.76667 123.279301 
L 302.291538 140.713263 
L 303.816406 155.06858 
L 305.341273 167.018748 
L 306.866141 177.079212 
L 308.391009 185.631908 
L 309.915877 192.958239 
L 311.440745 199.290739 
L 312.965613 204.794703 
L 314.490481 209.612437 
L 316.015349 213.850572 
L 317.540217 217.599701 
L 319.065085 220.931075 
L 321.352387 225.271419 
L 323.639688 228.959578 
L 325.92699 232.119292 
L 328.214292 234.842562 
L 330.501594 237.202682 
L 332.788896 239.258506 
L 335.076198 241.056305 
L 338.125934 243.114656 
L 341.17567 244.850561 
L 344.225405 246.317042 
L 347.275141 247.555873 
L 351.087311 248.831617 
L 354.899481 249.847148 
L 358.711651 250.634373 
L 362.52382 251.215017 
L 366.33599 251.599431 
L 370.14816 251.788686 
L 373.96033 251.771165 
L 377.7725 251.522155 
L 380.822235 251.126197 
L 383.871971 250.516781 
L 386.921707 249.6377 
L 389.209009 248.752372 
L 391.496311 247.619493 
L 393.783613 246.170508 
L 395.308481 244.985284 
L 396.833349 243.588085 
L 398.358216 241.946565 
L 399.883084 240.036084 
L 402.170386 236.721623 
L 403.695254 234.478949 
L 404.457688 233.548204 
L 405.220122 232.941315 
L 405.982556 232.904499 
L 406.74499 233.787883 
L 407.507424 236.035538 
L 408.269858 240.104563 
L 409.032292 246.26618 
L 410.55716 263.451497 
L 411.319594 272.383674 
L 412.082028 279.959587 
L 412.844462 285.56395 
L 413.606896 289.17595 
L 414.36933 291.137195 
L 415.131764 291.894081 
L 415.894197 291.847727 
L 416.656631 291.303255 
L 418.181499 289.496623 
L 421.231235 285.44106 
L 423.518537 282.863971 
L 425.805839 280.772218 
L 428.093141 279.086276 
L 430.380443 277.719428 
L 432.667745 276.599306 
L 435.71748 275.397352 
L 438.767216 274.444237 
L 442.579386 273.506809 
L 447.15399 272.646706 
L 452.491028 271.894584 
L 458.590499 271.258802 
L 466.214839 270.68461 
L 466.977273 270.637345 
L 466.977273 270.637345 
" style="fill:none;stroke:#2ca02c;stroke-linecap:square;stroke-width:5;"/>
   </g>
   <g id="line2d_14">
    <path clip-path="url(#pa32e1ccf57)" d="M 86.522727 470.433004 
L 94.147067 469.817845 
L 99.484105 469.190988 
L 104.058708 468.444527 
L 107.870878 467.595228 
L 110.920614 466.694025 
L 113.207916 465.834525 
L 115.495218 464.758387 
L 117.78252 463.385741 
L 119.307388 462.248988 
L 120.832255 460.878089 
L 122.357123 459.204521 
L 123.881991 457.133343 
L 125.406859 454.5304 
L 126.931727 451.202193 
L 128.456595 446.863413 
L 129.219029 444.18837 
L 129.981463 441.084133 
L 130.743897 437.46035 
L 131.506331 433.20446 
L 132.268765 428.176191 
L 133.031199 422.20141 
L 133.793633 415.066321 
L 134.556067 406.514063 
L 135.318501 396.249198 
L 136.080935 383.960168 
L 136.843369 369.379449 
L 138.368236 333.371852 
L 139.893104 294.400163 
L 140.655538 279.801971 
L 141.417972 272.906057 
L 142.180406 275.693129 
L 142.94284 287.541319 
L 143.705274 305.584782 
L 145.992576 365.483481 
L 146.75501 381.685757 
L 147.517444 395.349655 
L 148.279878 406.71178 
L 149.042312 416.10673 
L 149.804746 423.87197 
L 150.56718 430.30773 
L 151.329614 435.66596 
L 152.092048 440.151875 
L 152.854482 443.930235 
L 154.37935 449.862853 
L 155.904218 454.226048 
L 157.429085 457.508081 
L 158.953953 460.027522 
L 160.478821 461.996944 
L 162.003689 463.561405 
L 163.528557 464.822087 
L 165.053425 465.850997 
L 167.340727 467.070169 
L 169.628029 468.004906 
L 172.677765 468.943591 
L 175.7275 469.638949 
L 179.53967 470.278565 
L 184.114274 470.823992 
L 190.213746 471.316456 
L 198.600519 471.74043 
L 210.037029 472.071076 
L 226.810576 472.315932 
L 254.258198 472.471038 
L 296.192066 472.47697 
L 328.214292 472.292491 
L 346.512707 471.982173 
L 357.949217 471.574364 
L 365.573556 471.096327 
L 370.910594 470.575517 
L 375.485198 469.920254 
L 379.297367 469.136681 
L 382.347103 468.268021 
L 384.634405 467.408708 
L 386.921707 466.295446 
L 388.446575 465.361867 
L 389.971443 464.224664 
L 391.496311 462.822645 
L 393.021179 461.070667 
L 394.546047 458.847891 
L 396.070915 455.979203 
L 397.595782 452.205148 
L 398.358216 449.862844 
L 399.12065 447.132344 
L 399.883084 443.93022 
L 400.645518 440.151866 
L 401.407952 435.665932 
L 402.170386 430.307697 
L 402.93282 423.871939 
L 403.695254 416.106681 
L 404.457688 406.711744 
L 405.220122 395.349619 
L 405.982556 381.685697 
L 406.74499 365.483421 
L 408.269858 326.280425 
L 409.794726 287.541574 
L 410.55716 275.693445 
L 411.319594 272.906543 
L 412.082028 279.802567 
L 412.844462 294.400697 
L 415.894197 369.379777 
L 416.656631 383.960435 
L 417.419065 396.249411 
L 418.181499 406.514251 
L 418.943933 415.066467 
L 419.706367 422.201547 
L 420.468801 428.176294 
L 421.231235 433.204555 
L 421.993669 437.46042 
L 423.518537 444.188428 
L 425.043405 449.181841 
L 426.568273 452.972179 
L 428.093141 455.908767 
L 429.618009 458.22593 
L 431.142877 460.08435 
L 432.667745 461.596599 
L 434.192612 462.843147 
L 436.479914 464.338704 
L 438.767216 465.50321 
L 441.054518 466.427819 
L 444.104254 467.391654 
L 447.15399 468.134954 
L 450.96616 468.847822 
L 455.540763 469.485574 
L 461.640235 470.095219 
L 466.977273 470.481886 
L 466.977273 470.481886 
" style="fill:none;stroke:#2ca02c;stroke-dasharray:11.1,4.8;stroke-dashoffset:0;stroke-width:3;"/>
   </g>
   <g id="patch_3">
    <path d="M 67.5 472.5 
L 67.5 64.8 
" style="fill:none;stroke:#000000;stroke-linecap:square;stroke-linejoin:miter;stroke-width:0.8;"/>
   </g>
   <g id="patch_4">
    <path d="M 486 472.5 
L 486 64.8 
" style="fill:none;stroke:#000000;stroke-linecap:square;stroke-linejoin:miter;stroke-width:0.8;"/>
   </g>
   <g id="patch_5">
    <path d="M 67.5 472.5 
L 486 472.5 
" style="fill:none;stroke:#000000;stroke-linecap:square;stroke-linejoin:miter;stroke-width:0.8;"/>
   </g>
   <g id="patch_6">
    <path d="M 67.5 64.8 
L 486 64.8 
" style="fill:none;stroke:#000000;stroke-linecap:square;stroke-linejoin:miter;stroke-width:0.8;"/>
   </g>
   <g id="legend_1">
    <g id="patch_7">
     <path d="M 283.242188 220.903125 
L 465 220.903125 
Q 471 220.903125 471 214.903125 
L 471 85.8 
Q 471 79.8 465 79.8 
L 283.242188 79.8 
Q 277.242188 79.8 277.242188 85.8 
L 277.242188 214.903125 
Q 277.242188 220.903125 283.242188 220.903125 
z
" style="fill:#ffffff;opacity:0.8;stroke:#cccccc;stroke-linejoin:miter;"/>
    </g>
    <g id="line2d_15">
     <path d="M 289.242188 104.095312 
L 349.242188 104.095312 
" style="fill:none;stroke:#1f77b4;stroke-linecap:square;stroke-width:5;"/>
    </g>
    <g id="line2d_16"/>
    <g id="text_11">
     <!-- N=1 -->
     <g transform="translate(373.242188 114.595312)scale(0.3 -0.3)">
      <defs>
       <path d="M 9.8125 72.90625 
L 23.09375 72.90625 
L 55.421875 11.921875 
L 55.421875 72.90625 
L 64.984375 72.90625 
L 64.984375 0 
L 51.703125 0 
L 19.390625 60.984375 
L 19.390625 0 
L 9.8125 0 
z
" id="DejaVuSans-78"/>
       <path d="M 10.59375 45.40625 
L 73.1875 45.40625 
L 73.1875 37.203125 
L 10.59375 37.203125 
z
M 10.59375 25.484375 
L 73.1875 25.484375 
L 73.1875 17.1875 
L 10.59375 17.1875 
z
" id="DejaVuSans-61"/>
      </defs>
      <use xlink:href="#DejaVuSans-78"/>
      <use x="74.804688" xlink:href="#DejaVuSans-61"/>
      <use x="158.59375" xlink:href="#DejaVuSans-49"/>
     </g>
    </g>
    <g id="line2d_17">
     <path d="M 289.242188 148.129687 
L 349.242188 148.129687 
" style="fill:none;stroke:#ff7f0e;stroke-linecap:square;stroke-width:5;"/>
    </g>
    <g id="line2d_18"/>
    <g id="text_12">
     <!-- N=10 -->
     <g transform="translate(373.242188 158.629687)scale(0.3 -0.3)">
      <use xlink:href="#DejaVuSans-78"/>
      <use x="74.804688" xlink:href="#DejaVuSans-61"/>
      <use x="158.59375" xlink:href="#DejaVuSans-49"/>
      <use x="222.216797" xlink:href="#DejaVuSans-48"/>
     </g>
    </g>
    <g id="line2d_19">
     <path d="M 289.242188 192.164062 
L 349.242188 192.164062 
" style="fill:none;stroke:#2ca02c;stroke-linecap:square;stroke-width:5;"/>
    </g>
    <g id="line2d_20"/>
    <g id="text_13">
     <!-- N=50 -->
     <g transform="translate(373.242188 202.664062)scale(0.3 -0.3)">
      <use xlink:href="#DejaVuSans-78"/>
      <use x="74.804688" xlink:href="#DejaVuSans-61"/>
      <use x="158.59375" xlink:href="#DejaVuSans-53"/>
      <use x="222.216797" xlink:href="#DejaVuSans-48"/>
     </g>
    </g>
   </g>
  </g>
 </g>
 <defs>
  <clipPath id="pa32e1ccf57">
   <rect height="407.7" width="418.5" x="67.5" y="64.8"/>
  </clipPath>
 </defs>
</svg>
